<?xml version="1.0" encoding="utf-8"?>
<!-- Generator: Adobe Illustrator 21.0.0, SVG Export Plug-In . SVG Version: 6.00 Build 0)  -->
<svg version="1.1" id="Layer_1" xmlns="http://www.w3.org/2000/svg" xmlns:xlink="http://www.w3.org/1999/xlink" x="0px" y="0px"
	 viewBox="0 0 101 41" style="enable-background:new 0 0 101 41;" xml:space="preserve">
<style type="text/css">
	.st0{fill:#383838;}
</style>
<g>
	<g>
		<path class="st0" d="M62.3,14.8c0.6-0.9,0.5-2-0.2-2.8l-5.2-3.9l6.2-6C64,1.3,63.4,0,62.3,0H49.4c-0.6,0-1.2,0.2-1.6,0.7L40.2,8
			c-0.6,0.9-0.5,2,0.2,2.8l5.1,4l-5.9,5.9c-0.9,0.9-0.3,2.4,1,2.4h12.5c0.6,0,1.2-0.2,1.6-0.6L62.3,14.8z M43.9,7.1
			c0,0,5.3-5.1,5.3-5.1c0.1-0.1,0.2-0.1,0.3-0.1h11.1l-5.4,5.2H43.9z M60.8,13.6L60.8,13.6l-2.1,2l-3.9,3.9c0,0-13.1-10.2-13.1-10.2
			c-0.1-0.1,0-0.3,0.2-0.3h13l5.8,4.4C60.8,13.5,60.8,13.6,60.8,13.6z M41.9,21.1l5.2-5.2l6.2,4.8c0,0,0.1,0.1,0.1,0.2
			c0,0.1-0.2,0.1-0.3,0.1H41.9z"/>
		<g>
			<path class="st0" d="M4.7,34.8c-1.7-0.4-2.1-0.7-2.1-1.3v0c0-0.5,0.4-0.9,1.3-0.9c0.8,0,1.7,0.4,2.6,1L7.6,32
				c-1-0.8-2.2-1.3-3.7-1.3c-2,0-3.5,1.2-3.5,3v0c0,2,1.3,2.5,3.3,3c1.7,0.4,2,0.7,2,1.3v0c0,0.6-0.5,0.9-1.4,0.9
				c-1.1,0-2.1-0.5-3-1.2L0,39.4c1.2,1.1,2.7,1.6,4.2,1.6c2.1,0,3.7-1.1,3.7-3.1v0C7.9,36.1,6.7,35.4,4.7,34.8z"/>
			<path class="st0" d="M17.1,39c-1.7,0-2.9-1.4-2.9-3.1v0c0-1.7,1.2-3.1,2.9-3.1c1,0,1.8,0.4,2.5,1.1l1.4-1.6
				c-0.9-0.9-2-1.5-3.9-1.5c-3.1,0-5.2,2.3-5.2,5.2v0c0,2.9,2.2,5.1,5.1,5.1c1.9,0,3.1-0.7,4.1-1.8l-1.4-1.4
				C18.9,38.5,18.3,39,17.1,39z"/>
			<polygon class="st0" points="31.7,34.8 31.7,35.2 27.7,35.2 27.7,34.8 27.7,30.8 25.5,30.8 25.5,40.8 27.7,40.8 27.7,37.2 
				31.7,37.2 31.7,40.8 33.9,40.8 33.9,30.8 31.7,30.8 			"/>
			<path class="st0" d="M45.5,36.5c0,1.6-0.8,2.4-2.1,2.4c-1.3,0-2.1-0.8-2.1-2.5v-5.6H39v5.7c0,2.9,1.6,4.4,4.3,4.4
				c2.7,0,4.4-1.5,4.4-4.5v-5.6h-2.2V36.5z"/>
			<path class="st0" d="M55.9,37.3c0,1.2-0.5,1.6-1.3,1.6c-0.7,0-1.3-0.4-1.8-1l-1.4,1.5c0.7,0.8,1.7,1.5,3.3,1.5
				c2.1,0,3.5-1.2,3.5-3.6v-6.5h-2.2V37.3z"/>
			<polygon class="st0" points="68.2,35.1 65.6,30.8 63.2,30.8 63.2,40.8 65.4,40.8 65.4,34.3 68.2,38.6 68.2,38.6 71,34.3 71,40.8 
				73.2,40.8 73.2,30.8 70.8,30.8 			"/>
			<path class="st0" d="M81.7,30.8l-4.3,10h2.2l0.9-2.2h4.2l0.9,2.2h2.3l-4.3-10H81.7z M81.3,36.6l1.3-3.2l1.3,3.2H81.3z"/>
			<polygon class="st0" points="98.8,30.8 98.8,37 94.1,30.8 92.1,30.8 92.1,40.8 94.3,40.8 94.3,34.5 99.1,40.8 101,40.8 101,30.8 
							"/>
		</g>
	</g>
</g>
</svg>
