<svg width="38" height="46" viewBox="0 0 38 46" fill="none" xmlns="http://www.w3.org/2000/svg">
<path d="M36.3128 43.3401C36.0796 42.8708 35.9644 42.1415 35.9644 41.1497V25.0424C35.9644 23.5309 35.6045 22.2959 34.8904 21.3404C34.0843 20.2284 32.8951 19.6724 31.3173 19.6724C29.5811 19.6724 26.4572 21.0191 21.9426 23.7125V19.745H19.93C19.5701 20.1501 19.2015 20.5162 18.8244 20.8458C18.738 20.9157 18.6574 20.9772 18.5854 21.0302C17.5172 21.8293 16.2532 22.4272 14.8021 22.8296C14.3875 22.8994 13.9671 22.9357 13.5352 22.9357C11.3499 22.9357 9.57918 21.9718 8.21731 20.044C6.78345 18.0463 6.0694 15.3277 6.0694 11.8856C6.0694 9.60848 6.3746 7.68902 6.98212 6.12439C7.87756 3.77745 9.34596 2.60678 11.3873 2.60678C11.9603 2.60678 12.4267 2.68501 12.7838 2.84147C12.9277 2.92809 13.1149 3.0594 13.3481 3.23263C13.8865 3.71878 14.2608 4.36978 14.4767 5.18841C15.1044 7.70858 16.3482 8.96866 18.2111 8.96866C19.1065 8.96866 19.835 8.68647 20.3993 8.12208C20.9636 7.5577 21.2458 6.85921 21.2458 6.02381C21.2458 4.42566 20.3504 3.00911 18.5595 1.77417C16.8233 0.592323 14.8338 0 12.5966 0C8.65783 0 5.52235 1.42493 3.19594 4.27478C1.06531 6.91509 0 10.2008 0 14.1263C0 16.1604 0.250492 17.9233 0.751477 19.4181C1.52023 21.7287 2.80149 23.5616 4.59236 24.9167C6.48977 26.3584 8.73845 27.0792 11.3326 27.0792C12.8557 27.0792 14.3213 26.7607 15.7321 26.1265C15.8242 26.4729 15.8703 26.9172 15.8703 27.4676V41.1497C15.8703 42.175 15.735 42.8959 15.4672 43.3122C15.2513 43.6251 14.7071 43.7816 13.8289 43.7816V45.9972H23.9551V43.7816C23.077 43.7816 22.5127 43.6251 22.2622 43.3122C22.1355 43.0691 22.0635 42.8344 22.0462 42.6081C21.9742 42.4181 21.9397 41.9292 21.9397 41.1497V26.6573C24.7872 25.1625 26.8372 24.4165 28.0897 24.4165C28.8066 24.4165 29.2702 24.5646 29.4861 24.8608C29.7539 25.2436 29.8892 26.0343 29.8892 27.2329V41.1497C29.8892 42.1918 29.7625 42.921 29.512 43.3401C29.3134 43.6363 28.7606 43.7844 27.8479 43.7844V46H38V43.7844C37.1046 43.7844 36.5402 43.6363 36.307 43.3401H36.3128Z" fill="#0C2820"/>
</svg>
