<svg width="92" height="93" viewBox="0 0 92 93" fill="none" xmlns="http://www.w3.org/2000/svg">
<path d="M46.166 91.9348C42.7985 91.9348 40.351 88.402 37.9816 84.9826C36.2892 82.5401 34.5447 80.0104 32.6873 79.2428C30.7085 78.4141 27.6014 78.9636 24.5898 79.4958C20.6061 80.1936 16.4922 80.9176 14.2269 78.6409C11.9617 76.3642 12.682 72.2295 13.3764 68.2256C13.9058 65.1987 14.4439 62.0671 13.6281 60.087C12.8556 58.2202 10.3474 56.4669 7.91723 54.7659C4.51503 52.3845 1 49.9246 1 46.5401C1 43.1555 4.51503 40.6956 7.91723 38.3142C10.3474 36.6132 12.8643 34.8599 13.6281 32.9931C14.4439 31.0043 13.9058 27.8814 13.3764 24.8545C12.682 20.8506 11.9617 16.7159 14.2269 14.4392C16.4922 12.1625 20.6061 12.8865 24.5898 13.5843C27.6014 14.1164 30.7172 14.6573 32.6873 13.8373C34.5447 13.061 36.2978 10.54 37.9816 8.09754C40.351 4.6781 42.7985 1.14526 46.166 1.14526C49.5334 1.14526 51.9809 4.6781 54.3503 8.09754C56.0427 10.54 57.7872 13.0697 59.6446 13.8373C61.6234 14.6573 64.7305 14.1164 67.7422 13.5843C71.7259 12.8865 75.8397 12.1625 78.105 14.4392C80.3702 16.7159 79.6499 20.8506 78.9555 24.8545C78.4261 27.8814 77.888 31.013 78.7038 32.9931C79.4763 34.8599 81.9845 36.6132 84.4147 38.3142C87.8169 40.6956 91.3319 43.1555 91.3319 46.5401C91.3319 49.9246 87.8169 52.3845 84.4147 54.7659C81.9845 56.4669 79.4676 58.2202 78.7038 60.087C77.888 62.0758 78.4261 65.2074 78.9555 68.2256C79.6499 72.2295 80.3702 76.3642 78.105 78.6409C75.8397 80.9176 71.7259 80.1936 67.7422 79.4958C64.7305 78.9636 61.6234 78.4228 59.6446 79.2428C57.7872 80.0191 56.0341 82.5401 54.3503 84.9826C51.9809 88.402 49.5334 91.9348 46.166 91.9348ZM30.0836 77.3848C31.2379 77.3848 32.3055 77.5331 33.2341 77.9169C35.4733 78.8503 37.2612 81.4323 39.1533 84.1626C41.3143 87.2767 43.5449 90.5043 46.166 90.5043C48.787 90.5043 51.0176 87.2854 53.1787 84.1626C55.0707 81.4323 56.8586 78.8503 59.0978 77.9169C61.4585 76.9312 64.7739 77.5156 67.9852 78.0826C71.613 78.7194 75.3624 79.3736 77.0982 77.629C78.8427 75.8757 78.1831 72.1073 77.5495 68.4698C76.9854 65.2423 76.4126 61.9101 77.3846 59.5374C78.3133 57.2869 80.8823 55.4899 83.5988 53.5883C86.6973 51.4162 89.9085 49.1744 89.9085 46.5401C89.9085 43.9057 86.7059 41.6639 83.5988 39.4918C80.8823 37.5902 78.3133 35.7932 77.3846 33.5427C76.4039 31.17 76.9854 27.8378 77.5495 24.6103C78.1831 20.964 78.834 17.1957 77.0982 15.4511C75.3537 13.6977 71.6043 14.3607 67.9852 14.9975C64.7739 15.5645 61.4585 16.1402 59.0978 15.1632C56.8586 14.2298 55.0707 11.6478 53.1787 8.91751C51.0176 5.80338 48.787 2.57585 46.166 2.57585C43.5449 2.57585 41.3143 5.79465 39.1533 8.91751C37.2612 11.6478 35.4733 14.2298 33.2341 15.1632C30.8734 16.1489 27.558 15.5645 24.3467 14.9975C20.7189 14.3607 16.9695 13.7065 15.2337 15.4511C13.4892 17.2044 14.1488 20.9728 14.7824 24.6103C15.3465 27.8378 15.9193 31.17 14.9473 33.5427C14.0186 35.7932 11.4496 37.5902 8.73306 39.4918C5.63463 41.6639 2.42337 43.9057 2.42337 46.5401C2.42337 49.1744 5.62595 51.425 8.73306 53.5883C11.4496 55.4899 14.0186 57.2869 14.9473 59.5374C15.928 61.9101 15.3465 65.2423 14.7824 68.4698C14.1488 72.1161 13.4979 75.8757 15.2337 77.629C16.9695 79.3824 20.7276 78.7194 24.3467 78.0826C26.2995 77.7424 28.2957 77.3935 30.0836 77.3935V77.3848Z" fill="#263E37" stroke="#0C2820"/>
</svg>
