<svg width="88" height="88" viewBox="0 0 88 88" fill="none" xmlns="http://www.w3.org/2000/svg">
<path d="M43.8873 86.7314C40.6897 86.7314 38.3657 83.3767 36.1158 80.1298C34.5088 77.8106 32.8523 75.4085 31.0887 74.6796C29.2097 73.8928 26.2593 74.4146 23.3996 74.9198C19.6169 75.5825 15.7106 76.27 13.5596 74.1081C11.4087 71.9463 12.0927 68.0201 12.752 64.2182C13.2547 61.3441 13.7656 58.3705 12.991 56.4902C12.2575 54.7177 9.87579 53.0528 7.56825 51.4376C4.33769 49.1764 1 46.8406 1 43.6268C1 40.413 4.33769 38.0772 7.56825 35.8159C9.87579 34.2008 12.2657 32.5359 12.991 30.7633C13.7656 28.8748 13.2547 25.9095 12.752 23.0353C12.0927 19.2334 11.4087 15.3073 13.5596 13.1455C15.7106 10.9836 19.6169 11.6711 23.3996 12.3337C26.2593 12.839 29.2179 13.3525 31.0887 12.5739C32.8523 11.8368 34.517 9.44297 36.1158 7.12374C38.3657 3.87682 40.6897 0.522217 43.8873 0.522217C47.0849 0.522217 49.4089 3.87682 51.6587 7.12374C53.2658 9.44297 54.9223 11.845 56.6859 12.5739C58.5649 13.3525 61.5152 12.839 64.3749 12.3337C68.1577 11.6711 72.064 10.9836 74.2149 13.1455C76.3659 15.3073 75.6819 19.2334 75.0226 23.0353C74.5199 25.9095 74.0089 28.8831 74.7836 30.7633C75.5171 32.5359 77.8988 34.2008 80.2063 35.8159C83.4369 38.0772 86.7746 40.413 86.7746 43.6268C86.7746 46.8406 83.4369 49.1764 80.2063 51.4376C77.8988 53.0528 75.5088 54.7177 74.7836 56.4902C74.0089 58.3787 74.5199 61.3523 75.0226 64.2182C75.6819 68.0201 76.3659 71.9463 74.2149 74.1081C72.064 76.27 68.1577 75.5825 64.3749 74.9198C61.5152 74.4146 58.5649 73.901 56.6859 74.6796C54.9223 75.4168 53.2575 77.8106 51.6587 80.1298C49.4089 83.3767 47.0849 86.7314 43.8873 86.7314ZM28.6163 72.9154C29.7124 72.9154 30.7261 73.0562 31.6079 73.4206C33.7341 74.3069 35.4318 76.7587 37.2284 79.3512C39.2804 82.3082 41.3984 85.3729 43.8873 85.3729C46.3761 85.3729 48.4941 82.3165 50.5462 79.3512C52.3428 76.7587 54.0405 74.3069 56.1667 73.4206C58.4083 72.4846 61.5564 73.0396 64.6057 73.578C68.0505 74.1827 71.6107 74.8039 73.259 73.1473C74.9155 71.4824 74.2891 67.9042 73.6875 64.4502C73.1518 61.3855 72.6079 58.2214 73.5309 55.9684C74.4127 53.8314 76.8521 52.1251 79.4316 50.3194C82.3737 48.257 85.423 46.1282 85.423 43.6268C85.423 41.1253 82.382 38.9966 79.4316 36.9341C76.8521 35.1285 74.4127 33.4222 73.5309 31.2852C72.5997 29.0322 73.1518 25.8681 73.6875 22.8034C74.2891 19.3411 74.9072 15.7629 73.259 14.1063C71.6025 12.4414 68.0423 13.0709 64.6057 13.6756C61.5564 14.214 58.4083 14.7606 56.1667 13.8329C54.0405 12.9467 52.3428 10.4949 50.5462 7.90234C48.4941 4.94532 46.3761 1.88062 43.8873 1.88062C41.3984 1.88062 39.2804 4.93704 37.2284 7.90234C35.4318 10.4949 33.7341 12.9467 31.6079 13.8329C29.3663 14.7689 26.2181 14.214 23.1689 13.6756C19.724 13.0709 16.1638 12.4497 14.5156 14.1063C12.8591 15.7712 13.4854 19.3494 14.087 22.8034C14.6227 25.8681 15.1666 29.0322 14.2436 31.2852C13.3618 33.4222 10.9224 35.1285 8.34292 36.9341C5.40081 38.9966 2.35156 41.1253 2.35156 43.6268C2.35156 46.1282 5.39257 48.2652 8.34292 50.3194C10.9224 52.1251 13.3618 53.8314 14.2436 55.9684C15.1749 58.2214 14.6227 61.3855 14.087 64.4502C13.4854 67.9124 12.8673 71.4824 14.5156 73.1473C16.1638 74.8122 19.7323 74.1827 23.1689 73.578C25.0231 73.255 26.9186 72.9236 28.6163 72.9236V72.9154Z" fill="#263E37" stroke="#0C2820"/>
</svg>
