<svg width="79" height="91" viewBox="0 0 79 91" fill="none" xmlns="http://www.w3.org/2000/svg">
<path d="M77.7583 16.9402C77.6119 16.8265 77.431 16.7827 77.2501 16.809C77.0692 16.8352 76.9055 16.9315 76.8021 17.0803L72.8823 22.3407C72.8393 22.402 72.8048 22.472 72.779 22.542L64.2244 48.3979L63.518 48.2316C62.2085 47.9165 61.0714 47.0937 60.3563 45.9296C59.6413 44.7654 59.4173 43.365 59.7188 42.0346L61.3815 34.7697C61.4504 34.4721 61.3212 34.1658 61.0628 34.017C60.8043 33.8594 60.4769 33.9032 60.253 34.1045L54.3862 39.575C54.3862 39.575 54.3604 39.6013 54.3432 39.6188L41.1108 51.9603C40.6456 52.4067 40.0339 52.6692 39.3878 52.6955C38.7503 52.713 38.1214 52.4942 37.6217 52.0828C37.0876 51.6014 36.7861 50.9099 36.7861 50.1922C36.7861 49.4745 37.079 48.7917 37.5959 48.3016C37.5959 48.3016 37.5959 48.3016 37.6045 48.3016L50.6732 36.1177C50.9489 35.8551 50.9662 35.4174 50.7163 35.1373C50.4579 34.8573 50.0271 34.8397 49.7515 35.0936L36.6827 47.2775L34.4859 49.3344C33.9604 49.8246 33.2626 50.0609 32.5562 49.9996C31.8498 49.9384 31.1951 49.5707 30.7729 48.9843C30.4025 48.4504 30.2388 47.7939 30.3164 47.1462C30.3939 46.4985 30.704 45.9033 31.1778 45.4657L33.2885 43.4963L46.3572 31.3124C46.6243 31.0498 46.6415 30.6209 46.3831 30.3408C46.1332 30.0607 45.7111 30.0432 45.4268 30.2883L32.3581 42.4722C31.8326 42.9536 31.1348 43.1987 30.4283 43.1287C29.7219 43.0586 29.0758 42.691 28.6451 42.1133C28.2746 41.5794 28.111 40.923 28.1885 40.2752C28.266 39.6275 28.5762 39.0323 29.05 38.5947L34.2792 33.7106L42.0067 26.5071C42.1445 26.3845 42.2307 26.2095 42.2479 26.0169C42.2565 25.8331 42.1962 25.6405 42.067 25.5005C41.9378 25.3605 41.7655 25.2817 41.576 25.2729C41.3864 25.2729 41.2141 25.3429 41.0763 25.4742L33.3574 32.6691C32.8319 33.1592 32.1341 33.3955 31.4277 33.3343C30.7212 33.2642 30.0751 32.9054 29.6444 32.3277C29.2739 31.7938 29.1103 31.1373 29.1878 30.4896C29.2653 29.8419 29.5755 29.2467 30.0493 28.8091L49.7601 10.4281L55.4717 7.86357C55.4717 7.86357 55.5493 7.82856 55.5837 7.8023L63.4577 2.27052C63.7678 2.0517 63.8454 1.62282 63.63 1.29896C63.4146 0.98386 62.9925 0.905084 62.6824 1.1239L54.8601 6.61192L49.0967 9.194C49.0278 9.22901 48.9675 9.26402 48.9072 9.31654L45.7111 12.2925C45.3062 11.2334 44.5653 10.3319 43.5918 9.74543C42.2565 8.94017 40.6283 8.80888 39.1896 9.39532C37.8543 9.92924 36.8033 11.0058 36.2864 12.3625L36.0538 12.984C36.0022 12.8527 35.9418 12.7301 35.8815 12.5988C35.2354 11.2947 34.0724 10.3319 32.6854 9.93799C31.4363 9.62289 30.1182 9.78919 28.9811 10.4019C27.8439 11.0146 26.9738 12.0299 26.5258 13.2553L14.5943 44.8967L13.7672 40.7829L14.6373 28.9228C14.8182 27.0848 14.3961 25.2292 13.4571 23.6449C11.872 21.0716 9.32196 20.1263 6.07416 20.9053C5.41082 21.0628 4.80778 21.4304 4.35119 21.9469C3.90322 22.4633 3.61892 23.111 3.53277 23.7937L1 44.5904C1 44.6604 1 44.7304 1 44.7917L5.21268 69.851L3.59308 78.6301C3.55862 78.8314 3.61031 79.0415 3.73953 79.199C3.86875 79.3566 4.0669 79.4529 4.26504 79.4529C4.5924 79.4529 4.87669 79.2165 4.93699 78.8839L6.58243 69.9823C6.59966 69.9035 6.59966 69.816 6.58243 69.7372L2.36115 44.6604L4.87668 23.9688C4.92837 23.5661 5.10068 23.181 5.36774 22.8747C5.6348 22.5683 5.988 22.3582 6.38428 22.262C9.03766 21.623 11.0277 22.3407 12.2941 24.3889C13.0866 25.7193 13.4226 27.2773 13.2676 28.8178L12.3888 40.7829C12.3888 40.8442 12.3888 40.9142 12.3975 40.9755L13.7069 47.5226C13.7672 47.8289 14.017 48.0477 14.3186 48.074C14.6201 48.1003 14.9044 47.9165 15.0164 47.6276L27.7922 13.763C28.1109 12.8614 28.7484 12.1087 29.5841 11.6535C30.4197 11.1984 31.3846 11.0671 32.3064 11.2947C33.3143 11.5748 34.1672 12.275 34.641 13.229C35.1148 14.1831 35.1751 15.286 34.7961 16.2838C34.7961 16.2838 34.7961 16.3013 34.7961 16.31C34.7961 16.31 34.7961 16.3188 34.7961 16.3275L32.0393 25.0716L29.1103 27.8025C28.378 28.4677 27.9128 29.3867 27.8094 30.3758C27.7061 31.3649 27.9559 32.3627 28.5331 33.1767C29.1706 34.0345 30.1182 34.5859 31.1606 34.726L28.1023 37.5794C27.3701 38.2446 26.9049 39.1636 26.8015 40.1527C26.6981 41.1418 26.9479 42.1396 27.5251 42.9536C28.1626 43.8114 29.1103 44.3628 30.1527 44.5029C29.4463 45.1768 29.0155 46.0871 28.9207 47.0587C28.826 48.039 29.0844 49.0106 29.6444 49.8071C30.3077 50.6999 31.3071 51.26 32.3925 51.3651C33.4866 51.4701 34.5721 51.0937 35.3733 50.341L35.3991 50.3147C35.4422 51.3826 35.9074 52.3891 36.6913 53.1069C37.3891 53.7371 38.3023 54.0872 39.2413 54.0784C40.2665 54.0784 41.2572 53.6846 42.0153 52.9843L53.1543 42.5947L42.6701 70.4199L37.1565 77.1596C37.1565 77.1596 37.1049 77.2296 37.0876 77.2646L30.7385 88.9672C30.6265 89.186 30.6265 89.4486 30.7471 89.6586C30.8677 89.8687 31.0917 90 31.3329 90C31.5827 90 31.8153 89.8599 31.9359 89.6411L38.2506 77.9999L43.79 71.2252C43.8417 71.1639 43.8761 71.1027 43.902 71.0326L55.4114 40.4941L59.5293 36.6516L58.3663 41.7282C57.9786 43.4175 58.2715 45.1943 59.1761 46.6736C60.0807 48.144 61.5193 49.1944 63.182 49.597L64.4915 49.9033C64.8361 49.9821 65.1807 49.7896 65.2927 49.4482L74.0109 23.0935L77.8617 17.9293C78.0857 17.623 78.034 17.1853 77.7325 16.9577L77.7583 16.9402ZM36.1142 16.7827L37.5959 12.8789C37.9836 11.8286 38.8106 11.0146 39.8616 10.6557C40.904 10.2969 42.0498 10.4281 42.9888 11.0233C43.8244 11.5485 44.4103 12.3975 44.6256 13.3603L34.1069 23.1722L36.1228 16.7914L36.1142 16.7827Z" fill="#263E37" stroke="#0C2820" stroke-width="0.5"/>
</svg>
