<?xml version="1.0" encoding="utf-8"?>
<!-- Generator: Adobe Illustrator 21.0.0, SVG Export Plug-In . SVG Version: 6.00 Build 0)  -->
<svg version="1.1" id="Layer_1" xmlns="http://www.w3.org/2000/svg" xmlns:xlink="http://www.w3.org/1999/xlink" x="0px" y="0px"
	 viewBox="0 0 31.8 46.3" style="enable-background:new 0 0 31.8 46.3;" xml:space="preserve">
<style type="text/css">
	.st0{fill:#FFFFFF;}
</style>
<path class="st0" d="M31.5,23.2l-3.4-0.8c0.6-3,0.1-6-1.3-8.5l2.7-1.6c0.2-0.1,0.3-0.4,0.2-0.7s-0.4-0.3-0.7-0.2L26.3,13
	c-1.2-1.8-2.9-3.3-4.9-4.3l-0.2-8.3c0,0,0,0,0,0c0,0,0-0.1,0-0.1c0,0,0,0,0,0c0,0,0-0.1-0.1-0.1c0,0,0,0,0,0c0,0-0.1-0.1-0.1-0.1
	c0,0,0,0,0,0c0,0-0.1,0-0.1-0.1c0,0-0.1,0-0.1,0c0,0,0,0,0,0c0,0-0.1,0-0.1,0c0,0,0,0,0,0c0,0-0.1,0-0.1,0.1c0,0,0,0,0,0
	c0,0-0.1,0.1-0.1,0.1c0,0,0,0,0,0l-4,7.2C13.9,7.4,11.8,8,9.9,9.1L8.2,6.4C8.1,6.1,7.8,6.1,7.6,6.2C7.3,6.3,7.3,6.6,7.4,6.8L9,9.5
	c-2.4,1.6-4.3,4-5.1,7l-3.4-0.8c-0.3-0.1-0.5,0.1-0.6,0.3c-0.1,0.3,0.1,0.5,0.3,0.6l3.4,0.8c-0.6,3-0.1,6,1.3,8.5l-2.7,1.6
	c-0.2,0.1-0.3,0.4-0.2,0.7c0.1,0.1,0.2,0.2,0.3,0.2c0.1,0,0.2,0,0.4-0.1l2.7-1.6c1.6,2.4,4,4.3,7,5.1L9.2,45.7
	c-0.1,0.3,0.1,0.5,0.3,0.6c0.3,0.1,0.5-0.1,0.6-0.4l3.4-13.8c3,0.6,6,0.1,8.5-1.3l1.6,2.7c0.1,0.1,0.2,0.2,0.3,0.2s0.2,0,0.4-0.1
	c0.2-0.1,0.3-0.4,0.2-0.7l-1.6-2.7c2.4-1.6,4.3-4,5.1-7l3.4,0.8c0.3,0.1,0.5-0.1,0.6-0.3C31.9,23.5,31.7,23.3,31.5,23.2z M25.5,13.5
	L25,13.8c-0.9-1.4-2.1-2.5-3.6-3.4l0-0.6C23.1,10.7,24.5,12,25.5,13.5z M21.7,20.8L21.6,17l3.1-1.9c1.1,2,1.5,4.4,1,6.7L21.7,20.8z
	 M25.5,22.7c-0.6,2.1-1.9,3.9-3.6,5.2l-0.2-6.1L25.5,22.7z M21.6,15.9l-0.1-4.3c1.1,0.7,2,1.7,2.8,2.7L21.6,15.9z M15.7,8.4L15.4,9
	c-1.7,0.1-3.3,0.6-4.8,1.3l-0.3-0.5C12,9,13.8,8.5,15.7,8.4z M6.3,17.1c0.7-2.3,2.1-4.2,4-5.5l1.9,3.1l-0.4,0.7c0,0,0,0,0,0l-0.5,1
	c0,0,0,0,0,0l-0.5,1c0,0,0,0,0,0l-0.3,0.6L6.3,17.1z M9.9,18.9l-0.2,0.4c0,0,0,0,0,0l-0.5,0.9c0,0,0,0,0,0.1l-0.5,0.9c0,0,0,0,0,0.1
	L8,22.4c0,0,0,0,0,0l-0.5,0.9c0,0,0,0,0,0.1l-0.5,0.9C6,22.4,5.7,20.2,6.1,18L9.9,18.9L9.9,18.9z M11.1,11.1c1.1-0.6,2.4-1,3.7-1.2
	l-1.4,2.5c0,0,0,0,0,0l-0.5,1c0,0,0,0,0,0l-0.2,0.3L11.1,11.1z M9.5,10.4l0.3,0.5c-2.1,1.4-3.7,3.5-4.4,6l-0.5-0.1
	C5.6,14.1,7.3,11.8,9.5,10.4z M5.9,25.5c-1.3-2.3-1.8-5.1-1.2-7.8l0.5,0.1c-0.5,2.6-0.1,5.2,1.2,7.4L5.9,25.5z M12.7,31
	c-2.7-0.8-4.9-2.5-6.4-4.7L6.8,26c1.4,2.1,3.5,3.7,6,4.4L12.7,31L12.7,31z M14.1,27.4c-0.3-0.1-0.5,0.1-0.6,0.3l-0.4,1.7
	c-2.3-0.7-4.2-2.1-5.5-4l3.3-2c0.1,0,0.1-0.1,0.1-0.1l4.1-2.5l-0.7,2.8c-0.1,0.3,0.1,0.5,0.3,0.6c0.3,0.1,0.5-0.1,0.6-0.3l0.7-2.9
	l2.5,4c0,0.1,0,0.2,0.1,0.2l2,3.3c-2,1.1-4.3,1.5-6.7,1l0.4-1.7C14.5,27.8,14.3,27.5,14.1,27.4z M13.7,31.2l0.1-0.5
	c2.6,0.5,5.2,0.1,7.4-1.2l0.3,0.5C19.2,31.2,16.4,31.7,13.7,31.2z M22.3,29.5L22,29c2.1-1.4,3.7-3.5,4.4-6l0.5,0.1
	C26.2,25.8,24.5,28,22.3,29.5z M26.7,22c0.5-2.6,0.1-5.2-1.2-7.4l0.5-0.3c1.3,2.3,1.8,5.1,1.2,7.8L26.7,22z"/>
</svg>
