<svg width="57" height="91" viewBox="0 0 57 91" fill="none" xmlns="http://www.w3.org/2000/svg">
<path d="M27.2703 47.8142C27.7777 43.4959 28.8888 39.3028 30.5623 35.3225C30.5812 35.251 30.6191 35.2153 30.5812 35.1454C30.2613 32.728 29.6593 30.3837 28.8131 28.145C28.6807 27.7892 28.3057 27.5942 27.9291 27.6657C20.7998 28.9102 13.4814 26.7592 8.34565 21.8723C2.75924 16.5582 0.595538 8.86407 2.58897 1.59556C2.70248 1.16991 2.98455 0.849861 3.4541 0.742637C11.0546 -1.24751 19.1814 0.83199 24.7678 6.14447C30.2424 11.3335 32.4611 18.8668 30.6552 26.0281C30.5984 26.1873 30.5984 26.3124 30.6741 26.4716C31.2382 27.8217 31.6906 29.2075 32.0655 30.629C32.1223 30.7882 32.2341 30.8954 32.3855 30.9133C32.554 30.9312 32.7054 30.8418 32.781 30.7184C33.3074 29.7403 33.8904 28.7997 34.4924 27.8395C33.156 22.7578 34.7177 17.4095 38.6117 13.7135C42.5624 9.94607 48.2813 8.50666 53.6613 9.89245C54.0947 9.99968 54.3957 10.336 54.4886 10.7275C55.7115 16.0757 54.5643 21.1055 50.4261 25.0322C48.2056 27.1296 45.4038 28.5511 42.3371 29.1019C40.8132 29.3683 40.3798 27.1832 41.9037 26.9168C44.518 26.4375 46.8881 25.2288 48.7697 23.4515C51.7986 20.5548 53.1711 16.4689 52.4762 12.4171C52.4195 12.1149 52.1753 11.8664 51.8175 11.8127C47.6036 11.1012 43.2951 12.4171 40.2474 15.3138C37.8205 17.6061 36.448 20.7156 36.3534 23.986C36.3534 24.1452 36.4669 24.2881 36.6355 24.3418C36.804 24.4132 36.9554 24.3418 37.0689 24.1988C39.5714 21.0178 42.4678 18.1032 45.7787 15.5266C46.9638 14.6022 48.4498 16.3438 47.2459 17.2682C40.5673 22.4572 35.4315 29.2448 32.3837 36.9569C32.3081 37.1697 32.327 37.4004 32.4594 37.597C32.5919 37.7935 32.7604 37.9349 32.9857 37.9528C46.3618 40.1915 56.1621 51.3152 56.1621 64.2682C56.1621 78.3065 44.7812 89.9631 30.1254 90.9395C28.8269 91.011 27.5111 91.0289 26.2125 90.9395C11.5998 90.0687 0.162109 78.1619 0.162109 64.2682C0.162109 50.3745 10.8843 39.2313 25.0499 37.7383C27.0244 37.6311 27.0244 39.7999 25.7464 40.12C22.2291 41.0087 19.4445 43.7266 17.544 46.5697C17.243 47.0132 17.5251 47.6176 18.0703 47.7248C20.6468 48.1505 23.4692 48.4364 26.4224 48.5062C26.873 48.5062 27.2118 48.2219 27.2686 47.8125L27.2703 47.8142ZM29.6593 47.6549C29.5837 48.1163 29.9792 48.49 30.4677 48.49C33.2334 48.3828 35.8477 48.1163 38.2746 47.7086C38.8387 47.6013 39.1019 46.997 38.8009 46.5535C36.9193 43.7461 34.6248 41.6488 32.0845 40.583C31.8781 40.4937 31.651 40.4937 31.4257 40.583C30.5795 40.9924 29.7883 46.5892 29.6576 47.6549H29.6593ZM29.3583 51.4939V62.4048C29.3583 62.7963 29.7161 63.1505 30.1478 63.1505H42.8084C43.2418 63.1505 43.6168 62.7947 43.5978 62.3512C43.3725 57.8201 42.375 53.6449 40.7754 50.126C40.643 49.7881 40.268 49.611 39.8913 49.6825C36.6939 50.3047 33.402 50.6605 30.1272 50.7482C29.6937 50.7482 29.3566 51.0683 29.3566 51.4939H29.3583ZM29.3583 66.1365V77.0474C29.3583 77.4731 29.7161 77.7931 30.1289 77.7931C33.402 77.8825 36.6939 78.2366 39.8931 78.8589C40.2697 78.9304 40.6275 78.7517 40.7771 78.4154C42.3767 74.8965 43.3725 70.7212 43.5996 66.1902C43.6185 65.7466 43.2418 65.3908 42.8101 65.3908H30.1495C29.6989 65.3908 29.3601 65.7288 29.3601 66.1365H29.3583ZM29.3583 80.7954V87.7601C29.3583 88.2394 29.8279 88.5952 30.337 88.488C33.5911 87.7764 36.5254 85.4142 38.8215 81.9668C39.1225 81.5232 38.8405 80.9189 38.2952 80.8295C35.7927 80.386 33.0648 80.118 30.1874 80.0302C29.7178 80.0124 29.3601 80.3503 29.3601 80.7938L29.3583 80.7954ZM27.0072 87.7618V80.7954C27.0072 80.3698 26.6305 80.014 26.1988 80.0497C23.3213 80.1391 20.6124 80.4055 18.1098 80.849C17.5457 80.9384 17.2825 81.5427 17.5835 81.9863C19.8779 85.4158 22.795 87.7796 26.0491 88.5074C26.5187 88.5968 27.0089 88.241 27.0089 87.7618H27.0072ZM27.0072 77.0296V66.1187C27.0072 65.7271 26.6305 65.373 26.2177 65.373H13.595C13.1615 65.373 12.8055 65.7288 12.8244 66.1723C13.0308 70.7033 14.0473 74.8786 15.6279 78.3975C15.7604 78.7354 16.1353 78.9125 16.512 78.841C16.8887 78.7517 17.2464 78.6818 17.6214 78.6282C20.3114 78.1668 23.2078 77.8825 26.2366 77.7931C26.6701 77.7931 27.0072 77.4552 27.0072 77.0296ZM27.0072 62.3869V51.476C27.0072 51.0504 26.6494 50.7303 26.2366 50.7303C23.2078 50.641 20.3114 50.3567 17.6214 49.8953C17.2447 49.8238 16.8869 49.7523 16.512 49.6825C16.137 49.6126 15.7776 49.7897 15.6279 50.126C14.0473 53.6449 13.0325 57.8201 12.8244 62.3512C12.8055 62.7947 13.1443 63.1505 13.595 63.1505H26.2177C26.6511 63.1505 27.0072 62.7947 27.0072 62.3869ZM52.9682 65.3892H46.7041C46.2896 65.3892 45.9335 65.7271 45.9146 66.117C45.7082 70.7374 44.7296 75.0557 43.1489 78.7338C42.9615 79.1253 43.2057 79.6046 43.6563 79.7281C44.6539 80.0124 45.6308 80.3324 46.5338 80.6525C46.8348 80.7597 47.1925 80.7061 47.4179 80.4575C50.9919 76.5844 53.3053 71.644 53.7387 66.1885C53.7955 65.7629 53.4377 65.3892 52.9682 65.3892ZM9.68206 65.3892H3.41798C2.94844 65.3892 2.6096 65.7629 2.62852 66.2064C3.06195 71.644 5.39421 76.6007 8.9872 80.4754C9.19359 80.7239 9.55134 80.7775 9.85233 80.6703C10.7553 80.3324 11.734 80.0302 12.7487 79.7459C13.1822 79.603 13.4264 79.1416 13.2372 78.7517C11.6566 75.0557 10.6779 70.7553 10.4715 66.117C10.4337 65.7076 10.0948 65.3892 9.68206 65.3892ZM3.41798 63.1505H9.68206C10.0966 63.1505 10.4526 62.8126 10.4715 62.4227C10.6779 57.8023 11.6566 53.4841 13.2372 49.8059C13.3318 49.611 13.3318 49.4144 13.2183 49.2016C13.1237 49.0066 12.9551 48.8637 12.7298 48.81C11.7322 48.5257 10.7553 48.2057 9.85233 47.8856C9.41891 47.7264 9.13683 47.9393 8.85476 48.2414C5.35637 52.0625 3.07915 56.9656 2.64744 62.3496C2.6096 62.7752 2.94844 63.1489 3.41798 63.1489V63.1505ZM46.7041 63.1505H52.9682C53.4377 63.1505 53.7955 62.7768 53.7576 62.3333C53.3242 56.8957 50.9919 51.9391 47.4368 48.0644C47.2115 47.8158 46.8726 47.7622 46.5527 47.8694C45.6497 48.2073 44.6711 48.5095 43.6752 48.7938C43.4499 48.8653 43.2797 48.9888 43.1868 49.1853C43.0939 49.3819 43.0733 49.5769 43.1679 49.7897C44.7485 53.4857 45.7082 57.786 45.9335 62.4064C45.9525 62.8158 46.2913 63.1521 46.7041 63.1521V63.1505ZM15.4387 43.0183C14.3294 43.6405 13.2561 44.3147 12.2603 45.0978C11.7718 45.4715 11.9025 46.1993 12.5234 46.378C13.0119 46.5372 13.5021 46.6802 14.0095 46.8215C14.3672 46.9109 14.725 46.75 14.9124 46.4657C15.4009 45.6307 15.9289 44.8492 16.4931 44.1198C16.9815 43.4618 16.1921 42.6268 15.4405 43.0183H15.4387ZM42.3767 46.8215C42.8841 46.6786 43.3932 46.5372 43.8816 46.378C44.4647 46.2009 44.5971 45.4715 44.1069 45.0978C43.1094 44.3164 42.0378 43.6405 40.9285 43.0183C40.6086 42.8412 40.1941 42.9111 39.9498 43.1775C39.6867 43.444 39.6677 43.8176 39.8741 44.1377C40.4572 44.8655 40.9646 45.6485 41.4548 46.4836C41.6612 46.7679 42.0189 46.9093 42.3767 46.8215ZM14.0077 81.702C13.5004 81.8449 13.0102 81.9863 12.5217 82.1455C12.2207 82.217 12.0332 82.4298 11.9954 82.7141C11.9197 82.9805 12.0522 83.247 12.2775 83.424C13.275 84.2055 14.3466 84.8813 15.4749 85.5035C16.1904 85.8951 16.9798 85.06 16.4914 84.4199C16.1336 83.9407 15.7948 83.4419 15.4559 82.9448C15.2685 82.6605 15.0982 82.3762 14.9296 82.0561C14.7232 81.7718 14.3466 81.6126 14.0077 81.7003V81.702ZM40.9096 85.5052C42.0378 84.8829 43.1111 84.2087 44.1069 83.4257C44.3323 83.2486 44.4647 82.9821 44.4079 82.7141C44.3323 82.4298 44.1448 82.1991 43.8816 82.1455C43.3932 81.9863 42.8841 81.8433 42.3767 81.702C42.0189 81.6126 41.6612 81.7734 41.4737 82.0577C41.3051 82.3599 41.1159 82.6621 40.9474 82.9464C40.5896 83.4614 40.2697 83.9407 39.912 84.4216C39.7056 84.7059 39.7245 85.0795 39.9687 85.346C40.1941 85.6124 40.5896 85.6839 40.9096 85.5052ZM28.8699 19.7912C28.55 15.2244 26.4998 10.9598 23.1132 7.74309C18.4108 3.28353 11.7133 1.38273 5.20502 2.64506C4.90402 2.71654 4.67871 2.92937 4.60303 3.24941C3.30447 9.43269 5.31853 15.8304 10.002 20.29C14.3844 24.4474 20.4989 26.3855 26.6133 25.6025C27.1396 25.531 27.4406 24.9981 27.2153 24.5367C25.1272 20.4849 22.2308 16.8425 18.6929 13.8581C17.5268 12.8801 19.0885 11.21 20.2546 12.1702C23.0581 14.5518 25.4661 17.2698 27.4217 20.2559C27.8362 20.896 28.9077 20.558 28.8699 19.7945V19.7912Z" fill="#263E37"/>
</svg>
