<?xml version="1.0" encoding="utf-8"?>
<!-- Generator: Adobe Illustrator 21.0.0, SVG Export Plug-In . SVG Version: 6.00 Build 0)  -->
<svg version="1.1" id="Layer_1" xmlns="http://www.w3.org/2000/svg" xmlns:xlink="http://www.w3.org/1999/xlink" x="0px" y="0px"
	 viewBox="0 0 342.6 223.5" style="enable-background:new 0 0 342.6 223.5;" xml:space="preserve">
<style type="text/css">
	.st0{opacity:0.58;}
	.st1{fill:#FFFFFF;}
</style>
<g>
	<g class="st0">
		<g>
			<path class="st1" d="M229.6,119.3c-1.5-0.1-3.1-0.1-4.6-0.2c-7.5-0.3-15.2-0.6-22.6,0.4c-9.1,1.3-17.3,0.2-25-3.1
				c-3.3-1.4-6.7-3-9.9-4.5l-0.1-0.1c-5.7-2.7-11.6-5.5-17.7-7.7c-13.4-4.9-26.2-11.5-38.6-17.9c-6.1-3.1-12.4-6.4-18.8-9.4
				c-5.6-2.7-13.1-5.7-21.7-5.2l-0.2,0l-0.2,0c0,0-0.1,0-0.1,0c0,0-0.1,0-0.1,0C53,75.9,43.3,89.1,37.5,98.6
				c-4.1,6.7-5.2,14.8-3.4,23.6C37,135.8,40.4,149,48.9,160c11.6,14.9,24.3,25,38.7,31c4.6,1.9,9.4,2.8,14.8,2.8
				c4.8,0,10-0.7,15.9-2.2c15.7-4,29.7-11.7,41.7-22.9c3.4-3.2,7.1-6,9.9-8.1c6.6-4.9,13.3-5.3,20.4-1.4l6.2,3.4
				c3.9,2.2,7.9,4.4,11.9,6.5c12.6,6.9,26.1,7,41.3,0.4c6.4-2.8,13.7-6.2,19.7-11.9c3.9-3.7,8.4-8.8,9.1-16.1
				c1.1-11.2-5.8-18.6-19-20.4c-9.4-1.3-19.1-1.6-28.5-1.9L229.6,119.3z M277.7,141.6c-0.7,6.9-4.8,11.7-8.8,15.4
				c-5.9,5.6-13.1,9-19.4,11.7c-14.9,6.4-28.1,6.3-40.5-0.4c-4-2.2-8-4.4-11.9-6.6l-6.2-3.4c-7.3-4.1-14.6-3.6-21.5,1.5
				c-2.9,2.1-6.6,4.9-10,8.1c-11.8,11.1-25.7,18.7-41.2,22.7c-5.8,1.5-10.9,2.2-15.7,2.2c-5.3,0-10-0.9-14.4-2.7
				c-14.3-5.9-26.8-16-38.3-30.7C41.3,148.6,38,135.5,35.1,122c-1.9-8.7-0.8-16.4,3.2-22.9c9.2-15,19-23.2,31.9-26.4l0.2-0.1l0.2,0
				c0,0,0.1,0,0.1,0c6.5-0.4,12.9,1.1,21.2,5.1c6.3,3,12.6,6.3,18.7,9.4l0.1,0c12.4,6.4,25.3,13,38.7,17.9c6,2.2,11.9,5,17.6,7.6
				c3.3,1.5,6.7,3.1,10,4.6c7.9,3.4,16.2,4.5,25.5,3.2c7.3-1,15-0.7,22.4-0.4l0.2,0c1.5,0.1,2.9,0.1,4.4,0.2l1.5,0.1
				c9.4,0.3,19,0.7,28.4,1.9C272.2,124,278.7,130.9,277.7,141.6z"/>
		</g>
		<g>
			<path class="st1" d="M77.7,100.1c-0.2,0-0.4,0-0.6,0c-0.3,0-0.6,0-0.8,0l-0.2,0l-0.2,0c0,0-0.1,0-0.1,0c0,0-0.1,0-0.1,0
				C62,104.6,57.6,111,56.7,127.3c-1.2,21.9,19.9,45,38.2,49.4c8.4,2.1,17.1,0.6,25.6-4.2c10.6-6,17-13.1,20.2-22.2
				c3.9-11.3,1.2-20.4-8.2-27.7c-13.9-10.8-30.8-18.1-51.6-22.4C79.8,100,78.8,100.1,77.7,100.1z M139.7,150
				c-3.1,8.9-9.3,15.8-19.7,21.7c-5.8,3.3-11.7,5-17.5,5c-2.5,0-4.9-0.3-7.3-0.9c-17.9-4.4-38.6-26.9-37.4-48.4
				c0.9-15.8,5.1-21.9,18.2-26.1l0.2-0.1l0.2,0c0.3,0,0.7,0,1.1,0l0.4,0c0.9-0.1,1.9-0.1,2.8,0.1c20.7,4.3,37.4,11.6,51.2,22.2
				C140.9,130.6,143.5,139,139.7,150z"/>
		</g>
		<g>
			<path class="st1" d="M324.8,102.1c-4.8-2.5-11.2-4-19.4-4.5c-7.1-0.5-14.3-0.4-21.2-0.3c-4.4,0.1-8.1,0.1-12,0.1
				c-12.4-0.1-24.8-3.1-36.9-8.8c-2.8-1.3-5.7-2.8-8.4-4.3l-0.1-0.1c-7.4-3.9-15.1-7.9-23.6-9.5c-4.5-0.9-9.1-1.6-13.5-2.3
				c-3-0.5-6.4-1-9.7-1.6c-12.8-2.2-21.3-7-24.1-24c-1.3-8.1-3.1-16.8-5.5-26.6c-3.1-12.7-14.9-21.2-28-20.2l-0.2,0l-0.2,0
				c0,0-0.1,0-0.1,0c0,0-0.1,0-0.1,0c-10.4,2.4-18.6,8.7-26.8,15.4c-4.9,4-10.2,7.6-15.3,11.1l-0.1,0.1c-3.4,2.3-7,4.7-10.4,7.3
				l-4.4,3.2C57.1,42.8,49.2,48.6,42.1,55C31.3,64.8,20.5,75.6,9.9,87.1c-10.7,11.6-12.8,25.7-6.2,41.8c4.5,11.2,9.5,23.1,15,34.8
				c4.7,10.1,12,18.8,21.6,25.6c3.8,2.7,7.6,5.6,11.3,8.4c8.3,6.3,16.8,12.9,26,17.7c10,5.3,21.3,8,33.5,8c5.1,0,10.4-0.5,15.8-1.4
				c6-1,12.2-1.5,18.2-2l3.9-0.3c12.4-1,24.1-3.8,34.9-8.4c12.8-5.5,22.7-7,33-5.1c17.3,3.2,34.1-0.4,48.3-4.3
				c16.2-4.5,32.9-9.1,47.6-18.3c15.4-9.7,25.1-23.3,28.9-40.6C345.3,126.6,338,109,324.8,102.1z M340.9,143
				c-3.7,17.1-13.3,30.6-28.5,40.1c-14.6,9.2-31.3,13.8-47.4,18.2c-14.1,3.9-30.8,7.4-47.9,4.2c-13.1-2.4-24.3,1.2-33.4,5.1
				c-10.7,4.6-22.4,7.4-34.7,8.3l-3.8,0.3c-6,0.5-12.3,0.9-18.3,2c-5.4,0.9-10.6,1.4-15.6,1.4c-12.1,0-23.2-2.6-33.1-7.9
				c-9.2-4.9-17.7-11.4-25.9-17.7c-3.7-2.8-7.5-5.7-11.3-8.5c-9.5-6.8-16.7-15.3-21.3-25.3c-5.5-11.7-10.4-23.6-15-34.8
				c-6.4-15.8-4.4-29.6,6.1-41c10.5-11.5,21.3-22.2,32.1-32c7.1-6.4,14.9-12.2,22.6-17.8l4.4-3.3c3.4-2.5,7-5,10.5-7.3
				c5.2-3.5,10.5-7.1,15.4-11.1c8.4-6.9,16.2-12.8,26.4-15.2l0.3-0.1l0.3,0c0,0,0,0,0.1,0c12.7-0.9,24.2,7.3,27.2,19.6
				c2.4,9.8,4.2,18.5,5.5,26.5c2.9,17.4,11.6,22.3,24.7,24.6c3.3,0.6,6.5,1.1,9.7,1.6l0.1,0c4.4,0.7,9,1.4,13.4,2.3
				c8.4,1.6,16,5.6,23.4,9.4l0.1,0c2.8,1.5,5.7,3,8.5,4.3c12.2,5.7,24.7,8.7,37.2,8.8c4,0,8,0,11.9-0.1l0.1,0
				c7-0.1,14.1-0.2,21.2,0.3c8.1,0.5,14.3,2,19.1,4.4C337.4,109.5,344.4,126.8,340.9,143z"/>
		</g>
		<g>
			<path class="st1" d="M236.6,102.4c-10.2-0.1-20.5-2.6-30.4-7.3c-2.3-1.1-4.7-2.3-6.9-3.5l-0.2-0.1c-6.1-3.2-12.4-6.6-19.5-8
				c-3.7-0.7-7.5-1.3-11.2-1.9c-2.6-0.4-5.3-0.9-8-1.3c-10.5-1.9-17.5-5.9-19.8-19.9c-1.1-6.7-2.6-14-4.6-22.2
				c-2.6-10.7-12.3-17.8-23.2-17l-0.2,0l-0.2,0c0,0-0.1,0-0.1,0c0,0-0.1,0-0.1,0c-8.6,2-15.4,7.3-22.2,12.9c-4,3.3-8.4,6.3-12.6,9.3
				l-0.1,0c-2.8,2-5.8,4-8.6,6.1l-3.6,2.7c-6.3,4.7-12.8,9.5-18.7,14.9c-8.9,8.2-17.8,17.2-26.5,26.8c-8.8,9.7-10.6,21.5-5.2,35.1
				c3.8,9.3,7.8,19.3,12.4,29.1c3.9,8.5,9.9,15.7,17.9,21.5c3.2,2.3,6.4,4.8,9.3,7.1c6.8,5.3,13.9,10.7,21.5,14.8
				c8.3,4.4,17.6,6.7,27.7,6.7c4.2,0,8.6-0.4,13.1-1.2c4.9-0.9,10.1-1.3,15-1.6l3.2-0.3c10.2-0.8,19.9-3.2,28.9-7
				c10.6-4.6,18.7-5.8,27.2-4.2c14.3,2.7,28.2-0.3,39.9-3.6c13.4-3.7,27.2-7.6,39.3-15.3c12.7-8.1,20.8-19.5,23.9-34
				c3-13.9-3-28.7-14-34.5c-4-2.1-9.3-3.3-16.1-3.8c-5.9-0.4-11.8-0.3-17.5-0.2C243,102.4,239.8,102.5,236.6,102.4z M246.5,103.3
				c5.8-0.1,11.7-0.1,17.5,0.2c6.7,0.4,11.8,1.6,15.7,3.7c10.6,5.6,16.4,20,13.5,33.5c-3.1,14.2-11,25.5-23.5,33.4
				c-12,7.7-25.8,11.5-39.1,15.2c-11.6,3.2-25.4,6.2-39.5,3.5c-10.9-2-20.1,1-27.7,4.3c-8.8,3.8-18.5,6.1-28.6,7l-3.2,0.3
				c-5,0.4-10.1,0.8-15.1,1.7c-4.4,0.8-8.7,1.2-12.9,1.2c-10,0-19.1-2.2-27.3-6.6c-7.6-4.1-14.6-9.5-21.4-14.8
				c-3-2.4-6.2-4.8-9.3-7.1c-7.8-5.7-13.7-12.8-17.6-21.1c-4.5-9.7-8.6-19.7-12.4-29.1c-5.3-13.2-3.6-24.6,5-34.1
				c8.7-9.6,17.6-18.6,26.5-26.7c5.8-5.4,12.3-10.2,18.6-14.9l3.7-2.7c2.8-2.1,5.8-4.1,8.6-6.1c4.3-2.9,8.7-6,12.7-9.3
				c6.9-5.8,13.3-10.7,21.7-12.7l0.2-0.1l0.2,0c0,0,0,0,0.1,0c10.5-0.8,19.8,6.1,22.3,16.3c2,8.2,3.5,15.4,4.5,22.1
				c2.4,14.6,9.6,18.8,20.5,20.7c2.6,0.5,5.3,0.9,8,1.3l0.2,0c3.6,0.6,7.4,1.2,11,1.9c6.9,1.3,13.2,4.7,19.3,7.9l0.1,0
				c2.3,1.2,4.7,2.5,7,3.6c10.1,4.8,20.4,7.3,30.8,7.4C239.9,103.4,243.3,103.3,246.5,103.3z"/>
		</g>
	</g>
	<g>
		<g>
			<path class="st1" d="M56.1,139.6v-24.8h4.8V135H72v4.6H56.1z"/>
			<path class="st1" d="M92.8,134H82.7l-2.1,5.7h-5.1l9.5-24.8h5.6l9.4,24.8h-5.2L92.8,134z M84.3,129.6h6.9l-3.4-9.4L84.3,129.6z"
				/>
			<path class="st1" d="M116,122.1c-0.1-0.3-0.2-0.7-0.4-1.1c-0.2-0.4-0.4-0.8-0.8-1.1c-0.3-0.3-0.8-0.6-1.3-0.9
				c-0.5-0.2-1.2-0.3-2-0.3c-0.6,0-1.1,0.1-1.6,0.3c-0.5,0.2-0.9,0.4-1.2,0.7c-0.3,0.3-0.6,0.6-0.8,1c-0.2,0.4-0.3,0.8-0.3,1.2
				c0,0.7,0.2,1.3,0.7,1.8c0.4,0.5,1.1,0.8,2,1l3.5,0.7c1.1,0.2,2.1,0.5,3,1c0.9,0.5,1.6,1,2.2,1.7c0.6,0.6,1,1.4,1.3,2.2
				c0.3,0.8,0.5,1.6,0.5,2.5c0,1-0.2,1.9-0.6,2.8c-0.4,0.9-1,1.7-1.7,2.4c-0.8,0.7-1.7,1.3-2.8,1.7c-1.1,0.4-2.4,0.7-3.8,0.7
				c-1.7,0-3.1-0.2-4.3-0.7c-1.2-0.5-2.2-1.1-3-1.8c-0.8-0.7-1.4-1.6-1.8-2.5c-0.4-0.9-0.7-1.8-0.8-2.7l4.5-1.2
				c0,0.6,0.2,1.2,0.4,1.7c0.2,0.6,0.6,1.1,1,1.5c0.4,0.4,1,0.8,1.6,1c0.7,0.3,1.4,0.4,2.3,0.4c1.3,0,2.3-0.3,3-0.9
				c0.7-0.6,1-1.3,1-2.2c0-0.7-0.3-1.3-0.8-1.9c-0.5-0.5-1.3-0.9-2.2-1.1l-3.5-0.7c-2-0.4-3.6-1.2-4.7-2.4c-1.2-1.2-1.8-2.8-1.8-4.7
				c0-1.1,0.2-2.1,0.7-3.1c0.5-0.9,1.1-1.8,1.9-2.5c0.8-0.7,1.7-1.2,2.8-1.6c1-0.4,2.2-0.6,3.3-0.6c1.5,0,2.8,0.2,3.8,0.6
				c1.1,0.4,1.9,0.9,2.6,1.6c0.7,0.6,1.2,1.3,1.6,2.1c0.4,0.8,0.6,1.5,0.8,2.2L116,122.1z"/>
			<path class="st1" d="M130.9,114.8h5.7l5.6,9.8l5.6-9.8h5.4l-8.7,14.4v10.4h-4.8v-10.4L130.9,114.8z"/>
			<path class="st1" d="M166,140.2c-1.3,0-2.6-0.2-3.7-0.6s-2.2-1-3-1.8c-0.9-0.8-1.5-1.8-2-2.9c-0.5-1.2-0.8-2.5-0.8-4v-16h4.8
				v15.7c0,1.6,0.4,2.9,1.3,3.7c0.8,0.8,2,1.3,3.4,1.3c1.5,0,2.6-0.4,3.5-1.3c0.8-0.8,1.3-2.1,1.3-3.7v-15.7h4.8v16
				c0,1.5-0.3,2.9-0.8,4c-0.5,1.2-1.2,2.1-2,2.9c-0.9,0.8-1.9,1.4-3,1.8S167.3,140.2,166,140.2z"/>
			<path class="st1" d="M196.4,139.6L185.1,122v17.6h-4.8v-24.8h6l10.3,16.4v-16.4h4.8v24.8H196.4z"/>
			<path class="st1" d="M225,139.6l-0.3-2.8c-0.3,0.4-0.6,0.8-1.1,1.2c-0.4,0.4-1,0.8-1.6,1.1c-0.6,0.3-1.3,0.6-2.1,0.8
				c-0.8,0.2-1.6,0.3-2.6,0.3c-1.7,0-3.3-0.3-4.8-0.9c-1.5-0.6-2.8-1.4-3.9-2.6c-1.1-1.1-2-2.5-2.7-4.1c-0.7-1.6-1-3.4-1-5.4
				c0-2,0.3-3.8,1-5.4c0.7-1.6,1.6-3,2.8-4.1c1.2-1.1,2.5-2,4.1-2.6c1.5-0.6,3.1-0.9,4.8-0.9c1.6,0,3.1,0.2,4.4,0.6
				c1.3,0.4,2.4,1,3.3,1.7c0.9,0.7,1.7,1.5,2.3,2.4c0.6,0.9,1.1,1.8,1.4,2.8l-4.6,1.6c-0.2-0.6-0.4-1.1-0.8-1.7
				c-0.3-0.6-0.8-1.1-1.3-1.5c-0.5-0.5-1.2-0.8-2-1.1c-0.8-0.3-1.7-0.4-2.7-0.4c-0.9,0-1.9,0.2-2.8,0.5c-0.9,0.3-1.8,0.8-2.5,1.5
				c-0.7,0.7-1.3,1.6-1.8,2.6c-0.5,1.1-0.7,2.3-0.7,3.8c0,1.4,0.2,2.6,0.6,3.7c0.4,1.1,1,1.9,1.7,2.7c0.7,0.7,1.5,1.2,2.5,1.6
				c0.9,0.4,1.9,0.5,3,0.5c1.1,0,2.1-0.2,2.9-0.5c0.8-0.3,1.5-0.8,2-1.2s0.9-1,1.2-1.6c0.3-0.6,0.4-1.1,0.5-1.5h-7.8v-4.2h12.4v12.9
				H225z"/>
			<path class="st1" d="M249.2,134h-10.1l-2.1,5.7H232l9.5-24.8h5.6l9.4,24.8h-5.2L249.2,134z M240.7,129.6h6.9l-3.4-9.4
				L240.7,129.6z"/>
			<path class="st1" d="M271.7,122.1c-0.1-0.3-0.2-0.7-0.4-1.1c-0.2-0.4-0.4-0.8-0.8-1.1c-0.3-0.3-0.8-0.6-1.3-0.9
				c-0.5-0.2-1.2-0.3-2-0.3c-0.6,0-1.1,0.1-1.6,0.3c-0.5,0.2-0.9,0.4-1.2,0.7c-0.3,0.3-0.6,0.6-0.8,1c-0.2,0.4-0.3,0.8-0.3,1.2
				c0,0.7,0.2,1.3,0.7,1.8c0.4,0.5,1.1,0.8,2,1l3.5,0.7c1.1,0.2,2.1,0.5,3,1c0.9,0.5,1.6,1,2.2,1.7c0.6,0.6,1,1.4,1.3,2.2
				c0.3,0.8,0.5,1.6,0.5,2.5c0,1-0.2,1.9-0.6,2.8c-0.4,0.9-1,1.7-1.7,2.4c-0.8,0.7-1.7,1.3-2.8,1.7c-1.1,0.4-2.4,0.7-3.8,0.7
				c-1.7,0-3.1-0.2-4.3-0.7c-1.2-0.5-2.2-1.1-3-1.8c-0.8-0.7-1.4-1.6-1.8-2.5c-0.4-0.9-0.7-1.8-0.8-2.7l4.5-1.2
				c0,0.6,0.2,1.2,0.4,1.7c0.2,0.6,0.6,1.1,1,1.5c0.4,0.4,1,0.8,1.6,1c0.7,0.3,1.4,0.4,2.3,0.4c1.3,0,2.3-0.3,3-0.9
				c0.7-0.6,1-1.3,1-2.2c0-0.7-0.3-1.3-0.8-1.9c-0.5-0.5-1.3-0.9-2.2-1.1l-3.5-0.7c-2-0.4-3.6-1.2-4.7-2.4c-1.2-1.2-1.8-2.8-1.8-4.7
				c0-1.1,0.2-2.1,0.7-3.1c0.5-0.9,1.1-1.8,1.9-2.5c0.8-0.7,1.7-1.2,2.8-1.6c1-0.4,2.2-0.6,3.3-0.6c1.5,0,2.8,0.2,3.8,0.6
				c1.1,0.4,1.9,0.9,2.6,1.6c0.7,0.6,1.2,1.3,1.6,2.1c0.4,0.8,0.6,1.5,0.8,2.2L271.7,122.1z"/>
		</g>
		<g>
			<path class="st1" d="M103.7,159.6c0.1-0.1,0.1-0.2,0.2-0.3c0.1-0.1,0.2-0.1,0.4-0.1c0.2,0,0.3,0,0.4,0.1c0.1,0.1,0.1,0.3,0.1,0.6
				c0,0.5,0,1,0,1.5c0,0.5,0,0.7,0,0.6c0,0.3,0,0.4-0.1,0.5c-0.1,0.1-0.2,0.1-0.5,0.1c-0.4,0-0.6-0.3-0.7-0.8c0-0.2-0.1-0.3-0.1-0.3
				c-0.1-0.4-0.3-0.7-0.7-1c-0.4-0.3-0.8-0.4-1.4-0.4c-1,0-1.7,0.3-2.3,1c-0.6,0.7-0.9,1.6-0.9,2.8s0.3,2.1,0.9,2.8
				c0.6,0.7,1.4,1,2.3,1c0.3,0,0.6,0,1-0.1c0.3-0.1,0.6-0.2,1-0.4c0.1-0.1,0.3-0.2,0.6-0.4c0.3-0.2,0.4-0.3,0.5-0.3
				c0.2,0,0.3,0.1,0.4,0.2c0.1,0.1,0.2,0.2,0.2,0.4s-0.1,0.3-0.2,0.5c-0.1,0.1-0.4,0.3-0.7,0.5c-0.5,0.3-0.9,0.5-1.4,0.7
				c-0.5,0.1-0.9,0.2-1.4,0.2c-1.3,0-2.4-0.5-3.3-1.4c-0.9-0.9-1.3-2.1-1.3-3.6c0-1.4,0.4-2.6,1.3-3.6c0.9-1,2-1.4,3.3-1.4
				c0.4,0,0.7,0,1.1,0.1C102.9,159.3,103.3,159.5,103.7,159.6z"/>
			<path class="st1" d="M115.2,165.2c0,1.1-0.4,2.1-1.2,2.8c-0.8,0.7-1.8,1.1-3.1,1.1c-1.2,0-2.3-0.4-3-1.1
				c-0.8-0.7-1.2-1.7-1.2-2.8s0.4-2.1,1.2-2.8s1.8-1.1,3-1.1c1.2,0,2.3,0.4,3,1.1C114.8,163.1,115.2,164.1,115.2,165.2z M111,168
				c0.8,0,1.5-0.3,2-0.8c0.5-0.5,0.8-1.2,0.8-2c0-0.8-0.3-1.5-0.8-2c-0.5-0.5-1.2-0.8-2-0.8c-0.8,0-1.5,0.3-2,0.8
				c-0.5,0.5-0.8,1.2-0.8,2c0,0.8,0.3,1.5,0.8,2C109.5,167.7,110.2,168,111,168z"/>
			<path class="st1" d="M118.9,165.9c0,0.7,0.1,1.2,0.4,1.5c0.3,0.3,0.7,0.5,1.4,0.5c0.6,0,1.1-0.2,1.5-0.6s0.6-0.8,0.6-1.4v-3.3
				h-1.1c-0.2,0-0.4,0-0.5-0.1c-0.1-0.1-0.1-0.2-0.1-0.4c0-0.2,0.1-0.4,0.2-0.4c0.1-0.1,0.3-0.1,0.5-0.1h1.7c0.2,0,0.3,0,0.4,0.1
				c0.1,0.1,0.1,0.3,0.1,0.6v5.5h0.4c0.3,0,0.5,0,0.6,0.1s0.2,0.2,0.2,0.4c0,0.2-0.1,0.3-0.2,0.4s-0.3,0.1-0.5,0.1h-1.2
				c-0.1,0-0.3,0-0.3-0.1c-0.1-0.1-0.1-0.1-0.1-0.2V168c-0.5,0.4-1,0.7-1.3,0.8c-0.4,0.1-0.8,0.2-1.2,0.2c-0.9,0-1.6-0.2-2-0.7
				c-0.4-0.5-0.7-1.2-0.7-2.1v-3.6h-0.2c-0.4,0-0.6,0-0.7-0.1c-0.1-0.1-0.2-0.2-0.2-0.4c0-0.2,0.1-0.3,0.2-0.4
				c0.1-0.1,0.3-0.1,0.5-0.1h1.2c0.2,0,0.3,0,0.4,0.1c0.1,0.1,0.1,0.2,0.1,0.5V165.9z"/>
			<path class="st1" d="M127.8,167.8v-5.2h-0.2c-0.4,0-0.6,0-0.8-0.1c-0.1-0.1-0.2-0.2-0.2-0.5c0-0.2,0.1-0.3,0.2-0.4
				c0.1-0.1,0.3-0.1,0.5-0.1h0.4h0.8c0.1,0,0.3,0,0.3,0.1c0.1,0.1,0.1,0.1,0.1,0.2v0.5c0.4-0.4,0.8-0.6,1.2-0.8
				c0.4-0.2,0.8-0.3,1.2-0.3c0.8,0,1.4,0.3,1.9,0.8c0.5,0.5,0.7,1.2,0.7,2.1v3.6h0.4c0.3,0,0.5,0,0.6,0.1c0.1,0.1,0.2,0.2,0.2,0.4
				c0,0.2-0.1,0.4-0.2,0.4c-0.1,0.1-0.4,0.1-0.7,0.1h-1.8c-0.3,0-0.6,0-0.7-0.1c-0.1-0.1-0.1-0.2-0.1-0.5c0-0.2,0.1-0.4,0.2-0.4
				c0.1-0.1,0.3-0.1,0.6-0.1h0.3v-3.4c0-0.6-0.1-1.1-0.4-1.4c-0.3-0.3-0.7-0.5-1.2-0.5c-0.5,0-1,0.2-1.5,0.6
				c-0.4,0.4-0.6,0.8-0.6,1.4v3.4h0.3c0.3,0,0.5,0,0.7,0.1c0.1,0.1,0.2,0.2,0.2,0.4c0,0.2,0,0.4-0.1,0.5c-0.1,0.1-0.3,0.1-0.7,0.1
				h-1.5h-0.4c-0.2,0-0.4,0-0.5-0.1c-0.1-0.1-0.2-0.2-0.2-0.4c0-0.2,0.1-0.4,0.2-0.4c0.1-0.1,0.4-0.1,0.7-0.1H127.8z"/>
			<path class="st1" d="M142.9,161.9c0.3,0,0.5,0,0.6,0.1c0.1,0.1,0.2,0.2,0.2,0.4c0,0.2-0.1,0.3-0.2,0.4c-0.1,0.1-0.3,0.1-0.5,0.1
				h-3.3v2.7c0,0.9,0.1,1.5,0.3,1.7c0.2,0.3,0.6,0.4,1.2,0.4c0.5,0,1.1-0.1,1.8-0.4c0.7-0.3,1.1-0.4,1.3-0.4c0.2,0,0.3,0.1,0.4,0.2
				c0.1,0.1,0.2,0.2,0.2,0.4c0,0.2-0.1,0.3-0.2,0.5c-0.1,0.1-0.4,0.3-0.7,0.4c-0.5,0.2-1,0.4-1.4,0.5c-0.4,0.1-0.8,0.1-1.2,0.1
				c-0.6,0-1.2-0.1-1.6-0.3c-0.4-0.2-0.7-0.5-1-0.9c-0.1-0.2-0.2-0.4-0.2-0.7c0-0.3-0.1-0.7-0.1-1.2v-0.3v-2.7h-1.4
				c-0.2,0-0.4,0-0.5-0.1c-0.1-0.1-0.2-0.2-0.2-0.4c0-0.2,0.1-0.4,0.2-0.5c0.1-0.1,0.4-0.1,0.9-0.1h0.9v-1.7v-0.4
				c0-0.2,0-0.4,0.1-0.5c0.1-0.1,0.3-0.2,0.5-0.2c0.2,0,0.4,0.1,0.5,0.2c0.1,0.1,0.1,0.4,0.1,0.9v1.6H142.9z"/>
			<path class="st1" d="M149.8,167.8h2.7c0.2,0,0.4,0,0.5,0.1c0.1,0.1,0.1,0.2,0.1,0.4c0,0.2,0,0.4-0.1,0.5
				c-0.1,0.1-0.3,0.1-0.5,0.1h-5.3c-0.2,0-0.4,0-0.5-0.1c-0.1-0.1-0.2-0.2-0.2-0.4c0-0.2,0.1-0.3,0.2-0.4c0.1-0.1,0.3-0.1,0.5-0.1
				h1.4v-5.2h-0.5c-0.5,0-0.8,0-1-0.1c-0.1-0.1-0.2-0.2-0.2-0.5c0-0.2,0.1-0.3,0.2-0.4c0.1-0.1,0.3-0.1,0.5-0.1h1.8
				c0.1,0,0.3,0,0.3,0.1c0.1,0.1,0.1,0.1,0.1,0.2v1.4c0.5-0.6,1-1.1,1.6-1.4c0.6-0.3,1.1-0.5,1.8-0.5c0.5,0,0.9,0.1,1.2,0.3
				c0.3,0.2,0.4,0.4,0.4,0.7c0,0.2-0.1,0.4-0.2,0.5c-0.1,0.2-0.3,0.2-0.5,0.2c-0.1,0-0.3-0.1-0.6-0.2c-0.3-0.2-0.6-0.2-0.8-0.2
				c-0.4,0-0.9,0.1-1.3,0.4s-1,0.8-1.5,1.4V167.8z"/>
			<path class="st1" d="M159.9,171h0.3c0.4,0,0.7,0,0.8,0.1c0.1,0.1,0.2,0.2,0.2,0.5c0,0.2-0.1,0.3-0.2,0.4
				c-0.1,0.1-0.3,0.1-0.5,0.1h-3.7c-0.3,0-0.4,0-0.5-0.1s-0.1-0.2-0.1-0.4c0-0.2,0.1-0.3,0.2-0.4c0.1-0.1,0.3-0.1,0.5-0.1h1.7
				l1.3-2.6l-3-5.8c-0.4,0-0.6,0-0.7-0.1c-0.1-0.1-0.2-0.2-0.2-0.4c0-0.2,0.1-0.3,0.2-0.4s0.3-0.1,0.5-0.1h2.2c0.3,0,0.5,0,0.6,0.1
				c0.1,0.1,0.2,0.2,0.2,0.4c0,0.2-0.1,0.4-0.2,0.4c-0.1,0.1-0.4,0.1-0.7,0.1h-0.3l2.2,4.4l2.2-4.4h-0.3c-0.4,0-0.6,0-0.8-0.1
				c-0.1-0.1-0.2-0.2-0.2-0.4c0-0.2,0.1-0.4,0.2-0.4c0.1-0.1,0.3-0.1,0.6-0.1h2c0.2,0,0.4,0,0.5,0.1c0.1,0.1,0.2,0.2,0.2,0.4
				c0,0.2-0.1,0.3-0.2,0.4c-0.1,0.1-0.3,0.1-0.6,0.1L159.9,171z"/>
			<path class="st1" d="M181.7,168.2c-0.4,0.3-0.7,0.6-1.1,0.7s-0.8,0.2-1.2,0.2c-0.7,0-1.3-0.2-1.8-0.7c-0.5-0.5-0.7-1.1-0.7-1.9
				c0-0.5,0.1-1,0.4-1.4c0.3-0.4,0.7-0.9,1.3-1.3c-0.3-0.4-0.5-0.7-0.6-1c-0.1-0.3-0.2-0.6-0.2-0.9c0-0.6,0.2-1,0.6-1.4
				c0.4-0.4,0.9-0.6,1.5-0.6c0.2,0,0.4,0,0.6,0.1c0.2,0.1,0.5,0.2,0.8,0.4c0,0,0.1,0,0.1,0c0,0,0.1,0,0.1,0c0.2,0,0.3,0,0.4,0.1
				c0.1,0.1,0.1,0.2,0.1,0.4c0,0.2-0.1,0.4-0.2,0.5c-0.1,0.2-0.3,0.2-0.4,0.2c-0.1,0-0.3-0.1-0.6-0.3c-0.3-0.2-0.6-0.3-0.9-0.3
				c-0.3,0-0.5,0.1-0.7,0.2s-0.3,0.4-0.3,0.6c0,0.2,0,0.4,0.1,0.6c0.1,0.2,0.3,0.5,0.6,0.9l2,2.7c0.1-0.3,0.2-0.6,0.3-1
				c0.2-0.6,0.4-0.9,0.6-0.9h0.5c0.1,0,0.2,0.1,0.3,0.2c0.1,0.1,0.1,0.3,0.1,0.4c0,0.2,0,0.3-0.1,0.4c-0.1,0.1-0.2,0.1-0.4,0.2
				c-0.1,0.3-0.1,0.5-0.2,0.8c-0.1,0.3-0.2,0.6-0.4,0.9l0.5,0.7h0.2c0.1,0,0.2,0,0.2,0.1c0.1,0.1,0.1,0.2,0.1,0.4
				c0,0.2,0,0.4-0.1,0.5c-0.1,0.1-0.2,0.2-0.3,0.2h-0.7c-0.1,0-0.3-0.1-0.5-0.4c0,0,0-0.1-0.1-0.1L181.7,168.2z M181,167.2l-1.8-2.4
				c-0.3,0.2-0.6,0.5-0.7,0.7c-0.2,0.3-0.2,0.5-0.2,0.9c0,0.4,0.1,0.8,0.4,1.1c0.3,0.3,0.6,0.4,1,0.4c0.2,0,0.5-0.1,0.7-0.2
				C180.5,167.6,180.8,167.4,181,167.2z"/>
			<path class="st1" d="M202.7,167.5v-1.9h-2c-0.2,0-0.3,0-0.4-0.1c-0.1-0.1-0.1-0.2-0.1-0.4c0-0.2,0-0.3,0.1-0.4
				c0.1-0.1,0.2-0.1,0.4-0.1h3.5c0.1,0,0.2,0,0.3,0.1c0.1,0.1,0.1,0.2,0.1,0.4c0,0.2,0,0.3-0.1,0.4c-0.1,0.1-0.2,0.1-0.5,0.1h-0.1
				v2.2v0.2c0,0.1,0,0.2,0,0.3c0,0.1-0.1,0.1-0.2,0.2c-0.3,0.2-0.8,0.3-1.3,0.5c-0.6,0.1-1.2,0.2-1.8,0.2c-1.4,0-2.6-0.5-3.5-1.4
				c-0.9-0.9-1.3-2.1-1.3-3.6c0-1.5,0.4-2.7,1.3-3.7c0.9-1,2-1.4,3.3-1.4c0.4,0,0.7,0,1.1,0.1c0.4,0.1,0.7,0.2,1.1,0.4
				c0.1-0.1,0.1-0.2,0.2-0.3c0.1-0.1,0.2-0.1,0.4-0.1c0.3,0,0.4,0.1,0.5,0.2c0.1,0.2,0.1,0.5,0.1,1v1.1c0,0.3,0,0.4-0.1,0.6
				c-0.1,0.1-0.2,0.2-0.5,0.2c-0.3,0-0.5-0.2-0.6-0.5c0-0.1-0.1-0.2-0.1-0.2c-0.2-0.4-0.5-0.8-0.9-1c-0.4-0.2-0.8-0.3-1.3-0.3
				c-1,0-1.7,0.3-2.3,1s-0.9,1.6-0.9,2.8c0,1.2,0.3,2.2,1,2.9c0.6,0.7,1.5,1.1,2.5,1.1c0.3,0,0.6,0,0.9-0.1
				C201.9,167.8,202.3,167.7,202.7,167.5z"/>
			<path class="st1" d="M214.2,165.2c0,1.1-0.4,2.1-1.2,2.8c-0.8,0.7-1.8,1.1-3.1,1.1c-1.2,0-2.3-0.4-3-1.1
				c-0.8-0.7-1.2-1.7-1.2-2.8s0.4-2.1,1.2-2.8s1.8-1.1,3-1.1s2.3,0.4,3,1.1C213.8,163.1,214.2,164.1,214.2,165.2z M210,168
				c0.8,0,1.5-0.3,2-0.8c0.5-0.5,0.8-1.2,0.8-2c0-0.8-0.3-1.5-0.8-2c-0.5-0.5-1.2-0.8-2-0.8c-0.8,0-1.5,0.3-2,0.8
				c-0.5,0.5-0.8,1.2-0.8,2c0,0.8,0.3,1.5,0.8,2C208.5,167.7,209.2,168,210,168z"/>
			<path class="st1" d="M219.4,159.5H218c-0.5,0-0.8,0-1-0.1c-0.1-0.1-0.2-0.2-0.2-0.5c0-0.2,0.1-0.3,0.2-0.4
				c0.1-0.1,0.3-0.1,0.5-0.1h2.7c0.1,0,0.3,0,0.3,0.1c0.1,0.1,0.1,0.1,0.1,0.2v9.1h2.5c0.2,0,0.4,0,0.4,0.1c0.1,0.1,0.1,0.2,0.1,0.4
				c0,0.2,0,0.4-0.1,0.5c-0.1,0.1-0.3,0.1-0.5,0.1h-5.9c-0.2,0-0.4,0-0.5-0.1s-0.2-0.2-0.2-0.4c0-0.2,0.1-0.3,0.2-0.4
				c0.1-0.1,0.3-0.1,0.5-0.1h2.2V159.5z"/>
			<path class="st1" d="M232.3,167.8c0.2,0,0.4,0,0.5,0.1c0.1,0.1,0.2,0.2,0.2,0.4c0,0.2-0.1,0.3-0.2,0.4c-0.1,0.1-0.3,0.1-0.5,0.1
				H227c-0.2,0-0.4,0-0.5-0.1c-0.1-0.1-0.2-0.2-0.2-0.4c0-0.2,0.1-0.3,0.2-0.4s0.3-0.1,0.5-0.1h1.4v-4.9h-1.3
				c-0.2,0-0.4-0.1-0.5-0.2c-0.1-0.1-0.2-0.2-0.2-0.4c0-0.2,0.1-0.3,0.2-0.4c0.1-0.1,0.3-0.1,0.5-0.1h1.3v-0.5c0-1,0.3-1.7,0.8-2.1
				c0.6-0.4,1.4-0.7,2.7-0.7c0.6,0,1,0.1,1.3,0.2c0.3,0.1,0.4,0.3,0.4,0.6c0,0.2-0.1,0.3-0.2,0.4c-0.1,0.1-0.3,0.2-0.5,0.2
				c-0.1,0-0.3,0-0.7-0.1c-0.4-0.1-0.7-0.1-0.9-0.1c-0.6,0-1,0.1-1.3,0.4c-0.3,0.3-0.4,0.7-0.4,1.3v0.5h2.9c0.2,0,0.4,0,0.5,0.1
				c0.1,0.1,0.2,0.2,0.2,0.4c0,0.2-0.1,0.3-0.2,0.4c-0.1,0.1-0.3,0.2-0.5,0.2h-2.8v4.9H232.3z"/>
		</g>
	</g>
</g>
<g>
	<g class="st0">
		<g>
			<path class="st1" d="M230.4,119.8c-1.5-0.1-3.1-0.1-4.6-0.2c-7.5-0.3-15.2-0.6-22.6,0.4c-9.1,1.3-17.3,0.2-25-3.1
				c-3.3-1.4-6.7-3-9.9-4.5l-0.1-0.1c-5.7-2.7-11.6-5.5-17.7-7.7c-13.4-4.9-26.2-11.5-38.6-17.9c-6.1-3.1-12.4-6.4-18.8-9.4
				c-5.6-2.7-13.1-5.7-21.7-5.2l-0.2,0l-0.2,0c0,0-0.1,0-0.1,0c0,0-0.1,0-0.1,0C53.7,76.4,44,89.6,38.2,99.1
				c-4.1,6.7-5.2,14.8-3.4,23.6c2.9,13.7,6.3,26.8,14.8,37.8c11.6,14.9,24.3,25,38.7,31c4.6,1.9,9.4,2.8,14.8,2.8
				c4.8,0,10-0.7,15.9-2.2c15.7-4,29.7-11.7,41.7-22.9c3.4-3.2,7.1-6,9.9-8.1c6.6-4.9,13.3-5.3,20.4-1.4l6.2,3.4
				c3.9,2.2,7.9,4.4,11.9,6.5c12.6,6.9,26.1,7,41.3,0.4c6.4-2.8,13.7-6.2,19.7-11.9c3.9-3.7,8.4-8.8,9.1-16.1
				c1.1-11.2-5.8-18.6-19-20.4c-9.4-1.3-19.1-1.6-28.5-1.9L230.4,119.8z M278.4,142.1c-0.7,6.9-4.8,11.7-8.8,15.4
				c-5.9,5.6-13.1,9-19.4,11.7c-14.9,6.4-28.1,6.3-40.5-0.4c-4-2.2-8-4.4-11.9-6.6l-6.2-3.4c-7.3-4.1-14.6-3.6-21.5,1.5
				c-2.9,2.1-6.6,4.9-10,8.1c-11.8,11.1-25.7,18.7-41.2,22.7c-5.8,1.5-10.9,2.2-15.7,2.2c-5.3,0-10-0.9-14.4-2.7
				c-14.3-5.9-26.8-16-38.3-30.7C42,149.1,38.7,136,35.8,122.5c-1.9-8.7-0.8-16.4,3.2-22.9c9.2-15,19-23.2,31.9-26.4l0.2-0.1l0.2,0
				c0,0,0.1,0,0.1,0c6.5-0.4,12.9,1.1,21.2,5.1c6.3,3,12.6,6.3,18.7,9.4l0.1,0c12.4,6.4,25.3,13,38.7,17.9c6,2.2,11.9,5,17.6,7.6
				c3.3,1.5,6.7,3.1,10,4.6c7.9,3.4,16.2,4.5,25.5,3.2c7.3-1,15-0.7,22.4-0.4l0.2,0c1.5,0.1,2.9,0.1,4.4,0.2l1.5,0.1
				c9.4,0.3,19,0.7,28.4,1.9C273,124.5,279.4,131.4,278.4,142.1z"/>
		</g>
		<g>
			<path class="st1" d="M78.4,100.6c-0.2,0-0.4,0-0.6,0c-0.3,0-0.6,0-0.8,0l-0.2,0l-0.2,0c0,0-0.1,0-0.1,0c0,0-0.1,0-0.1,0
				c-13.7,4.4-18.2,10.8-19.1,27.1c-1.2,21.9,19.9,45,38.2,49.4c8.4,2.1,17.1,0.6,25.6-4.2c10.6-6,17-13.1,20.2-22.2
				c3.9-11.3,1.2-20.4-8.2-27.7c-13.9-10.8-30.8-18.1-51.6-22.4C80.5,100.5,79.5,100.6,78.4,100.6z M140.4,150.5
				c-3.1,8.9-9.3,15.8-19.7,21.7c-5.8,3.3-11.7,5-17.5,5c-2.5,0-4.9-0.3-7.3-0.9c-17.9-4.4-38.6-26.9-37.4-48.4
				c0.9-15.8,5.1-21.9,18.2-26.1l0.2-0.1l0.2,0c0.3,0,0.7,0,1.1,0l0.4,0c0.9-0.1,1.9-0.1,2.8,0.1c20.7,4.3,37.4,11.6,51.2,22.2
				C141.7,131.1,144.2,139.5,140.4,150.5z"/>
		</g>
		<g>
			<path class="st1" d="M325.5,102.6c-4.8-2.5-11.2-4-19.4-4.5c-7.1-0.5-14.3-0.4-21.2-0.3c-4.4,0.1-8.1,0.1-12,0.1
				c-12.4-0.1-24.8-3.1-36.9-8.8c-2.8-1.3-5.7-2.8-8.4-4.3l-0.1-0.1c-7.4-3.9-15.1-7.9-23.6-9.5c-4.5-0.9-9.1-1.6-13.5-2.3
				c-3-0.5-6.4-1-9.7-1.6c-12.8-2.2-21.3-7-24.1-24c-1.3-8.1-3.1-16.8-5.5-26.6c-3.1-12.7-14.9-21.2-28-20.2l-0.2,0l-0.2,0
				c0,0-0.1,0-0.1,0c0,0-0.1,0-0.1,0C112,3,103.8,9.3,95.6,16c-4.9,4-10.2,7.6-15.3,11.1l-0.1,0.1c-3.4,2.3-7,4.7-10.4,7.3l-4.4,3.2
				c-7.6,5.6-15.5,11.4-22.6,17.9C32,65.3,21.2,76.1,10.6,87.6C0,99.2-2.1,113.3,4.4,129.4c4.5,11.2,9.5,23.1,15,34.8
				c4.7,10.1,12,18.8,21.6,25.6c3.8,2.7,7.6,5.6,11.3,8.4c8.3,6.3,16.8,12.9,26,17.7c10,5.3,21.3,8,33.5,8c5.1,0,10.4-0.5,15.8-1.4
				c6-1,12.2-1.5,18.2-2l3.9-0.3c12.4-1,24.1-3.8,34.9-8.4c12.8-5.5,22.7-7,33-5.1c17.3,3.2,34.1-0.4,48.3-4.3
				c16.2-4.5,32.9-9.1,47.6-18.3c15.4-9.7,25.1-23.3,28.9-40.6C346,127.1,338.7,109.5,325.5,102.6z M341.6,143.5
				c-3.7,17.1-13.3,30.6-28.5,40.1c-14.6,9.2-31.3,13.8-47.4,18.2c-14.1,3.9-30.8,7.4-47.9,4.2c-13.1-2.4-24.3,1.2-33.4,5.1
				c-10.7,4.6-22.4,7.4-34.7,8.3l-3.8,0.3c-6,0.5-12.3,0.9-18.3,2c-5.4,0.9-10.6,1.4-15.6,1.4c-12.1,0-23.2-2.6-33.1-7.9
				c-9.2-4.9-17.7-11.4-25.9-17.7c-3.7-2.8-7.5-5.7-11.3-8.5c-9.5-6.8-16.7-15.3-21.3-25.3c-5.5-11.7-10.4-23.6-15-34.8
				c-6.4-15.8-4.4-29.6,6.1-41c10.5-11.5,21.3-22.2,32.1-32c7.1-6.4,14.9-12.2,22.6-17.8l4.4-3.3c3.4-2.5,7-5,10.5-7.3
				c5.2-3.5,10.5-7.1,15.4-11.1c8.4-6.9,16.2-12.8,26.4-15.2l0.3-0.1l0.3,0c0,0,0,0,0.1,0c12.7-0.9,24.2,7.3,27.2,19.6
				c2.4,9.8,4.2,18.5,5.5,26.5c2.9,17.4,11.6,22.3,24.7,24.6c3.3,0.6,6.5,1.1,9.7,1.6l0.1,0c4.4,0.7,9,1.4,13.4,2.3
				c8.4,1.6,16,5.6,23.4,9.4l0.1,0c2.8,1.5,5.7,3,8.5,4.3c12.2,5.7,24.7,8.7,37.2,8.8c4,0,8,0,11.9-0.1l0.1,0
				c7-0.1,14.1-0.2,21.2,0.3c8.1,0.5,14.3,2,19.1,4.4C338.1,110,345.1,127.3,341.6,143.5z"/>
		</g>
		<g>
			<path class="st1" d="M237.4,102.9c-10.2-0.1-20.5-2.6-30.4-7.3c-2.3-1.1-4.7-2.3-6.9-3.5l-0.2-0.1c-6.1-3.2-12.4-6.6-19.5-8
				c-3.7-0.7-7.5-1.3-11.2-1.9c-2.6-0.4-5.3-0.9-8-1.3c-10.5-1.9-17.5-5.9-19.8-19.9c-1.1-6.7-2.6-14-4.6-22.2
				c-2.6-10.7-12.3-17.8-23.2-17l-0.2,0l-0.2,0c0,0-0.1,0-0.1,0c0,0-0.1,0-0.1,0c-8.6,2-15.4,7.3-22.2,12.9c-4,3.3-8.4,6.3-12.6,9.3
				l-0.1,0c-2.8,2-5.8,4-8.6,6.1L66,52.6c-6.3,4.7-12.8,9.5-18.7,14.9c-8.9,8.2-17.8,17.2-26.5,26.8c-8.8,9.7-10.6,21.5-5.2,35.1
				c3.8,9.3,7.8,19.3,12.4,29.1c3.9,8.5,9.9,15.7,17.9,21.5c3.2,2.3,6.4,4.8,9.3,7.1c6.8,5.3,13.9,10.7,21.5,14.8
				c8.3,4.4,17.6,6.7,27.7,6.7c4.2,0,8.6-0.4,13.1-1.2c4.9-0.9,10.1-1.3,15-1.6l3.2-0.3c10.2-0.8,19.9-3.2,28.9-7
				c10.6-4.6,18.7-5.8,27.2-4.2c14.3,2.7,28.2-0.3,39.9-3.6c13.4-3.7,27.2-7.6,39.3-15.3c12.7-8.1,20.8-19.5,23.9-34
				c3-13.9-3-28.7-14-34.5c-4-2.1-9.3-3.3-16.1-3.8c-5.9-0.4-11.8-0.3-17.5-0.2C243.7,102.9,240.5,103,237.4,102.9z M247.2,103.8
				c5.8-0.1,11.7-0.1,17.5,0.2c6.7,0.4,11.8,1.6,15.7,3.7c10.6,5.6,16.4,20,13.5,33.5c-3.1,14.2-11,25.5-23.5,33.4
				c-12,7.7-25.8,11.5-39.1,15.2c-11.6,3.2-25.4,6.2-39.5,3.5c-10.9-2-20.1,1-27.7,4.3c-8.8,3.8-18.5,6.1-28.6,7l-3.2,0.3
				c-5,0.4-10.1,0.8-15.1,1.7c-4.4,0.8-8.7,1.2-12.9,1.2c-10,0-19.1-2.2-27.3-6.6c-7.6-4.1-14.6-9.5-21.4-14.8
				c-3-2.4-6.2-4.8-9.3-7.1c-7.8-5.7-13.7-12.8-17.6-21.1c-4.5-9.7-8.6-19.7-12.4-29.1c-5.3-13.2-3.6-24.6,5-34.1
				c8.7-9.6,17.6-18.6,26.5-26.7c5.8-5.4,12.3-10.2,18.6-14.9l3.7-2.7c2.8-2.1,5.8-4.1,8.6-6.1c4.3-2.9,8.7-6,12.7-9.3
				c6.9-5.8,13.3-10.7,21.7-12.7l0.2-0.1l0.2,0c0,0,0,0,0.1,0c10.5-0.8,19.8,6.1,22.3,16.3c2,8.2,3.5,15.4,4.5,22.1
				c2.4,14.6,9.6,18.8,20.5,20.7c2.6,0.5,5.3,0.9,8,1.3l0.2,0c3.6,0.6,7.4,1.2,11,1.9c6.9,1.3,13.2,4.7,19.3,7.9l0.1,0
				c2.3,1.2,4.7,2.5,7,3.6c10.1,4.8,20.4,7.3,30.8,7.4C240.6,103.9,244,103.8,247.2,103.8z"/>
		</g>
	</g>
	<g>
		<g>
			<path class="st1" d="M56.8,140.1v-24.8h4.8v20.2h11.1v4.6H56.8z"/>
			<path class="st1" d="M93.5,134.5H83.4l-2.1,5.7h-5.1l9.5-24.8h5.6l9.4,24.8h-5.2L93.5,134.5z M85,130.1h6.9l-3.4-9.4L85,130.1z"
				/>
			<path class="st1" d="M116.7,122.6c-0.1-0.3-0.2-0.7-0.4-1.1c-0.2-0.4-0.4-0.8-0.8-1.1c-0.3-0.3-0.8-0.6-1.3-0.9
				c-0.5-0.2-1.2-0.3-2-0.3c-0.6,0-1.1,0.1-1.6,0.3c-0.5,0.2-0.9,0.4-1.2,0.7c-0.3,0.3-0.6,0.6-0.8,1c-0.2,0.4-0.3,0.8-0.3,1.2
				c0,0.7,0.2,1.3,0.7,1.8c0.4,0.5,1.1,0.8,2,1l3.5,0.7c1.1,0.2,2.1,0.5,3,1c0.9,0.5,1.6,1,2.2,1.7c0.6,0.6,1,1.4,1.3,2.2
				c0.3,0.8,0.5,1.6,0.5,2.5c0,1-0.2,1.9-0.6,2.8c-0.4,0.9-1,1.7-1.7,2.4c-0.8,0.7-1.7,1.3-2.8,1.7c-1.1,0.4-2.4,0.7-3.8,0.7
				c-1.7,0-3.1-0.2-4.3-0.7c-1.2-0.5-2.2-1.1-3-1.8c-0.8-0.7-1.4-1.6-1.8-2.5c-0.4-0.9-0.7-1.8-0.8-2.7l4.5-1.2
				c0,0.6,0.2,1.2,0.4,1.7c0.2,0.6,0.6,1.1,1,1.5c0.4,0.4,1,0.8,1.6,1c0.7,0.3,1.4,0.4,2.3,0.4c1.3,0,2.3-0.3,3-0.9
				c0.7-0.6,1-1.3,1-2.2c0-0.7-0.3-1.3-0.8-1.9c-0.5-0.5-1.3-0.9-2.2-1.1l-3.5-0.7c-2-0.4-3.6-1.2-4.7-2.4c-1.2-1.2-1.8-2.8-1.8-4.7
				c0-1.1,0.2-2.1,0.7-3.1c0.5-0.9,1.1-1.8,1.9-2.5c0.8-0.7,1.7-1.2,2.8-1.6c1-0.4,2.2-0.6,3.3-0.6c1.5,0,2.8,0.2,3.8,0.6
				c1.1,0.4,1.9,0.9,2.6,1.6c0.7,0.6,1.2,1.3,1.6,2.1c0.4,0.8,0.6,1.5,0.8,2.2L116.7,122.6z"/>
			<path class="st1" d="M131.6,115.3h5.7l5.6,9.8l5.6-9.8h5.4l-8.7,14.4v10.4h-4.8v-10.4L131.6,115.3z"/>
			<path class="st1" d="M166.7,140.7c-1.3,0-2.6-0.2-3.7-0.6c-1.2-0.4-2.2-1-3-1.8c-0.9-0.8-1.5-1.8-2-2.9c-0.5-1.2-0.8-2.5-0.8-4
				v-16h4.8V131c0,1.6,0.4,2.9,1.3,3.7c0.8,0.8,2,1.3,3.4,1.3c1.5,0,2.6-0.4,3.5-1.3c0.8-0.8,1.3-2.1,1.3-3.7v-15.7h4.8v16
				c0,1.5-0.3,2.9-0.8,4c-0.5,1.2-1.2,2.1-2,2.9c-0.9,0.8-1.9,1.4-3,1.8C169.3,140.5,168.1,140.7,166.7,140.7z"/>
			<path class="st1" d="M197.1,140.1l-11.3-17.6v17.6H181v-24.8h6l10.3,16.4v-16.4h4.8v24.8H197.1z"/>
			<path class="st1" d="M225.7,140.1l-0.3-2.8c-0.3,0.4-0.6,0.8-1.1,1.2c-0.4,0.4-1,0.8-1.6,1.1c-0.6,0.3-1.3,0.6-2.1,0.8
				c-0.8,0.2-1.6,0.3-2.6,0.3c-1.7,0-3.3-0.3-4.8-0.9c-1.5-0.6-2.8-1.4-3.9-2.6c-1.1-1.1-2-2.5-2.7-4.1c-0.7-1.6-1-3.4-1-5.4
				c0-2,0.3-3.8,1-5.4c0.7-1.6,1.6-3,2.8-4.1c1.2-1.1,2.5-2,4.1-2.6c1.5-0.6,3.1-0.9,4.8-0.9c1.6,0,3.1,0.2,4.4,0.6
				c1.3,0.4,2.4,1,3.3,1.7c0.9,0.7,1.7,1.5,2.3,2.4c0.6,0.9,1.1,1.8,1.4,2.8l-4.6,1.6c-0.2-0.6-0.4-1.1-0.8-1.7
				c-0.3-0.6-0.8-1.1-1.3-1.5c-0.5-0.5-1.2-0.8-2-1.1c-0.8-0.3-1.7-0.4-2.7-0.4c-0.9,0-1.9,0.2-2.8,0.5c-0.9,0.3-1.8,0.8-2.5,1.5
				c-0.7,0.7-1.3,1.6-1.8,2.6c-0.5,1.1-0.7,2.3-0.7,3.8c0,1.4,0.2,2.6,0.6,3.7c0.4,1.1,1,1.9,1.7,2.7c0.7,0.7,1.5,1.2,2.5,1.6
				c0.9,0.4,1.9,0.5,3,0.5c1.1,0,2.1-0.2,2.9-0.5c0.8-0.3,1.5-0.8,2-1.2c0.5-0.5,0.9-1,1.2-1.6c0.3-0.6,0.4-1.1,0.5-1.5h-7.8v-4.2
				h12.4v12.9H225.7z"/>
			<path class="st1" d="M249.9,134.5h-10.1l-2.1,5.7h-5.1l9.5-24.8h5.6l9.4,24.8H252L249.9,134.5z M241.5,130.1h6.9l-3.4-9.4
				L241.5,130.1z"/>
			<path class="st1" d="M272.4,122.6c-0.1-0.3-0.2-0.7-0.4-1.1c-0.2-0.4-0.4-0.8-0.8-1.1c-0.3-0.3-0.8-0.6-1.3-0.9
				c-0.5-0.2-1.2-0.3-2-0.3c-0.6,0-1.1,0.1-1.6,0.3c-0.5,0.2-0.9,0.4-1.2,0.7c-0.3,0.3-0.6,0.6-0.8,1c-0.2,0.4-0.3,0.8-0.3,1.2
				c0,0.7,0.2,1.3,0.7,1.8c0.4,0.5,1.1,0.8,2,1l3.5,0.7c1.1,0.2,2.1,0.5,3,1c0.9,0.5,1.6,1,2.2,1.7c0.6,0.6,1,1.4,1.3,2.2
				c0.3,0.8,0.5,1.6,0.5,2.5c0,1-0.2,1.9-0.6,2.8c-0.4,0.9-1,1.7-1.7,2.4c-0.8,0.7-1.7,1.3-2.8,1.7c-1.1,0.4-2.4,0.7-3.8,0.7
				c-1.7,0-3.1-0.2-4.3-0.7c-1.2-0.5-2.2-1.1-3-1.8c-0.8-0.7-1.4-1.6-1.8-2.5c-0.4-0.9-0.7-1.8-0.8-2.7l4.5-1.2
				c0,0.6,0.2,1.2,0.4,1.7c0.2,0.6,0.6,1.1,1,1.5c0.4,0.4,1,0.8,1.6,1c0.7,0.3,1.4,0.4,2.3,0.4c1.3,0,2.3-0.3,3-0.9
				c0.7-0.6,1-1.3,1-2.2c0-0.7-0.3-1.3-0.8-1.9c-0.5-0.5-1.3-0.9-2.2-1.1l-3.5-0.7c-2-0.4-3.6-1.2-4.7-2.4c-1.2-1.2-1.8-2.8-1.8-4.7
				c0-1.1,0.2-2.1,0.7-3.1c0.5-0.9,1.1-1.8,1.9-2.5c0.8-0.7,1.7-1.2,2.8-1.6c1-0.4,2.2-0.6,3.3-0.6c1.5,0,2.8,0.2,3.8,0.6
				c1.1,0.4,1.9,0.9,2.6,1.6c0.7,0.6,1.2,1.3,1.6,2.1s0.6,1.5,0.8,2.2L272.4,122.6z"/>
		</g>
		<g>
			<path class="st1" d="M104.4,160.1c0.1-0.1,0.1-0.2,0.2-0.3c0.1-0.1,0.2-0.1,0.4-0.1c0.2,0,0.3,0,0.4,0.1c0.1,0.1,0.1,0.3,0.1,0.6
				c0,0.5,0,1,0,1.5c0,0.5,0,0.7,0,0.6c0,0.3,0,0.4-0.1,0.5c-0.1,0.1-0.2,0.1-0.5,0.1c-0.4,0-0.6-0.3-0.7-0.8c0-0.2-0.1-0.3-0.1-0.3
				c-0.1-0.4-0.3-0.7-0.7-1s-0.8-0.4-1.4-0.4c-1,0-1.7,0.3-2.3,1c-0.6,0.7-0.9,1.6-0.9,2.8s0.3,2.1,0.9,2.8c0.6,0.7,1.4,1,2.3,1
				c0.3,0,0.6,0,1-0.1s0.6-0.2,1-0.4c0.1-0.1,0.3-0.2,0.6-0.4c0.3-0.2,0.4-0.3,0.5-0.3c0.2,0,0.3,0.1,0.4,0.2
				c0.1,0.1,0.2,0.2,0.2,0.4c0,0.2-0.1,0.3-0.2,0.5s-0.4,0.3-0.7,0.5c-0.5,0.3-0.9,0.5-1.4,0.7c-0.5,0.1-0.9,0.2-1.4,0.2
				c-1.3,0-2.4-0.5-3.3-1.4c-0.9-0.9-1.3-2.1-1.3-3.6c0-1.4,0.4-2.6,1.3-3.6c0.9-1,2-1.4,3.3-1.4c0.4,0,0.7,0,1.1,0.1
				C103.6,159.8,104,160,104.4,160.1z"/>
			<path class="st1" d="M116,165.7c0,1.1-0.4,2.1-1.2,2.8c-0.8,0.7-1.8,1.1-3.1,1.1c-1.2,0-2.3-0.4-3-1.1c-0.8-0.7-1.2-1.7-1.2-2.8
				c0-1.1,0.4-2.1,1.2-2.8c0.8-0.7,1.8-1.1,3-1.1c1.2,0,2.3,0.4,3,1.1C115.6,163.6,116,164.6,116,165.7z M111.7,168.5
				c0.8,0,1.5-0.3,2-0.8c0.5-0.5,0.8-1.2,0.8-2s-0.3-1.5-0.8-2s-1.2-0.8-2-0.8s-1.5,0.3-2,0.8s-0.8,1.2-0.8,2c0,0.8,0.3,1.5,0.8,2
				C110.2,168.2,110.9,168.5,111.7,168.5z"/>
			<path class="st1" d="M119.6,166.5c0,0.7,0.1,1.2,0.4,1.5c0.3,0.3,0.7,0.5,1.4,0.5c0.6,0,1.1-0.2,1.5-0.6c0.4-0.4,0.6-0.8,0.6-1.4
				v-3.3h-1.1c-0.2,0-0.4,0-0.5-0.1c-0.1-0.1-0.1-0.2-0.1-0.4c0-0.2,0.1-0.4,0.2-0.4c0.1-0.1,0.3-0.1,0.5-0.1h1.7
				c0.2,0,0.3,0,0.4,0.1c0.1,0.1,0.1,0.3,0.1,0.6v5.5h0.4c0.3,0,0.5,0,0.6,0.1c0.1,0.1,0.2,0.2,0.2,0.4c0,0.2-0.1,0.3-0.2,0.4
				c-0.1,0.1-0.3,0.1-0.5,0.1H124c-0.1,0-0.3,0-0.3-0.1c-0.1-0.1-0.1-0.1-0.1-0.2v-0.5c-0.5,0.4-1,0.7-1.3,0.8
				c-0.4,0.1-0.8,0.2-1.2,0.2c-0.9,0-1.6-0.2-2-0.7c-0.4-0.5-0.7-1.2-0.7-2.1v-3.6h-0.2c-0.4,0-0.6,0-0.7-0.1
				c-0.1-0.1-0.2-0.2-0.2-0.4c0-0.2,0.1-0.3,0.2-0.4c0.1-0.1,0.3-0.1,0.5-0.1h1.2c0.2,0,0.3,0,0.4,0.1c0.1,0.1,0.1,0.2,0.1,0.5
				V166.5z"/>
			<path class="st1" d="M128.5,168.3v-5.2h-0.2c-0.4,0-0.6,0-0.8-0.1c-0.1-0.1-0.2-0.2-0.2-0.5c0-0.2,0.1-0.3,0.2-0.4
				c0.1-0.1,0.3-0.1,0.5-0.1h0.4h0.8c0.1,0,0.3,0,0.3,0.1c0.1,0.1,0.1,0.1,0.1,0.2v0.5c0.4-0.4,0.8-0.6,1.2-0.8
				c0.4-0.2,0.8-0.3,1.2-0.3c0.8,0,1.4,0.3,1.9,0.8c0.5,0.5,0.7,1.2,0.7,2.1v3.6h0.4c0.3,0,0.5,0,0.6,0.1c0.1,0.1,0.2,0.2,0.2,0.4
				c0,0.2-0.1,0.4-0.2,0.4c-0.1,0.1-0.4,0.1-0.7,0.1h-1.8c-0.3,0-0.6,0-0.7-0.1c-0.1-0.1-0.1-0.2-0.1-0.5c0-0.2,0.1-0.4,0.2-0.4
				c0.1-0.1,0.3-0.1,0.6-0.1h0.3v-3.4c0-0.6-0.1-1.1-0.4-1.4c-0.3-0.3-0.7-0.5-1.2-0.5c-0.5,0-1,0.2-1.5,0.6
				c-0.4,0.4-0.6,0.8-0.6,1.4v3.4h0.3c0.3,0,0.5,0,0.7,0.1c0.1,0.1,0.2,0.2,0.2,0.4c0,0.2,0,0.4-0.1,0.5c-0.1,0.1-0.3,0.1-0.7,0.1
				h-1.5h-0.4c-0.2,0-0.4,0-0.5-0.1c-0.1-0.1-0.2-0.2-0.2-0.4c0-0.2,0.1-0.4,0.2-0.4s0.4-0.1,0.7-0.1H128.5z"/>
			<path class="st1" d="M143.6,162.4c0.3,0,0.5,0,0.6,0.1c0.1,0.1,0.2,0.2,0.2,0.4c0,0.2-0.1,0.3-0.2,0.4c-0.1,0.1-0.3,0.1-0.5,0.1
				h-3.3v2.7c0,0.9,0.1,1.5,0.3,1.7c0.2,0.3,0.6,0.4,1.2,0.4c0.5,0,1.1-0.1,1.8-0.4c0.7-0.3,1.1-0.4,1.3-0.4c0.2,0,0.3,0.1,0.4,0.2
				c0.1,0.1,0.2,0.2,0.2,0.4c0,0.2-0.1,0.3-0.2,0.5c-0.1,0.1-0.4,0.3-0.7,0.4c-0.5,0.2-1,0.4-1.4,0.5c-0.4,0.1-0.8,0.1-1.2,0.1
				c-0.6,0-1.2-0.1-1.6-0.3c-0.4-0.2-0.7-0.5-1-0.9c-0.1-0.2-0.2-0.4-0.2-0.7c0-0.3-0.1-0.7-0.1-1.2v-0.3v-2.7h-1.4
				c-0.2,0-0.4,0-0.5-0.1s-0.2-0.2-0.2-0.4c0-0.2,0.1-0.4,0.2-0.5c0.1-0.1,0.4-0.1,0.9-0.1h0.9v-1.7v-0.4c0-0.2,0-0.4,0.1-0.5
				c0.1-0.1,0.3-0.2,0.5-0.2c0.2,0,0.4,0.1,0.5,0.2c0.1,0.1,0.1,0.4,0.1,0.9v1.6H143.6z"/>
			<path class="st1" d="M150.5,168.3h2.7c0.2,0,0.4,0,0.5,0.1c0.1,0.1,0.1,0.2,0.1,0.4c0,0.2,0,0.4-0.1,0.5
				c-0.1,0.1-0.3,0.1-0.5,0.1h-5.3c-0.2,0-0.4,0-0.5-0.1s-0.2-0.2-0.2-0.4c0-0.2,0.1-0.3,0.2-0.4c0.1-0.1,0.3-0.1,0.5-0.1h1.4v-5.2
				h-0.5c-0.5,0-0.8,0-1-0.1s-0.2-0.2-0.2-0.5c0-0.2,0.1-0.3,0.2-0.4c0.1-0.1,0.3-0.1,0.5-0.1h1.8c0.1,0,0.3,0,0.3,0.1
				c0.1,0.1,0.1,0.1,0.1,0.2v1.4c0.5-0.6,1-1.1,1.6-1.4c0.6-0.3,1.1-0.5,1.8-0.5c0.5,0,0.9,0.1,1.2,0.3c0.3,0.2,0.4,0.4,0.4,0.7
				c0,0.2-0.1,0.4-0.2,0.5c-0.1,0.2-0.3,0.2-0.5,0.2c-0.1,0-0.3-0.1-0.6-0.2c-0.3-0.2-0.6-0.2-0.8-0.2c-0.4,0-0.9,0.1-1.3,0.4
				s-1,0.8-1.5,1.4V168.3z"/>
			<path class="st1" d="M160.6,171.5h0.3c0.4,0,0.7,0,0.8,0.1c0.1,0.1,0.2,0.2,0.2,0.5c0,0.2-0.1,0.3-0.2,0.4
				c-0.1,0.1-0.3,0.1-0.5,0.1h-3.7c-0.3,0-0.4,0-0.5-0.1s-0.1-0.2-0.1-0.4c0-0.2,0.1-0.3,0.2-0.4c0.1-0.1,0.3-0.1,0.5-0.1h1.7
				l1.3-2.6l-3-5.8c-0.4,0-0.6,0-0.7-0.1c-0.1-0.1-0.2-0.2-0.2-0.4c0-0.2,0.1-0.3,0.2-0.4c0.1-0.1,0.3-0.1,0.5-0.1h2.2
				c0.3,0,0.5,0,0.6,0.1c0.1,0.1,0.2,0.2,0.2,0.4c0,0.2-0.1,0.4-0.2,0.4c-0.1,0.1-0.4,0.1-0.7,0.1h-0.3l2.2,4.4l2.2-4.4h-0.3
				c-0.4,0-0.6,0-0.8-0.1c-0.1-0.1-0.2-0.2-0.2-0.4c0-0.2,0.1-0.4,0.2-0.4c0.1-0.1,0.3-0.1,0.6-0.1h2c0.2,0,0.4,0,0.5,0.1
				c0.1,0.1,0.2,0.2,0.2,0.4c0,0.2-0.1,0.3-0.2,0.4c-0.1,0.1-0.3,0.1-0.6,0.1L160.6,171.5z"/>
			<path class="st1" d="M182.4,168.7c-0.4,0.3-0.7,0.6-1.1,0.7c-0.4,0.2-0.8,0.2-1.2,0.2c-0.7,0-1.3-0.2-1.8-0.7
				c-0.5-0.5-0.7-1.1-0.7-1.9c0-0.5,0.1-1,0.4-1.4c0.3-0.4,0.7-0.9,1.3-1.3c-0.3-0.4-0.5-0.7-0.6-1c-0.1-0.3-0.2-0.6-0.2-0.9
				c0-0.6,0.2-1,0.6-1.4c0.4-0.4,0.9-0.6,1.5-0.6c0.2,0,0.4,0,0.6,0.1c0.2,0.1,0.5,0.2,0.8,0.4c0,0,0.1,0,0.1,0c0,0,0.1,0,0.1,0
				c0.2,0,0.3,0,0.4,0.1c0.1,0.1,0.1,0.2,0.1,0.4c0,0.2-0.1,0.4-0.2,0.5c-0.1,0.2-0.3,0.2-0.4,0.2c-0.1,0-0.3-0.1-0.6-0.3
				c-0.3-0.2-0.6-0.3-0.9-0.3c-0.3,0-0.5,0.1-0.7,0.2c-0.2,0.2-0.3,0.4-0.3,0.6c0,0.2,0,0.4,0.1,0.6c0.1,0.2,0.3,0.5,0.6,0.9l2,2.7
				c0.1-0.3,0.2-0.6,0.3-1c0.2-0.6,0.4-0.9,0.6-0.9h0.5c0.1,0,0.2,0.1,0.3,0.2c0.1,0.1,0.1,0.3,0.1,0.4c0,0.2,0,0.3-0.1,0.4
				c-0.1,0.1-0.2,0.1-0.4,0.2c-0.1,0.3-0.1,0.5-0.2,0.8c-0.1,0.3-0.2,0.6-0.4,0.9l0.5,0.7h0.2c0.1,0,0.2,0,0.2,0.1
				c0.1,0.1,0.1,0.2,0.1,0.4c0,0.2,0,0.4-0.1,0.5c-0.1,0.1-0.2,0.2-0.3,0.2h-0.7c-0.1,0-0.3-0.1-0.5-0.4c0,0,0-0.1-0.1-0.1
				L182.4,168.7z M181.7,167.7l-1.8-2.4c-0.3,0.2-0.6,0.5-0.7,0.7c-0.2,0.3-0.2,0.5-0.2,0.9c0,0.4,0.1,0.8,0.4,1.1
				c0.3,0.3,0.6,0.4,1,0.4c0.2,0,0.5-0.1,0.7-0.2C181.2,168.1,181.5,167.9,181.7,167.7z"/>
			<path class="st1" d="M203.4,168v-1.9h-2c-0.2,0-0.3,0-0.4-0.1c-0.1-0.1-0.1-0.2-0.1-0.4c0-0.2,0-0.3,0.1-0.4
				c0.1-0.1,0.2-0.1,0.4-0.1h3.5c0.1,0,0.2,0,0.3,0.1c0.1,0.1,0.1,0.2,0.1,0.4c0,0.2,0,0.3-0.1,0.4c-0.1,0.1-0.2,0.1-0.5,0.1h-0.1
				v2.2v0.2c0,0.1,0,0.2,0,0.3c0,0.1-0.1,0.1-0.2,0.2c-0.3,0.2-0.8,0.3-1.3,0.5c-0.6,0.1-1.2,0.2-1.8,0.2c-1.4,0-2.6-0.5-3.5-1.4
				c-0.9-0.9-1.3-2.1-1.3-3.6c0-1.5,0.4-2.7,1.3-3.7c0.9-1,2-1.4,3.3-1.4c0.4,0,0.7,0,1.1,0.1c0.4,0.1,0.7,0.2,1.1,0.4
				c0.1-0.1,0.1-0.2,0.2-0.3c0.1-0.1,0.2-0.1,0.4-0.1c0.3,0,0.4,0.1,0.5,0.2c0.1,0.2,0.1,0.5,0.1,1v1.1c0,0.3,0,0.4-0.1,0.6
				c-0.1,0.1-0.2,0.2-0.5,0.2c-0.3,0-0.5-0.2-0.6-0.5c0-0.1-0.1-0.2-0.1-0.2c-0.2-0.4-0.5-0.8-0.9-1c-0.4-0.2-0.8-0.3-1.3-0.3
				c-1,0-1.7,0.3-2.3,1c-0.6,0.7-0.9,1.6-0.9,2.8c0,1.2,0.3,2.2,1,2.9c0.6,0.7,1.5,1.1,2.5,1.1c0.3,0,0.6,0,0.9-0.1
				C202.6,168.3,203,168.2,203.4,168z"/>
			<path class="st1" d="M214.9,165.7c0,1.1-0.4,2.1-1.2,2.8c-0.8,0.7-1.8,1.1-3.1,1.1c-1.2,0-2.3-0.4-3-1.1
				c-0.8-0.7-1.2-1.7-1.2-2.8c0-1.1,0.4-2.1,1.2-2.8c0.8-0.7,1.8-1.1,3-1.1c1.2,0,2.3,0.4,3,1.1
				C214.5,163.6,214.9,164.6,214.9,165.7z M210.7,168.5c0.8,0,1.5-0.3,2-0.8c0.5-0.5,0.8-1.2,0.8-2s-0.3-1.5-0.8-2s-1.2-0.8-2-0.8
				c-0.8,0-1.5,0.3-2,0.8c-0.5,0.5-0.8,1.2-0.8,2c0,0.8,0.3,1.5,0.8,2C209.2,168.2,209.9,168.5,210.7,168.5z"/>
			<path class="st1" d="M220.1,160h-1.4c-0.5,0-0.8,0-1-0.1c-0.1-0.1-0.2-0.2-0.2-0.5c0-0.2,0.1-0.3,0.2-0.4
				c0.1-0.1,0.3-0.1,0.5-0.1h2.7c0.1,0,0.3,0,0.3,0.1c0.1,0.1,0.1,0.1,0.1,0.2v9.1h2.5c0.2,0,0.4,0,0.4,0.1c0.1,0.1,0.1,0.2,0.1,0.4
				c0,0.2,0,0.4-0.1,0.5s-0.3,0.1-0.5,0.1h-5.9c-0.2,0-0.4,0-0.5-0.1s-0.2-0.2-0.2-0.4c0-0.2,0.1-0.3,0.2-0.4
				c0.1-0.1,0.3-0.1,0.5-0.1h2.2V160z"/>
			<path class="st1" d="M233,168.3c0.2,0,0.4,0,0.5,0.1s0.2,0.2,0.2,0.4c0,0.2-0.1,0.3-0.2,0.4s-0.3,0.1-0.5,0.1h-5.3
				c-0.2,0-0.4,0-0.5-0.1c-0.1-0.1-0.2-0.2-0.2-0.4c0-0.2,0.1-0.3,0.2-0.4c0.1-0.1,0.3-0.1,0.5-0.1h1.4v-4.9h-1.3
				c-0.2,0-0.4-0.1-0.5-0.2c-0.1-0.1-0.2-0.2-0.2-0.4c0-0.2,0.1-0.3,0.2-0.4c0.1-0.1,0.3-0.1,0.5-0.1h1.3v-0.5c0-1,0.3-1.7,0.8-2.1
				c0.6-0.4,1.4-0.7,2.7-0.7c0.6,0,1,0.1,1.3,0.2s0.4,0.3,0.4,0.6c0,0.2-0.1,0.3-0.2,0.4c-0.1,0.1-0.3,0.2-0.5,0.2
				c-0.1,0-0.3,0-0.7-0.1c-0.4-0.1-0.7-0.1-0.9-0.1c-0.6,0-1,0.1-1.3,0.4c-0.3,0.3-0.4,0.7-0.4,1.3v0.5h2.9c0.2,0,0.4,0,0.5,0.1
				c0.1,0.1,0.2,0.2,0.2,0.4c0,0.2-0.1,0.3-0.2,0.4c-0.1,0.1-0.3,0.2-0.5,0.2h-2.8v4.9H233z"/>
		</g>
	</g>
</g>
</svg>
