<svg width="216" height="114" viewBox="0 0 216 114" fill="none" xmlns="http://www.w3.org/2000/svg">
<path d="M212.291 65.458C212.234 65.55 212.171 65.5996 212.1 65.5996C211.994 65.5996 211.909 65.4296 211.852 65.0968L211.76 64.594C211.583 63.9141 211.194 63.4325 210.607 63.1563C211.732 62.866 212.298 62.3348 212.298 61.5629C212.298 61.0601 212.043 60.6564 211.534 60.3519C211.067 60.0686 210.444 59.927 209.672 59.927H206.417V60.6281C206.856 60.6635 207.125 60.7202 207.224 60.7981C207.309 60.8618 207.344 61.0034 207.344 61.2088V65.0543C207.344 65.2526 207.294 65.3871 207.195 65.458C207.103 65.55 206.842 65.5996 206.41 65.5996V66.3007H209.786V65.5996C209.347 65.5642 209.085 65.5005 209 65.4155C208.915 65.3517 208.873 65.2243 208.873 65.0472V63.4042H208.901C209.269 63.4042 209.566 63.475 209.786 63.6167C210.118 63.8362 210.288 64.2824 210.288 64.9622C210.288 65.3446 210.359 65.6562 210.5 65.8829C210.677 66.244 211.074 66.4211 211.697 66.4211C212.638 66.4211 213.112 65.9324 213.112 64.9481V64.6365H212.383C212.383 65.033 212.348 65.3092 212.284 65.465L212.291 65.458ZM209.184 62.7173H208.887V60.9539C208.887 60.7343 209.085 60.621 209.474 60.621C210.288 60.621 210.699 60.9539 210.699 61.6196C210.699 62.349 210.196 62.7102 209.191 62.7102L209.184 62.7173Z" fill="#263E37"/>
<path d="M214.733 61.1593C214.443 60.4511 214.053 59.8492 213.551 59.3605C212.44 58.2699 211.095 57.7175 209.517 57.7175C207.938 57.7175 206.615 58.2558 205.504 59.3322C204.393 60.4086 203.841 61.6976 203.841 63.2131C203.841 64.7286 204.393 66.0246 205.504 67.0798C206.013 67.5684 206.622 67.9579 207.316 68.2412C208.03 68.5387 208.731 68.6874 209.432 68.6874C210.614 68.6874 211.668 68.397 212.602 67.8021C213.537 67.2143 214.237 66.3999 214.711 65.3518C215.016 64.679 215.164 63.9779 215.164 63.2556C215.164 62.5332 215.023 61.8463 214.74 61.1593H214.733ZM213.289 65.6705C212.772 66.4283 212.093 66.9736 211.251 67.3135C210.699 67.5401 210.111 67.6534 209.495 67.6534C208.243 67.6534 207.167 67.2143 206.261 66.3362C205.369 65.4722 204.924 64.4312 204.924 63.206C204.924 62.6394 205.044 62.0658 205.292 61.4851C205.652 60.6565 206.212 59.9837 206.976 59.4809C207.74 58.9781 208.582 58.7232 209.51 58.7232C210.437 58.7232 211.279 58.971 212.043 59.4738C212.808 59.9767 213.367 60.6353 213.714 61.4568C213.947 62.0092 214.06 62.597 214.06 63.206C214.06 64.0912 213.806 64.9127 213.289 65.6705Z" fill="#263E37"/>
<path d="M22.237 50.657C19.2504 50.657 16.8229 49.2972 14.9615 46.5778C13.0011 43.7592 12.0245 39.9208 12.0245 35.0697C12.0245 31.8616 12.442 29.1493 13.2701 26.9468C14.4944 23.6395 16.5044 21.9824 19.2929 21.9824C20.0784 21.9824 20.7154 22.0957 21.2037 22.3152C21.4019 22.4356 21.6567 22.6198 21.9752 22.8676C22.7112 23.5546 23.2208 24.4752 23.518 25.6225C24.3744 29.1776 26.08 30.9551 28.6278 30.9551C29.8522 30.9551 30.8501 30.5586 31.6215 29.7583C32.393 28.9651 32.7751 27.9737 32.7751 26.7981C32.7751 24.546 31.5508 22.5489 29.102 20.8068C26.724 19.1425 24.0064 18.3069 20.949 18.3069C15.5631 18.3069 11.2743 20.3181 8.08948 24.3336C5.17362 28.0587 3.7157 32.6902 3.7157 38.2282C3.7157 41.0964 4.05541 43.5822 4.74191 45.6926C5.79643 48.9502 7.54452 51.5351 9.99327 53.4472C12.5906 55.4797 15.6622 56.4995 19.215 56.4995C23.1358 56.4995 26.7807 54.9203 30.1636 51.7547C31.3172 50.6782 32.4991 49.3256 33.7306 47.7109L31.1615 45.9475C28.5429 49.0848 25.5634 50.6499 22.237 50.6499V50.657Z" fill="#263E37"/>
<path d="M51.9543 56.471C57.1208 56.471 61.2893 54.4881 64.4458 50.5152C67.3617 46.8609 68.8196 42.3922 68.8196 37.095C68.8196 31.4365 67.2484 26.7979 64.1202 23.1791C61.261 19.886 57.6303 18.1084 53.2495 17.8181C53.1929 17.5065 53.1575 17.2657 53.1575 17.1665C53.575 17.209 53.9997 17.2303 54.4172 17.2303C59.98 17.2303 64.7855 13.0803 65.5782 7.57057C65.6206 7.27313 65.5428 6.97569 65.3658 6.74199C65.1889 6.50121 64.9129 6.3454 64.6157 6.29583C64.0707 6.21793 63.5187 6.17544 62.9808 6.17544C58.6636 6.17544 54.8065 8.68951 52.9239 12.3933C52.0747 6.53661 51.2962 6.22501 51.1475 6.1117C50.6804 5.73636 50.001 5.81426 49.6117 6.27458C49.2225 6.74907 49.3003 7.45018 49.7674 7.8326C49.7958 7.86093 51.282 8.92321 50.9281 17.4002C50.9352 17.4569 50.914 17.5914 50.8786 17.7756C46.1651 18.0305 42.3504 19.9639 39.4346 23.5898C36.5187 27.2157 35.0608 31.7127 35.0608 37.0808C35.0608 42.4489 36.5187 46.8822 39.4346 50.5364C42.5911 54.481 46.7667 56.4569 51.9614 56.4569L51.9543 56.471ZM51.9543 21.359C54.4739 21.359 56.3281 22.5488 57.503 24.9283C58.7981 27.5273 59.4492 31.6419 59.4492 37.2791C59.4492 47.6258 56.9509 52.7955 51.9543 52.7955C46.9578 52.7955 44.4241 47.5124 44.4241 36.9533C44.4241 26.3942 46.9365 21.3661 51.9543 21.3661V21.359Z" fill="#263E37"/>
<path d="M85.4302 56.471C89.252 56.471 92.6279 55.0475 95.572 52.2077V55.4441H106.591V52.321C105.367 52.321 104.631 52.0731 104.39 51.5845C104.001 50.9755 103.803 49.9557 103.803 48.5322V0H101.234C99.0753 2.45033 96.1878 4.1075 92.5642 4.96441V7.49972C93.8876 7.66969 94.7228 7.98129 95.0625 8.43453C95.4022 8.88777 95.5791 9.80134 95.5791 11.1752V20.5162C93.5196 18.6537 90.8868 17.726 87.6808 17.726C82.4365 17.726 78.3883 20.0418 75.522 24.6733C73.0732 28.5967 71.8489 33.3345 71.8489 38.9008C71.8489 43.6315 72.9034 47.6045 75.0054 50.8126C77.4824 54.5872 80.9574 56.471 85.4373 56.471H85.4302ZM87.4544 21.3236C92.8685 21.3236 95.572 25.3532 95.572 33.4194V46.4714C93.5904 49.5874 91.2124 51.1383 88.4452 51.1383C86.0177 51.1383 84.0856 49.8282 82.6418 47.2079C81.0989 44.4389 80.3275 40.4801 80.3275 35.3316C80.3275 25.9905 82.7055 21.3236 87.4544 21.3236Z" fill="#263E37"/>
<path d="M112.062 24.7436C112.381 25.2606 112.536 26.2166 112.536 27.6118V48.4963C112.536 49.9905 112.352 51.0316 111.984 51.6194C111.737 52.0585 111.008 52.278 109.783 52.278V55.4365H123.818V52.278C122.593 52.278 121.843 52.0443 121.574 51.5769C121.206 50.9183 121.022 49.8843 121.022 48.4892V16.3586H118.375C115.679 18.9577 112.763 20.6007 109.628 21.2876V23.8584C111.022 24.0283 111.829 24.3258 112.055 24.7436H112.062Z" fill="#263E37"/>
<path d="M116.726 12.2441C118.099 12.2441 119.373 11.7413 120.548 10.7357C121.623 9.60967 122.161 8.35618 122.161 6.98229C122.161 5.48801 121.645 4.2416 120.618 3.25014C119.592 2.25867 118.29 1.76294 116.726 1.76294C115.254 1.76294 113.98 2.27992 112.904 3.30679C111.828 4.33367 111.291 5.55883 111.291 6.98229C111.291 8.40575 111.828 9.638 112.904 10.679C113.98 11.7201 115.254 12.2441 116.726 12.2441Z" fill="#263E37"/>
<path d="M125.29 63.4181C125.29 66.7041 127.519 69.0765 131.978 70.5496C134.993 71.5269 138.553 72.0226 142.672 72.0226C148.206 72.0226 152.58 71.0524 155.786 69.119C159.091 67.1361 160.747 64.5016 160.747 61.2156C160.747 57.9296 159.091 55.1252 155.786 53.0927C154.611 52.3845 150.039 51.3293 142.084 49.9342C137.307 49.0985 134.54 48.5249 133.783 48.2062C133.315 47.8875 133.082 47.5476 133.082 47.1793C133.082 46.2516 134.172 45.1185 136.352 43.7942L138.411 44.3112L140.909 44.5307C145.149 44.5307 148.737 43.3197 151.674 40.8906C154.76 38.3411 156.303 35.048 156.303 31.0043C156.303 28.4335 155.765 26.3727 154.689 24.8289L155.425 24.2411C156.869 25.2467 158.171 25.7495 159.318 25.7495C160.393 25.7495 161.356 25.3954 162.205 24.6801C163.047 23.972 163.472 23.1009 163.472 22.0669C163.472 21.033 163.061 20.0628 162.24 19.2908C161.419 18.5189 160.443 18.1294 159.318 18.1294C158.383 18.1294 157.308 18.5047 156.083 19.2554C154.293 20.4239 152.983 21.3587 152.155 22.0598C149.558 19.5599 146.373 18.3064 142.601 18.3064C138.291 18.3064 134.639 19.6378 131.652 22.2935C128.666 24.9563 127.172 28.1574 127.172 31.9037C127.172 36.2449 129.034 39.6583 132.756 42.1583C130.647 43.3834 129.218 44.4386 128.46 45.3168C127.165 46.5915 126.514 48.0008 126.514 49.5447C126.514 52.0446 128.206 53.9709 131.582 55.3164C127.392 57.788 125.297 60.4862 125.297 63.4039L125.29 63.4181ZM141.858 21.6562C143.79 21.6562 145.241 22.4139 146.196 23.9295C147.251 25.5937 147.774 28.1857 147.774 31.7054C147.774 38.0649 145.701 41.2447 141.568 41.2447C137.647 41.2447 135.686 38.0862 135.686 31.7762C135.686 25.0272 137.746 21.6491 141.858 21.6491V21.6562ZM133.521 58.7865C134.158 57.9013 135.042 57.1294 136.168 56.4708C144.399 57.6251 149.416 58.6307 151.228 59.4876C152.792 60.2454 153.578 61.3148 153.578 62.6887C153.578 66.4633 149.671 68.3471 141.858 68.3471C139.529 68.3471 137.512 67.908 135.793 67.0228C133.662 65.918 132.594 64.3246 132.594 62.2425C132.594 61.0173 132.898 59.863 133.514 58.7865H133.521Z" fill="#263E37"/>
<path d="M166.918 50.6995C170.075 54.5449 174.243 56.4712 179.41 56.4712C184.576 56.4712 188.702 54.5378 191.866 50.664C194.803 47.0594 196.275 42.6261 196.275 37.3572C196.275 31.7908 194.704 27.2301 191.576 23.6608C188.441 20.0915 184.385 18.314 179.417 18.314C174.449 18.314 170.061 20.2261 166.926 24.0503C163.988 27.6054 162.516 32.0387 162.516 37.3572C162.516 42.6757 163.988 47.1019 166.926 50.6995H166.918ZM179.41 21.8407C184.406 21.8407 186.905 27.0884 186.905 37.5767C186.905 48.065 184.406 52.8736 179.41 52.8736C174.413 52.8736 171.88 47.6542 171.88 37.2155C171.88 26.7768 174.392 21.8478 179.41 21.8478V21.8407Z" fill="#263E37"/>
<path d="M30.4254 106.037V83.3183C30.4254 81.1867 29.937 79.4445 28.9533 78.099C27.8492 76.5339 26.2214 75.7478 24.0699 75.7478C21.692 75.7478 17.4173 77.6458 11.2459 81.4487V75.7478H8.71217C7.80628 76.6826 7.11978 77.32 6.65267 77.6599C4.84088 79.055 2.62568 80.0253 0 80.5635V83.1342C1.373 83.3042 2.16566 83.6016 2.38505 84.0195C2.75307 84.5081 2.93708 85.4146 2.93708 86.7389V106.037C2.93708 107.482 2.75307 108.502 2.38505 109.089C2.08781 109.528 1.34469 109.748 0.141546 109.748V112.871H14.006V109.748C12.8029 109.748 12.0314 109.528 11.6917 109.089C11.5219 108.749 11.4228 108.417 11.3945 108.098C11.2954 107.829 11.2459 107.142 11.2459 106.037V85.5987C15.1384 83.4883 17.941 82.4402 19.6608 82.4402C20.6374 82.4402 21.2744 82.6456 21.5716 83.0634C21.9397 83.6016 22.1237 84.7206 22.1237 86.4061V106.037C22.1237 107.51 21.9538 108.537 21.607 109.125C21.3381 109.543 20.5808 109.748 19.3281 109.748V112.871H33.2138V109.748C31.9895 109.748 31.218 109.543 30.8995 109.125C30.5811 108.466 30.4254 107.432 30.4254 106.037Z" fill="#263E37"/>
<path d="M64.0427 109.125C63.8446 109.125 63.6889 109.054 63.5686 108.905C63.3987 108.417 63.3138 107.73 63.3138 106.844V86.2573C63.3138 82.4827 62.2947 79.7632 60.2635 78.099C58.3738 76.5339 55.4226 75.7478 51.4097 75.7478C47.3969 75.7478 44.2475 76.5197 41.6006 78.0636C38.805 79.6783 37.4108 81.6399 37.4108 83.9486C37.4108 85.1526 37.8213 86.1582 38.6423 86.9797C39.4632 87.8012 40.4824 88.2119 41.7067 88.2119C42.8603 88.2119 43.9078 87.8083 44.8632 87.0009C45.7196 86.314 46.4556 85.0817 47.0643 83.3042C47.6729 81.5266 48.2391 80.4431 48.7557 80.0536C49.3644 79.5366 50.2278 79.2817 51.3248 79.2817C53.8231 79.2817 55.0758 81.13 55.0758 84.8339V89.3946C47.3332 92.3619 42.1668 94.9185 39.5694 97.0785C36.7526 99.458 35.3442 102.213 35.3442 105.35C35.3442 107.871 36.1723 109.939 37.8213 111.547C39.4774 113.154 41.6218 113.955 44.2687 113.955C47.4748 113.955 51.1266 112.531 55.2173 109.691C55.734 112.531 57.567 113.955 60.7306 113.955C62.0753 113.955 63.3492 113.608 64.5523 112.906C65.7555 112.205 67.0011 111.001 68.2962 109.288L65.7271 107.34C64.9911 108.544 64.432 109.139 64.0357 109.139L64.0427 109.125ZM55.0758 104.677C52.7261 107.376 50.4685 108.721 48.317 108.721C46.8449 108.721 45.7054 108.155 44.8986 107.029C44.1909 106.051 43.8299 104.819 43.8299 103.353C43.8299 100.903 45.1676 98.7356 47.8357 96.8448C49.2087 95.8887 51.6221 94.6848 55.0758 93.2401V104.67V104.677Z" fill="#263E37"/>
<path d="M83.2575 107.616C82.0543 107.616 81.4598 106.235 81.4598 103.466V80.4429H87.7799V76.2858H81.3112V61.4351H77.5248C76.7676 65.238 75.8192 68.2266 74.6939 70.3866C73.2502 73.2122 71.127 75.5705 68.3385 77.4614V80.4429H73.0024V106.079C73.0024 111.32 75.2176 113.94 79.6551 113.94C81.4174 113.94 83.0735 113.452 84.6163 112.467C86.0601 111.561 87.2986 110.038 88.3248 107.906L86.0459 106.108C85.0197 107.113 84.0855 107.616 83.2504 107.616H83.2575Z" fill="#263E37"/>
<path d="M121.135 108.644C120.718 107.985 120.512 106.618 120.512 104.565V74.3108H118.049L117.681 74.6082C116.726 75.3943 116.075 75.8971 115.735 76.1167C114.072 77.271 112.904 77.9438 112.246 78.135C111.927 78.2554 110.958 78.6024 109.344 79.1619V81.6972C110.59 82.0159 111.375 82.4196 111.694 82.9082C112.034 83.7155 112.211 84.9549 112.211 86.6191V103.899C108.608 105.861 105.855 106.838 103.944 106.838C102.918 106.838 102.253 106.618 101.963 106.179C101.524 105.662 101.304 104.65 101.304 103.127V74.3037H98.8415C96.1946 76.8249 93.2717 78.4466 90.0586 79.1548V81.7255C91.4033 81.8743 92.2667 82.1929 92.6277 82.6816C92.9249 83.0994 93.0665 84.0059 93.0665 85.401V106.286C93.0665 111.384 95.1826 113.934 99.4219 113.934C101.234 113.934 103.484 113.226 106.181 111.802C106.988 111.384 108.997 110.159 112.204 108.127V112.907H123.959V109.933C122.416 109.664 121.475 109.232 121.128 108.644H121.135Z" fill="#263E37"/>
<path d="M146.451 75.8181C143.974 75.8181 141.023 77.6169 137.597 81.2216V75.8181H134.95C132.353 78.2968 129.437 79.8831 126.203 80.5984V83.1337C127.576 83.3037 128.368 83.587 128.588 83.9765C128.927 84.4155 129.104 85.3362 129.104 86.7313V106.029C129.104 107.503 128.92 108.529 128.552 109.117C128.305 109.535 127.576 109.74 126.351 109.74V112.863H140.386V109.74C139.161 109.74 138.411 109.507 138.142 109.039C137.774 108.402 137.59 107.396 137.59 106.022V86.6109C138.227 85.8532 138.814 85.2654 139.352 84.8475C139.89 84.5501 140.421 84.3943 140.931 84.373C141.27 84.4226 141.702 84.5005 142.219 84.6067C144.597 85.2583 145.856 85.584 146.005 85.584C147.378 85.584 148.588 85.145 149.643 84.2597C150.648 83.2045 151.15 82.0431 151.15 80.7684C151.15 79.3449 150.733 78.1622 149.897 77.2203C149.062 76.2784 147.916 75.804 146.444 75.804L146.451 75.8181Z" fill="#263E37"/>
<path d="M180.62 109.125C180.422 109.125 180.267 109.054 180.146 108.905C179.976 108.417 179.891 107.73 179.891 106.844V86.2573C179.891 82.4827 178.872 79.7632 176.841 78.099C174.951 76.5339 172 75.7478 167.987 75.7478C163.975 75.7478 160.825 76.5197 158.178 78.0636C155.383 79.6783 153.988 81.6399 153.988 83.9486C153.988 85.1526 154.399 86.1582 155.22 86.9797C156.041 87.8012 157.06 88.2119 158.284 88.2119C159.438 88.2119 160.485 87.8083 161.441 87.0009C162.297 86.314 163.033 85.0817 163.642 83.3042C164.251 81.5266 164.817 80.4431 165.333 80.0536C165.942 79.5366 166.805 79.2817 167.902 79.2817C170.401 79.2817 171.653 81.13 171.653 84.8339V89.3946C163.911 92.3619 158.744 94.9185 156.147 97.0785C153.33 99.458 151.922 102.213 151.922 105.35C151.922 107.871 152.75 109.939 154.399 111.547C156.055 113.154 158.199 113.955 160.846 113.955C164.052 113.955 167.704 112.531 171.795 109.691C172.312 112.531 174.145 113.955 177.308 113.955C178.653 113.955 179.927 113.608 181.13 112.906C182.326 112.205 183.579 111.001 184.874 109.288L182.305 107.34C181.569 108.544 181.01 109.139 180.613 109.139L180.62 109.125ZM171.653 104.677C169.304 107.376 167.046 108.721 164.895 108.721C163.423 108.721 162.283 108.155 161.476 107.029C160.769 106.051 160.408 104.819 160.408 103.353C160.408 100.903 161.745 98.7356 164.413 96.8448C165.786 95.8887 168.2 94.6848 171.653 93.2401V104.67V104.677Z" fill="#263E37"/>
<path d="M197.521 109.054C197.181 108.467 197.004 107.426 197.004 105.931V57.4346H194.286C192.156 59.8849 189.261 61.5421 185.617 62.399V64.9343C186.99 65.1043 187.811 65.3875 188.079 65.777C188.398 66.3153 188.554 67.2572 188.554 68.6098V105.924C188.554 107.397 188.37 108.438 188.002 109.047C187.704 109.486 186.961 109.706 185.758 109.706V112.865H199.792V109.706C198.54 109.706 197.782 109.486 197.514 109.047L197.521 109.054Z" fill="#263E37"/>
</svg>
