<svg width="191" height="33" viewBox="0 0 191 33" fill="none" xmlns="http://www.w3.org/2000/svg">
<g clip-path="url(#clip0_303_391)">
<path d="M189.704 3.67401C189.679 3.71562 189.649 3.73802 189.617 3.73802C189.568 3.73802 189.532 3.66121 189.505 3.50919L189.464 3.28035C189.383 2.96991 189.208 2.75068 188.941 2.62106C189.451 2.48984 189.707 2.2466 189.707 1.89135C189.707 1.66092 189.592 1.47689 189.363 1.33767C189.151 1.20805 188.869 1.14404 188.52 1.14404H187.045V1.46569C187.245 1.48169 187.368 1.5089 187.412 1.5425C187.448 1.57291 187.467 1.63531 187.467 1.72973V3.48998C187.467 3.5812 187.445 3.64361 187.401 3.67401C187.358 3.71722 187.241 3.73802 187.045 3.73802V4.05967H188.575V3.73802C188.378 3.72202 188.259 3.69321 188.22 3.65321C188.18 3.6228 188.161 3.5668 188.161 3.48518V2.73307H188.176C188.343 2.73307 188.476 2.76668 188.577 2.83229C188.727 2.9331 188.803 3.13793 188.803 3.44838C188.803 3.6244 188.836 3.76522 188.901 3.87084C188.98 4.03566 189.16 4.11728 189.442 4.11728C189.868 4.11728 190.083 3.89164 190.083 3.44358V3.29956H189.753C189.753 3.48038 189.737 3.6084 189.707 3.68041L189.704 3.67401ZM188.296 2.41783H188.16V1.60971C188.16 1.5089 188.248 1.45769 188.425 1.45769C188.795 1.45769 188.98 1.61131 188.98 1.91696C188.98 2.2514 188.753 2.41783 188.297 2.41783H188.296Z" fill="#263E37"/>
<path d="M190.809 1.70576C190.679 1.38091 190.499 1.10567 190.273 0.880039C189.769 0.379166 189.16 0.12793 188.447 0.12793C187.734 0.12793 187.134 0.374366 186.629 0.867237C186.127 1.36011 185.875 1.9522 185.875 2.6435C185.875 3.3348 186.127 3.93008 186.628 4.41495C186.86 4.63899 187.134 4.81661 187.447 4.94783C187.769 5.08385 188.088 5.15266 188.405 5.15266C188.939 5.15266 189.418 5.01824 189.84 4.7494C190.263 4.48056 190.581 4.10611 190.794 3.62604C190.932 3.31719 191 2.99875 191 2.6659C191 2.33305 190.937 2.021 190.809 1.70576ZM190.156 3.77166C189.922 4.11891 189.615 4.37015 189.234 4.52537C188.983 4.62938 188.719 4.68059 188.439 4.68059C187.872 4.68059 187.385 4.47896 186.976 4.0773C186.571 3.68205 186.369 3.20518 186.369 2.6451C186.369 2.38586 186.424 2.12342 186.536 1.85778C186.699 1.47693 186.953 1.17128 187.298 0.939248C187.643 0.707214 188.025 0.591997 188.446 0.591997C188.866 0.591997 189.245 0.707214 189.592 0.936047C189.938 1.16488 190.191 1.46892 190.347 1.84498C190.451 2.09942 190.504 2.36666 190.504 2.6451C190.504 3.04995 190.387 3.42601 190.153 3.77166H190.156Z" fill="#263E37"/>
<path d="M8.38372 23.2145C7.03069 23.2145 5.93215 22.592 5.08967 21.3455C4.20293 20.0541 3.75877 18.297 3.75877 16.0743C3.75877 14.6037 3.94686 13.3635 4.32464 12.3522C4.87944 10.8367 5.78831 10.0782 7.05282 10.0782C7.40689 10.0782 7.69615 10.1294 7.91744 10.2302C8.00595 10.2863 8.12292 10.3711 8.26676 10.4831C8.59869 10.7983 8.83263 11.2192 8.9654 11.7457C9.35266 13.3731 10.124 14.1876 11.2779 14.1876C11.8327 14.1876 12.2847 14.0052 12.6341 13.6403C12.9834 13.2755 13.1573 12.8242 13.1573 12.2849C13.1573 11.2528 12.6025 10.3375 11.4944 9.54054C10.418 8.77723 9.18827 8.39478 7.80205 8.39478C5.36154 8.39478 3.42209 9.31491 1.98054 11.1568C0.659128 12.8642 0 14.9861 0 17.5225C0 18.8363 0.154903 19.9757 0.466289 20.9406C0.943643 22.4336 1.73554 23.6178 2.84516 24.4931C4.02115 25.4245 5.41212 25.8901 7.01963 25.8901C8.79311 25.8901 10.4465 25.1668 11.9765 23.7186C12.4981 23.2241 13.0356 22.6064 13.5904 21.8655L12.4254 21.0574C11.2384 22.4944 9.89166 23.2129 8.38372 23.2129V23.2145Z" fill="#263E37"/>
<path d="M21.8413 25.8758C24.1807 25.8758 26.0664 24.9669 27.4969 23.1474C28.8167 21.4752 29.4758 19.4253 29.4758 17.0009C29.4758 14.4069 28.7661 12.2834 27.3467 10.6272C26.0522 9.11816 24.4083 8.30364 22.423 8.17082C22.3977 8.03 22.3803 7.91958 22.3819 7.87317C22.5716 7.89398 22.7629 7.90358 22.9525 7.90358C25.4721 7.90358 27.6455 6.0025 28.0058 3.47733C28.0264 3.33971 27.99 3.20369 27.911 3.09648C27.8304 2.98446 27.7055 2.91405 27.5712 2.89325C27.3262 2.85804 27.0748 2.83724 26.8298 2.83724C24.8762 2.83724 23.128 3.98781 22.2776 5.68726C21.8919 3.00527 21.5394 2.86125 21.4746 2.81004C21.2644 2.63721 20.9546 2.67242 20.7792 2.88685C20.6037 3.10448 20.6385 3.42453 20.8487 3.60215C20.8629 3.61655 21.5363 4.10143 21.3735 7.98679C21.3766 8.01239 21.3671 8.0748 21.3513 8.15802C19.2175 8.27483 17.4883 9.16136 16.1684 10.8208C14.8486 12.4818 14.1895 14.5429 14.1895 17.0009C14.1895 19.4589 14.8486 21.4912 16.1684 23.165C17.5989 24.9733 19.4893 25.8758 21.8413 25.8758ZM21.8413 9.79345C22.9841 9.79345 23.8203 10.3375 24.353 11.4273C24.941 12.6179 25.235 14.5045 25.235 17.0857C25.235 21.824 24.1032 24.1923 21.8413 24.1923C19.5794 24.1923 18.4319 21.7728 18.4319 16.9337C18.4319 12.0946 19.5684 9.79345 21.8413 9.79345Z" fill="#263E37"/>
<path d="M36.9947 25.8758C38.724 25.8758 40.2556 25.2245 41.5865 23.9219V25.4037H46.5766V23.9715C46.0218 23.9715 45.6899 23.8595 45.5792 23.6355C45.4022 23.3554 45.3137 22.8882 45.3137 22.2385V0.00805664H44.1487C43.1735 1.13142 41.8647 1.88833 40.2224 2.28199V3.44376C40.8215 3.52217 41.1977 3.66619 41.3542 3.87262C41.5091 4.08065 41.5865 4.49831 41.5865 5.1272V9.40462C40.6555 8.5517 39.4621 8.12444 38.0095 8.12444C35.637 8.12444 33.8003 9.18539 32.5041 11.3073C31.3945 13.1044 30.8413 15.2759 30.8413 17.825C30.8413 19.9918 31.3187 21.8112 32.2718 23.2818C33.3925 25.0101 34.9668 25.8758 36.9963 25.8758H36.9947ZM37.9099 9.77588C40.3599 9.77588 41.5865 11.6225 41.5865 15.3159V21.2944C40.6887 22.7202 39.6123 23.4339 38.3588 23.4339C37.2603 23.4339 36.3846 22.8338 35.7302 21.632C35.0316 20.363 34.6823 18.55 34.6823 16.1928C34.6823 11.9154 35.7587 9.77588 37.9099 9.77588Z" fill="#263E37"/>
<path d="M49.0551 11.3425C49.1989 11.5777 49.2716 12.0162 49.2716 12.6563V22.2209C49.2716 22.9058 49.1879 23.3827 49.0219 23.6531C48.9113 23.8547 48.5777 23.9555 48.0245 23.9555V25.4038H54.3787V23.9555C53.8239 23.9555 53.4856 23.8483 53.3639 23.6355C53.1979 23.3331 53.1142 22.861 53.1142 22.2209V7.50195H51.9161C50.6958 8.69253 49.376 9.44464 47.9565 9.75828V10.9377C48.5888 11.0161 48.9539 11.1505 49.0551 11.3425Z" fill="#263E37"/>
<path d="M55.0426 29.0585C55.0426 30.5628 56.051 31.6525 58.0695 32.3262C59.4336 32.7759 61.0475 32.9999 62.9094 32.9999C65.4163 32.9999 67.3953 32.5567 68.8479 31.6701C70.3448 30.7612 71.094 29.5546 71.094 28.0488C71.094 26.543 70.3448 25.2596 68.8479 24.3267C68.3152 24.0018 66.2478 23.5185 62.6439 22.8784C60.4816 22.4976 59.2281 22.2335 58.8851 22.0863C58.6749 21.9407 58.569 21.7839 58.569 21.6143C58.569 21.187 59.0622 20.6717 60.0501 20.0652L60.9811 20.3005L62.1128 20.4013C64.0317 20.4013 65.6566 19.846 66.9875 18.7338C68.3848 17.5657 69.0834 16.0567 69.0834 14.2036C69.0834 13.0242 68.84 12.0817 68.3516 11.3744L68.6835 11.1055C69.3379 11.5664 69.9259 11.7968 70.4459 11.7968C70.9344 11.7968 71.369 11.6336 71.7516 11.3088C72.1341 10.9839 72.3253 10.5839 72.3253 10.1134C72.3253 9.64292 72.1388 9.19485 71.7674 8.8412C71.3959 8.48755 70.9549 8.31152 70.4444 8.31152C70.0223 8.31152 69.5355 8.48435 68.9807 8.8284C68.1714 9.36288 67.5771 9.79014 67.2009 10.1134C66.0249 8.96762 64.5834 8.39634 62.8763 8.39634C60.9242 8.39634 59.2724 9.00602 57.9194 10.2238C56.5663 11.4416 55.8898 12.909 55.8898 14.6276C55.8898 16.6151 56.7323 18.1818 58.4188 19.3259C57.4657 19.8876 56.8161 20.3693 56.4731 20.7741C55.8851 21.3582 55.5911 22.0031 55.5911 22.7104C55.5911 23.8562 56.3561 24.7363 57.8862 25.354C55.9894 26.487 55.041 27.7223 55.041 29.0585H55.0426ZM62.5443 9.92776C63.42 9.92776 64.0744 10.275 64.5075 10.9695C64.9848 11.7312 65.2219 12.9186 65.2219 14.5332C65.2219 17.4473 64.2846 18.9035 62.41 18.9035C60.6349 18.9035 59.7482 17.4585 59.7482 14.5668C59.7482 11.4736 60.6792 9.92776 62.5427 9.92776H62.5443ZM58.7682 26.9366C59.0558 26.5318 59.4557 26.1781 59.9663 25.8757C63.6919 26.4038 65.9648 26.863 66.7868 27.2567C67.4965 27.6039 67.8521 28.092 67.8521 28.7225C67.8521 30.4507 66.0834 31.3165 62.5459 31.3165C61.4916 31.3165 60.578 31.1148 59.8019 30.71C58.8377 30.2043 58.354 29.4746 58.354 28.5209C58.354 27.9592 58.4931 27.4311 58.7697 26.9382L58.7682 26.9366Z" fill="#263E37"/>
<path d="M73.8903 23.2321C75.3208 24.9956 77.2065 25.8757 79.5458 25.8757C81.8852 25.8757 83.7551 24.9892 85.1855 23.2145C86.5164 21.5647 87.1819 19.5324 87.1819 17.1176C87.1819 14.5685 86.4722 12.4786 85.0528 10.8447C83.6334 9.21089 81.7982 8.39478 79.5474 8.39478C77.2966 8.39478 75.3113 9.2701 73.8919 11.0224C72.561 12.6498 71.8955 14.6821 71.8955 17.1192C71.8955 19.5564 72.561 21.5823 73.8919 23.2321H73.8903ZM79.5458 10.0126C81.8077 10.0126 82.9394 12.4162 82.9394 17.2201C82.9394 22.024 81.8077 24.2259 79.5458 24.2259C77.2839 24.2259 76.1364 21.8351 76.1364 17.052C76.1364 12.2689 77.2729 10.0126 79.5458 10.0126Z" fill="#263E37"/>
<path d="M107.362 22.2625V11.8546C107.362 10.8784 107.139 10.0799 106.697 9.46381C106.197 8.74531 105.461 8.38525 104.484 8.38525C103.407 8.38525 101.473 9.25578 98.678 10.9952V8.38525H97.5305C97.1195 8.81252 96.8097 9.10376 96.5995 9.26058C95.7791 9.90067 94.7754 10.3439 93.5884 10.5904V11.7697C94.2096 11.8482 94.57 11.9826 94.6695 12.1746C94.8355 12.3986 94.9193 12.8147 94.9193 13.4212V22.2625C94.9193 22.925 94.8355 23.3906 94.6695 23.6595C94.5368 23.8611 94.1985 23.9619 93.6548 23.9619V25.3925H99.9267V23.9619C99.383 23.9619 99.0337 23.8611 98.8788 23.6595C98.8013 23.5027 98.7571 23.3506 98.746 23.205C98.7017 23.0818 98.6796 22.7665 98.6796 22.2625V12.8995C100.442 11.9346 101.713 11.4513 102.489 11.4513C102.932 11.4513 103.221 11.5473 103.354 11.7377C103.52 11.9842 103.603 12.4963 103.603 13.2708V22.2641C103.603 22.9378 103.526 23.4098 103.371 23.6787C103.249 23.8691 102.905 23.9651 102.34 23.9651V25.3957H108.628V23.9651C108.073 23.9651 107.724 23.8691 107.58 23.6787C107.436 23.3762 107.364 22.9042 107.364 22.2641L107.362 22.2625Z" fill="#263E37"/>
<path d="M122.582 23.6769C122.494 23.6769 122.421 23.6433 122.366 23.5761C122.288 23.3521 122.249 23.0368 122.249 22.6336V13.2034C122.249 11.4752 121.789 10.2286 120.869 9.46528C120.015 8.74677 118.678 8.38672 116.86 8.38672C115.042 8.38672 113.617 8.74037 112.419 9.44767C111.154 10.1886 110.522 11.0863 110.522 12.1425C110.522 12.6929 110.707 13.1554 111.08 13.5315C111.451 13.9075 111.914 14.0963 112.469 14.0963C112.991 14.0963 113.467 13.9107 113.9 13.5411C114.288 13.2274 114.62 12.6625 114.897 11.848C115.174 11.0335 115.43 10.5374 115.662 10.3582C115.939 10.123 116.328 10.0046 116.827 10.0046C117.959 10.0046 118.523 10.8527 118.523 12.5473V14.6356C115.019 15.9942 112.679 17.1672 111.503 18.1545C110.228 19.2443 109.591 20.5069 109.591 21.9439C109.591 23.1009 109.965 24.0466 110.713 24.7811C111.462 25.5156 112.434 25.8837 113.633 25.8837C115.085 25.8837 116.737 25.2324 118.589 23.9298C118.822 25.2324 119.655 25.8837 121.085 25.8837C121.695 25.8837 122.272 25.7236 122.814 25.4036C123.358 25.0835 123.922 24.5299 124.51 23.7442L123.346 22.8512C123.014 23.4017 122.758 23.6769 122.581 23.6769H122.582ZM118.523 21.6398C117.458 22.8752 116.438 23.4929 115.463 23.4929C114.797 23.4929 114.282 23.2353 113.915 22.7184C113.593 22.2703 113.433 21.7087 113.433 21.035C113.433 19.9132 114.037 18.9194 115.246 18.0537C115.868 17.6153 116.96 17.0664 118.523 16.4039V21.6414V21.6398Z" fill="#263E37"/>
<path d="M131.282 22.9873C130.738 22.9873 130.466 22.3536 130.466 21.0862V10.5407H133.327V8.63804H130.4V1.83545H128.687C128.342 3.5781 127.915 4.9463 127.406 5.93525C126.752 7.22823 125.792 8.30839 124.528 9.17412V10.5407H126.641V22.2832C126.641 24.6836 127.645 25.8837 129.652 25.8837C130.45 25.8837 131.2 25.6597 131.898 25.21C132.553 24.794 133.112 24.0979 133.579 23.1217L132.546 22.296C132.08 22.7569 131.66 22.9857 131.282 22.9857V22.9873Z" fill="#263E37"/>
<path d="M148.432 23.4593C148.244 23.1568 148.149 22.5328 148.149 21.5902V7.729H147.034L146.868 7.86342C146.437 8.22348 146.143 8.45231 145.986 8.55472C145.233 9.0828 144.706 9.39165 144.406 9.48126C144.262 9.53727 143.824 9.69409 143.092 9.95333V11.1151C143.658 11.2607 144.012 11.4463 144.158 11.6704C144.313 12.0416 144.39 12.6081 144.39 13.3714V21.2862C142.76 22.1839 141.512 22.6336 140.647 22.6336C140.181 22.6336 139.882 22.5328 139.749 22.3311C139.55 22.0959 139.451 21.6302 139.451 20.9341V7.729H138.336C137.138 8.88597 135.813 9.62688 134.361 9.95173V11.1311C134.971 11.1983 135.358 11.3439 135.526 11.568C135.659 11.7584 135.725 12.1745 135.725 12.8145V22.3807C135.725 24.7155 136.684 25.8836 138.603 25.8836C139.424 25.8836 140.445 25.5572 141.663 24.9075C142.029 24.7171 142.939 24.1554 144.392 23.2241V25.4132H149.715V24.0498C149.017 23.9266 148.59 23.7297 148.435 23.4609L148.432 23.4593Z" fill="#263E37"/>
<path d="M159.893 8.42055C158.773 8.42055 157.437 9.24626 155.885 10.8961V8.42055H154.687C153.511 9.55511 152.191 10.2848 150.727 10.6097V11.7714C151.348 11.8498 151.709 11.9795 151.808 12.1587C151.963 12.3603 152.041 12.7812 152.041 13.4213V22.2626C152.041 22.9363 151.957 23.4083 151.791 23.6772C151.68 23.8676 151.347 23.9636 150.793 23.9636V25.3942H157.148V23.9636C156.593 23.9636 156.255 23.8564 156.133 23.6436C155.967 23.3523 155.883 22.8914 155.883 22.2626V13.3701C156.171 13.0228 156.438 12.7524 156.681 12.5619C156.925 12.4275 157.163 12.3539 157.396 12.3427C157.551 12.3667 157.745 12.4019 157.977 12.4499C159.052 12.7492 159.624 12.898 159.691 12.898C160.312 12.898 160.861 12.6964 161.338 12.2915C161.793 11.8082 162.021 11.2754 162.021 10.6913C162.021 10.04 161.833 9.4991 161.455 9.06704C161.077 8.63498 160.557 8.41895 159.892 8.41895L159.893 8.42055Z" fill="#263E37"/>
<path d="M175.363 23.6769C175.274 23.6769 175.202 23.6433 175.146 23.5761C175.069 23.3521 175.029 23.0368 175.029 22.6336V13.2034C175.029 11.4752 174.569 10.2286 173.649 9.46528C172.796 8.74677 171.459 8.38672 169.641 8.38672C167.823 8.38672 166.397 8.74037 165.199 9.44767C163.935 10.1886 163.303 11.0863 163.303 12.1425C163.303 12.6929 163.488 13.1554 163.861 13.5315C164.232 13.9075 164.695 14.0963 165.25 14.0963C165.772 14.0963 166.247 13.9107 166.68 13.5411C167.068 13.2274 167.401 12.6625 167.678 11.848C167.954 11.0335 168.21 10.5374 168.443 10.3582C168.719 10.123 169.108 10.0046 169.608 10.0046C170.74 10.0046 171.304 10.8527 171.304 12.5473V14.6356C167.8 15.9942 165.459 17.1672 164.284 18.1545C163.009 19.2443 162.372 20.5069 162.372 21.9439C162.372 23.1009 162.746 24.0466 163.494 24.7811C164.243 25.5156 165.215 25.8837 166.413 25.8837C167.866 25.8837 169.518 25.2324 171.37 23.9298C171.603 25.2324 172.436 25.8837 173.866 25.8837C174.476 25.8837 175.053 25.7236 175.597 25.4036C176.141 25.0835 176.705 24.5299 177.293 23.7442L176.128 22.8512C175.796 23.4017 175.54 23.6769 175.363 23.6769ZM171.304 21.6398C170.238 22.8752 169.219 23.4929 168.244 23.4929C167.578 23.4929 167.063 23.2353 166.696 22.7184C166.374 22.2703 166.214 21.7087 166.214 21.035C166.214 19.9132 166.818 18.9194 168.027 18.0537C168.648 17.6153 169.741 17.0664 171.304 16.4039V21.6414V21.6398Z" fill="#263E37"/>
<path d="M183.014 23.6434C182.86 23.3746 182.782 22.8961 182.782 22.2112V0H181.551C180.587 1.12336 179.278 1.88027 177.625 2.27393V3.4357C178.246 3.51411 178.617 3.64373 178.739 3.82296C178.883 4.06939 178.955 4.50305 178.955 5.11914V22.2128C178.955 22.8865 178.872 23.3634 178.706 23.645C178.573 23.8467 178.235 23.9475 177.691 23.9475V25.3957H184.045V23.9475C183.479 23.9475 183.136 23.8467 183.013 23.645L183.014 23.6434Z" fill="#263E37"/>
<path d="M51.5 6C52.1315 6 52.7174 5.76013 53.2578 5.28041C53.7526 4.74324 54 4.14527 54 3.48986C54 2.77703 53.7624 2.18243 53.2904 1.70946C52.8184 1.23649 52.2194 1 51.5 1C50.8229 1 50.237 1.24662 49.7422 1.73649C49.2474 2.22635 49 2.81081 49 3.48986C49 4.16892 49.2474 4.75676 49.7422 5.25338C50.237 5.75 50.8229 6 51.5 6Z" fill="#263E37"/>
</g>
<defs>
<clipPath id="clip0_303_391">
<rect width="191" height="33" fill="white"/>
</clipPath>
</defs>
</svg>
