<?xml version="1.0" encoding="utf-8"?>
<!-- Generator: Adobe Illustrator 24.0.0, SVG Export Plug-In . SVG Version: 6.00 Build 0)  -->
<svg version="1.1" id="Layer_1" xmlns="http://www.w3.org/2000/svg" xmlns:xlink="http://www.w3.org/1999/xlink" x="0px" y="0px"
	 viewBox="0 0 92 93" style="enable-background:new 0 0 92 93;" xml:space="preserve">
<style type="text/css">
	.st0{fill:#263E37;stroke:#0C2820;}
</style>
<path class="st0" d="M46.2,91.9c-3.4,0-5.8-3.5-8.2-7c-1.7-2.4-3.4-5-5.3-5.7c-2-0.8-5.1-0.3-8.1,0.3c-4,0.7-8.1,1.4-10.4-0.9
	c-2.3-2.3-1.5-6.4-0.9-10.4c0.5-3,1.1-6.2,0.3-8.1c-0.8-1.9-3.3-3.6-5.7-5.3C4.5,52.4,1,49.9,1,46.5c0-3.4,3.5-5.8,6.9-8.2
	c2.4-1.7,4.9-3.5,5.7-5.3c0.8-2,0.3-5.1-0.3-8.1c-0.7-4-1.4-8.1,0.9-10.4c2.3-2.3,6.4-1.6,10.4-0.9c3,0.5,6.1,1.1,8.1,0.3
	c1.9-0.8,3.6-3.3,5.3-5.7c2.4-3.4,4.8-7,8.2-7c3.4,0,5.8,3.5,8.2,7c1.7,2.4,3.4,5,5.3,5.7c2,0.8,5.1,0.3,8.1-0.3
	c4-0.7,8.1-1.4,10.4,0.9c2.3,2.3,1.5,6.4,0.9,10.4c-0.5,3-1.1,6.2-0.3,8.1c0.8,1.9,3.3,3.6,5.7,5.3c3.4,2.4,6.9,4.8,6.9,8.2
	c0,3.4-3.5,5.8-6.9,8.2c-2.4,1.7-4.9,3.5-5.7,5.3c-0.8,2-0.3,5.1,0.3,8.1c0.7,4,1.4,8.1-0.9,10.4c-2.3,2.3-6.4,1.6-10.4,0.9
	c-3-0.5-6.1-1.1-8.1-0.3C57.8,80,56,82.5,54.4,85C52,88.4,49.5,91.9,46.2,91.9z M30.1,77.4c1.2,0,2.2,0.1,3.2,0.5
	c2.2,0.9,4,3.5,5.9,6.2c2.2,3.1,4.4,6.3,7,6.3c2.6,0,4.9-3.2,7-6.3c1.9-2.7,3.7-5.3,5.9-6.2c2.4-1,5.7-0.4,8.9,0.2
	c3.6,0.6,7.4,1.3,9.1-0.5c1.7-1.8,1.1-5.5,0.5-9.2c-0.6-3.2-1.1-6.6-0.2-8.9c0.9-2.3,3.5-4,6.2-5.9c3.1-2.2,6.3-4.4,6.3-7
	c0-2.6-3.2-4.9-6.3-7c-2.7-1.9-5.3-3.7-6.2-5.9c-1-2.4-0.4-5.7,0.2-8.9c0.6-3.6,1.3-7.4-0.5-9.2c-1.7-1.8-5.5-1.1-9.1-0.5
	c-3.2,0.6-6.5,1.1-8.9,0.2c-2.2-0.9-4-3.5-5.9-6.2c-2.2-3.1-4.4-6.3-7-6.3c-2.6,0-4.9,3.2-7,6.3c-1.9,2.7-3.7,5.3-5.9,6.2
	c-2.4,1-5.7,0.4-8.9-0.2c-3.6-0.6-7.4-1.3-9.1,0.5c-1.7,1.8-1.1,5.5-0.5,9.2c0.6,3.2,1.1,6.6,0.2,8.9c-0.9,2.3-3.5,4-6.2,5.9
	c-3.1,2.2-6.3,4.4-6.3,7c0,2.6,3.2,4.9,6.3,7c2.7,1.9,5.3,3.7,6.2,5.9c1,2.4,0.4,5.7-0.2,8.9c-0.6,3.6-1.3,7.4,0.5,9.2
	c1.7,1.8,5.5,1.1,9.1,0.5C26.3,77.7,28.3,77.4,30.1,77.4L30.1,77.4z"/>
<path class="st0" d="M38.9,57.7c-0.2,0-0.4-0.1-0.5-0.2L31,50.1c-0.3-0.3-0.3-0.7,0-1c0.3-0.3,0.7-0.3,1,0l7.3,7.4
	c0.3,0.3,0.3,0.7,0,1C39.2,57.6,39,57.7,38.9,57.7z"/>
<path class="st0" d="M39.1,57.9c-0.2,0-0.4-0.1-0.5-0.2c-0.3-0.3-0.3-0.7,0-1L60,35.3c0.3-0.3,0.7-0.3,1,0c0.3,0.3,0.3,0.7,0,1
	L39.6,57.7C39.5,57.9,39.3,57.9,39.1,57.9z"/>
</svg>
