<?xml version="1.0" standalone="no"?>
<!DOCTYPE svg PUBLIC "-//W3C//DTD SVG 20010904//EN"
 "http://www.w3.org/TR/2001/REC-SVG-20010904/DTD/svg10.dtd">
<svg version="1.0" xmlns="http://www.w3.org/2000/svg"
 width="80.000000pt" height="80.000000pt" viewBox="0 0 80.000000 80.000000"
 preserveAspectRatio="xMidYMid meet">
<metadata>
Created by potrace 1.14, written by Peter Selinger 2001-2017
</metadata>
<g transform="translate(0.000000,80.000000) scale(0.100000,-0.100000)"
fill="#000000" stroke="none">
<path d="M225 778 c-53 -19 -83 -47 -110 -102 -34 -70 -37 -183 -6 -245 37
-71 106 -107 192 -99 l49 5 0 -128 c0 -118 -2 -130 -20 -141 -11 -7 -20 -21
-20 -30 0 -16 11 -18 90 -18 82 0 90 2 90 19 0 10 -7 21 -15 25 -12 4 -15 29
-15 139 l0 134 39 17 c74 34 76 30 79 -137 2 -125 0 -148 -13 -153 -8 -4 -15
-15 -15 -25 0 -17 8 -19 85 -19 77 0 85 2 85 19 0 10 -7 21 -15 25 -13 4 -15
33 -15 174 0 156 -2 171 -21 196 -28 35 -79 35 -153 -2 l-56 -29 0 29 c0 36
-25 37 -76 3 -97 -66 -184 5 -184 148 0 100 25 147 80 147 22 0 30 -7 40 -32
8 -18 20 -41 28 -50 20 -23 64 -23 85 0 69 76 -87 173 -208 130z"/>
</g>
</svg>
