<?xml version="1.0" encoding="UTF-8"?>
<svg xmlns="http://www.w3.org/2000/svg" xmlns:xlink="http://www.w3.org/1999/xlink" version="1.2" >
<font id="Courier Bold Oblique">
<font-face  font-family="Courier" units-per-em="2048" ascent="1544" descent="-504" font-style="italic" font-weight="700" font-stretch="normal" slope="-12" cap-height="1536" x-height="1024" underline-position="-295" underline-thickness="188" />
<missing-glyph  horiz-adv-x="1229" d="M102 -362 L102 1444 L1126 1444 L1126 -362 L102 -362 Z M217 -248 L1012 -248 L1012 1329 L217 1329 L217 -248 Z " />
<glyph glyph-name="&amp;#x0;" d="" />
<glyph glyph-name="&amp;#x8;" unicode="&#x8;" d="" />
<glyph glyph-name="&amp;#x1d;" unicode="&#x1d;" d="" />
<glyph glyph-name="&amp;#x9;" unicode="&#x9;" horiz-adv-x="1229" d="" />
<glyph glyph-name="&amp;#xa;" unicode="&#xa;" horiz-adv-x="1229" d="" />
<glyph glyph-name="&amp;#xd;" unicode="&#xd;" horiz-adv-x="1229" d="" />
<glyph glyph-name="space" unicode="&#x20;" horiz-adv-x="1229" d="" />
<glyph glyph-name="exclam" unicode="&#x21;" horiz-adv-x="1229" d="M680 313 Q770 313 814 267.5 Q858 222 842 147 Q826 72 762 24.5 Q698 -23 609 -23 Q523 -23 478 25 Q433 73 449 147 Q464 220 529 266.5 Q594 313 680 313 Z M982 1118 L806 469 Q797 436 767 414.5 Q737 393 697 393 Q659 393 637.5 415 Q616 437 621 469 L720 1118 L722 1126 Q734 1185 776.5 1219 Q819 1253 880 1253 Q942 1253 969.5 1220 Q997 1187 984 1128 L982 1118 Z " />
<glyph glyph-name="quotedbl" unicode="&#x22;" horiz-adv-x="1229" d="M591 915 Q566 915 557.5 927.5 Q549 940 553 977 L601 1346 L603 1358 Q608 1383 622.5 1395 Q637 1407 659 1407 L793 1407 Q816 1407 825 1394.5 Q834 1382 829 1358 L827 1346 L717 977 Q705 940 691.5 927.5 Q678 915 653 915 L591 915 Z M964 915 Q938 915 929.5 927.5 Q921 940 926 977 L974 1346 L976 1358 Q981 1382 996 1394.5 Q1011 1407 1034 1407 L1167 1407 Q1190 1407 1198 1395 Q1206 1383 1201 1358 L1199 1346 L1090 977 Q1078 940 1064.5 927.5 Q1051 915 1025 915 L964 915 Z " />
<glyph glyph-name="numbersign" unicode="&#x23;" horiz-adv-x="1229" d="M701 1313 Q713 1355 740 1377 Q767 1399 809 1399 Q844 1399 861.5 1375 Q879 1351 871 1313 L869 1305 L759 895 L882 895 L994 1313 Q1004 1355 1031.5 1377 Q1059 1399 1102 1399 Q1137 1399 1154.5 1375 Q1172 1351 1164 1313 L1162 1305 L1052 895 L1151 895 Q1183 895 1195 875.5 Q1207 856 1200 819 Q1192 782 1171 762.5 Q1150 743 1118 743 L1011 743 L949 514 L1070 514 Q1102 514 1114 494.5 Q1126 475 1119 438 Q1111 401 1090 381.5 Q1069 362 1037 362 L907 362 L803 -33 Q793 -75 765.5 -97 Q738 -119 697 -119 Q661 -119 643.5 -94.5 Q626 -70 634 -31 L636 -23 L740 362 L615 362 L510 -33 Q501 -75 473 -97 Q445 -119 404 -119 Q369 -119 352 -93 Q335 -67 344 -27 L345 -23 L445 362 L342 362 Q310 362 298 382 Q286 402 294 440 Q302 477 322.5 495.5 Q343 514 375 514 L486 514 L548 743 L423 743 Q390 743 378.5 762 Q367 781 375 819 Q382 856 403 875.5 Q424 895 456 895 L589 895 L701 1313 Z M658 514 L781 514 L841 743 L716 743 L658 514 Z " />
<glyph glyph-name="dollar" unicode="&#x24;" horiz-adv-x="1229" d="M982 1204 Q1006 1200 1030 1193 Q1054 1186 1080 1176 Q1096 1198 1117 1209.5 Q1138 1221 1166 1221 Q1215 1221 1230 1196.5 Q1245 1172 1232 1108 L1208 985 L1207 979 Q1196 929 1163 903 Q1130 877 1077 877 Q1044 877 1028 890 Q1012 903 1000 946 Q984 997 944.5 1024 Q905 1051 848 1051 Q766 1051 712.5 1016.5 Q659 982 646 922 Q637 876 658 847.5 Q679 819 767 780 L938 709 Q1065 654 1106.5 582.5 Q1148 511 1123 395 Q1088 230 975 142.5 Q862 55 683 55 L677 55 L618 -164 Q605 -209 577.5 -229.5 Q550 -250 501 -250 Q460 -250 445.5 -231 Q431 -212 441 -168 L444 -152 L509 80 Q476 86 444.5 97.5 Q413 109 380 127 Q361 107 341 98.5 Q321 90 285 90 Q231 90 216.5 116.5 Q202 143 217 213 L242 334 Q256 399 286.5 428 Q317 457 369 457 Q447 457 460 373 Q463 352 465 342 Q477 295 534 266.5 Q591 238 673 238 Q747 238 795.5 271.5 Q844 305 857 365 Q874 445 714 512 L709 514 L540 586 Q440 627 402 703.5 Q364 780 388 891 Q420 1041 524.5 1122.5 Q629 1204 805 1214 L830 1294 Q841 1334 869.5 1355 Q898 1376 939 1376 Q981 1376 1000 1357.5 Q1019 1339 1012 1305 L1009 1292 L982 1204 Z " />
<glyph glyph-name="percent" unicode="&#x25;" horiz-adv-x="1229" d="M805 360 Q744 360 700 327 Q656 294 645 240 Q633 185 663 152 Q693 119 754 119 Q814 119 857.5 152.5 Q901 186 913 240 Q924 293 894 326.5 Q864 360 805 360 Z M837 512 Q963 512 1030 434 Q1097 356 1073 240 Q1047 122 948 44.5 Q849 -33 721 -33 Q593 -33 526 44.5 Q459 122 485 240 Q509 356 609.5 434 Q710 512 837 512 Z M1121 707 L392 438 Q384 435 376 433.5 Q368 432 361 432 Q336 432 323.5 453.5 Q311 475 318 504 Q321 520 335.5 535 Q350 550 370 557 L1096 823 Q1104 826 1112.5 827.5 Q1121 829 1128 829 Q1154 829 1167 810 Q1180 791 1173 762 Q1170 745 1155 729.5 Q1140 714 1121 707 Z M743 1145 Q682 1145 637.5 1111 Q593 1077 582 1022 Q570 968 600 934.5 Q630 901 691 901 Q751 901 794.5 934.5 Q838 968 850 1022 Q861 1075 831 1110 Q801 1145 743 1145 Z M775 1294 Q901 1294 967.5 1216 Q1034 1138 1010 1022 Q985 905 885 827.5 Q785 750 659 750 Q531 750 464 827 Q397 904 422 1022 Q447 1139 547 1216.5 Q647 1294 775 1294 Z " />
<glyph glyph-name="ampersand" unicode="&#x26;" horiz-adv-x="1229" d="M561 483 Q505 452 472.5 414.5 Q440 377 430 330 Q416 266 450.5 223 Q485 180 550 180 Q582 180 617.5 193 Q653 206 696 233 L561 483 Z M981 1087 Q996 1091 1005.5 1092.5 Q1015 1094 1023 1094 Q1055 1094 1071 1068.5 Q1087 1043 1079 1004 Q1068 953 1026 913.5 Q984 874 943 874 Q915 874 860.5 911 Q806 948 768 948 Q732 948 706 928 Q680 908 672 874 Q663 832 694 772 Q700 762 703 756 L871 420 Q890 455 917 512 Q976 637 1055 637 L1091 637 L1132 637 Q1163 637 1178.5 609 Q1194 581 1185 539 Q1175 493 1148 468.5 Q1121 444 1071 436 Q1049 381 1021 333.5 Q993 286 956 244 L994 182 L1011 182 Q1053 182 1070.5 159.5 Q1088 137 1078 94 Q1069 49 1037.5 24.5 Q1006 0 956 0 L877 0 Q844 0 828.5 6.5 Q813 13 805 29 L782 70 Q708 22 619 -5.5 Q530 -33 447 -33 Q297 -33 221 54.5 Q145 142 174 279 Q197 390 267.5 475 Q338 560 474 641 L437 729 Q423 763 420 807.5 Q417 852 425 893 Q451 1013 547 1081 Q643 1149 789 1149 Q848 1149 893.5 1134.5 Q939 1120 981 1087 Z " />
<glyph glyph-name="quotesingle" unicode="&#x27;" horiz-adv-x="1229" d="M778 915 Q752 915 743.5 927.5 Q735 940 739 977 L788 1346 L790 1358 Q795 1382 810 1394.5 Q825 1407 848 1407 L979 1407 Q1002 1407 1011 1394.5 Q1020 1382 1015 1358 L1013 1346 L903 977 Q892 940 878.5 927.5 Q865 915 839 915 L778 915 Z " />
<glyph glyph-name="parenleft" unicode="&#x28;" horiz-adv-x="1229" d="M1133 1223 Q1153 1223 1164 1208.5 Q1175 1194 1171 1174 Q1167 1153 1101 1071 Q1054 1013 1026 975 Q913 825 848 690 Q783 555 753 410 Q725 280 728 157 Q731 34 765 -88 Q783 -151 817 -241.5 Q851 -332 846 -354 Q842 -374 825.5 -387.5 Q809 -401 791 -401 Q752 -401 708 -367 Q664 -333 619 -268 Q515 -117 481.5 54 Q448 225 488 410 Q523 578 613 733.5 Q703 889 848 1032 Q941 1124 1015 1173.5 Q1089 1223 1133 1223 Z " />
<glyph glyph-name="parenright" unicode="&#x29;" horiz-adv-x="1229" d="M558 1174 Q562 1194 579 1208.5 Q596 1223 615 1223 Q660 1223 714 1173.5 Q768 1124 823 1032 Q906 891 930 735 Q954 579 918 410 Q878 225 773 54 Q668 -117 500 -268 Q428 -332 367.5 -366.5 Q307 -401 268 -401 Q250 -401 239.5 -387.5 Q229 -374 233 -354 Q238 -332 304 -252 Q352 -193 380 -156 Q493 -6 558 129 Q623 264 654 410 Q681 541 678.5 664 Q676 787 642 909 Q623 975 588 1063.5 Q553 1152 558 1174 Z " />
<glyph glyph-name="asterisk" unicode="&#x2a;" horiz-adv-x="1229" d="M864 870 L1142 981 Q1152 985 1156.5 986 Q1161 987 1165 987 Q1175 987 1179.5 979.5 Q1184 972 1188 946 L1197 862 Q1198 851 1198 841.5 Q1198 832 1197 827 Q1195 818 1186.5 812 Q1178 806 1161 803 L879 745 L1019 537 Q1024 530 1026.5 522.5 Q1029 515 1027 508 Q1026 503 1015.5 494.5 Q1005 486 987 475 L907 424 Q894 415 883 410.5 Q872 406 866 406 Q860 406 854 412 Q848 418 844 428 L755 666 L565 428 Q556 416 548.5 411 Q541 406 535 406 Q529 406 519.5 411.5 Q510 417 500 426 L441 477 Q427 488 421.5 496 Q416 504 417 510 Q418 517 424 524.5 Q430 532 438 539 L667 743 L410 803 Q395 806 388 812.5 Q381 819 382 827 Q383 832 387.5 842.5 Q392 853 398 864 L445 946 L445 948 Q467 987 481 987 Q487 987 493.5 985.5 Q500 984 505 981 L731 866 L761 1145 L763 1155 Q767 1173 778.5 1179.5 Q790 1186 821 1186 L909 1186 Q939 1186 947.5 1179.5 Q956 1173 952 1155 L950 1145 L864 870 Z " />
<glyph glyph-name="plus" unicode="&#x2b;" horiz-adv-x="1229" d="M874 733 L1206 733 Q1253 733 1277.5 704.5 Q1302 676 1293 631 Q1283 586 1246.5 557 Q1210 528 1163 528 L831 528 L757 182 Q747 135 711 104.5 Q675 74 629 74 Q586 74 562.5 106 Q539 138 548 182 L622 528 L290 528 Q243 528 218.5 557 Q194 586 204 631 Q213 673 250.5 703 Q288 733 333 733 L665 733 L739 1079 Q749 1127 784.5 1157.5 Q820 1188 866 1188 Q912 1188 935 1157 Q958 1126 948 1079 L874 733 Z " />
<glyph glyph-name="comma" unicode="&#x2c;" horiz-adv-x="1229" d="M636 346 L874 346 Q890 346 898 340 Q906 334 904 324 Q903 319 899 311.5 Q895 304 889 295 L466 -291 Q455 -307 440 -316.5 Q425 -326 409 -326 Q405 -326 400 -324.5 Q395 -323 390 -322 L320 -295 Q304 -289 297.5 -278.5 Q291 -268 293 -256 Q295 -245 297 -239.5 Q299 -234 301 -229 L553 291 Q570 325 586.5 335.5 Q603 346 636 346 Z " />
<glyph glyph-name="hyphen" unicode="&#x2d;" horiz-adv-x="1229" d="M319 575 L1148 575 Q1172 575 1182 563 Q1192 551 1187 528 L1160 403 Q1156 382 1136.5 365 Q1117 348 1099 348 L270 348 Q250 348 242 363 Q234 378 239 403 L266 528 Q270 549 285 562 Q300 575 319 575 Z " />
<glyph glyph-name="period" unicode="&#x2e;" horiz-adv-x="1229" d="M690 362 Q784 362 830.5 310 Q877 258 859 174 Q842 91 773.5 38.5 Q705 -14 611 -14 Q519 -14 472 38.5 Q425 91 442 174 Q460 257 529 309.5 Q598 362 690 362 Z " />
<glyph glyph-name="slash" unicode="&#x2f;" horiz-adv-x="1229" d="M1282 1243 L429 -12 Q389 -71 361.5 -94 Q334 -117 303 -117 Q257 -117 227.5 -88 Q198 -59 207 -16 Q213 13 253 74 L256 78 L1107 1331 Q1148 1392 1176 1415 Q1204 1438 1235 1438 Q1280 1438 1310 1409 Q1340 1380 1331 1337 Q1327 1319 1316.5 1299 Q1306 1279 1282 1243 Z " />
<glyph glyph-name="zero" unicode="0" horiz-adv-x="1229" d="M841 1069 Q735 1069 648.5 953 Q562 837 519 633 Q475 426 511.5 309.5 Q548 193 655 193 Q762 193 848 309.5 Q934 426 978 633 Q1021 837 984.5 953 Q948 1069 841 1069 Z M887 1294 Q1117 1294 1214 1115.5 Q1311 937 1246 631 Q1180 324 1007 145.5 Q834 -33 604 -33 Q376 -33 280.5 145.5 Q185 324 251 631 Q316 938 487.5 1116 Q659 1294 887 1294 Z " />
<glyph glyph-name="one" unicode="1" horiz-adv-x="1229" d="M811 213 L973 213 Q1040 213 1064.5 188 Q1089 163 1077 106 Q1065 50 1031 25 Q997 0 928 0 L338 0 Q269 0 245 25 Q221 50 233 106 Q245 163 280 188 Q315 213 383 213 L569 213 L748 1057 L630 1028 Q603 1022 585 1019 Q567 1016 559 1016 Q518 1016 501.5 1042 Q485 1068 495 1116 Q502 1151 532 1175 Q562 1199 617 1212 L880 1280 Q912 1288 933 1292 Q954 1296 967 1296 Q1007 1296 1019.5 1274 Q1032 1252 1021 1200 L811 213 Z " />
<glyph glyph-name="two" unicode="2" horiz-adv-x="1229" d="M528 225 L878 225 L880 231 Q890 282 923 307 Q956 332 1010 332 Q1054 332 1073 307.5 Q1092 283 1082 238 L1079 225 L1038 70 Q1027 24 1012 12 Q997 0 965 0 L246 0 Q188 0 161.5 25 Q135 50 145 96 Q153 134 180 170.5 Q207 207 259 248 L750 641 Q829 705 875.5 769 Q922 833 935 897 Q954 987 920 1031 Q886 1075 797 1075 Q745 1075 701 1059.5 Q657 1044 629 1016 Q614 1002 591 973 Q527 895 469 895 Q419 895 400.5 928 Q382 961 396 1026 Q410 1093 433 1126 Q456 1159 511 1192 Q600 1244 692 1269 Q784 1294 885 1294 Q1074 1294 1162.5 1192 Q1251 1090 1215 918 Q1190 803 1110 697.5 Q1030 592 887 487 L528 225 Z " />
<glyph glyph-name="three" unicode="3" horiz-adv-x="1229" d="M942 686 Q1050 650 1089.5 572.5 Q1129 495 1102 371 Q1063 184 913 74.5 Q763 -35 545 -35 Q369 -35 266.5 23 Q164 81 181 164 Q192 213 230 243.5 Q268 274 320 274 Q345 274 437.5 229 Q530 184 608 184 Q702 184 763 234.5 Q824 285 844 379 Q866 480 832.5 523 Q799 566 680 571 Q617 573 600.5 595.5 Q584 618 596 676 Q613 756 702 768 Q714 769 720 770 Q831 785 871 821.5 Q911 858 928 940 Q943 1011 913 1050.5 Q883 1090 813 1090 Q739 1090 637 1043.5 Q535 997 500 997 Q461 997 443 1022.5 Q425 1048 434 1087 Q452 1172 583 1233 Q714 1294 887 1294 Q1061 1294 1145 1204 Q1229 1114 1198 965 Q1177 867 1115 799.5 Q1053 732 942 686 Z " />
<glyph glyph-name="four" unicode="4" horiz-adv-x="1229" d="M987 500 Q990 499 992.5 498.5 Q995 498 1002 498 Q1022 498 1053.5 523.5 Q1085 549 1103 549 Q1145 549 1164.5 528.5 Q1184 508 1177 471 Q1174 461 1170.5 450 Q1167 439 1162 430 L1124 356 Q1114 335 1097.5 325 Q1081 315 1059 315 L947 315 L921 190 L980 190 Q989 190 1002.5 189 Q1016 188 1020 188 Q1056 188 1075.5 161.5 Q1095 135 1086 94 Q1076 44 1042 22 Q1008 0 940 0 L518 0 Q450 0 426 22 Q402 44 412 94 Q423 145 457 167.5 Q491 190 558 190 L704 190 L730 315 L269 315 Q243 315 233 331 Q223 347 230 377 L243 438 Q250 475 260 495.5 Q270 516 288 539 L860 1253 Q880 1278 891 1284 Q902 1290 919 1290 Q928 1290 934 1289.5 Q940 1289 945 1288 L1117 1257 Q1131 1254 1136.5 1241 Q1142 1228 1137 1206 L987 500 Z M887 1053 L456 500 L770 500 L887 1053 Z " />
<glyph glyph-name="five" unicode="5" horiz-adv-x="1229" d="M652 1038 L603 807 Q672 826 727 835 Q782 844 828 844 Q1008 844 1094 725.5 Q1180 607 1138 414 Q1092 196 931.5 81.5 Q771 -33 512 -33 Q326 -33 238.5 8 Q151 49 168 129 Q178 177 219.5 211.5 Q261 246 308 246 Q337 246 427 217 Q517 188 586 188 Q699 188 773.5 246.5 Q848 305 871 412 Q893 516 847.5 577.5 Q802 639 702 639 Q638 639 541.5 598 Q445 557 413 557 Q356 557 338.5 588.5 Q321 620 337 696 L440 1180 Q452 1234 469.5 1248 Q487 1262 522 1262 L1177 1262 Q1239 1262 1258 1237.5 Q1277 1213 1264 1149 Q1250 1086 1221 1062 Q1192 1038 1129 1038 L652 1038 Z " />
<glyph glyph-name="six" unicode="6" horiz-adv-x="1229" d="M891 379 Q912 477 871 539.5 Q830 602 745 602 Q663 602 595.5 541.5 Q528 481 508 389 Q487 290 530 227 Q573 164 661 164 Q742 164 806.5 223.5 Q871 283 891 379 Z M572 707 Q632 762 706.5 791.5 Q781 821 858 821 Q1019 821 1103 698.5 Q1187 576 1148 395 Q1108 204 959.5 86.5 Q811 -31 607 -31 Q395 -31 306 123.5 Q217 278 274 549 Q346 885 578 1089.5 Q810 1294 1121 1294 Q1225 1294 1266 1277 Q1307 1260 1299 1221 Q1280 1130 1137 1122 Q1077 1118 1041 1114 Q882 1097 768.5 999 Q655 901 572 707 Z " />
<glyph glyph-name="seven" unicode="7" horiz-adv-x="1229" d="M1216 1155 L653 29 Q639 3 624 -6.5 Q609 -16 584 -16 L399 -16 Q385 -16 377 -7 Q369 2 371 14 Q374 27 376.5 33.5 Q379 40 382 45 L951 1038 L521 1038 L513 1020 Q501 987 471.5 966.5 Q442 946 406 946 Q364 946 348 965 Q332 984 340 1024 Q341 1028 343.5 1036 Q346 1044 347 1049 L398 1204 Q407 1232 428.5 1247 Q450 1262 479 1262 L1186 1262 Q1214 1262 1223.5 1249.5 Q1233 1237 1228 1210 L1216 1155 Z " />
<glyph glyph-name="eight" unicode="8" horiz-adv-x="1229" d="M728 537 Q636 537 569 486 Q502 435 484 350 Q467 269 512.5 216.5 Q558 164 648 164 Q741 164 808 215 Q875 266 893 350 Q911 433 865 485 Q819 537 728 537 Z M979 647 Q1083 606 1127 526 Q1171 446 1149 340 Q1114 175 963.5 71 Q813 -33 606 -33 Q403 -33 296 71 Q189 175 223 336 Q246 444 324 524.5 Q402 605 524 647 Q424 695 384 768 Q344 841 365 940 Q398 1094 545 1194 Q692 1294 889 1294 Q1086 1294 1191.5 1193 Q1297 1092 1264 940 Q1243 841 1171 767 Q1099 693 979 647 Z M849 1106 Q765 1106 699 1056 Q633 1006 617 930 Q601 854 645.5 804 Q690 754 774 754 Q860 754 923.5 802.5 Q987 851 1004 930 Q1020 1006 977 1056 Q934 1106 849 1106 Z " />
<glyph glyph-name="nine" unicode="9" horiz-adv-x="1229" d="M914 555 Q855 500 780.5 470 Q706 440 628 440 Q467 440 383 563 Q299 686 338 866 Q378 1057 526.5 1174.5 Q675 1292 878 1292 Q1090 1292 1179.5 1137.5 Q1269 983 1212 713 Q1140 376 907.5 171.5 Q675 -33 365 -33 Q260 -33 219 -15.5 Q178 2 186 41 Q206 132 348 139 Q409 143 447 147 Q609 166 720 262.5 Q831 359 914 555 Z M978 872 Q999 973 956 1035.5 Q913 1098 825 1098 Q743 1098 679.5 1038.5 Q616 979 595 883 Q574 784 615 721.5 Q656 659 740 659 Q823 659 890.5 719.5 Q958 780 978 872 Z " />
<glyph glyph-name="colon" unicode="&#x3a;" horiz-adv-x="1229" d="M690 362 Q784 362 831 310.5 Q878 259 860 176 Q842 92 773.5 39 Q705 -14 611 -14 Q519 -14 472 39.5 Q425 93 443 176 Q460 258 529 310 Q598 362 690 362 Z M804 895 Q898 895 943.5 843.5 Q989 792 971 709 Q953 624 885 571 Q817 518 724 518 Q632 518 585 571.5 Q538 625 556 709 Q574 792 642.5 843.5 Q711 895 804 895 Z " />
<glyph glyph-name="semicolon" unicode="&#x3b;" horiz-adv-x="1229" d="M636 346 L874 346 Q890 346 898 340 Q906 334 904 324 Q903 319 899 311.5 Q895 304 889 295 L466 -291 Q455 -307 440 -316.5 Q425 -326 409 -326 Q405 -326 400 -324.5 Q395 -323 390 -322 L320 -295 Q304 -289 297.5 -278.5 Q291 -268 293 -256 Q295 -245 297 -239.5 Q299 -234 301 -229 L553 291 Q570 325 586.5 335.5 Q603 346 636 346 Z M798 895 Q892 895 938.5 843.5 Q985 792 967 709 Q949 624 880.5 571 Q812 518 718 518 Q626 518 579.5 571 Q533 624 551 709 Q569 791 637.5 843 Q706 895 798 895 Z " />
<glyph glyph-name="less" unicode="&#x3c;" horiz-adv-x="1229" d="M523 631 L1108 322 Q1157 296 1174 270.5 Q1191 245 1183 209 Q1174 167 1142.5 141 Q1111 115 1068 115 Q1050 115 1029.5 121 Q1009 127 981 141 L271 504 Q265 507 253 512 Q158 561 172 627 Q186 694 308 745 L317 750 L1190 1120 Q1233 1138 1253.5 1143.5 Q1274 1149 1288 1149 Q1331 1149 1351.5 1123 Q1372 1097 1363 1055 Q1355 1019 1327 992.5 Q1299 966 1239 940 L523 631 Z " />
<glyph glyph-name="equal" unicode="&#x3d;" horiz-adv-x="1229" d="M359 901 L1254 901 Q1297 901 1315.5 873.5 Q1334 846 1324 799 Q1314 751 1283.5 723.5 Q1253 696 1210 696 L315 696 Q272 696 252.5 723.5 Q233 751 243 799 Q253 846 284.5 873.5 Q316 901 359 901 Z M288 565 L1183 565 Q1225 565 1244 537.5 Q1263 510 1253 463 Q1243 415 1212.5 387.5 Q1182 360 1139 360 L244 360 Q201 360 181.5 388 Q162 416 172 463 Q182 509 213.5 537 Q245 565 288 565 Z " />
<glyph glyph-name="greater" unicode="&#x3e;" horiz-adv-x="1229" d="M976 631 L389 940 Q342 966 325 992.5 Q308 1019 316 1055 Q325 1097 355.5 1123 Q386 1149 428 1149 Q444 1149 463 1143 Q482 1137 517 1120 L1230 750 L1237 745 Q1337 694 1323 627 Q1309 560 1191 512 Q1180 506 1174 504 L305 141 Q272 127 249.5 121 Q227 115 208 115 Q166 115 146.5 140.5 Q127 166 136 209 Q144 245 170.5 270.5 Q197 296 258 322 L976 631 Z " />
<glyph glyph-name="question" unicode="&#x3f;" horiz-adv-x="1229" d="M601 303 Q689 303 733.5 259.5 Q778 216 763 145 Q748 75 684.5 30.5 Q621 -14 534 -14 Q447 -14 402 30.5 Q357 75 372 145 Q387 216 450 259.5 Q513 303 601 303 Z M757 537 L740 459 Q731 418 696.5 394.5 Q662 371 610 371 Q559 371 534.5 394 Q510 417 519 457 L531 516 Q547 590 579.5 627 Q612 664 687 700 Q712 712 759 733 Q927 806 949 909 Q964 982 924 1024.5 Q884 1067 799 1067 Q721 1067 686.5 1052.5 Q652 1038 632 991 Q607 933 580 915 Q553 897 507 897 Q464 897 448.5 920.5 Q433 944 444 995 L471 1122 Q483 1177 603 1215 Q723 1253 884 1253 Q1067 1253 1152 1158 Q1237 1063 1203 899 Q1175 769 1059.5 675.5 Q944 582 757 537 Z " />
<glyph glyph-name="at" unicode="&#x40;" horiz-adv-x="1229" d="M918 377 Q866 356 821.5 346 Q777 336 735 336 Q638 336 590 414 Q542 492 568 612 Q599 761 706 847.5 Q813 934 966 934 Q972 934 983.5 933 Q995 932 1001 932 Q1027 1054 995.5 1121 Q964 1188 881 1188 Q751 1188 649 1048.5 Q547 909 493 655 Q432 370 485 224 Q538 78 702 78 Q747 78 810 95.5 Q873 113 888 113 Q915 113 925.5 91 Q936 69 928 31 Q915 -31 844 -66.5 Q773 -102 662 -102 Q394 -102 294 88 Q194 278 271 641 Q344 986 518.5 1177 Q693 1368 933 1368 Q1129 1368 1194.5 1253.5 Q1260 1139 1206 887 L1126 512 Q1148 485 1155 462 Q1162 439 1157 416 Q1149 378 1115 353 Q1081 328 1038 328 Q1016 328 987 339.5 Q958 351 918 377 Z M914 524 L968 778 Q961 779 954.5 779.5 Q948 780 935 780 Q866 780 815.5 737.5 Q765 695 750 625 Q738 567 759.5 535.5 Q781 504 832 504 Q845 504 865 509 Q885 514 914 524 Z " />
<glyph glyph-name="A" unicode="A" horiz-adv-x="1229" d="M1164 219 L1181 219 Q1235 219 1257 191.5 Q1279 164 1268 111 Q1256 52 1221 26 Q1186 0 1118 0 L817 0 Q748 0 724 25.5 Q700 51 713 111 Q725 169 759.5 194 Q794 219 863 219 L898 219 L882 336 L450 336 L382 219 L417 219 Q485 219 509 193.5 Q533 168 521 111 Q509 52 474 26 Q439 0 371 0 L113 0 Q44 0 21 26 Q-2 52 9 111 Q20 164 54 191.5 Q88 219 142 219 L159 219 L586 965 L506 965 Q438 965 414 991 Q390 1017 402 1075 Q415 1134 450 1160 Q485 1186 553 1186 L928 1186 Q1017 1186 1032 1090 L1032 1087 L1164 219 Z M799 965 L564 543 L854 543 L799 965 Z " />
<glyph glyph-name="B" unicode="B" horiz-adv-x="1229" d="M550 518 L485 213 L635 213 Q794 213 866.5 248 Q939 283 956 365 Q974 448 919.5 483 Q865 518 710 518 L550 518 Z M1083 629 Q1184 589 1220 519.5 Q1256 450 1233 342 Q1214 251 1154 176 Q1094 101 1002 53 Q948 25 886 12.5 Q824 0 715 0 L631 0 L193 0 Q127 0 104 26 Q81 52 93 111 Q104 164 137 191.5 Q170 219 222 219 L239 219 L398 965 L381 965 Q329 965 308 993 Q287 1021 298 1075 Q310 1133 345 1159.5 Q380 1186 445 1186 L905 1186 Q1116 1186 1208 1104 Q1300 1022 1266 864 Q1250 786 1203.5 726.5 Q1157 667 1083 629 Z M646 971 L592 719 L727 719 Q850 719 907 748 Q964 777 978 846 Q992 911 953 941 Q914 971 812 971 L646 971 Z " />
<glyph glyph-name="C" unicode="C" horiz-adv-x="1229" d="M1173 1153 Q1200 1189 1224.5 1204 Q1249 1219 1281 1219 Q1330 1219 1345 1193 Q1360 1167 1346 1104 L1293 844 Q1278 775 1250.5 751 Q1223 727 1164 727 Q1122 727 1104 747 Q1086 767 1081 821 Q1075 916 1027 957.5 Q979 999 878 999 Q724 999 620 895 Q516 791 474 594 Q432 398 492.5 293 Q553 188 707 188 Q812 188 953.5 258 Q1095 328 1128 328 Q1167 328 1186.5 295 Q1206 262 1196 213 Q1177 125 1005.5 47 Q834 -31 640 -31 Q378 -31 252.5 142 Q127 315 187 594 Q244 863 446 1041 Q648 1219 900 1219 Q971 1219 1036.5 1203 Q1102 1187 1173 1153 Z " />
<glyph glyph-name="D" unicode="D" horiz-adv-x="1229" d="M239 219 L398 965 L381 965 Q327 965 305 993 Q283 1021 294 1075 Q306 1133 342 1159.5 Q378 1186 445 1186 L633 1186 L692 1186 Q901 1186 994 1168 Q1087 1150 1146 1108 Q1252 1036 1288 902.5 Q1324 769 1287 594 Q1247 409 1144.5 270.5 Q1042 132 891 61 Q824 29 739 14.5 Q654 0 492 0 L381 0 L193 0 Q124 0 100 25.5 Q76 51 89 111 Q100 164 134 191.5 Q168 219 222 219 L239 219 Z M656 969 L497 219 L554 219 Q743 219 852.5 311.5 Q962 404 1003 596 Q1043 785 971.5 878 Q900 971 716 971 Q692 971 679.5 970.5 Q667 970 656 969 Z " />
<glyph glyph-name="E" unicode="E" horiz-adv-x="1229" d="M1108 975 L643 975 L588 719 L764 719 L767 731 Q779 788 810 816 Q841 844 892 844 Q937 844 960 818.5 Q983 793 975 754 Q974 752 973 741 Q972 730 969 719 L925 512 Q911 445 881 416 Q851 387 797 387 Q746 387 725.5 414 Q705 441 717 494 L720 512 L544 512 L481 213 L946 213 L971 332 Q985 399 1017 428 Q1049 457 1107 457 Q1164 457 1182.5 428.5 Q1201 400 1186 332 L1135 90 Q1123 36 1098.5 18 Q1074 0 1012 0 L193 0 Q127 0 104 26 Q81 52 93 111 Q104 164 137 191.5 Q170 219 222 219 L239 219 L398 965 L381 965 Q330 965 308.5 993.5 Q287 1022 298 1075 Q310 1133 345 1159.5 Q380 1186 445 1186 L1264 1186 Q1325 1186 1342.5 1167.5 Q1360 1149 1348 1094 L1300 870 Q1286 802 1254.5 772.5 Q1223 743 1167 743 Q1109 743 1090 773 Q1071 803 1085 870 L1108 975 Z " />
<glyph glyph-name="F" unicode="F" horiz-adv-x="1229" d="M1118 975 L653 975 L598 719 L773 719 L776 731 Q788 787 819.5 815.5 Q851 844 902 844 Q947 844 970 818.5 Q993 793 985 754 L977 719 L933 512 Q919 445 889 416 Q859 387 805 387 Q754 387 734 413.5 Q714 440 726 494 L729 512 L554 512 L492 219 L548 219 Q614 219 637 193.5 Q660 168 648 111 Q636 52 601.5 26 Q567 0 502 0 L203 0 Q138 0 114.5 26 Q91 52 103 111 Q114 164 147 191.5 Q180 219 232 219 L249 219 L408 965 L391 965 Q340 965 318.5 993.5 Q297 1022 308 1075 Q320 1133 355.5 1159.5 Q391 1186 455 1186 L1274 1186 Q1335 1186 1352.5 1167.5 Q1370 1149 1358 1094 L1310 870 Q1296 803 1264 773 Q1232 743 1175 743 Q1118 743 1099.5 772.5 Q1081 802 1095 870 L1118 975 Z " />
<glyph glyph-name="G" unicode="G" horiz-adv-x="1229" d="M1163 1153 Q1189 1189 1214 1204 Q1239 1219 1271 1219 Q1320 1219 1335 1193 Q1350 1167 1336 1104 L1283 844 Q1268 775 1240.5 751 Q1213 727 1153 727 Q1111 727 1092 747.5 Q1073 768 1069 821 Q1062 917 1015 958 Q968 999 867 999 Q713 999 609.5 895 Q506 791 464 594 Q422 397 484.5 289.5 Q547 182 704 182 Q740 182 788 190.5 Q836 199 902 217 L935 375 L822 375 Q754 375 731 400 Q708 425 720 483 Q733 543 767 568.5 Q801 594 869 594 L1230 594 Q1300 594 1323 569 Q1346 544 1334 485 Q1322 432 1287.5 403.5 Q1253 375 1199 375 L1183 375 L1133 137 L1130 125 Q1123 93 1113.5 80.5 Q1104 68 1080 55 Q1016 21 886.5 -5 Q757 -31 630 -31 Q368 -31 242.5 142 Q117 315 177 594 Q234 863 436 1041 Q638 1219 890 1219 Q960 1219 1026 1203 Q1092 1187 1163 1153 Z " />
<glyph glyph-name="H" unicode="H" horiz-adv-x="1229" d="M656 965 L607 735 L934 735 L983 965 L967 965 Q913 965 890.5 993 Q868 1021 879 1075 Q892 1134 927 1160 Q962 1186 1030 1186 L1288 1186 Q1356 1186 1379 1160 Q1402 1134 1389 1075 Q1378 1021 1344.5 993 Q1311 965 1258 965 L1241 965 L1082 219 L1099 219 Q1153 219 1175 191.5 Q1197 164 1186 111 Q1174 52 1139.5 26 Q1105 0 1036 0 L778 0 Q709 0 685 25.5 Q661 51 674 111 Q685 164 719.5 191.5 Q754 219 808 219 L824 219 L887 514 L560 514 L497 219 L513 219 Q567 219 589.5 191.5 Q612 164 601 111 Q589 52 554 26 Q519 0 451 0 L193 0 Q124 0 100 25.5 Q76 51 89 111 Q100 164 134 191.5 Q168 219 222 219 L239 219 L398 965 L381 965 Q328 965 306.5 993 Q285 1021 296 1075 Q309 1134 343 1160 Q377 1186 445 1186 L703 1186 Q770 1186 794.5 1160 Q819 1134 806 1075 Q795 1021 760.5 993 Q726 965 672 965 L656 965 Z " />
<glyph glyph-name="I" unicode="I" horiz-adv-x="1229" d="M948 965 L789 219 L957 219 Q1025 219 1049 193.5 Q1073 168 1061 111 Q1049 53 1013.5 26.5 Q978 0 911 0 L317 0 Q249 0 225 26 Q201 52 213 111 Q225 169 259.5 194 Q294 219 363 219 L531 219 L690 965 L522 965 Q454 965 430 991 Q406 1017 418 1075 Q431 1134 465 1159 Q499 1184 568 1184 L1162 1184 Q1233 1184 1256 1159 Q1279 1134 1266 1075 Q1254 1017 1219.5 991 Q1185 965 1116 965 L948 965 Z " />
<glyph glyph-name="J" unicode="J" horiz-adv-x="1229" d="M1180 965 L1062 412 L1058 393 Q1030 259 999.5 199 Q969 139 918 92 Q852 31 751.5 0 Q651 -31 519 -31 Q426 -31 343.5 -13 Q261 5 188 41 Q148 61 141.5 93 Q135 125 150 197 L194 403 Q212 489 244.5 523 Q277 557 339 557 Q428 557 409 426 Q405 403 405 391 Q392 275 425 232.5 Q458 190 550 190 Q664 190 723.5 250.5 Q783 311 817 471 L922 965 L754 965 Q686 965 662 991 Q638 1017 650 1075 Q663 1134 696.5 1159 Q730 1184 800 1184 L1310 1184 Q1380 1184 1403.5 1159 Q1427 1134 1414 1075 Q1402 1017 1367 991 Q1332 965 1264 965 L1180 965 Z " />
<glyph glyph-name="K" unicode="K" horiz-adv-x="1229" d="M656 965 L591 662 L966 971 Q915 977 899 1000.5 Q883 1024 894 1075 Q907 1134 941 1160 Q975 1186 1043 1186 L1288 1186 Q1356 1186 1379 1160 Q1402 1134 1389 1075 Q1377 1020 1343 992.5 Q1309 965 1254 965 L1231 965 L878 676 Q946 616 992.5 518.5 Q1039 421 1086 219 L1099 219 L1119 219 Q1178 219 1201.5 192 Q1225 165 1213 111 Q1201 52 1166 26 Q1131 0 1063 0 L940 0 Q859 0 832 109 Q827 129 824 141 Q788 281 749.5 357 Q711 433 650 496 L537 406 L497 219 L513 219 Q567 219 589.5 191.5 Q612 164 601 111 Q589 52 554 26 Q519 0 451 0 L193 0 Q124 0 100 25.5 Q76 51 89 111 Q100 164 134 191.5 Q168 219 222 219 L239 219 L398 965 L381 965 Q328 965 306.5 993 Q285 1021 296 1075 Q309 1134 343 1160 Q377 1186 445 1186 L703 1186 Q770 1186 794.5 1160 Q819 1134 806 1075 Q795 1021 760.5 993 Q726 965 672 965 L656 965 Z " />
<glyph glyph-name="L" unicode="L" horiz-adv-x="1229" d="M711 965 L552 219 L1007 219 L1045 397 Q1060 466 1090.5 495 Q1121 524 1178 524 Q1235 524 1254.5 494.5 Q1274 465 1260 397 L1195 90 Q1183 36 1158.5 18 Q1134 0 1071 0 L164 0 Q99 0 76.5 26 Q54 52 66 111 Q78 169 111 194 Q144 219 210 219 L298 219 L457 965 L369 965 Q304 965 281.5 991 Q259 1017 271 1075 Q283 1133 318.5 1159.5 Q354 1186 418 1186 L844 1186 Q908 1186 931.5 1159.5 Q955 1133 943 1075 Q931 1017 896.5 991 Q862 965 797 965 L711 965 Z " />
<glyph glyph-name="M" unicode="M" horiz-adv-x="1229" d="M724 512 L1036 1079 Q1066 1135 1103.5 1160.5 Q1141 1186 1194 1186 L1350 1186 Q1418 1186 1442 1160 Q1466 1134 1453 1075 Q1442 1021 1407.5 993 Q1373 965 1319 965 L1303 965 L1172 219 L1189 219 Q1243 219 1264 191.5 Q1285 164 1274 111 Q1262 52 1228 26 Q1194 0 1126 0 L901 0 Q833 0 809.5 25.5 Q786 51 799 111 Q810 164 843.5 191.5 Q877 219 931 219 L947 219 L1063 829 L820 375 Q793 324 759 301.5 Q725 279 673 279 Q621 279 595 301.5 Q569 324 564 375 L516 829 L372 219 L388 219 Q442 219 463.5 191.5 Q485 164 474 111 Q462 52 427.5 26 Q393 0 326 0 L100 0 Q33 0 10 26 Q-13 52 -1 111 Q9 164 42.5 191.5 Q76 219 130 219 L146 219 L334 965 L318 965 Q264 965 241.5 993 Q219 1021 230 1075 Q243 1134 278 1160 Q313 1186 381 1186 L537 1186 Q589 1186 615 1161 Q641 1136 649 1079 L724 512 Z " />
<glyph glyph-name="N" unicode="N" horiz-adv-x="1229" d="M933 414 L1051 965 L996 965 Q930 965 907 991 Q884 1017 896 1075 Q908 1133 942.5 1159.5 Q977 1186 1043 1186 L1327 1186 Q1392 1186 1415 1159.5 Q1438 1133 1426 1075 Q1415 1022 1381.5 993.5 Q1348 965 1297 965 L1280 965 L1087 57 Q1077 10 1064.5 -2 Q1052 -14 1017 -14 L917 -14 Q869 -14 851.5 -4 Q834 6 825 31 L564 762 L449 219 L507 219 Q572 219 594.5 194 Q617 169 605 111 Q593 52 559 26 Q525 0 461 0 L174 0 Q109 0 85.5 26 Q62 52 74 111 Q85 164 118 191.5 Q151 219 204 219 L220 219 L379 965 L363 965 Q312 965 290 993.5 Q268 1022 279 1075 Q291 1133 326.5 1159.5 Q362 1186 426 1186 L590 1186 Q649 1186 666.5 1170.5 Q684 1155 700 1108 L933 414 Z " />
<glyph glyph-name="O" unicode="O" horiz-adv-x="1229" d="M823 987 Q694 987 598.5 883 Q503 779 464 594 Q424 409 476 304 Q528 199 656 199 Q785 199 881 303.5 Q977 408 1017 594 Q1056 779 1004.5 883 Q953 987 823 987 Z M873 1219 Q1119 1219 1240.5 1043 Q1362 867 1304 594 Q1245 319 1050 144 Q855 -31 607 -31 Q362 -31 239.5 145.5 Q117 322 175 594 Q233 868 429 1043.5 Q625 1219 873 1219 Z " />
<glyph glyph-name="P" unicode="P" horiz-adv-x="1229" d="M569 424 L525 219 L628 219 Q693 219 715 194 Q737 169 725 111 Q713 52 679.5 26 Q646 0 582 0 L236 0 Q170 0 147 26 Q124 52 136 111 Q147 164 180 191.5 Q213 219 265 219 L282 219 L441 965 L424 965 Q373 965 351.5 993.5 Q330 1022 341 1075 Q353 1133 388 1159.5 Q423 1186 488 1186 L901 1186 Q1146 1186 1251.5 1092 Q1357 998 1318 815 Q1277 622 1131 523 Q985 424 739 424 L569 424 Z M684 965 L616 649 L758 649 Q876 649 944 689 Q1012 729 1029 809 Q1045 884 992.5 924.5 Q940 965 826 965 L684 965 Z " />
<glyph glyph-name="Q" unicode="Q" horiz-adv-x="1229" d="M553 -16 L459 -94 Q504 -80 547 -73 Q590 -66 630 -66 Q709 -66 791.5 -89.5 Q874 -113 893 -113 Q925 -113 981.5 -91.5 Q1038 -70 1056 -70 Q1093 -70 1111.5 -98.5 Q1130 -127 1120 -170 Q1108 -227 1032 -267 Q956 -307 858 -307 Q791 -307 693 -275.5 Q595 -244 548 -244 Q477 -244 379.5 -283 Q282 -322 261 -322 Q218 -322 194 -293.5 Q170 -265 179 -225 Q185 -197 210.5 -165.5 Q236 -134 295 -84 L417 18 Q263 79 198 237.5 Q133 396 176 602 Q234 874 429 1046.5 Q624 1219 873 1219 Q1121 1219 1242 1046 Q1363 873 1305 602 Q1248 332 1054 157 Q860 -18 619 -18 Q603 -18 586.5 -17.5 Q570 -17 553 -16 Z M823 987 Q694 987 598.5 883 Q503 779 464 594 Q424 409 476 304 Q528 199 656 199 Q785 199 881 303.5 Q977 408 1017 594 Q1056 779 1004.5 883 Q953 987 823 987 Z " />
<glyph glyph-name="R" unicode="R" horiz-adv-x="1229" d="M979 545 Q1002 529 1018 487 Q1021 481 1023 477 L1131 219 L1142 219 L1162 219 Q1220 219 1244 192 Q1268 165 1256 111 Q1244 52 1209 26 Q1174 0 1106 0 L983 0 Q915 0 889 59 L886 61 L722 438 Q712 460 696.5 471.5 Q681 483 661 483 L567 483 L511 219 L527 219 Q581 219 602.5 191.5 Q624 164 613 111 Q601 52 567 26 Q533 0 465 0 L207 0 Q140 0 116.5 26 Q93 52 105 111 Q116 164 149.5 191.5 Q183 219 236 219 L253 219 L412 965 L395 965 Q343 965 321 993.5 Q299 1022 310 1075 Q322 1133 357.5 1159.5 Q393 1186 459 1186 L920 1186 Q1132 1186 1223.5 1103.5 Q1315 1021 1280 860 Q1256 748 1178.5 666 Q1101 584 979 545 Z M659 971 L599 688 L734 688 Q859 688 916 720.5 Q973 753 989 829 Q1005 904 966.5 937.5 Q928 971 827 971 L659 971 Z " />
<glyph glyph-name="S" unicode="S" horiz-adv-x="1229" d="M1111 1163 Q1133 1195 1154.5 1207 Q1176 1219 1215 1219 Q1273 1219 1284.5 1197.5 Q1296 1176 1285 1112 L1248 920 L1246 909 Q1233 850 1204.5 826.5 Q1176 803 1120 803 Q1049 803 1030 879 Q1028 890 1026 897 Q1008 959 962 990.5 Q916 1022 844 1022 Q754 1022 689.5 980.5 Q625 939 611 874 Q592 782 834 729 Q876 720 899 715 Q1083 673 1150.5 587 Q1218 501 1186 352 Q1147 168 1001 68.5 Q855 -31 622 -31 Q531 -31 462 -19 Q393 -7 331 18 Q310 -8 286.5 -19.5 Q263 -31 226 -31 Q163 -31 143 -7 Q123 17 135 78 L181 313 L183 324 Q197 390 227 416 Q257 442 318 442 Q383 442 407 348 Q413 325 416 313 Q439 236 500.5 198 Q562 160 663 160 Q755 160 814 198 Q873 236 887 305 Q910 412 691 467 Q625 483 588 494 Q404 545 345.5 621.5 Q287 698 315 831 Q351 1002 503 1110.5 Q655 1219 859 1219 Q927 1219 989.5 1205 Q1052 1191 1111 1163 Z " />
<glyph glyph-name="T" unicode="T" horiz-adv-x="1229" d="M1157 967 L948 967 L789 221 L957 221 Q1024 221 1047.5 195 Q1071 169 1059 111 Q1047 52 1012.5 26 Q978 0 911 0 L317 0 Q251 0 227.5 26 Q204 52 216 111 Q229 170 262.5 195.5 Q296 221 363 221 L531 221 L690 967 L481 967 L432 764 L427 739 Q416 691 384 664 Q352 637 305 637 Q249 637 228.5 665.5 Q208 694 221 756 L223 764 L297 1063 Q319 1152 344.5 1170 Q370 1188 436 1188 L1296 1188 Q1362 1188 1379.5 1170 Q1397 1152 1382 1063 L1329 764 L1327 756 Q1314 693 1283 665 Q1252 637 1196 637 Q1142 637 1124.5 664.5 Q1107 692 1120 764 L1157 967 Z " />
<glyph glyph-name="U" unicode="U" horiz-adv-x="1229" d="M613 965 L501 442 Q472 303 508 244.5 Q544 186 657 186 Q770 186 831.5 245 Q893 304 922 442 L1034 965 L1018 965 Q965 965 943.5 993 Q922 1021 933 1075 Q946 1134 980 1160 Q1014 1186 1081 1186 L1331 1186 Q1399 1186 1422 1160 Q1445 1134 1432 1075 Q1421 1021 1387.5 993 Q1354 965 1301 965 L1284 965 L1173 446 Q1120 194 987.5 81.5 Q855 -31 614 -31 Q362 -31 276 79.5 Q190 190 244 446 L355 965 L338 965 Q284 965 262 993 Q240 1021 251 1075 Q264 1134 299 1160 Q334 1186 402 1186 L660 1186 Q727 1186 751.5 1160 Q776 1134 763 1075 Q752 1021 717.5 993 Q683 965 629 965 L613 965 Z " />
<glyph glyph-name="V" unicode="V" horiz-adv-x="1229" d="M598 965 L687 256 L1086 965 L1059 965 Q993 965 969.5 990.5 Q946 1016 959 1075 Q972 1134 1006 1160 Q1040 1186 1108 1186 L1360 1186 Q1428 1186 1451 1160 Q1474 1134 1461 1075 Q1450 1022 1416 993.5 Q1382 965 1329 965 L1313 965 L823 98 Q785 30 760 15 Q735 0 680 0 L557 0 Q470 0 455 92 L454 98 L328 965 L311 965 Q260 965 239.5 993 Q219 1021 230 1075 Q243 1135 276 1160.5 Q309 1186 375 1186 L672 1186 Q737 1186 760 1159.5 Q783 1133 771 1075 Q759 1017 724.5 991 Q690 965 625 965 L598 965 Z " />
<glyph glyph-name="W" unicode="W" horiz-adv-x="1229" d="M531 965 L442 379 L657 811 Q681 859 718 883 Q755 907 806 907 Q857 907 883 884 Q909 861 913 811 L946 379 L1106 965 L1079 965 Q1021 965 998.5 992 Q976 1019 988 1075 Q1001 1135 1034.5 1160.5 Q1068 1186 1137 1186 L1378 1186 Q1446 1186 1469 1160 Q1492 1134 1479 1075 Q1468 1021 1434.5 993 Q1401 965 1348 965 L1331 965 L1047 84 Q1031 32 1013 16 Q995 0 940 0 L893 0 Q851 0 834.5 15.5 Q818 31 813 96 L756 690 L454 96 Q423 33 400 16.5 Q377 0 334 0 L287 0 Q233 0 221.5 15.5 Q210 31 216 84 L305 965 L289 965 Q236 965 214 993 Q192 1021 203 1075 Q216 1134 250.5 1160 Q285 1186 352 1186 L594 1186 Q662 1186 685 1160 Q708 1134 695 1075 Q683 1019 649.5 992 Q616 965 557 965 L531 965 Z " />
<glyph glyph-name="X" unicode="X" horiz-adv-x="1229" d="M692 965 L787 774 L959 965 Q910 969 891 997 Q872 1025 883 1075 Q896 1134 930.5 1160 Q965 1186 1032 1186 L1256 1186 Q1323 1186 1347 1160 Q1371 1134 1358 1075 Q1346 1020 1312 992.5 Q1278 965 1221 965 L1202 965 L1192 965 L868 618 L1078 221 L1103 221 Q1160 221 1183 193.5 Q1206 166 1194 111 Q1182 52 1147 26 Q1112 0 1044 0 L776 0 Q708 0 684 26 Q660 52 672 111 Q684 165 715.5 191.5 Q747 218 802 221 L696 444 L490 221 Q548 220 570 192.5 Q592 165 580 111 Q568 52 533 26 Q498 0 430 0 L197 0 Q129 0 106 26 Q83 52 95 111 Q107 166 141 193.5 Q175 221 232 221 L257 221 L611 596 L424 965 L400 965 Q342 965 319 992.5 Q296 1020 308 1075 Q321 1134 356 1160 Q391 1186 459 1186 L715 1186 Q783 1186 807 1160 Q831 1134 818 1075 Q807 1024 775 996 Q743 968 692 965 Z " />
<glyph glyph-name="Y" unicode="Y" horiz-adv-x="1229" d="M672 965 L758 639 L977 965 L973 965 Q928 965 910.5 993 Q893 1021 904 1075 Q917 1135 947 1160.5 Q977 1186 1036 1186 L1264 1186 Q1331 1186 1353.5 1160.5 Q1376 1135 1363 1075 Q1352 1021 1318.5 993 Q1285 965 1233 965 L1217 965 L841 465 L789 219 L920 219 Q988 219 1011 193.5 Q1034 168 1022 111 Q1010 53 974.5 26.5 Q939 0 872 0 L354 0 Q287 0 263.5 26 Q240 52 252 111 Q265 170 298 194.5 Q331 219 400 219 L531 219 L577 436 L406 965 L389 965 Q337 965 316 993 Q295 1021 306 1075 Q319 1135 352.5 1160.5 Q386 1186 453 1186 L715 1186 Q774 1186 794 1160 Q814 1134 801 1075 Q790 1022 760.5 993.5 Q731 965 686 965 L672 965 Z " />
<glyph glyph-name="Z" unicode="Z" horiz-adv-x="1229" d="M529 221 L865 221 L900 383 Q914 449 948 479.5 Q982 510 1042 510 Q1095 510 1115.5 481.5 Q1136 453 1123 395 L1121 383 L1056 125 Q1033 36 1007 18 Q981 0 911 0 L250 0 Q199 0 174.5 26 Q150 52 159 96 Q164 118 176.5 141.5 Q189 165 205 184 L910 967 L600 967 L564 825 Q546 756 513.5 727 Q481 698 422 698 Q369 698 348.5 727 Q328 756 340 813 L343 825 L403 1063 Q426 1151 450.5 1168.5 Q475 1186 549 1186 L1186 1186 Q1237 1186 1260.5 1159.5 Q1284 1133 1275 1090 Q1270 1067 1258 1042.5 Q1246 1018 1230 999 L529 221 Z " />
<glyph glyph-name="bracketleft" unicode="&#x5b;" horiz-adv-x="1229" d="M871 1030 L607 -213 L757 -213 Q789 -213 803 -234.5 Q817 -256 809 -293 Q802 -329 779.5 -350 Q757 -371 726 -371 L419 -371 Q383 -371 365 -352.5 Q347 -334 353 -305 L656 1120 Q662 1149 688 1167.5 Q714 1186 750 1186 L1057 1186 Q1088 1186 1101.5 1165 Q1115 1144 1107 1108 Q1099 1071 1076 1050.5 Q1053 1030 1021 1030 L871 1030 Z " />
<glyph glyph-name="backslash" unicode="&#x5c;" horiz-adv-x="1229" d="M504 1243 Q494 1279 492.5 1299 Q491 1319 495 1337 Q504 1380 545.5 1409 Q587 1438 633 1438 Q663 1438 681.5 1415 Q700 1392 714 1331 L1034 78 Q1043 42 1045 21.5 Q1047 1 1043 -16 Q1034 -58 991 -87.5 Q948 -117 903 -117 Q873 -117 855 -95 Q837 -73 822 -12 L504 1243 Z " />
<glyph glyph-name="bracketright" unicode="&#x5d;" horiz-adv-x="1229" d="M474 -213 L738 1030 L589 1030 Q556 1030 542 1050.5 Q528 1071 536 1108 Q544 1145 566.5 1165.5 Q589 1186 621 1186 L928 1186 Q963 1186 981.5 1167 Q1000 1148 994 1120 L691 -305 Q685 -333 658.5 -352 Q632 -371 597 -371 L290 -371 Q258 -371 244 -350.5 Q230 -330 238 -293 Q246 -256 269 -234.5 Q292 -213 325 -213 L474 -213 Z " />
<glyph glyph-name="asciicircum" unicode="&#x5e;" horiz-adv-x="1229" d="M855 1137 L494 883 Q485 876 473.5 872 Q462 868 452 868 Q428 868 415 883.5 Q402 899 406 922 Q409 935 419.5 951 Q430 967 446 981 L830 1341 Q844 1356 864 1364 Q884 1372 905 1372 Q927 1372 943.5 1364 Q960 1356 969 1341 L1201 981 Q1210 968 1213 951.5 Q1216 935 1213 920 Q1208 897 1188.5 881.5 Q1169 866 1147 866 Q1138 866 1131 868.5 Q1124 871 1118 877 L855 1137 Z " />
<glyph glyph-name="underscore" unicode="&#x5f;" horiz-adv-x="1229" d="M-80 -295 L1184 -295 L1144 -483 L-120 -483 L-80 -295 Z " />
<glyph glyph-name="grave" unicode="&#x60;" horiz-adv-x="1229" d="M1060 1087 L1009 1010 L526 1196 Q515 1201 510 1212 Q505 1223 508 1237 Q509 1242 513 1249 Q515 1252 516 1253 L575 1339 Q585 1354 599 1362 Q613 1370 627 1370 Q631 1370 634.5 1369 Q638 1368 642 1366 L1060 1087 Z " />
<glyph glyph-name="a" unicode="a" horiz-adv-x="1229" d="M1068 219 L1084 219 Q1138 219 1160.5 190.5 Q1183 162 1172 109 Q1159 51 1124.5 25.5 Q1090 0 1022 0 L928 0 Q878 0 857.5 19 Q837 38 831 88 Q737 33 637.5 4 Q538 -25 443 -25 Q282 -25 207 55 Q132 135 162 274 Q194 424 330.5 507 Q467 590 682 590 Q730 590 783 585 Q836 580 900 569 L904 588 Q924 678 890.5 725 Q857 772 772 772 Q706 772 593 723 Q480 674 432 674 Q385 674 361.5 701.5 Q338 729 348 774 Q365 855 493.5 902.5 Q622 950 826 950 Q1039 950 1114 868 Q1189 786 1147 590 L1068 219 Z M867 412 Q819 423 778.5 428.5 Q738 434 702 434 Q592 434 521.5 397 Q451 360 437 295 Q425 237 458.5 206.5 Q492 176 567 176 Q636 176 701 196 Q766 216 834 258 L867 412 Z " />
<glyph glyph-name="b" unicode="b" horiz-adv-x="1229" d="M806 711 Q708 711 627.5 637.5 Q547 564 523 451 Q499 335 547 261.5 Q595 188 694 188 Q793 188 873.5 262 Q954 336 978 451 Q1002 563 953 637 Q904 711 806 711 Z M611 834 Q668 876 739 900 Q810 924 882 924 Q1090 924 1193 786.5 Q1296 649 1251 434 Q1209 238 1046 106.5 Q883 -25 678 -25 Q581 -25 516.5 8.5 Q452 42 422 109 L408 43 Q403 23 385.5 11.5 Q368 0 340 0 L186 0 Q118 0 94.5 25.5 Q71 51 84 111 Q95 164 128.5 191.5 Q162 219 216 219 L232 219 L417 1087 L401 1087 Q347 1087 324.5 1115.5 Q302 1144 313 1198 Q326 1257 360.5 1283 Q395 1309 464 1309 L651 1309 Q683 1309 694 1293.5 Q705 1278 698 1243 L611 834 Z " />
<glyph glyph-name="c" unicode="c" horiz-adv-x="1229" d="M1095 870 Q1116 909 1145.5 928.5 Q1175 948 1215 948 Q1269 948 1285 915.5 Q1301 883 1284 803 L1249 639 Q1236 578 1205 549 Q1174 520 1122 520 Q1085 520 1063.5 537 Q1042 554 1024 602 Q999 670 941 702.5 Q883 735 789 735 Q672 735 581 658.5 Q490 582 465 463 Q438 338 499 262 Q560 186 690 186 Q808 186 938.5 251.5 Q1069 317 1095 317 Q1132 317 1150.5 288.5 Q1169 260 1160 217 Q1140 123 981.5 49 Q823 -25 627 -25 Q385 -25 262.5 111 Q140 247 185 461 Q230 670 409.5 809 Q589 948 817 948 Q894 948 963 929 Q1032 910 1095 870 Z " />
<glyph glyph-name="d" unicode="d" horiz-adv-x="1229" d="M1086 219 L1103 219 Q1157 219 1178 191.5 Q1199 164 1188 111 Q1176 52 1142 26 Q1108 0 1040 0 L887 0 Q858 0 844.5 11.5 Q831 23 836 43 L851 113 Q787 46 702.5 10.5 Q618 -25 522 -25 Q326 -25 222.5 108.5 Q119 242 161 442 Q206 650 368.5 787 Q531 924 737 924 Q808 924 870.5 900.5 Q933 877 980 834 L1034 1087 L901 1087 Q832 1087 808.5 1113.5 Q785 1140 797 1198 Q810 1257 844.5 1283 Q879 1309 948 1309 L1259 1309 Q1293 1309 1302.5 1295 Q1312 1281 1304 1243 L1086 219 Z M722 711 Q624 711 543.5 637.5 Q463 564 439 451 Q415 335 463 261.5 Q511 188 610 188 Q709 188 789.5 262 Q870 336 894 451 Q918 563 869 637 Q820 711 722 711 Z " />
<glyph glyph-name="e" unicode="e" horiz-adv-x="1229" d="M427 403 Q430 292 492.5 237 Q555 182 679 182 Q803 182 937 242.5 Q1071 303 1096 303 Q1133 303 1150.5 275.5 Q1168 248 1159 205 Q1139 111 985.5 43 Q832 -25 627 -25 Q385 -25 262.5 111 Q140 247 185 461 Q231 674 411.5 810 Q592 946 834 946 Q1050 946 1164.5 818.5 Q1279 691 1240 506 Q1228 447 1194.5 425 Q1161 403 1072 403 L427 403 Z M999 559 Q1002 652 942.5 703 Q883 754 770 754 Q661 754 584 705.5 Q507 657 460 559 L999 559 Z " />
<glyph glyph-name="f" unicode="f" horiz-adv-x="1229" d="M868 895 L1083 895 Q1152 895 1175.5 869.5 Q1199 844 1187 786 Q1174 728 1139 702 Q1104 676 1036 676 L821 676 L724 219 L923 219 Q992 219 1015.5 194 Q1039 169 1027 111 Q1015 52 980 26 Q945 0 877 0 L326 0 Q257 0 233.5 26 Q210 52 222 111 Q234 169 268 194 Q302 219 372 219 L478 219 L575 676 L469 676 Q400 676 376.5 702 Q353 728 366 786 Q378 845 412 870 Q446 895 516 895 L622 895 L634 952 Q676 1148 794.5 1230.5 Q913 1313 1156 1313 Q1282 1313 1335 1283 Q1388 1253 1374 1190 Q1366 1148 1334 1123 Q1302 1098 1257 1098 Q1224 1098 1165.5 1107 Q1107 1116 1083 1116 Q990 1116 943.5 1074.5 Q897 1033 875 928 L868 895 Z " />
<glyph glyph-name="g" unicode="g" horiz-adv-x="1229" d="M727 737 Q629 737 549.5 666 Q470 595 447 485 Q424 377 473.5 306.5 Q523 236 621 236 Q720 236 799.5 306.5 Q879 377 902 485 Q925 595 875.5 666 Q826 737 727 737 Z M995 831 L1006 883 Q1010 903 1027 913.5 Q1044 924 1073 924 L1236 924 Q1305 924 1327.5 898.5 Q1350 873 1338 815 Q1326 761 1292.5 733 Q1259 705 1206 705 L1189 705 L1043 16 Q996 -203 856 -302 Q716 -401 453 -401 Q290 -401 220.5 -369 Q151 -337 166 -268 Q176 -220 213 -190 Q250 -160 301 -160 Q314 -160 385.5 -169 Q457 -178 519 -178 Q662 -178 728 -124 Q794 -70 823 70 L833 115 Q753 74 679.5 54.5 Q606 35 531 35 Q330 35 229 160.5 Q128 286 170 483 Q213 686 374.5 817 Q536 948 744 948 Q834 948 896 919.5 Q958 891 995 831 Z " />
<glyph glyph-name="h" unicode="h" horiz-adv-x="1229" d="M627 823 Q675 884 746 916 Q817 948 906 948 Q1064 948 1130 856 Q1196 764 1159 592 L1080 219 L1097 219 Q1150 219 1171.5 191.5 Q1193 164 1182 111 Q1170 52 1136 26 Q1102 0 1034 0 L786 0 Q719 0 696 26 Q673 52 685 111 Q697 165 729.5 192 Q762 219 816 219 L832 219 L894 510 Q921 638 900 687.5 Q879 737 803 737 Q723 737 652.5 672.5 Q582 608 561 510 L499 219 L515 219 Q569 219 590.5 191.5 Q612 164 601 111 Q589 52 554.5 26 Q520 0 453 0 L205 0 Q136 0 113 25.5 Q90 51 103 111 Q114 164 147.5 191.5 Q181 219 234 219 L251 219 L436 1087 L419 1087 Q366 1087 343.5 1115.5 Q321 1144 332 1198 Q345 1257 379.5 1283 Q414 1309 483 1309 L671 1309 Q705 1309 715 1295 Q725 1281 717 1243 L627 823 Z " />
<glyph glyph-name="i" unicode="i" horiz-adv-x="1229" d="M800 219 L1015 219 Q1084 219 1107.5 194 Q1131 169 1119 111 Q1107 52 1072 26 Q1037 0 969 0 L293 0 Q225 0 201 26 Q177 52 189 111 Q201 169 235 194 Q269 219 339 219 L554 219 L657 705 L544 705 Q477 705 453.5 730.5 Q430 756 443 815 Q455 874 488.5 899 Q522 924 591 924 L892 924 Q920 924 932.5 912.5 Q945 901 941 881 L800 219 Z M902 1376 Q975 1376 993 1348 Q1011 1320 989 1214 Q967 1112 940 1087.5 Q913 1063 833 1063 Q755 1063 737.5 1086 Q720 1109 735 1178 Q762 1306 792.5 1341 Q823 1376 902 1376 Z " />
<glyph glyph-name="j" unicode="j" horiz-adv-x="1229" d="M772 705 L438 705 Q369 705 345.5 731 Q322 757 335 815 Q347 874 381 899 Q415 924 485 924 L1007 924 Q1035 924 1048 912.5 Q1061 901 1057 881 L873 16 Q829 -192 694.5 -295.5 Q560 -399 333 -399 Q176 -399 116.5 -367.5 Q57 -336 73 -260 Q83 -212 114.5 -188 Q146 -164 196 -164 Q219 -164 287 -174 Q355 -184 402 -184 Q504 -184 556 -127 Q608 -70 647 115 L772 705 Z M974 1376 Q1046 1376 1064.5 1348 Q1083 1320 1061 1214 Q1038 1110 1011.5 1086.5 Q985 1063 907 1063 Q828 1063 810 1086.5 Q792 1110 807 1178 Q834 1306 864.5 1341 Q895 1376 974 1376 Z " />
<glyph glyph-name="k" unicode="k" horiz-adv-x="1229" d="M570 543 L821 733 Q792 743 784.5 760 Q777 777 784 813 Q797 874 829.5 899 Q862 924 931 924 L1152 924 Q1220 924 1243 899 Q1266 874 1254 815 Q1244 771 1223.5 751 Q1203 731 1150 721 Q1101 712 1060 691 Q1019 670 960 621 L874 547 L1068 219 L1093 219 Q1151 219 1174.5 192 Q1198 165 1186 111 Q1174 52 1139.5 26 Q1105 0 1036 0 L791 0 Q726 0 701.5 22 Q677 44 687 92 Q695 128 716.5 149.5 Q738 171 780 186 L659 385 L512 272 L469 66 Q460 28 444.5 14 Q429 0 395 0 L215 0 Q149 0 126 26 Q103 52 115 111 Q126 164 159 191.5 Q192 219 245 219 L261 219 L446 1087 L430 1087 Q377 1087 355 1116 Q333 1145 344 1198 Q356 1256 391 1282.5 Q426 1309 493 1309 L673 1309 Q707 1309 717 1295 Q727 1281 719 1243 L570 543 Z " />
<glyph glyph-name="l" unicode="l" horiz-adv-x="1229" d="M783 219 L998 219 Q1067 219 1089.5 194 Q1112 169 1100 111 Q1088 52 1054 26 Q1020 0 952 0 L274 0 Q207 0 184 26 Q161 52 173 111 Q186 170 218.5 194.5 Q251 219 320 219 L535 219 L720 1087 L610 1087 Q542 1087 518 1113.5 Q494 1140 506 1198 Q519 1257 553.5 1283 Q588 1309 657 1309 L956 1309 Q984 1309 997 1297.5 Q1010 1286 1006 1266 L783 219 Z " />
<glyph glyph-name="m" unicode="m" horiz-adv-x="1229" d="M859 856 Q911 901 971 924.5 Q1031 948 1094 948 Q1230 948 1273 867.5 Q1316 787 1276 598 L1195 219 L1209 219 Q1256 219 1273.5 191.5 Q1291 164 1280 111 Q1267 51 1237.5 25.5 Q1208 0 1149 0 L979 0 Q952 0 939 11.5 Q926 23 931 43 L1051 608 Q1065 675 1051 708 Q1037 741 997 741 Q947 741 910 696.5 Q873 652 855 569 L781 219 L796 219 Q842 219 860 191.5 Q878 164 867 111 Q854 51 824 25.5 Q794 0 735 0 L565 0 Q538 0 524 11.5 Q510 23 515 43 L635 608 Q649 675 636 708 Q623 741 583 741 Q533 741 495 696 Q457 651 439 569 L365 219 L380 219 Q427 219 445 192 Q463 165 451 111 Q438 51 408 25.5 Q378 0 319 0 L92 0 Q34 0 15 26 Q-4 52 7 111 Q18 164 47.5 191.5 Q77 219 124 219 L138 219 L241 705 L227 705 Q180 705 161.5 733.5 Q143 762 155 815 Q167 873 198 898.5 Q229 924 288 924 L423 924 Q464 924 475 907.5 Q486 891 476 844 Q524 895 581.5 921.5 Q639 948 703 948 Q761 948 799 925.5 Q837 903 859 856 Z " />
<glyph glyph-name="n" unicode="n" horiz-adv-x="1229" d="M1080 221 L1093 221 Q1149 221 1171.5 193.5 Q1194 166 1182 111 Q1170 52 1136 26 Q1102 0 1034 0 L788 0 Q721 0 697 26 Q673 52 685 111 Q697 166 731 193.5 Q765 221 822 221 L834 221 L896 510 Q921 630 898.5 680.5 Q876 731 798 731 Q715 731 649.5 670.5 Q584 610 563 510 L501 221 L513 221 Q570 221 592.5 193.5 Q615 166 603 111 Q591 52 556.5 26 Q522 0 455 0 L207 0 Q140 0 116.5 26 Q93 52 105 111 Q117 166 150.5 193.5 Q184 221 241 221 L253 221 L356 705 L339 705 Q285 705 263 732.5 Q241 760 252 813 Q265 872 299.5 898 Q334 924 403 924 L573 924 Q601 924 613 913 Q625 902 621 881 L604 803 Q665 875 744.5 911.5 Q824 948 918 948 Q1078 948 1136 851 Q1194 754 1151 555 L1080 221 Z " />
<glyph glyph-name="o" unicode="o" horiz-adv-x="1229" d="M770 735 Q653 735 561 658.5 Q469 582 444 463 Q418 343 477 264.5 Q536 186 653 186 Q770 186 862.5 264.5 Q955 343 981 463 Q1006 582 947 658.5 Q888 735 770 735 Z M815 946 Q1058 946 1180 810 Q1302 674 1256 461 Q1211 247 1031 111 Q851 -25 608 -25 Q366 -25 244 111 Q122 247 167 461 Q213 674 393.5 810 Q574 946 815 946 Z " />
<glyph glyph-name="p" unicode="p" horiz-adv-x="1229" d="M443 94 L386 -178 L513 -178 Q581 -178 605 -204 Q629 -230 616 -289 Q604 -347 569.5 -372 Q535 -397 466 -397 L42 -397 Q-26 -397 -48.5 -372.5 Q-71 -348 -59 -289 Q-46 -230 -12.5 -204 Q21 -178 89 -178 L148 -178 L335 705 L319 705 Q266 705 244 733 Q222 761 234 815 Q246 874 279.5 899 Q313 924 382 924 L536 924 Q565 924 576.5 913.5 Q588 903 584 883 L569 811 Q634 879 714 913.5 Q794 948 885 948 Q1090 948 1197 817 Q1304 686 1262 487 Q1218 279 1058 142.5 Q898 6 699 6 Q618 6 552 28.5 Q486 51 443 94 Z M811 735 Q712 735 632.5 662 Q553 589 528 475 Q504 361 552.5 288 Q601 215 700 215 Q799 215 879 288.5 Q959 362 983 475 Q1008 589 959.5 662 Q911 735 811 735 Z " />
<glyph glyph-name="q" unicode="q" horiz-adv-x="1229" d="M727 735 Q628 735 548.5 662 Q469 589 444 475 Q420 361 468.5 288 Q517 215 616 215 Q715 215 795 288.5 Q875 362 899 475 Q924 589 875.5 662 Q827 735 727 735 Z M1001 811 L1016 883 Q1020 903 1037 913.5 Q1054 924 1083 924 L1236 924 Q1305 924 1327.5 898.5 Q1350 873 1338 815 Q1326 761 1292.5 733 Q1259 705 1206 705 L1189 705 L1002 -178 L1062 -178 Q1129 -178 1152.5 -204 Q1176 -230 1163 -289 Q1151 -347 1117 -372 Q1083 -397 1015 -397 L591 -397 Q522 -397 499.5 -372.5 Q477 -348 489 -289 Q502 -229 536 -203.5 Q570 -178 638 -178 L765 -178 L822 94 Q761 51 686 28.5 Q611 6 529 6 Q331 6 230 142.5 Q129 279 173 487 Q215 686 376.5 817 Q538 948 744 948 Q834 948 899.5 913.5 Q965 879 1001 811 Z " />
<glyph glyph-name="r" unicode="r" horiz-adv-x="1229" d="M684 543 L615 219 L851 219 Q919 219 942 194 Q965 169 953 111 Q941 52 907 26 Q873 0 805 0 L246 0 Q177 0 153.5 26 Q130 52 142 111 Q154 169 188 194 Q222 219 292 219 L368 219 L471 705 L428 705 Q360 705 337 730.5 Q314 756 327 815 Q339 874 372 899 Q405 924 475 924 L688 924 Q715 924 727.5 912.5 Q740 901 736 881 L704 733 Q838 850 943 900 Q1048 950 1157 950 Q1256 950 1305 905.5 Q1354 861 1338 786 Q1325 728 1277 690.5 Q1229 653 1166 653 Q1121 653 1066.5 686 Q1012 719 988 719 Q940 719 866 676 Q792 633 684 543 Z " />
<glyph glyph-name="s" unicode="s" horiz-adv-x="1229" d="M352 14 Q322 -6 292.5 -16.5 Q263 -27 234 -27 Q191 -27 178.5 -4 Q166 19 179 82 L207 215 Q221 281 249 308.5 Q277 336 331 336 Q390 336 415 279 Q430 248 442 233 Q482 189 542 167 Q602 145 685 145 Q757 145 806 173 Q855 201 865 246 Q882 327 658 358 Q608 364 580 369 Q411 393 341 463.5 Q271 534 296 653 Q326 794 444.5 871 Q563 948 752 948 Q817 948 883.5 937.5 Q950 927 1017 905 Q1043 930 1069 942 Q1095 954 1124 954 Q1165 954 1181 928.5 Q1197 903 1187 852 L1160 729 Q1151 686 1124 662.5 Q1097 639 1057 639 Q1016 639 932 710.5 Q848 782 748 782 Q670 782 621.5 756.5 Q573 731 563 686 Q548 616 723 592 Q774 586 803 582 Q1022 549 1092.5 483.5 Q1163 418 1136 289 Q1104 138 975 55.5 Q846 -27 641 -27 Q561 -27 489 -16.5 Q417 -6 352 14 Z " />
<glyph glyph-name="t" unicode="t" horiz-adv-x="1229" d="M729 868 L1034 868 Q1103 868 1126.5 843 Q1150 818 1138 760 Q1126 701 1090.5 675 Q1055 649 987 649 L682 649 L628 393 Q605 285 629.5 245 Q654 205 737 205 Q815 205 930.5 250 Q1046 295 1082 295 Q1123 295 1145.5 262.5 Q1168 230 1159 184 Q1142 107 989 43.5 Q836 -20 659 -20 Q556 -20 484 8 Q412 36 378 88 Q354 128 352 184 Q350 240 377 371 L382 393 L436 649 L342 649 Q274 649 251.5 675 Q229 701 241 760 Q254 819 287 843.5 Q320 868 389 868 L483 868 L533 1102 Q547 1171 581.5 1199 Q616 1227 682 1227 Q748 1227 770.5 1199 Q793 1171 779 1102 L729 868 Z " />
<glyph glyph-name="u" unicode="u" horiz-adv-x="1229" d="M921 705 L905 705 Q851 705 829.5 733 Q808 761 820 815 Q832 874 865.5 899 Q899 924 968 924 L1157 924 Q1184 924 1196.5 912.5 Q1209 901 1205 881 L1064 219 L1080 219 Q1134 219 1156.5 191 Q1179 163 1168 111 Q1155 51 1121 25.5 Q1087 0 1018 0 L850 0 Q822 0 809 12 Q796 24 800 45 L816 121 Q753 49 676 13 Q599 -23 505 -23 Q344 -23 286.5 74 Q229 171 271 371 L342 705 L325 705 Q271 705 249 733 Q227 761 239 815 Q251 874 285 899 Q319 924 389 924 L577 924 Q604 924 615.5 912.5 Q627 901 623 881 L524 416 Q498 293 521.5 243 Q545 193 623 193 Q706 193 772.5 254.5 Q839 316 860 416 L921 705 Z " />
<glyph glyph-name="v" unicode="v" horiz-adv-x="1229" d="M587 705 L677 279 L956 705 L940 705 Q886 705 863.5 733 Q841 761 853 815 Q865 874 899 899 Q933 924 1003 924 L1238 924 Q1308 924 1331 898.5 Q1354 873 1342 815 Q1330 761 1296 733 Q1262 705 1208 705 L1191 705 L760 74 Q713 6 683 -9.5 Q653 -25 598 -25 Q498 -25 481 59 Q479 69 478 74 L333 705 L317 705 Q263 705 240.5 733 Q218 761 230 815 Q242 874 276.5 899 Q311 924 380 924 L634 924 Q703 924 726.5 898.5 Q750 873 738 815 Q726 761 691.5 733 Q657 705 604 705 L587 705 Z " />
<glyph glyph-name="w" unicode="w" horiz-adv-x="1229" d="M456 705 L432 213 L620 594 Q650 654 680 673 Q710 692 761 692 Q812 692 834 674 Q856 656 861 594 L891 213 L1071 705 L1054 705 Q1000 705 978 733 Q956 761 968 815 Q980 874 1014 899 Q1048 924 1118 924 L1353 924 Q1422 924 1445.5 898.5 Q1469 873 1457 815 Q1445 761 1410.5 733 Q1376 705 1323 705 L1306 705 L1047 74 Q1026 22 985 -1.5 Q944 -25 875 -25 Q807 -25 776 -1.5 Q745 22 740 74 L706 463 L519 74 Q496 24 451.5 -0.5 Q407 -25 340 -25 Q271 -25 241 -1.5 Q211 22 212 74 L219 705 L202 705 Q149 705 127.5 733 Q106 761 118 815 Q130 873 163.5 898.5 Q197 924 266 924 L503 924 Q572 924 594.5 898.5 Q617 873 605 815 Q593 761 559.5 733 Q526 705 473 705 L456 705 Z " />
<glyph glyph-name="x" unicode="x" horiz-adv-x="1229" d="M665 723 L745 598 L886 723 Q853 723 843 746.5 Q833 770 844 821 Q855 871 886 897.5 Q917 924 966 924 L1179 924 Q1246 924 1269.5 898 Q1293 872 1280 813 Q1269 758 1234.5 731.5 Q1200 705 1140 705 L1101 705 L844 477 L1039 221 L1062 221 Q1120 221 1144 193.5 Q1168 166 1156 111 Q1144 52 1108 26 Q1072 0 1004 0 L762 0 Q713 0 693 26.5 Q673 53 683 102 Q694 154 714.5 177.5 Q735 201 769 201 L777 201 L680 342 L527 201 L531 201 Q567 201 578.5 178.5 Q590 156 580 109 Q568 53 538 26.5 Q508 0 457 0 L244 0 Q176 0 153 26 Q130 52 142 111 Q154 166 187 193.5 Q220 221 275 221 L294 221 L582 461 L405 705 L374 705 Q315 705 291 732 Q267 759 278 813 Q291 872 326.5 898 Q362 924 429 924 L671 924 Q722 924 740.5 897 Q759 870 748 815 Q738 769 717.5 746 Q697 723 665 723 Z " />
<glyph glyph-name="y" unicode="y" horiz-adv-x="1229" d="M587 705 L677 279 L956 705 L940 705 Q886 705 863.5 733 Q841 761 853 815 Q865 874 899 899 Q933 924 1003 924 L1238 924 Q1308 924 1331 898.5 Q1354 873 1342 815 Q1330 761 1296 733 Q1262 705 1208 705 L1191 705 L593 -178 L638 -178 Q706 -178 730 -204 Q754 -230 741 -289 Q729 -347 694 -373 Q659 -399 591 -399 L153 -399 Q84 -399 60.5 -373.5 Q37 -348 49 -289 Q62 -230 96.5 -204 Q131 -178 200 -178 L355 -178 L491 23 L333 705 L317 705 Q263 705 240.5 733 Q218 761 230 815 Q242 874 276.5 899 Q311 924 380 924 L634 924 Q703 924 726.5 898.5 Q750 873 738 815 Q726 761 691.5 733 Q657 705 604 705 L587 705 Z " />
<glyph glyph-name="z" unicode="z" horiz-adv-x="1229" d="M531 201 L857 201 L878 270 Q900 347 927.5 371 Q955 395 1009 395 Q1061 395 1078 366.5 Q1095 338 1081 270 L1050 123 Q1033 44 1009.5 22 Q986 0 909 0 L287 0 Q227 0 201.5 25.5 Q176 51 187 100 Q193 128 212 157 Q231 186 259 211 L853 723 L546 723 L536 676 Q523 612 491.5 580.5 Q460 549 409 549 Q353 549 335.5 577 Q318 605 333 676 L360 803 Q377 881 400 902.5 Q423 924 501 924 L1091 924 Q1153 924 1178 898 Q1203 872 1192 819 Q1186 793 1167 766 Q1148 739 1116 711 L531 201 Z " />
<glyph glyph-name="braceleft" unicode="&#x7b;" horiz-adv-x="1229" d="M713 461 Q779 412 794 347 Q809 282 776 123 L744 -25 Q723 -124 734 -149.5 Q745 -175 789 -184 Q800 -187 821 -190 Q931 -207 911 -301 Q901 -347 862 -375 Q823 -403 768 -403 Q698 -403 637.5 -380 Q577 -357 542 -317 Q504 -274 499 -206 Q494 -138 529 27 L554 143 Q592 323 432 350 Q425 352 422 352 Q376 360 358.5 386 Q341 412 351 461 Q361 504 385.5 529 Q410 554 456 565 Q476 571 513 578 Q652 603 688 776 L714 895 Q746 1048 774 1109.5 Q802 1171 848 1217 Q901 1268 977.5 1296.5 Q1054 1325 1139 1325 Q1192 1325 1218 1297.5 Q1244 1270 1235 1225 Q1215 1131 1090 1112 Q1079 1111 1073 1110 Q1022 1102 997 1073.5 Q972 1045 950 944 L919 797 Q887 647 842 577 Q797 507 713 461 Z " />
<glyph glyph-name="bar" unicode="&#x7c;" horiz-adv-x="1229" d="M854 1583 L1047 1583 L603 -504 L410 -504 L854 1583 Z " />
<glyph glyph-name="braceright" unicode="&#x7d;" horiz-adv-x="1229" d="M709 461 Q646 507 631 577 Q616 647 648 797 L679 944 L693 1008 Q703 1055 684 1079.5 Q665 1104 611 1112 Q540 1122 521 1146 Q502 1170 513 1219 Q523 1269 559.5 1297 Q596 1325 652 1325 Q726 1325 785.5 1303 Q845 1281 879 1241 Q919 1196 924.5 1129.5 Q930 1063 895 895 L869 776 Q832 602 964 575 Q996 570 1013 565 Q1052 554 1066.5 528.5 Q1081 503 1072 461 Q1063 417 1036.5 390.5 Q1010 364 966 354 Q949 351 919 346 Q772 319 735 143 L710 27 Q677 -131 649 -192.5 Q621 -254 575 -297 Q526 -344 446.5 -373.5 Q367 -403 287 -403 Q231 -403 205.5 -374.5 Q180 -346 191 -295 Q201 -248 229.5 -224 Q258 -200 335 -188 Q397 -179 424 -155 Q451 -131 462 -78 L473 -25 L505 123 Q538 282 581 347 Q624 412 709 461 Z " />
<glyph glyph-name="asciitilde" unicode="&#x7e;" horiz-adv-x="1229" d="M226 586 Q241 655 347.5 716.5 Q454 778 571 778 Q647 778 779 735 Q911 692 970 692 Q1032 692 1109 728 Q1186 764 1211 764 Q1246 764 1262 740.5 Q1278 717 1270 678 Q1255 607 1149 546 Q1043 485 928 485 Q849 485 716.5 528 Q584 571 527 571 Q465 571 387 534.5 Q309 498 285 498 Q249 498 233 521.5 Q217 545 226 586 Z " />
<glyph glyph-name="Adieresis" unicode="&#xc4;" horiz-adv-x="1229" d="M1164 219 L1181 219 Q1235 219 1257 191.5 Q1279 164 1268 111 Q1256 52 1221 26 Q1186 0 1118 0 L817 0 Q748 0 724 25.5 Q700 51 713 111 Q725 169 759.5 194 Q794 219 863 219 L898 219 L882 336 L450 336 L382 219 L417 219 Q485 219 509 193.5 Q533 168 521 111 Q509 52 474 26 Q439 0 371 0 L113 0 Q44 0 21 26 Q-2 52 9 111 Q20 164 54 191.5 Q88 219 142 219 L159 219 L586 965 L506 965 Q438 965 414 991 Q390 1017 402 1075 Q415 1134 450 1160 Q485 1186 553 1186 L928 1186 Q1017 1186 1032 1090 L1032 1087 L1164 219 Z M799 965 L564 543 L854 543 L799 965 Z M1151 1589 Q1202 1589 1231 1551 Q1260 1513 1249 1462 Q1237 1407 1194 1371 Q1151 1335 1097 1335 Q1043 1335 1013 1371.5 Q983 1408 995 1462 Q1005 1511 1053 1550 Q1101 1589 1151 1589 Z M656 1589 Q706 1589 735.5 1551 Q765 1513 754 1462 Q742 1407 699 1371 Q656 1335 602 1335 Q548 1335 518 1371.5 Q488 1408 500 1462 Q510 1511 557.5 1550 Q605 1589 656 1589 Z " />
<glyph glyph-name="Aring" unicode="&#xc5;" horiz-adv-x="1229" d="M1164 219 L1181 219 Q1235 219 1257 191.5 Q1279 164 1268 111 Q1256 52 1221 26 Q1186 0 1118 0 L817 0 Q748 0 724 25.5 Q700 51 713 111 Q725 169 759.5 194 Q794 219 863 219 L898 219 L882 336 L450 336 L382 219 L417 219 Q485 219 509 193.5 Q533 168 521 111 Q509 52 474 26 Q439 0 371 0 L113 0 Q44 0 21 26 Q-2 52 9 111 Q20 164 54 191.5 Q88 219 142 219 L159 219 L586 965 L506 965 Q438 965 414 991 Q390 1017 402 1075 Q415 1134 450 1160 Q485 1186 553 1186 L928 1186 Q1017 1186 1032 1090 L1032 1087 L1164 219 Z M799 965 L564 543 L854 543 L799 965 Z M925 1649 Q873 1649 828 1612.5 Q783 1576 772 1524 Q761 1470 789.5 1432.5 Q818 1395 871 1395 Q923 1395 968.5 1433 Q1014 1471 1025 1524 Q1036 1576 1007 1612.5 Q978 1649 925 1649 Z M955 1792 Q1068 1792 1130.5 1713 Q1193 1634 1169 1522 Q1145 1409 1049 1330 Q953 1251 840 1251 Q727 1251 665.5 1329.5 Q604 1408 628 1522 Q652 1634 747.5 1713 Q843 1792 955 1792 Z " />
<glyph glyph-name="Ccedilla" unicode="&#xc7;" horiz-adv-x="1229" d="M1346 1104 L1293 844 Q1278 775 1250.5 751 Q1223 727 1164 727 Q1122 727 1104 747 Q1086 767 1081 821 Q1075 916 1027 957.5 Q979 999 878 999 Q724 999 620 895 Q516 791 474 594 Q432 398 492.5 293 Q553 188 707 188 Q812 188 953.5 258 Q1095 328 1128 328 Q1167 328 1186.5 295 Q1206 262 1196 213 Q1177 125 1012 50 Q847 -25 629 -33 L608 -133 Q612 -132 621 -131 Q666 -125 682 -125 Q763 -125 804.5 -173 Q846 -221 829 -297 Q811 -383 736.5 -430 Q662 -477 545 -477 Q442 -477 361 -442 Q280 -407 289 -365 Q293 -348 307 -338 Q321 -328 342 -328 Q353 -328 413.5 -353.5 Q474 -379 529 -379 Q575 -379 602.5 -358 Q630 -337 639 -295 Q647 -258 625 -238.5 Q603 -219 555 -219 Q548 -219 535 -220.5 Q522 -222 503 -225 L545 -25 Q331 6 232 174.5 Q133 343 185 588 Q244 861 446 1040 Q648 1219 900 1219 Q971 1219 1036.5 1203 Q1102 1187 1173 1153 Q1200 1189 1224.5 1204 Q1249 1219 1281 1219 Q1330 1219 1345 1193 Q1360 1167 1346 1104 Z " />
<glyph glyph-name="Eacute" unicode="&#xc9;" horiz-adv-x="1229" d="M1108 975 L643 975 L588 719 L764 719 L767 731 Q779 788 810 816 Q841 844 892 844 Q937 844 960 818.5 Q983 793 975 754 Q974 752 973 741 Q972 730 969 719 L925 512 Q911 445 881 416 Q851 387 797 387 Q746 387 725.5 414 Q705 441 717 494 L720 512 L544 512 L481 213 L946 213 L971 332 Q985 399 1017 428 Q1049 457 1107 457 Q1164 457 1182.5 428.5 Q1201 400 1186 332 L1135 90 Q1123 36 1098.5 18 Q1074 0 1012 0 L193 0 Q127 0 104 26 Q81 52 93 111 Q104 164 137 191.5 Q170 219 222 219 L239 219 L398 965 L381 965 Q330 965 308.5 993.5 Q287 1022 298 1075 Q310 1133 345 1159.5 Q380 1186 445 1186 L1264 1186 Q1325 1186 1342.5 1167.5 Q1360 1149 1348 1094 L1300 870 Q1286 802 1254.5 772.5 Q1223 743 1167 743 Q1109 743 1090 773 Q1071 803 1085 870 L1108 975 Z M734 1280 L716 1357 L1253 1636 Q1256 1638 1261 1639 Q1266 1640 1270 1640 Q1283 1640 1293.5 1632 Q1304 1624 1308 1609 L1331 1523 Q1331 1522 1332 1519 Q1332 1512 1331 1507 Q1328 1493 1319 1482 Q1310 1471 1296 1466 L734 1280 Z " />
<glyph glyph-name="Ntilde" unicode="&#xd1;" horiz-adv-x="1229" d="M933 414 L1051 965 L996 965 Q930 965 907 991 Q884 1017 896 1075 Q908 1133 942.5 1159.5 Q977 1186 1043 1186 L1327 1186 Q1392 1186 1415 1159.5 Q1438 1133 1426 1075 Q1415 1022 1381.5 993.5 Q1348 965 1297 965 L1280 965 L1087 57 Q1077 10 1064.5 -2 Q1052 -14 1017 -14 L917 -14 Q869 -14 851.5 -4 Q834 6 825 31 L564 762 L449 219 L507 219 Q572 219 594.5 194 Q617 169 605 111 Q593 52 559 26 Q525 0 461 0 L174 0 Q109 0 85.5 26 Q62 52 74 111 Q85 164 118 191.5 Q151 219 204 219 L220 219 L379 965 L363 965 Q312 965 290 993.5 Q268 1022 279 1075 Q291 1133 326.5 1159.5 Q362 1186 426 1186 L590 1186 Q649 1186 666.5 1170.5 Q684 1155 700 1108 L933 414 Z M948 1386 L841 1417 Q819 1423 798 1426 Q777 1429 760 1429 Q716 1429 669.5 1395.5 Q623 1362 605 1362 Q585 1362 577.5 1372 Q570 1382 574 1403 Q587 1462 668 1516 Q749 1570 841 1570 Q871 1570 900.5 1566.5 Q930 1563 959 1556 L1065 1525 Q1098 1517 1114.5 1514 Q1131 1511 1146 1511 Q1190 1511 1236.5 1546 Q1283 1581 1300 1581 Q1320 1581 1328 1570 Q1336 1559 1332 1538 Q1319 1478 1238.5 1424 Q1158 1370 1065 1370 Q1038 1370 1009 1374 Q980 1378 948 1386 Z " />
<glyph glyph-name="Odieresis" unicode="&#xd6;" horiz-adv-x="1229" d="M823 987 Q694 987 598.5 883 Q503 779 464 594 Q424 409 476 304 Q528 199 656 199 Q785 199 881 303.5 Q977 408 1017 594 Q1056 779 1004.5 883 Q953 987 823 987 Z M873 1219 Q1119 1219 1240.5 1043 Q1362 867 1304 594 Q1245 319 1050 144 Q855 -31 607 -31 Q362 -31 239.5 145.5 Q117 322 175 594 Q233 868 429 1043.5 Q625 1219 873 1219 Z M1201 1589 Q1252 1589 1281 1551 Q1310 1513 1299 1462 Q1287 1407 1244 1371 Q1201 1335 1147 1335 Q1093 1335 1063 1371.5 Q1033 1408 1045 1462 Q1055 1511 1103 1550 Q1151 1589 1201 1589 Z M706 1589 Q756 1589 785.5 1551 Q815 1513 804 1462 Q792 1407 749 1371 Q706 1335 652 1335 Q598 1335 568 1371.5 Q538 1408 550 1462 Q560 1511 607.5 1550 Q655 1589 706 1589 Z " />
<glyph glyph-name="Udieresis" unicode="&#xdc;" horiz-adv-x="1229" d="M613 965 L501 442 Q472 303 508 244.5 Q544 186 657 186 Q770 186 831.5 245 Q893 304 922 442 L1034 965 L1018 965 Q965 965 943.5 993 Q922 1021 933 1075 Q946 1134 980 1160 Q1014 1186 1081 1186 L1331 1186 Q1399 1186 1422 1160 Q1445 1134 1432 1075 Q1421 1021 1387.5 993 Q1354 965 1301 965 L1284 965 L1173 446 Q1120 194 987.5 81.5 Q855 -31 614 -31 Q362 -31 276 79.5 Q190 190 244 446 L355 965 L338 965 Q284 965 262 993 Q240 1021 251 1075 Q264 1134 299 1160 Q334 1186 402 1186 L660 1186 Q727 1186 751.5 1160 Q776 1134 763 1075 Q752 1021 717.5 993 Q683 965 629 965 L613 965 Z M1201 1589 Q1252 1589 1281 1551 Q1310 1513 1299 1462 Q1287 1407 1244 1371 Q1201 1335 1147 1335 Q1093 1335 1063 1371.5 Q1033 1408 1045 1462 Q1055 1511 1103 1550 Q1151 1589 1201 1589 Z M706 1589 Q756 1589 785.5 1551 Q815 1513 804 1462 Q792 1407 749 1371 Q706 1335 652 1335 Q598 1335 568 1371.5 Q538 1408 550 1462 Q560 1511 607.5 1550 Q655 1589 706 1589 Z " />
<glyph glyph-name="aacute" unicode="&#xe1;" horiz-adv-x="1229" d="M1068 219 L1084 219 Q1138 219 1160.5 190.5 Q1183 162 1172 109 Q1159 51 1124.5 25.5 Q1090 0 1022 0 L928 0 Q878 0 857.5 19 Q837 38 831 88 Q737 33 637.5 4 Q538 -25 443 -25 Q282 -25 207 55 Q132 135 162 274 Q194 424 330.5 507 Q467 590 682 590 Q730 590 783 585 Q836 580 900 569 L904 588 Q924 678 890.5 725 Q857 772 772 772 Q706 772 593 723 Q480 674 432 674 Q385 674 361.5 701.5 Q338 729 348 774 Q365 855 493.5 902.5 Q622 950 826 950 Q1039 950 1114 868 Q1189 786 1147 590 L1068 219 Z M867 412 Q819 423 778.5 428.5 Q738 434 702 434 Q592 434 521.5 397 Q451 360 437 295 Q425 237 458.5 206.5 Q492 176 567 176 Q636 176 701 196 Q766 216 834 258 L867 412 Z M627 1010 L609 1087 L1146 1366 Q1149 1368 1154 1369 Q1159 1370 1163 1370 Q1176 1370 1186.5 1362 Q1197 1354 1201 1339 L1224 1253 Q1224 1252 1225 1249 Q1225 1242 1224 1237 Q1221 1223 1212 1212 Q1203 1201 1189 1196 L627 1010 Z " />
<glyph glyph-name="agrave" unicode="&#xe0;" horiz-adv-x="1229" d="M1068 219 L1084 219 Q1138 219 1160.5 190.5 Q1183 162 1172 109 Q1159 51 1124.5 25.5 Q1090 0 1022 0 L928 0 Q878 0 857.5 19 Q837 38 831 88 Q737 33 637.5 4 Q538 -25 443 -25 Q282 -25 207 55 Q132 135 162 274 Q194 424 330.5 507 Q467 590 682 590 Q730 590 783 585 Q836 580 900 569 L904 588 Q924 678 890.5 725 Q857 772 772 772 Q706 772 593 723 Q480 674 432 674 Q385 674 361.5 701.5 Q338 729 348 774 Q365 855 493.5 902.5 Q622 950 826 950 Q1039 950 1114 868 Q1189 786 1147 590 L1068 219 Z M867 412 Q819 423 778.5 428.5 Q738 434 702 434 Q592 434 521.5 397 Q451 360 437 295 Q425 237 458.5 206.5 Q492 176 567 176 Q636 176 701 196 Q766 216 834 258 L867 412 Z M1039 1087 L988 1010 L505 1196 Q494 1201 489 1212 Q484 1223 487 1237 Q488 1242 492 1249 Q494 1252 495 1253 L554 1339 Q564 1354 578 1362 Q592 1370 606 1370 Q610 1370 613.5 1369 Q617 1368 621 1366 L1039 1087 Z " />
<glyph glyph-name="acircumflex" unicode="&#xe2;" horiz-adv-x="1229" d="M1068 219 L1084 219 Q1138 219 1160.5 190.5 Q1183 162 1172 109 Q1159 51 1124.5 25.5 Q1090 0 1022 0 L928 0 Q878 0 857.5 19 Q837 38 831 88 Q737 33 637.5 4 Q538 -25 443 -25 Q282 -25 207 55 Q132 135 162 274 Q194 424 330.5 507 Q467 590 682 590 Q730 590 783 585 Q836 580 900 569 L904 588 Q924 678 890.5 725 Q857 772 772 772 Q706 772 593 723 Q480 674 432 674 Q385 674 361.5 701.5 Q338 729 348 774 Q365 855 493.5 902.5 Q622 950 826 950 Q1039 950 1114 868 Q1189 786 1147 590 L1068 219 Z M867 412 Q819 423 778.5 428.5 Q738 434 702 434 Q592 434 521.5 397 Q451 360 437 295 Q425 237 458.5 206.5 Q492 176 567 176 Q636 176 701 196 Q766 216 834 258 L867 412 Z M843 1178 L528 1044 Q520 1042 516.5 1041 Q513 1040 511 1040 Q493 1040 481.5 1055.5 Q470 1071 474 1090 Q476 1098 481 1105 Q486 1112 492 1116 L815 1335 Q829 1345 845.5 1349.5 Q862 1354 880 1354 Q899 1354 913.5 1349.5 Q928 1345 938 1335 L1168 1116 Q1173 1112 1175 1105.5 Q1177 1099 1176 1092 Q1172 1073 1153.5 1056.5 Q1135 1040 1118 1040 Q1113 1040 1105 1042 Q1102 1044 1101 1044 L843 1178 Z " />
<glyph glyph-name="adieresis" unicode="&#xe4;" horiz-adv-x="1229" d="M1068 219 L1084 219 Q1138 219 1160.5 190.5 Q1183 162 1172 109 Q1159 51 1124.5 25.5 Q1090 0 1022 0 L928 0 Q878 0 857.5 19 Q837 38 831 88 Q737 33 637.5 4 Q538 -25 443 -25 Q282 -25 207 55 Q132 135 162 274 Q194 424 330.5 507 Q467 590 682 590 Q730 590 783 585 Q836 580 900 569 L904 588 Q924 678 890.5 725 Q857 772 772 772 Q706 772 593 723 Q480 674 432 674 Q385 674 361.5 701.5 Q338 729 348 774 Q365 855 493.5 902.5 Q622 950 826 950 Q1039 950 1114 868 Q1189 786 1147 590 L1068 219 Z M867 412 Q819 423 778.5 428.5 Q738 434 702 434 Q592 434 521.5 397 Q451 360 437 295 Q425 237 458.5 206.5 Q492 176 567 176 Q636 176 701 196 Q766 216 834 258 L867 412 Z M1123 1319 Q1174 1319 1203 1281 Q1232 1243 1221 1192 Q1209 1137 1166 1101 Q1123 1065 1069 1065 Q1015 1065 985 1101.5 Q955 1138 967 1192 Q977 1241 1025 1280 Q1073 1319 1123 1319 Z M628 1319 Q678 1319 707.5 1281 Q737 1243 726 1192 Q714 1137 671 1101 Q628 1065 574 1065 Q520 1065 490 1101.5 Q460 1138 472 1192 Q482 1241 529.5 1280 Q577 1319 628 1319 Z " />
<glyph glyph-name="atilde" unicode="&#xe3;" horiz-adv-x="1229" d="M1068 219 L1084 219 Q1138 219 1160.5 190.5 Q1183 162 1172 109 Q1159 51 1124.5 25.5 Q1090 0 1022 0 L928 0 Q878 0 857.5 19 Q837 38 831 88 Q737 33 637.5 4 Q538 -25 443 -25 Q282 -25 207 55 Q132 135 162 274 Q194 424 330.5 507 Q467 590 682 590 Q730 590 783 585 Q836 580 900 569 L904 588 Q924 678 890.5 725 Q857 772 772 772 Q706 772 593 723 Q480 674 432 674 Q385 674 361.5 701.5 Q338 729 348 774 Q365 855 493.5 902.5 Q622 950 826 950 Q1039 950 1114 868 Q1189 786 1147 590 L1068 219 Z M867 412 Q819 423 778.5 428.5 Q738 434 702 434 Q592 434 521.5 397 Q451 360 437 295 Q425 237 458.5 206.5 Q492 176 567 176 Q636 176 701 196 Q766 216 834 258 L867 412 Z M843 1116 L736 1147 Q714 1153 693 1156 Q672 1159 655 1159 Q611 1159 564.5 1125.5 Q518 1092 500 1092 Q480 1092 472.5 1102 Q465 1112 469 1133 Q482 1192 563 1246 Q644 1300 736 1300 Q766 1300 795.5 1296.5 Q825 1293 854 1286 L960 1255 Q993 1247 1009.5 1244 Q1026 1241 1041 1241 Q1085 1241 1131.5 1276 Q1178 1311 1195 1311 Q1215 1311 1223 1300 Q1231 1289 1227 1268 Q1214 1208 1133.5 1154 Q1053 1100 960 1100 Q933 1100 904 1104 Q875 1108 843 1116 Z " />
<glyph glyph-name="aring" unicode="&#xe5;" horiz-adv-x="1229" d="M1068 219 L1084 219 Q1138 219 1160.5 190.5 Q1183 162 1172 109 Q1159 51 1124.5 25.5 Q1090 0 1022 0 L928 0 Q878 0 857.5 19 Q837 38 831 88 Q737 33 637.5 4 Q538 -25 443 -25 Q282 -25 207 55 Q132 135 162 274 Q194 424 330.5 507 Q467 590 682 590 Q730 590 783 585 Q836 580 900 569 L904 588 Q924 678 890.5 725 Q857 772 772 772 Q706 772 593 723 Q480 674 432 674 Q385 674 361.5 701.5 Q338 729 348 774 Q365 855 493.5 902.5 Q622 950 826 950 Q1039 950 1114 868 Q1189 786 1147 590 L1068 219 Z M867 412 Q819 423 778.5 428.5 Q738 434 702 434 Q592 434 521.5 397 Q451 360 437 295 Q425 237 458.5 206.5 Q492 176 567 176 Q636 176 701 196 Q766 216 834 258 L867 412 Z M912 1421 Q860 1421 814.5 1384.5 Q769 1348 758 1296 Q746 1242 775.5 1204.5 Q805 1167 858 1167 Q910 1167 955.5 1205.5 Q1001 1244 1012 1296 Q1023 1348 994 1384.5 Q965 1421 912 1421 Z M942 1565 Q1054 1565 1116.5 1485.5 Q1179 1406 1156 1294 Q1132 1181 1036 1102.5 Q940 1024 827 1024 Q714 1024 652.5 1102.5 Q591 1181 615 1294 Q638 1406 734 1485.5 Q830 1565 942 1565 Z " />
<glyph glyph-name="ccedilla" unicode="&#xe7;" horiz-adv-x="1229" d="M1284 803 L1249 639 Q1236 578 1205 549 Q1174 520 1122 520 Q1085 520 1063.5 537 Q1042 554 1024 602 Q999 670 941 702.5 Q883 735 789 735 Q672 735 581 658.5 Q490 582 465 463 Q438 338 499 262 Q560 186 690 186 Q808 186 938.5 251.5 Q1069 317 1095 317 Q1132 317 1150.5 288.5 Q1169 260 1160 217 Q1140 124 992 55 Q844 -14 632 -23 L608 -133 Q612 -132 621 -131 Q666 -125 682 -125 Q763 -125 804.5 -173 Q846 -221 829 -297 Q811 -383 736.5 -430 Q662 -477 545 -477 Q442 -477 362 -442 Q282 -407 291 -365 Q295 -348 308.5 -338 Q322 -328 342 -328 Q353 -328 413.5 -353.5 Q474 -379 529 -379 Q575 -379 602.5 -358 Q630 -337 639 -295 Q647 -258 625 -238.5 Q603 -219 555 -219 Q548 -219 535 -220.5 Q522 -222 503 -225 L546 -20 Q341 7 243 138.5 Q145 270 185 461 Q230 670 409.5 809 Q589 948 817 948 Q894 948 963 929 Q1032 910 1095 870 Q1116 909 1145.5 928.5 Q1175 948 1215 948 Q1269 948 1285 915.5 Q1301 883 1284 803 Z " />
<glyph glyph-name="eacute" unicode="&#xe9;" horiz-adv-x="1229" d="M427 403 Q430 292 492.5 237 Q555 182 679 182 Q803 182 937 242.5 Q1071 303 1096 303 Q1133 303 1150.5 275.5 Q1168 248 1159 205 Q1139 111 985.5 43 Q832 -25 627 -25 Q385 -25 262.5 111 Q140 247 185 461 Q231 674 411.5 810 Q592 946 834 946 Q1050 946 1164.5 818.5 Q1279 691 1240 506 Q1228 447 1194.5 425 Q1161 403 1072 403 L427 403 Z M999 559 Q1002 652 942.5 703 Q883 754 770 754 Q661 754 584 705.5 Q507 657 460 559 L999 559 Z M668 1010 L650 1087 L1187 1366 Q1190 1368 1195 1369 Q1200 1370 1204 1370 Q1217 1370 1227.5 1362 Q1238 1354 1242 1339 L1265 1253 Q1265 1252 1266 1249 Q1266 1242 1265 1237 Q1262 1223 1253 1212 Q1244 1201 1230 1196 L668 1010 Z " />
<glyph glyph-name="egrave" unicode="&#xe8;" horiz-adv-x="1229" d="M427 403 Q430 292 492.5 237 Q555 182 679 182 Q803 182 937 242.5 Q1071 303 1096 303 Q1133 303 1150.5 275.5 Q1168 248 1159 205 Q1139 111 985.5 43 Q832 -25 627 -25 Q385 -25 262.5 111 Q140 247 185 461 Q231 674 411.5 810 Q592 946 834 946 Q1050 946 1164.5 818.5 Q1279 691 1240 506 Q1228 447 1194.5 425 Q1161 403 1072 403 L427 403 Z M999 559 Q1002 652 942.5 703 Q883 754 770 754 Q661 754 584 705.5 Q507 657 460 559 L999 559 Z M1080 1087 L1029 1010 L546 1196 Q535 1201 530 1212 Q525 1223 528 1237 Q529 1242 533 1249 Q535 1252 536 1253 L595 1339 Q605 1354 619 1362 Q633 1370 647 1370 Q651 1370 654.5 1369 Q658 1368 662 1366 L1080 1087 Z " />
<glyph glyph-name="ecircumflex" unicode="&#xea;" horiz-adv-x="1229" d="M427 403 Q430 292 492.5 237 Q555 182 679 182 Q803 182 937 242.5 Q1071 303 1096 303 Q1133 303 1150.5 275.5 Q1168 248 1159 205 Q1139 111 985.5 43 Q832 -25 627 -25 Q385 -25 262.5 111 Q140 247 185 461 Q231 674 411.5 810 Q592 946 834 946 Q1050 946 1164.5 818.5 Q1279 691 1240 506 Q1228 447 1194.5 425 Q1161 403 1072 403 L427 403 Z M999 559 Q1002 652 942.5 703 Q883 754 770 754 Q661 754 584 705.5 Q507 657 460 559 L999 559 Z M884 1178 L569 1044 Q561 1042 557.5 1041 Q554 1040 552 1040 Q534 1040 522.5 1055.5 Q511 1071 515 1090 Q517 1098 522 1105 Q527 1112 533 1116 L856 1335 Q870 1345 886.5 1349.5 Q903 1354 921 1354 Q940 1354 954.5 1349.5 Q969 1345 979 1335 L1209 1116 Q1214 1112 1216 1105.5 Q1218 1099 1217 1092 Q1213 1073 1194.5 1056.5 Q1176 1040 1159 1040 Q1154 1040 1146 1042 Q1143 1044 1142 1044 L884 1178 Z " />
<glyph glyph-name="edieresis" unicode="&#xeb;" horiz-adv-x="1229" d="M427 403 Q430 292 492.5 237 Q555 182 679 182 Q803 182 937 242.5 Q1071 303 1096 303 Q1133 303 1150.5 275.5 Q1168 248 1159 205 Q1139 111 985.5 43 Q832 -25 627 -25 Q385 -25 262.5 111 Q140 247 185 461 Q231 674 411.5 810 Q592 946 834 946 Q1050 946 1164.5 818.5 Q1279 691 1240 506 Q1228 447 1194.5 425 Q1161 403 1072 403 L427 403 Z M999 559 Q1002 652 942.5 703 Q883 754 770 754 Q661 754 584 705.5 Q507 657 460 559 L999 559 Z M1164 1319 Q1215 1319 1244 1281 Q1273 1243 1262 1192 Q1250 1137 1207 1101 Q1164 1065 1110 1065 Q1056 1065 1026 1101.5 Q996 1138 1008 1192 Q1018 1241 1066 1280 Q1114 1319 1164 1319 Z M669 1319 Q719 1319 748.5 1281 Q778 1243 767 1192 Q755 1137 712 1101 Q669 1065 615 1065 Q561 1065 531 1101.5 Q501 1138 513 1192 Q523 1241 570.5 1280 Q618 1319 669 1319 Z " />
<glyph glyph-name="iacute" unicode="&#xed;" horiz-adv-x="1229" d="M800 219 L1015 219 Q1084 219 1107.5 194 Q1131 169 1119 111 Q1107 52 1072 26 Q1037 0 969 0 L293 0 Q225 0 201 26 Q177 52 189 111 Q201 169 235 194 Q269 219 339 219 L554 219 L657 705 L544 705 Q477 705 453.5 730.5 Q430 756 443 815 Q455 874 488.5 899 Q522 924 591 924 L892 924 Q920 924 932.5 912.5 Q945 901 941 881 L800 219 Z M599 1010 L581 1087 L1118 1366 Q1121 1368 1126 1369 Q1131 1370 1135 1370 Q1148 1370 1158.5 1362 Q1169 1354 1173 1339 L1196 1253 Q1196 1252 1197 1249 Q1197 1242 1196 1237 Q1193 1223 1184 1212 Q1175 1201 1161 1196 L599 1010 Z " />
<glyph glyph-name="igrave" unicode="&#xec;" horiz-adv-x="1229" d="M800 219 L1015 219 Q1084 219 1107.5 194 Q1131 169 1119 111 Q1107 52 1072 26 Q1037 0 969 0 L293 0 Q225 0 201 26 Q177 52 189 111 Q201 169 235 194 Q269 219 339 219 L554 219 L657 705 L544 705 Q477 705 453.5 730.5 Q430 756 443 815 Q455 874 488.5 899 Q522 924 591 924 L892 924 Q920 924 932.5 912.5 Q945 901 941 881 L800 219 Z M1011 1087 L960 1010 L477 1196 Q466 1201 461 1212 Q456 1223 459 1237 Q460 1242 464 1249 Q466 1252 467 1253 L526 1339 Q536 1354 550 1362 Q564 1370 578 1370 Q582 1370 585.5 1369 Q589 1368 593 1366 L1011 1087 Z " />
<glyph glyph-name="icircumflex" unicode="&#xee;" horiz-adv-x="1229" d="M800 219 L1015 219 Q1084 219 1107.5 194 Q1131 169 1119 111 Q1107 52 1072 26 Q1037 0 969 0 L293 0 Q225 0 201 26 Q177 52 189 111 Q201 169 235 194 Q269 219 339 219 L554 219 L657 705 L544 705 Q477 705 453.5 730.5 Q430 756 443 815 Q455 874 488.5 899 Q522 924 591 924 L892 924 Q920 924 932.5 912.5 Q945 901 941 881 L800 219 Z M815 1178 L500 1044 Q492 1042 488.5 1041 Q485 1040 483 1040 Q465 1040 453.5 1055.5 Q442 1071 446 1090 Q448 1098 453 1105 Q458 1112 464 1116 L787 1335 Q801 1345 817.5 1349.5 Q834 1354 852 1354 Q871 1354 885.5 1349.5 Q900 1345 910 1335 L1140 1116 Q1145 1112 1147 1105.5 Q1149 1099 1148 1092 Q1144 1073 1125.5 1056.5 Q1107 1040 1090 1040 Q1085 1040 1077 1042 Q1074 1044 1073 1044 L815 1178 Z " />
<glyph glyph-name="idieresis" unicode="&#xef;" horiz-adv-x="1229" d="M800 219 L1015 219 Q1084 219 1107.5 194 Q1131 169 1119 111 Q1107 52 1072 26 Q1037 0 969 0 L293 0 Q225 0 201 26 Q177 52 189 111 Q201 169 235 194 Q269 219 339 219 L554 219 L657 705 L544 705 Q477 705 453.5 730.5 Q430 756 443 815 Q455 874 488.5 899 Q522 924 591 924 L892 924 Q920 924 932.5 912.5 Q945 901 941 881 L800 219 Z M1095 1319 Q1146 1319 1175 1281 Q1204 1243 1193 1192 Q1181 1137 1138 1101 Q1095 1065 1041 1065 Q987 1065 957 1101.5 Q927 1138 939 1192 Q949 1241 997 1280 Q1045 1319 1095 1319 Z M600 1319 Q650 1319 679.5 1281 Q709 1243 698 1192 Q686 1137 643 1101 Q600 1065 546 1065 Q492 1065 462 1101.5 Q432 1138 444 1192 Q454 1241 501.5 1280 Q549 1319 600 1319 Z " />
<glyph glyph-name="ntilde" unicode="&#xf1;" horiz-adv-x="1229" d="M1080 221 L1093 221 Q1149 221 1171.5 193.5 Q1194 166 1182 111 Q1170 52 1136 26 Q1102 0 1034 0 L788 0 Q721 0 697 26 Q673 52 685 111 Q697 166 731 193.5 Q765 221 822 221 L834 221 L896 510 Q921 630 898.5 680.5 Q876 731 798 731 Q715 731 649.5 670.5 Q584 610 563 510 L501 221 L513 221 Q570 221 592.5 193.5 Q615 166 603 111 Q591 52 556.5 26 Q522 0 455 0 L207 0 Q140 0 116.5 26 Q93 52 105 111 Q117 166 150.5 193.5 Q184 221 241 221 L253 221 L356 705 L339 705 Q285 705 263 732.5 Q241 760 252 813 Q265 872 299.5 898 Q334 924 403 924 L573 924 Q601 924 613 913 Q625 902 621 881 L604 803 Q665 875 744.5 911.5 Q824 948 918 948 Q1078 948 1136 851 Q1194 754 1151 555 L1080 221 Z M864 1116 L757 1147 Q735 1153 714 1156 Q693 1159 676 1159 Q632 1159 585.5 1125.5 Q539 1092 521 1092 Q501 1092 493.5 1102 Q486 1112 490 1133 Q503 1192 584 1246 Q665 1300 757 1300 Q787 1300 816.5 1296.5 Q846 1293 875 1286 L981 1255 Q1014 1247 1030.5 1244 Q1047 1241 1062 1241 Q1106 1241 1152.5 1276 Q1199 1311 1216 1311 Q1236 1311 1244 1300 Q1252 1289 1248 1268 Q1235 1208 1154.5 1154 Q1074 1100 981 1100 Q954 1100 925 1104 Q896 1108 864 1116 Z " />
<glyph glyph-name="oacute" unicode="&#xf3;" horiz-adv-x="1229" d="M770 735 Q653 735 561 658.5 Q469 582 444 463 Q418 343 477 264.5 Q536 186 653 186 Q770 186 862.5 264.5 Q955 343 981 463 Q1006 582 947 658.5 Q888 735 770 735 Z M815 946 Q1058 946 1180 810 Q1302 674 1256 461 Q1211 247 1031 111 Q851 -25 608 -25 Q366 -25 244 111 Q122 247 167 461 Q213 674 393.5 810 Q574 946 815 946 Z M648 1010 L630 1087 L1167 1366 Q1170 1368 1175 1369 Q1180 1370 1184 1370 Q1197 1370 1207.5 1362 Q1218 1354 1222 1339 L1245 1253 Q1245 1252 1246 1249 Q1246 1242 1245 1237 Q1242 1223 1233 1212 Q1224 1201 1210 1196 L648 1010 Z " />
<glyph glyph-name="ograve" unicode="&#xf2;" horiz-adv-x="1229" d="M770 735 Q653 735 561 658.5 Q469 582 444 463 Q418 343 477 264.5 Q536 186 653 186 Q770 186 862.5 264.5 Q955 343 981 463 Q1006 582 947 658.5 Q888 735 770 735 Z M815 946 Q1058 946 1180 810 Q1302 674 1256 461 Q1211 247 1031 111 Q851 -25 608 -25 Q366 -25 244 111 Q122 247 167 461 Q213 674 393.5 810 Q574 946 815 946 Z M1060 1087 L1009 1010 L526 1196 Q515 1201 510 1212 Q505 1223 508 1237 Q509 1242 513 1249 Q515 1252 516 1253 L575 1339 Q585 1354 599 1362 Q613 1370 627 1370 Q631 1370 634.5 1369 Q638 1368 642 1366 L1060 1087 Z " />
<glyph glyph-name="ocircumflex" unicode="&#xf4;" horiz-adv-x="1229" d="M770 735 Q653 735 561 658.5 Q469 582 444 463 Q418 343 477 264.5 Q536 186 653 186 Q770 186 862.5 264.5 Q955 343 981 463 Q1006 582 947 658.5 Q888 735 770 735 Z M815 946 Q1058 946 1180 810 Q1302 674 1256 461 Q1211 247 1031 111 Q851 -25 608 -25 Q366 -25 244 111 Q122 247 167 461 Q213 674 393.5 810 Q574 946 815 946 Z M864 1178 L549 1044 Q541 1042 537.5 1041 Q534 1040 532 1040 Q514 1040 502.5 1055.5 Q491 1071 495 1090 Q497 1098 502 1105 Q507 1112 513 1116 L836 1335 Q850 1345 866.5 1349.5 Q883 1354 901 1354 Q920 1354 934.5 1349.5 Q949 1345 959 1335 L1189 1116 Q1194 1112 1196 1105.5 Q1198 1099 1197 1092 Q1193 1073 1174.5 1056.5 Q1156 1040 1139 1040 Q1134 1040 1126 1042 Q1123 1044 1122 1044 L864 1178 Z " />
<glyph glyph-name="odieresis" unicode="&#xf6;" horiz-adv-x="1229" d="M770 735 Q653 735 561 658.5 Q469 582 444 463 Q418 343 477 264.5 Q536 186 653 186 Q770 186 862.5 264.5 Q955 343 981 463 Q1006 582 947 658.5 Q888 735 770 735 Z M815 946 Q1058 946 1180 810 Q1302 674 1256 461 Q1211 247 1031 111 Q851 -25 608 -25 Q366 -25 244 111 Q122 247 167 461 Q213 674 393.5 810 Q574 946 815 946 Z M1144 1319 Q1195 1319 1224 1281 Q1253 1243 1242 1192 Q1230 1137 1187 1101 Q1144 1065 1090 1065 Q1036 1065 1006 1101.5 Q976 1138 988 1192 Q998 1241 1046 1280 Q1094 1319 1144 1319 Z M649 1319 Q699 1319 728.5 1281 Q758 1243 747 1192 Q735 1137 692 1101 Q649 1065 595 1065 Q541 1065 511 1101.5 Q481 1138 493 1192 Q503 1241 550.5 1280 Q598 1319 649 1319 Z " />
<glyph glyph-name="otilde" unicode="&#xf5;" horiz-adv-x="1229" d="M770 735 Q653 735 561 658.5 Q469 582 444 463 Q418 343 477 264.5 Q536 186 653 186 Q770 186 862.5 264.5 Q955 343 981 463 Q1006 582 947 658.5 Q888 735 770 735 Z M815 946 Q1058 946 1180 810 Q1302 674 1256 461 Q1211 247 1031 111 Q851 -25 608 -25 Q366 -25 244 111 Q122 247 167 461 Q213 674 393.5 810 Q574 946 815 946 Z M864 1116 L757 1147 Q735 1153 714 1156 Q693 1159 676 1159 Q632 1159 585.5 1125.5 Q539 1092 521 1092 Q501 1092 493.5 1102 Q486 1112 490 1133 Q503 1192 584 1246 Q665 1300 757 1300 Q787 1300 816.5 1296.5 Q846 1293 875 1286 L981 1255 Q1014 1247 1030.5 1244 Q1047 1241 1062 1241 Q1106 1241 1152.5 1276 Q1199 1311 1216 1311 Q1236 1311 1244 1300 Q1252 1289 1248 1268 Q1235 1208 1154.5 1154 Q1074 1100 981 1100 Q954 1100 925 1104 Q896 1108 864 1116 Z " />
<glyph glyph-name="uacute" unicode="&#xfa;" horiz-adv-x="1229" d="M921 705 L905 705 Q851 705 829.5 733 Q808 761 820 815 Q832 874 865.5 899 Q899 924 968 924 L1157 924 Q1184 924 1196.5 912.5 Q1209 901 1205 881 L1064 219 L1080 219 Q1134 219 1156.5 191 Q1179 163 1168 111 Q1155 51 1121 25.5 Q1087 0 1018 0 L850 0 Q822 0 809 12 Q796 24 800 45 L816 121 Q753 49 676 13 Q599 -23 505 -23 Q344 -23 286.5 74 Q229 171 271 371 L342 705 L325 705 Q271 705 249 733 Q227 761 239 815 Q251 874 285 899 Q319 924 389 924 L577 924 Q604 924 615.5 912.5 Q627 901 623 881 L524 416 Q498 293 521.5 243 Q545 193 623 193 Q706 193 772.5 254.5 Q839 316 860 416 L921 705 Z M589 1010 L571 1087 L1108 1366 Q1111 1368 1116 1369 Q1121 1370 1125 1370 Q1138 1370 1148.5 1362 Q1159 1354 1163 1339 L1186 1253 Q1186 1252 1187 1249 Q1187 1242 1186 1237 Q1183 1223 1174 1212 Q1165 1201 1151 1196 L589 1010 Z " />
<glyph glyph-name="ugrave" unicode="&#xf9;" horiz-adv-x="1229" d="M921 705 L905 705 Q851 705 829.5 733 Q808 761 820 815 Q832 874 865.5 899 Q899 924 968 924 L1157 924 Q1184 924 1196.5 912.5 Q1209 901 1205 881 L1064 219 L1080 219 Q1134 219 1156.5 191 Q1179 163 1168 111 Q1155 51 1121 25.5 Q1087 0 1018 0 L850 0 Q822 0 809 12 Q796 24 800 45 L816 121 Q753 49 676 13 Q599 -23 505 -23 Q344 -23 286.5 74 Q229 171 271 371 L342 705 L325 705 Q271 705 249 733 Q227 761 239 815 Q251 874 285 899 Q319 924 389 924 L577 924 Q604 924 615.5 912.5 Q627 901 623 881 L524 416 Q498 293 521.5 243 Q545 193 623 193 Q706 193 772.5 254.5 Q839 316 860 416 L921 705 Z M1001 1087 L950 1010 L467 1196 Q456 1201 451 1212 Q446 1223 449 1237 Q450 1242 454 1249 Q456 1252 457 1253 L516 1339 Q526 1354 540 1362 Q554 1370 568 1370 Q572 1370 575.5 1369 Q579 1368 583 1366 L1001 1087 Z " />
<glyph glyph-name="ucircumflex" unicode="&#xfb;" horiz-adv-x="1229" d="M921 705 L905 705 Q851 705 829.5 733 Q808 761 820 815 Q832 874 865.5 899 Q899 924 968 924 L1157 924 Q1184 924 1196.5 912.5 Q1209 901 1205 881 L1064 219 L1080 219 Q1134 219 1156.5 191 Q1179 163 1168 111 Q1155 51 1121 25.5 Q1087 0 1018 0 L850 0 Q822 0 809 12 Q796 24 800 45 L816 121 Q753 49 676 13 Q599 -23 505 -23 Q344 -23 286.5 74 Q229 171 271 371 L342 705 L325 705 Q271 705 249 733 Q227 761 239 815 Q251 874 285 899 Q319 924 389 924 L577 924 Q604 924 615.5 912.5 Q627 901 623 881 L524 416 Q498 293 521.5 243 Q545 193 623 193 Q706 193 772.5 254.5 Q839 316 860 416 L921 705 Z M805 1178 L490 1044 Q482 1042 478.5 1041 Q475 1040 473 1040 Q455 1040 443.5 1055.5 Q432 1071 436 1090 Q438 1098 443 1105 Q448 1112 454 1116 L777 1335 Q791 1345 807.5 1349.5 Q824 1354 842 1354 Q861 1354 875.5 1349.5 Q890 1345 900 1335 L1130 1116 Q1135 1112 1137 1105.5 Q1139 1099 1138 1092 Q1134 1073 1115.5 1056.5 Q1097 1040 1080 1040 Q1075 1040 1067 1042 Q1064 1044 1063 1044 L805 1178 Z " />
<glyph glyph-name="udieresis" unicode="&#xfc;" horiz-adv-x="1229" d="M921 705 L905 705 Q851 705 829.5 733 Q808 761 820 815 Q832 874 865.5 899 Q899 924 968 924 L1157 924 Q1184 924 1196.5 912.5 Q1209 901 1205 881 L1064 219 L1080 219 Q1134 219 1156.5 191 Q1179 163 1168 111 Q1155 51 1121 25.5 Q1087 0 1018 0 L850 0 Q822 0 809 12 Q796 24 800 45 L816 121 Q753 49 676 13 Q599 -23 505 -23 Q344 -23 286.5 74 Q229 171 271 371 L342 705 L325 705 Q271 705 249 733 Q227 761 239 815 Q251 874 285 899 Q319 924 389 924 L577 924 Q604 924 615.5 912.5 Q627 901 623 881 L524 416 Q498 293 521.5 243 Q545 193 623 193 Q706 193 772.5 254.5 Q839 316 860 416 L921 705 Z M1085 1319 Q1136 1319 1165 1281 Q1194 1243 1183 1192 Q1171 1137 1128 1101 Q1085 1065 1031 1065 Q977 1065 947 1101.5 Q917 1138 929 1192 Q939 1241 987 1280 Q1035 1319 1085 1319 Z M590 1319 Q640 1319 669.5 1281 Q699 1243 688 1192 Q676 1137 633 1101 Q590 1065 536 1065 Q482 1065 452 1101.5 Q422 1138 434 1192 Q444 1241 491.5 1280 Q539 1319 590 1319 Z " />
<glyph glyph-name="dagger" unicode="&#x2020;" horiz-adv-x="1229" d="M931 924 L1118 924 Q1140 924 1153 894 Q1166 864 1157 821 Q1148 777 1122.5 747 Q1097 717 1074 717 L887 717 L748 63 Q739 20 703.5 -4.5 Q668 -29 614 -29 Q559 -29 531.5 -3.5 Q504 22 513 63 L652 717 L459 717 Q435 717 422.5 746.5 Q410 776 420 819 Q429 863 454.5 893.5 Q480 924 503 924 L696 924 L739 1128 Q748 1171 783 1195 Q818 1219 873 1219 Q928 1219 955.5 1193.5 Q983 1168 974 1128 L931 924 Z " />
<glyph glyph-name="degree" unicode="&#xb0;" horiz-adv-x="819" d="M456 1038 Q441 965 480.5 914.5 Q520 864 593 864 Q664 864 726.5 915 Q789 966 804 1038 Q820 1111 779 1161.5 Q738 1212 667 1212 Q595 1212 533.5 1161.5 Q472 1111 456 1038 Z M308 1038 Q337 1172 451 1266 Q565 1360 699 1360 Q833 1360 906.5 1266.5 Q980 1173 951 1038 Q922 903 809.5 810 Q697 717 562 717 Q426 717 352.5 810 Q279 903 308 1038 Z " />
<glyph glyph-name="cent" unicode="&#xa2;" horiz-adv-x="1229" d="M945 1057 Q983 1049 1018 1035.5 Q1053 1022 1086 1001 Q1105 1036 1131 1053.5 Q1157 1071 1192 1071 Q1240 1071 1255 1041.5 Q1270 1012 1254 940 L1223 795 Q1212 740 1184.5 714 Q1157 688 1111 688 Q1078 688 1058.5 703.5 Q1039 719 1023 762 Q1001 822 949 851.5 Q897 881 814 881 Q710 881 628 812 Q546 743 524 637 Q500 526 555 459.5 Q610 393 726 393 Q831 393 947.5 450.5 Q1064 508 1086 508 Q1120 508 1136 483 Q1152 458 1143 418 Q1127 343 1015.5 285.5 Q904 228 734 211 L669 -10 Q660 -40 638 -54 Q616 -68 577 -68 Q534 -68 515.5 -54.5 Q497 -41 503 -14 L504 -8 L569 213 Q402 242 322.5 358 Q243 474 278 637 Q314 806 453 925 Q592 1044 781 1065 L840 1266 Q849 1296 871 1309.5 Q893 1323 932 1323 Q975 1323 993.5 1309 Q1012 1295 1006 1268 L1005 1264 L945 1057 Z " />
<glyph glyph-name="sterling" unicode="&#xa3;" horiz-adv-x="1229" d="M692 705 L1013 705 Q1031 705 1038.5 689.5 Q1046 674 1040 647 L1025 575 Q1020 552 1009 541 Q998 530 980 530 L694 530 Q696 473 694.5 443.5 Q693 414 689 393 Q682 361 666 322 Q650 283 623 238 Q685 235 749.5 224 Q814 213 819 213 Q859 213 921.5 242.5 Q984 272 1005 272 Q1039 272 1063 231.5 Q1087 191 1078 150 Q1065 86 978 35 Q891 -16 787 -16 Q729 -16 633.5 6.5 Q538 29 493 29 Q435 29 363 0 Q291 -29 288 -29 Q260 -29 242.5 15 Q225 59 232 94 Q238 119 291 147 Q320 163 337 174 Q385 203 405.5 233 Q426 263 439 322 Q448 366 449.5 416.5 Q451 467 444 530 L313 530 Q295 530 288 545.5 Q281 561 286 588 L302 659 Q306 682 317 693.5 Q328 705 346 705 L432 705 Q419 785 418.5 847.5 Q418 910 429 963 Q463 1122 585 1208 Q707 1294 898 1294 Q1053 1294 1133 1246.5 Q1213 1199 1201 1112 L1189 1028 L1187 1018 Q1177 972 1146 951 Q1115 930 1057 930 Q1010 930 998 999 Q996 1013 994 1020 Q985 1064 953.5 1087 Q922 1110 874 1110 Q801 1110 750 1069 Q699 1028 684 956 Q678 931 679 885 Q680 839 692 705 Z " />
<glyph glyph-name="section" unicode="&#xa7;" horiz-adv-x="1229" d="M509 768 Q481 755 466.5 739.5 Q452 724 447 700 Q440 664 466 621.5 Q492 579 549 535 L812 328 Q857 292 876 263 Q895 234 903 197 Q937 209 954 226 Q971 243 976 268 Q984 304 957.5 346.5 Q931 389 872 434 L610 639 Q574 669 548.5 700.5 Q523 732 509 768 Z M1057 1024 L856 1024 Q771 1024 736 1005.5 Q701 987 692 942 Q685 910 704 876 Q723 842 769 807 L1034 598 Q1119 531 1152 457.5 Q1185 384 1167 299 Q1148 210 1088 149 Q1028 88 948 76 Q946 53 944 36 Q942 19 939 8 Q929 -42 894 -87.5 Q859 -133 809 -164 Q763 -191 712.5 -203 Q662 -215 566 -215 L527 -215 L218 -215 Q183 -215 169.5 -202 Q156 -189 162 -160 L207 49 Q215 87 240.5 106 Q266 125 309 125 Q347 125 365.5 104 Q384 83 377 49 L355 -53 L580 -53 Q665 -53 700 -35 Q735 -17 745 29 Q751 60 732 94 Q713 128 667 164 L405 373 Q319 440 286 513.5 Q253 587 271 672 Q290 759 347 818.5 Q404 878 490 899 Q491 914 493 928.5 Q495 943 500 965 Q510 1016 543.5 1060 Q577 1104 628 1135 Q673 1162 724.5 1174 Q776 1186 873 1186 L911 1186 L1194 1186 Q1229 1186 1242.5 1172.5 Q1256 1159 1250 1130 L1205 922 Q1197 884 1172 865 Q1147 846 1105 846 Q1066 846 1047 867 Q1028 888 1035 922 L1057 1024 Z " />
<glyph glyph-name="bullet" unicode="&#x2022;" horiz-adv-x="1229" d="M436 668 Q465 800 579 896 Q693 992 823 992 Q955 992 1029 896 Q1103 800 1074 668 Q1046 536 932 442 Q818 348 686 348 Q556 348 482 442 Q408 536 436 668 Z " />
<glyph glyph-name="paragraph" unicode="&#xb6;" horiz-adv-x="1229" d="M693 84 Q686 48 661 24 Q636 0 606 0 Q579 0 564 24.5 Q549 49 556 84 L650 524 Q480 527 398 617 Q316 707 347 854 Q379 1003 500 1094.5 Q621 1186 791 1186 L1264 1186 Q1300 1186 1318.5 1169.5 Q1337 1153 1331 1126 Q1325 1098 1300.5 1082.5 Q1276 1067 1238 1067 L1187 1067 L978 84 Q970 47 946 23.5 Q922 0 893 0 Q865 0 850 24.5 Q835 49 842 84 L1051 1067 L902 1067 L693 84 Z " />
<glyph glyph-name="germandbls" unicode="&#xdf;" horiz-adv-x="1229" d="M1006 772 Q1140 744 1194.5 646 Q1249 548 1216 393 Q1174 195 1043 85 Q912 -25 719 -25 Q624 -25 586.5 3.5 Q549 32 562 94 Q572 140 605.5 164 Q639 188 694 188 Q697 188 711 187 Q725 186 735 186 Q824 186 878.5 242 Q933 298 957 414 Q980 518 950 582.5 Q920 647 841 664 Q823 667 791 672 Q694 686 709 756 Q717 795 741.5 813.5 Q766 832 823 840 Q884 849 916 876.5 Q948 904 959 956 Q974 1030 946.5 1069 Q919 1108 851 1108 Q761 1108 713 1054.5 Q665 1001 631 838 L462 43 Q457 23 439.5 11.5 Q422 0 395 0 L150 0 Q81 0 57.5 26 Q34 52 46 111 Q58 169 92 194 Q126 219 196 219 L253 219 L398 899 Q444 1118 562.5 1213.5 Q681 1309 903 1309 Q1090 1309 1175 1230.5 Q1260 1152 1230 1010 Q1211 922 1154 861.5 Q1097 801 1006 772 Z " />
<glyph glyph-name="registered" unicode="&#xae;" horiz-adv-x="1229" d="M717 899 L683 743 L757 743 Q822 743 854 761.5 Q886 780 895 821 Q904 862 883.5 880.5 Q863 899 809 899 L717 899 Z M891 668 Q903 660 911 639 Q913 633 914 631 L973 489 L988 489 Q1022 489 1034.5 475 Q1047 461 1041 430 Q1034 397 1016 383 Q998 369 961 369 L893 369 Q855 369 842 399 L841 401 L752 610 Q747 621 738.5 627 Q730 633 718 633 L666 633 L635 489 L646 489 Q674 489 686.5 473.5 Q699 458 693 430 Q686 398 666.5 383.5 Q647 369 608 369 L469 369 Q431 369 417 383.5 Q403 398 410 430 Q416 459 435 474 Q454 489 484 489 L494 489 L581 895 L571 895 Q542 895 529 911 Q516 927 522 956 Q529 988 548.5 1002 Q568 1016 606 1016 L856 1016 Q973 1016 1023 971 Q1073 926 1055 838 Q1041 776 1001 734 Q961 692 891 668 Z M248 680 Q203 467 321.5 316.5 Q440 166 649 166 Q860 166 1040.5 318 Q1221 470 1266 680 Q1311 891 1193.5 1042.5 Q1076 1194 867 1194 Q659 1194 476 1042.5 Q293 891 248 680 Z M146 680 Q200 933 417.5 1112.5 Q635 1292 888 1292 Q1140 1292 1282.5 1112 Q1425 932 1371 680 Q1318 429 1100 248.5 Q882 68 628 68 Q373 68 232.5 246.5 Q92 425 146 680 Z " />
<glyph glyph-name="copyright" unicode="&#xa9;" horiz-adv-x="1229" d="M983 997 Q998 1012 1012 1019 Q1026 1026 1043 1026 Q1068 1026 1077.5 1009 Q1087 992 1081 961 L1051 821 Q1043 783 1027.5 769.5 Q1012 756 979 756 Q954 756 943.5 767 Q933 778 931 809 Q928 862 901.5 885.5 Q875 909 818 909 Q732 909 674.5 850 Q617 791 593 680 Q570 570 603 510.5 Q636 451 722 451 Q779 451 859 490.5 Q939 530 958 530 Q978 530 989.5 511 Q1001 492 995 465 Q984 414 888 370 Q792 326 685 326 Q539 326 468.5 424.5 Q398 523 431 680 Q464 833 577 933.5 Q690 1034 831 1034 Q871 1034 908 1025 Q945 1016 983 997 Z M248 680 Q203 467 321.5 316.5 Q440 166 649 166 Q860 166 1040.5 318 Q1221 470 1266 680 Q1311 891 1193.5 1042.5 Q1076 1194 867 1194 Q659 1194 476 1042.5 Q293 891 248 680 Z M146 680 Q200 933 417.5 1112.5 Q635 1292 888 1292 Q1140 1292 1282.5 1112 Q1425 932 1371 680 Q1318 429 1100 248.5 Q882 68 628 68 Q373 68 232.5 246.5 Q92 425 146 680 Z " />
<glyph glyph-name="trademark" unicode="&#x2122;" horiz-adv-x="1229" d="M778 674 Q748 674 736 688 Q724 702 730 731 Q735 756 753 772 Q771 788 794 788 L871 1094 Q849 1094 839 1109.5 Q829 1125 834 1151 Q839 1175 854 1190.5 Q869 1206 885 1206 L989 1206 Q1013 1206 1024 1195.5 Q1035 1185 1039 1159 L1066 944 L1184 1159 Q1198 1184 1214.5 1195 Q1231 1206 1255 1206 L1339 1206 L1360 1206 Q1375 1206 1383.5 1190 Q1392 1174 1387 1151 Q1382 1125 1365 1109.5 Q1348 1094 1326 1094 L1273 788 L1283 788 Q1298 788 1306.5 771 Q1315 754 1310 731 Q1304 702 1286 688 Q1268 674 1239 674 L1138 674 L1118 674 Q1100 674 1089 691 Q1078 708 1083 731 Q1089 759 1108 773.5 Q1127 788 1156 788 L1162 788 L1211 1047 L1103 844 Q1090 822 1074.5 811.5 Q1059 801 1036 801 Q1014 801 1002 811.5 Q990 822 988 844 L965 1047 L904 788 L912 788 Q936 788 946.5 772.5 Q957 757 952 731 Q946 702 928 688 Q910 674 880 674 L778 674 Z M775 1001 L774 995 Q768 969 752 955.5 Q736 942 710 942 Q680 942 670.5 954.5 Q661 967 667 1001 L683 1094 L613 1094 L548 788 L613 788 L632 788 Q649 788 657.5 771.5 Q666 755 661 731 Q655 701 638 687.5 Q621 674 589 674 L323 674 Q292 674 281 687.5 Q270 701 276 731 Q281 756 297 772 Q313 788 331 788 L347 788 L413 788 L478 1094 L408 1094 L386 1001 Q378 969 363 955.5 Q348 942 319 942 Q291 942 281 954 Q271 966 277 993 L278 1001 L314 1151 Q323 1190 334.5 1198 Q346 1206 377 1206 L764 1206 Q811 1206 802 1153 L801 1151 L775 1001 Z " />
<glyph glyph-name="acute" unicode="&#xb4;" horiz-adv-x="1229" d="M648 1010 L630 1087 L1167 1366 Q1170 1368 1175 1369 Q1180 1370 1184 1370 Q1197 1370 1207.5 1362 Q1218 1354 1222 1339 L1245 1253 Q1245 1252 1246 1249 Q1246 1242 1245 1237 Q1242 1223 1233 1212 Q1224 1201 1210 1196 L648 1010 Z " />
<glyph glyph-name="dieresis" unicode="&#xa8;" horiz-adv-x="1229" d="M1144 1319 Q1195 1319 1224 1281 Q1253 1243 1242 1192 Q1230 1137 1187 1101 Q1144 1065 1090 1065 Q1036 1065 1006 1101.5 Q976 1138 988 1192 Q998 1241 1046 1280 Q1094 1319 1144 1319 Z M649 1319 Q699 1319 728.5 1281 Q758 1243 747 1192 Q735 1137 692 1101 Q649 1065 595 1065 Q541 1065 511 1101.5 Q481 1138 493 1192 Q503 1241 550.5 1280 Q598 1319 649 1319 Z " />
<glyph glyph-name="AE" unicode="&#xc6;" horiz-adv-x="1229" d="M1272 975 L973 975 L915 702 L997 702 L999 715 Q1009 759 1033.5 783 Q1058 807 1095 807 Q1137 807 1151 782.5 Q1165 758 1153 702 L1116 530 Q1104 474 1080.5 450 Q1057 426 1016 426 Q977 426 962.5 448.5 Q948 471 957 514 L961 532 L879 532 L811 213 L1110 213 L1135 332 Q1149 399 1177 428 Q1205 457 1254 457 Q1303 457 1317.5 429.5 Q1332 402 1317 332 L1266 90 Q1254 35 1232.5 17.5 Q1211 0 1159 0 L557 0 L549 0 Q461 0 441.5 25 Q422 50 435 111 Q447 166 478 192.5 Q509 219 564 219 L603 219 L637 379 L404 379 L232 37 Q222 15 211 7.5 Q200 0 178 0 L70 0 L61 0 Q-25 0 -44 25 Q-63 50 -50 111 Q-38 167 -7.5 193 Q23 219 79 219 L116 219 L502 965 L488 965 L463 965 Q409 965 389.5 991.5 Q370 1018 382 1075 Q395 1136 424.5 1161 Q454 1186 549 1186 L1411 1186 Q1462 1186 1476.5 1168 Q1491 1150 1479 1094 L1431 870 L1423 831 Q1415 794 1384 768.5 Q1353 743 1314 743 Q1265 743 1250 772.5 Q1235 802 1249 870 L1272 975 Z M703 975 L490 551 L674 551 L764 975 L703 975 Z " />
<glyph glyph-name="Oslash" unicode="&#xd8;" horiz-adv-x="1229" d="M1022 838 L535 238 Q564 218 593 208.5 Q622 199 652 199 Q784 199 880.5 303 Q977 407 1017 594 Q1034 675 1034.5 731.5 Q1035 788 1022 838 Z M939 954 Q908 971 878 979 Q848 987 817 987 Q693 987 597.5 881.5 Q502 776 464 594 Q449 523 446.5 466 Q444 409 455 358 L939 954 Z M1215 1075 Q1291 981 1313 861.5 Q1335 742 1304 594 Q1246 320 1050 144.5 Q854 -31 607 -31 Q537 -31 477.5 -16.5 Q418 -2 366 29 L265 -90 Q244 -115 228.5 -125 Q213 -135 196 -135 Q163 -135 139 -112.5 Q115 -90 121 -63 Q123 -55 127 -47.5 Q131 -40 138 -31 L262 117 Q189 214 167 333.5 Q145 453 175 594 Q233 869 429 1044 Q625 1219 873 1219 Q939 1219 997 1204.5 Q1055 1190 1110 1161 L1188 1255 Q1210 1280 1225.5 1290 Q1241 1300 1257 1300 Q1291 1300 1314 1277 Q1337 1254 1331 1227 Q1330 1219 1325.5 1210.5 Q1321 1202 1314 1194 L1215 1075 Z " />
<glyph glyph-name="infinity" unicode="&#x221e;" horiz-adv-x="1460" d="M971 629 Q994 514 1025 469 Q1056 424 1106 424 Q1165 424 1214 481.5 Q1263 539 1283 633 Q1303 728 1281.5 785 Q1260 842 1204 842 Q1147 842 1087 787 Q1027 732 971 629 Z M752 635 Q726 759 697.5 800.5 Q669 842 620 842 Q561 842 511 783.5 Q461 725 441 631 Q420 536 442 479 Q464 422 519 422 Q574 422 631 474 Q688 526 752 635 Z M819 428 Q743 325 661 274 Q579 223 491 223 Q354 223 287.5 338.5 Q221 454 259 631 Q298 818 408.5 929 Q519 1040 663 1040 Q756 1040 816.5 988 Q877 936 905 831 Q973 937 1052.5 987.5 Q1132 1038 1234 1038 Q1379 1038 1442.5 927 Q1506 816 1467 631 Q1429 452 1314 336.5 Q1199 221 1062 221 Q977 221 919.5 270.5 Q862 320 819 428 Z " />
<glyph glyph-name="plusminus" unicode="&#xb1;" horiz-adv-x="1124" d="M760 446 Q750 397 714.5 366.5 Q679 336 632 336 Q586 336 564.5 366.5 Q543 397 553 446 L606 696 L329 696 Q280 696 256 725.5 Q232 755 242 801 Q252 848 288.5 876.5 Q325 905 374 905 L651 905 L704 1157 Q715 1207 749.5 1237.5 Q784 1268 830 1268 Q876 1268 899 1237 Q922 1206 911 1157 L858 905 L1136 905 Q1185 905 1210 876 Q1235 847 1225 801 Q1215 754 1178 725 Q1141 696 1091 696 L813 696 L760 446 Z M194 61 Q145 61 121 89.5 Q97 118 106 164 Q116 211 152.5 239.5 Q189 268 238 268 L1000 268 Q1050 268 1075 240 Q1100 212 1090 166 Q1080 119 1043 90 Q1006 61 956 61 L194 61 Z " />
<glyph glyph-name="lessequal" unicode="&#x2264;" horiz-adv-x="1124" d="M1076 631 Q1131 612 1152 585 Q1173 558 1165 518 Q1155 475 1124 449.5 Q1093 424 1048 424 Q1039 424 1025.5 427 Q1012 430 984 438 L315 674 Q265 691 246.5 718 Q228 745 237 786 Q245 826 276.5 855 Q308 884 363 901 L1120 1135 Q1148 1144 1169 1148.5 Q1190 1153 1203 1153 Q1247 1153 1269 1127.5 Q1291 1102 1282 1061 Q1274 1021 1240 993 Q1206 965 1143 946 L628 788 L1076 631 Z M244 313 L1004 313 Q1052 313 1076.5 285 Q1101 257 1091 211 Q1082 167 1045.5 139 Q1009 111 961 111 L201 111 Q153 111 129 139 Q105 167 115 213 Q124 257 160.5 285 Q197 313 244 313 Z " />
<glyph glyph-name="greaterequal" unicode="&#x2265;" horiz-adv-x="1124" d="M383 946 Q328 965 306.5 993 Q285 1021 293 1061 Q302 1102 334.5 1127.5 Q367 1153 411 1153 Q425 1153 445.5 1148.5 Q466 1144 489 1135 L1143 901 Q1191 884 1211.5 855 Q1232 826 1224 786 Q1215 746 1183.5 718.5 Q1152 691 1095 674 L329 438 Q307 431 288.5 427.5 Q270 424 256 424 Q212 424 191 449.5 Q170 475 180 518 Q188 558 220.5 585 Q253 612 316 631 L831 788 L383 946 Z M1014 313 Q1061 313 1086 285 Q1111 257 1102 213 Q1092 167 1055.5 139 Q1019 111 971 111 L209 111 Q162 111 137.5 139 Q113 167 122 211 Q132 257 167.5 285 Q203 313 252 313 L1014 313 Z " />
<glyph glyph-name="yen" unicode="&#xa5;" horiz-adv-x="1229" d="M670 1040 L768 645 L1032 1040 L1028 1040 Q985 1040 967.5 1069 Q950 1098 961 1151 Q973 1209 1003.5 1234.5 Q1034 1260 1092 1260 L1285 1260 Q1352 1260 1375.5 1234 Q1399 1208 1387 1151 Q1376 1098 1342.5 1069 Q1309 1040 1259 1040 L1243 1040 L1157 913 L1261 913 Q1297 913 1312.5 893.5 Q1328 874 1321 838 Q1313 801 1289 781.5 Q1265 762 1228 762 L1048 762 L947 623 L1199 623 Q1235 623 1250.5 603 Q1266 583 1259 547 Q1251 511 1227 491 Q1203 471 1167 471 L841 471 L787 221 L927 221 Q994 221 1019 195.5 Q1044 170 1032 113 Q1019 55 982.5 27.5 Q946 0 881 0 L362 0 Q295 0 272 26 Q249 52 261 111 Q274 170 308 195.5 Q342 221 408 221 L548 221 L602 471 L260 471 Q223 471 208.5 490 Q194 509 202 547 Q209 583 232.5 603 Q256 623 292 623 L542 623 L503 762 L321 762 Q284 762 270 781 Q256 800 264 838 Q271 874 294.5 893.5 Q318 913 354 913 L458 913 L430 1040 L414 1040 Q362 1040 340.5 1068.5 Q319 1097 330 1151 Q342 1209 376 1234.5 Q410 1260 476 1260 L705 1260 Q764 1260 783.5 1234.5 Q803 1209 791 1151 Q779 1096 749.5 1068 Q720 1040 674 1040 L670 1040 Z " />
<glyph glyph-name="mu" unicode="&#xb5;" horiz-adv-x="1180" d="M995 203 L1036 203 Q1075 203 1093 177.5 Q1111 152 1102 111 Q1091 58 1051 29 Q1011 0 950 0 L815 0 Q759 0 738.5 22 Q718 44 728 92 Q730 103 733 114 Q736 125 740 137 Q673 60 600.5 20 Q528 -20 456 -20 Q411 -20 380.5 -5 Q350 10 330 41 L195 -283 Q169 -344 134.5 -371.5 Q100 -399 50 -399 Q-2 -399 -24 -373.5 Q-46 -348 -36 -299 Q-34 -289 -30 -278 Q-26 -267 -20 -254 L401 723 L366 723 Q330 723 309.5 749.5 Q289 776 298 815 Q309 867 351 897.5 Q393 928 453 928 L586 928 Q641 928 663 904.5 Q685 881 674 831 Q672 822 665 797 Q661 790 661 786 L462 338 Q453 318 446.5 298.5 Q440 279 436 262 Q427 219 449 196.5 Q471 174 523 174 Q637 174 726.5 252 Q816 330 886 492 L1025 809 Q1059 882 1092 905 Q1125 928 1176 928 Q1228 928 1248.5 903 Q1269 878 1258 827 Q1256 816 1252 804 Q1248 792 1242 780 L995 203 Z " />
<glyph glyph-name="product" unicode="&#x220f;" horiz-adv-x="1686" d="M918 1296 L597 -215 L626 -215 Q661 -215 680.5 -247.5 Q700 -280 690 -328 Q680 -375 643 -405.5 Q606 -436 558 -436 L259 -436 Q207 -436 184.5 -406 Q162 -376 173 -322 Q183 -274 214 -244.5 Q245 -215 282 -215 L337 -215 L658 1296 L646 1296 Q583 1296 556 1324.5 Q529 1353 541 1407 Q553 1467 593 1492.5 Q633 1518 721 1518 L1610 1518 Q1698 1518 1727.5 1492.5 Q1757 1467 1745 1407 Q1733 1353 1693.5 1324.5 Q1654 1296 1590 1296 L1584 1296 L1263 -215 L1314 -215 Q1352 -215 1369.5 -246 Q1387 -277 1376 -328 Q1365 -379 1329.5 -407.5 Q1294 -436 1242 -436 L947 -436 Q898 -436 875 -405 Q852 -374 863 -324 Q872 -279 906 -247 Q940 -215 974 -215 L1005 -215 L1326 1296 L918 1296 Z " />
<glyph glyph-name="pi" unicode="&#x3c0;" horiz-adv-x="1124" d="M131 178 L389 723 L333 723 Q286 723 266.5 745.5 Q247 768 256 811 Q269 873 316 898.5 Q363 924 489 924 L1240 924 Q1305 924 1328.5 902.5 Q1352 881 1342 834 Q1329 776 1289.5 749.5 Q1250 723 1175 723 L1126 723 L901 205 L936 205 Q986 205 1006.5 180 Q1027 155 1018 109 Q1005 51 966 25.5 Q927 0 850 0 L731 0 Q669 0 640 23.5 Q611 47 621 90 Q630 132 660 199 Q665 210 668 215 L892 721 L620 721 L332 102 Q301 33 264.5 3 Q228 -27 178 -27 Q128 -27 106 2 Q84 31 95 84 Q99 101 107.5 123 Q116 145 131 178 Z " />
<glyph glyph-name="ordfeminine" unicode="&#xaa;" horiz-adv-x="1229" d="M353 422 L1050 422 Q1068 422 1076.5 414 Q1085 406 1082 391 L1069 332 Q1066 317 1052 306 Q1038 295 1023 295 L326 295 Q311 295 303 305 Q295 315 299 332 L312 391 Q315 405 326.5 413.5 Q338 422 353 422 Z M907 743 L934 866 Q880 877 853 881 Q826 885 804 885 Q715 885 657.5 854 Q600 823 589 770 Q579 724 605.5 701 Q632 678 695 678 Q748 678 798.5 693.5 Q849 709 907 743 Z M1158 1008 L1095 713 L1109 713 Q1152 713 1168.5 690.5 Q1185 668 1176 625 Q1167 579 1138.5 558 Q1110 537 1056 537 L980 537 Q941 537 926 551 Q911 565 904 606 Q827 562 747.5 539 Q668 516 594 516 Q466 516 406 581 Q346 646 370 758 Q395 877 504.5 943.5 Q614 1010 787 1010 Q820 1010 858 1006 Q896 1002 960 991 L964 1008 Q979 1078 951.5 1115.5 Q924 1153 857 1153 Q804 1153 713.5 1114 Q623 1075 584 1075 Q547 1075 528.5 1098 Q510 1121 517 1157 Q531 1220 634.5 1258 Q738 1296 900 1296 Q1071 1296 1131 1230 Q1191 1164 1158 1008 Z " />
<glyph glyph-name="ordmasculine" unicode="&#xba;" horiz-adv-x="1229" d="M353 422 L1050 422 Q1068 422 1076.5 414 Q1085 406 1082 391 L1069 332 Q1066 317 1052 306 Q1038 295 1023 295 L326 295 Q311 295 303 305 Q295 315 299 332 L312 391 Q315 405 326.5 413.5 Q338 422 353 422 Z M759 686 Q854 686 926 747.5 Q998 809 1019 905 Q1039 1001 993 1063.5 Q947 1126 853 1126 Q760 1126 685.5 1063.5 Q611 1001 591 905 Q571 810 618.5 748 Q666 686 759 686 Z M1243 905 Q1207 735 1062.5 626.5 Q918 518 724 518 Q532 518 433 627 Q334 736 370 905 Q406 1075 551.5 1184.5 Q697 1294 889 1294 Q1082 1294 1180.5 1185 Q1279 1076 1243 905 Z " />
<glyph glyph-name="Omega" unicode="&#x2126;" horiz-adv-x="1573" d="M484 182 L568 182 L590 285 Q471 382 427.5 489 Q384 596 412 725 Q456 935 635 1077 Q814 1219 1041 1219 Q1165 1219 1252.5 1184 Q1340 1149 1395 1077 Q1451 1005 1470.5 915 Q1490 825 1470 731 Q1442 602 1349.5 490.5 Q1257 379 1101 287 L1078 182 L1162 182 L1169 215 Q1178 255 1206 278 Q1234 301 1275 301 Q1321 301 1340 269.5 Q1359 238 1347 182 L1337 135 Q1322 63 1284.5 31.5 Q1247 0 1178 0 L993 0 Q887 0 865 29 Q843 58 863 152 L890 279 Q903 339 915 364 Q927 389 949 412 Q971 434 1024 475 Q1178 592 1204 713 Q1231 839 1173.5 913 Q1116 987 991 987 Q873 987 786 915 Q699 843 673 723 Q647 598 750 477 Q764 461 772 453 Q803 416 810 387 Q817 358 807 315 L800 279 L773 152 Q753 58 719.5 29 Q686 0 580 0 L395 0 Q325 0 301 31 Q277 62 292 135 L300 170 Q313 235 344 268 Q375 301 421 301 Q463 301 481 277.5 Q499 254 490 211 L484 182 Z " />
<glyph glyph-name="ae" unicode="&#xe6;" horiz-adv-x="1229" d="M622 403 L466 403 Q398 403 356.5 375 Q315 347 304 293 Q292 236 314.5 205 Q337 174 392 174 Q442 174 489.5 193.5 Q537 213 591 256 L622 403 Z M1113 559 Q1126 653 1107 703.5 Q1088 754 1041 754 Q993 754 954 704 Q915 654 886 559 L1113 559 Z M822 825 Q881 886 950 917 Q1019 948 1096 948 Q1243 948 1309 823.5 Q1375 699 1333 502 Q1321 445 1296.5 424 Q1272 403 1215 403 L853 403 Q832 294 859 240 Q886 186 963 186 Q1031 186 1110 239.5 Q1189 293 1209 293 Q1237 293 1256.5 263.5 Q1276 234 1269 201 Q1252 120 1136.5 47.5 Q1021 -25 889 -25 Q806 -25 744.5 15 Q683 55 655 127 Q578 56 477 15.5 Q376 -25 277 -25 Q149 -25 91.5 54 Q34 133 62 268 Q93 411 199.5 485 Q306 559 483 559 L655 559 L657 565 Q675 652 646 703 Q617 754 549 754 Q504 754 419.5 718 Q335 682 298 682 Q259 682 241 706.5 Q223 731 231 770 Q247 846 347 897 Q447 948 582 948 Q669 948 726 918.5 Q783 889 822 825 Z " />
<glyph glyph-name="oslash" unicode="&#xf8;" horiz-adv-x="1229" d="M954 647 L555 207 Q575 197 598 192.5 Q621 188 651 188 Q770 188 862.5 265.5 Q955 343 981 463 Q992 516 985 561 Q978 606 954 647 Z M848 725 Q830 731 810.5 734 Q791 737 772 737 Q654 737 561.5 659.5 Q469 582 444 463 Q434 417 438 376 Q442 335 460 297 L848 725 Z M1136 850 Q1219 786 1250.5 683.5 Q1282 581 1256 461 Q1211 247 1031 111 Q851 -25 608 -25 Q539 -25 483 -14 Q427 -3 379 20 L247 -127 Q237 -138 221.5 -145 Q206 -152 192 -152 Q162 -152 145 -127.5 Q128 -103 135 -68 Q136 -64 138.5 -60 Q141 -56 145 -51 L268 88 Q193 166 168.5 257.5 Q144 349 167 461 Q213 674 393 810 Q573 946 815 946 Q880 946 929.5 937.5 Q979 929 1020 911 L1126 1032 Q1137 1044 1150.5 1050.5 Q1164 1057 1178 1057 Q1207 1057 1225.5 1033.5 Q1244 1010 1238 979 Q1236 972 1233 965.5 Q1230 959 1226 954 L1136 850 Z " />
<glyph glyph-name="questiondown" unicode="&#xbf;" horiz-adv-x="1229" d="M749 702 L765 780 Q774 821 808.5 844.5 Q843 868 895 868 Q946 868 970.5 845 Q995 822 987 782 L974 723 Q959 651 926.5 613 Q894 575 816 537 Q790 524 741 502 Q579 433 557 330 Q541 257 580.5 214.5 Q620 172 704 172 Q782 172 816.5 187 Q851 202 871 248 Q896 305 923 322.5 Q950 340 996 340 Q1040 340 1055 317.5 Q1070 295 1059 244 L1032 117 Q1021 62 901 24 Q781 -14 620 -14 Q433 -14 350.5 81.5 Q268 177 305 352 Q331 471 449 564.5 Q567 658 749 702 Z M975 1253 Q1062 1253 1106 1209 Q1150 1165 1135 1094 Q1120 1023 1057 979.5 Q994 936 907 936 Q819 936 774 980 Q729 1024 744 1094 Q759 1164 823 1208.5 Q887 1253 975 1253 Z " />
<glyph glyph-name="exclamdown" unicode="&#xa1;" horiz-adv-x="1229" d="M870 762 L769 113 L766 102 Q754 44 713 10.5 Q672 -23 611 -23 Q549 -23 520.5 10.5 Q492 44 504 102 L507 113 L683 762 Q692 794 723.5 816 Q755 838 794 838 Q833 838 854 816 Q875 794 870 762 Z M882 1253 Q969 1253 1013 1206.5 Q1057 1160 1041 1085 Q1026 1013 962 966.5 Q898 920 811 920 Q722 920 677 965.5 Q632 1011 648 1085 Q664 1160 728.5 1206.5 Q793 1253 882 1253 Z " />
<glyph glyph-name="logicalnot" unicode="&#xac;" horiz-adv-x="1229" d="M1106 735 L334 735 Q286 735 261.5 762.5 Q237 790 247 836 Q257 880 294 909 Q331 938 377 938 L1270 938 Q1310 938 1330 918.5 Q1350 899 1343 868 L1250 430 Q1239 380 1204 351 Q1169 322 1119 322 Q1068 322 1048.5 348.5 Q1029 375 1041 430 L1106 735 Z " />
<glyph glyph-name="florin" unicode="&#x192;" horiz-adv-x="1229" d="M953 815 L1119 815 Q1141 815 1153 795 Q1165 775 1159 745 Q1148 696 1122.5 672.5 Q1097 649 1055 649 L897 649 L700 68 Q637 -118 525.5 -201.5 Q414 -285 228 -285 Q122 -285 77 -254.5 Q32 -224 45 -162 Q55 -113 87 -88 Q119 -63 170 -63 Q184 -63 214.5 -65.5 Q245 -68 264 -68 Q340 -68 380.5 -37 Q421 -6 448 76 L639 649 L489 649 Q467 649 456 669 Q445 689 451 719 Q462 769 487 792 Q512 815 556 815 L693 815 L741 942 Q809 1132 919 1213 Q1029 1294 1215 1294 Q1323 1294 1366 1264 Q1409 1234 1395 1167 Q1385 1122 1353 1097.5 Q1321 1073 1270 1073 Q1257 1073 1225.5 1075 Q1194 1077 1176 1077 Q1100 1077 1061 1047.5 Q1022 1018 993 934 L953 815 Z " />
<glyph glyph-name="increment" unicode="&#x2206;" horiz-adv-x="1253" d="M1120 0 L135 0 Q69 0 46 26 Q23 52 35 111 Q46 164 79 191.5 Q112 219 165 219 L181 219 L677 1087 L681 1094 Q734 1186 821 1186 L944 1186 Q998 1186 1017 1171 Q1036 1156 1046 1087 L1166 219 L1183 219 Q1236 219 1257.5 191.5 Q1279 164 1268 111 Q1256 52 1221.5 26 Q1187 0 1120 0 Z M898 219 L812 893 L452 219 L898 219 Z " />
<glyph glyph-name="guillemotleft" unicode="&#xab;" horiz-adv-x="1229" d="M900 457 L969 186 Q971 179 970 169 Q969 159 967 150 Q961 118 931.5 96 Q902 74 869 74 Q851 74 834 84 Q817 94 814 109 L721 416 Q716 430 714.5 440 Q713 450 715 461 Q718 472 724.5 485 Q731 498 741 510 L962 807 Q972 821 992.5 830.5 Q1013 840 1032 840 Q1065 840 1084.5 817.5 Q1104 795 1098 764 Q1096 754 1092.5 745.5 Q1089 737 1084 729 L900 457 Z M572 457 L641 186 Q643 179 642 169 Q641 159 639 150 Q633 118 604 96 Q575 74 541 74 Q523 74 506.5 84 Q490 94 486 109 L393 416 Q388 430 387 440 Q386 450 388 461 Q391 472 397 485 Q403 498 413 510 L634 807 Q644 821 665 830.5 Q686 840 704 840 Q738 840 757 817.5 Q776 795 770 764 Q768 754 764.5 745.5 Q761 737 756 729 L572 457 Z " />
<glyph glyph-name="guillemotright" unicode="&#xbb;" horiz-adv-x="1229" d="M847 457 L777 729 Q774 736 774 744.5 Q774 753 776 764 Q782 795 812.5 817.5 Q843 840 876 840 Q897 840 913.5 830.5 Q930 821 933 807 L1026 500 Q1030 487 1031 475 Q1032 463 1030 453 Q1027 442 1020.5 429 Q1014 416 1005 403 L785 109 Q773 94 752 84 Q731 74 713 74 Q680 74 659.5 96 Q639 118 645 150 Q648 160 651.5 169 Q655 178 662 186 L847 457 Z M519 457 L449 729 Q447 736 447 744.5 Q447 753 449 764 Q455 795 485 817.5 Q515 840 549 840 Q569 840 584.5 830.5 Q600 821 603 807 L698 500 Q702 487 703 475 Q704 463 702 453 Q699 442 693 429 Q687 416 677 403 L455 109 Q443 94 423 84 Q403 74 386 74 Q352 74 332 96 Q312 118 318 150 Q321 160 324.5 169 Q328 178 334 186 L519 457 Z " />
<glyph glyph-name="ellipsis" unicode="&#x2026;" horiz-adv-x="1229" d="M903 123 Q916 184 969 228 Q1022 272 1083 272 Q1144 272 1178.5 228.5 Q1213 185 1200 123 Q1186 61 1133.5 18 Q1081 -25 1020 -25 Q958 -25 924 18.5 Q890 62 903 123 Z M79 123 Q92 184 145 228 Q198 272 260 272 Q321 272 355 228.5 Q389 185 376 123 Q362 61 310 18 Q258 -25 197 -25 Q135 -25 100.5 18.5 Q66 62 79 123 Z M493 123 Q506 185 558 228.5 Q610 272 671 272 Q733 272 767 228.5 Q801 185 788 123 Q774 61 722 18 Q670 -25 608 -25 Q547 -25 513 18 Q479 61 493 123 Z " />
<glyph glyph-name="nbspace" unicode="&#xa0;" horiz-adv-x="1229" d="" />
<glyph glyph-name="Agrave" unicode="&#xc0;" horiz-adv-x="1229" d="M1164 219 L1181 219 Q1235 219 1257 191.5 Q1279 164 1268 111 Q1256 52 1221 26 Q1186 0 1118 0 L817 0 Q748 0 724 25.5 Q700 51 713 111 Q725 169 759.5 194 Q794 219 863 219 L898 219 L882 336 L450 336 L382 219 L417 219 Q485 219 509 193.5 Q533 168 521 111 Q509 52 474 26 Q439 0 371 0 L113 0 Q44 0 21 26 Q-2 52 9 111 Q20 164 54 191.5 Q88 219 142 219 L159 219 L586 965 L506 965 Q438 965 414 991 Q390 1017 402 1075 Q415 1134 450 1160 Q485 1186 553 1186 L928 1186 Q1017 1186 1032 1090 L1032 1087 L1164 219 Z M799 965 L564 543 L854 543 L799 965 Z M1067 1357 L1016 1280 L533 1466 Q522 1471 517 1482 Q512 1493 515 1507 Q516 1512 520 1519 Q522 1522 523 1523 L582 1609 Q592 1624 606 1632 Q620 1640 634 1640 Q638 1640 641.5 1639 Q645 1638 649 1636 L1067 1357 Z " />
<glyph glyph-name="Atilde" unicode="&#xc3;" horiz-adv-x="1229" d="M1164 219 L1181 219 Q1235 219 1257 191.5 Q1279 164 1268 111 Q1256 52 1221 26 Q1186 0 1118 0 L817 0 Q748 0 724 25.5 Q700 51 713 111 Q725 169 759.5 194 Q794 219 863 219 L898 219 L882 336 L450 336 L382 219 L417 219 Q485 219 509 193.5 Q533 168 521 111 Q509 52 474 26 Q439 0 371 0 L113 0 Q44 0 21 26 Q-2 52 9 111 Q20 164 54 191.5 Q88 219 142 219 L159 219 L586 965 L506 965 Q438 965 414 991 Q390 1017 402 1075 Q415 1134 450 1160 Q485 1186 553 1186 L928 1186 Q1017 1186 1032 1090 L1032 1087 L1164 219 Z M799 965 L564 543 L854 543 L799 965 Z M871 1386 L764 1417 Q742 1423 721 1426 Q700 1429 683 1429 Q639 1429 592.5 1395.5 Q546 1362 528 1362 Q508 1362 500.5 1372 Q493 1382 497 1403 Q510 1462 591 1516 Q672 1570 764 1570 Q794 1570 823.5 1566.5 Q853 1563 882 1556 L988 1525 Q1021 1517 1037.5 1514 Q1054 1511 1069 1511 Q1113 1511 1159.5 1546 Q1206 1581 1223 1581 Q1243 1581 1251 1570 Q1259 1559 1255 1538 Q1242 1478 1161.5 1424 Q1081 1370 988 1370 Q961 1370 932 1374 Q903 1378 871 1386 Z " />
<glyph glyph-name="Otilde" unicode="&#xd5;" horiz-adv-x="1229" d="M823 987 Q694 987 598.5 883 Q503 779 464 594 Q424 409 476 304 Q528 199 656 199 Q785 199 881 303.5 Q977 408 1017 594 Q1056 779 1004.5 883 Q953 987 823 987 Z M873 1219 Q1119 1219 1240.5 1043 Q1362 867 1304 594 Q1245 319 1050 144 Q855 -31 607 -31 Q362 -31 239.5 145.5 Q117 322 175 594 Q233 868 429 1043.5 Q625 1219 873 1219 Z M921 1386 L814 1417 Q792 1423 771 1426 Q750 1429 733 1429 Q689 1429 642.5 1395.5 Q596 1362 578 1362 Q558 1362 550.5 1372 Q543 1382 547 1403 Q560 1462 641 1516 Q722 1570 814 1570 Q844 1570 873.5 1566.5 Q903 1563 932 1556 L1038 1525 Q1071 1517 1087.5 1514 Q1104 1511 1119 1511 Q1163 1511 1209.5 1546 Q1256 1581 1273 1581 Q1293 1581 1301 1570 Q1309 1559 1305 1538 Q1292 1478 1211.5 1424 Q1131 1370 1038 1370 Q1011 1370 982 1374 Q953 1378 921 1386 Z " />
<glyph glyph-name="OE" unicode="&#x152;" horiz-adv-x="1229" d="M1264 975 L971 975 L913 702 L993 702 L996 719 Q1005 762 1029.5 784.5 Q1054 807 1091 807 Q1131 807 1144.5 782.5 Q1158 758 1146 702 L1109 530 Q1097 474 1074.5 450 Q1052 426 1012 426 Q975 426 959.5 449 Q944 472 952 512 L957 532 L877 532 L809 213 L1102 213 L1127 332 Q1141 399 1168.5 428 Q1196 457 1244 457 Q1292 457 1307 428.5 Q1322 400 1307 332 L1256 90 Q1244 34 1222.5 17 Q1201 0 1151 0 L682 0 L612 0 Q479 0 411 14 Q343 28 295 59 Q182 131 140.5 272 Q99 413 138 594 Q176 775 279 918.5 Q382 1062 523 1130 Q582 1160 661 1173 Q740 1186 932 1186 L1403 1186 Q1453 1186 1467 1168 Q1481 1150 1469 1094 L1421 870 Q1407 803 1379 773 Q1351 743 1304 743 Q1256 743 1241.5 772.5 Q1227 802 1241 870 L1264 975 Z M764 975 Q758 976 750 976.5 Q742 977 727 977 Q604 977 517.5 878.5 Q431 780 392 594 Q353 412 397 312.5 Q441 213 559 213 Q567 213 575.5 214 Q584 215 603 217 L764 975 Z " />
<glyph glyph-name="oe" unicode="&#x153;" horiz-adv-x="1229" d="M1113 559 Q1126 653 1107 703.5 Q1088 754 1041 754 Q993 754 954 704 Q915 654 886 559 L1113 559 Z M543 735 Q477 735 419.5 660 Q362 585 336 463 Q310 340 335.5 263 Q361 186 426 186 Q491 186 550 263 Q609 340 635 463 Q661 585 635 660 Q609 735 543 735 Z M798 797 Q861 872 935.5 909 Q1010 946 1096 946 Q1244 946 1309.5 822.5 Q1375 699 1333 502 Q1321 445 1296.5 424 Q1272 403 1215 403 L853 403 Q832 294 859 240 Q886 186 963 186 Q1031 186 1110 239.5 Q1189 293 1209 293 Q1237 293 1256.5 263.5 Q1276 234 1269 201 Q1252 120 1136.5 47.5 Q1021 -25 889 -25 Q806 -25 744.5 15 Q683 55 655 127 Q589 51 513.5 13 Q438 -25 352 -25 Q194 -25 124 110 Q54 245 99 461 Q146 678 273.5 812 Q401 946 559 946 Q645 946 702.5 910 Q760 874 798 797 Z " />
<glyph glyph-name="endash" unicode="&#x2013;" horiz-adv-x="1229" d="M1349 557 Q1372 557 1382 544 Q1392 531 1387 508 L1369 422 Q1365 400 1346.5 383.5 Q1328 367 1309 367 L76 367 Q56 367 47.5 381.5 Q39 396 44 422 L62 508 Q67 529 82 543 Q97 557 116 557 L1349 557 Z " />
<glyph glyph-name="emdash" unicode="&#x2014;" horiz-adv-x="1229" d="M1349 557 Q1372 557 1382 544 Q1392 531 1387 508 L1369 422 Q1365 400 1346.5 383.5 Q1328 367 1309 367 L76 367 Q56 367 47.5 381.5 Q39 396 44 422 L62 508 Q67 529 82 543 Q97 557 116 557 L1349 557 Z " />
<glyph glyph-name="quotedblleft" unicode="&#x201c;" horiz-adv-x="1229" d="M1157 1217 L1216 1194 Q1228 1189 1234 1180.5 Q1240 1172 1237 1161 Q1235 1152 1234 1148 Q1233 1144 1231 1141 L1024 717 Q1010 687 997.5 679.5 Q985 672 959 672 L763 672 Q750 672 743 677 Q736 682 738 690 Q740 697 742.5 702.5 Q745 708 749 713 L1097 1192 Q1108 1207 1119 1214 Q1130 1221 1142 1221 Q1144 1221 1147 1220 Q1150 1219 1157 1217 Z M766 1217 L822 1194 Q836 1189 842.5 1180.5 Q849 1172 846 1161 Q845 1157 843.5 1152.5 Q842 1148 838 1141 L631 717 Q616 687 603.5 679.5 Q591 672 566 672 L369 672 Q356 672 349.5 677 Q343 682 345 690 Q346 694 349.5 700 Q353 706 358 713 L704 1192 Q715 1207 726 1214 Q737 1221 748 1221 Q752 1221 755.5 1220 Q759 1219 766 1217 Z " />
<glyph glyph-name="quotedblright" unicode="&#x201d;" horiz-adv-x="1229" d="M1045 1186 L1241 1186 Q1253 1186 1260 1180.5 Q1267 1175 1266 1167 Q1264 1160 1261.5 1154 Q1259 1148 1254 1143 L907 666 Q896 651 885 644 Q874 637 862 637 Q855 637 852 637.5 Q849 638 846 639 L787 662 Q775 666 769 674.5 Q763 683 765 694 Q767 704 768.5 707.5 Q770 711 772 715 L979 1139 Q994 1170 1007 1178 Q1020 1186 1045 1186 Z M653 1186 L848 1186 Q860 1186 867 1180.5 Q874 1175 873 1167 Q871 1160 868.5 1154 Q866 1148 860 1143 L516 666 Q505 652 493 644.5 Q481 637 469 637 Q462 637 459 637.5 Q456 638 452 639 L394 662 Q381 666 375.5 674.5 Q370 683 372 694 Q374 704 375.5 707.5 Q377 711 378 715 L586 1139 Q601 1169 614.5 1177.5 Q628 1186 653 1186 Z " />
<glyph glyph-name="quoteleft" unicode="&#x2018;" horiz-adv-x="1229" d="M979 1217 L1037 1194 Q1050 1189 1056 1180.5 Q1062 1172 1059 1161 Q1058 1157 1056.5 1152.5 Q1055 1148 1051 1141 L846 717 Q832 688 819 680 Q806 672 779 672 L582 672 Q569 672 562.5 677 Q556 682 558 690 Q559 694 562.5 700 Q566 706 571 713 L917 1192 Q928 1207 939 1214 Q950 1221 961 1221 Q965 1221 968.5 1220 Q972 1219 979 1217 Z " />
<glyph glyph-name="quoteright" unicode="&#x2019;" horiz-adv-x="1229" d="M848 1186 L1045 1186 Q1057 1186 1063.5 1180.5 Q1070 1175 1069 1167 Q1067 1160 1064.5 1154 Q1062 1148 1057 1143 L710 666 Q699 651 688 644 Q677 637 665 637 Q659 637 655.5 637.5 Q652 638 649 639 L591 662 Q578 666 572.5 674.5 Q567 683 569 694 Q571 704 572.5 707.5 Q574 711 575 715 L783 1139 Q798 1170 810.5 1178 Q823 1186 848 1186 Z " />
<glyph glyph-name="divide" unicode="&#xf7;" horiz-adv-x="1124" d="M734 805 Q675 805 643.5 845.5 Q612 886 624 944 Q637 1003 686.5 1044 Q736 1085 793 1085 Q852 1085 885 1044 Q918 1003 905 944 Q893 886 843 845.5 Q793 805 734 805 Z M272 733 L1167 733 Q1212 733 1230 707 Q1248 681 1238 631 Q1227 582 1197 555 Q1167 528 1124 528 L229 528 Q185 528 166 556 Q147 584 157 631 Q167 679 197.5 706 Q228 733 272 733 Z M600 176 Q541 176 509.5 216.5 Q478 257 490 315 Q503 374 553 415.5 Q603 457 660 457 Q719 457 751.5 416 Q784 375 771 315 Q759 258 709 217 Q659 176 600 176 Z " />
<glyph glyph-name="lozenge" unicode="&#x25ca;" horiz-adv-x="1012" d="M775 1270 L279 543 L464 -193 L963 543 L775 1270 Z M826 1509 L1076 543 L415 -428 L166 543 L826 1509 Z " />
<glyph glyph-name="ydieresis" unicode="&#xff;" horiz-adv-x="1229" d="M587 705 L677 279 L956 705 L940 705 Q886 705 863.5 733 Q841 761 853 815 Q865 874 899 899 Q933 924 1003 924 L1238 924 Q1308 924 1331 898.5 Q1354 873 1342 815 Q1330 761 1296 733 Q1262 705 1208 705 L1191 705 L593 -178 L638 -178 Q706 -178 730 -204 Q754 -230 741 -289 Q729 -347 694 -373 Q659 -399 591 -399 L153 -399 Q84 -399 60.5 -373.5 Q37 -348 49 -289 Q62 -230 96.5 -204 Q131 -178 200 -178 L355 -178 L491 23 L333 705 L317 705 Q263 705 240.5 733 Q218 761 230 815 Q242 874 276.5 899 Q311 924 380 924 L634 924 Q703 924 726.5 898.5 Q750 873 738 815 Q726 761 691.5 733 Q657 705 604 705 L587 705 Z M1144 1319 Q1195 1319 1224 1281 Q1253 1243 1242 1192 Q1230 1137 1187 1101 Q1144 1065 1090 1065 Q1036 1065 1006 1101.5 Q976 1138 988 1192 Q998 1241 1046 1280 Q1094 1319 1144 1319 Z M649 1319 Q699 1319 728.5 1281 Q758 1243 747 1192 Q735 1137 692 1101 Q649 1065 595 1065 Q541 1065 511 1101.5 Q481 1138 493 1192 Q503 1241 550.5 1280 Q598 1319 649 1319 Z " />
<glyph glyph-name="Ydieresis" unicode="&#x178;" horiz-adv-x="1229" d="M672 965 L758 639 L977 965 L973 965 Q928 965 910.5 993 Q893 1021 904 1075 Q917 1135 947 1160.5 Q977 1186 1036 1186 L1264 1186 Q1331 1186 1353.5 1160.5 Q1376 1135 1363 1075 Q1352 1021 1318.5 993 Q1285 965 1233 965 L1217 965 L841 465 L789 219 L920 219 Q988 219 1011 193.5 Q1034 168 1022 111 Q1010 53 974.5 26.5 Q939 0 872 0 L354 0 Q287 0 263.5 26 Q240 52 252 111 Q265 170 298 194.5 Q331 219 400 219 L531 219 L577 436 L406 965 L389 965 Q337 965 316 993 Q295 1021 306 1075 Q319 1135 352.5 1160.5 Q386 1186 453 1186 L715 1186 Q774 1186 794 1160 Q814 1134 801 1075 Q790 1022 760.5 993.5 Q731 965 686 965 L672 965 Z M1201 1589 Q1252 1589 1281 1551 Q1310 1513 1299 1462 Q1287 1407 1244 1371 Q1201 1335 1147 1335 Q1093 1335 1063 1371.5 Q1033 1408 1045 1462 Q1055 1511 1103 1550 Q1151 1589 1201 1589 Z M706 1589 Q756 1589 785.5 1551 Q815 1513 804 1462 Q792 1407 749 1371 Q706 1335 652 1335 Q598 1335 568 1371.5 Q538 1408 550 1462 Q560 1511 607.5 1550 Q655 1589 706 1589 Z " />
<glyph glyph-name="fraction" unicode="&#x2044;" horiz-adv-x="1229" d="M1188 858 Q1197 862 1206 864 Q1215 866 1224 866 Q1247 866 1259 850 Q1271 834 1266 811 Q1263 796 1250 781.5 Q1237 767 1218 758 L267 324 Q259 319 250.5 317 Q242 315 232 315 Q209 315 197.5 331 Q186 347 191 371 Q195 386 208 400.5 Q221 415 240 424 L1188 858 Z " />
<glyph glyph-name="Euro" unicode="&#x20ac;" horiz-adv-x="1229" d="M879 841 Q902 841 912 828 Q922 815 917 792 L899 716 Q895 694 876.5 677.5 Q858 661 839 661 L491 661 Q481 629 474 594 Q467 561 463 531 L821 531 Q844 531 854 518 Q864 505 859 482 L841 416 Q837 394 818.5 377.5 Q800 361 781 361 L466 361 Q475 323 492 293 Q553 188 707 188 Q812 188 953.5 258 Q1095 328 1128 328 Q1167 328 1186.5 295 Q1206 262 1196 213 Q1177 125 1005.5 47 Q834 -31 640 -31 Q378 -31 252 142 Q184 236 171 361 L-2 361 Q-22 361 -30.5 375.5 Q-39 390 -34 416 L-16 482 Q-11 503 4 517 Q19 531 38 531 L175 531 Q180 561 187 594 Q194 628 204 661 L36 661 Q16 661 7.5 675.5 Q-1 690 4 716 L22 792 Q27 813 42 827 Q57 841 76 841 L280 841 Q345 952 446 1041 Q648 1219 900 1219 Q971 1219 1036.5 1203 Q1102 1187 1173 1153 Q1200 1189 1224.5 1204 Q1249 1219 1281 1219 Q1330 1219 1345 1193 Q1360 1167 1346 1104 L1293 844 Q1278 775 1250.5 751 Q1223 727 1164 727 Q1122 727 1104 747 Q1086 767 1081 821 Q1075 916 1027 957.5 Q979 999 878 999 Q724 999 620 895 Q595 870 575 841 L879 841 Z " />
<glyph glyph-name="guilsinglleft" unicode="&#x2039;" horiz-adv-x="1229" d="M738 457 L807 186 Q809 179 808 169 Q807 159 805 150 Q799 118 770 96 Q741 74 707 74 Q689 74 672.5 84 Q656 94 652 109 L559 416 Q554 430 553 440 Q552 450 554 461 Q557 472 563 485 Q569 498 579 510 L800 807 Q810 821 831 830.5 Q852 840 870 840 Q904 840 923 817.5 Q942 795 936 764 Q934 754 930.5 745.5 Q927 737 922 729 L738 457 Z " />
<glyph glyph-name="guilsinglright" unicode="&#x203a;" horiz-adv-x="1229" d="M685 457 L615 729 Q613 736 613 744.5 Q613 753 615 764 Q621 795 651 817.5 Q681 840 715 840 Q734 840 750 830.5 Q766 821 769 807 L864 500 Q868 487 869 475 Q870 463 868 453 Q865 442 859 429 Q853 416 843 403 L621 109 Q609 94 589 84 Q569 74 552 74 Q518 74 498 96 Q478 118 484 150 Q487 160 490.5 169 Q494 178 500 186 L685 457 Z " />
<glyph glyph-name="fi" unicode="&#xfb01;" horiz-adv-x="1229" d="M1101 219 L1117 219 Q1171 219 1192.5 191.5 Q1214 164 1203 111 Q1191 52 1156.5 26 Q1122 0 1055 0 L807 0 Q739 0 716 26 Q693 52 705 111 Q717 165 749.5 192 Q782 219 837 219 L853 219 L956 705 L940 705 Q885 705 864 732.5 Q843 760 855 815 Q867 874 900.5 899 Q934 924 1003 924 L1193 924 Q1221 924 1233.5 912.5 Q1246 901 1242 881 L1101 219 Z M614 924 L651 924 Q720 924 743.5 898.5 Q767 873 755 815 Q742 757 707 731 Q672 705 604 705 L567 705 L464 219 L501 219 Q570 219 593.5 194 Q617 169 605 111 Q593 52 558 26 Q523 0 455 0 L170 0 Q102 0 78 26 Q54 52 66 111 Q78 165 111.5 192 Q145 219 200 219 L216 219 L319 705 L303 705 Q248 705 226 733 Q204 761 216 815 Q227 869 261 896.5 Q295 924 350 924 L366 924 L372 954 Q410 1130 528 1219.5 Q646 1309 841 1309 Q936 1309 977 1281.5 Q1018 1254 1006 1198 Q997 1153 967.5 1128.5 Q938 1104 896 1104 Q869 1104 839.5 1105 Q810 1106 808 1106 Q725 1106 680 1064 Q635 1022 614 924 Z M1207 1376 Q1278 1376 1295 1348.5 Q1312 1321 1290 1214 Q1268 1112 1242 1087.5 Q1216 1063 1140 1063 Q1066 1063 1049 1086 Q1032 1109 1046 1176 Q1074 1304 1103.5 1340 Q1133 1376 1207 1376 Z " />
<glyph glyph-name="fl" unicode="&#xfb02;" horiz-adv-x="1229" d="M1101 219 L1117 219 Q1171 219 1192.5 191.5 Q1214 164 1203 111 Q1191 52 1156.5 26 Q1122 0 1055 0 L807 0 Q739 0 716 26 Q693 52 705 111 Q716 164 749.5 191.5 Q783 219 837 219 L853 219 L1042 1108 L931 1108 Q739 1108 688.5 1070.5 Q638 1033 614 924 L651 924 Q720 924 743.5 898.5 Q767 873 755 815 Q742 757 707 731 Q672 705 604 705 L567 705 L464 219 L501 219 Q570 219 593.5 194 Q617 169 605 111 Q593 52 558 26 Q523 0 455 0 L170 0 Q102 0 78 26 Q54 52 66 111 Q78 165 111.5 192 Q145 219 200 219 L216 219 L319 705 L303 705 Q248 705 226 733 Q204 761 216 815 Q227 869 261 896.5 Q295 924 350 924 L366 924 L373 956 Q410 1131 528 1220 Q646 1309 841 1309 L1273 1309 Q1301 1309 1314.5 1297.5 Q1328 1286 1324 1266 L1101 219 Z " />
<glyph glyph-name="daggerdbl" unicode="&#x2021;" horiz-adv-x="1229" d="M931 924 L1118 924 Q1140 924 1153 894 Q1166 864 1157 821 Q1148 777 1122.5 747 Q1097 717 1074 717 L887 717 L835 473 L1028 473 Q1051 473 1063.5 443 Q1076 413 1067 371 Q1058 327 1032.5 296.5 Q1007 266 984 266 L791 266 L747 61 Q738 18 703 -6.5 Q668 -31 614 -31 Q559 -31 531.5 -5.5 Q504 20 512 61 L556 266 L369 266 Q345 266 332.5 295 Q320 324 330 367 Q339 411 365 442 Q391 473 413 473 L600 473 L652 717 L459 717 Q435 717 422.5 746.5 Q410 776 420 819 Q429 863 454.5 893.5 Q480 924 503 924 L696 924 L739 1128 Q748 1171 783 1195 Q818 1219 873 1219 Q928 1219 955.5 1193.5 Q983 1168 974 1128 L931 924 Z " />
<glyph glyph-name="middot" unicode="&#xb7;" horiz-adv-x="1229" d="M791 834 Q876 834 922 774.5 Q968 715 951 631 Q933 546 861 487 Q789 428 704 428 Q620 428 574 487 Q528 546 546 631 Q563 715 635 774.5 Q707 834 791 834 Z " />
<glyph glyph-name="perthousand" unicode="&#x2030;" horiz-adv-x="1229" d="M1141 360 Q1080 360 1036 327 Q992 294 981 240 Q969 185 999 152 Q1029 119 1090 119 Q1150 119 1193.5 152.5 Q1237 186 1249 240 Q1260 293 1230 326.5 Q1200 360 1141 360 Z M510 360 Q449 360 405 327 Q361 294 350 240 Q338 185 368 152 Q398 119 459 119 Q519 119 562.5 152.5 Q606 186 618 240 Q629 293 599 326.5 Q569 360 510 360 Z M1173 512 Q1299 512 1366 434 Q1433 356 1409 240 Q1383 122 1284 44.5 Q1185 -33 1057 -33 Q929 -33 862 44.5 Q795 122 821 240 Q845 356 945.5 434 Q1046 512 1173 512 Z M542 512 Q668 512 735 434 Q802 356 778 240 Q752 122 653 44.5 Q554 -33 426 -33 Q298 -33 231 44.5 Q164 122 190 240 Q214 356 314.5 434 Q415 512 542 512 Z M824 707 L95 438 Q86 435 79 433.5 Q72 432 66 432 Q41 432 27.5 453.5 Q14 475 21 504 Q24 520 38 534.5 Q52 549 73 557 L801 823 Q810 827 817 828 Q824 829 831 829 Q857 829 870 810 Q883 791 876 762 Q873 745 858 729.5 Q843 714 824 707 Z M446 1145 Q385 1145 340.5 1111 Q296 1077 285 1022 Q273 968 303 934.5 Q333 901 394 901 Q454 901 497.5 934.5 Q541 968 553 1022 Q564 1075 534 1110 Q504 1145 446 1145 Z M478 1294 Q604 1294 670.5 1216 Q737 1138 713 1022 Q688 905 588.5 827.5 Q489 750 362 750 Q234 750 167 827 Q100 904 125 1022 Q150 1139 250.5 1216.5 Q351 1294 478 1294 Z " />
<glyph glyph-name="Acircumflex" unicode="&#xc2;" horiz-adv-x="1229" d="M1164 219 L1181 219 Q1235 219 1257 191.5 Q1279 164 1268 111 Q1256 52 1221 26 Q1186 0 1118 0 L817 0 Q748 0 724 25.5 Q700 51 713 111 Q725 169 759.5 194 Q794 219 863 219 L898 219 L882 336 L450 336 L382 219 L417 219 Q485 219 509 193.5 Q533 168 521 111 Q509 52 474 26 Q439 0 371 0 L113 0 Q44 0 21 26 Q-2 52 9 111 Q20 164 54 191.5 Q88 219 142 219 L159 219 L586 965 L506 965 Q438 965 414 991 Q390 1017 402 1075 Q415 1134 450 1160 Q485 1186 553 1186 L928 1186 Q1017 1186 1032 1090 L1032 1087 L1164 219 Z M799 965 L564 543 L854 543 L799 965 Z M871 1448 L556 1314 Q548 1312 544.5 1311 Q541 1310 539 1310 Q521 1310 509.5 1325.5 Q498 1341 502 1360 Q504 1368 509 1375 Q514 1382 520 1386 L843 1605 Q857 1615 873.5 1619.5 Q890 1624 908 1624 Q927 1624 941.5 1619.5 Q956 1615 966 1605 L1196 1386 Q1201 1382 1203 1375.5 Q1205 1369 1204 1362 Q1200 1343 1181.5 1326.5 Q1163 1310 1146 1310 Q1141 1310 1133 1312 Q1130 1314 1129 1314 L871 1448 Z " />
<glyph glyph-name="Ecircumflex" unicode="&#xca;" horiz-adv-x="1229" d="M1108 975 L643 975 L588 719 L764 719 L767 731 Q779 788 810 816 Q841 844 892 844 Q937 844 960 818.5 Q983 793 975 754 Q974 752 973 741 Q972 730 969 719 L925 512 Q911 445 881 416 Q851 387 797 387 Q746 387 725.5 414 Q705 441 717 494 L720 512 L544 512 L481 213 L946 213 L971 332 Q985 399 1017 428 Q1049 457 1107 457 Q1164 457 1182.5 428.5 Q1201 400 1186 332 L1135 90 Q1123 36 1098.5 18 Q1074 0 1012 0 L193 0 Q127 0 104 26 Q81 52 93 111 Q104 164 137 191.5 Q170 219 222 219 L239 219 L398 965 L381 965 Q330 965 308.5 993.5 Q287 1022 298 1075 Q310 1133 345 1159.5 Q380 1186 445 1186 L1264 1186 Q1325 1186 1342.5 1167.5 Q1360 1149 1348 1094 L1300 870 Q1286 802 1254.5 772.5 Q1223 743 1167 743 Q1109 743 1090 773 Q1071 803 1085 870 L1108 975 Z M950 1448 L635 1314 Q627 1312 623.5 1311 Q620 1310 618 1310 Q600 1310 588.5 1325.5 Q577 1341 581 1360 Q583 1368 588 1375 Q593 1382 599 1386 L922 1605 Q936 1615 952.5 1619.5 Q969 1624 987 1624 Q1006 1624 1020.5 1619.5 Q1035 1615 1045 1605 L1275 1386 Q1280 1382 1282 1375.5 Q1284 1369 1283 1362 Q1279 1343 1260.5 1326.5 Q1242 1310 1225 1310 Q1220 1310 1212 1312 Q1209 1314 1208 1314 L950 1448 Z " />
<glyph glyph-name="Aacute" unicode="&#xc1;" horiz-adv-x="1229" d="M1164 219 L1181 219 Q1235 219 1257 191.5 Q1279 164 1268 111 Q1256 52 1221 26 Q1186 0 1118 0 L817 0 Q748 0 724 25.5 Q700 51 713 111 Q725 169 759.5 194 Q794 219 863 219 L898 219 L882 336 L450 336 L382 219 L417 219 Q485 219 509 193.5 Q533 168 521 111 Q509 52 474 26 Q439 0 371 0 L113 0 Q44 0 21 26 Q-2 52 9 111 Q20 164 54 191.5 Q88 219 142 219 L159 219 L586 965 L506 965 Q438 965 414 991 Q390 1017 402 1075 Q415 1134 450 1160 Q485 1186 553 1186 L928 1186 Q1017 1186 1032 1090 L1032 1087 L1164 219 Z M799 965 L564 543 L854 543 L799 965 Z M655 1280 L637 1357 L1174 1636 Q1177 1638 1182 1639 Q1187 1640 1191 1640 Q1204 1640 1214.5 1632 Q1225 1624 1229 1609 L1252 1523 Q1252 1522 1253 1519 Q1253 1512 1252 1507 Q1249 1493 1240 1482 Q1231 1471 1217 1466 L655 1280 Z " />
<glyph glyph-name="Edieresis" unicode="&#xcb;" horiz-adv-x="1229" d="M1108 975 L643 975 L588 719 L764 719 L767 731 Q779 788 810 816 Q841 844 892 844 Q937 844 960 818.5 Q983 793 975 754 Q974 752 973 741 Q972 730 969 719 L925 512 Q911 445 881 416 Q851 387 797 387 Q746 387 725.5 414 Q705 441 717 494 L720 512 L544 512 L481 213 L946 213 L971 332 Q985 399 1017 428 Q1049 457 1107 457 Q1164 457 1182.5 428.5 Q1201 400 1186 332 L1135 90 Q1123 36 1098.5 18 Q1074 0 1012 0 L193 0 Q127 0 104 26 Q81 52 93 111 Q104 164 137 191.5 Q170 219 222 219 L239 219 L398 965 L381 965 Q330 965 308.5 993.5 Q287 1022 298 1075 Q310 1133 345 1159.5 Q380 1186 445 1186 L1264 1186 Q1325 1186 1342.5 1167.5 Q1360 1149 1348 1094 L1300 870 Q1286 802 1254.5 772.5 Q1223 743 1167 743 Q1109 743 1090 773 Q1071 803 1085 870 L1108 975 Z M1230 1589 Q1281 1589 1310 1551 Q1339 1513 1328 1462 Q1316 1407 1273 1371 Q1230 1335 1176 1335 Q1122 1335 1092 1371.5 Q1062 1408 1074 1462 Q1084 1511 1132 1550 Q1180 1589 1230 1589 Z M735 1589 Q785 1589 814.5 1551 Q844 1513 833 1462 Q821 1407 778 1371 Q735 1335 681 1335 Q627 1335 597 1371.5 Q567 1408 579 1462 Q589 1511 636.5 1550 Q684 1589 735 1589 Z " />
<glyph glyph-name="Egrave" unicode="&#xc8;" horiz-adv-x="1229" d="M1108 975 L643 975 L588 719 L764 719 L767 731 Q779 788 810 816 Q841 844 892 844 Q937 844 960 818.5 Q983 793 975 754 Q974 752 973 741 Q972 730 969 719 L925 512 Q911 445 881 416 Q851 387 797 387 Q746 387 725.5 414 Q705 441 717 494 L720 512 L544 512 L481 213 L946 213 L971 332 Q985 399 1017 428 Q1049 457 1107 457 Q1164 457 1182.5 428.5 Q1201 400 1186 332 L1135 90 Q1123 36 1098.5 18 Q1074 0 1012 0 L193 0 Q127 0 104 26 Q81 52 93 111 Q104 164 137 191.5 Q170 219 222 219 L239 219 L398 965 L381 965 Q330 965 308.5 993.5 Q287 1022 298 1075 Q310 1133 345 1159.5 Q380 1186 445 1186 L1264 1186 Q1325 1186 1342.5 1167.5 Q1360 1149 1348 1094 L1300 870 Q1286 802 1254.5 772.5 Q1223 743 1167 743 Q1109 743 1090 773 Q1071 803 1085 870 L1108 975 Z M1146 1357 L1095 1280 L612 1466 Q601 1471 596 1482 Q591 1493 594 1507 Q595 1512 599 1519 Q601 1522 602 1523 L661 1609 Q671 1624 685 1632 Q699 1640 713 1640 Q717 1640 720.5 1639 Q724 1638 728 1636 L1146 1357 Z " />
<glyph glyph-name="Iacute" unicode="&#xcd;" horiz-adv-x="1229" d="M948 965 L789 219 L957 219 Q1025 219 1049 193.5 Q1073 168 1061 111 Q1049 53 1013.5 26.5 Q978 0 911 0 L317 0 Q249 0 225 26 Q201 52 213 111 Q225 169 259.5 194 Q294 219 363 219 L531 219 L690 965 L522 965 Q454 965 430 991 Q406 1017 418 1075 Q431 1134 465 1159 Q499 1184 568 1184 L1162 1184 Q1233 1184 1256 1159 Q1279 1134 1266 1075 Q1254 1017 1219.5 991 Q1185 965 1116 965 L948 965 Z M705 1280 L687 1357 L1224 1636 Q1227 1638 1232 1639 Q1237 1640 1241 1640 Q1254 1640 1264.5 1632 Q1275 1624 1279 1609 L1302 1523 Q1302 1522 1303 1519 Q1303 1512 1302 1507 Q1299 1493 1290 1482 Q1281 1471 1267 1466 L705 1280 Z " />
<glyph glyph-name="Icircumflex" unicode="&#xce;" horiz-adv-x="1229" d="M948 965 L789 219 L957 219 Q1025 219 1049 193.5 Q1073 168 1061 111 Q1049 53 1013.5 26.5 Q978 0 911 0 L317 0 Q249 0 225 26 Q201 52 213 111 Q225 169 259.5 194 Q294 219 363 219 L531 219 L690 965 L522 965 Q454 965 430 991 Q406 1017 418 1075 Q431 1134 465 1159 Q499 1184 568 1184 L1162 1184 Q1233 1184 1256 1159 Q1279 1134 1266 1075 Q1254 1017 1219.5 991 Q1185 965 1116 965 L948 965 Z M921 1448 L606 1314 Q598 1312 594.5 1311 Q591 1310 589 1310 Q571 1310 559.5 1325.5 Q548 1341 552 1360 Q554 1368 559 1375 Q564 1382 570 1386 L893 1605 Q907 1615 923.5 1619.5 Q940 1624 958 1624 Q977 1624 991.5 1619.5 Q1006 1615 1016 1605 L1246 1386 Q1251 1382 1253 1375.5 Q1255 1369 1254 1362 Q1250 1343 1231.5 1326.5 Q1213 1310 1196 1310 Q1191 1310 1183 1312 Q1180 1314 1179 1314 L921 1448 Z " />
<glyph glyph-name="Idieresis" unicode="&#xcf;" horiz-adv-x="1229" d="M948 965 L789 219 L957 219 Q1025 219 1049 193.5 Q1073 168 1061 111 Q1049 53 1013.5 26.5 Q978 0 911 0 L317 0 Q249 0 225 26 Q201 52 213 111 Q225 169 259.5 194 Q294 219 363 219 L531 219 L690 965 L522 965 Q454 965 430 991 Q406 1017 418 1075 Q431 1134 465 1159 Q499 1184 568 1184 L1162 1184 Q1233 1184 1256 1159 Q1279 1134 1266 1075 Q1254 1017 1219.5 991 Q1185 965 1116 965 L948 965 Z M1201 1589 Q1252 1589 1281 1551 Q1310 1513 1299 1462 Q1287 1407 1244 1371 Q1201 1335 1147 1335 Q1093 1335 1063 1371.5 Q1033 1408 1045 1462 Q1055 1511 1103 1550 Q1151 1589 1201 1589 Z M706 1589 Q756 1589 785.5 1551 Q815 1513 804 1462 Q792 1407 749 1371 Q706 1335 652 1335 Q598 1335 568 1371.5 Q538 1408 550 1462 Q560 1511 607.5 1550 Q655 1589 706 1589 Z " />
<glyph glyph-name="Igrave" unicode="&#xcc;" horiz-adv-x="1229" d="M948 965 L789 219 L957 219 Q1025 219 1049 193.5 Q1073 168 1061 111 Q1049 53 1013.5 26.5 Q978 0 911 0 L317 0 Q249 0 225 26 Q201 52 213 111 Q225 169 259.5 194 Q294 219 363 219 L531 219 L690 965 L522 965 Q454 965 430 991 Q406 1017 418 1075 Q431 1134 465 1159 Q499 1184 568 1184 L1162 1184 Q1233 1184 1256 1159 Q1279 1134 1266 1075 Q1254 1017 1219.5 991 Q1185 965 1116 965 L948 965 Z M1117 1357 L1066 1280 L583 1466 Q572 1471 567 1482 Q562 1493 565 1507 Q566 1512 570 1519 Q572 1522 573 1523 L632 1609 Q642 1624 656 1632 Q670 1640 684 1640 Q688 1640 691.5 1639 Q695 1638 699 1636 L1117 1357 Z " />
<glyph glyph-name="Oacute" unicode="&#xd3;" horiz-adv-x="1229" d="M823 987 Q694 987 598.5 883 Q503 779 464 594 Q424 409 476 304 Q528 199 656 199 Q785 199 881 303.5 Q977 408 1017 594 Q1056 779 1004.5 883 Q953 987 823 987 Z M873 1219 Q1119 1219 1240.5 1043 Q1362 867 1304 594 Q1245 319 1050 144 Q855 -31 607 -31 Q362 -31 239.5 145.5 Q117 322 175 594 Q233 868 429 1043.5 Q625 1219 873 1219 Z M705 1280 L687 1357 L1224 1636 Q1227 1638 1232 1639 Q1237 1640 1241 1640 Q1254 1640 1264.5 1632 Q1275 1624 1279 1609 L1302 1523 Q1302 1522 1303 1519 Q1303 1512 1302 1507 Q1299 1493 1290 1482 Q1281 1471 1267 1466 L705 1280 Z " />
<glyph glyph-name="Ocircumflex" unicode="&#xd4;" horiz-adv-x="1229" d="M823 987 Q694 987 598.5 883 Q503 779 464 594 Q424 409 476 304 Q528 199 656 199 Q785 199 881 303.5 Q977 408 1017 594 Q1056 779 1004.5 883 Q953 987 823 987 Z M873 1219 Q1119 1219 1240.5 1043 Q1362 867 1304 594 Q1245 319 1050 144 Q855 -31 607 -31 Q362 -31 239.5 145.5 Q117 322 175 594 Q233 868 429 1043.5 Q625 1219 873 1219 Z M921 1448 L606 1314 Q598 1312 594.5 1311 Q591 1310 589 1310 Q571 1310 559.5 1325.5 Q548 1341 552 1360 Q554 1368 559 1375 Q564 1382 570 1386 L893 1605 Q907 1615 923.5 1619.5 Q940 1624 958 1624 Q977 1624 991.5 1619.5 Q1006 1615 1016 1605 L1246 1386 Q1251 1382 1253 1375.5 Q1255 1369 1254 1362 Q1250 1343 1231.5 1326.5 Q1213 1310 1196 1310 Q1191 1310 1183 1312 Q1180 1314 1179 1314 L921 1448 Z " />
<glyph glyph-name="apple" unicode="&#xf8ff;" horiz-adv-x="1618" d="M1094 1217 Q1094 1223 1095.5 1230.5 Q1097 1238 1100 1253 Q1126 1377 1243.5 1482.5 Q1361 1588 1508 1614 Q1506 1603 1504 1590.5 Q1502 1578 1496 1552 Q1469 1421 1343.5 1317.5 Q1218 1214 1118 1214 L1110 1214 Q1107 1214 1103 1214.5 Q1099 1215 1094 1217 Z M1590 403 Q1424 156 1312.5 60.5 Q1201 -35 1088 -35 Q1038 -35 963.5 -2 Q889 31 848 31 Q803 31 710 -2 Q617 -35 576 -35 Q512 -35 457 9 Q402 53 355 141 Q283 281 260.5 436.5 Q238 592 269 737 Q316 956 471 1094.5 Q626 1233 823 1233 Q891 1233 970.5 1198 Q1050 1163 1087 1163 Q1121 1163 1216 1198 Q1311 1233 1376 1233 Q1486 1233 1565.5 1193 Q1645 1153 1700 1069 Q1584 1004 1517.5 923.5 Q1451 843 1429 741 Q1405 628 1446.5 541 Q1488 454 1590 403 Z " />
<glyph glyph-name="Ograve" unicode="&#xd2;" horiz-adv-x="1229" d="M823 987 Q694 987 598.5 883 Q503 779 464 594 Q424 409 476 304 Q528 199 656 199 Q785 199 881 303.5 Q977 408 1017 594 Q1056 779 1004.5 883 Q953 987 823 987 Z M873 1219 Q1119 1219 1240.5 1043 Q1362 867 1304 594 Q1245 319 1050 144 Q855 -31 607 -31 Q362 -31 239.5 145.5 Q117 322 175 594 Q233 868 429 1043.5 Q625 1219 873 1219 Z M1117 1357 L1066 1280 L583 1466 Q572 1471 567 1482 Q562 1493 565 1507 Q566 1512 570 1519 Q572 1522 573 1523 L632 1609 Q642 1624 656 1632 Q670 1640 684 1640 Q688 1640 691.5 1639 Q695 1638 699 1636 L1117 1357 Z " />
<glyph glyph-name="Uacute" unicode="&#xda;" horiz-adv-x="1229" d="M613 965 L501 442 Q472 303 508 244.5 Q544 186 657 186 Q770 186 831.5 245 Q893 304 922 442 L1034 965 L1018 965 Q965 965 943.5 993 Q922 1021 933 1075 Q946 1134 980 1160 Q1014 1186 1081 1186 L1331 1186 Q1399 1186 1422 1160 Q1445 1134 1432 1075 Q1421 1021 1387.5 993 Q1354 965 1301 965 L1284 965 L1173 446 Q1120 194 987.5 81.5 Q855 -31 614 -31 Q362 -31 276 79.5 Q190 190 244 446 L355 965 L338 965 Q284 965 262 993 Q240 1021 251 1075 Q264 1134 299 1160 Q334 1186 402 1186 L660 1186 Q727 1186 751.5 1160 Q776 1134 763 1075 Q752 1021 717.5 993 Q683 965 629 965 L613 965 Z M705 1280 L687 1357 L1224 1636 Q1227 1638 1232 1639 Q1237 1640 1241 1640 Q1254 1640 1264.5 1632 Q1275 1624 1279 1609 L1302 1523 Q1302 1522 1303 1519 Q1303 1512 1302 1507 Q1299 1493 1290 1482 Q1281 1471 1267 1466 L705 1280 Z " />
<glyph glyph-name="Ucircumflex" unicode="&#xdb;" horiz-adv-x="1229" d="M613 965 L501 442 Q472 303 508 244.5 Q544 186 657 186 Q770 186 831.5 245 Q893 304 922 442 L1034 965 L1018 965 Q965 965 943.5 993 Q922 1021 933 1075 Q946 1134 980 1160 Q1014 1186 1081 1186 L1331 1186 Q1399 1186 1422 1160 Q1445 1134 1432 1075 Q1421 1021 1387.5 993 Q1354 965 1301 965 L1284 965 L1173 446 Q1120 194 987.5 81.5 Q855 -31 614 -31 Q362 -31 276 79.5 Q190 190 244 446 L355 965 L338 965 Q284 965 262 993 Q240 1021 251 1075 Q264 1134 299 1160 Q334 1186 402 1186 L660 1186 Q727 1186 751.5 1160 Q776 1134 763 1075 Q752 1021 717.5 993 Q683 965 629 965 L613 965 Z M921 1448 L606 1314 Q598 1312 594.5 1311 Q591 1310 589 1310 Q571 1310 559.5 1325.5 Q548 1341 552 1360 Q554 1368 559 1375 Q564 1382 570 1386 L893 1605 Q907 1615 923.5 1619.5 Q940 1624 958 1624 Q977 1624 991.5 1619.5 Q1006 1615 1016 1605 L1246 1386 Q1251 1382 1253 1375.5 Q1255 1369 1254 1362 Q1250 1343 1231.5 1326.5 Q1213 1310 1196 1310 Q1191 1310 1183 1312 Q1180 1314 1179 1314 L921 1448 Z " />
<glyph glyph-name="Ugrave" unicode="&#xd9;" horiz-adv-x="1229" d="M613 965 L501 442 Q472 303 508 244.5 Q544 186 657 186 Q770 186 831.5 245 Q893 304 922 442 L1034 965 L1018 965 Q965 965 943.5 993 Q922 1021 933 1075 Q946 1134 980 1160 Q1014 1186 1081 1186 L1331 1186 Q1399 1186 1422 1160 Q1445 1134 1432 1075 Q1421 1021 1387.5 993 Q1354 965 1301 965 L1284 965 L1173 446 Q1120 194 987.5 81.5 Q855 -31 614 -31 Q362 -31 276 79.5 Q190 190 244 446 L355 965 L338 965 Q284 965 262 993 Q240 1021 251 1075 Q264 1134 299 1160 Q334 1186 402 1186 L660 1186 Q727 1186 751.5 1160 Q776 1134 763 1075 Q752 1021 717.5 993 Q683 965 629 965 L613 965 Z M1117 1357 L1066 1280 L583 1466 Q572 1471 567 1482 Q562 1493 565 1507 Q566 1512 570 1519 Q572 1522 573 1523 L632 1609 Q642 1624 656 1632 Q670 1640 684 1640 Q688 1640 691.5 1639 Q695 1638 699 1636 L1117 1357 Z " />
<glyph glyph-name="dotlessi" unicode="&#x131;" horiz-adv-x="1229" d="M800 219 L1015 219 Q1084 219 1107.5 194 Q1131 169 1119 111 Q1107 52 1072 26 Q1037 0 969 0 L293 0 Q225 0 201 26 Q177 52 189 111 Q201 169 235 194 Q269 219 339 219 L554 219 L657 705 L544 705 Q477 705 453.5 730.5 Q430 756 443 815 Q455 874 488.5 899 Q522 924 591 924 L892 924 Q920 924 932.5 912.5 Q945 901 941 881 L800 219 Z " />
<glyph glyph-name="circumflex" unicode="&#x2c6;" horiz-adv-x="1229" d="M864 1178 L549 1044 Q541 1042 537.5 1041 Q534 1040 532 1040 Q514 1040 502.5 1055.5 Q491 1071 495 1090 Q497 1098 502 1105 Q507 1112 513 1116 L836 1335 Q850 1345 866.5 1349.5 Q883 1354 901 1354 Q920 1354 934.5 1349.5 Q949 1345 959 1335 L1189 1116 Q1194 1112 1196 1105.5 Q1198 1099 1197 1092 Q1193 1073 1174.5 1056.5 Q1156 1040 1139 1040 Q1134 1040 1126 1042 Q1123 1044 1122 1044 L864 1178 Z " />
<glyph glyph-name="tilde" unicode="&#x2dc;" horiz-adv-x="1229" d="M864 1116 L757 1147 Q735 1153 714 1156 Q693 1159 676 1159 Q632 1159 585.5 1125.5 Q539 1092 521 1092 Q501 1092 493.5 1102 Q486 1112 490 1133 Q503 1192 584 1246 Q665 1300 757 1300 Q787 1300 816.5 1296.5 Q846 1293 875 1286 L981 1255 Q1014 1247 1030.5 1244 Q1047 1241 1062 1241 Q1106 1241 1152.5 1276 Q1199 1311 1216 1311 Q1236 1311 1244 1300 Q1252 1289 1248 1268 Q1235 1208 1154.5 1154 Q1074 1100 981 1100 Q954 1100 925 1104 Q896 1108 864 1116 Z " />
<glyph glyph-name="overscore" unicode="&#xaf;" horiz-adv-x="1229" d="M564 1260 L1199 1260 Q1212 1260 1218.5 1248.5 Q1225 1237 1222 1221 L1209 1159 Q1206 1144 1194 1132 Q1182 1120 1170 1120 L535 1120 Q522 1120 515 1131.5 Q508 1143 512 1159 L525 1221 Q528 1237 539.5 1248.5 Q551 1260 564 1260 Z " />
<glyph glyph-name="breve" unicode="&#x2d8;" horiz-adv-x="1229" d="M509 1311 Q513 1331 523 1341.5 Q533 1352 547 1352 Q573 1352 596 1319 Q619 1286 637 1274 Q666 1254 725.5 1244.5 Q785 1235 876 1235 Q968 1235 1031.5 1244.5 Q1095 1254 1132 1274 Q1154 1285 1192 1318.5 Q1230 1352 1256 1352 Q1271 1352 1275.5 1342 Q1280 1332 1275 1311 Q1256 1219 1132.5 1151 Q1009 1083 844 1083 Q680 1083 585 1151.5 Q490 1220 509 1311 Z " />
<glyph glyph-name="dotaccent" unicode="&#x2d9;" horiz-adv-x="1229" d="M899 1341 Q955 1341 986.5 1302 Q1018 1263 1006 1208 Q994 1150 946.5 1110.5 Q899 1071 841 1071 Q785 1071 754 1111 Q723 1151 735 1208 Q747 1262 796 1301.5 Q845 1341 899 1341 Z " />
<glyph glyph-name="ring" unicode="&#x2da;" horiz-adv-x="1229" d="M916 1421 Q864 1421 818.5 1384.5 Q773 1348 762 1296 Q750 1242 779.5 1204.5 Q809 1167 862 1167 Q914 1167 959.5 1205.5 Q1005 1244 1016 1296 Q1027 1348 998 1384.5 Q969 1421 916 1421 Z M946 1565 Q1059 1565 1121 1485.5 Q1183 1406 1160 1294 Q1136 1181 1040 1102.5 Q944 1024 831 1024 Q718 1024 656.5 1102.5 Q595 1181 619 1294 Q642 1406 738 1485.5 Q834 1565 946 1565 Z " />
<glyph glyph-name="cedilla" unicode="&#xb8;" horiz-adv-x="1229" d="M551 0 L637 0 L608 -133 Q612 -132 621 -131 Q666 -125 682 -125 Q763 -125 804.5 -173 Q846 -221 829 -297 Q811 -383 736.5 -430 Q662 -477 545 -477 Q442 -477 361 -442 Q280 -407 289 -365 Q293 -348 307 -338 Q321 -328 342 -328 Q353 -328 413.5 -353.5 Q474 -379 529 -379 Q575 -379 602.5 -358 Q630 -337 639 -295 Q647 -258 625 -238.5 Q603 -219 555 -219 Q548 -219 535 -220.5 Q522 -222 503 -225 L551 0 Z " />
<glyph glyph-name="hungarumlaut" unicode="&#x2dd;" horiz-adv-x="1229" d="M947 1030 L902 1085 L1239 1341 Q1258 1355 1266 1359.5 Q1274 1364 1280 1364 Q1290 1364 1298 1359 Q1306 1354 1312 1346 L1353 1280 Q1356 1274 1357.5 1266.5 Q1359 1259 1358 1253 Q1356 1243 1348 1235 Q1340 1227 1326 1219 L947 1030 Z M611 1030 L568 1085 L903 1341 Q919 1354 929 1359 Q939 1364 946 1364 Q956 1364 964 1359 Q972 1354 978 1346 L1020 1280 Q1022 1274 1023.5 1266.5 Q1025 1259 1024 1253 Q1022 1243 1014 1235 Q1006 1227 992 1219 L611 1030 Z " />
<glyph glyph-name="ogonek" unicode="&#x2db;" horiz-adv-x="1229" d="M782 31 L840 31 Q738 -41 686 -104 Q634 -167 620 -233 Q609 -283 625.5 -310.5 Q642 -338 682 -338 Q714 -338 741 -323.5 Q768 -309 807 -268 L837 -289 Q776 -379 707.5 -423 Q639 -467 562 -467 Q483 -467 446.5 -426 Q410 -385 425 -315 Q444 -225 532.5 -139.5 Q621 -54 782 31 Z " />
<glyph glyph-name="caron" unicode="&#x2c7;" horiz-adv-x="1229" d="M873 1223 L1188 1354 Q1197 1356 1200 1357 Q1203 1358 1206 1358 Q1224 1358 1235.5 1342.5 Q1247 1327 1243 1309 Q1241 1301 1236 1293.5 Q1231 1286 1224 1282 L902 1065 Q886 1055 869 1049.5 Q852 1044 835 1044 Q818 1044 804 1049.5 Q790 1055 779 1065 L548 1282 Q544 1286 542 1293.5 Q540 1301 542 1309 Q546 1327 563.5 1342.5 Q581 1358 599 1358 Q601 1358 604.5 1357 Q608 1356 615 1354 L873 1223 Z " />
<glyph glyph-name="Lslash" unicode="&#x141;" horiz-adv-x="1229" d="M711 965 L660 727 L897 860 Q912 868 925 872.5 Q938 877 950 877 Q980 877 997.5 850.5 Q1015 824 1007 788 Q1001 759 957 735 Q952 733 950 731 L622 547 L552 219 L1007 219 L1045 397 Q1060 466 1090.5 495 Q1121 524 1178 524 Q1235 524 1254.5 494.5 Q1274 465 1260 397 L1195 90 Q1183 36 1158.5 18 Q1134 0 1071 0 L164 0 Q99 0 76.5 26 Q54 52 66 111 Q78 169 111 194 Q144 219 210 219 L298 219 L340 418 L270 379 Q256 371 243 366.5 Q230 362 219 362 Q190 362 172 388.5 Q154 415 160 444 Q164 462 176.5 476 Q189 490 218 506 L379 598 L457 965 L369 965 Q304 965 281.5 991 Q259 1017 271 1075 Q283 1133 318.5 1159.5 Q354 1186 418 1186 L844 1186 Q908 1186 931.5 1159.5 Q955 1133 943 1075 Q931 1017 896.5 991 Q862 965 797 965 L711 965 Z " />
<glyph glyph-name="lslash" unicode="&#x142;" horiz-adv-x="1229" d="M911 823 L1133 950 Q1135 951 1138 952 Q1166 971 1185 971 Q1209 971 1225.5 946.5 Q1242 922 1237 897 Q1234 883 1223.5 871.5 Q1213 860 1182 842 L878 664 L783 219 L998 219 Q1067 219 1089.5 194 Q1112 169 1100 111 Q1088 52 1054 26 Q1020 0 952 0 L274 0 Q207 0 184 26 Q161 52 173 111 Q186 170 218.5 194.5 Q251 219 320 219 L535 219 L601 528 L379 399 Q361 388 350 384.5 Q339 381 328 381 Q304 381 287.5 405 Q271 429 276 455 Q279 469 289 480 Q299 491 331 510 L635 688 L720 1087 L610 1087 Q542 1087 518 1113.5 Q494 1140 506 1198 Q519 1257 553.5 1283 Q588 1309 657 1309 L956 1309 Q984 1309 997 1297.5 Q1010 1286 1006 1266 L911 823 Z " />
<glyph glyph-name="Scaron" unicode="&#x160;" horiz-adv-x="1229" d="M1111 1163 Q1133 1195 1154.5 1207 Q1176 1219 1215 1219 Q1273 1219 1284.5 1197.5 Q1296 1176 1285 1112 L1248 920 L1246 909 Q1233 850 1204.5 826.5 Q1176 803 1120 803 Q1049 803 1030 879 Q1028 890 1026 897 Q1008 959 962 990.5 Q916 1022 844 1022 Q754 1022 689.5 980.5 Q625 939 611 874 Q592 782 834 729 Q876 720 899 715 Q1083 673 1150.5 587 Q1218 501 1186 352 Q1147 168 1001 68.5 Q855 -31 622 -31 Q531 -31 462 -19 Q393 -7 331 18 Q310 -8 286.5 -19.5 Q263 -31 226 -31 Q163 -31 143 -7 Q123 17 135 78 L181 313 L183 324 Q197 390 227 416 Q257 442 318 442 Q383 442 407 348 Q413 325 416 313 Q439 236 500.5 198 Q562 160 663 160 Q755 160 814 198 Q873 236 887 305 Q910 412 691 467 Q625 483 588 494 Q404 545 345.5 621.5 Q287 698 315 831 Q351 1002 503 1110.5 Q655 1219 859 1219 Q927 1219 989.5 1205 Q1052 1191 1111 1163 Z M930 1493 L1245 1624 Q1254 1626 1257 1627 Q1260 1628 1263 1628 Q1281 1628 1292.5 1612.5 Q1304 1597 1300 1579 Q1298 1571 1293 1563.5 Q1288 1556 1281 1552 L959 1335 Q943 1325 926 1319.5 Q909 1314 892 1314 Q875 1314 861 1319.5 Q847 1325 836 1335 L605 1552 Q601 1556 599 1563.5 Q597 1571 599 1579 Q603 1597 620.5 1612.5 Q638 1628 656 1628 Q658 1628 661.5 1627 Q665 1626 672 1624 L930 1493 Z " />
<glyph glyph-name="scaron" unicode="&#x161;" horiz-adv-x="1229" d="M352 14 Q322 -6 292.5 -16.5 Q263 -27 234 -27 Q191 -27 178.5 -4 Q166 19 179 82 L207 215 Q221 281 249 308.5 Q277 336 331 336 Q390 336 415 279 Q430 248 442 233 Q482 189 542 167 Q602 145 685 145 Q757 145 806 173 Q855 201 865 246 Q882 327 658 358 Q608 364 580 369 Q411 393 341 463.5 Q271 534 296 653 Q326 794 444.5 871 Q563 948 752 948 Q817 948 883.5 937.5 Q950 927 1017 905 Q1043 930 1069 942 Q1095 954 1124 954 Q1165 954 1181 928.5 Q1197 903 1187 852 L1160 729 Q1151 686 1124 662.5 Q1097 639 1057 639 Q1016 639 932 710.5 Q848 782 748 782 Q670 782 621.5 756.5 Q573 731 563 686 Q548 616 723 592 Q774 586 803 582 Q1022 549 1092.5 483.5 Q1163 418 1136 289 Q1104 138 975 55.5 Q846 -27 641 -27 Q561 -27 489 -16.5 Q417 -6 352 14 Z M873 1223 L1188 1354 Q1197 1356 1200 1357 Q1203 1358 1206 1358 Q1224 1358 1235.5 1342.5 Q1247 1327 1243 1309 Q1241 1301 1236 1293.5 Q1231 1286 1224 1282 L902 1065 Q886 1055 869 1049.5 Q852 1044 835 1044 Q818 1044 804 1049.5 Q790 1055 779 1065 L548 1282 Q544 1286 542 1293.5 Q540 1301 542 1309 Q546 1327 563.5 1342.5 Q581 1358 599 1358 Q601 1358 604.5 1357 Q608 1356 615 1354 L873 1223 Z " />
<glyph glyph-name="Zcaron" unicode="&#x17d;" horiz-adv-x="1229" d="M529 221 L865 221 L900 383 Q914 449 948 479.5 Q982 510 1042 510 Q1095 510 1115.5 481.5 Q1136 453 1123 395 L1121 383 L1056 125 Q1033 36 1007 18 Q981 0 911 0 L250 0 Q199 0 174.5 26 Q150 52 159 96 Q164 118 176.5 141.5 Q189 165 205 184 L910 967 L600 967 L564 825 Q546 756 513.5 727 Q481 698 422 698 Q369 698 348.5 727 Q328 756 340 813 L343 825 L403 1063 Q426 1151 450.5 1168.5 Q475 1186 549 1186 L1186 1186 Q1237 1186 1260.5 1159.5 Q1284 1133 1275 1090 Q1270 1067 1258 1042.5 Q1246 1018 1230 999 L529 221 Z M930 1493 L1245 1624 Q1254 1626 1257 1627 Q1260 1628 1263 1628 Q1281 1628 1292.5 1612.5 Q1304 1597 1300 1579 Q1298 1571 1293 1563.5 Q1288 1556 1281 1552 L959 1335 Q943 1325 926 1319.5 Q909 1314 892 1314 Q875 1314 861 1319.5 Q847 1325 836 1335 L605 1552 Q601 1556 599 1563.5 Q597 1571 599 1579 Q603 1597 620.5 1612.5 Q638 1628 656 1628 Q658 1628 661.5 1627 Q665 1626 672 1624 L930 1493 Z " />
<glyph glyph-name="zcaron" unicode="&#x17e;" horiz-adv-x="1229" d="M531 201 L857 201 L878 270 Q900 347 927.5 371 Q955 395 1009 395 Q1061 395 1078 366.5 Q1095 338 1081 270 L1050 123 Q1033 44 1009.5 22 Q986 0 909 0 L287 0 Q227 0 201.5 25.5 Q176 51 187 100 Q193 128 212 157 Q231 186 259 211 L853 723 L546 723 L536 676 Q523 612 491.5 580.5 Q460 549 409 549 Q353 549 335.5 577 Q318 605 333 676 L360 803 Q377 881 400 902.5 Q423 924 501 924 L1091 924 Q1153 924 1178 898 Q1203 872 1192 819 Q1186 793 1167 766 Q1148 739 1116 711 L531 201 Z M873 1223 L1188 1354 Q1197 1356 1200 1357 Q1203 1358 1206 1358 Q1224 1358 1235.5 1342.5 Q1247 1327 1243 1309 Q1241 1301 1236 1293.5 Q1231 1286 1224 1282 L902 1065 Q886 1055 869 1049.5 Q852 1044 835 1044 Q818 1044 804 1049.5 Q790 1055 779 1065 L548 1282 Q544 1286 542 1293.5 Q540 1301 542 1309 Q546 1327 563.5 1342.5 Q581 1358 599 1358 Q601 1358 604.5 1357 Q608 1356 615 1354 L873 1223 Z " />
<glyph glyph-name="brokenbar" unicode="&#xa6;" horiz-adv-x="1229" d="M661 674 L822 1432 L1015 1432 L854 674 L661 674 Z M443 -352 L604 408 L797 408 L636 -352 L443 -352 Z " />
<glyph glyph-name="Eth" unicode="&#xd0;" horiz-adv-x="1229" d="M239 219 L303 520 L272 520 Q232 520 215.5 540.5 Q199 561 207 598 Q215 637 237 654.5 Q259 672 304 672 L335 672 L398 965 L381 965 Q327 965 305 993 Q283 1021 294 1075 Q306 1133 342 1159.5 Q378 1186 445 1186 L633 1186 L692 1186 Q901 1186 994 1168 Q1087 1150 1146 1108 Q1252 1036 1288 902.5 Q1324 769 1287 594 Q1247 409 1144.5 270.5 Q1042 132 891 61 Q824 29 739 14.5 Q654 0 492 0 L381 0 L193 0 Q124 0 100.5 26 Q77 52 89 111 Q100 164 134 191.5 Q168 219 222 219 L239 219 Z M656 969 L593 672 L732 672 Q771 672 788.5 651.5 Q806 631 798 594 Q789 555 767 537.5 Q745 520 700 520 L561 520 L497 221 Q507 220 519 219.5 Q531 219 554 219 Q743 219 852.5 311.5 Q962 404 1003 596 Q1043 785 971.5 878 Q900 971 716 971 Q692 971 679.5 970.5 Q667 970 656 969 Z " />
<glyph glyph-name="eth" unicode="&#xf0;" horiz-adv-x="1229" d="M918 918 Q900 955 875 992.5 Q850 1030 816 1067 L601 981 Q581 973 568.5 970 Q556 967 545 967 Q527 967 516.5 986.5 Q506 1006 511 1030 Q515 1048 530 1061 Q545 1074 574 1085 L735 1147 Q693 1184 638.5 1220.5 Q584 1257 586 1270 Q590 1287 620.5 1298 Q651 1309 698 1309 Q750 1309 854 1243 Q887 1222 906 1210 L1092 1286 Q1112 1294 1124.5 1297 Q1137 1300 1148 1300 Q1166 1300 1177 1280.5 Q1188 1261 1182 1237 Q1179 1221 1164.5 1208.5 Q1150 1196 1119 1184 L1003 1135 Q1164 979 1225.5 810 Q1287 641 1248 461 Q1203 246 1026 110.5 Q849 -25 608 -25 Q366 -25 244 111 Q122 247 167 461 Q211 667 385.5 800.5 Q560 934 790 934 Q821 934 852.5 930 Q884 926 918 918 Z M653 186 Q770 186 862.5 264.5 Q955 343 981 463 Q1006 582 947 658.5 Q888 735 770 735 Q653 735 561 658.5 Q469 582 444 463 Q418 343 477 264.5 Q536 186 653 186 Z " />
<glyph glyph-name="Yacute" unicode="&#xdd;" horiz-adv-x="1229" d="M672 965 L758 639 L977 965 L973 965 Q928 965 910.5 993 Q893 1021 904 1075 Q917 1135 947 1160.5 Q977 1186 1036 1186 L1264 1186 Q1331 1186 1353.5 1160.5 Q1376 1135 1363 1075 Q1352 1021 1318.5 993 Q1285 965 1233 965 L1217 965 L841 465 L789 219 L920 219 Q988 219 1011 193.5 Q1034 168 1022 111 Q1010 53 974.5 26.5 Q939 0 872 0 L354 0 Q287 0 263.5 26 Q240 52 252 111 Q265 170 298 194.5 Q331 219 400 219 L531 219 L577 436 L406 965 L389 965 Q337 965 316 993 Q295 1021 306 1075 Q319 1135 352.5 1160.5 Q386 1186 453 1186 L715 1186 Q774 1186 794 1160 Q814 1134 801 1075 Q790 1022 760.5 993.5 Q731 965 686 965 L672 965 Z M705 1280 L687 1357 L1224 1636 Q1227 1638 1232 1639 Q1237 1640 1241 1640 Q1254 1640 1264.5 1632 Q1275 1624 1279 1609 L1302 1523 Q1302 1522 1303 1519 Q1303 1512 1302 1507 Q1299 1493 1290 1482 Q1281 1471 1267 1466 L705 1280 Z " />
<glyph glyph-name="yacute" unicode="&#xfd;" horiz-adv-x="1229" d="M587 705 L677 279 L956 705 L940 705 Q886 705 863.5 733 Q841 761 853 815 Q865 874 899 899 Q933 924 1003 924 L1238 924 Q1308 924 1331 898.5 Q1354 873 1342 815 Q1330 761 1296 733 Q1262 705 1208 705 L1191 705 L593 -178 L638 -178 Q706 -178 730 -204 Q754 -230 741 -289 Q729 -347 694 -373 Q659 -399 591 -399 L153 -399 Q84 -399 60.5 -373.5 Q37 -348 49 -289 Q62 -230 96.5 -204 Q131 -178 200 -178 L355 -178 L491 23 L333 705 L317 705 Q263 705 240.5 733 Q218 761 230 815 Q242 874 276.5 899 Q311 924 380 924 L634 924 Q703 924 726.5 898.5 Q750 873 738 815 Q726 761 691.5 733 Q657 705 604 705 L587 705 Z M648 1010 L630 1087 L1167 1366 Q1170 1368 1175 1369 Q1180 1370 1184 1370 Q1197 1370 1207.5 1362 Q1218 1354 1222 1339 L1245 1253 Q1245 1252 1246 1249 Q1246 1242 1245 1237 Q1242 1223 1233 1212 Q1224 1201 1210 1196 L648 1010 Z " />
<glyph glyph-name="Thorn" unicode="&#xde;" horiz-adv-x="1229" d="M474 999 L456 999 Q405 999 383 1023.5 Q361 1048 371 1094 Q379 1133 409 1159.5 Q439 1186 473 1186 L514 1186 L825 1186 L868 1186 Q901 1186 918.5 1159.5 Q936 1133 928 1094 Q917 1044 884 1021.5 Q851 999 785 999 L718 999 L698 907 L847 907 Q1052 907 1142 829 Q1232 751 1200 600 Q1167 443 1043 361 Q919 279 714 279 L565 279 L545 186 L647 186 L684 186 Q719 186 738 159 Q757 132 748 92 Q738 43 706.5 21.5 Q675 0 608 0 L262 0 L221 0 Q187 0 168.5 26.5 Q150 53 158 92 Q168 138 200 162 Q232 186 283 186 L301 186 L474 999 Z M658 719 L605 467 L730 467 Q835 467 889 497 Q943 527 956 592 Q970 658 929 688.5 Q888 719 783 719 L658 719 Z " />
<glyph glyph-name="thorn" unicode="&#xfe;" horiz-adv-x="1229" d="M513 -178 Q581 -178 605 -204 Q629 -230 616 -289 Q604 -347 569.5 -372 Q535 -397 466 -397 L42 -397 Q-26 -397 -48.5 -372.5 Q-71 -348 -59 -289 Q-46 -230 -12.5 -204 Q21 -178 89 -178 L148 -178 L417 1087 L401 1087 Q348 1087 326 1115.5 Q304 1144 315 1198 Q328 1258 362 1283.5 Q396 1309 464 1309 L626 1309 Q655 1309 668 1297.5 Q681 1286 677 1266 L581 815 Q646 880 726 914 Q806 948 895 948 Q1093 948 1198.5 816 Q1304 684 1262 487 Q1218 279 1058 142.5 Q898 6 699 6 Q618 6 552 28.5 Q486 51 443 94 L386 -178 L513 -178 Z M528 475 Q504 361 552.5 288 Q601 215 700 215 Q798 215 879 289 Q960 363 983 475 Q1008 589 959.5 662 Q911 735 811 735 Q712 735 632.5 662 Q553 589 528 475 Z " />
<glyph glyph-name="minus" unicode="&#x2212;" horiz-adv-x="1229" d="M1206 733 Q1253 733 1277.5 704.5 Q1302 676 1293 631 Q1283 586 1246.5 557 Q1210 528 1163 528 L290 528 Q243 528 218.5 557 Q194 586 204 631 Q213 673 250.5 703 Q288 733 333 733 L1206 733 Z " />
<glyph glyph-name="multiply" unicode="&#xd7;" horiz-adv-x="1229" d="M784 793 L1070 1028 Q1089 1044 1112 1053.5 Q1135 1063 1153 1063 Q1196 1063 1219.5 1034.5 Q1243 1006 1235 967 Q1230 945 1216.5 923 Q1203 901 1183 885 L897 649 L1090 406 Q1102 389 1106.5 368 Q1111 347 1107 328 Q1098 286 1062 255.5 Q1026 225 985 225 Q962 225 943.5 233.5 Q925 242 912 258 L721 504 L435 268 Q415 252 391.5 242.5 Q368 233 346 233 Q308 233 284.5 264 Q261 295 269 334 Q274 353 287.5 373.5 Q301 394 323 412 L606 647 L412 893 Q399 910 394 930 Q389 950 394 973 Q402 1011 441 1043 Q480 1075 519 1075 Q539 1075 558 1065.5 Q577 1056 591 1038 L784 793 Z " />
<glyph glyph-name="onesuperior" unicode="&#xb9;" horiz-adv-x="1229" d="M846 647 L885 647 Q963 647 983.5 631 Q1004 615 995 571 Q987 534 964.5 514 Q942 494 906 494 L537 494 Q501 494 486 513.5 Q471 533 479 571 Q488 616 515.5 631.5 Q543 647 620 647 L661 647 L761 1118 L711 1114 L699 1114 Q663 1114 645.5 1135 Q628 1156 635 1190 Q643 1225 668.5 1245 Q694 1265 736 1268 L900 1278 L914 1278 Q951 1278 962 1261.5 Q973 1245 963 1198 L846 647 Z " />
<glyph glyph-name="twosuperior" unicode="&#xb2;" horiz-adv-x="1229" d="M632 641 L914 641 L928 678 Q942 713 968.5 734.5 Q995 756 1026 756 Q1062 756 1080 731 Q1098 706 1089 668 Q1088 659 1086.5 654.5 Q1085 650 1083 647 L1049 551 Q1038 521 1011 507.5 Q984 494 934 494 L480 494 Q442 494 427 518 Q412 542 421 588 Q440 674 631 782 Q664 802 682 813 Q802 883 851.5 930.5 Q901 978 912 1028 Q921 1072 897 1101 Q873 1130 828 1130 Q773 1130 704 1096.5 Q635 1063 620 1063 Q591 1063 572.5 1085.5 Q554 1108 560 1137 Q573 1197 675 1245.5 Q777 1294 889 1294 Q1008 1294 1068.5 1222.5 Q1129 1151 1106 1042 Q1087 952 997.5 871.5 Q908 791 632 641 Z " />
<glyph glyph-name="threesuperior" unicode="&#xb3;" horiz-adv-x="1229" d="M959 911 Q1029 875 1058 823 Q1087 771 1074 707 Q1050 597 936.5 527 Q823 457 664 457 Q530 457 451.5 500 Q373 543 386 606 Q392 635 418 654.5 Q444 674 477 674 Q497 674 565 642 Q633 610 700 610 Q769 610 820 640 Q871 670 880 715 Q890 760 863 786.5 Q836 813 776 819 Q769 820 756 821 Q649 831 663 895 Q669 925 693.5 947 Q718 969 742 969 Q813 969 860.5 993 Q908 1017 917 1059 Q925 1098 899.5 1121.5 Q874 1145 823 1145 Q776 1145 702.5 1109 Q629 1073 603 1073 Q576 1073 560.5 1089 Q545 1105 550 1128 Q564 1191 662 1242.5 Q760 1294 873 1294 Q994 1294 1061 1234 Q1128 1174 1110 1087 Q1098 1035 1064.5 995.5 Q1031 956 959 911 Z " />
<glyph glyph-name="onehalf" unicode="&#xbd;" horiz-adv-x="1229" d="M1188 858 Q1197 862 1206 864 Q1215 866 1224 866 Q1247 866 1259 850 Q1271 834 1266 811 Q1263 796 1250 781.5 Q1237 767 1218 758 L267 324 Q259 319 250.5 317 Q242 315 232 315 Q209 315 197.5 331 Q186 347 191 371 Q195 386 208 400.5 Q221 415 240 424 L1188 858 Z M551 813 L590 813 Q663 813 684 798.5 Q705 784 696 743 Q689 708 667 690 Q645 672 611 672 L257 672 Q223 672 209 690 Q195 708 202 743 Q211 784 237 798.5 Q263 813 336 813 L385 813 L477 1245 L419 1241 L408 1241 Q373 1241 356.5 1260.5 Q340 1280 347 1313 Q353 1345 377.5 1363 Q402 1381 440 1382 L599 1393 L607 1393 Q644 1393 655.5 1376 Q667 1359 659 1319 L551 813 Z M840 -35 L1079 -35 Q1115 -35 1133 -53.5 Q1151 -72 1145 -100 Q1138 -135 1113 -155.5 Q1088 -176 1054 -176 L699 -176 Q665 -176 651.5 -153.5 Q638 -131 646 -90 Q660 -27 807 78 Q824 91 833 98 L843 106 Q1032 244 1046 309 Q1055 350 1036.5 374.5 Q1018 399 979 399 Q946 399 881.5 369.5 Q817 340 793 340 Q767 340 756 357.5 Q745 375 752 408 Q763 458 853 502.5 Q943 547 1040 547 Q1143 547 1196 486.5 Q1249 426 1229 332 Q1214 263 1156.5 196 Q1099 129 999 66 L840 -35 Z " />
<glyph glyph-name="onequarter" unicode="&#xbc;" horiz-adv-x="1229" d="M1057 82 L1133 82 Q1162 82 1169.5 71 Q1177 60 1168 18 Q1159 -24 1145 -38.5 Q1131 -53 1104 -53 L1028 -53 L1011 -133 Q1005 -164 983.5 -177 Q962 -190 911 -190 Q872 -190 858 -176.5 Q844 -163 850 -133 L867 -53 L559 -53 Q526 -53 515 -34 Q504 -15 514 29 Q523 75 537.5 103 Q552 131 578 156 L934 504 Q955 525 965 531 Q975 537 984 537 Q1000 537 1008 536.5 Q1016 536 1022 535 L1118 518 Q1133 515 1137.5 499.5 Q1142 484 1136 455 L1057 82 Z M1188 858 Q1197 862 1206 864 Q1215 866 1224 866 Q1247 866 1259 850 Q1271 834 1266 811 Q1263 796 1250 781.5 Q1237 767 1218 758 L267 324 Q259 319 250.5 317 Q242 315 232 315 Q209 315 197.5 331 Q186 347 191 371 Q195 386 208 400.5 Q221 415 240 424 L1188 858 Z M551 813 L590 813 Q663 813 684 798.5 Q705 784 696 743 Q689 708 667 690 Q645 672 611 672 L257 672 Q223 672 209 690 Q195 708 202 743 Q211 784 237 798.5 Q263 813 336 813 L385 813 L477 1245 L419 1241 L408 1241 Q373 1241 356.5 1260.5 Q340 1280 347 1313 Q353 1345 377.5 1363 Q402 1381 440 1382 L599 1393 L607 1393 Q644 1393 655.5 1376 Q667 1359 659 1319 L551 813 Z M910 82 L975 387 L672 82 L910 82 Z " />
<glyph glyph-name="threequarters" unicode="&#xbe;" horiz-adv-x="1229" d="M1188 858 Q1197 862 1206 864 Q1215 866 1224 866 Q1247 866 1259 850 Q1271 834 1266 811 Q1263 796 1250 781.5 Q1237 767 1218 758 L267 324 Q259 319 250.5 317 Q242 315 232 315 Q209 315 197.5 331 Q186 347 191 371 Q195 386 208 400.5 Q221 415 240 424 L1188 858 Z M910 82 L975 387 L672 82 L910 82 Z M1057 82 L1133 82 Q1162 82 1169.5 71 Q1177 60 1168 18 Q1159 -24 1145 -38.5 Q1131 -53 1104 -53 L1028 -53 L1011 -133 Q1005 -164 983.5 -177 Q962 -190 911 -190 Q872 -190 858 -176.5 Q844 -163 850 -133 L867 -53 L559 -53 Q526 -53 515 -34 Q504 -15 514 29 Q523 75 537.5 103 Q552 131 578 156 L934 504 Q955 525 965 531 Q975 537 984 537 Q1000 537 1008 536.5 Q1016 536 1022 535 L1118 518 Q1133 515 1137.5 499.5 Q1142 484 1136 455 L1057 82 Z M712 1063 Q776 1032 801.5 986.5 Q827 941 814 881 Q793 783 697 720 Q601 657 469 657 Q352 657 289.5 685.5 Q227 714 237 762 Q245 797 267.5 816.5 Q290 836 324 836 Q349 836 401 814.5 Q453 793 490 793 Q545 793 587.5 822.5 Q630 852 639 897 Q647 936 624 964 Q601 992 559 995 Q512 999 499.5 1012 Q487 1025 494 1055 Q499 1079 515 1091.5 Q531 1104 578 1114 Q625 1124 645.5 1143 Q666 1162 675 1200 Q682 1236 666.5 1255 Q651 1274 614 1274 Q576 1274 512 1246.5 Q448 1219 431 1219 Q403 1219 389 1236.5 Q375 1254 381 1282 Q392 1332 475 1370.5 Q558 1409 661 1409 Q764 1409 819 1354.5 Q874 1300 857 1221 Q846 1167 810 1128 Q774 1089 712 1063 Z " />
<glyph glyph-name="franc" unicode="&#x20a3;" horiz-adv-x="1229" d="M653 975 L610 774 L823 774 Q891 774 915.5 750 Q940 726 928 672 Q917 618 882 593.5 Q847 569 779 569 L566 569 L546 471 L839 471 Q888 471 907 452.5 Q926 434 917 393 Q909 355 883 337 Q857 319 808 319 L513 319 L492 219 L548 219 Q614 219 637 193.5 Q660 168 648 111 Q636 52 601.5 26 Q567 0 502 0 L203 0 Q138 0 114.5 26 Q91 52 103 111 Q114 164 147 191.5 Q180 219 232 219 L249 219 L270 319 L159 319 Q110 319 92.5 336.5 Q75 354 83 393 Q92 434 118 452.5 Q144 471 194 471 L303 471 L408 965 L391 965 Q340 965 318.5 993.5 Q297 1022 308 1075 Q320 1133 355.5 1159.5 Q391 1186 455 1186 L1274 1186 Q1335 1186 1352.5 1167.5 Q1370 1149 1358 1094 L1310 870 Q1296 803 1264 773 Q1232 743 1175 743 Q1118 743 1099.5 772.5 Q1081 802 1095 870 L1118 975 L653 975 Z " />
<glyph glyph-name="Gbreve" unicode="&#x11e;" horiz-adv-x="1229" d="M1163 1153 Q1189 1189 1214 1204 Q1239 1219 1271 1219 Q1320 1219 1335 1193 Q1350 1167 1336 1104 L1283 844 Q1268 775 1240.5 751 Q1213 727 1153 727 Q1111 727 1092 747.5 Q1073 768 1069 821 Q1062 917 1015 958 Q968 999 867 999 Q713 999 609.5 895 Q506 791 464 594 Q422 397 484.5 289.5 Q547 182 704 182 Q740 182 788 190.5 Q836 199 902 217 L935 375 L822 375 Q754 375 731 400 Q708 425 720 483 Q733 543 767 568.5 Q801 594 869 594 L1230 594 Q1300 594 1323 569 Q1346 544 1334 485 Q1322 432 1287.5 403.5 Q1253 375 1199 375 L1183 375 L1133 137 L1130 125 Q1123 93 1113.5 80.5 Q1104 68 1080 55 Q1016 21 886.5 -5 Q757 -31 630 -31 Q368 -31 242.5 142 Q117 315 177 594 Q234 863 436 1041 Q638 1219 890 1219 Q960 1219 1026 1203 Q1092 1187 1163 1153 Z M566 1581 Q570 1601 580 1611.5 Q590 1622 604 1622 Q630 1622 653 1589 Q676 1556 694 1544 Q723 1524 782.5 1514.5 Q842 1505 933 1505 Q1025 1505 1088.5 1514.5 Q1152 1524 1189 1544 Q1211 1555 1249 1588.5 Q1287 1622 1313 1622 Q1328 1622 1332.5 1612 Q1337 1602 1332 1581 Q1313 1489 1189.5 1421 Q1066 1353 901 1353 Q737 1353 642 1421.5 Q547 1490 566 1581 Z " />
<glyph glyph-name="gbreve" unicode="&#x11f;" horiz-adv-x="1229" d="M727 737 Q629 737 549.5 666 Q470 595 447 485 Q424 377 473.5 306.5 Q523 236 621 236 Q720 236 799.5 306.5 Q879 377 902 485 Q925 595 875.5 666 Q826 737 727 737 Z M995 831 L1006 883 Q1010 903 1027 913.5 Q1044 924 1073 924 L1236 924 Q1305 924 1327.5 898.5 Q1350 873 1338 815 Q1326 761 1292.5 733 Q1259 705 1206 705 L1189 705 L1043 16 Q996 -203 856 -302 Q716 -401 453 -401 Q290 -401 220.5 -369 Q151 -337 166 -268 Q176 -220 213 -190 Q250 -160 301 -160 Q314 -160 385.5 -169 Q457 -178 519 -178 Q662 -178 728 -124 Q794 -70 823 70 L833 115 Q753 74 679.5 54.5 Q606 35 531 35 Q330 35 229 160.5 Q128 286 170 483 Q213 686 374.5 817 Q536 948 744 948 Q834 948 896 919.5 Q958 891 995 831 Z M509 1311 Q513 1331 523 1341.5 Q533 1352 547 1352 Q573 1352 596 1319 Q619 1286 637 1274 Q666 1254 725.5 1244.5 Q785 1235 876 1235 Q968 1235 1031.5 1244.5 Q1095 1254 1132 1274 Q1154 1285 1192 1318.5 Q1230 1352 1256 1352 Q1271 1352 1275.5 1342 Q1280 1332 1275 1311 Q1256 1219 1132.5 1151 Q1009 1083 844 1083 Q680 1083 585 1151.5 Q490 1220 509 1311 Z " />
<glyph glyph-name="Idot" unicode="&#x130;" horiz-adv-x="1229" d="M948 965 L789 219 L957 219 Q1025 219 1049 193.5 Q1073 168 1061 111 Q1049 53 1013.5 26.5 Q978 0 911 0 L317 0 Q249 0 225 26 Q201 52 213 111 Q225 169 259.5 194 Q294 219 363 219 L531 219 L690 965 L522 965 Q454 965 430 991 Q406 1017 418 1075 Q431 1134 465 1159 Q499 1184 568 1184 L1162 1184 Q1233 1184 1256 1159 Q1279 1134 1266 1075 Q1254 1017 1219.5 991 Q1185 965 1116 965 L948 965 Z M956 1611 Q1012 1611 1043.5 1572 Q1075 1533 1063 1478 Q1051 1420 1003.5 1380.5 Q956 1341 898 1341 Q842 1341 811 1381 Q780 1421 792 1478 Q804 1532 853 1571.5 Q902 1611 956 1611 Z " />
<glyph glyph-name="Scedilla" unicode="&#x15e;" horiz-adv-x="1229" d="M1285 1112 L1248 920 L1246 909 Q1233 850 1204.5 826.5 Q1176 803 1120 803 Q1049 803 1030 879 Q1028 890 1026 897 Q1008 959 962 990.5 Q916 1022 844 1022 Q754 1022 689.5 980.5 Q625 939 611 874 Q592 782 834 729 Q876 720 899 715 Q1083 673 1150.5 587 Q1218 501 1186 352 Q1147 169 1006.5 72 Q866 -25 630 -31 L608 -133 Q612 -132 621 -131 Q666 -125 682 -125 Q763 -125 804.5 -173 Q846 -221 829 -297 Q811 -383 736.5 -430 Q662 -477 545 -477 Q442 -477 361 -442 Q280 -407 289 -365 Q293 -348 307 -338 Q321 -328 342 -328 Q353 -328 413.5 -353.5 Q474 -379 529 -379 Q575 -379 602.5 -358 Q630 -337 639 -295 Q647 -258 625 -238.5 Q603 -219 555 -219 Q548 -219 535 -220.5 Q522 -222 503 -225 L545 -27 Q488 -24 435.5 -12.5 Q383 -1 331 18 Q310 -8 286.5 -19.5 Q263 -31 226 -31 Q163 -31 143 -7 Q123 17 135 78 L181 313 L183 324 Q197 390 227 416 Q257 442 318 442 Q383 442 407 348 Q413 325 416 313 Q439 236 500.5 198 Q562 160 663 160 Q755 160 814 198 Q873 236 887 305 Q910 412 691 467 Q625 483 588 494 Q404 545 345.5 621.5 Q287 698 315 831 Q351 1002 503 1110.5 Q655 1219 859 1219 Q927 1219 989.5 1205 Q1052 1191 1111 1163 Q1133 1195 1154.5 1207 Q1176 1219 1215 1219 Q1273 1219 1284.5 1197.5 Q1296 1176 1285 1112 Z " />
<glyph glyph-name="scedilla" unicode="&#x15f;" horiz-adv-x="1229" d="M179 80 L207 215 Q221 281 249 308.5 Q277 336 331 336 Q390 336 415 279 Q430 248 442 233 Q482 189 542 167 Q602 145 685 145 Q757 145 806 173 Q855 201 865 246 Q882 327 658 358 Q608 364 580 369 Q411 393 341 463.5 Q271 534 296 653 Q326 794 444.5 871 Q563 948 752 948 Q817 948 883.5 937.5 Q950 927 1017 905 Q1043 930 1069 942 Q1095 954 1124 954 Q1165 954 1181 928.5 Q1197 903 1187 852 L1160 729 Q1151 686 1124 662.5 Q1097 639 1057 639 Q1016 639 932 710.5 Q848 782 748 782 Q670 782 621.5 756.5 Q573 731 563 686 Q548 616 723 592 Q774 586 803 582 Q1022 549 1092.5 483.5 Q1163 418 1136 289 Q1105 142 978 57.5 Q851 -27 658 -27 L631 -27 L608 -133 Q612 -132 621 -131 Q666 -125 682 -125 Q763 -125 804.5 -173 Q846 -221 829 -297 Q811 -383 736.5 -430 Q662 -477 545 -477 Q442 -477 361 -442 Q280 -407 289 -365 Q293 -348 307 -338 Q321 -328 342 -328 Q353 -328 413.5 -353.5 Q474 -379 529 -379 Q575 -379 602.5 -358 Q630 -337 639 -295 Q647 -258 625 -238.5 Q603 -219 555 -219 Q548 -219 535 -220.5 Q522 -222 503 -225 L546 -20 Q495 -17 446.5 -9 Q398 -1 352 12 Q321 -7 291.5 -17 Q262 -27 234 -27 Q191 -27 178 -4.5 Q165 18 179 80 Z " />
<glyph glyph-name="Cacute" unicode="&#x106;" horiz-adv-x="1229" d="M1173 1153 Q1200 1189 1224.5 1204 Q1249 1219 1281 1219 Q1330 1219 1345 1193 Q1360 1167 1346 1104 L1293 844 Q1278 775 1250.5 751 Q1223 727 1164 727 Q1122 727 1104 747 Q1086 767 1081 821 Q1075 916 1027 957.5 Q979 999 878 999 Q724 999 620 895 Q516 791 474 594 Q432 398 492.5 293 Q553 188 707 188 Q812 188 953.5 258 Q1095 328 1128 328 Q1167 328 1186.5 295 Q1206 262 1196 213 Q1177 125 1005.5 47 Q834 -31 640 -31 Q378 -31 252.5 142 Q127 315 187 594 Q244 863 446 1041 Q648 1219 900 1219 Q971 1219 1036.5 1203 Q1102 1187 1173 1153 Z M756 1280 L738 1357 L1275 1636 Q1278 1638 1283 1639 Q1288 1640 1292 1640 Q1305 1640 1315.5 1632 Q1326 1624 1330 1609 L1353 1523 Q1353 1522 1354 1519 Q1354 1512 1353 1507 Q1350 1493 1341 1482 Q1332 1471 1318 1466 L756 1280 Z " />
<glyph glyph-name="cacute" unicode="&#x107;" horiz-adv-x="1229" d="M1095 870 Q1116 909 1145.5 928.5 Q1175 948 1215 948 Q1269 948 1285 915.5 Q1301 883 1284 803 L1249 639 Q1236 578 1205 549 Q1174 520 1122 520 Q1085 520 1063.5 537 Q1042 554 1024 602 Q999 670 941 702.5 Q883 735 789 735 Q672 735 581 658.5 Q490 582 465 463 Q438 338 499 262 Q560 186 690 186 Q808 186 938.5 251.5 Q1069 317 1095 317 Q1132 317 1150.5 288.5 Q1169 260 1160 217 Q1140 123 981.5 49 Q823 -25 627 -25 Q385 -25 262.5 111 Q140 247 185 461 Q230 670 409.5 809 Q589 948 817 948 Q894 948 963 929 Q1032 910 1095 870 Z M668 1010 L650 1087 L1187 1366 Q1190 1368 1195 1369 Q1200 1370 1204 1370 Q1217 1370 1227.5 1362 Q1238 1354 1242 1339 L1265 1253 Q1265 1252 1266 1249 Q1266 1242 1265 1237 Q1262 1223 1253 1212 Q1244 1201 1230 1196 L668 1010 Z " />
<glyph glyph-name="Ccaron" unicode="&#x10c;" horiz-adv-x="1229" d="M1173 1153 Q1200 1189 1224.5 1204 Q1249 1219 1281 1219 Q1330 1219 1345 1193 Q1360 1167 1346 1104 L1293 844 Q1278 775 1250.5 751 Q1223 727 1164 727 Q1122 727 1104 747 Q1086 767 1081 821 Q1075 916 1027 957.5 Q979 999 878 999 Q724 999 620 895 Q516 791 474 594 Q432 398 492.5 293 Q553 188 707 188 Q812 188 953.5 258 Q1095 328 1128 328 Q1167 328 1186.5 295 Q1206 262 1196 213 Q1177 125 1005.5 47 Q834 -31 640 -31 Q378 -31 252.5 142 Q127 315 187 594 Q244 863 446 1041 Q648 1219 900 1219 Q971 1219 1036.5 1203 Q1102 1187 1173 1153 Z M981 1493 L1296 1624 Q1305 1626 1308 1627 Q1311 1628 1314 1628 Q1332 1628 1343.5 1612.5 Q1355 1597 1351 1579 Q1349 1571 1344 1563.5 Q1339 1556 1332 1552 L1010 1335 Q994 1325 977 1319.5 Q960 1314 943 1314 Q926 1314 912 1319.5 Q898 1325 887 1335 L656 1552 Q652 1556 650 1563.5 Q648 1571 650 1579 Q654 1597 671.5 1612.5 Q689 1628 707 1628 Q709 1628 712.5 1627 Q716 1626 723 1624 L981 1493 Z " />
<glyph glyph-name="ccaron" unicode="&#x10d;" horiz-adv-x="1229" d="M1095 870 Q1116 909 1145.5 928.5 Q1175 948 1215 948 Q1269 948 1285 915.5 Q1301 883 1284 803 L1249 639 Q1236 578 1205 549 Q1174 520 1122 520 Q1085 520 1063.5 537 Q1042 554 1024 602 Q999 670 941 702.5 Q883 735 789 735 Q672 735 581 658.5 Q490 582 465 463 Q438 338 499 262 Q560 186 690 186 Q808 186 938.5 251.5 Q1069 317 1095 317 Q1132 317 1150.5 288.5 Q1169 260 1160 217 Q1140 123 981.5 49 Q823 -25 627 -25 Q385 -25 262.5 111 Q140 247 185 461 Q230 670 409.5 809 Q589 948 817 948 Q894 948 963 929 Q1032 910 1095 870 Z M893 1223 L1208 1354 Q1217 1356 1220 1357 Q1223 1358 1226 1358 Q1244 1358 1255.5 1342.5 Q1267 1327 1263 1309 Q1261 1301 1256 1293.5 Q1251 1286 1244 1282 L922 1065 Q906 1055 889 1049.5 Q872 1044 855 1044 Q838 1044 824 1049.5 Q810 1055 799 1065 L568 1282 Q564 1286 562 1293.5 Q560 1301 562 1309 Q566 1327 583.5 1342.5 Q601 1358 619 1358 Q621 1358 624.5 1357 Q628 1356 635 1354 L893 1223 Z " />
<glyph glyph-name="dslash" unicode="&#x111;" horiz-adv-x="1229" d="M722 711 Q624 711 543.5 637.5 Q463 564 439 451 Q415 335 463 261.5 Q511 188 610 188 Q709 188 789.5 262 Q870 336 894 451 Q918 563 869 637 Q820 711 722 711 Z M1288 1167 L1354 1167 Q1394 1167 1408.5 1151 Q1423 1135 1415 1100 Q1408 1064 1387.5 1049 Q1367 1034 1325 1034 L1259 1034 L1086 219 L1103 219 Q1157 219 1178 191.5 Q1199 164 1188 111 Q1176 52 1142 26 Q1108 0 1040 0 L877 0 Q849 0 836 11 Q823 22 828 43 L838 94 Q774 34 699 4.5 Q624 -25 537 -25 Q330 -25 224 107 Q118 239 161 442 Q206 650 368.5 787 Q531 924 737 924 Q803 924 866 902.5 Q929 881 972 844 L1012 1034 L778 1034 Q736 1034 722.5 1049 Q709 1064 716 1100 Q724 1135 745.5 1151 Q767 1167 807 1167 L1041 1167 L1057 1243 Q1065 1280 1081 1294.5 Q1097 1309 1132 1309 L1259 1309 Q1293 1309 1302.5 1295 Q1312 1281 1304 1243 L1288 1167 Z " />
<glyph glyph-name="Amacron" unicode="&#x100;" horiz-adv-x="1229" d="M1164 219 L1181 219 Q1235 219 1257 191.5 Q1279 164 1268 111 Q1256 52 1221 26 Q1186 0 1118 0 L817 0 Q748 0 724 25.5 Q700 51 713 111 Q725 169 759.5 194 Q794 219 863 219 L898 219 L882 336 L450 336 L382 219 L417 219 Q485 219 509 193.5 Q533 168 521 111 Q509 52 474 26 Q439 0 371 0 L113 0 Q44 0 21 26 Q-2 52 9 111 Q20 164 54 191.5 Q88 219 142 219 L159 219 L586 965 L506 965 Q438 965 414 991 Q390 1017 402 1075 Q415 1134 450 1160 Q485 1186 553 1186 L928 1186 Q1017 1186 1032 1090 L1032 1087 L1164 219 Z M799 965 L564 543 L854 543 L799 965 Z M578 1428 L1213 1428 Q1226 1428 1232.5 1416.5 Q1239 1405 1236 1389 L1223 1327 Q1220 1312 1208 1300 Q1196 1288 1184 1288 L549 1288 Q536 1288 529 1299.5 Q522 1311 526 1327 L539 1389 Q542 1405 553.5 1416.5 Q565 1428 578 1428 Z " />
<glyph glyph-name="amacron" unicode="&#x101;" horiz-adv-x="1229" d="M1068 219 L1084 219 Q1138 219 1160.5 190.5 Q1183 162 1172 109 Q1159 51 1124.5 25.5 Q1090 0 1022 0 L928 0 Q878 0 857.5 19 Q837 38 831 88 Q737 33 637.5 4 Q538 -25 443 -25 Q282 -25 207 55 Q132 135 162 274 Q194 424 330.5 507 Q467 590 682 590 Q730 590 783 585 Q836 580 900 569 L904 588 Q924 678 890.5 725 Q857 772 772 772 Q706 772 593 723 Q480 674 432 674 Q385 674 361.5 701.5 Q338 729 348 774 Q365 855 493.5 902.5 Q622 950 826 950 Q1039 950 1114 868 Q1189 786 1147 590 L1068 219 Z M867 412 Q819 423 778.5 428.5 Q738 434 702 434 Q592 434 521.5 397 Q451 360 437 295 Q425 237 458.5 206.5 Q492 176 567 176 Q636 176 701 196 Q766 216 834 258 L867 412 Z M608 1194 L1243 1194 Q1256 1194 1262.5 1182.5 Q1269 1171 1266 1155 L1253 1093 Q1250 1078 1238 1066 Q1226 1054 1214 1054 L579 1054 Q566 1054 559 1065.5 Q552 1077 556 1093 L569 1155 Q572 1171 583.5 1182.5 Q595 1194 608 1194 Z " />
<glyph glyph-name="Abreve" unicode="&#x102;" horiz-adv-x="1229" d="M1164 219 L1181 219 Q1235 219 1257 191.5 Q1279 164 1268 111 Q1256 52 1221 26 Q1186 0 1118 0 L817 0 Q748 0 724 25.5 Q700 51 713 111 Q725 169 759.5 194 Q794 219 863 219 L898 219 L882 336 L450 336 L382 219 L417 219 Q485 219 509 193.5 Q533 168 521 111 Q509 52 474 26 Q439 0 371 0 L113 0 Q44 0 21 26 Q-2 52 9 111 Q20 164 54 191.5 Q88 219 142 219 L159 219 L586 965 L506 965 Q438 965 414 991 Q390 1017 402 1075 Q415 1134 450 1160 Q485 1186 553 1186 L928 1186 Q1017 1186 1032 1090 L1032 1087 L1164 219 Z M799 965 L564 543 L854 543 L799 965 Z M560 1516 Q564 1536 574 1546.5 Q584 1557 598 1557 Q624 1557 647 1524 Q670 1491 688 1479 Q717 1459 776.5 1449.5 Q836 1440 927 1440 Q1019 1440 1082.5 1449.5 Q1146 1459 1183 1479 Q1205 1490 1243 1523.5 Q1281 1557 1307 1557 Q1322 1557 1326.5 1547 Q1331 1537 1326 1516 Q1307 1424 1183.5 1356 Q1060 1288 895 1288 Q731 1288 636 1356.5 Q541 1425 560 1516 Z " />
<glyph glyph-name="abreve" unicode="&#x103;" horiz-adv-x="1229" d="M1068 219 L1084 219 Q1138 219 1160.5 190.5 Q1183 162 1172 109 Q1159 51 1124.5 25.5 Q1090 0 1022 0 L928 0 Q878 0 857.5 19 Q837 38 831 88 Q737 33 637.5 4 Q538 -25 443 -25 Q282 -25 207 55 Q132 135 162 274 Q194 424 330.5 507 Q467 590 682 590 Q730 590 783 585 Q836 580 900 569 L904 588 Q924 678 890.5 725 Q857 772 772 772 Q706 772 593 723 Q480 674 432 674 Q385 674 361.5 701.5 Q338 729 348 774 Q365 855 493.5 902.5 Q622 950 826 950 Q1039 950 1114 868 Q1189 786 1147 590 L1068 219 Z M867 412 Q819 423 778.5 428.5 Q738 434 702 434 Q592 434 521.5 397 Q451 360 437 295 Q425 237 458.5 206.5 Q492 176 567 176 Q636 176 701 196 Q766 216 834 258 L867 412 Z M533 1282 Q537 1302 547 1312.5 Q557 1323 571 1323 Q597 1323 620 1290 Q643 1257 661 1245 Q690 1225 749.5 1215.5 Q809 1206 900 1206 Q992 1206 1055.5 1215.5 Q1119 1225 1156 1245 Q1178 1256 1216 1289.5 Q1254 1323 1280 1323 Q1295 1323 1299.5 1313 Q1304 1303 1299 1282 Q1280 1190 1156.5 1122 Q1033 1054 868 1054 Q704 1054 609 1122.5 Q514 1191 533 1282 Z " />
<glyph glyph-name="Aogonek" unicode="&#x104;" horiz-adv-x="1229" d="M1164 219 L1181 219 Q1235 219 1257 191.5 Q1279 164 1268 111 Q1256 52 1221 26 Q1186 0 1118 0 L817 0 Q748 0 724 25.5 Q700 51 713 111 Q725 169 759.5 194 Q794 219 863 219 L898 219 L882 336 L450 336 L382 219 L417 219 Q485 219 509 193.5 Q533 168 521 111 Q509 52 474 26 Q439 0 371 0 L113 0 Q44 0 21 26 Q-2 52 9 111 Q20 164 54 191.5 Q88 219 142 219 L159 219 L586 965 L506 965 Q438 965 414 991 Q390 1017 402 1075 Q415 1134 450 1160 Q485 1186 553 1186 L928 1186 Q1017 1186 1032 1090 L1032 1087 L1164 219 Z M799 965 L564 543 L854 543 L799 965 Z M1023 33 L1081 33 Q979 -39 927 -102 Q875 -165 861 -231 Q850 -281 866.5 -308.5 Q883 -336 923 -336 Q955 -336 982 -321.5 Q1009 -307 1048 -266 L1078 -287 Q1017 -377 948.5 -421 Q880 -465 803 -465 Q724 -465 687.5 -424 Q651 -383 666 -313 Q685 -223 773.5 -137.5 Q862 -52 1023 33 Z " />
<glyph glyph-name="aogonek" unicode="&#x105;" horiz-adv-x="1229" d="M1068 219 L1084 219 Q1138 219 1160.5 190.5 Q1183 162 1172 109 Q1159 51 1124.5 25.5 Q1090 0 1022 0 L928 0 Q878 0 857.5 19 Q837 38 831 88 Q737 33 637.5 4 Q538 -25 443 -25 Q282 -25 207 55 Q132 135 162 274 Q194 424 330.5 507 Q467 590 682 590 Q730 590 783 585 Q836 580 900 569 L904 588 Q924 678 890.5 725 Q857 772 772 772 Q706 772 593 723 Q480 674 432 674 Q385 674 361.5 701.5 Q338 729 348 774 Q365 855 493.5 902.5 Q622 950 826 950 Q1039 950 1114 868 Q1189 786 1147 590 L1068 219 Z M867 412 Q819 423 778.5 428.5 Q738 434 702 434 Q592 434 521.5 397 Q451 360 437 295 Q425 237 458.5 206.5 Q492 176 567 176 Q636 176 701 196 Q766 216 834 258 L867 412 Z M1025 41 L1083 41 Q981 -31 929 -94 Q877 -157 863 -223 Q852 -273 868.5 -300.5 Q885 -328 925 -328 Q957 -328 984 -313.5 Q1011 -299 1050 -258 L1080 -279 Q1019 -369 950.5 -413 Q882 -457 805 -457 Q726 -457 689.5 -416 Q653 -375 668 -305 Q687 -215 775.5 -129.5 Q864 -44 1025 41 Z " />
<glyph glyph-name="Ccircumflex" unicode="&#x108;" horiz-adv-x="1229" d="M1173 1153 Q1200 1189 1224.5 1204 Q1249 1219 1281 1219 Q1330 1219 1345 1193 Q1360 1167 1346 1104 L1293 844 Q1278 775 1250.5 751 Q1223 727 1164 727 Q1122 727 1104 747 Q1086 767 1081 821 Q1075 916 1027 957.5 Q979 999 878 999 Q724 999 620 895 Q516 791 474 594 Q432 398 492.5 293 Q553 188 707 188 Q812 188 953.5 258 Q1095 328 1128 328 Q1167 328 1186.5 295 Q1206 262 1196 213 Q1177 125 1005.5 47 Q834 -31 640 -31 Q378 -31 252.5 142 Q127 315 187 594 Q244 863 446 1041 Q648 1219 900 1219 Q971 1219 1036.5 1203 Q1102 1187 1173 1153 Z M1058 1459 L743 1325 Q735 1323 731.5 1322 Q728 1321 726 1321 Q708 1321 696.5 1336.5 Q685 1352 689 1371 Q691 1379 696 1386 Q701 1393 707 1397 L1030 1616 Q1044 1626 1060.5 1630.5 Q1077 1635 1095 1635 Q1114 1635 1128.5 1630.5 Q1143 1626 1153 1616 L1383 1397 Q1388 1393 1390 1386.5 Q1392 1380 1391 1373 Q1387 1354 1368.5 1337.5 Q1350 1321 1333 1321 Q1328 1321 1320 1323 Q1317 1325 1316 1325 L1058 1459 Z " />
<glyph glyph-name="ccircumflex" unicode="&#x109;" horiz-adv-x="1229" d="M1095 870 Q1116 909 1145.5 928.5 Q1175 948 1215 948 Q1269 948 1285 915.5 Q1301 883 1284 803 L1249 639 Q1236 578 1205 549 Q1174 520 1122 520 Q1085 520 1063.5 537 Q1042 554 1024 602 Q999 670 941 702.5 Q883 735 789 735 Q672 735 581 658.5 Q490 582 465 463 Q438 338 499 262 Q560 186 690 186 Q808 186 938.5 251.5 Q1069 317 1095 317 Q1132 317 1150.5 288.5 Q1169 260 1160 217 Q1140 123 981.5 49 Q823 -25 627 -25 Q385 -25 262.5 111 Q140 247 185 461 Q230 670 409.5 809 Q589 948 817 948 Q894 948 963 929 Q1032 910 1095 870 Z M921 1188 L606 1054 Q598 1052 594.5 1051 Q591 1050 589 1050 Q571 1050 559.5 1065.5 Q548 1081 552 1100 Q554 1108 559 1115 Q564 1122 570 1126 L893 1345 Q907 1355 923.5 1359.5 Q940 1364 958 1364 Q977 1364 991.5 1359.5 Q1006 1355 1016 1345 L1246 1126 Q1251 1122 1253 1115.5 Q1255 1109 1254 1102 Q1250 1083 1231.5 1066.5 Q1213 1050 1196 1050 Q1191 1050 1183 1052 Q1180 1054 1179 1054 L921 1188 Z " />
<glyph glyph-name="Cdotaccent" unicode="&#x10a;" horiz-adv-x="1229" d="M1173 1153 Q1200 1189 1224.5 1204 Q1249 1219 1281 1219 Q1330 1219 1345 1193 Q1360 1167 1346 1104 L1293 844 Q1278 775 1250.5 751 Q1223 727 1164 727 Q1122 727 1104 747 Q1086 767 1081 821 Q1075 916 1027 957.5 Q979 999 878 999 Q724 999 620 895 Q516 791 474 594 Q432 398 492.5 293 Q553 188 707 188 Q812 188 953.5 258 Q1095 328 1128 328 Q1167 328 1186.5 295 Q1206 262 1196 213 Q1177 125 1005.5 47 Q834 -31 640 -31 Q378 -31 252.5 142 Q127 315 187 594 Q244 863 446 1041 Q648 1219 900 1219 Q971 1219 1036.5 1203 Q1102 1187 1173 1153 Z M1091 1591 Q1147 1591 1178.5 1552 Q1210 1513 1198 1458 Q1186 1400 1138.5 1360.5 Q1091 1321 1033 1321 Q977 1321 946 1361 Q915 1401 927 1458 Q939 1512 988 1551.5 Q1037 1591 1091 1591 Z " />
<glyph glyph-name="cdotaccent" unicode="&#x10b;" horiz-adv-x="1229" d="M1095 870 Q1116 909 1145.5 928.5 Q1175 948 1215 948 Q1269 948 1285 915.5 Q1301 883 1284 803 L1249 639 Q1236 578 1205 549 Q1174 520 1122 520 Q1085 520 1063.5 537 Q1042 554 1024 602 Q999 670 941 702.5 Q883 735 789 735 Q672 735 581 658.5 Q490 582 465 463 Q438 338 499 262 Q560 186 690 186 Q808 186 938.5 251.5 Q1069 317 1095 317 Q1132 317 1150.5 288.5 Q1169 260 1160 217 Q1140 123 981.5 49 Q823 -25 627 -25 Q385 -25 262.5 111 Q140 247 185 461 Q230 670 409.5 809 Q589 948 817 948 Q894 948 963 929 Q1032 910 1095 870 Z M936 1322 Q992 1322 1023.5 1283 Q1055 1244 1043 1189 Q1031 1131 983.5 1091.5 Q936 1052 878 1052 Q822 1052 791 1092 Q760 1132 772 1189 Q784 1243 833 1282.5 Q882 1322 936 1322 Z " />
<glyph glyph-name="Dcaron" unicode="&#x10e;" horiz-adv-x="1229" d="M239 219 L398 965 L381 965 Q327 965 305 993 Q283 1021 294 1075 Q306 1133 342 1159.5 Q378 1186 445 1186 L633 1186 L692 1186 Q901 1186 994 1168 Q1087 1150 1146 1108 Q1252 1036 1288 902.5 Q1324 769 1287 594 Q1247 409 1144.5 270.5 Q1042 132 891 61 Q824 29 739 14.5 Q654 0 492 0 L381 0 L193 0 Q124 0 100 25.5 Q76 51 89 111 Q100 164 134 191.5 Q168 219 222 219 L239 219 Z M656 969 L497 219 L554 219 Q743 219 852.5 311.5 Q962 404 1003 596 Q1043 785 971.5 878 Q900 971 716 971 Q692 971 679.5 970.5 Q667 970 656 969 Z M849 1467 L1164 1598 Q1173 1600 1176 1601 Q1179 1602 1182 1602 Q1200 1602 1211.5 1586.5 Q1223 1571 1219 1553 Q1217 1545 1212 1537.5 Q1207 1530 1200 1526 L878 1309 Q862 1299 845 1293.5 Q828 1288 811 1288 Q794 1288 780 1293.5 Q766 1299 755 1309 L524 1526 Q520 1530 518 1537.5 Q516 1545 518 1553 Q522 1571 539.5 1586.5 Q557 1602 575 1602 Q577 1602 580.5 1601 Q584 1600 591 1598 L849 1467 Z " />
<glyph glyph-name="dcaron" unicode="&#x10f;" horiz-adv-x="1229" d="M1086 219 L1103 219 Q1157 219 1178 191.5 Q1199 164 1188 111 Q1176 52 1142 26 Q1108 0 1040 0 L887 0 Q858 0 844.5 11.5 Q831 23 836 43 L851 113 Q787 46 702.5 10.5 Q618 -25 522 -25 Q326 -25 222.5 108.5 Q119 242 161 442 Q206 650 368.5 787 Q531 924 737 924 Q808 924 870.5 900.5 Q933 877 980 834 L1034 1087 L901 1087 Q832 1087 808.5 1113.5 Q785 1140 797 1198 Q810 1257 844.5 1283 Q879 1309 948 1309 L1259 1309 Q1293 1309 1302.5 1295 Q1312 1281 1304 1243 L1086 219 Z M722 711 Q624 711 543.5 637.5 Q463 564 439 451 Q415 335 463 261.5 Q511 188 610 188 Q709 188 789.5 262 Q870 336 894 451 Q918 563 869 637 Q820 711 722 711 Z M1711.57 1527.01 L1902.26 1527.01 Q1915.08 1527.01 1921.49 1522.2 Q1927.89 1517.4 1926.29 1509.39 Q1925.49 1505.39 1922.29 1499.39 Q1919.08 1493.38 1914.27 1486.18 L1575.36 1017.03 Q1566.55 1004.22 1554.53 996.611 Q1542.51 989.005 1529.69 989.005 Q1526.49 989.005 1522.48 990.206 Q1518.48 991.407 1514.47 992.207 L1458.39 1013.82 Q1445.57 1018.63 1440.36 1027.03 Q1435.15 1035.44 1436.75 1045.05 Q1438.36 1053.85 1439.96 1058.26 Q1441.56 1062.66 1443.16 1066.66 L1645.07 1482.97 Q1658.69 1510.19 1671.91 1518.6 Q1685.13 1527.01 1711.57 1527.01 Z " />
<glyph glyph-name="Emacron" unicode="&#x112;" horiz-adv-x="1229" d="M1108 975 L643 975 L588 719 L764 719 L767 731 Q779 788 810 816 Q841 844 892 844 Q937 844 960 818.5 Q983 793 975 754 Q974 752 973 741 Q972 730 969 719 L925 512 Q911 445 881 416 Q851 387 797 387 Q746 387 725.5 414 Q705 441 717 494 L720 512 L544 512 L481 213 L946 213 L971 332 Q985 399 1017 428 Q1049 457 1107 457 Q1164 457 1182.5 428.5 Q1201 400 1186 332 L1135 90 Q1123 36 1098.5 18 Q1074 0 1012 0 L193 0 Q127 0 104 26 Q81 52 93 111 Q104 164 137 191.5 Q170 219 222 219 L239 219 L398 965 L381 965 Q330 965 308.5 993.5 Q287 1022 298 1075 Q310 1133 345 1159.5 Q380 1186 445 1186 L1264 1186 Q1325 1186 1342.5 1167.5 Q1360 1149 1348 1094 L1300 870 Q1286 802 1254.5 772.5 Q1223 743 1167 743 Q1109 743 1090 773 Q1071 803 1085 870 L1108 975 Z M604 1428 L1239 1428 Q1252 1428 1258.5 1416.5 Q1265 1405 1262 1389 L1249 1327 Q1246 1312 1234 1300 Q1222 1288 1210 1288 L575 1288 Q562 1288 555 1299.5 Q548 1311 552 1327 L565 1389 Q568 1405 579.5 1416.5 Q591 1428 604 1428 Z " />
<glyph glyph-name="emacron" unicode="&#x113;" horiz-adv-x="1229" d="M427 403 Q430 292 492.5 237 Q555 182 679 182 Q803 182 937 242.5 Q1071 303 1096 303 Q1133 303 1150.5 275.5 Q1168 248 1159 205 Q1139 111 985.5 43 Q832 -25 627 -25 Q385 -25 262.5 111 Q140 247 185 461 Q231 674 411.5 810 Q592 946 834 946 Q1050 946 1164.5 818.5 Q1279 691 1240 506 Q1228 447 1194.5 425 Q1161 403 1072 403 L427 403 Z M999 559 Q1002 652 942.5 703 Q883 754 770 754 Q661 754 584 705.5 Q507 657 460 559 L999 559 Z M607 1190 L1242 1190 Q1255 1190 1261.5 1178.5 Q1268 1167 1265 1151 L1252 1089 Q1249 1074 1237 1062 Q1225 1050 1213 1050 L578 1050 Q565 1050 558 1061.5 Q551 1073 555 1089 L568 1151 Q571 1167 582.5 1178.5 Q594 1190 607 1190 Z " />
<glyph glyph-name="Ebreve" unicode="&#x114;" horiz-adv-x="1229" d="M1108 975 L643 975 L588 719 L764 719 L767 731 Q779 788 810 816 Q841 844 892 844 Q937 844 960 818.5 Q983 793 975 754 Q974 752 973 741 Q972 730 969 719 L925 512 Q911 445 881 416 Q851 387 797 387 Q746 387 725.5 414 Q705 441 717 494 L720 512 L544 512 L481 213 L946 213 L971 332 Q985 399 1017 428 Q1049 457 1107 457 Q1164 457 1182.5 428.5 Q1201 400 1186 332 L1135 90 Q1123 36 1098.5 18 Q1074 0 1012 0 L193 0 Q127 0 104 26 Q81 52 93 111 Q104 164 137 191.5 Q170 219 222 219 L239 219 L398 965 L381 965 Q330 965 308.5 993.5 Q287 1022 298 1075 Q310 1133 345 1159.5 Q380 1186 445 1186 L1264 1186 Q1325 1186 1342.5 1167.5 Q1360 1149 1348 1094 L1300 870 Q1286 802 1254.5 772.5 Q1223 743 1167 743 Q1109 743 1090 773 Q1071 803 1085 870 L1108 975 Z M508 1516 Q512 1536 522 1546.5 Q532 1557 546 1557 Q572 1557 595 1524 Q618 1491 636 1479 Q665 1459 724.5 1449.5 Q784 1440 875 1440 Q967 1440 1030.5 1449.5 Q1094 1459 1131 1479 Q1153 1490 1191 1523.5 Q1229 1557 1255 1557 Q1270 1557 1274.5 1547 Q1279 1537 1274 1516 Q1255 1424 1131.5 1356 Q1008 1288 843 1288 Q679 1288 584 1356.5 Q489 1425 508 1516 Z " />
<glyph glyph-name="ebreve" unicode="&#x115;" horiz-adv-x="1229" d="M427 403 Q430 292 492.5 237 Q555 182 679 182 Q803 182 937 242.5 Q1071 303 1096 303 Q1133 303 1150.5 275.5 Q1168 248 1159 205 Q1139 111 985.5 43 Q832 -25 627 -25 Q385 -25 262.5 111 Q140 247 185 461 Q231 674 411.5 810 Q592 946 834 946 Q1050 946 1164.5 818.5 Q1279 691 1240 506 Q1228 447 1194.5 425 Q1161 403 1072 403 L427 403 Z M999 559 Q1002 652 942.5 703 Q883 754 770 754 Q661 754 584 705.5 Q507 657 460 559 L999 559 Z M558 1278 Q562 1298 572 1308.5 Q582 1319 596 1319 Q622 1319 645 1286 Q668 1253 686 1241 Q715 1221 774.5 1211.5 Q834 1202 925 1202 Q1017 1202 1080.5 1211.5 Q1144 1221 1181 1241 Q1203 1252 1241 1285.5 Q1279 1319 1305 1319 Q1320 1319 1324.5 1309 Q1329 1299 1324 1278 Q1305 1186 1181.5 1118 Q1058 1050 893 1050 Q729 1050 634 1118.5 Q539 1187 558 1278 Z " />
<glyph glyph-name="Edotaccent" unicode="&#x116;" horiz-adv-x="1229" d="M1108 975 L643 975 L588 719 L764 719 L767 731 Q779 788 810 816 Q841 844 892 844 Q937 844 960 818.5 Q983 793 975 754 Q974 752 973 741 Q972 730 969 719 L925 512 Q911 445 881 416 Q851 387 797 387 Q746 387 725.5 414 Q705 441 717 494 L720 512 L544 512 L481 213 L946 213 L971 332 Q985 399 1017 428 Q1049 457 1107 457 Q1164 457 1182.5 428.5 Q1201 400 1186 332 L1135 90 Q1123 36 1098.5 18 Q1074 0 1012 0 L193 0 Q127 0 104 26 Q81 52 93 111 Q104 164 137 191.5 Q170 219 222 219 L239 219 L398 965 L381 965 Q330 965 308.5 993.5 Q287 1022 298 1075 Q310 1133 345 1159.5 Q380 1186 445 1186 L1264 1186 Q1325 1186 1342.5 1167.5 Q1360 1149 1348 1094 L1300 870 Q1286 802 1254.5 772.5 Q1223 743 1167 743 Q1109 743 1090 773 Q1071 803 1085 870 L1108 975 Z M887 1558 Q943 1558 974.5 1519 Q1006 1480 994 1425 Q982 1367 934.5 1327.5 Q887 1288 829 1288 Q773 1288 742 1328 Q711 1368 723 1425 Q735 1479 784 1518.5 Q833 1558 887 1558 Z " />
<glyph glyph-name="edotaccent" unicode="&#x117;" horiz-adv-x="1229" d="M427 403 Q430 292 492.5 237 Q555 182 679 182 Q803 182 937 242.5 Q1071 303 1096 303 Q1133 303 1150.5 275.5 Q1168 248 1159 205 Q1139 111 985.5 43 Q832 -25 627 -25 Q385 -25 262.5 111 Q140 247 185 461 Q231 674 411.5 810 Q592 946 834 946 Q1050 946 1164.5 818.5 Q1279 691 1240 506 Q1228 447 1194.5 425 Q1161 403 1072 403 L427 403 Z M999 559 Q1002 652 942.5 703 Q883 754 770 754 Q661 754 584 705.5 Q507 657 460 559 L999 559 Z M960 1320 Q1016 1320 1047.5 1281 Q1079 1242 1067 1187 Q1055 1129 1007.5 1089.5 Q960 1050 902 1050 Q846 1050 815 1090 Q784 1130 796 1187 Q808 1241 857 1280.5 Q906 1320 960 1320 Z " />
<glyph glyph-name="Eogonek" unicode="&#x118;" horiz-adv-x="1229" d="M1108 975 L643 975 L588 719 L764 719 L767 731 Q779 788 810 816 Q841 844 892 844 Q937 844 960 818.5 Q983 793 975 754 Q974 752 973 741 Q972 730 969 719 L925 512 Q911 445 881 416 Q851 387 797 387 Q746 387 725.5 414 Q705 441 717 494 L720 512 L544 512 L481 213 L946 213 L971 332 Q985 399 1017 428 Q1049 457 1107 457 Q1164 457 1182.5 428.5 Q1201 400 1186 332 L1135 90 Q1123 36 1098.5 18 Q1074 0 1012 0 L193 0 Q127 0 104 26 Q81 52 93 111 Q104 164 137 191.5 Q170 219 222 219 L239 219 L398 965 L381 965 Q330 965 308.5 993.5 Q287 1022 298 1075 Q310 1133 345 1159.5 Q380 1186 445 1186 L1264 1186 Q1325 1186 1342.5 1167.5 Q1360 1149 1348 1094 L1300 870 Q1286 802 1254.5 772.5 Q1223 743 1167 743 Q1109 743 1090 773 Q1071 803 1085 870 L1108 975 Z M662 33 L720 33 Q618 -39 566 -102 Q514 -165 500 -231 Q489 -281 505.5 -308.5 Q522 -336 562 -336 Q594 -336 621 -321.5 Q648 -307 687 -266 L717 -287 Q656 -377 587.5 -421 Q519 -465 442 -465 Q363 -465 326.5 -424 Q290 -383 305 -313 Q324 -223 412.5 -137.5 Q501 -52 662 33 Z " />
<glyph glyph-name="eogonek" unicode="&#x119;" horiz-adv-x="1229" d="M427 403 Q430 292 492.5 237 Q555 182 679 182 Q803 182 937 242.5 Q1071 303 1096 303 Q1133 303 1150.5 275.5 Q1168 248 1159 205 Q1139 111 985.5 43 Q832 -25 627 -25 Q385 -25 262.5 111 Q140 247 185 461 Q231 674 411.5 810 Q592 946 834 946 Q1050 946 1164.5 818.5 Q1279 691 1240 506 Q1228 447 1194.5 425 Q1161 403 1072 403 L427 403 Z M999 559 Q1002 652 942.5 703 Q883 754 770 754 Q661 754 584 705.5 Q507 657 460 559 L999 559 Z M776 32 L834 32 Q732 -40 680 -103 Q628 -166 614 -232 Q603 -282 619.5 -309.5 Q636 -337 676 -337 Q708 -337 735 -322.5 Q762 -308 801 -267 L831 -288 Q770 -378 701.5 -422 Q633 -466 556 -466 Q477 -466 440.5 -425 Q404 -384 419 -314 Q438 -224 526.5 -138.5 Q615 -53 776 32 Z " />
<glyph glyph-name="Ecaron" unicode="&#x11a;" horiz-adv-x="1229" d="M1108 975 L643 975 L588 719 L764 719 L767 731 Q779 788 810 816 Q841 844 892 844 Q937 844 960 818.5 Q983 793 975 754 Q974 752 973 741 Q972 730 969 719 L925 512 Q911 445 881 416 Q851 387 797 387 Q746 387 725.5 414 Q705 441 717 494 L720 512 L544 512 L481 213 L946 213 L971 332 Q985 399 1017 428 Q1049 457 1107 457 Q1164 457 1182.5 428.5 Q1201 400 1186 332 L1135 90 Q1123 36 1098.5 18 Q1074 0 1012 0 L193 0 Q127 0 104 26 Q81 52 93 111 Q104 164 137 191.5 Q170 219 222 219 L239 219 L398 965 L381 965 Q330 965 308.5 993.5 Q287 1022 298 1075 Q310 1133 345 1159.5 Q380 1186 445 1186 L1264 1186 Q1325 1186 1342.5 1167.5 Q1360 1149 1348 1094 L1300 870 Q1286 802 1254.5 772.5 Q1223 743 1167 743 Q1109 743 1090 773 Q1071 803 1085 870 L1108 975 Z M870 1467 L1185 1598 Q1194 1600 1197 1601 Q1200 1602 1203 1602 Q1221 1602 1232.5 1586.5 Q1244 1571 1240 1553 Q1238 1545 1233 1537.5 Q1228 1530 1221 1526 L899 1309 Q883 1299 866 1293.5 Q849 1288 832 1288 Q815 1288 801 1293.5 Q787 1299 776 1309 L545 1526 Q541 1530 539 1537.5 Q537 1545 539 1553 Q543 1571 560.5 1586.5 Q578 1602 596 1602 Q598 1602 601.5 1601 Q605 1600 612 1598 L870 1467 Z " />
<glyph glyph-name="ecaron" unicode="&#x11b;" horiz-adv-x="1229" d="M427 403 Q430 292 492.5 237 Q555 182 679 182 Q803 182 937 242.5 Q1071 303 1096 303 Q1133 303 1150.5 275.5 Q1168 248 1159 205 Q1139 111 985.5 43 Q832 -25 627 -25 Q385 -25 262.5 111 Q140 247 185 461 Q231 674 411.5 810 Q592 946 834 946 Q1050 946 1164.5 818.5 Q1279 691 1240 506 Q1228 447 1194.5 425 Q1161 403 1072 403 L427 403 Z M999 559 Q1002 652 942.5 703 Q883 754 770 754 Q661 754 584 705.5 Q507 657 460 559 L999 559 Z M936 1227 L1251 1358 Q1260 1360 1263 1361 Q1266 1362 1269 1362 Q1287 1362 1298.5 1346.5 Q1310 1331 1306 1313 Q1304 1305 1299 1297.5 Q1294 1290 1287 1286 L965 1069 Q949 1059 932 1053.5 Q915 1048 898 1048 Q881 1048 867 1053.5 Q853 1059 842 1069 L611 1286 Q607 1290 605 1297.5 Q603 1305 605 1313 Q609 1331 626.5 1346.5 Q644 1362 662 1362 Q664 1362 667.5 1361 Q671 1360 678 1358 L936 1227 Z " />
<glyph glyph-name="Gcircumflex" unicode="&#x11c;" horiz-adv-x="1229" d="M1163 1153 Q1189 1189 1214 1204 Q1239 1219 1271 1219 Q1320 1219 1335 1193 Q1350 1167 1336 1104 L1283 844 Q1268 775 1240.5 751 Q1213 727 1153 727 Q1111 727 1092 747.5 Q1073 768 1069 821 Q1062 917 1015 958 Q968 999 867 999 Q713 999 609.5 895 Q506 791 464 594 Q422 397 484.5 289.5 Q547 182 704 182 Q740 182 788 190.5 Q836 199 902 217 L935 375 L822 375 Q754 375 731 400 Q708 425 720 483 Q733 543 767 568.5 Q801 594 869 594 L1230 594 Q1300 594 1323 569 Q1346 544 1334 485 Q1322 432 1287.5 403.5 Q1253 375 1199 375 L1183 375 L1133 137 L1130 125 Q1123 93 1113.5 80.5 Q1104 68 1080 55 Q1016 21 886.5 -5 Q757 -31 630 -31 Q368 -31 242.5 142 Q117 315 177 594 Q234 863 436 1041 Q638 1219 890 1219 Q960 1219 1026 1203 Q1092 1187 1163 1153 Z M1043 1459 L728 1325 Q720 1323 716.5 1322 Q713 1321 711 1321 Q693 1321 681.5 1336.5 Q670 1352 674 1371 Q676 1379 681 1386 Q686 1393 692 1397 L1015 1616 Q1029 1626 1045.5 1630.5 Q1062 1635 1080 1635 Q1099 1635 1113.5 1630.5 Q1128 1626 1138 1616 L1368 1397 Q1373 1393 1375 1386.5 Q1377 1380 1376 1373 Q1372 1354 1353.5 1337.5 Q1335 1321 1318 1321 Q1313 1321 1305 1323 Q1302 1325 1301 1325 L1043 1459 Z " />
<glyph glyph-name="gcircumflex" unicode="&#x11d;" horiz-adv-x="1229" d="M727 737 Q629 737 549.5 666 Q470 595 447 485 Q424 377 473.5 306.5 Q523 236 621 236 Q720 236 799.5 306.5 Q879 377 902 485 Q925 595 875.5 666 Q826 737 727 737 Z M995 831 L1006 883 Q1010 903 1027 913.5 Q1044 924 1073 924 L1236 924 Q1305 924 1327.5 898.5 Q1350 873 1338 815 Q1326 761 1292.5 733 Q1259 705 1206 705 L1189 705 L1043 16 Q996 -203 856 -302 Q716 -401 453 -401 Q290 -401 220.5 -369 Q151 -337 166 -268 Q176 -220 213 -190 Q250 -160 301 -160 Q314 -160 385.5 -169 Q457 -178 519 -178 Q662 -178 728 -124 Q794 -70 823 70 L833 115 Q753 74 679.5 54.5 Q606 35 531 35 Q330 35 229 160.5 Q128 286 170 483 Q213 686 374.5 817 Q536 948 744 948 Q834 948 896 919.5 Q958 891 995 831 Z M870 1188 L555 1054 Q547 1052 543.5 1051 Q540 1050 538 1050 Q520 1050 508.5 1065.5 Q497 1081 501 1100 Q503 1108 508 1115 Q513 1122 519 1126 L842 1345 Q856 1355 872.5 1359.5 Q889 1364 907 1364 Q926 1364 940.5 1359.5 Q955 1355 965 1345 L1195 1126 Q1200 1122 1202 1115.5 Q1204 1109 1203 1102 Q1199 1083 1180.5 1066.5 Q1162 1050 1145 1050 Q1140 1050 1132 1052 Q1129 1054 1128 1054 L870 1188 Z " />
<glyph glyph-name="Gdotaccent" unicode="&#x120;" horiz-adv-x="1229" d="M1163 1153 Q1189 1189 1214 1204 Q1239 1219 1271 1219 Q1320 1219 1335 1193 Q1350 1167 1336 1104 L1283 844 Q1268 775 1240.5 751 Q1213 727 1153 727 Q1111 727 1092 747.5 Q1073 768 1069 821 Q1062 917 1015 958 Q968 999 867 999 Q713 999 609.5 895 Q506 791 464 594 Q422 397 484.5 289.5 Q547 182 704 182 Q740 182 788 190.5 Q836 199 902 217 L935 375 L822 375 Q754 375 731 400 Q708 425 720 483 Q733 543 767 568.5 Q801 594 869 594 L1230 594 Q1300 594 1323 569 Q1346 544 1334 485 Q1322 432 1287.5 403.5 Q1253 375 1199 375 L1183 375 L1133 137 L1130 125 Q1123 93 1113.5 80.5 Q1104 68 1080 55 Q1016 21 886.5 -5 Q757 -31 630 -31 Q368 -31 242.5 142 Q117 315 177 594 Q234 863 436 1041 Q638 1219 890 1219 Q960 1219 1026 1203 Q1092 1187 1163 1153 Z M1092 1591 Q1148 1591 1179.5 1552 Q1211 1513 1199 1458 Q1187 1400 1139.5 1360.5 Q1092 1321 1034 1321 Q978 1321 947 1361 Q916 1401 928 1458 Q940 1512 989 1551.5 Q1038 1591 1092 1591 Z " />
<glyph glyph-name="gdotaccent" unicode="&#x121;" horiz-adv-x="1229" d="M727 737 Q629 737 549.5 666 Q470 595 447 485 Q424 377 473.5 306.5 Q523 236 621 236 Q720 236 799.5 306.5 Q879 377 902 485 Q925 595 875.5 666 Q826 737 727 737 Z M995 831 L1006 883 Q1010 903 1027 913.5 Q1044 924 1073 924 L1236 924 Q1305 924 1327.5 898.5 Q1350 873 1338 815 Q1326 761 1292.5 733 Q1259 705 1206 705 L1189 705 L1043 16 Q996 -203 856 -302 Q716 -401 453 -401 Q290 -401 220.5 -369 Q151 -337 166 -268 Q176 -220 213 -190 Q250 -160 301 -160 Q314 -160 385.5 -169 Q457 -178 519 -178 Q662 -178 728 -124 Q794 -70 823 70 L833 115 Q753 74 679.5 54.5 Q606 35 531 35 Q330 35 229 160.5 Q128 286 170 483 Q213 686 374.5 817 Q536 948 744 948 Q834 948 896 919.5 Q958 891 995 831 Z M896 1322 Q952 1322 983.5 1283 Q1015 1244 1003 1189 Q991 1131 943.5 1091.5 Q896 1052 838 1052 Q782 1052 751 1092 Q720 1132 732 1189 Q744 1243 793 1282.5 Q842 1322 896 1322 Z " />
</font>
</svg>
