<?xml version="1.0" standalone="no"?>
<!DOCTYPE svg PUBLIC "-//W3C//DTD SVG 1.1//EN" "http://www.w3.org/Graphics/SVG/1.1/DTD/svg11.dtd" >
<svg xmlns="http://www.w3.org/2000/svg" xmlns:xlink="http://www.w3.org/1999/xlink" version="1.1">
<metadata>
Created by FontForge 20190801 at Mon Jan  9 15:03:20 1995
 By root
Copyright 1994 Bay Animation Inc. All Rights Reserved.
</metadata>
<defs>
<font id="RoomyBold" horiz-adv-x="1024" >
  <font-face 
    font-family="Roomy"
    font-weight="700"
    font-stretch="normal"
    units-per-em="2048"
    panose-1="0 0 7 0 0 0 0 0 0 0"
    ascent="1638"
    descent="-410"
    x-height="980.999"
    cap-height="1475"
    bbox="-179 -504.001 3353 2534"
    underline-thickness="20"
    underline-position="-143"
    unicode-range="U+0020-2219"
  />
<missing-glyph 
d="M128 0v2534h768v-2534h-768zM256 128h512v2278h-512v-2278z" />
    <glyph glyph-name=".notdef" 
d="M128 0v2534h768v-2534h-768zM256 128h512v2278h-512v-2278z" />
    <glyph glyph-name="space" unicode=" " horiz-adv-x="563" 
 />
    <glyph glyph-name="exclam" unicode="!" horiz-adv-x="563" 
d="M423 1128c-1.33301 -41.333 -8.66602 -113.667 -21.999 -217l-74 -560h-80l-98 768l-6 158c-6 154 42 231 144 231c96 0 144 -77 144 -231v-71c-2.66699 -20 -5.33398 -46 -8.00098 -78zM391 11.999c-32 -27.333 -66.667 -41.001 -104 -41.001
c-38.667 0 -73 14.5 -103 43.5s-45 62.167 -45 99.5c0 38.667 14.667 72.334 44 101.001s64 43 104 43c43.333 0 78.833 -13.5 106.5 -40.5s41.5 -61.5 41.5 -103.5c0 -36 -14.667 -70 -44 -102z" />
    <glyph glyph-name="quotedbl" unicode="&#x22;" horiz-adv-x="686" 
d="M621 1304l-72 -444h-78l-76 481c0 81.333 37.667 122 113 122c32.667 0 60.667 -10.667 84 -32c20.667 -23.333 31 -52 31 -86v-24zM289 1317v-12.001l-72 -445h-78l-78 485c0 32.667 10.5 60.5 31.5 83.5s48.833 34.5 83.5 34.5c37.333 0 67 -12 89 -36
c20 -23.333 28.667 -52.666 26 -87.999z" />
    <glyph glyph-name="numbersign" unicode="#" horiz-adv-x="1575" 
d="M1456 836h-301l-79 -219h319l-66 -184h-320l-161 -437h-210l162 437h-225l-161 -437h-207l160 437h-315l71 184l310 1l81 218h-337l70 183h333l162 439h209l-162 -439h223l162 439h209l-162 -439h301zM721 836l-82 -219h230l79 219h-227z" />
    <glyph glyph-name="dollar" unicode="$" horiz-adv-x="1129" 
d="M946 117c-92.667 -76 -207.334 -116.335 -344.001 -121.002v-138h-119v141c-184 22.667 -333.667 84 -449 184l89 295l81 -20c22.667 -92 52.667 -163.333 90 -214c44.667 -61.333 107.667 -105.666 189 -132.999v534c-270 84 -405 216.667 -405 398
c0 105.333 40.667 193 122 263c74 62.667 168.333 101.667 283 117v123h119v-123c140 -16 274.667 -63 404 -141l-74 -267l-77 15c-42.667 156.667 -127 250.334 -253 281.001v-448c182.667 -58.667 308.334 -119.334 377.001 -182.001c74 -68 111 -155.667 111 -263
c0 -121.333 -48 -221.666 -144 -300.999zM483 1320c-57.333 -4 -106 -22.999 -146 -56.999c-42.667 -36 -64 -81.667 -64 -137c0 -92.667 70 -166.334 210 -221.001v415zM815 490.999c-41.333 39.333 -112.333 77 -213 113v-507c77.333 3.33301 141.333 23.666 192 60.999
c57.333 42.667 86 100.334 86 173.001c0 64.667 -21.667 118 -65 160z" />
    <glyph glyph-name="percent" unicode="%" horiz-adv-x="1497" 
d="M1354 106c-62 -92.667 -137.667 -139 -227 -139c-96.667 0 -175.334 43.333 -236.001 130c-58.667 83.333 -88 193 -88 329c0 129.333 31.333 236.5 94 321.5s141.334 127.5 236.001 127.5c90 0 164.667 -43 224 -129c56.667 -82.667 85 -190.667 85 -324
c0 -124 -29.333 -229.333 -88 -316zM307 -40l-107 54l988 1449l108 -55zM607 686c-62 -92 -138 -138 -228 -138c-97.333 0 -176 43.667 -236 131c-58.667 85.333 -88 194.333 -88 327c0 130.667 31 237.667 93 321c64 86 143 129 237 129c92 0 167.333 -43.333 226 -130
c56 -82.667 84 -190.667 84 -324c0 -124 -29.333 -229.333 -88 -316zM1216 710c-20.667 51.333 -52.332 77.001 -94.999 77.001c-83.333 0 -125 -113 -125 -339c0 -154.667 11 -260.334 33 -317.001c20.667 -52 52.667 -78 96 -78c41.333 0 71.666 25.333 90.999 76
c23.333 62 35 161 35 297c0 130 -11.667 224.667 -35 284zM469.002 1291c-20.667 51.333 -52.667 76.998 -96 76.998c-83.333 0 -125 -113.333 -125 -340c0 -153.333 11 -258.666 33 -315.999c20.667 -52 52.667 -78 96 -78c42.667 0 74 25.333 94 76
c22 56.667 33 155.334 33 296.001c0 130.667 -11.667 225.667 -35 285z" />
    <glyph glyph-name="ampersand" unicode="&#x26;" horiz-adv-x="1389" 
d="M1118 585c-31.333 -84 -60 -156.002 -86 -216.002c24.667 -41.333 49.334 -83 74.001 -125c34 -52.667 65.167 -90.5 93.5 -113.5s65.5 -39.5 111.5 -49.5v-81h-361l-90 161c-102.667 -110 -224 -165 -364 -165c-118 0 -218.667 42.167 -302 126.5
s-125 183.833 -125 298.5c0 222.667 137.667 395.334 413 518.001c-21.333 78.667 -32 136 -32 172c0 109.333 34.167 199 102.5 269s158.833 105 271.5 105c85.333 0 157.333 -19.667 216 -59c63.333 -42.667 95 -93 95 -151c0 -34.667 -11.5 -62.667 -34.5 -84
s-52.5 -32 -88.5 -32c-66.667 0 -116.667 40.333 -150 121c-8 20.667 -23 46.334 -45 77.001c-18 9.33301 -37.667 14 -59 14c-32 0 -58 -14.667 -78 -44c-18 -26 -27 -55.333 -27 -88c0 -99.333 103.333 -351.666 310 -756.999c50 121.333 75 215 75 281
c0 32 -7.66699 59 -23 81c-10.667 21.333 -34.334 37.666 -71.001 48.999v77h378v-77c-68.667 -21.333 -136.667 -124 -204 -308zM646 574.998c-42 81.333 -84 171.666 -126 270.999c-154 -70 -231 -174.667 -231 -314c0 -107.333 40 -198.666 120 -273.999
c65.333 -60.667 134 -91 206 -91c76.667 0 141 29 193 87z" />
    <glyph glyph-name="quotesingle" unicode="'" horiz-adv-x="353" 
d="M289 1329l-2 -25.002l-70 -444h-78l-76 451c-4 54.667 5.66699 94.334 29 119.001c20.667 22 48.667 33 84 33c32.667 0 60.667 -10.667 84 -32c20.667 -23.333 31 -52.666 31 -87.999z" />
    <glyph glyph-name="parenleft" unicode="(" horiz-adv-x="750" 
d="M102 512c0 200 52.333 385.165 157 555.498s267.667 323.833 489 460.5v-115c-251.333 -184 -377 -484.333 -377 -901c0 -413.333 125.667 -713.666 377 -900.999v-115c-220.667 134.667 -383.5 287.834 -488.5 459.501s-157.5 357.167 -157.5 556.5z" />
    <glyph glyph-name="parenright" unicode=")" horiz-adv-x="750" 
d="M2 -504v115.001c250 185.333 375 485.666 375 900.999c0 420 -125 720.333 -375 901v115c221.333 -135.333 384 -288 488 -458c105.333 -172 158 -358 158 -558c0 -198.667 -52.667 -383.5 -158 -554.5s-268 -324.833 -488 -461.5z" />
    <glyph glyph-name="asterisk" unicode="*" 
d="M555 1161c42 28 71.9971 55.3291 89.9971 81.9961l8 13c54 67.333 104 101 150 101c28.667 0 54 -11.833 76 -35.5s33 -49.167 33 -76.5c0 -29.333 -12.833 -55.166 -38.5 -77.499s-54.5 -34.833 -86.5 -37.5c-85.333 -8 -148.666 -20.667 -189.999 -38
c44 -18 96 -29.667 156 -35l22 -2c38.667 -3.33301 71.167 -15.666 97.5 -36.999s39.5 -49.333 39.5 -84c0 -28 -11.833 -52.833 -35.5 -74.5s-50.167 -32.5 -79.5 -32.5c-37.333 0 -75.666 22.667 -114.999 68l-92 106c-10.667 8 -23 16 -37 24
c4 -36.667 15 -75.667 33 -117c12 -26.667 25.667 -68 41 -124c0 -31.333 -11 -57.166 -33 -77.499s-49.333 -30.5 -82 -30.5c-34 0 -62 9.83301 -84 29.5s-33 45.5 -33 77.5c0 18.667 13.667 57.667 41 117c20 43.333 31.333 85 34 125
c-37.333 -24.667 -68.666 -55 -93.999 -91c-49.333 -70 -99.333 -105 -150 -105c-31.333 0 -58.166 10.833 -80.499 32.5s-33.5 47.5 -33.5 77.5c0 66.667 58 106.667 174 120c26 0 43.667 1.33301 53 4c27.333 2.66699 58.333 12.667 93 30c-36 17.333 -97.333 29 -184 35
c-38.667 2.66699 -71 15.167 -97 37.5s-39 49.5 -39 81.5c0 26.667 10.333 52.334 31 77.001c24 22 50.667 33 80 33c40 0 79.667 -22.333 119 -67c61.333 -70 92.666 -105.333 93.999 -106c10.667 -8.66699 22.334 -17 35.001 -25c-2.66699 27.333 -16.334 70 -41.001 128
c-23.333 54.667 -35 92 -35 112c0 28.667 10.667 54.667 32 78c24.667 20.667 53 31 85 31c76.667 0 115 -35.667 115 -107c0 -15.333 -11 -51.333 -33 -108c-23.333 -59.333 -36.333 -103.333 -39 -132z" />
    <glyph glyph-name="plus" unicode="+" horiz-adv-x="1706" 
d="M949 519v-519h-191v519h-529v182h529v520h191v-520h528v-182h-528z" />
    <glyph glyph-name="comma" unicode="," horiz-adv-x="563" 
d="M368 -147c-42 -64 -111.667 -138.668 -209 -224.001l-68 70c93.333 88.667 140 163.667 140 225c0 14 -16.667 37.667 -50 71s-50 66 -50 98c0 36.667 13.333 66.5 40 89.5s60 34.5 100 34.5c50 0 90.333 -18 121 -54c28.667 -32.667 43 -72.667 43 -120
c0 -59.333 -22.333 -122.666 -67 -189.999z" />
    <glyph glyph-name="hyphen" unicode="-" horiz-adv-x="692" 
d="M36 428v144h620v-144h-620z" />
    <glyph glyph-name="hyphen" unicode="&#x2010;" horiz-adv-x="692" 
d="M36 428v144h620v-144h-620z" />
    <glyph glyph-name="period" unicode="." horiz-adv-x="563" 
d="M391 6c-32 -23.333 -66.667 -35 -104 -35c-38.667 0 -73 12.5 -103 37.5s-45 53.5 -45 85.5c0 33.333 14.667 62.166 44 86.499s64 36.5 104 36.5c43.333 0 78.833 -11.5 106.5 -34.5s41.5 -52.5 41.5 -88.5c0 -31.333 -14.667 -60.666 -44 -87.999z" />
    <glyph glyph-name="slash" unicode="/" horiz-adv-x="768" 
d="M-54 -200l-115 61l909 1655l115 -58z" />
    <glyph glyph-name="zero" unicode="0" horiz-adv-x="1129" 
d="M1062 539c-16 -106 -52 -208.332 -108 -306.999c-64 -113.333 -139.333 -190.333 -226 -231c-49.333 -22.667 -102 -34 -158 -34c-177.333 0 -312 86 -404 258c-74 137.333 -111 302.666 -111 495.999c0 213.333 49 388.333 147 525c100.667 140 227.334 210 380.001 210
c143.333 0 261.666 -70 354.999 -210c91.333 -137.333 137 -315 137 -533c0 -61.333 -4 -119.333 -12 -174zM744 1216c-37.333 93.333 -95.999 140.002 -175.999 140.002c-81.333 0 -141.333 -44.333 -180 -133c-42.667 -98.667 -64 -254.334 -64 -467.001
c0 -259.333 20 -441 60 -545c38 -97.333 100 -146 186 -146c79.333 0 137.666 46.333 174.999 139c40 101.333 60 273.666 60 516.999c0 229.333 -20.333 394.333 -61 495z" />
    <glyph glyph-name="one" unicode="1" horiz-adv-x="1129" 
d="M336 0v86c40 0 65.333 10 76 30c12.667 26 19 66 19 120v861c0 49.333 -13.333 82 -40 98c-18.667 11.333 -53.334 17 -104.001 17v82c100.667 19.333 202.334 73.333 305.001 162h82v-1220c0 -58 6.66699 -98.333 20 -121c11.333 -19.333 37 -29 77 -29v-86h-435z" />
    <glyph glyph-name="two" unicode="2" horiz-adv-x="1129" 
d="M965 879c-29.333 -76.667 -82.6699 -149.333 -160.003 -218c-34 -30.667 -108 -85.667 -222 -165c-145.333 -101.333 -254.666 -197 -327.999 -287h384c74 0 129.333 9.66699 166 29c33.333 17.333 61.333 55 84 113l86 -17l-82 -334h-862v69
c116.667 170.667 253 329 409 475c98.667 93.333 166 168 202 224c54 84 81 178.667 81 284c0 76 -13 141.333 -39 196c-34 72 -86.333 108 -157 108c-71.333 0 -117.333 -28 -138 -84c-9.33301 -24.667 -14 -49.667 -14 -75c0 -55.333 -13.833 -100.666 -41.5 -135.999
s-63.5 -53 -107.5 -53c-36.667 0 -66.167 12.5 -88.5 37.5s-33.5 55.5 -33.5 91.5c0 83.333 43.667 157.666 131 222.999c84.667 64 183.334 96 296.001 96c132.667 0 242.334 -40.333 329.001 -121s130 -185 130 -313c0 -50 -8.33301 -97.667 -25 -143z" />
    <glyph glyph-name="three" unicode="3" horiz-adv-x="1129" 
d="M518 -33c-116.667 0 -218.664 27.001 -305.997 81.001c-89.333 56 -134 121.333 -134 196c0 32 10.667 60.167 32 84.5s48.333 36.5 81 36.5c37.333 0 68.666 -10.667 93.999 -32c14.667 -12 25.667 -23 33 -33c18.667 -36.667 37 -73.334 55 -110.001
c25.333 -48.667 47.333 -80 66 -94c24 -17.333 56.667 -26 98 -26c146 0 219 112 219 336c0 81.333 -13.333 148.333 -40 201c-35.333 70.667 -91.333 104.334 -168 101.001l-48 -2l-69 -9l-4 96c100 13.333 171 40.333 213 81c45.333 44 68 113.333 68 208
c0 181.333 -61 272 -183 272c-55.333 0 -93.666 -15.333 -114.999 -46c-11.333 -16.667 -21.333 -51 -30 -103c-8.66699 -49.333 -22.334 -85 -41.001 -107c-24 -28.667 -53.667 -43 -89 -43c-34 0 -63.333 13 -88 39s-37 55.333 -37 88c0 74.667 41.667 139.667 125 195
c79.333 52.667 175.666 79 288.999 79c123.333 0 226.166 -34.5 308.499 -103.5s123.5 -154.833 123.5 -257.5c0 -127.333 -77.333 -228 -232 -302c86.667 -28.667 155 -73.334 205 -134.001c52.667 -64 79 -139.333 79 -226c0 -137.333 -50.333 -250.333 -151 -339
c-96 -84.667 -214 -127 -354 -127z" />
    <glyph glyph-name="four" unicode="4" horiz-adv-x="1129" 
d="M857 334l0.000976562 -49.999c0 -85.333 4.66699 -139.333 14 -162c8 -18.667 31.333 -32.334 70 -41.001v-81h-415v82c35.333 6 58.666 20.333 69.999 43c10.667 28 16 81 16 159v50h-575v87l637 1029h183v-944h209v-172h-209zM235.001 506.001h377l4 628z" />
    <glyph glyph-name="five" unicode="5" horiz-adv-x="1129" 
d="M488 -33c-106.667 0 -198.331 25.334 -274.998 76.001c-79.333 52.667 -119 114 -119 184c0 33.333 10.667 61.5 32 84.5s49 34.5 83 34.5c62.667 0 117 -43 163 -129c50.667 -94.667 111.667 -142 183 -142c79.333 0 137.666 42.333 174.999 127
c28 62 42 136.667 42 224c0 123.333 -26 223.333 -78 300c-49.333 73.333 -111.333 110 -186 110c-110.667 0 -188 -70.667 -232 -212l-99 13l25 797c94 -34.667 204.333 -52 331 -52c141.333 0 254.666 26.667 339.999 80l58 -46c-81.333 -124 -197.333 -201 -348 -231
c-53.333 -10.667 -105.333 -15.334 -156 -14.001l-75 2l-45 3l-7 -311c75.333 80 170 120 284 120c132 0 240 -47.667 324 -143c79.333 -90 119 -199.667 119 -329c0 -158 -50.5 -288.5 -151.5 -391.5s-230.167 -154.5 -387.5 -154.5z" />
    <glyph glyph-name="six" unicode="6" horiz-adv-x="1129" 
d="M1004 303c-32 -92.667 -87.332 -170.668 -165.999 -234.001c-83.333 -68 -173.333 -102 -270 -102c-162.667 0 -286.334 74.333 -371.001 223c-68.667 121.333 -103 270 -103 446c0 248 49 445.667 147 593c100.667 151.333 234.667 227 402 227
c94 0 172.667 -19.667 236 -59c66 -41.333 99 -93 99 -155c0 -28.667 -11.333 -53.667 -34 -75s-49 -32 -79 -32c-52 0 -102.167 34.833 -150.5 104.5s-95.833 104.5 -142.5 104.5c-132.667 0 -205.667 -166.333 -219 -499c64.667 81.333 152.667 122 264 122
c113.333 0 211.333 -46.167 294 -138.5s124 -204.166 124 -335.499c0 -66 -10.333 -129.333 -31 -190zM716.001 773.999c-30.667 56.667 -76.666 84.999 -137.999 84.999c-144.667 0 -217 -122 -217 -366c0 -149.333 18 -259.666 54 -330.999
c33.333 -64.667 85.666 -97 156.999 -97c84 0 140.667 52.667 170 158c16 58 24 144 24 258c0 132 -16.667 229.667 -50 293z" />
    <glyph glyph-name="seven" unicode="7" horiz-adv-x="1129" 
d="M758 717c-72 -232.667 -107.998 -482.666 -107.998 -749.999h-279c0 192.667 52.667 415.667 158 669c81.333 197.333 191.333 389.666 330 576.999h-357c-102.667 0 -170.334 -9.83301 -203.001 -29.5s-57.667 -63.5 -75 -131.5l-87 4l33 366h896v-82
c-136.667 -193.333 -239.334 -401 -308.001 -623z" />
    <glyph glyph-name="eight" unicode="8" horiz-adv-x="1129" 
d="M565 -33c-139.333 0 -256 39.332 -350 117.999s-141 173.667 -141 285c0 146 93.667 266.333 281 361c-144.667 81.333 -217 194.333 -217 339c0 114.667 43.333 208.334 130 281.001c82.667 70 184 105 304 105c116 0 214 -31.333 294 -94
c81.333 -64.667 122 -143.667 122 -237c0 -132.667 -76.667 -237.667 -230 -315c196.667 -99.333 295 -231.333 295 -396c0 -132 -49 -240.667 -147 -326c-93.333 -80.667 -207 -121 -341 -121zM561 1356c-63.333 0 -114 -17 -152 -51s-57 -81.333 -57 -142
c0 -119.333 98 -220.666 294 -303.999c98.667 49.333 148 133.666 148 252.999c0 78 -20.833 138.167 -62.5 180.5s-98.5 63.5 -170.5 63.5zM466 678.999c-116.667 -54 -175 -153 -175 -297c0 -90.667 22.667 -164.334 68 -221.001c50 -62 120.333 -93 211 -93
c78.667 0 140 23.333 184 70c43.333 44.667 65 105.334 65 182.001c0 151.333 -117.667 271 -353 359z" />
    <glyph glyph-name="nine" unicode="9" horiz-adv-x="1129" 
d="M894 180c-99.333 -142 -231.333 -213.002 -396 -213.002c-92 0 -170.667 19.333 -236 58c-70 40.667 -105 90.334 -105 149.001c0 32 11.333 58.5 34 79.5s50.667 31.5 84 31.5c50.667 0 113.334 -49.333 188.001 -148c13.333 -18 29.666 -33 48.999 -45
c18.667 -8.66699 39.334 -13 62.001 -13c98.667 0 161.334 102 188.001 306c7.33301 54 12 116.333 14 187c-66.667 -82 -153.334 -123 -260.001 -123c-128 0 -232.667 49.333 -314 148c-75.333 92.667 -113 204.667 -113 336c0 100.667 24 193 72 277
c50 88 119.333 155.333 208 202c57.333 29.333 114.666 44 171.999 44c153.333 0 275 -67 365 -201c87.333 -129.333 131 -303.666 131 -522.999c0 -231.333 -47.667 -415.333 -143 -552zM713 1254c-36 68 -90.667 102 -164 102c-128 0 -192 -128.667 -192 -386
c0 -271.333 66 -407 198 -407c81.333 0 140.333 42.667 177 128c26.667 60.667 40 136 40 226c0 150.667 -19.667 263 -59 337z" />
    <glyph glyph-name="colon" unicode=":" horiz-adv-x="563" 
d="M287 675c-38.667 0 -73 14.332 -103 42.999s-45 61.334 -45 98.001c0 38.667 14.5 72.167 43.5 100.5s63.833 42.5 104.5 42.5c42 0 77.167 -13.833 105.5 -41.5s42.5 -61.5 42.5 -101.5c0 -38 -15 -71 -45 -99s-64.333 -42 -103 -42zM391 10.999
c-32 -26.667 -66.667 -40 -104 -40c-38.667 0 -73 14.333 -103 43s-45 61.334 -45 98.001c0 38 14.667 71 44 99s64 42 104 42c43.333 0 78.833 -13.333 106.5 -40s41.5 -60.334 41.5 -101.001c0 -36 -14.667 -69.667 -44 -101z" />
    <glyph glyph-name="semicolon" unicode=";" horiz-adv-x="563" 
d="M287 672c-38.667 0 -73 14.5 -103 43.5s-45 61.833 -45 98.5c0 39.333 14.5 73.333 43.5 102s63.833 43 104.5 43c42 0 77.167 -14 105.5 -42s42.5 -62.333 42.5 -103c0 -38.667 -15 -72 -45 -100s-64.333 -42 -103 -42zM368 -136c-42 -68 -111.667 -146.333 -209 -235
l-68 72c93.333 93.333 140 172.333 140 237c0 14 -16.667 38.667 -50 74s-50 69.333 -50 102c0 38.667 13.333 70 40 94s60 36 100 36c50 0 90.333 -18.667 121 -56c28.667 -34.667 43 -76.667 43 -126c0 -62 -22.333 -128 -67 -198z" />
    <glyph glyph-name="less" unicode="&#x3c;" horiz-adv-x="1706" 
d="M239 534v155l1228 482v-198l-928 -362l928 -361v-198z" />
    <glyph glyph-name="equal" unicode="=" horiz-adv-x="1706" 
d="M229 706v173h1248v-173h-1248zM229 342v174h1248v-174h-1248z" />
    <glyph glyph-name="greater" unicode="&#x3e;" horiz-adv-x="1706" 
d="M239 52v198l930 361l-930 362v198l1228 -482v-155z" />
    <glyph glyph-name="question" unicode="?" horiz-adv-x="910" 
d="M730 695c-89.333 -84.667 -207.999 -129.332 -355.999 -133.999l-12 -210h-114l-4 462l68 -3c231.333 0 347 106 347 318c0 79.333 -20.333 144.333 -61 195c-44.667 56 -106.667 84 -186 84c-99.333 0 -149 -45.333 -149 -136c0 -118 -46.667 -177 -140 -177
c-32.667 0 -61.334 12 -86.001 36c-20.667 28 -31 58.333 -31 91c0 76 41 143.667 123 203c78 56 172.333 84 283 84c129.333 0 238.333 -45 327 -135c86.667 -88.667 130 -196 130 -322c0 -150.667 -46.333 -269.334 -139 -356.001zM403.001 12.002
c-32 -27.333 -67.334 -41.002 -106.001 -41.002s-73 14.5 -103 43.5s-45 62.167 -45 99.5c0 38.667 14.667 72.334 44 101.001s64 43 104 43c42.667 0 78.334 -13.667 107.001 -41s43 -61.666 43 -102.999c0 -36 -14.667 -70 -44 -102z" />
    <glyph glyph-name="at" unicode="@" horiz-adv-x="2020" 
d="M1846 461c-40.667 -94 -99.3359 -173.666 -176.003 -238.999c-87.333 -73.333 -179 -110 -275 -110c-120.667 0 -195 54 -223 162c-79.333 -106.667 -177 -160 -293 -160c-98 0 -175.333 36 -232 108c-50.667 65.333 -76 146.666 -76 243.999
c0 156 66.333 295.333 199 418c97.333 90.667 203.333 136 318 136c104 0 177 -43 219 -129l34 114l210 -1l-185 -639c-9.33301 -26.667 -14 -51.667 -14 -75c0 -53.333 21.667 -80 65 -80c45.333 0 97 21.667 155 65c153.333 114 230 284.667 230 512
c0 173.333 -67.667 312.666 -203 417.999c-126 98 -280 147 -462 147c-238 0 -435.333 -76 -592 -228c-164.667 -159.333 -247 -362.666 -247 -609.999c0 -217.333 75.333 -388.333 226 -513c145.333 -120 327 -180 545 -180c106 0 212.667 17 320 51
c105.333 34 209.333 87 312 159l64 -78c-223.333 -156 -454.666 -234 -693.999 -234c-427.333 0 -717 152.667 -869 458c-56.667 112.667 -85 233 -85 361c0 275.333 115.333 506.666 346 693.999c182.667 148 400.334 222 653.001 222
c236.667 0 427.334 -63.167 572.001 -189.5s217 -294.166 217 -503.499c0 -108.667 -19.667 -208.667 -59 -300zM1195 880.001c-23.333 30.667 -53.667 45.999 -91 45.999c-59.333 0 -115 -38 -167 -114c-40 -59.333 -74.667 -129.333 -104 -210
c-32 -87.333 -48 -163 -48 -227c0 -39.333 9 -74.333 27 -105c21.333 -37.333 51 -56 89 -56c72 0 142.333 53.333 211 160c80.667 126.667 121 252.334 121 377.001c0 52 -12.667 95 -38 129z" />
    <glyph glyph-name="A" unicode="A" horiz-adv-x="1241" 
d="M809 0l0.000976562 82.0029c42.667 7.33301 66.334 25.666 71.001 54.999c-0.666992 12.667 -8.33398 42 -23.001 88l-76 239h-468l-57 -173l-14 -52c-4.66699 -56.667 0.666016 -96.334 15.999 -119.001c16.667 -18.667 43.667 -31.334 81 -38.001v-82h-411v79
c56.667 18.667 101 49.167 133 91.5s66 117.833 102 226.5l374 1111h165l414 -1234c31.333 -94 60.333 -151.667 87 -173c12 -10 30.333 -15 55 -15v-86h-449zM556.001 1182l-202 -600h390z" />
    <glyph glyph-name="B" unicode="B" horiz-adv-x="1309" 
d="M621 0h-569.999v86c39.333 0 64.333 10 75 30c12.667 24.667 19 64.667 19 120v1001c0 60.667 -6.33301 101.667 -19 123c-11.333 19.333 -36.333 29 -75 29v86l463 10c223.333 4 394.666 -29.5 513.999 -100.5s179 -163.833 179 -278.5
c0 -145.333 -99.667 -250.333 -299 -315c102 -30 184.333 -76.333 247 -139c71.333 -72 107 -156.333 107 -253c0 -150 -74 -258.667 -222 -326c-108 -48.667 -247.667 -73 -419 -73zM602.001 1379c-86.667 0 -141.334 -8.00195 -164.001 -24.002s-34 -54.667 -34 -116v-398
h106c164.667 0 280.334 21 347.001 63c63.333 40.667 95 107.334 95 200.001c0 87.333 -29.333 154.833 -88 202.5s-146 71.834 -262 72.501zM613.001 732.998l-209 -0.00195312v-499c0 -57.333 9.33301 -92.666 28 -105.999s72 -20 160 -20c130.667 0 227.667 20 291 60
c77.333 48.667 116 132.334 116 251.001c0 104.667 -31.5 183.167 -94.5 235.5s-160.167 78.5 -291.5 78.5z" />
    <glyph glyph-name="C" unicode="C" horiz-adv-x="1374" 
d="M1078 59c-103.333 -61.333 -219.669 -92 -349.002 -92c-205.333 0 -370.333 66 -495 198s-187 309 -187 531c0 274 92.667 495.333 278 664c108 98.667 251.667 148 431 148c165.333 0 342.333 -61.333 531 -184l-89 -276l-84 11
c-75.333 227.333 -209.666 341 -402.999 341c-141.333 0 -248.666 -66 -321.999 -198c-59.333 -106 -89 -235.667 -89 -389c0 -200 49.333 -364.667 148 -494c97.333 -126.667 221 -190 371 -190c173.333 0 327 92 461 276l76 -54c-84 -134.667 -176.667 -232 -278 -292z
" />
    <glyph glyph-name="D" unicode="D" horiz-adv-x="1485" 
d="M621 0l-570.001 0.000976562v86c39.333 0 64.333 10 75 30c12.667 24.667 19 64.667 19 120v1001c0 60.667 -6.33301 101.667 -19 123c-11.333 19.333 -36.333 29 -75 29v86l519 12c198.667 0 352.667 -27.333 462 -82c126.667 -64 225.334 -160.333 296.001 -289
c66.667 -120.667 100 -253.334 100 -398.001c0 -224 -71.5 -399.667 -214.5 -527s-340.5 -191 -592.5 -191zM1027 1221c-79.333 103.333 -203.667 155.334 -373 156.001c-109.333 0 -179.333 -9.66699 -210 -29c-26.667 -16.667 -40 -53.667 -40 -111v-1024
c0 -40.667 9.5 -68.334 28.5 -83.001s64.833 -22 137.5 -22c214 0 364.167 45.5 450.5 136.5s129.5 251.5 129.5 481.5c0 223.333 -41 388.333 -123 495z" />
    <glyph glyph-name="E" unicode="E" horiz-adv-x="1256" 
d="M1162 0l-1111 -0.00195312v86c39.333 0 64.333 10 75 30c12.667 24.667 19 64.667 19 120v1001c0 60 -6.33301 101 -19 123c-11.333 19.333 -36.333 29 -75 29v86h1078l29 -323l-87 -11c-32.667 88 -76 145.667 -130 173c-56 28.667 -170.333 43 -343 43h-63
c-66 0 -104.333 -4 -115 -12s-16 -33 -16 -75v-381h188c108.667 0 183.667 8.66699 225 26c38.667 16.667 68.334 53.334 89.001 110.001h78v-387h-79c-22 57.333 -47 93.333 -75 108c-31.333 16.667 -101 25 -209 25h-217v-540c0 -53.333 7.66699 -85 23 -95
c18.667 -13.333 69 -20 151 -20h98c40 0 83.333 3 130 9c104.667 12.667 183.334 41.667 236.001 87c38 32.667 83.667 84.334 137 155.001l80 -42z" />
    <glyph glyph-name="F" unicode="F" horiz-adv-x="1166" 
d="M1069 1141c-36.667 88 -82.668 146 -138.001 174s-156.666 42 -303.999 42c-120 0 -192 -5.66699 -216 -17l-4 -7l-3 -25v-419h196c110.667 0 187.667 10 231 30c38 18 64.333 56.667 79 116h80v-393h-77c-22 54 -47.667 88.667 -77 104c-32 16.667 -100.333 25 -205 25
h-227v-534c0 -60 6.66699 -100.333 20 -121c10 -20 34.667 -30 74 -30v-86h-447v86c39.333 0 64.333 10 75 30c12.667 24.667 19 64.667 19 120v1001c0 60 -6.33301 101 -19 123c-11.333 19.333 -36.333 29 -75 29v86h1066l31 -317z" />
    <glyph glyph-name="G" unicode="G" horiz-adv-x="1503" 
d="M762 -33c-214.667 0 -395 81.6689 -541 245.002c-116.667 130 -175 296.667 -175 500c0 165.333 43.667 315.333 131 450c90.667 140.667 213.667 239.667 369 297c88.667 32.667 186 49 292 49c165.333 0 344 -59.333 536 -178l-66 -276l-71 4
c-102 225.333 -256.333 338 -463 338c-300 0 -450 -218.667 -450 -656c0 -445.333 157.667 -668 473 -668c82.667 0 154 14.667 214 44c75.333 38 113 94 113 168v434c0 36.667 -7 65.667 -21 87c-12 19.333 -37 31.666 -75 36.999v76h431v-79
c-30.667 0 -53 -7.66699 -67 -23c-11.333 -18 -17 -40.667 -17 -68v-429c0 -30.667 6.33301 -55.334 19 -74.001c10.667 -15.333 33.667 -23 69 -23v-65c-130.667 -63.333 -256.167 -110.833 -376.5 -142.5s-228.5 -47.5 -324.5 -47.5z" />
    <glyph glyph-name="H" unicode="H" horiz-adv-x="1428" 
d="M928 0l0.000976562 86c41.333 0 66.666 10 75.999 30c13.333 23.333 20 63.333 20 120v516h-620v-516c0 -58 6.66699 -98.333 20 -121c11.333 -19.333 36 -29 74 -29v-86h-447v86c39.333 0 64.333 10 75 30c12.667 24.667 19 64.667 19 120v1001
c0 60 -6.33301 101 -19 123c-11.333 19.333 -36.333 29 -75 29v86h447v-86c-39.333 0 -64 -9 -74 -27c-13.333 -24 -20 -65.667 -20 -125v-368h620v368c0 60 -6.66699 101.667 -20 125c-10 18 -35.333 27 -76 27v86h449v-86c-39.333 0 -64.333 -9.66699 -75 -29
c-14 -25.333 -21 -66.333 -21 -123l6 -1085c6.66699 -27.333 16 -45.333 28 -54c9.33301 -6 30 -11 62 -15v-83h-449z" />
    <glyph glyph-name="I" unicode="I" horiz-adv-x="574" 
d="M61 0v86c39.333 0 64.333 10 75 30c12.667 24.667 19 64.667 19 120v1001c0 58 -6.33301 99 -19 123c-10 19.333 -35 29 -75 29v86h452v-86c-40 0 -65 -9 -75 -27c-13.333 -23.333 -20 -65 -20 -125v-1001c0 -57.333 6.66699 -98.333 20 -123c10 -18 35 -27 75 -27v-86
h-452z" />
    <glyph glyph-name="J" unicode="J" horiz-adv-x="584" 
d="M450 1360c-11.333 -26.667 -17.001 -68.334 -17.001 -125.001v-1206c0 -96.667 -5.33301 -169.334 -16 -218.001c-15.333 -74.667 -47.666 -139 -96.999 -193c-71.333 -77.333 -168.333 -116 -291 -116c-56 0 -102.667 11 -140 33c-45.333 26.667 -68 65.667 -68 117
c0 36.667 13.167 68.334 39.5 95.001s58.5 40 96.5 40c42.667 0 81.667 -27 117 -81s57.333 -81 66 -81c10.667 0 17.667 3 21 9c6 10 9 42.667 9 98v1503c0 80 -12.333 128.667 -37 146c-9.33301 2.66699 -28.333 6.33398 -57 11.001v83h451v-87
c-39.333 0 -65 -9.33301 -77 -28z" />
    <glyph glyph-name="K" unicode="K" horiz-adv-x="1313" 
d="M858 0v86.001c42 0 63 13.333 63 40c0 22 -29.333 81 -88 177l-247 401l-182 -190v-278c0 -58 6.66699 -98.333 20 -121c11.333 -19.333 36 -29 74 -29v-86h-447v86c39.333 0 64.333 10 75 30c12.667 24.667 19 64.667 19 120v1001c0 60 -6.33301 101 -19 123
c-11.333 19.333 -36.333 29 -75 29v86h447v-86c-39.333 0 -64 -9 -74 -27c-13.333 -24 -20 -65.667 -20 -125v-557l243 260c146 156 232 252.667 258 290c31.333 45.333 47 78.666 47 99.999c0 19.333 -4.33301 32.666 -13 39.999c-8.66699 10 -30.334 17.333 -65.001 22v83
h462v-82c-65.333 -12.667 -139.333 -59 -222 -139c-20.667 -19.333 -67.667 -67.666 -141 -144.999l-211 -222l342 -547c56 -89.333 88.333 -140 97 -152c48.667 -64.667 94.334 -99.667 137.001 -105v-83h-480z" />
    <glyph glyph-name="L" unicode="L" horiz-adv-x="1176" 
d="M1102 0l-1041 0.000976562v86c39.333 0 64.333 10 75 30c12.667 24.667 19 64.667 19 120v1001c0 58 -6.33301 99 -19 123c-10 19.333 -35 29 -75 29v86h452v-86c-40 0 -65 -9 -75 -27c-13.333 -23.333 -20 -65 -20 -125v-1007c0 -52 7 -83 21 -93
c15.333 -12.667 56 -19 122 -19c165.333 0 285 19.333 359 58c52.667 27.333 113.334 90.666 182.001 189.999l85 -27z" />
    <glyph glyph-name="M" unicode="M" horiz-adv-x="1684" 
d="M1237 -1v87.002c34.667 0 58.334 7.66699 71.001 23s19 35.333 19 60v19l-4 27l-136 925l-322 -1157h-140l-358 1165l-127 -849c-3.33301 -80 4.66699 -135.667 24 -167c15.333 -24.667 48.333 -41.667 99 -51v-82h-413v81c67.333 16.667 116.333 69.667 147 159
c10 29.333 18.333 65.666 25 108.999l131 853c2 79.333 -2 128.666 -12 147.999c-12 15.333 -38 31.333 -78 48l2 78h368l322 -1078l302 1078h351v-86c-31.333 0 -53 -7 -65 -21c-18 -21.333 -24.333 -51.666 -19 -90.999l4 -31l143 -973c8.66699 -60 22 -106.333 40 -139
c15.333 -28.667 39.666 -46.334 72.999 -53.001v-82h-447z" />
    <glyph glyph-name="N" unicode="N" horiz-adv-x="1395" 
d="M1262 1048l0.00195312 -1065h-122l-892 1209v-861c0 -77.333 10.667 -136.333 32 -177c19.333 -36 56.666 -60.333 111.999 -73v-82h-404v79c56.667 22 95 53 115 93c16 32 24 80 24 144v909c0 54.667 -8.33301 97 -25 127c-16.667 22 -49.334 35.333 -98.001 40v84h349
l788 -1068v628c0 128 -10.333 218 -31 270c-18.667 46 -59 75.667 -121 89v81h380v-75c-42 -26 -70.333 -58.667 -85 -98s-22 -124 -22 -254z" />
    <glyph glyph-name="O" unicode="O" horiz-adv-x="1471" 
d="M1367 433c-35.333 -89.333 -84.668 -170.668 -148.001 -244.001c-70 -79.333 -147 -136.666 -231 -171.999c-78.667 -33.333 -163.667 -50 -255 -50c-213.333 0 -383.666 77.667 -510.999 233c-117.333 143.333 -176 321.666 -176 534.999c0 236 86 436.333 258 601
c56.667 54 123.5 96.167 200.5 126.5s156.833 45.5 239.5 45.5c167.333 0 304 -49.333 410 -148c180 -167.333 270 -372 270 -614c0 -113.333 -19 -217.666 -57 -312.999zM734.998 1405c-154 0 -264.667 -81.334 -332 -244.001c-47.333 -113.333 -71 -256.666 -71 -429.999
c0 -439.333 134.333 -659 403 -659c134.667 0 234.667 54 300 162c67.333 110.667 101 287 101 529c0 428 -133.667 642 -401 642z" />
    <glyph glyph-name="P" unicode="P" horiz-adv-x="1256" 
d="M598 634h-75.001c-16.667 2.66699 -28.667 4 -36 4l-83 9v-411c0 -58 6.66699 -98.333 20 -121c11.333 -19.333 36 -29 74 -29v-86h-447v86c39.333 0 64.333 10 75 30c12.667 24.667 19 64.667 19 120v1002c0 60 -6 100.333 -18 121s-37.333 31 -76 31v84l405 21
c40.667 2 78.334 3 113.001 3c204 0 369.667 -37.667 497 -113c130.667 -77.333 196 -185.333 196 -324c0 -157.333 -76 -272.333 -228 -345c-114.667 -54.667 -260 -82 -436 -82zM605.999 1392c-81.333 0 -135.333 -7.5 -162 -22.5s-40 -47.167 -40 -96.5v-522l57 -7
c46 -5.33301 88.667 -8 128 -8c124.667 0 225.667 28.667 303 86c71.333 53.333 107 134 107 242c0 218.667 -131 328 -393 328z" />
    <glyph glyph-name="Q" unicode="Q" horiz-adv-x="1471" 
d="M1161 -281c-130 0 -239.002 83.333 -327.002 250l-36 -7c-128.667 -4 -233 9.33301 -313 40c-142.667 54 -253.667 152.667 -333 296c-70.667 129.333 -106 274 -106 434c0 234.667 86 435.667 258 603c55.333 54 122.333 96.333 201 127
c76.667 30.667 156.334 46 239.001 46c167.333 0 304 -49.667 410 -149c180 -167.333 270 -373 270 -617c0 -140 -31 -270 -93 -390c-63.333 -122 -153 -222.667 -269 -302c68 -106 140.667 -159 218 -159c44.667 0 86.334 24.667 125.001 74l52 -65
c-43.333 -63.333 -90 -109.333 -140 -138s-102 -43 -156 -43zM734.998 1405c-156.667 0 -269.332 -81.001 -337.999 -243.001c-48.667 -113.333 -73 -258 -73 -434c0 -452.667 136 -673.667 408 -663l48 2c-62.667 122.667 -129.334 184 -200.001 184
c-11.333 0 -22 -2.33301 -32 -7c-10 -1.33301 -26 -11 -48 -29l-53 68c80.667 59.333 153.667 89 219 89c125.333 0 232.666 -71.333 321.999 -214c50.667 44 88.334 108 113.001 192c30 102.667 45 239.334 45 410.001c0 430 -137 645 -411 645z" />
    <glyph glyph-name="R" unicode="R" horiz-adv-x="1305" 
d="M879 140c-116.667 142 -212 313 -286 513h-30l-47 -2l-106 4l-6 -423c-0.666992 -56.667 6 -97 20 -121c11.333 -19.333 36 -29 74 -29v-87h-447v87c39.333 0 64.333 10 75 30c12.667 24.667 19 64.667 19 120v1005c0 60 -6.33301 101 -19 123
c-11.333 19.333 -36.333 29 -75 29v86l479 20c30.667 1.33301 58.667 2 84 2c196 0 354.333 -38.333 475 -115c125.333 -79.333 188 -186.333 188 -321c0 -103.333 -42 -190 -126 -260c-71.333 -59.333 -163.333 -101 -276 -125c138.667 -384.667 284 -640.334 436 -767.001
v-89c-166.667 66.667 -310.667 173.334 -432 320.001zM615 1395c-82.667 0 -138.5 -9.66992 -167.5 -29.0029s-43.5 -56.666 -43.5 -111.999v-491l41 -6c164.667 -3.33301 286.667 9.33398 366 38.001c125.333 46 188 137 188 273c0 104.667 -32.5 185.334 -97.5 242.001
s-160.5 85 -286.5 85z" />
    <glyph glyph-name="S" unicode="S" horiz-adv-x="1161" 
d="M596 -33c-205.333 0 -389.334 67.0039 -552.001 201.004l90 312l84 -16c26 -112 69 -202 129 -270c72.667 -80 163.334 -120 272.001 -120c83.333 0 152.5 22.833 207.5 68.5s82.5 107.167 82.5 184.5c0 71.333 -20.667 128.666 -62 171.999
c-46.667 48.667 -160 106 -340 172c-98 36 -171 70.333 -219 103c-68.667 46 -119 105.333 -151 178c-20.667 46.667 -31 94.667 -31 144c0 123.333 47.333 223.666 142 300.999c90 74 199.333 111 328 111c140 0 297 -51.333 471 -154l-76 -286l-79 15
c-56 210 -168.333 315 -337 315c-72 0 -131 -17.333 -177 -52c-51.333 -38 -77 -91 -77 -159c0 -56.667 19 -103.834 57 -141.501s138.333 -89.834 301 -156.501c184.667 -75.333 298.667 -134 342 -176c78 -75.333 117 -172.333 117 -291c0 -140 -53 -252.333 -159 -337
c-98 -78.667 -219 -118 -363 -118z" />
    <glyph glyph-name="T" unicode="T" horiz-adv-x="1270" 
d="M1214 1114c-54 96 -108.333 160.332 -163 192.999c-56.667 33.333 -140.667 50 -252 50c-14.667 0 -23.667 -1.66699 -27 -5s-5 -12.666 -5 -27.999v-1088c0 -58.667 6.33301 -99 19 -121c11.333 -19.333 37 -29 77 -29v-86h-454v86c39.333 0 64.333 10 75 30
c13.333 26 20 66 20 120v1088c0 16 -1.5 25.5 -4.5 28.5s-11.833 4.5 -26.5 4.5c-109.333 0 -193 -17.333 -251 -52c-54.667 -32.667 -110 -96 -166 -190l-86 34l89 326h1152l89 -326z" />
    <glyph glyph-name="U" unicode="U" horiz-adv-x="1428" 
d="M1320 1313c-20 -47.333 -30 -119.666 -30 -216.999v-464c0 -239.333 -32 -399.333 -96 -480c-98 -123.333 -257 -185 -477 -185c-128.667 0 -239.667 25 -333 75c-108 57.333 -176.333 141.666 -205 252.999c-16 61.333 -24 152.333 -24 273v669
c0 58 -6.33301 99 -19 123c-10 19.333 -35 29 -75 29v86h452v-86c-40 0 -65 -9 -75 -27c-13.333 -23.333 -20 -65 -20 -125v-709c0 -160.667 26.5 -271.834 79.5 -333.501s145.833 -92.5 278.5 -92.5c200.667 0 322.667 71.667 366 215c18 60 27 165.667 27 317v471
c0 96 -10.333 167 -31 213c-18.667 41.333 -56 66 -112 74v83h396v-80c-51.333 -15.333 -85.333 -42.666 -102 -81.999z" />
    <glyph glyph-name="V" unicode="V" horiz-adv-x="1229" 
d="M1152 1308c-30.667 -42 -58.334 -101.333 -83.001 -178l-375 -1163h-161l-443 1249c-17.333 50 -32.666 85.667 -45.999 107c-22.667 36.667 -52 61 -88 73v79h446v-82c-24.667 -4.66699 -41 -9.33398 -49 -14.001c-14 -7.33301 -21 -20.666 -21 -39.999l4 -27l11 -41
l332 -959l296 961c0 29.333 -8 55.333 -24 78s-41 36.334 -75 41.001v83h396v-78c-54 -22.667 -94 -52.334 -120 -89.001z" />
    <glyph glyph-name="W" unicode="W" horiz-adv-x="1919" 
d="M1848 1321c-13.333 -20 -31.001 -55.9971 -53.001 -107.997c-84 -196.667 -195 -501.334 -333 -914.001l-45 -134l-54 -182h-159l-249 814l-175 -607l-51 -207h-159l-459 1233c-17.333 47.333 -38.333 87.666 -63 120.999c-22 29.333 -49.667 48.666 -83 57.999v80h447
v-82c-24.667 -4.66699 -41 -9.33398 -49 -14.001c-13.333 -8 -20 -21.333 -20 -40l4 -30l11 -37l340 -925l194 656c-18 58.667 -36.333 117.334 -55 176.001c-32.667 100 -56.667 158.667 -72 176c-15.333 22.667 -43.666 34 -84.999 34v86h457v-86
c-32.667 0 -53.667 -6 -63 -18c-10 -9.33301 -15 -24 -15 -44l3 -23l9 -36l279 -921c58 157.333 140 395.333 246 714c26.667 90 40 159.667 40 209c0 40 -7 69.167 -21 87.5s-40.333 29.833 -79 34.5v83h418v-82c-44 -7.33301 -79.333 -31.333 -106 -72z" />
    <glyph glyph-name="X" unicode="X" horiz-adv-x="1313" 
d="M837 0l-0.000976562 82.002c50.667 8.66699 76 25.667 76 51c0 5.33301 -3 14.333 -9 27l-51 82l-258 382c-45.333 -72.667 -112.666 -185 -201.999 -337c-28 -51.333 -42 -93 -42 -125c0 -42.667 24 -69.667 72 -81v-81h-448v81c93.333 19.333 207.333 131.333 342 336
l204 310l-172 264c-117.333 174.667 -202.666 290 -255.999 346c-32 32.667 -63.667 51 -95 55v83h490v-86c-42 0 -63 -12 -63 -36c0 -13.333 17 -45.666 51 -96.999l223 -336c29.333 44 58.666 88.333 87.999 133c52 81.333 84.333 139.666 97 174.999
c11.333 31.333 17 56.666 17 75.999c0 56.667 -31.333 85 -94 85v86h455v-78c-94 -36 -183.333 -118 -268 -246l-222 -336l415 -605c6 -8.66699 21.333 -28.667 46 -60c30.667 -38.667 65.667 -61.334 105 -68.001v-82h-501z" />
    <glyph glyph-name="Y" unicode="Y" horiz-adv-x="1262" 
d="M1196 1351c-32.667 -33.333 -75 -95.6699 -127 -187.003l-315 -555v-373c0 -57.333 6.66699 -98.333 20 -123c10 -18 35 -27 75 -27v-86h-450v86c40 0 66 10.833 78 32.5s18 60.834 18 117.501v356l-347 610c-62 119.333 -123 183.333 -183 192v81h464v-83
c-26.667 -1.33301 -41.667 -2.66602 -45 -3.99902c-11.333 -3.33301 -18.333 -13.333 -21 -30c1.33301 -20.667 14.666 -54 39.999 -100c4.66699 -8 15 -25.667 31 -53l261 -461c58.667 98.667 140.334 245.667 245.001 441c23.333 49.333 35 92 35 128c0 20 -7 38 -21 54
s-38.667 24 -74 24v84h415v-81c-42.667 -5.33301 -75.667 -19.666 -99 -42.999z" />
    <glyph glyph-name="Z" unicode="Z" horiz-adv-x="1233" 
d="M315 118h307.999c120.667 0 218.334 20.5 293.001 61.5s144 111.833 208 212.5l90 -29l-95 -363h-1144v63l882 1294h-144c-138 0 -235.667 -9 -293 -27c-46 -14.667 -93.667 -46 -143 -94l-109 -129l-78 27l69 341h1081z" />
    <glyph glyph-name="bracketleft" unicode="[" horiz-adv-x="772" 
d="M270 -451v1926h505v-107l-117 9c-70 4 -116 -9.66699 -138 -41c-17.333 -24 -26 -73 -26 -147v-1354c0 -85.333 11.667 -138 35 -158c29.333 -25.333 83 -34.666 161 -27.999l85 7v-107h-505z" />
    <glyph glyph-name="backslash" unicode="\" horiz-adv-x="768" 
d="M822 -200l-909 1658l116 58l908 -1655z" />
    <glyph glyph-name="bracketright" unicode="]" horiz-adv-x="772" 
d="M0 -451v106.999l84 -7l33 -2c58 -3.33301 100.667 7.33398 128 32.001c22 20 33 72 33 156v1354c0 84 -11 136 -33 156c-29.333 26.667 -83 36.667 -161 30l-84 -7v107h504v-1926h-504z" />
    <glyph glyph-name="asciicircum" unicode="^" horiz-adv-x="2048" 
d="M1526 897l-504 379l-505 -379h-161l559 566h217l557 -566h-163z" />
    <glyph glyph-name="underscore" unicode="_" 
d="M-25 -484v144h1074v-144h-1074z" />
    <glyph glyph-name="grave" unicode="`" 
d="M614 1121l-336 182c-49.333 26.667 -74 57.667 -74 93c0 24 9.66699 43.333 29 58c17.333 16.667 40 25 68 25c35.333 0 74.333 -19.333 117 -58l329 -300h-133z" />
    <glyph glyph-name="a" unicode="a" horiz-adv-x="905" 
d="M717 -29c-86 0 -136 38.665 -150 115.998c-111.333 -77.333 -210.666 -116 -297.999 -116c-72 0 -130.5 21.833 -175.5 65.5s-67.5 99.834 -67.5 168.501c0 85.333 38.333 160.333 115 225c70.667 58.667 211.334 128.334 422.001 209.001v124
c0 100.667 -34 151 -102 151c-30 0 -53.333 -7 -70 -21c-14 -10.667 -29.333 -40.167 -46 -88.5s-36.667 -81.833 -60 -100.5c-26 -22 -54.667 -33 -86 -33c-33.333 0 -61.166 11.167 -83.499 33.5s-33.5 49.833 -33.5 82.5c0 62.667 38 116 114 160c72 42 161 63 267 63
c109.333 0 189.666 -21.333 240.999 -64c55.333 -45.333 83 -119.333 83 -222v-560c0 -24 2.33301 -42.667 7 -56c3.33301 -4 7.66602 -6 12.999 -6c10.667 0 26 16.333 46 49l70 -53c-35.333 -46.667 -69.333 -79.5 -102 -98.5s-67.334 -28.5 -104.001 -28.5zM563 533.998
c-94 -39.333 -159.667 -72 -197 -98c-72.667 -51.333 -109 -110.333 -109 -177c0 -40 9.66699 -73.333 29 -100c22 -30.667 53 -46 93 -46c58.667 0 120 36.667 184 110v311z" />
    <glyph glyph-name="b" unicode="b" horiz-adv-x="1014" 
d="M848 138c-82 -110.667 -187.665 -166 -316.998 -166c-72 0 -152.667 18.333 -242 55c-80 33.333 -130.333 50.333 -151 51l-24 -3c-8.66699 -2 -24 -9.66699 -46 -23l-42 66c54.667 35.333 82 102.333 82 201v885c0 38 -4.33301 62.333 -13 73
c-9.33301 13.333 -32.333 22.333 -69 27v69c99.333 23.333 178.333 68.333 237 135h69v-612c81.333 86.667 173.666 130 276.999 130c111.333 0 199.666 -43 264.999 -129c63.333 -83.333 95 -197.333 95 -342c0 -170 -40.333 -309 -121 -417zM680.002 768
c-34.667 65.333 -86.335 98 -155.002 98c-71.333 0 -135.666 -40.667 -192.999 -122v-421c0 -70.667 14.667 -128 44 -172c34.667 -52.667 86.334 -79 155.001 -79c137.333 0 206 124.667 206 374c0 144 -19 251.333 -57 322z" />
    <glyph glyph-name="c" unicode="c" horiz-adv-x="854" 
d="M757 100c-92 -86 -191.335 -129.001 -298.002 -129.001c-96.667 0 -180.334 27.667 -251.001 83c-66.667 52 -114.334 122.333 -143.001 211c-18.667 57.333 -28 125 -28 203c0 150.667 39.667 276.667 119 378c86.667 109.333 203.334 164 350.001 164
c83.333 0 157.333 -22.667 222 -68c66.667 -47.333 100 -101.666 100 -162.999c0 -32 -10.5 -58.833 -31.5 -80.5s-48.167 -32.5 -81.5 -32.5c-69.333 0 -115.666 48.333 -138.999 145c-8 31.333 -22 56.333 -42 75c-8.66699 6.66699 -15.667 11.667 -21 15
c-13.333 6 -30.666 9 -51.999 9c-76 0 -130.667 -45 -164 -135c-22.667 -60 -34 -133.667 -34 -221c0 -132 26.667 -236.333 80 -313c50.667 -74 116.667 -111 198 -111c90.667 0 171.667 42.667 243 128l70 -48c-33.333 -44 -65.666 -80.667 -96.999 -110z" />
    <glyph glyph-name="d" unicode="d" horiz-adv-x="1028" 
d="M692 0l-0.000976562 88.002c-80 -77.333 -172 -116 -276 -116c-122 0 -216.667 51.333 -284 154c-57.333 87.333 -86 195.333 -86 324c0 151.333 33.333 280.333 100 387c78 126 188.333 189 331 189c87.333 0 159 -25.333 215 -76v254
c0 37.333 -4.66699 62.166 -14 74.499s-32 20.833 -68 25.5v69c98.667 23.333 177.334 68.333 236.001 135h70v-1320c0 -38.667 5.33301 -66.334 16 -83.001c6.66699 -13.333 26.667 -20 60 -20v-85h-300zM691.999 599.002c0 219.333 -73.667 329 -221 329
c-129.333 0 -194 -127 -194 -381c0 -140 21 -247.667 63 -323c39.333 -71.333 92 -107 158 -107c75.333 0 140 42.333 194 127v355z" />
    <glyph glyph-name="e" unicode="e" horiz-adv-x="901" 
d="M482 -29c-129.333 0 -235.997 47.667 -319.997 143s-126 215.333 -126 360c0 163.333 38 293.5 114 390.5s179 145.5 309 145.5c86 0 161.667 -26.667 227 -80c60 -48.667 103.667 -113.334 131 -194.001c18 -53.333 27 -125.666 27 -216.999h-580
c3.33301 -114.667 32.666 -209.667 87.999 -285c53.333 -71.333 123.666 -107 210.999 -107s166.666 44 237.999 132l80 -47c-59.333 -86 -121.5 -147.667 -186.5 -185s-135.833 -56 -212.5 -56zM264.003 627h275c44.667 0 70 1.66699 76 5c2 1.33301 3.66699 7.33301 5 18
c0 176 -57 264 -171 264c-120 0 -181.667 -95.667 -185 -287z" />
    <glyph glyph-name="f" unicode="f" horiz-adv-x="522" 
d="M455 1252c-54.667 0 -96.332 33.998 -124.999 101.998c-5.33301 12 -11.333 21.333 -18 28c-4.66699 2.66699 -10.334 4 -17.001 4c-17.333 0 -26 -10.667 -26 -32c0 -6 14.667 -50 44 -132c26.667 -75.333 41.334 -148.333 44.001 -219l195 -6v-111h-195v-697
c0 -40 4.66699 -68.333 14 -85c7.33301 -12 28 -18 62 -18v-86h-382v86c33.333 0 53.333 6 60 18c10 16 15 44.333 15 85v697h-126v112h124l-7 107c-4.66699 68.667 -7 109.667 -7 123c0 80 22.667 146.667 68 200s107.666 80 186.999 80c48.667 0 92 -13 130 -39
c42 -29.333 63 -66.666 63 -111.999c0 -29.333 -9.83301 -54.166 -29.5 -74.499s-44.167 -30.5 -73.5 -30.5z" />
    <glyph glyph-name="g" unicode="g" horiz-adv-x="977" 
d="M820 849l-20.001 -15.998c29.333 -42 44 -98 44 -168c0 -110 -42 -199.667 -126 -269c-80 -66 -177.667 -99 -293 -99l-68 6l-56 14c-59.333 -36 -89 -66.667 -89 -92c0 -10 6.33301 -19.333 19 -28c20.667 -8.66699 96 -24.334 226 -47.001
c216.667 -38 341 -66.667 373 -86c90 -55.333 135 -129 135 -221c0 -89.333 -45 -161 -135 -215c-87.333 -52.667 -206.333 -79 -357 -79c-112 0 -209 13.333 -291 40c-121.333 40 -182 104.667 -182 194c0 79.333 57 152.666 171 219.999c-92 36.667 -138 89 -138 157
c0 42 17.667 80.333 53 115c20.667 24 59.667 52.667 117 86c-101.333 68 -152 161 -152 279c0 102 40.667 189.167 122 261.5s180.666 108.5 297.999 108.5c102.667 0 189.334 -34 260.001 -102c22.667 19.333 58.334 45 107.001 77c33.333 20.667 62.666 31 87.999 31
c30.667 0 57.167 -10.5 79.5 -31.5s33.5 -46.167 33.5 -75.5c0 -28 -11.5 -51.667 -34.5 -71s-49.167 -29 -78.5 -29c-31.333 0 -66.666 13.333 -105.999 40zM568.999 858.002c-26 41.333 -65.333 62 -118 62c-112 0 -168 -92 -168 -276c0 -172 53.333 -258 160 -258
c112.667 0 169 86.667 169 260c0 96 -14.333 166.667 -43 212zM705.999 -109.998c-49.333 23.333 -186 50.666 -410 81.999c-30.667 -18 -54.667 -39 -72 -63c-16.667 -29.333 -25 -60.666 -25 -93.999c0 -56.667 29 -100 87 -130c46.667 -24 101.667 -36 165 -36
c212.667 0 319 51.333 319 154c0 37.333 -21.333 66.333 -64 87z" />
    <glyph glyph-name="h" unicode="h" horiz-adv-x="973" 
d="M343 868c168 105.333 284.331 157.997 348.998 157.997c58.667 0 103 -21.667 133 -65c26.667 -37.333 40 -85.333 40 -144v-628c0 -38.667 4.33301 -67 13 -85c8.66699 -12 29.667 -18 63 -18v-86h-378v86c34 0 54.667 6 62 18c9.33301 16 14 44.333 14 85v543
c0 46.667 -5 77.334 -15 92.001c-8 11.333 -25.333 17 -52 17c-46.667 0 -123 -29 -229 -87v-565c0 -30.667 1.33301 -49.667 4 -57c0.666992 -8.66699 3.33398 -17.667 8.00098 -27c9.33301 -12.667 30.333 -19 63 -19v-86h-377v86c32.667 0 53 6 61 18
c10 16.667 15 45 15 85v1015c0 36.667 -4.33301 62.334 -13 77.001c-7.33301 10.667 -29.666 18.334 -66.999 23.001v69c99.333 23.333 178 68.333 236 135h70v-640z" />
    <glyph glyph-name="i" unicode="i" horiz-adv-x="473" 
d="M344 1216c-32 -27.333 -66.667 -41 -104 -41c-40 0 -74.667 14.167 -104 42.5s-44 61.833 -44 100.5s14.667 72 44 100s64 42 104 42c42.667 0 78 -13.5 106 -40.5s42 -60.833 42 -101.5c0 -37.333 -14.667 -71.333 -44 -102zM51 0l0.00195312 85.999
c33.333 0 53.333 6 60 18c10 16 15 44.333 15 85v568c0 38 -4.33301 64 -13 78c-6 11.333 -28 19.333 -66 24v70c85.333 18.667 164.666 63.334 237.999 134.001h72v-874c0 -38 5 -66 15 -84c7.33301 -12.667 27.666 -19 60.999 -19v-86h-382z" />
    <glyph glyph-name="j" unicode="j" horiz-adv-x="473" 
d="M344 1214c-32 -27.333 -66.667 -41 -104 -41c-40 0 -74.667 14.167 -104 42.5s-44 62.166 -44 101.499c0 38.667 14.667 72.167 44 100.5s64 42.5 104 42.5c42.667 0 78 -13.5 106 -40.5s42 -61.167 42 -102.5c0 -37.333 -14.667 -71.666 -44 -102.999zM189 -318
c-0.666992 3.33301 0.335938 13.665 3.00293 30.998c-0.666992 24 -10.334 60.333 -29.001 109l-9 21l-21 71c-4.66699 16 -7 44 -7 84v754c0 38 -4.33301 64 -13 78c-6 11.333 -28 19.333 -66 24v71c85.333 18.667 164.666 63.334 237.999 134.001h72v-1063
c0 -21.333 2.33301 -54 7 -98s7 -77 7 -99c0 -71.333 -22 -130.833 -66 -178.5s-102 -71.5 -174 -71.5c-46.667 0 -87 13.333 -121 40c-36 28.667 -54 65.334 -54 110.001c0 25.333 8.66699 50.666 26 75.999c21.333 21.333 46.666 32 75.999 32c40 0 72.667 -20.333 98 -61
c11.333 -21.333 22.333 -42.666 33 -63.999z" />
    <glyph glyph-name="k" unicode="k" horiz-adv-x="948" 
d="M565 0l-0.00292969 85.9961c24 0 40.333 1.33301 49 4c1.33301 2.66699 2 5 2 7l-7 31l-22 43l-167 269l-77 -78v-173c0 -30.667 1.33301 -49.667 4 -57c0.666992 -8.66699 3.33398 -17.667 8.00098 -27c9.33301 -12.667 30.333 -19 63 -19v-86h-377v86
c32.667 0 53 6 61 18c10 16.667 15 45 15 85v1015c0 36.667 -4.33301 62.334 -13 77.001c-7.33301 10.667 -29.666 18.334 -66.999 23.001v69c99.333 23.333 178 68.333 236 135h70v-1000c68.667 72.667 153 170 253 292c14.667 24.667 22 46.334 22 65.001
c0 28 -18.333 45.667 -55 53v80h392v-80c-56 -10.667 -117 -50 -183 -118l-192 -198c62.667 -100.667 158.334 -249 287.001 -445c8 -12 20 -26.667 36 -44c6 -8 14.667 -14 26 -18c6.66699 -5.33301 20 -9.66602 40 -12.999v-82h-404z" />
    <glyph glyph-name="l" unicode="l" horiz-adv-x="465" 
d="M41 0l-0.000976562 85.998c32.667 0 53 6 61 18c10 16.667 15 45 15 85v1015c0 36.667 -4.33301 62.334 -13 77.001c-7.33301 10.667 -29.666 18.334 -66.999 23.001v69c99.333 23.333 178 68.333 236 135h74v-1319c0 -40.667 4.66699 -69 14 -85
c7.33301 -12 28 -18 62 -18v-86h-382z" />
    <glyph glyph-name="m" unicode="m" horiz-adv-x="1493" 
d="M864 854c168 104 285 156.001 351 156.001c113.333 0 170 -68.667 170 -206v-618c0 -38 5.33301 -65.333 16 -82c6.66699 -12.667 26.667 -19 60 -19v-85h-376v85c33.333 0 53.666 6 60.999 18c10 16 15 43.667 15 83v534c0 44 -5 74 -15 90
c-10.667 12 -28.667 18 -54 18c-50 0 -125.667 -28.667 -227 -86v-556c0 -38 4.33301 -66 13 -84c8.66699 -11.333 29.667 -17 63 -17v-85h-378v85c34 0 54.667 5.66699 62 17c9.33301 16 14 44 14 84v534c0 46 -5 76.333 -15 91c-8 11.333 -25.333 17 -52 17
c-46.667 0 -123 -28.667 -229 -86v-556c0 -30 1.33301 -48.667 4 -56c0.666992 -8.66699 3.33398 -17.667 8.00098 -27c9.33301 -12 30.333 -18 63 -18v-85h-377v85c32.667 0 53 6 61 18c10 16 15 43.667 15 83v525c0 36 -5 60.667 -15 74c-6 11.333 -27.667 19.333 -65 24
v70c71.333 14.667 131.666 41 180.999 79c12.667 9.33301 31.334 26.666 56.001 51.999h69v-155c168 103.333 284.333 155 349 155c108.667 0 166 -52 172 -156z" />
    <glyph glyph-name="n" unicode="n" horiz-adv-x="973" 
d="M343 855c168 103.333 284.332 155.001 348.999 155.001c58.667 0 103 -21.333 133 -64c26.667 -36.667 40 -84 40 -142v-618c0 -38 4.33301 -66 13 -84c8.66699 -11.333 29.667 -17 63 -17v-85h-378v85c34 0 54.667 5.66699 62 17c9.33301 16 14 44 14 84v534
c0 46 -5 76.333 -15 91c-8 11.333 -25.333 17 -52 17c-46.667 0 -123 -28.667 -229 -86v-556c0 -30 1.33301 -48.667 4 -56c0.666992 -8.66699 3.33398 -17.667 8.00098 -27c9.33301 -12 30.333 -18 63 -18v-85h-377v85c32.667 0 53 6 61 18c10 16 15 43.667 15 83v525
c0 36 -5 60.667 -15 74c-6 11.333 -27.667 19.333 -65 24v70c71.333 14.667 131.666 41 180.999 79c12.667 9.33301 31.334 26.666 56.001 51.999h69v-155z" />
    <glyph glyph-name="o" unicode="o" horiz-adv-x="991" 
d="M496 -28c-140.667 0 -253.998 52.332 -339.998 156.999c-80 98 -120 219 -120 363c0 144.667 40 265.334 120 362.001c85.333 104 198.666 156 339.999 156c135.333 0 245.666 -48.5 330.999 -145.5s128 -221.167 128 -372.5c0 -143.333 -40 -264 -120 -362
c-86 -105.333 -199 -158 -339 -158zM496.002 913.999c-136.667 0 -205 -139.333 -205 -418c0 -284 68.333 -426 205 -426c136 0 204 138.667 204 416c0 285.333 -68 428 -204 428z" />
    <glyph glyph-name="p" unicode="p" 
d="M860 116c-80 -105.333 -180.332 -158.004 -300.999 -158.004c-84 0 -159.667 27.667 -227 83v-303c0 -43.333 4.66699 -72 14 -86c8 -11.333 28.667 -17 62 -17v-86h-375v86c32 0 52.5 7.16699 61.5 21.5s13.5 41.5 13.5 81.5v968c0 38.667 -4.33301 63.834 -13 75.501
s-31.667 19.834 -69 24.501v71c71.333 14.667 131.666 41.334 180.999 80.001c13.333 10 32.333 27.667 57 53h68v-132c80.667 88 177 132 289 132c122.667 0 215.667 -55.333 279 -166c52 -90.667 78 -202 78 -334c0 -159.333 -39.333 -290.666 -118 -393.999z
M683.001 753.996c-37.333 62 -90 93 -158 93s-132.333 -39 -193 -117v-315c0 -236.667 67 -355 201 -355c140 0 210 135.667 210 407c0 126 -20 221.667 -60 287z" />
    <glyph glyph-name="q" unicode="q" horiz-adv-x="1010" 
d="M610 -451l-0.000976562 86.001c32 0 52.333 6.66699 61 20c9.33301 16 14 43.667 14 83v338c-84.667 -79.333 -173.667 -119 -267 -119c-124 0 -219.667 49.333 -287 148c-58 86 -87 194 -87 324c0 155.333 39.333 287.666 118 396.999c87.333 122.667 206 184 356 184
c84.667 0 167.334 -28 248.001 -84l77 84h69v-1271c0 -39.333 4.33301 -68 13 -86c8.66699 -12 29.667 -18 63 -18v-86h-378zM684.999 627.001c0 188.667 -63 283 -189 283c-144.667 0 -217 -130.333 -217 -391c0 -272 73 -408 219 -408c70 0 132.333 39 187 117v399z" />
    <glyph glyph-name="r" unicode="r" horiz-adv-x="721" 
d="M685 780c-28.667 -24 -61.665 -35.999 -98.998 -35.999c-4 0 -38.333 8.33301 -103 25c-14 2.66699 -25.667 4.66699 -35 6c-14 -0.666992 -28.333 -5 -43 -13c-14.667 -11.333 -30.667 -27.333 -48 -48v-528c0 -37.333 5 -64.666 15 -81.999
c7.33301 -12.667 27.666 -19 60.999 -19v-85h-382v85c33.333 0 53.333 5.66699 60 17c10 16 15 44 15 84v525c0 38 -4.66699 63 -14 75c-6 10.667 -27.667 18.334 -65 23.001v69c88 19.333 167.333 62.666 238 129.999h72v-147c93.333 99.333 173.666 149 240.999 149
c40 0 71.333 -12.833 94 -38.5s34 -57.834 34 -96.501c0 -34.667 -13.667 -66.334 -41 -95.001z" />
    <glyph glyph-name="s" unicode="s" horiz-adv-x="819" 
d="M410 -28c-120.667 0 -246.335 47.999 -377.002 143.999l79 228l73 -16c16.667 -70.667 44.667 -128.667 84 -174c48 -56 106 -84 174 -84c41.333 0 76.833 13 106.5 39s44.5 58.667 44.5 98c0 28.667 -11 56.334 -33 83.001c-26 24 -86.333 57.667 -181 101l-6 4
c-201.333 90 -302 194 -302 312c0 94 32.667 168.667 98 224c62.667 52.667 144 79 244 79c102.667 0 208.334 -40.667 317.001 -122l-78 -208l-70 16c-34 144 -100 216 -198 216c-40 0 -73.833 -11.5 -101.5 -34.5s-41.5 -53.167 -41.5 -90.5c0 -62 72 -120.667 216 -176
c216.667 -82.667 325 -190 325 -322c0 -100 -38 -179.333 -114 -238c-69.333 -52.667 -155.666 -79 -258.999 -79z" />
    <glyph glyph-name="t" unicode="t" horiz-adv-x="584" 
d="M461 11c-42 -26.667 -87.001 -40 -135.001 -40c-120.667 0 -181 71.333 -181 214v698h-127v81c76 51.333 133.667 115.333 173 192c30.667 58.667 56.334 139.667 77.001 243h103v-404h176v-112h-172v-627c0 -75.333 16.333 -113 49 -113c22.667 0 48 13.667 76 41
l62 -49c-28 -58 -61.667 -99.333 -101 -124z" />
    <glyph glyph-name="u" unicode="u" horiz-adv-x="963" 
d="M629 -1l-0.000976562 130.001c-87.333 -55.333 -142 -88.666 -164 -99.999c-73.333 -38.667 -134.666 -58 -183.999 -58c-115.333 0 -173 69.333 -173 208v568c0 38 -4 62.667 -12 74c-10 13.333 -33.333 22 -70 26v70c87.333 19.333 167 63.333 239 132h67v-784
c0 -41.333 6 -69 18 -83c8 -12 26 -18 54 -18c52 0 127 26.667 225 80v470c0 45.333 -4.66699 79 -14 101c-8.66699 13.333 -30 24.333 -64 33v69c44 15.333 70.333 24.666 79 27.999c18 5.33301 49.667 23.666 95 54.999c9.33301 6 27 19.667 53 41l10 8h67v-823
c0 -56 5.66699 -93 17 -111c9.33301 -16 35 -27.667 77 -35v-81h-320z" />
    <glyph glyph-name="v" unicode="v" horiz-adv-x="797" 
d="M682 641l-216.997 -660.003h-130l-283 813c-22 63.333 -51 100 -87 110v77h367v-81c-26.667 -2 -43.334 -5.66699 -50.001 -11c-2.66699 -5.33301 -5 -13.666 -7 -24.999c10 -76 38.333 -180 85 -312c31.333 -86 62.666 -171.667 93.999 -257l144 473
c2.66699 26.667 4 44.334 4 53.001c0 44 -24 71.333 -72 82v78h314v-75c-32.667 -13.333 -60.834 -39.666 -84.501 -78.999s-49.5 -101.333 -77.5 -186z" />
    <glyph glyph-name="w" unicode="w" horiz-adv-x="1346" 
d="M1291 818c-29.333 -43.333 -59.002 -110.998 -89.002 -202.998l-209 -634h-139l-189 611l-171 -611h-139l-276 754c-24 65.333 -43.667 109.666 -59 132.999c-12 18 -30.333 29.667 -55 35v78h378v-80c-18.667 -2.66699 -31.667 -5.66699 -39 -9
c-13.333 -6 -20.333 -16 -21 -30l5 -27l7 -16l173 -522l127 469c-10 34 -17.333 56.667 -22 68c-12 29.333 -25.333 48 -40 56c-7.33301 4 -22.666 8.33301 -45.999 13v78h390v-76c-21.333 -6.66699 -34.666 -12 -39.999 -16c-6.66699 -6 -11.667 -17.667 -15 -35l2 -11
l7 -25l149 -521c25.333 76 50.333 152.333 75 229c43.333 139.333 65 233.333 65 282c0 24.667 -5.33301 44 -16 58c-10 16.667 -28.667 29.667 -56 39v76h347v-77c-37.333 -10.667 -72 -39.334 -104 -86.001z" />
    <glyph glyph-name="x" unicode="x" horiz-adv-x="869" 
d="M498 0v85.002c31.333 0 48.333 4.33301 51 13l-3 17l-9 19l-140 242l-107 -164c-8 -13.333 -14.667 -27 -20 -41l-7 -45c0 -18 6 -30 18 -36c6 -2.66699 21.667 -5.33398 47 -8.00098v-82h-353v85c60 0 118.667 42 176 126l185 270l-182 311
c-20 34.667 -39.667 61.667 -59 81c-16 16 -34 25 -54 27l-9 81h370v-79c-20 -3.33301 -31.5 -6.5 -34.5 -9.5s-4.5 -7.16699 -4.5 -12.5l2 -14l6 -14l109 -190l81 125c10 16 18.333 38.667 25 68c-0.666992 11.333 -4 21.666 -10 30.999c-8 7.33301 -26 12 -54 14l-3 81
h340v-80c-35.333 -4.66699 -65.166 -17.667 -89.499 -39s-99.5 -122.666 -225.5 -303.999c51.333 -94.667 134.666 -233.334 249.999 -416.001c18.667 -34 52 -54 100 -60v-82h-396z" />
    <glyph glyph-name="y" unicode="y" horiz-adv-x="844" 
d="M797 831c-24.667 -35.333 -52.335 -95.667 -83.002 -181l-274 -749c-39.333 -106 -72.666 -180.667 -99.999 -224c-54 -85.333 -117.333 -128 -190 -128c-40 0 -74.333 10.333 -103 31c-31.333 22.667 -47 53 -47 91c0 32 10.667 60.167 32 84.5s48.333 36.5 81 36.5
c20 0 42.333 -5.66699 67 -17c20.667 -8.66699 36 -13 46 -13c40.667 0 79 71 115 213l8 33l-270 769c-14.667 43.333 -29 72.666 -43 87.999c-13.333 18.667 -33.666 30.667 -60.999 36v80h378v-80c-24 -4.66699 -37.667 -7.66699 -41 -9
c-11.333 -5.33301 -17.333 -15.666 -18 -30.999l3 -15l176 -534l138 410l11 50l7 52c-0.666992 43.333 -24.667 69 -72 77v80h330v-79c-33.333 -8 -63.333 -31.667 -90 -71z" />
    <glyph glyph-name="z" unicode="z" horiz-adv-x="834" 
d="M295 110h21c128 0 224.333 13.667 289 41c62 26 122 79.667 180 161l80 -26l-88 -286h-824l605 871h-60c-86.667 0 -156 -12.667 -208 -38c-54 -25.333 -105 -71.333 -153 -138l-70 20l69 266h717v-68z" />
    <glyph glyph-name="braceleft" unicode="{" 
d="M838 -244c-144.667 0 -247.333 24.668 -308 74.001c-66.667 54.667 -100 150.667 -100 288v200c0 98 -17.5 164.167 -52.5 198.5s-109.833 56.5 -224.5 66.5v108c103.333 0 174.333 17.333 213 52c42.667 38 64 108.333 64 211v201c0 138 33 234 99 288
c60.667 48.667 163.667 73 309 73h35v-100c-100 0 -164.167 -14.833 -192.5 -44.5s-42.5 -92.834 -42.5 -189.501v-137c0 -153.333 -21 -258 -63 -314c-30.667 -40.667 -78.667 -72.667 -144 -96c64 -22.667 111.333 -54.667 142 -96c43.333 -58 65 -162.667 65 -314v-137
c0 -95.333 14.667 -157.833 44 -187.5s93 -44.5 191 -44.5v-100h-35z" />
    <glyph glyph-name="bar" unicode="|" 
d="M414 -484v2049h199v-2049h-199z" />
    <glyph glyph-name="braceright" unicode="}" 
d="M725 565c-53.333 -19.333 -89.335 -52.334 -108.002 -99.001c-13.333 -32.667 -20 -82 -20 -148v-200c0 -140 -33 -236.667 -99 -290c-59.333 -48 -163 -72 -311 -72h-36v100c97.333 0 161 15 191 45s45 92.333 45 187v137c0 153.333 21.333 258.333 64 315
c30.667 40 78.667 71.667 144 95c-63.333 22.667 -110.666 55.334 -141.999 98.001c-44 58 -66 162 -66 312v137c0 95.333 -14 158.166 -42 188.499s-92.667 45.5 -194 45.5v100h36c148 0 251.667 -24 311 -72c66 -52.667 99 -149 99 -289v-201
c0 -96.667 16.833 -162.167 50.5 -196.5s108.834 -57.166 225.501 -68.499v-108c-68 0 -117.333 -5.33301 -148 -16z" />
    <glyph glyph-name="asciitilde" unicode="~" horiz-adv-x="1706" 
d="M1141 470c-67.333 0 -155.667 17 -265 51l-33 11l-16 6c-88 33.333 -176 50 -264 50c-103.333 0 -240 -52.333 -410 -157v187c152.667 90 290 135 412 135c84.667 0 200.334 -23 347.001 -69c102 -32 179 -48 231 -48c106.667 0 244 51.333 412 154v-187
c-76.667 -46.667 -148.834 -80.5 -216.501 -101.5s-133.5 -31.5 -197.5 -31.5z" />
    <glyph glyph-name="nonbreakingspace" unicode="&#xa0;" horiz-adv-x="1129" 
 />
    <glyph glyph-name="exclamdown" unicode="&#xa1;" horiz-adv-x="563" 
d="M277 1221c-38.667 0 -74.001 13.667 -106.001 41c-28 30.667 -42 65 -42 103c0 38.667 14.667 72.167 44 100.5s64 42.5 104 42.5c40.667 0 75.834 -14.167 105.501 -42.5s44.5 -61.833 44.5 -100.5c0 -40 -15 -74 -45 -102s-65 -42 -105 -42zM276.999 -29
c-96 0 -144 76.999 -144 230.999v60c0 16.667 3 48 9 94c0 27.333 0.666992 48.333 2 63c3.33301 20.667 10 70.334 20 149.001l72 560h81l96 -775l8 -149c4 -68.667 -6 -124.667 -30 -168s-62 -65 -114 -65z" />
    <glyph glyph-name="cent" unicode="&#xa2;" horiz-adv-x="1129" 
d="M811 257c-48 -32 -102.999 -53.666 -164.999 -64.999v-126h-116v125c-122.667 18 -216.334 77 -281.001 177c-56.667 87.333 -85 194 -85 320c0 127.333 29.333 238.666 88 333.999c66 107.333 159.333 174.666 280 201.999v95h115v-85
c76.667 -3.33301 147.167 -27.166 211.5 -71.499s96.5 -97.833 96.5 -160.5c0 -31.333 -10.833 -58.333 -32.5 -81s-48.5 -34 -80.5 -34c-70 0 -115.667 49 -137 147c-8.66699 38.667 -28 66.667 -58 84v-770l22 -2c84 0.666992 166.333 44.667 247 132l64 -53
c-56 -75.333 -112.333 -131.333 -169 -168zM532.001 1120c-94.667 -34 -142 -148.999 -142 -344.999c0 -180.667 47.333 -308.334 142 -383.001v728z" />
    <glyph glyph-name="sterling" unicode="&#xa3;" horiz-adv-x="1129" 
d="M666 550l0.000976562 -7.00195c0 -126.667 -62.333 -238 -187 -334h254c64.667 0 111 9 139 27c26 16.667 54 54.334 84 113.001l85 -28l-107 -321h-807v147c111.333 23.333 197.333 62.333 258 117c57.333 52.667 86 109.334 86 170.001c0 40 -13 78.667 -39 116h-266
v108h167c-121.333 134.667 -182 260 -182 376c0 119.333 41.667 219.5 125 300.5s186.666 121.5 309.999 121.5c132.667 0 254 -47.333 364 -142l-66 -259l-76 4c-73.333 196.667 -163 295 -269 295c-56.667 0 -101.667 -20 -135 -60c-30 -37.333 -45 -84.333 -45 -141
c0 -71.333 38.333 -155.666 115 -252.999c96 -122.667 152 -203.334 168 -242.001h227v-108h-203z" />
    <glyph glyph-name="currency" unicode="&#xa4;" horiz-adv-x="1241" 
d="M1082 336l-207.999 200.002c-78.667 -50.667 -162.334 -76 -251.001 -76c-93.333 0 -177.666 25 -252.999 75l-208 -199l-117 112l208 199c-50 68.667 -75 148 -75 238c0 89.333 25 168.666 75 237.999l-209 201l118 110l208 -199c75.333 50 159 75 251 75
c89.333 0 173.666 -25 252.999 -75l208 199l117 -110l-207 -200c49.333 -66.667 74 -146.334 74 -239.001c0 -92 -24.667 -171.667 -74 -239l207 -198zM623.001 1153c-76.667 0 -142.333 -26 -197 -78s-82 -114.667 -82 -188c0 -72.667 27.5 -135.5 82.5 -188.5
s120.5 -79.5 196.5 -79.5c77.333 0 143 26.167 197 78.5s81 115.5 81 189.5c0 74.667 -27.5 137.667 -82.5 189s-120.167 77 -195.5 77z" />
    <glyph glyph-name="yen" unicode="&#xa5;" horiz-adv-x="1129" 
d="M974 1126l-4.99902 -6.00098l-121 -232h248v-113l-309 -1l-57 -110h366v-112h-405v-322c0 -57.333 5.66699 -97.333 17 -120c9.33301 -17.333 33 -26 71 -26v-84h-423v84c38.667 0 63 9 73 27c11.333 20.667 17 60.334 17 119.001v322h-413v112h368l-57 110h-311v114h253
c-38 74.667 -96.333 186 -175 334c-22.667 40.667 -39 66.667 -49 78c-21.333 24 -48.333 38.333 -81 43v79h427v-80c-28 -2 -46 -7 -54 -15c-4.66699 -2.66699 -7 -8.33398 -7 -17.001c0 -13.333 9.66699 -40.333 29 -81l34 -68l220 -445c52 94 126 235.667 222 425
c20.667 58.667 31 100.334 31 125.001c0 20.667 -6.33301 38.167 -19 52.5s-34.334 21.5 -65.001 21.5v82h355v-76c-51.333 -14.667 -111.333 -88 -180 -220z" />
    <glyph glyph-name="brokenbar" unicode="&#xa6;" 
d="M414 646v786h199v-786h-199zM414 -350v786h199v-786h-199z" />
    <glyph glyph-name="section" unicode="&#xa7;" 
d="M364 966c-103.333 91.333 -155 180.998 -155 268.998c0 80.667 32.333 147.334 97 200.001c61.333 48.667 134.333 73 219 73c58 0 112.833 -9.33301 164.5 -28s106.834 -50.667 165.501 -96l-73 -205l-70 20c-32 144.667 -98 217 -198 217
c-38.667 0 -70.334 -11.833 -95.001 -35.5s-37 -54.5 -37 -92.5c0 -42.667 20 -86 60 -130c17.333 -20 54.333 -53.333 111 -100l164 -132c74 -63.333 124 -116 150 -158c31.333 -50 47 -102 47 -156c0 -71.333 -24.167 -131 -72.5 -179s-109.5 -76 -183.5 -84
c105.333 -91.333 158 -181.333 158 -270c0 -82 -35.333 -148.667 -106 -200c-64 -46.667 -139.333 -70 -226 -70c-116 0 -231.667 49.333 -347 148l72 225l67 -19c35.333 -174.667 109.333 -262 222 -262c40.667 0 75 12 103 36s42 55.333 42 94c0 54 -55.667 128 -167 222
c-56.667 46.667 -113 93.334 -169 140.001c-65.333 57.333 -116 110.666 -152 159.999c-30 50.667 -45 101.667 -45 153c0 68.667 25 127.667 75 177c48 46.667 107.667 74.334 179 83.001zM723 636.998c-28 44.667 -73.668 94.332 -137.001 148.999
c-72.667 62.667 -130 94 -172 94c-38 0 -70.667 -11.667 -98 -35s-41 -53.333 -41 -90c0 -43.333 40.667 -104 122 -182c92.667 -89.333 165.334 -134 218.001 -134c36 0 67 11.833 93 35.5s39 52.834 39 87.501c0 23.333 -8 48.333 -24 75z" />
    <glyph glyph-name="dieresis" unicode="&#xa8;" 
d="M688 1176c-34.667 0 -63.999 9.66699 -87.999 29s-36 43 -36 71c0 26.667 12.333 50.167 37 70.5s53.667 30.5 87 30.5c34 0 63.167 -10 87.5 -30s36.5 -43.667 36.5 -71c0 -29.333 -13.667 -54 -41 -74c-24.667 -17.333 -52.334 -26 -83.001 -26zM336.001 1176
c-32 0 -61.999 9.33301 -89.999 28c-22 21.333 -33 45.333 -33 72c0 26 12.5 49.333 37.5 70s53.5 31 85.5 31c33.333 0 62.666 -10.167 87.999 -30.5s38 -43.833 38 -70.5c0 -30 -14 -54.667 -42 -74c-24.667 -17.333 -52.667 -26 -84 -26z" />
    <glyph glyph-name="copyright" unicode="&#xa9;" horiz-adv-x="1684" 
d="M1523 412c-58 -135.333 -148.333 -243.334 -271 -324.001s-259.334 -121 -410.001 -121c-202.667 0 -376 69.667 -520 209s-216 306.666 -216 501.999c0 144.667 41.333 276.334 124 395.001s193.334 206.334 332.001 263.001c90.667 36.667 184.667 55 282 55
c200 0 372 -68.333 516 -205c145.333 -138.667 218 -308 218 -508c0 -91.333 -18.333 -180 -55 -266zM1393 900.999c-45.333 108 -118.002 194.832 -218.002 260.499s-210.333 98.5 -331 98.5s-230.5 -32.833 -329.5 -98.5s-171.833 -152.5 -218.5 -260.5
c-32 -75.333 -48 -149.666 -48 -222.999c0 -160 58.333 -295.333 175 -406c120.667 -114 260.334 -171 419.001 -171c125.333 0 236.333 32 333 96s169.334 152.333 218.001 265c30 69.333 45 141.333 45 216c0 76.667 -15 151 -45 223zM831.998 231.998
c-124.667 0 -229 43.332 -313 129.999c-82.667 84.667 -124 187.334 -124 308.001c0 123.333 40.333 227.333 121 312c83.333 86.667 188 130 314 130c47.333 0 125.333 -21 234 -63c18.667 1.33301 31.334 21 38.001 59h82l2 -353h-88
c-40.667 175.333 -127.334 263 -260.001 263c-143.333 0 -215 -111.333 -215 -334c0 -229.333 78.333 -344 235 -344c100.667 0 192 59.667 274 179l79 -51c-47.333 -80.667 -102.833 -140.167 -166.5 -178.5s-134.5 -57.5 -212.5 -57.5z" />
    <glyph glyph-name="ordfeminine" unicode="&#xaa;" horiz-adv-x="680" 
d="M677 831l-14.002 -14c-14 -13.333 -29 -23.666 -45 -30.999c-24 -13.333 -50.333 -20 -79 -20c-65.333 0 -104.666 25.333 -117.999 76c-82 -50.667 -155.333 -76 -220 -76c-55.333 0 -100.333 15.167 -135 45.5s-52 70.833 -52 121.5c0 60.667 30.333 114 91 160
c54.667 40.667 158.334 88.667 311.001 144v79c0 36 -6.66699 61.667 -20 77c-9.33301 13.333 -26 20 -50 20c-22 0 -38.333 -4.33301 -49 -13c-9.33301 -6 -19.666 -23 -30.999 -51c-12.667 -32.667 -24.667 -55.334 -36 -68.001c-20 -22.667 -46.667 -34 -80 -34
c-24.667 0 -45.334 8 -62.001 24c-18.667 14 -29.667 34.667 -33 62c0 46 30.333 85 91 117c54.667 28.667 122 43 202 43c166 0 249 -67.667 249 -203v-386c0 -14.667 1.66699 -25 5 -31l14 2l24 28l64 -41c-13.333 -16 -22.333 -26.333 -27 -31zM415.998 1150
c-144.667 -55.333 -217.001 -114.667 -217.001 -178c0 -25.333 7.83301 -47.333 23.5 -66s36.5 -28 62.5 -28c48.667 0 92.334 23.667 131.001 71v201z" />
    <glyph glyph-name="guillemotleft" unicode="&#xab;" horiz-adv-x="758" 
d="M607 110c-86 154.667 -182.334 282.001 -289.001 382.001c105.333 99.333 201.333 225.666 288 378.999l91 -25c-14.667 -128 -57 -246 -127 -354c66.667 -106 109.334 -224.333 128.001 -355zM320.999 110.001c-88 161.333 -184.333 288.667 -289 382
c110 98.667 206.333 225 289 379l92 -24c-14 -126.667 -56.333 -245 -127 -355c66 -108.667 108.667 -227 128 -355z" />
    <glyph glyph-name="logicalnot" unicode="&#xac;" horiz-adv-x="1706" 
d="M1290 359v329h-1061v172h1248v-501h-187z" />
    <glyph glyph-name="minus" unicode="&#xad;" horiz-adv-x="692" 
d="M36 428v144h620v-144h-620z" />
    <glyph glyph-name="minus" unicode="&#x2212;" horiz-adv-x="692" 
d="M36 428v144h620v-144h-620z" />
    <glyph glyph-name="registered" unicode="&#xae;" horiz-adv-x="1684" 
d="M1518 400c-61.333 -136 -152.666 -242.165 -273.999 -318.498s-258.666 -114.5 -411.999 -114.5c-90.667 0 -182.334 19.333 -275.001 58c-90 37.333 -168.333 87.666 -235 150.999c-144 137.333 -216 304.666 -216 501.999c0 196 72.167 363.833 216.5 503.5
s318.166 209.5 521.499 209.5c204.667 0 379.334 -71 524.001 -213c65.333 -64 116.666 -142 153.999 -234c36.667 -89.333 55 -180 55 -272c0 -94 -19.667 -184.667 -59 -272zM1390 905.002c-45.333 106.667 -117.667 192.499 -217 257.499s-209 97.5 -329 97.5
c-120.667 0 -230.5 -32.833 -329.5 -98.5s-171.833 -152.5 -218.5 -260.5c-32 -75.333 -48 -149.666 -48 -222.999c0 -158.667 58 -294 174 -406c117.333 -114 257.333 -171 420 -171c80 0 156 14.667 228 44c109.333 44 197.5 115.167 264.5 213.5
s100.5 204.833 100.5 319.5c0 79.333 -15 155 -45 227zM1129 261.001c-80.667 0 -132.333 23.3311 -155 69.998c-18.667 30 -28 70 -28 120c0 88 -21.667 146.333 -65 175c-28.667 18.667 -67 28 -115 28h-4v-214c0 -23.333 5.66699 -39.333 17 -48
c11.333 -11.333 45.333 -19.333 102 -24v-90h-439v92c56 0 90 6 102 18c12.667 8.66699 19 26 19 52v499c0 26.667 -5.33301 44.334 -16 53.001c-12.667 10 -47.667 17.333 -105 22v90h423c100.667 0 181.334 -18.333 242.001 -55c66 -39.333 99 -91.666 99 -156.999
c0 -100.667 -73.333 -169.667 -220 -207c76.667 -36.667 126.667 -99 150 -187l12 -65c7.33301 -43.333 18 -65 32 -65c9.33301 0 17.666 6 24.999 18c8.66699 20.667 13 56.667 13 108h95v-41c0 -128 -61.333 -192 -184 -192zM838 1014c-50.667 0 -76 -14.333 -76 -43v-229
h5h34c130.667 0 196 47.333 196 142c0 86.667 -53 130 -159 130z" />
    <glyph glyph-name="macron" unicode="&#xaf;" 
d="M229 1213v125h566v-125h-566z" />
    <glyph glyph-name="macron" unicode="&#x2c9;" 
d="M229 1213v125h566v-125h-566z" />
    <glyph glyph-name="degree" unicode="&#xb0;" horiz-adv-x="674" 
d="M336 880c-88 0 -161.998 28 -221.998 84s-90 124 -90 204c0 79.333 30.667 147.166 92 203.499s135.333 84.5 222 84.5c87.333 0 161.166 -28 221.499 -84s90.5 -124 90.5 -204c0 -83.333 -32 -152.666 -96 -207.999c-60.667 -53.333 -133.334 -80 -218.001 -80z
M457.002 1280c-31.333 28.667 -71.001 42.998 -119.001 42.998c-47.333 0 -87.5 -14.667 -120.5 -44s-49.5 -65.666 -49.5 -108.999c0 -44 16.5 -81.333 49.5 -112s73.167 -46 120.5 -46c46.667 0 86.334 15.5 119.001 46.5s49 68.167 49 111.5
c0 42.667 -16.333 79.334 -49 110.001z" />
    <glyph glyph-name="plusminus" unicode="&#xb1;" horiz-adv-x="1706" 
d="M949 684v-325h-191v325h-529v182h529v326h191v-326h528v-182h-528zM229 28v184h1248v-184h-1248z" />
    <glyph glyph-name="twosuperior" unicode="&#xb2;" horiz-adv-x="746" 
d="M644 1090c-8 -24.667 -25.666 -52.667 -52.999 -84c-20.667 -23.333 -88 -71.333 -202 -144c-88 -55.333 -154.667 -105.333 -200 -150h233c46.667 0 82 4.66699 106 14c19.333 11.333 38 35 56 71l70 -16l-59 -211h-583v52c88.667 114.667 179 209.334 271 284.001
c66.667 54 110.667 95.333 132 124c36 47.333 54 102.666 54 165.999c0 112.667 -40.333 169 -121 169c-30 0 -52.667 -5.66699 -68 -17c-12 -14.667 -19.667 -37.334 -23 -68.001c0 -32 -9 -59.333 -27 -82c-20 -25.333 -46.667 -38 -80 -38
c-22.667 0 -44.334 8.33301 -65.001 25c-16 18 -24 38.333 -24 61c0 51.333 30 98 90 140c56.667 38.667 123 58 199 58c87.333 0 160.333 -23.333 219 -70c62 -49.333 93 -114.666 93 -195.999v-34c-2 -21.333 -8 -39.333 -18 -54z" />
    <glyph glyph-name="threesuperior" unicode="&#xb3;" horiz-adv-x="746" 
d="M342 549c-76.667 0 -144.999 16.667 -204.999 50c-62.667 34.667 -94 75.667 -94 123c0 22 8 40.833 24 56.5s35.333 23.5 58 23.5c44.667 0 78.334 -19.667 101.001 -59c34 -58 55.667 -91 65 -99c19.333 -9.33301 40.666 -14 63.999 -14c90 0 135 62.333 135 187
c0 58 -12.333 100.667 -37 128c-24.667 33.333 -64.667 46.333 -120 39l-55 -7l-6 76c66 8 112 21.333 138 40c32.667 23.333 49 63.333 49 120c0 100 -37.667 150 -113 150c-44 0 -71 -17.667 -81 -53c-15.333 -55.333 -27.333 -87.666 -36 -96.999
c-18.667 -15.333 -40.334 -23 -65.001 -23c-24 0 -45 7.5 -63 22.5s-27 35.167 -27 60.5c0 46.667 29.667 87.667 89 123c54 32 118.667 48 194 48c76 0 142 -18.333 198 -55c63.333 -42 95 -97.667 95 -167c0 -72.667 -45.667 -131.334 -137 -176.001
c112.667 -42 169 -113 169 -213c0 -83.333 -32 -151.5 -96 -204.5s-145.333 -79.5 -244 -79.5z" />
    <glyph glyph-name="acute" unicode="&#xb4;" 
d="M800 1344c-17.333 -17.333 -35.001 -31.001 -53.001 -41.001l-336 -182h-134l330 300c42.667 38.667 81.334 58 116.001 58c28 0 51.167 -7.83301 69.5 -23.5s27.5 -35.5 27.5 -59.5c0 -19.333 -6.66699 -36.666 -20 -51.999z" />
    <glyph glyph-name="mu" unicode="&#xb5;" horiz-adv-x="1170" 
d="M662 115c-69.333 -103.333 -161.666 -155 -276.999 -155c-104.667 0 -177 43.667 -217 131c-12 -59.333 -25.333 -139.333 -40 -240c-27.333 -180.667 -75 -271 -143 -271c-34 0 -62 10.333 -84 31c-19.333 24.667 -29 52.667 -29 84c0 34 23.333 125 70 273
c49.333 157.333 124.333 463 225 917h218l-121 -556c-3.33301 -42 -4.33301 -67 -3 -75c2.66699 -24.667 13.667 -46 33 -64c24 -22 58.667 -33 104 -33c110.667 0 181 66.667 211 200l117 528h223l-135 -613c-2 -23.333 -3 -39 -3 -47c0 -48 25.333 -72 76 -72
c58 0 96.667 25 116 75l30 81c18.667 37.333 39 57 61 59c19.333 -5.33301 31.666 -13 36.999 -23l8 -25c0 -33.333 -9 -82 -27 -146c-58.667 -142.667 -146 -214 -262 -214c-103.333 0 -166 51.667 -188 155z" />
    <glyph glyph-name="mu" unicode="&#x3bc;" horiz-adv-x="1170" 
d="M662 115c-69.333 -103.333 -161.666 -155 -276.999 -155c-104.667 0 -177 43.667 -217 131c-12 -59.333 -25.333 -139.333 -40 -240c-27.333 -180.667 -75 -271 -143 -271c-34 0 -62 10.333 -84 31c-19.333 24.667 -29 52.667 -29 84c0 34 23.333 125 70 273
c49.333 157.333 124.333 463 225 917h218l-121 -556c-3.33301 -42 -4.33301 -67 -3 -75c2.66699 -24.667 13.667 -46 33 -64c24 -22 58.667 -33 104 -33c110.667 0 181 66.667 211 200l117 528h223l-135 -613c-2 -23.333 -3 -39 -3 -47c0 -48 25.333 -72 76 -72
c58 0 96.667 25 116 75l30 81c18.667 37.333 39 57 61 59c19.333 -5.33301 31.666 -13 36.999 -23l8 -25c0 -33.333 -9 -82 -27 -146c-58.667 -142.667 -146 -214 -262 -214c-103.333 0 -166 51.667 -188 155z" />
    <glyph glyph-name="paragraph" unicode="&#xb6;" 
d="M862 1347v-1347h-160v1347h-126v-1347h-162v758c-100 4.66699 -187.167 39.5 -261.5 104.5s-111.5 150.167 -111.5 255.5c0 114.667 41 204.667 123 270c76 60.667 174.333 91 295 91h525v-132h-122z" />
    <glyph glyph-name="periodcentered" unicode="&#xb7;" horiz-adv-x="563" 
d="M283 598c-40 0 -74.667 12.168 -104 36.501s-44 53.166 -44 86.499c0 34 14.333 63 43 87s63.667 36 105 36c38.667 0 74 -11.667 106 -35c28 -26 42 -55.333 42 -88c0 -35.333 -16 -65.333 -48 -90c-30 -22 -63.333 -33 -100 -33z" />
    <glyph glyph-name="cedilla" unicode="&#xb8;" 
d="M568 -447c-80 0 -188.667 26.334 -326 79.001l55 114c96.667 -49.333 175.334 -74 236.001 -74c64 0 96 20 96 60c0 38.667 -30 58 -90 58h-25l-60 -9v219h113v-99l7 1l28 2c59.333 3.33301 109.166 -10.834 149.499 -42.501s60.5 -74.167 60.5 -127.5
c0 -56.667 -22.167 -101 -66.5 -133s-103.5 -48 -177.5 -48z" />
    <glyph glyph-name="onesuperior" unicode="&#xb9;" horiz-adv-x="746" 
d="M213 570v68c30 0 47.333 4.33301 52 13c7.33301 12.667 11 35 11 67v505c0 26 -9.33301 43 -28 51c-11.333 4 -34 6 -68 6v67c82.667 16.667 152 49 208 97h65v-726c0 -33.333 3.66699 -55.333 11 -66c5.33301 -8 23 -13.333 53 -16v-66h-304z" />
    <glyph glyph-name="ordmasculine" unicode="&#xba;" horiz-adv-x="744" 
d="M373 766c-106.667 0 -192.667 36.667 -258 110c-62 68.667 -93 153.667 -93 255c0 100.667 31.333 185 94 253c66 72.667 151.667 109 257 109s191 -36.333 257 -109c62 -68 93 -152.333 93 -253c0 -102.667 -32.333 -189 -97 -259c-66.667 -70.667 -151 -106 -253 -106z
M373 1413c-98.667 0 -148 -93.333 -148 -280c0 -190.667 49.333 -286 148 -286c98 0 147 93.333 147 280c0 190.667 -49 286 -147 286z" />
    <glyph glyph-name="guillemotright" unicode="&#xbb;" horiz-adv-x="758" 
d="M571 323c-39.333 -52.667 -83.334 -123.668 -132.001 -213.001l-91 27c6.66699 58.667 12.667 97.667 18 117c24.667 86.667 60.334 166 107.001 238c-66.667 108 -108.334 226 -125.001 354l91 26c78 -146 173.333 -272.667 286 -380
c-57.333 -53.333 -108.666 -109.666 -153.999 -168.999zM285.999 322.999c-39.333 -52.667 -83 -123.667 -131 -213l-92 27c13.333 127.333 55 245.666 125 354.999c-63.333 101.333 -105.333 219.333 -126 354l93 26c75.333 -145.333 171 -272 287 -380
c-58.667 -53.333 -110.667 -109.666 -156 -168.999z" />
    <glyph glyph-name="onequarter" unicode="&#xbc;" horiz-adv-x="1764" 
d="M1602 187v-20c0 -47.333 2 -74.333 6 -81s19.667 -14.334 47 -23.001v-64h-281v66c26 5.33301 41.333 12 46 20c6 12.667 9 40.334 9 83.001v19h-362v62l407 583h128v-529h131v-116h-131zM443 -40l-110 54l988 1449l108 -55zM203 606v69.001
c27.333 0 43.333 3.66699 48 11c7.33301 11.333 11 32.333 11 63v484c0 24 -9.33301 39.333 -28 46c-10 4 -30.667 6 -62 6v63c47.333 11.333 82 23.666 104 36.999c21.333 7.33301 53 26.333 95 57h64v-693c0 -30 3.66699 -51.333 11 -64c4 -6.66699 20 -10 48 -10v-69
h-291zM1220 303.001h209l2 311z" />
    <glyph glyph-name="onehalf" unicode="&#xbd;" horiz-adv-x="1764" 
d="M1670 498c-17.333 -42.667 -50.667 -83.002 -100 -121.002c-44.667 -30 -89 -60 -133 -90c-47.333 -30.667 -114 -81 -200 -151h219c42.667 0 73 4.33301 91 13c24 10.667 44.333 34.334 61 71.001l70 -17l-57 -204h-558v54c66.667 88 169.334 190.667 308.001 308
c85.333 72 128 151.667 128 239c0 106.667 -38 160 -114 160c-51.333 0 -80 -26.667 -86 -80c0 -32 -9 -58.667 -27 -80c-19.333 -24 -45.333 -36 -78 -36c-20 0 -40.333 7.66699 -61 23c-12 16 -19.667 35.333 -23 58c0 52.667 29 98.334 87 137.001
c53.333 36 116.666 54 189.999 54c82.667 0 152 -21.667 208 -65c60.667 -47.333 91 -110.333 91 -189c0 -30.667 -5.33301 -58.667 -16 -84zM442.999 -40.002l-110 54l988 1449l108 -55zM202.999 605.998v69.001c27.333 0 43.333 3.66699 48 11
c7.33301 11.333 11 32.333 11 63v484c0 24 -9.33301 39.333 -28 46c-10 4 -30.667 6 -62 6v63c47.333 11.333 82 23.666 104 36.999c21.333 7.33301 53 26.333 95 57h64v-693c0 -30 3.66699 -51.333 11 -64c4 -6.66699 20 -10 48 -10v-69h-291z" />
    <glyph glyph-name="threequarters" unicode="&#xbe;" horiz-adv-x="1764" 
d="M1602 187v-20c0 -47.333 2 -74.333 6 -81s19.667 -14.334 47 -23.001v-64h-281v66c26 5.33301 41.333 12 46 20c6 12.667 9 40.334 9 83.001v19h-362v62l407 583h128v-529h131v-116h-131zM443 -40l-110 54l988 1449l108 -55zM326 588c-78 0 -143.666 15 -196.999 45
c-58.667 33.333 -88 73.333 -88 120c0 20.667 8 39 24 55s34.667 24 56 24c24.667 0 46.334 -6.33301 65.001 -19c11.333 -11.333 28 -35.333 50 -72c19.333 -32 35.333 -52 48 -60c13.333 -10 31.333 -15 54 -15c86 0 129 59.333 129 178c0 112 -40.333 164.667 -121 158
l-37 -3l-45 -4l-6 76c70 8.66699 118.667 24.334 146 47.001c22.667 24.667 34 59.334 34 104.001c0 94.667 -36 142 -108 142c-28.667 0 -48.5 -5.33301 -59.5 -16s-19.167 -30.334 -24.5 -59.001c-0.666992 -24 -9.33398 -45.5 -26.001 -64.5s-37.334 -28.5 -62.001 -28.5
c-26 0 -47.333 8 -64 24s-25 36 -25 60c0 44.667 28 83.667 84 117c50 30 112.333 45 187 45c72 0 135 -17.333 189 -52c61.333 -40 92 -93.333 92 -160c0 -68.667 -42 -124.667 -126 -168c106 -38.667 159 -106 159 -202c0 -84.667 -34.333 -152.334 -103 -203.001
c-62.667 -46 -137.667 -69 -225 -69zM1220 303h209l2 311z" />
    <glyph glyph-name="questiondown" unicode="&#xbf;" horiz-adv-x="910" 
d="M719 1265c-28.667 -29.333 -64 -44.001 -106 -44.001c-40 0 -75.333 13.667 -106 41c-28 30.667 -42 65 -42 103c0 39.333 14.333 73 43 101s63.667 42 105 42c40 0 74.5 -14.167 103.5 -42.5s43.5 -61.833 43.5 -100.5c0 -39.333 -13.667 -72.666 -41 -99.999z
M783 52.999c-77.333 -54 -171.666 -81.0029 -282.999 -81.0029c-130.667 0 -240 46.667 -328 140c-86 91.333 -129 200.666 -129 327.999c0 140.667 45.667 254.334 137 341.001s209.666 132.334 354.999 137.001l13 210h114l4 -461h-62c-235.333 0 -353 -104.667 -353 -314
c0 -80 20 -145.333 60 -196c44 -56.667 105.667 -85 185 -85c32.667 0 63 8 91 24c31.333 18.667 50 42.334 56 71.001c2 58.667 4.33301 94.334 7 107.001c8.66699 37.333 28.334 66.333 59.001 87c24 16 50 24 78 24c37.333 0 66.666 -13.333 87.999 -40
c19.333 -24 29 -54.333 29 -91c0 -77.333 -40.333 -144.333 -121 -201z" />
    <glyph glyph-name="Agrave" unicode="&#xc0;" horiz-adv-x="1241" 
d="M837 2098l-336 205c-48.667 29.333 -73 63.666 -73 102.999c0 26.667 9.5 48.834 28.5 66.501s41.833 26.5 68.5 26.5c34 0 72.667 -22 116 -66l330 -335h-134zM809 0l0.000976562 83c42.667 7.33301 66.334 26 71.001 56
c-0.666992 12.667 -8.33398 42.334 -23.001 89.001l-76 242h-468l-57 -175l-14 -53c-4.66699 -57.333 0.666016 -97.333 15.999 -120c16.667 -19.333 43.667 -32.333 81 -39v-83h-411v80c56.667 19.333 100.667 49.666 132 90.999c32.667 44 67 121 103 231l374 1125h165
l414 -1250c31.333 -94.667 60.333 -153 87 -175c12 -10 30.333 -15 55 -15v-87h-449zM556.001 1198l-202 -609h390z" />
    <glyph glyph-name="Aacute" unicode="&#xc1;" horiz-adv-x="1241" 
d="M1023 2348c-12.667 -13.333 -30 -28.333 -52 -45l-337 -205h-134l330 335c43.333 44 82 66 116 66c28 0 51.167 -8.83301 69.5 -26.5s27.5 -39.834 27.5 -66.501c0 -21.333 -6.66699 -40.666 -20 -57.999zM809 0l0.000976562 83c42.667 7.33301 66.334 26 71.001 56
c-0.666992 12.667 -8.33398 42.334 -23.001 89.001l-76 242h-468l-57 -175l-14 -53c-4.66699 -57.333 0.666016 -97.333 15.999 -120c16.667 -19.333 43.667 -32.333 81 -39v-83h-411v80c56.667 19.333 100.667 49.666 132 90.999c32.667 44 67 121 103 231l374 1125h165
l414 -1250c31.333 -94.667 60.333 -153 87 -175c12 -10 30.333 -15 55 -15v-87h-449zM556.001 1198l-202 -609h390z" />
    <glyph glyph-name="Acircumflex" unicode="&#xc2;" horiz-adv-x="1241" 
d="M959 2098l-224 198l-223 -198h-113l264 393h145l264 -393h-113zM809 0l0.000976562 83c42.667 7.33301 66.334 26 71.001 56c-0.666992 12.667 -8.33398 42.334 -23.001 89.001l-76 242h-468l-57 -175l-14 -53c-4.66699 -57.333 0.666016 -97.333 15.999 -120
c16.667 -19.333 43.667 -32.333 81 -39v-83h-411v80c56.667 19.333 100.667 49.666 132 90.999c32.667 44 67 121 103 231l374 1125h165l414 -1250c31.333 -94.667 60.333 -153 87 -175c12 -10 30.333 -15 55 -15v-87h-449zM556.001 1198l-202 -609h390z" />
    <glyph glyph-name="Atilde" unicode="&#xc3;" horiz-adv-x="1241" 
d="M971 2246c-40 -42 -99.668 -60.667 -179.001 -56l-44 9l-109 27l-23 4c-30.667 2 -51.667 -1.66699 -63 -11c-11.333 -13.333 -23 -38.333 -35 -75h-99c30.667 176.667 106.334 261.667 227.001 255l37 -2l32 -7l137 -34c32.667 -2 55 2.66699 67 14
c10 8.66699 20.333 31 31 67h102c-16 -88 -43 -151.667 -81 -191zM808.999 0l0.000976562 83c42.667 7.33301 66.334 26 71.001 56c-0.666992 12.667 -8.33398 42.334 -23.001 89.001l-76 241h-468l-57 -174l-14 -53c-4.66699 -57.333 0.666016 -97.333 15.999 -120
c16.667 -19.333 43.667 -32.333 81 -39v-83h-411v80c56.667 19.333 100.667 49.666 132 90.999c32.667 44 67 120.667 103 230l374 1126h165l414 -1250c31.333 -94.667 60.333 -153 87 -175c12 -10 30.333 -15 55 -15v-87h-449zM556 1197l-202 -608h390z" />
    <glyph glyph-name="Adieresis" unicode="&#xc4;" horiz-adv-x="1241" 
d="M912 2151c-34.667 0 -64.333 11.832 -89 35.499s-37 52.834 -37 87.501c0 32 12.667 60.333 38 85s54.666 37 87.999 37c34 0 63 -12.167 87 -36.5s36 -52.833 36 -85.5c0 -34 -12.167 -63 -36.5 -87s-53.166 -36 -86.499 -36zM559.001 2151
c-32 0 -61.666 11.6689 -88.999 35.002c-22.667 25.333 -34 54.666 -34 87.999c0 31.333 12.333 59.5 37 84.5s53.334 37.5 86.001 37.5c33.333 0 62.666 -12.333 87.999 -37s38 -53 38 -85c0 -34.667 -12.333 -63.834 -37 -87.501s-54.334 -35.5 -89.001 -35.5z
M809.002 0.000976562l0.000976562 82.999c42.667 7.33301 66.334 26 71.001 56c-0.666992 12.667 -8.33398 42.334 -23.001 89.001l-76 241h-468l-57 -174l-14 -53c-4.66699 -57.333 0.666016 -97.333 15.999 -120c16.667 -19.333 43.667 -32.333 81 -39v-83h-411v80
c56.667 18.667 101 49.5 133 92.5s66 119.167 102 228.5l374 1125h165l414 -1249c31.333 -94.667 60.333 -153 87 -175c12 -10 30.333 -15 55 -15v-87h-449zM556.003 1197l-202 -608h390z" />
    <glyph glyph-name="Aring" unicode="&#xc5;" horiz-adv-x="1241" 
d="M621 1474c-72 0 -133.167 24.167 -183.5 72.5s-75.5 107.5 -75.5 177.5c0 71.333 24.833 130.5 74.5 177.5s111.167 70.5 184.5 70.5c72.667 0 134.5 -24 185.5 -72s76.5 -107.333 76.5 -178c0 -68.667 -25.667 -127.167 -77 -175.5s-113 -72.5 -185 -72.5zM809 0
l0.000976562 79.001c47.333 13.333 71 32.666 71 57.999c0 10 -7.66699 38.667 -23 86l-76 234h-468l-57 -169l-14 -52c-4.66699 -56 1.33301 -95 18 -117c14 -18 40.333 -31 79 -39v-80h-411v78c58 18.667 102.167 47.834 132.5 87.501s64.5 115.167 102.5 226.5l368 1067
h182l403 -1187c20.667 -60.667 43.667 -110.334 69 -149.001c17.333 -25.333 41.666 -38 72.999 -38v-85h-449zM621.001 1837c-33.333 0 -61.5 -11 -84.5 -33s-34.5 -49.333 -34.5 -82c0 -32 11.5 -59 34.5 -81s51.167 -33 84.5 -33s62 11 86 33s36 49 36 81
s-12.167 59.167 -36.5 81.5s-52.833 33.5 -85.5 33.5zM556.001 1167l-201 -593h389z" />
    <glyph glyph-name="AE" unicode="&#xc6;" horiz-adv-x="2001" 
d="M1905 0l-1111 -0.00292969v86c40 0 65.667 10.333 77 31c13.333 24 20 63.667 20 119v227h-495l-110 -186l-37 -76c-7.33301 -19.333 -11 -34.666 -11 -45.999c0 -16.667 6 -30 18 -40c12 -13.333 37.333 -24.666 76 -33.999v-81h-427v79
c109.333 39.333 210.333 139.333 303 300l633 1096h1032l30 -323l-89 -11c-32.667 88 -76.334 146 -131.001 174s-168.334 42 -341.001 42h-64c-66.667 0 -104.667 -3.66699 -114 -11s-14 -32.666 -14 -75.999v-381h188c109.333 0 184.333 9 225 27
c37.333 16.667 66 53 86 109h78v-387h-78c-18 55.333 -42.667 91 -74 107c-34 17.333 -103.667 26 -209 26h-216v-541c0 -52 6.66699 -84.333 20 -97c20.667 -11.333 71.667 -17 153 -17h99c38 0 81.333 3 130 9c103.333 12 181 40.667 233 86
c38.667 32.667 85.334 84.667 140.001 156l76 -42zM891.001 1354c-11.333 -32 -154.333 -289.667 -429 -773h429v773z" />
    <glyph glyph-name="Ccedilla" unicode="&#xc7;" horiz-adv-x="1374" 
d="M1078 49c-103.333 -61.333 -219.668 -91.999 -349.001 -91.999c-205.333 0 -370.333 66.5 -495 199.5s-187 311.167 -187 534.5c0 275.333 92.667 498 278 668c108 99.333 251.667 149 431 149c165.333 0 342.333 -61.667 531 -185l-89 -278l-84 11
c-75.333 228.667 -209.666 343 -402.999 343c-142 0 -249.667 -66.333 -323 -199c-58.667 -107.333 -88 -238 -88 -392c0 -200.667 49.333 -366.334 148 -497.001c97.333 -127.333 221 -191 371 -191c173.333 0 327 92.667 461 278l76 -55
c-84 -135.333 -176.667 -233.333 -278 -294zM927.998 -446.999c-80 0 -188.667 28.667 -326 86l57 124c92 -54 170 -81 234 -81s96 21.667 96 65c0 42 -30 63 -90 63h-24l-60 -10v238h113v-107h6l29 2c60 4 109.833 -11.167 149.5 -45.5s59.5 -80.5 59.5 -138.5
c0 -62 -22 -110.167 -66 -144.5s-103.333 -51.5 -178 -51.5z" />
    <glyph glyph-name="Egrave" unicode="&#xc8;" horiz-adv-x="1256" 
d="M831 2098l-336.001 205.001c-48.667 29.333 -73 63.666 -73 102.999c0 26 9.33301 48 28 66s41.334 27 68.001 27c34.667 0 73.667 -22 117 -66l329 -335h-133zM1162 0.000976562l-1111 0.000976562v87c39.333 0 64.333 10.333 75 31c12.667 24.667 19 65 19 121v1015
c0 60.667 -6.33301 102 -19 124c-11.333 20 -36.333 30 -75 30v87h1078l29 -327l-87 -12c-32.667 90 -76 148.667 -130 176c-56 28.667 -170.333 43 -343 43h-63c-66 0 -104.333 -4 -115 -12s-16 -33.333 -16 -76v-386h188c108.667 0 183.667 9 225 27
c38.667 16 68.334 53 89.001 111h78v-392h-79c-22 58 -47 94.333 -75 109c-31.333 16.667 -101 25 -209 25h-217v-547c0 -54 7.66699 -86 23 -96c18.667 -13.333 69 -20 151 -20h98c40 0 83.333 2.66699 130 8c104.667 13.333 183.334 43 236.001 89
c38 33.333 83.667 85.666 137 156.999l80 -42z" />
    <glyph glyph-name="Eacute" unicode="&#xc9;" horiz-adv-x="1256" 
d="M1017 2348c-12.667 -13.333 -30 -28.335 -52 -45.002l-337 -205h-134l330 335c43.333 44 82 66 116 66c28 0 51.167 -8.66699 69.5 -26s27.5 -39.666 27.5 -66.999c0 -21.333 -6.66699 -40.666 -20 -57.999zM1162 -0.00195312l-1111 0.000976562v87
c39.333 0 64.333 10.333 75 31c12.667 24.667 19 65 19 121v1015c0 60.667 -6.33301 102 -19 124c-11.333 20 -36.333 30 -75 30v87h1078l29 -327l-87 -12c-32.667 90 -76 148.667 -130 176c-56 28.667 -170.333 43 -343 43h-63c-66 0 -104.333 -4 -115 -12
s-16 -33.333 -16 -76v-386h188c108.667 0 183.667 9 225 27c38.667 16 68.334 53 89.001 111h78v-392h-79c-22 58 -47 94.333 -75 109c-31.333 16.667 -101 25 -209 25h-217v-547c0 -54 7.66699 -86 23 -96c18.667 -13.333 69 -20 151 -20h98c40 0 83.333 2.66699 130 8
c104.667 13.333 183.334 43 236.001 89c38 33.333 83.667 85.666 137 156.999l80 -42z" />
    <glyph glyph-name="Ecircumflex" unicode="&#xca;" horiz-adv-x="1256" 
d="M953 2098l-224 198l-223 -198h-113l264 393h145l264 -393h-113zM1162 0l-1111 0.00195312v87c39.333 0 64.333 10.333 75 31c12.667 24.667 19 65 19 121v1015c0 60.667 -6.33301 102 -19 124c-11.333 20 -36.333 30 -75 30v87h1078l29 -327l-87 -12
c-32.667 90 -76 148.667 -130 176c-56 28.667 -170.333 43 -343 43h-63c-66 0 -104.333 -4 -115 -12s-16 -33.333 -16 -76v-386h188c108.667 0 183.667 9 225 27c38.667 16 68.334 53 89.001 111h78v-392h-79c-22 57.333 -47 93.666 -75 108.999
c-31.333 16.667 -101 25 -209 25h-217v-547c0 -54 7.66699 -86 23 -96c18.667 -13.333 69 -20 151 -20h98c40 0 83.333 2.66699 130 8c104.667 13.333 183.334 43 236.001 89c38 33.333 83.667 85.666 137 156.999l80 -42z" />
    <glyph glyph-name="Edieresis" unicode="&#xcb;" horiz-adv-x="1256" 
d="M905 2151c-34.667 0 -64.167 12 -88.5 36s-36.5 53 -36.5 87c0 32 12.667 60.333 38 85s54.333 37 87 37c34 0 63.167 -12 87.5 -36s36.5 -52.667 36.5 -86c0 -34 -12.167 -63 -36.5 -87s-53.5 -36 -87.5 -36zM553 2151c-32 0 -61.666 11.6689 -88.999 35.002
c-22.667 25.333 -34 54.666 -34 87.999c0 31.333 12.333 59.5 37 84.5s53.334 37.5 86.001 37.5c33.333 0 62.666 -12.333 87.999 -37s38 -53 38 -85c0 -34.667 -12.333 -63.834 -37 -87.501s-54.334 -35.5 -89.001 -35.5zM1162 0.00195312h-1111v87
c39.333 0 64.333 10.333 75 31c12.667 24.667 19 65 19 121v1014c0 60.667 -6.33301 102 -19 124c-11.333 20 -36.333 30 -75 30v87h1078l29 -327l-87 -12c-32.667 90 -76 148.667 -130 176c-56 28.667 -170.333 43 -343 43h-63c-66 0 -104.333 -4 -115 -12
s-16 -33.333 -16 -76v-386h188c108.667 0 183.667 9 225 27c38.667 16.667 68.334 53.667 89.001 111h78v-391h-79c-22 57.333 -47 93.333 -75 108c-31.333 17.333 -101 26 -209 26h-217v-547c0 -54 7.66699 -86.333 23 -97c18.667 -12.667 69 -19 151 -19h98
c40 0 83.333 2.66699 130 8c104.667 13.333 183.334 43 236.001 89c38 32.667 83.667 85 137 157l80 -42z" />
    <glyph glyph-name="Igrave" unicode="&#xcc;" horiz-adv-x="574" 
d="M454 1927l-336 204c-48.667 29.333 -73 63.666 -73 102.999c0 26.667 9.5 48.834 28.5 66.501s41.833 26.5 68.5 26.5c34 0 72.667 -22 116 -66l330 -334h-134zM61 0v86.999c39.333 0 64.333 10.333 75 31c12.667 24.667 19 65 19 121v1013
c0 58.667 -6.33301 100.334 -19 125.001c-10 19.333 -35 29 -75 29v87h452v-87c-40 0 -65 -9.33301 -75 -28c-13.333 -23.333 -20 -65.333 -20 -126v-1013c0 -58 6.66699 -99.667 20 -125c10 -18 35 -27 75 -27v-87h-452z" />
    <glyph glyph-name="Iacute" unicode="&#xcd;" horiz-adv-x="574" 
d="M458 2203l-336.001 -205.001h-134l330 335c25.333 26 46.333 42.667 63 50c16.667 10 34.334 15 53.001 15c64.667 0 97 -30.667 97 -92c0 -39.333 -24.333 -73.666 -73 -102.999zM60.999 -0.000976562v86.999c39.333 0 64.333 10.333 75 31c12.667 24.667 19 65 19 121
v1014c0 58.667 -6.33301 100.334 -19 125.001c-10 19.333 -35 29 -75 29v87h452v-87c-40 0 -65 -9.33301 -75 -28c-13.333 -23.333 -20 -65.333 -20 -126v-1014c0 -58 6.66699 -99.667 20 -125c10 -18 35 -27 75 -27v-87h-452z" />
    <glyph glyph-name="Icircumflex" unicode="&#xce;" horiz-adv-x="574" 
d="M533 1969l-224 198l-223 -198h-113l264 393h145l264 -393h-113zM61 0v87c39.333 0 64.333 10.333 75 31c12.667 24.667 19 65 19 121v1013c0 59.333 -6.33301 101 -19 125c-10 19.333 -35 29 -75 29v87h452v-87c-40 0 -65 -9 -75 -27c-13.333 -24 -20 -66.333 -20 -127
v-1013c0 -58 6.66699 -99.667 20 -125c10 -18 35 -27 75 -27v-87h-452z" />
    <glyph glyph-name="Idieresis" unicode="&#xcf;" horiz-adv-x="574" 
d="M443 2151c-34.667 0 -64.333 11.832 -89 35.499s-37 52.834 -37 87.501c0 32 12.667 60.333 38 85s54.666 37 87.999 37c34 0 63 -12.167 87 -36.5s36 -52.833 36 -85.5c0 -34 -12.167 -63 -36.5 -87s-53.166 -36 -86.499 -36zM90.001 2151
c-32 0 -61.666 11.6689 -88.999 35.002c-22.667 25.333 -34 54.666 -34 87.999c0 31.333 12.333 59.5 37 84.5s53.334 37.5 86.001 37.5c33.333 0 62.666 -12.333 87.999 -37s38 -53 38 -85c0 -34.667 -12.333 -63.834 -37 -87.501s-54.334 -35.5 -89.001 -35.5z
M61.002 0.000976562v86.999c39.333 0 64.333 10.333 75 31c12.667 24.667 19 65 19 121v1014c0 58.667 -6.33301 100.334 -19 125.001c-10 19.333 -35 29 -75 29v87h452v-87c-40 0 -65 -9.33301 -75 -28c-13.333 -23.333 -20 -65.333 -20 -126v-1014
c0 -58 6.66699 -99.667 20 -125c10 -18 35 -27 75 -27v-87h-452z" />
    <glyph glyph-name="Eth" unicode="&#xd0;" horiz-adv-x="1485" 
d="M621 0l-570.001 0.000976562v86c39.333 0 64.333 10 75 30c12.667 24.667 19 64.667 19 120v517h-170v116h170v368c0 60.667 -6.33301 101.667 -19 123c-11.333 19.333 -36.333 29 -75 29v86l519 12c198.667 0 352.667 -27.333 462 -82
c126.667 -64 225.334 -160.333 296.001 -289c66.667 -120.667 100 -253.334 100 -398.001c0 -224 -71.5 -399.667 -214.5 -527s-340.5 -191 -592.5 -191zM1027 1221c-79.333 103.333 -203.667 155.334 -373 156.001c-109.333 0 -179.333 -9.66699 -210 -29
c-26.667 -16.667 -40 -53.667 -40 -111v-368h356v-116h-356v-540c0 -40.667 9.5 -68.334 28.5 -83.001s64.833 -22 137.5 -22c214 0 364.167 45.5 450.5 136.5s129.5 251.5 129.5 481.5c0 223.333 -41 388.333 -123 495z" />
    <glyph glyph-name="Ntilde" unicode="&#xd1;" horiz-adv-x="1395" 
d="M1108 2246c-40 -42 -99.667 -60.667 -179 -56l-44 8l-107 28l-25 4c-30 2 -51 -1.66699 -63 -11c-10.667 -13.333 -22.334 -38.333 -35.001 -75h-99c16.667 93.333 43.334 159 80.001 197c40.667 42 102 60.667 184 56l32 -7l137 -34c32.667 -2 55 2.66699 67 14
c10 8.66699 20.333 31 31 67h102c-16 -88 -43 -151.667 -81 -191zM1262 1062l0.00195312 -1079h-122l-892 1225v-872c0 -78.667 10.667 -138.667 32 -180c19.333 -36.667 56.666 -61.334 111.999 -74.001v-82h-404v79c56.667 22.667 95 54.334 115 95.001
c16 32 24 80.333 24 145v921c0 55.333 -8.33301 98.333 -25 129c-16.667 22 -49.334 35.333 -98.001 40v85h349l788 -1082v636c0 130 -10.333 221.333 -31 274c-18.667 46.667 -59 76.667 -121 90v82h380v-76c-42 -26 -70.333 -59 -85 -99s-22 -125.667 -22 -257z" />
    <glyph glyph-name="Ograve" unicode="&#xd2;" horiz-adv-x="1471" 
d="M853 2041l-335.002 205c-18.667 11.333 -35.667 26.5 -51 45.5s-23 38.167 -23 57.5c0 27.333 9.66699 49 29 65c16.667 18 39.334 27 68.001 27c34.667 0 73.334 -21.667 116.001 -65l330 -335h-134zM1367 439c-35.333 -90.667 -84.668 -173.001 -148.001 -247.001
c-70 -80.667 -147 -138.667 -231 -174c-78.667 -34 -163.667 -51 -255 -51c-213.333 0 -383.666 78.333 -510.999 235c-117.333 145.333 -176 326 -176 542c0 238.667 86 441.667 258 609c56.667 54.667 123.5 97.167 200.5 127.5s156.833 45.5 239.5 45.5
c167.333 0 304 -49.667 410 -149c180 -169.333 270 -376.666 270 -621.999c0 -114 -19 -219.333 -57 -316zM734.996 1423c-154 0 -264.667 -82.667 -332 -248c-47.333 -114.667 -71 -259.667 -71 -435c0 -444.667 134.333 -667 403 -667c134.667 0 234.667 54.667 300 164
c67.333 112 101 290.667 101 536c0 433.333 -133.667 650 -401 650z" />
    <glyph glyph-name="Oacute" unicode="&#xd3;" horiz-adv-x="1471" 
d="M986 2246l-336 -205.001h-133l330 335c26 26 47 42.667 63 50c16 10 33.667 15 53 15c64 0 96 -30.667 96 -92c0 -39.333 -24.333 -73.666 -73 -102.999zM1367 438.999c-35.333 -90.667 -84.668 -173.001 -148.001 -247.001c-70 -80.667 -147 -138.667 -231 -174
c-78.667 -34 -163.667 -51 -255 -51c-213.333 0 -383.666 78.333 -510.999 235c-117.333 145.333 -176 326 -176 542c0 238.667 86 441.667 258 609c56.667 54.667 123.5 97.167 200.5 127.5s156.833 45.5 239.5 45.5c167.333 0 304 -49.667 410 -149
c180 -169.333 270 -376.666 270 -621.999c0 -114 -19 -219.333 -57 -316zM734.998 1423c-154 0 -264.667 -82.667 -332 -248c-47.333 -114.667 -71 -259.667 -71 -435c0 -444.667 134.333 -667 403 -667c134.667 0 234.667 54.667 300 164c67.333 112 101 290.667 101 536
c0 433.333 -133.667 650 -401 650z" />
    <glyph glyph-name="Ocircumflex" unicode="&#xd4;" horiz-adv-x="1471" 
d="M975 2098l-223 198l-224 -198h-113l264 393h145l265 -393h-114zM1367 439c-35.333 -90.667 -84.668 -173.004 -148.001 -247.004c-70 -80.667 -147 -138.667 -231 -174c-78.667 -34 -163.667 -51 -255 -51c-213.333 0 -383.666 78.667 -510.999 236
c-117.333 144.667 -176 325.334 -176 542.001c0 238.667 86 441.334 258 608.001c56.667 54.667 123.5 97.334 200.5 128.001s156.833 46 239.5 46c167.333 0 304 -50 410 -150c180 -169.333 270 -376.666 270 -621.999c0 -114 -19 -219.333 -57 -316zM734.998 1423
c-154 0 -264.667 -82.333 -332 -247c-47.333 -114.667 -71 -259.667 -71 -435c0 -445.333 134.333 -668 403 -668c134.667 0 234.667 54.667 300 164c67.333 112 101 290.667 101 536c0 433.333 -133.667 650 -401 650z" />
    <glyph glyph-name="Otilde" unicode="&#xd5;" horiz-adv-x="1471" 
d="M872 2231c-40 -42 -99.332 -60.667 -177.999 -56l-44 9l-108 28l-25 3c-26.667 4 -47.667 0.666992 -63 -10c-10.667 -14 -22 -39.333 -34 -76h-100c32 177.333 108 262.666 228 255.999l37 -2l32 -7l110 -28l27 -6c33.333 -2 55.666 2.33301 66.999 13
c9.33301 8.66699 20 31.334 32 68.001h101c-16.667 -88.667 -44 -152.667 -82 -192zM1367 438c-35.333 -90 -84.668 -171.999 -148.001 -245.999c-70 -80.667 -147 -138.667 -231 -174c-78.667 -34 -163.667 -51 -255 -51c-213.333 0 -383.666 78.333 -510.999 235
c-117.333 145.333 -176 326 -176 542c0 238.667 86 441.667 258 609c56.667 54 123.5 96.333 200.5 127s156.833 46 239.5 46c167.333 0 304 -50 410 -150c180 -168.667 270 -375.667 270 -621c0 -114.667 -19 -220.334 -57 -317.001zM734.999 1422
c-154 0 -264.667 -82.333 -332 -247c-47.333 -114.667 -71 -259.667 -71 -435c0 -444.667 134.333 -667 403 -667c134.667 0 234.667 54.667 300 164c67.333 112 101 290.667 101 536c0 432.667 -133.667 649 -401 649z" />
    <glyph glyph-name="Odieresis" unicode="&#xd6;" horiz-adv-x="1471" 
d="M985 2122c-34.667 0 -64.167 12.001 -88.5 36.001s-36.5 53 -36.5 87c0 32 12.5 60.5 37.5 85.5s54.167 37.5 87.5 37.5c34 0 63.167 -12.333 87.5 -37s36.5 -53.334 36.5 -86.001c0 -34 -12.333 -63 -37 -87s-53.667 -36 -87 -36zM633 2122c-32 0 -62.001 12 -90.001 36
c-22 24.667 -33 53.667 -33 87c0 32 12.333 60.5 37 85.5s53.334 37.5 86.001 37.5c33.333 0 62.5 -12.5 87.5 -37.5s37.5 -53.5 37.5 -85.5c0 -34 -12.333 -63 -37 -87s-54 -36 -88 -36zM1367 438.001c-35.333 -90.667 -84.668 -172.668 -148.001 -246.001
c-70 -80.667 -147 -138.667 -231 -174c-78.667 -34 -163.667 -51 -255 -51c-213.333 0 -383.666 78.333 -510.999 235c-117.333 145.333 -176 326 -176 542c0 238.667 86 441.334 258 608.001c56.667 54.667 123.5 97.334 200.5 128.001s156.833 46 239.5 46
c167.333 0 304 -50 410 -150c180 -169.333 270 -376.333 270 -621c0 -114.667 -19 -220.334 -57 -317.001zM734.997 1422c-154 0 -264.667 -82.333 -332 -247c-47.333 -114.667 -71 -259.667 -71 -435c0 -444.667 134.333 -667 403 -667c134.667 0 234.667 54.667 300 164
c67.333 112 101 290.333 101 535c0 433.333 -133.667 650 -401 650z" />
    <glyph glyph-name="multiply" unicode="&#xd7;" horiz-adv-x="1706" 
d="M1329 35l-469 447l-469 -447l-133 127l469 449l-469 449l133 128l469 -449l469 449l134 -128l-469 -449l470 -449z" />
    <glyph glyph-name="Oslash" unicode="&#xd8;" horiz-adv-x="1471" 
d="M1367 432c-35.333 -90 -84.6689 -171.667 -148.002 -245c-70 -79.333 -147 -136.666 -231 -171.999c-78.667 -34 -163.667 -51 -255 -51c-120.667 0 -225 23 -313 69l-92 -169l-108 58l99 179c-182 163.333 -273 374.666 -273 633.999c0 234.667 86 435.667 258 603
c55.333 54 122.333 96.333 201 127c76.667 30.667 156.334 46 239.001 46c102.667 0 204.334 -25.667 305.001 -77l99 182l103 -64l-102 -186c183.333 -164 275 -370 275 -618c0 -114.667 -19 -220 -57 -316zM883.997 1382c-43.333 17.333 -92.999 25.999 -148.999 25.999
c-156.667 0 -269.334 -81 -338.001 -243c-48.667 -113.333 -73 -258 -73 -434c0 -195.333 27.667 -352 83 -470l578 1056c-30 28.667 -63.667 50.334 -101 65.001zM1067 1213l-580.999 -1060c65.333 -56 147.666 -84 246.999 -84c275.333 0 413 223.667 413 671
c0 210 -26.333 367.667 -79 473z" />
    <glyph glyph-name="Ugrave" unicode="&#xd9;" horiz-adv-x="1428" 
d="M909 2113l-335.999 205.001c-48.667 29.333 -73 63.666 -73 102.999c0 26 9.16699 47.833 27.5 65.5s41.166 26.5 68.499 26.5c35.333 0 74.333 -21.667 117 -65l329 -335h-133zM1320 1331c-20 -48 -30 -121.334 -30 -220.001v-470c0 -242.667 -32 -405 -96 -487
c-98 -124.667 -257 -187 -477 -187c-128.667 0 -239.667 25.333 -333 76c-108 58.667 -176.333 144 -205 256c-16 62.667 -24 155 -24 277v678c0 58.667 -6.33301 100.334 -19 125.001c-10 19.333 -35 29 -75 29v87h452v-87c-40 0 -65 -9.33301 -75 -28
c-13.333 -23.333 -20 -65.333 -20 -126v-718c0 -163.333 26.5 -276.333 79.5 -339s145.833 -94 278.5 -94c200.667 0 322.667 73 366 219c18 60.667 27 167.667 27 321v477c0 97.333 -10.333 169.333 -31 216c-18.667 41.333 -56 66.333 -112 75v84h396v-81
c-51.333 -16 -85.333 -43.667 -102 -83z" />
    <glyph glyph-name="Uacute" unicode="&#xda;" horiz-adv-x="1428" 
d="M955 2275l-335.001 -205h-134l330 335c25.333 26 46.333 42.667 63 50c16.667 10 34.334 15 53.001 15c64.667 0 97 -30.667 97 -92c0 -38.667 -24.667 -73 -74 -103zM1320 1330c-20 -47.333 -30 -120.668 -30 -220.001v-469c0 -242.667 -32 -405 -96 -487
c-98 -124.667 -257 -187 -477 -187c-128.667 0 -239.667 25.333 -333 76c-108 58.667 -176.333 144 -205 256c-16 62 -24 154.333 -24 277v677c0 58.667 -6.33301 100.334 -19 125.001c-10 19.333 -35 29 -75 29v87h452v-87c-40 0 -65 -9 -75 -27
c-13.333 -24 -20 -66.333 -20 -127v-717c0 -163.333 26.5 -276.333 79.5 -339s145.833 -94 278.5 -94c200.667 0 322.667 73 366 219c18 60.667 27 167.667 27 321v477c0 97.333 -10.333 169.333 -31 216c-18.667 41.333 -56 66.333 -112 75v83h396v-80
c-51.333 -16 -85.333 -44 -102 -84z" />
    <glyph glyph-name="Ucircumflex" unicode="&#xdb;" horiz-adv-x="1428" 
d="M988 2141l-224 198l-223 -198h-114l265 393h145l264 -393h-113zM1320 1331c-20 -47.333 -30 -120.669 -30 -220.002v-470c0 -242.667 -32 -405 -96 -487c-98 -124.667 -257 -187 -477 -187c-128.667 0 -239.667 25.333 -333 76c-108 58.667 -176.333 144 -205 256
c-16 62.667 -24 155 -24 277v678c0 58.667 -6.33301 100.334 -19 125.001c-10 19.333 -35 29 -75 29v87h452v-87c-40 0 -65 -9.33301 -75 -28c-13.333 -23.333 -20 -65.333 -20 -126v-718c0 -163.333 26.5 -276.333 79.5 -339s145.833 -94 278.5 -94
c200.667 0 322.667 73 366 219c18 60.667 27 167.667 27 321v478c0 96.667 -10.333 168.334 -31 215.001c-18.667 42 -56 67.333 -112 76v83h396v-80c-51.333 -16 -85.333 -44 -102 -84z" />
    <glyph glyph-name="Udieresis" unicode="&#xdc;" horiz-adv-x="1428" 
d="M955 2108c-34.667 0 -64.333 11.832 -89 35.499s-37 52.834 -37 87.501c0 32 12.667 60.333 38 85s54.666 37 87.999 37c34 0 63 -12.167 87 -36.5s36 -52.833 36 -85.5c0 -34 -12.167 -63 -36.5 -87s-53.166 -36 -86.499 -36zM602.001 2108
c-32 0 -61.666 11.6689 -88.999 35.002c-22.667 25.333 -34 54.666 -34 87.999c0 31.333 12.333 59.5 37 84.5s53.334 37.5 86.001 37.5c33.333 0 62.666 -12.333 87.999 -37s38 -53 38 -85c0 -34.667 -12.333 -63.834 -37 -87.501s-54.334 -35.5 -89.001 -35.5zM1320 1329
c-20 -47.333 -30 -120.668 -30 -220.001v-469c0 -242 -32 -404 -96 -486c-98 -124.667 -257 -187 -477 -187c-128.667 0 -239.667 25.333 -333 76c-108 58 -176.333 143.333 -205 256c-16 62 -24 154 -24 276v677c0 58.667 -6.33301 100.334 -19 125.001
c-10 19.333 -35 29 -75 29v87h452v-87c-40 0 -65 -9.33301 -75 -28c-13.333 -23.333 -20 -65.333 -20 -126v-717c0 -162.667 26.5 -275.334 79.5 -338.001s145.833 -94 278.5 -94c200.667 0 322.667 73 366 219c18 60.667 27 167.334 27 320.001v477
c0 97.333 -10.333 169 -31 215c-18.667 41.333 -56 66.333 -112 75v84h396v-81c-51.333 -16 -85.333 -43.667 -102 -83z" />
    <glyph glyph-name="Yacute" unicode="&#xdd;" horiz-adv-x="1262" 
d="M904 2332l-336 -205h-133l330 335c26 26 47 42.667 63 50c16 10 33.667 15 53 15c64.667 0 97 -30.667 97 -92c0 -22.667 -7.33301 -42.5 -22 -59.5s-32 -31.5 -52 -43.5zM1196 1370c-32.667 -34 -75 -97.334 -127 -190.001l-315 -563v-378
c0 -58 6.66699 -99.667 20 -125c10 -18 35 -27 75 -27v-87h-450v87c40 0 65.667 10.333 77 31c12.667 23.333 19 63.666 19 120.999v362l-347 618c-62 120.667 -123 185.334 -183 194.001v82h464v-83c-26.667 -2 -41.667 -3.33301 -45 -4
c-11.333 -4 -18.333 -14.333 -21 -31c1.33301 -21.333 14.666 -55.333 39.999 -102c4.66699 -8 15 -25.667 31 -53l261 -468c58.667 100 140.334 249.333 245.001 448c23.333 50 35 93.333 35 130c0 20 -7 38 -21 54s-38.667 24 -74 24v85h415v-82
c-42.667 -5.33301 -75.667 -19.666 -99 -42.999z" />
    <glyph glyph-name="Thorn" unicode="&#xde;" horiz-adv-x="1256" 
d="M1083 443c-80.667 -50 -177.667 -82.002 -291 -96.002c-70 -9.33301 -173.333 -12.666 -310 -9.99902l-78 9v-110c0 -58 6.66699 -98.333 20 -121c11.333 -19.333 36 -29 74 -29v-86h-447v86c39.333 0 64.333 10 75 30c12.667 24.667 19 64.667 19 120v1001
c0 60 -6.33301 101 -19 123c-11.333 19.333 -36.333 29 -75 29v86h447v-86c-39.333 0 -64 -9 -74 -27c-13.333 -24 -20 -65.667 -20 -125v-44l58 2c39.333 2 75.666 3 108.999 3c204.667 0 370.334 -38.667 497.001 -116c129.333 -78 194 -185.667 194 -323
c0 -135.333 -59.667 -240.666 -179 -315.999zM606 1091c-83.333 0 -139 -8 -167 -24c-23.333 -12.667 -35 -44 -35 -94v-523l51 -7c106 -2 181.667 -0.333008 227 5c86.667 10 157 35 211 75c70.667 52.667 106 132.667 106 240c0 104 -33.5 184.667 -100.5 242
s-164.5 86 -292.5 86z" />
    <glyph glyph-name="germandbls" unicode="&#xdf;" horiz-adv-x="1053" 
d="M878 147c-83.333 -117.333 -183.999 -175.999 -301.999 -175.999c-52 0 -98.333 16.667 -139 50c-42.667 35.333 -64 77.666 -64 126.999c0 30 10 56.667 30 80s45.333 35 76 35c30 0 54.667 -8.66699 74 -26c18.667 -20.667 32 -54.667 40 -102
c0 -34.667 9.33301 -52 28 -52c94 0 141 125 141 375c0 164.667 -22.333 277.667 -67 339c-44 58.667 -121.333 88 -232 88h-76v113h88c69.333 0 115.666 14.667 138.999 44c20 25.333 30 73 30 143c0 148 -50.667 222 -152 222c-92.667 0 -139 -68.333 -139 -205v-1204
l-302 1v86c32.667 0 53 6.33301 61 19c10 16.667 15 44.667 15 84v697h-127v113h127v178c0 108.667 34 192 102 250c64 54.667 153 82 267 82c107.333 0 195.333 -22.333 264 -67c79.333 -52 119 -127.667 119 -227c0 -124.667 -42 -211.667 -126 -261
c164.667 -48.667 247 -178 247 -388c0 -164.667 -40.667 -304 -122 -418z" />
    <glyph glyph-name="agrave" unicode="&#xe0;" horiz-adv-x="905" 
d="M479 1084l-336 201c-49.333 29.333 -74 63.333 -74 102c0 26.667 9 48.667 27 66s41.333 26 70 26c35.333 0 74.333 -21.667 117 -65l329 -330h-133zM717 -29c-86 0 -136 39.335 -150 118.002c-111.333 -78.667 -210.666 -118 -297.999 -118
c-72 0 -130.5 22.167 -175.5 66.5s-67.5 101.166 -67.5 170.499c0 86.667 38.333 162.667 115 228c70.667 60 211.334 131 422.001 213v125c0 102 -34 153 -102 153c-30 0 -53.333 -6.66699 -70 -20c-14 -11.333 -29.333 -41.5 -46 -90.5s-36.667 -82.833 -60 -101.5
c-26 -22.667 -54.667 -34 -86 -34c-33.333 0 -61.166 11.5 -83.499 34.5s-33.5 50.833 -33.5 83.5c0 63.333 38 117.666 114 162.999c72 42 161 63 267 63c109.333 0 189.666 -21.667 240.999 -65c55.333 -46 83 -121 83 -225v-568c0 -24.667 2.33301 -43.667 7 -57
c3.33301 -4 7.66602 -6 12.999 -6c10.667 0 26 16.667 46 50l70 -55c-35.333 -46.667 -69.333 -79.667 -102 -99s-67.334 -29 -104.001 -29zM563 542.002c-94 -40 -159.667 -73.332 -197 -99.999c-72.667 -52 -109 -111.667 -109 -179
c0 -40.667 9.66699 -74.334 29 -101.001c22 -31.333 53 -47 93 -47c58.667 0 120 37 184 111v316z" />
    <glyph glyph-name="aacute" unicode="&#xe1;" horiz-adv-x="905" 
d="M611 1285l-335 -201h-134l330 331c25.333 24.667 46 41.5 62 50.5s34 13.5 54 13.5c28 0 51.167 -8.66699 69.5 -26s27.5 -39.333 27.5 -66c0 -38.667 -24.667 -72.667 -74 -102zM717 -29c-86 0 -136 39.335 -150 118.002c-111.333 -78.667 -210.666 -118 -297.999 -118
c-72 0 -130.5 22.167 -175.5 66.5s-67.5 101.166 -67.5 170.499c0 86.667 38.333 162.667 115 228c70.667 60 211.334 131 422.001 213v125c0 102 -34 153 -102 153c-30 0 -53.333 -6.66699 -70 -20c-14 -11.333 -29.333 -41.5 -46 -90.5s-36.667 -82.833 -60 -101.5
c-26 -22.667 -54.667 -34 -86 -34c-33.333 0 -61.166 11.5 -83.499 34.5s-33.5 50.833 -33.5 83.5c0 63.333 38 117.666 114 162.999c72 42 161 63 267 63c109.333 0 189.666 -21.667 240.999 -65c55.333 -46 83 -121 83 -225v-568c0 -24.667 2.33301 -43.667 7 -57
c3.33301 -4 7.66602 -6 12.999 -6c10.667 0 26 16.667 46 50l70 -55c-35.333 -46.667 -69.333 -79.667 -102 -99s-67.334 -29 -104.001 -29zM563 542.002c-94 -40 -159.667 -73.332 -197 -99.999c-72.667 -52 -109 -111.667 -109 -179
c0 -40.667 9.66699 -74.334 29 -101.001c22 -31.333 53 -47 93 -47c58.667 0 120 37 184 111v316z" />
    <glyph glyph-name="acircumflex" unicode="&#xe2;" horiz-adv-x="905" 
d="M601 1084l-224 195l-223 -195h-115l266 387h144l266 -387h-114zM717 -29c-86 0 -136 39.333 -150 118c-111.333 -78.667 -210.666 -118 -297.999 -118c-72 0 -130.5 22.167 -175.5 66.5s-67.5 101.166 -67.5 170.499c0 86.667 38.333 162.667 115 228
c70.667 60 211.334 130.667 422.001 212v126c0 102 -34 153 -102 153c-30 0 -53.333 -6.66699 -70 -20c-14 -11.333 -29.333 -41.5 -46 -90.5s-36.667 -83.167 -60 -102.5c-26 -22 -54.667 -33 -86 -33c-33.333 0 -61.166 11.333 -83.499 34s-33.5 50.334 -33.5 83.001
c0 64 38 118.333 114 163c72 42.667 161 64 267 64c109.333 0 189.666 -21.667 240.999 -65c55.333 -46 83 -121 83 -225v-569c0 -24 2.33301 -42.667 7 -56c3.33301 -4 7.66602 -6 12.999 -6c10.667 0 26 16.667 46 50l70 -55c-35.333 -46.667 -69.333 -79.667 -102 -99
s-67.334 -29 -104.001 -29zM563 542c-94 -40 -159.667 -73.332 -197 -99.999c-72.667 -52 -109 -111.667 -109 -179c0 -40.667 9.66699 -74.334 29 -101.001c22 -31.333 53 -47 93 -47c58.667 0 120 37 184 111v316z" />
    <glyph glyph-name="atilde" unicode="&#xe3;" horiz-adv-x="905" 
d="M612 1228c-40 -40.667 -99.667 -58.667 -179 -54l-43 8l-108 28l-25 3c-26.667 4 -47.667 0.333008 -63 -11c-10.667 -13.333 -22 -38 -34 -74h-100c32.667 174.667 108.667 258.667 228 252l38 -2l168 -40l23 -2c32.667 0 58 27 76 81h101
c-16.667 -86.667 -44 -149.667 -82 -189zM717 -29c-86 0 -136 39.333 -150 118c-111.333 -78.667 -210.666 -118 -297.999 -118c-72 0 -130.5 22.167 -175.5 66.5s-67.5 101.166 -67.5 170.499c0 86 38.333 162 115 228c70.667 59.333 211.334 130 422.001 212v125
c0 102 -34 153 -102 153c-30 0 -53.333 -6.66699 -70 -20c-14 -12 -29.333 -42.333 -46 -91s-36.667 -82.667 -60 -102c-26 -22 -54.667 -33 -86 -33c-33.333 0 -61.166 11.333 -83.499 34s-33.5 50.334 -33.5 83.001c0 64 38 118.333 114 163c72 42.667 161 64 267 64
c109.333 0 189.666 -21.667 240.999 -65c55.333 -46 83 -121 83 -225v-568c0 -24 2.33301 -42.667 7 -56c3.33301 -4.66699 7.66602 -7 12.999 -7c10.667 0 26 16.667 46 50l70 -54c-35.333 -46.667 -69.333 -79.667 -102 -99s-67.334 -29 -104.001 -29zM563 541
c-94 -40 -159.667 -73.333 -197 -100c-72.667 -51.333 -109 -110.666 -109 -177.999c0 -40.667 9.66699 -74.334 29 -101.001c22 -31.333 53 -47 93 -47c58.667 0 120 37 184 111v315z" />
    <glyph glyph-name="adieresis" unicode="&#xe4;" horiz-adv-x="905" 
d="M553 1135c-34.667 0 -64.167 11.6689 -88.5 35.002s-36.5 51.666 -36.5 84.999c0 32 12.5 60.333 37.5 85s54.167 37 87.5 37c34 0 63.167 -12.167 87.5 -36.5s36.5 -52.833 36.5 -85.5s-12.333 -60.834 -37 -84.501s-53.667 -35.5 -87 -35.5zM201 1135
c-32 0 -62.001 11.332 -90.001 33.999c-22 25.333 -33 54 -33 86s12.333 60.333 37 85s53.334 37 86.001 37c33.333 0 62.5 -12.333 87.5 -37s37.5 -53 37.5 -85c0 -33.333 -12.333 -61.666 -37 -84.999s-54 -35 -88 -35zM716.999 -28.999c-86 0 -136 39.332 -150 117.999
c-111.333 -78.667 -210.666 -118 -297.999 -118c-72 0 -130.5 22 -175.5 66s-67.5 101 -67.5 171c0 86 38.333 161.667 115 227c70.667 60 211.334 130.667 422.001 212v125c0 102 -34 153 -102 153c-30 0 -53.333 -6.66699 -70 -20c-14 -11.333 -29.333 -41.333 -46 -90
s-36.667 -82.667 -60 -102c-26 -22 -54.667 -33 -86 -33c-33.333 0 -61.166 11.333 -83.499 34s-33.5 50.334 -33.5 83.001c0 63.333 38 117.333 114 162c72 42.667 161 64 267 64c109.333 0 189.666 -21.667 240.999 -65c55.333 -46 83 -121 83 -225v-567
c0 -24 2.33301 -42.667 7 -56c3.33301 -4.66699 7.66602 -7 12.999 -7c10.667 0 26 16.667 46 50l70 -54c-35.333 -46.667 -69.333 -79.667 -102 -99s-67.334 -29 -104.001 -29zM562.999 541c-94 -40 -159.667 -73.333 -197 -100c-72.667 -52 -109 -111.333 -109 -178
c0 -40.667 9.66699 -74.667 29 -102c22 -30.667 53 -46 93 -46c58.667 0 120 37 184 111v315z" />
    <glyph glyph-name="aring" unicode="&#xe5;" horiz-adv-x="905" 
d="M461 1041c-74 0 -137.001 25.333 -189.001 76s-78 111.667 -78 183c0 72.667 25.833 133.667 77.5 183s114.834 74 189.501 74s137.5 -24.667 188.5 -74s76.5 -110.333 76.5 -183c0 -73.333 -25.833 -134.833 -77.5 -184.5s-114.167 -74.5 -187.5 -74.5zM716.999 -29
c-86 0 -136 39.332 -150 117.999c-111.333 -78.667 -210.666 -118 -297.999 -118c-72 0 -130.5 22.167 -175.5 66.5s-67.5 101.5 -67.5 171.5c0 86 38.333 162 115 228c70.667 60 211.334 131 422.001 213v126c0 102 -34 153 -102 153c-30.667 0 -53.667 -6.66699 -69 -20
c-17.333 -14.667 -37 -53.334 -59 -116.001c-18 -73.333 -62.667 -110 -134 -110c-33.333 0 -61.166 11.333 -83.499 34s-33.5 50.334 -33.5 83.001c0 64 38 118.333 114 163c72 42.667 161 64 267 64c109.333 0 189.666 -21.667 240.999 -65
c55.333 -46.667 83 -122 83 -226v-569c0 -24.667 2.33301 -43.667 7 -57c3.33301 -4 7.66602 -6 12.999 -6c10.667 0 26 16.667 46 50l70 -54c-35.333 -47.333 -69.333 -80.666 -102 -99.999s-67.334 -29 -104.001 -29zM550.999 1386
c-25.333 23.333 -55.333 34.999 -90 34.999c-34 0 -63.333 -11.833 -88 -35.5s-37 -52.167 -37 -85.5c0 -34 12.167 -62.5 36.5 -85.5s53.833 -34.5 88.5 -34.5c36 0 65.833 11.333 89.5 34s35.5 51.334 35.5 86.001c0 36 -11.667 64.667 -35 86zM562.999 542.998
c-94 -40 -159.667 -73.333 -197 -100c-72.667 -52 -109 -111.667 -109 -179c0 -40.667 9.66699 -74.667 29 -102c22 -31.333 53 -47 93 -47c58.667 0 120 37.333 184 112v316z" />
    <glyph glyph-name="ae" unicode="&#xe6;" horiz-adv-x="1422" 
d="M1220 30c-68 -39.333 -140.666 -58.999 -217.999 -58.999c-152.667 0 -271.667 64.667 -357 194c-126.667 -129.333 -252 -194 -376 -194c-72 0 -130.5 21.833 -175.5 65.5s-67.5 99.834 -67.5 168.501c0 85.333 38.333 160.333 115 225
c70.667 58.667 211.334 128.334 422.001 209.001v124c0 100.667 -34 151 -102 151c-30.667 0 -54 -6.66699 -70 -20c-14 -10.667 -29.333 -40.334 -46 -89.001s-36.667 -82.334 -60 -101.001c-26 -22 -54.667 -33 -86 -33c-33.333 0 -61.166 11.167 -83.499 33.5
s-33.5 49.833 -33.5 82.5c0 62.667 38 116 114 160c72 42 161 63 267 63c123.333 0 212 -29 266 -87c73.333 58 157.333 87 252 87c175.333 0 294.666 -91.333 357.999 -274c18.667 -54.667 28 -127 28 -217h-580c3.33301 -102.667 26.666 -189.334 69.999 -260.001
c53.333 -88 129.666 -132 228.999 -132c86.667 0 165.667 44 237 132l80 -47c-56 -84 -117 -144.667 -183 -182zM787.001 627.001h274.001c45.333 0 70.333 1.66699 75 5c1.33301 0.666992 3 6.66699 5 18c0 176 -57.333 264 -172 264
c-118.667 0 -179.334 -95.667 -182.001 -287zM571.002 351.001l-8.00098 152v31c-94 -39.333 -159.667 -72 -197 -98c-72.667 -51.333 -109 -110.333 -109 -177c0 -39.333 9.33301 -72.333 28 -99c22 -31.333 52.667 -47 92 -47c68 0 141 46.333 219 139
c-15.333 36 -23.666 69 -24.999 99z" />
    <glyph glyph-name="ccedilla" unicode="&#xe7;" horiz-adv-x="854" 
d="M757 88c-92 -87.333 -191.334 -131 -298.001 -131c-96.667 0 -180.334 28 -251.001 84c-66.667 52.667 -114.334 124.334 -143.001 215.001c-18.667 57.333 -28 125.666 -28 204.999c0 152 39.333 279 118 381c86.667 112 203.667 168 351 168
c83.333 0 157.333 -23 222 -69c66.667 -48 100 -103 100 -165c0 -32.667 -10.5 -60 -31.5 -82s-48.167 -33 -81.5 -33c-69.333 0 -115.666 49 -138.999 147c-8 32 -22 57.667 -42 77c-8.66699 6.66699 -15.667 11.667 -21 15c-13.333 5.33301 -30.666 8 -51.999 8
c-76 0 -130.667 -45.333 -164 -136c-22.667 -61.333 -34 -136 -34 -224c0 -134 26.667 -239.667 80 -317c50.667 -74.667 116.667 -112 198 -112c90.667 0 171.667 43 243 129l70 -49c-33.333 -44.667 -65.666 -81.667 -96.999 -111zM423.999 -447
c-79.333 0 -187.666 28.332 -324.999 84.999l55 122c44 -24 95 -45.333 153 -64c31.333 -10 58.666 -15 81.999 -15c64 0 96 21.333 96 64c0 42 -29.667 63 -89 63h-25l-60 -10v235h113v-106l6 1l29 2c60 4 109.833 -11.167 149.5 -45.5s59.5 -80.166 59.5 -137.499
c0 -60.667 -21.833 -108.167 -65.5 -142.5s-103.167 -51.5 -178.5 -51.5z" />
    <glyph glyph-name="egrave" unicode="&#xe8;" horiz-adv-x="901" 
d="M489 1084l-336 200.999c-49.333 29.333 -74 63.333 -74 102c0 26.667 9.66699 48.334 29 65.001c17.333 18 40 27 68 27c35.333 0 74.333 -21.667 117 -65l329 -330h-133zM482 -29.001c-129.333 0 -235.997 48.332 -319.997 144.999s-126 218.334 -126 365.001
c0 165.333 38 297.333 114 396s179 148 309 148c86 0 161.667 -27 227 -81c60 -49.333 103.667 -115 131 -197c18 -54 27 -127.333 27 -220h-580c3.33301 -116.667 32.666 -213 87.999 -289c53.333 -72.667 123.666 -109 210.999 -109s166.666 44.667 237.999 134l80 -47
c-59.333 -87.333 -121.5 -150 -186.5 -188s-135.833 -57 -212.5 -57zM264.003 636.998l275 0.000976562c44.667 0 70 1.33301 76 4c2 1.33301 3.66699 7.66602 5 18.999c0 178 -57 267 -171 267c-120 0 -181.667 -96.667 -185 -290z" />
    <glyph glyph-name="eacute" unicode="&#xe9;" horiz-adv-x="901" 
d="M675 1330c-12.667 -13.333 -30.001 -28 -52.001 -44l-337 -202h-134l330 331c42.667 42.667 81.334 64 116.001 64c28 0 51.167 -8.66699 69.5 -26s27.5 -39.333 27.5 -66c0 -20.667 -6.66699 -39.667 -20 -57zM481.999 -29c-129.333 0 -235.997 48.332 -319.997 144.999
s-126 218.334 -126 365.001c0 165.333 38 297.333 114 396s179 148 309 148c86 0 161.667 -27 227 -81c60 -49.333 103.667 -115 131 -197c18 -54 27 -127.333 27 -220h-580c3.33301 -116.667 32.666 -213 87.999 -289c53.333 -72.667 123.666 -109 210.999 -109
s166.666 44.667 237.999 134l80 -47c-59.333 -87.333 -121.5 -150 -186.5 -188s-135.833 -57 -212.5 -57zM264.002 636.999l275 0.000976562c44.667 0 70 1.33301 76 4c2 1.33301 3.66699 7.66602 5 18.999c0 178 -57 267 -171 267c-120 0 -181.667 -96.667 -185 -290z" />
    <glyph glyph-name="ecircumflex" unicode="&#xea;" horiz-adv-x="901" 
d="M611 1084l-224 195l-223 -195h-115l266 387h145l264 -387h-113zM482 -29c-129.333 0 -235.997 48.333 -319.997 145s-126 218.334 -126 365.001c0 165.333 38 297.333 114 396s179 148 309 148c86 0 161.667 -27 227 -81c60 -49.333 103.667 -115 131 -197
c18 -54.667 27 -128.334 27 -221.001h-580c3.33301 -116 32.666 -212 87.999 -288c53.333 -72.667 123.666 -109 210.999 -109s166.666 44.667 237.999 134l80 -47c-59.333 -87.333 -121.5 -150 -186.5 -188s-135.833 -57 -212.5 -57zM264.003 637l275 0.000976562
c44.667 0 70 1.33301 76 4c2 1.33301 3.66699 7.66602 5 18.999c0 178 -57 267 -171 267c-120 0 -181.667 -96.667 -185 -290z" />
    <glyph glyph-name="edieresis" unicode="&#xeb;" horiz-adv-x="901" 
d="M563 1135c-34.667 0 -64.167 11.6689 -88.5 35.002s-36.5 51.666 -36.5 84.999c0 32 12.667 60.333 38 85s54.333 37 87 37c34 0 63.167 -12.167 87.5 -36.5s36.5 -52.833 36.5 -85.5s-12.333 -60.834 -37 -84.501s-53.667 -35.5 -87 -35.5zM211 1135
c-32 0 -61.667 11.332 -89 33.999c-23.333 25.333 -35 54 -35 86c0 31.333 12.667 59.5 38 84.5s54 37.5 86 37.5c33.333 0 62.5 -12.333 87.5 -37s37.5 -53 37.5 -85c0 -33.333 -12.333 -61.666 -37 -84.999s-54 -35 -88 -35zM482 -28.999
c-129.333 0 -236.33 48.668 -320.997 146.001c-83.333 95.333 -125 216.333 -125 363c0 165.333 38 297.166 114 395.499s179 147.5 309 147.5c86 0 161.667 -27 227 -81c60 -49.333 103.667 -115 131 -197c18 -54 27 -127.333 27 -220h-580
c3.33301 -116 32.666 -212 87.999 -288c53.333 -72.667 123.666 -109 210.999 -109s166.666 45 237.999 135l80 -48c-59.333 -87.333 -121.5 -149.833 -186.5 -187.5s-135.833 -56.5 -212.5 -56.5zM264.003 635.002h275c44.667 0 70 1.66699 76 5
c2 1.33301 3.66699 7.33301 5 18c0 178 -57 267 -171 267c-120 0 -181.667 -96.667 -185 -290z" />
    <glyph glyph-name="igrave" unicode="&#xec;" horiz-adv-x="473" 
d="M397 1197l-335.999 203c-48.667 29.333 -73 63.333 -73 102c0 26.667 9 48 27 64c16.667 18.667 39.667 28 69 28c19.333 0 42 -8 68 -24c13.333 -8.66699 29.666 -22.667 48.999 -42l329 -331h-133zM51.001 0l0.00195312 85.999c33.333 0 53.333 6 60 18
c10 16.667 15 45 15 85v570c0 38.667 -4.33301 65 -13 79c-6 10.667 -28 18.334 -66 23.001v71c85.333 18 164.666 62.667 237.999 134h72v-877c0 -38 5 -65.667 15 -83c7.33301 -13.333 27.666 -20 60.999 -20v-86h-382z" />
    <glyph glyph-name="iacute" unicode="&#xed;" horiz-adv-x="473" 
d="M511 1416c-12.667 -13.333 -30.001 -28 -52.001 -44l-337 -202h-134l330 330c42.667 43.333 81.334 65 116.001 65c28 0 51.167 -8.66699 69.5 -26s27.5 -39.333 27.5 -66c0 -20.667 -6.66699 -39.667 -20 -57zM50.999 0l0.00195312 85.998c33.333 0 53.333 6 60 18
c10 16.667 15 45 15 85v570c0 38 -4.33301 64 -13 78c-6 10.667 -28 18.334 -66 23.001v71c85.333 18.667 164.666 63.334 237.999 134.001h72v-876c0 -38 5 -65.667 15 -83c7.33301 -13.333 27.666 -20 60.999 -20v-86h-382z" />
    <glyph glyph-name="icircumflex" unicode="&#xee;" horiz-adv-x="473" 
d="M418 1169l-223 196l-224 -196h-115l266 388h145l266 -388h-115zM51 0l0.00195312 85.998c33.333 0 53.333 6 60 18c10 16.667 15 45 15 85v570c0 38 -4.33301 64 -13 78c-6 10.667 -28 18.334 -66 23.001v71c85.333 18.667 164.666 63.334 237.999 134.001h72v-876
c0 -38 5 -65.667 15 -83c7.33301 -13.333 27.666 -20 60.999 -20v-86h-382z" />
    <glyph glyph-name="idieresis" unicode="&#xef;" horiz-adv-x="473" 
d="M385 1205c-34.667 0 -64.167 12 -88.5 36s-36.5 52.667 -36.5 86c0 31.333 12.667 59.333 38 84s54.333 37 87 37c33.333 0 62.333 -12 87 -36s37 -52.333 37 -85c0 -33.333 -12.333 -62 -37 -86s-53.667 -36 -87 -36zM33 1205c-32 0 -62 12 -90 36
c-22.667 25.333 -34 54 -34 86c0 31.333 12.667 59.333 38 84s54 37 86 37c33.333 0 62.5 -12.167 87.5 -36.5s37.5 -52.5 37.5 -84.5c0 -34 -12.333 -62.833 -37 -86.5s-54 -35.5 -88 -35.5zM51 0l0.00195312 85.999c33.333 0 53.333 6 60 18c10 16 15 44 15 84v569
c0 38 -4.33301 64 -13 78c-6 10.667 -28 18.334 -66 23.001v71c85.333 18.667 164.666 63 237.999 133h72v-874c0 -37.333 5 -65 15 -83c7.33301 -12.667 27.666 -19 60.999 -19v-86h-382z" />
    <glyph glyph-name="eth" unicode="&#xf0;" horiz-adv-x="991" 
d="M630 1004c-35.333 74 -69 132.335 -101 175.002l-268 -168l-53 85l260 163c-44.667 54 -110.667 114.333 -198 181l47 77c64 -36.667 116 -71 156 -103l105 -83l254 156l54 -84l-228 -143c198 -204 297 -440.333 297 -709c0 -176.667 -41 -317.334 -123 -422.001
s-194 -157 -336 -157c-141.333 0 -255 53.667 -341 161c-79.333 99.333 -119 221.666 -119 366.999s39.667 267.333 119 366c85.333 106.667 199 160 341 160c32 0 76.667 -7.33301 134 -22zM496 928.002c-146 0 -219 -141.333 -219 -424c0 -288 73 -432 219 -432
c145.333 0 218 140.667 218 422c0 289.333 -72.667 434 -218 434z" />
    <glyph glyph-name="ntilde" unicode="&#xf1;" horiz-adv-x="973" 
d="M660 1183c-25.333 -9.33301 -62.666 -12.334 -111.999 -9.00098l-44 8l-107 28l-25 3c-26.667 4 -47.667 0.333008 -63 -11c-10.667 -13.333 -22.334 -38 -35.001 -74h-97c15.333 92 41 156.667 77 194c41.333 42 103.333 60.667 186 56l31 -7l137 -33l24 -2
c33.333 0.666992 58 27.667 74 81h103c-8 -44 -18.333 -80.667 -31 -110c-26.667 -63.333 -66 -104.666 -118 -123.999zM343 865.999c168 105.333 284.332 157.999 348.999 157.999c58.667 0 103 -21.667 133 -65c26.667 -37.333 40 -85.333 40 -144v-627
c0 -38 4.33301 -66 13 -84c8.66699 -12 29.667 -18 63 -18v-86h-378v86c34 0 54.667 6 62 18c9.33301 16 14 44 14 84v542c0 46.667 -5 77.334 -15 92.001c-8 11.333 -25.333 17 -52 17c-46.667 0 -123 -29 -229 -87v-564c0 -30 1.33301 -49 4 -57
c0.666992 -8.66699 3.33398 -17.667 8.00098 -27c9.33301 -12 30.333 -18 63 -18v-86h-377v86c32.667 0 53 6 61 18c10 16.667 15 44.667 15 84v533c0 36.667 -5 61.667 -15 75c-6 11.333 -27.667 19.333 -65 24v71c71.333 15.333 131.666 42 180.999 80
c12.667 10 31.334 27.667 56.001 53h69v-158z" />
    <glyph glyph-name="ograve" unicode="&#xf2;" horiz-adv-x="991" 
d="M610 1084l-336 201c-48.667 29.333 -73 63.333 -73 102c0 26.667 9 48 27 64c16.667 18.667 39.667 28 69 28c35.333 0 74.333 -21.667 117 -65l329 -330h-133zM496 -28c-141.333 0 -254.999 53.667 -340.999 161c-79.333 99.333 -119 221.333 -119 366
c0 146 39.667 268.333 119 367c85.333 106 199 159 341 159c135.333 0 245.666 -49.167 330.999 -147.5s128 -224.5 128 -378.5c0 -144 -39.667 -265.667 -119 -365c-86 -108 -199.333 -162 -340 -162zM647.001 830c-32 64.667 -82.333 97 -151 97
c-136.667 0 -205 -141.333 -205 -424c0 -287.333 68.333 -431 205 -431c136 0 204 140.667 204 422c0 153.333 -17.667 265.333 -53 336z" />
    <glyph glyph-name="oacute" unicode="&#xf3;" horiz-adv-x="991" 
d="M742 1285l-335.001 -201h-134l330 331c42.667 42.667 81.334 64 116.001 64c28 0 51.167 -8.66699 69.5 -26s27.5 -39.333 27.5 -66c0 -38.667 -24.667 -72.667 -74 -102zM495.999 -28c-141.333 0 -254.999 53.667 -340.999 161c-79.333 99.333 -119 221.333 -119 366
c0 146 39.667 268.333 119 367c85.333 106 199 159 341 159c135.333 0 245.666 -49.167 330.999 -147.5s128 -224.5 128 -378.5c0 -144 -39.667 -265.667 -119 -365c-86 -108 -199.333 -162 -340 -162zM647 830c-32 64.667 -82.333 97 -151 97
c-136.667 0 -205 -141.333 -205 -424c0 -287.333 68.333 -431 205 -431c136 0 204 140.667 204 422c0 153.333 -17.667 265.333 -53 336z" />
    <glyph glyph-name="ocircumflex" unicode="&#xf4;" horiz-adv-x="991" 
d="M732 1084l-224 195l-223 -195h-115l266 387h145l264 -387h-113zM496 -28c-141.333 0 -254.999 53.667 -340.999 161c-79.333 99.333 -119 221.333 -119 366c0 146 39.667 268.333 119 367c85.333 106 199 159 341 159c135.333 0 245.666 -49.167 330.999 -147.5
s128 -224.5 128 -378.5c0 -144 -39.667 -265.667 -119 -365c-86 -108 -199.333 -162 -340 -162zM647.001 830c-32 64.667 -82.333 97 -151 97c-136.667 0 -205 -141.333 -205 -424c0 -287.333 68.333 -431 205 -431c136 0 204 140.667 204 422
c0 153.333 -17.667 265.333 -53 336z" />
    <glyph glyph-name="otilde" unicode="&#xf5;" horiz-adv-x="991" 
d="M743 1228c-40 -41.333 -99.333 -59.333 -178 -54l-44 8l-108 28l-25 3c-26.667 4 -47.667 0.333008 -63 -11c-10.667 -13.333 -22 -38 -34 -74h-100c32.667 174.667 108.667 258.667 228 252l38 -2l31 -7l110 -27l27 -6l23 -2c32.667 0 58 27 76 81h101
c-16.667 -86.667 -44 -149.667 -82 -189zM496 -28c-141.333 0 -254.999 53.666 -340.999 160.999c-79.333 98.667 -119 220.667 -119 366s39.667 267.333 119 366c85.333 106 199 159 341 159c135.333 0 245.666 -49.167 330.999 -147.5s128 -224.166 128 -377.499
c0 -144 -39.667 -266 -119 -366c-86 -107.333 -199.333 -161 -340 -161zM647.001 827.999c-32 65.333 -82.333 98 -151 98c-136.667 0 -205 -141 -205 -423c0 -287.333 68.333 -431 205 -431c136 0 204 140.333 204 421c0 153.333 -17.667 265 -53 335z" />
    <glyph glyph-name="odieresis" unicode="&#xf6;" horiz-adv-x="991" 
d="M684 1135c-34.667 0 -64.167 11.6689 -88.5 35.002s-36.5 51.666 -36.5 84.999c0 32 12.5 60.333 37.5 85s54.167 37 87.5 37c34 0 63.167 -12.167 87.5 -36.5s36.5 -52.833 36.5 -85.5s-12.333 -60.834 -37 -84.501s-53.667 -35.5 -87 -35.5zM332 1135
c-32 0 -62.001 11.332 -90.001 33.999c-22 25.333 -33 54 -33 86s12.333 60.333 37 85s53.334 37 86.001 37c33.333 0 62.5 -12.333 87.5 -37s37.5 -53 37.5 -85c0 -33.333 -12.333 -61.666 -37 -84.999s-54 -35 -88 -35zM495.999 -27.999
c-141.333 0 -254.999 53.332 -340.999 159.999c-79.333 99.333 -119 221.333 -119 366c0 146 39.667 268 119 366c85.333 106 199 159 341 159c135.333 0 245.666 -49.167 330.999 -147.5s128 -224.166 128 -377.499c0 -144 -39.667 -265.667 -119 -365
c-86 -107.333 -199.333 -161 -340 -161zM647 828c-32 64.667 -82.333 97 -151 97c-136.667 0 -205 -141 -205 -423c0 -287.333 68.333 -431 205 -431c136 0 204 140.333 204 421c0 154 -17.667 266 -53 336z" />
    <glyph glyph-name="divide" unicode="&#xf7;" horiz-adv-x="1706" 
d="M854 819c-41.333 0 -76.668 14 -106.001 42s-44 61.333 -44 100c0 40 14.5 74.167 43.5 102.5s64.5 42.5 106.5 42.5c40.667 0 75.834 -14.5 105.501 -43.5s44.5 -62.833 44.5 -101.5c0 -40 -15 -73.667 -45 -101s-65 -41 -105 -41zM228.998 520v180h1248v-180h-1248z
M853.998 117c-41.333 0 -76.665 14 -105.998 42s-44 61.667 -44 101s14.667 73 44 101s64.666 42 105.999 42s76.666 -14 105.999 -42s44 -61.667 44 -101c0 -40 -15 -73.833 -45 -101.5s-65 -41.5 -105 -41.5z" />
    <glyph glyph-name="oslash" unicode="&#xf8;" horiz-adv-x="991" 
d="M496 -32c-72.667 0 -143.333 19 -212 57l-90 -156l-100 62l94 161c-101.333 98 -152 231.333 -152 400c0 145.333 39.667 266.666 119 363.999c85.333 105.333 199 158 341 158c68 0 134.333 -15.667 199 -47l89 155l97 -60l-92 -159
c110.667 -101.333 166 -238.333 166 -411c0 -143.333 -40 -264.666 -120 -363.999c-85.333 -106.667 -198.333 -160 -339 -160zM496.001 917c-146 0 -219 -144.333 -219 -433v-67c0 -36.667 5.66699 -85 17 -145l336 584c-37.333 40.667 -82 61 -134 61zM693.001 731
l-340.999 -593c21.333 -22.667 41.666 -40.334 60.999 -53.001c23.333 -12 51 -18 83 -18c145.333 0 218 139.667 218 419c0 108.667 -7 190.334 -21 245.001z" />
    <glyph glyph-name="ugrave" unicode="&#xf9;" horiz-adv-x="963" 
d="M550 1084l-335.001 201c-49.333 29.333 -74 63.333 -74 102c0 26.667 9 48.667 27 66s41.333 26 70 26c34.667 0 73.334 -21.333 116.001 -64l330 -331h-134zM628.999 -1l-0.000976562 132.001c-87.333 -56 -142 -89.667 -164 -101
c-73.333 -39.333 -134.666 -59 -183.999 -59c-115.333 0 -173 70.333 -173 211v575c0 38 -4 62.667 -12 74c-10 14 -33.333 23.333 -70 28v70c87.333 20 167 64.667 239 134h67v-794c0 -42 6 -70 18 -84c8 -12 26 -18 54 -18c52 0 127 26.667 225 80v476
c0 46 -4.66699 80 -14 102c-8.66699 14 -30 25.667 -64 35v69c44 15.333 70.333 25 79 29c18 5.33301 49.667 23.666 95 54.999c9.33301 6 27 20 53 42l10 8h67v-834c0 -56.667 5.66699 -94 17 -112c9.33301 -16 35 -28 77 -36v-82h-320z" />
    <glyph glyph-name="uacute" unicode="&#xfa;" horiz-adv-x="963" 
d="M737 1330c-9.33301 -10 -27.333 -25.001 -54 -45.001l-336 -201h-133l329 330c24 24.667 45.333 41.334 64 50.001c15.333 10 33 15 53 15c27.333 0 50.333 -8.66699 69 -26s28 -39.333 28 -66c0 -20.667 -6.66699 -39.667 -20 -57zM629 -1.00098l-0.000976562 132.001
c-87.333 -56 -142 -89.667 -164 -101c-73.333 -39.333 -134.666 -59 -183.999 -59c-115.333 0 -173 70.333 -173 211v575c0 38 -4 62.667 -12 74c-10 14 -33.333 23.333 -70 28v70c87.333 20 167 64.667 239 134h67v-794c0 -42 6 -70 18 -84c8 -12 26 -18 54 -18
c52 0 127 26.667 225 80v476c0 46 -4.66699 80 -14 102c-8.66699 14 -30 25.667 -64 35v69c44 15.333 70.333 25 79 29c18 5.33301 49.667 23.666 95 54.999c9.33301 6 27 20 53 42l10 8h67v-834c0 -56.667 5.66699 -94 17 -112c9.33301 -16 35 -28 77 -36v-82h-320z" />
    <glyph glyph-name="ucircumflex" unicode="&#xfb;" horiz-adv-x="963" 
d="M673 1084l-224 195l-224 -195h-113l264 387h145l266 -387h-114zM629 -1l-0.000976562 132.001c-87.333 -56 -142 -90 -164 -102c-73.333 -38.667 -134.666 -58 -183.999 -58c-115.333 0 -173 70.333 -173 211v575c0 38 -4 62.667 -12 74c-10 14 -33.333 23 -70 27v71
c87.333 20 167 64.667 239 134h67v-794c0 -42 6 -70.333 18 -85c8 -12 26 -18 54 -18c52 0 127 27 225 81v476c0 46 -4.66699 80 -14 102c-8.66699 14 -30 25.333 -64 34v70c44 15.333 70.333 25 79 29c18 5.33301 49.667 23.666 95 54.999c9.33301 6 27 20 53 42l10 8h67
v-834c0 -56.667 5.66699 -94 17 -112c9.33301 -16 35 -28 77 -36v-82h-320z" />
    <glyph glyph-name="udieresis" unicode="&#xfc;" horiz-adv-x="963" 
d="M625 1135c-35.333 0 -65 11.6689 -89 35.002s-36 51.666 -36 84.999c0 32.667 12.5 61.167 37.5 85.5s54.167 36.5 87.5 36.5c34 0 63.167 -12.167 87.5 -36.5s36.5 -52.833 36.5 -85.5s-12.333 -60.834 -37 -84.501s-53.667 -35.5 -87 -35.5zM273 1135
c-32 0 -62 11.334 -90 34.001c-22.667 25.333 -34 54 -34 86c0 31.333 12.5 59.5 37.5 84.5s53.833 37.5 86.5 37.5s61.667 -12.333 87 -37s38 -53 38 -85c0 -30.667 -12 -58.334 -36 -83.001s-53.667 -37 -89 -37zM629 -0.99707l-0.000976562 132.003
c-87.333 -56 -142 -90 -164 -102c-73.333 -38.667 -134.666 -58 -183.999 -58c-115.333 0 -173 70.333 -173 211v573c0 38 -4 62.667 -12 74c-10 14 -33.333 23.333 -70 28v70c87.333 19.333 167 63.666 239 132.999h67v-792c0 -41.333 6 -69.333 18 -84
c8 -12 26 -18 54 -18c52 0 127 27 225 81v474c0 46 -4.66699 80 -14 102c-8.66699 14 -30 25.333 -64 34v69c44 16 70.333 25.667 79 29c18 5.33301 49.667 23.666 95 54.999c9.33301 6 27 20 53 42l10 8h67v-831c0 -56.667 5.66699 -94.334 17 -113.001
c9.33301 -16 35 -27.667 77 -35v-82h-320z" />
    <glyph glyph-name="yacute" unicode="&#xfd;" horiz-adv-x="844" 
d="M615 1329c-15.333 -18 -33 -33.001 -53 -45.001l-336 -203h-133l330 333c25.333 25.333 46 42.5 62 51.5s34 13.5 54 13.5c28 0 51.167 -8.66699 69.5 -26s27.5 -39.666 27.5 -66.999c0 -22 -7 -41 -21 -57zM797 842.999c-24.667 -36 -52.334 -96.998 -83.001 -182.998
l-274 -756c-39.333 -106.667 -72.333 -181.667 -99 -225c-54 -86.667 -117.667 -130 -191 -130c-40 0 -74.333 10.333 -103 31c-31.333 22.667 -47 53.334 -47 92.001c0 32 10.667 60.333 32 85s48.333 37 81 37c20 0 42.333 -5.66699 67 -17c20.667 -9.33301 36 -14 46 -14
c40.667 0 79 72 115 216l8 33l-270 776c-14.667 43.333 -29 72.666 -43 87.999c-13.333 19.333 -33.666 31.666 -60.999 36.999v81h378v-81c-24 -4.66699 -37.667 -7.66699 -41 -9c-11.333 -5.33301 -17.333 -16 -18 -32l3 -15l176 -538l138 413l11 50l7 53
c-0.666992 44 -24.667 70 -72 78v81h330v-80c-33.333 -8.66699 -63.333 -32.334 -90 -71.001z" />
    <glyph glyph-name="thorn" unicode="&#xfe;" 
d="M860 121c-80 -106.667 -180.333 -159.999 -301 -159.999c-84 0 -159.667 28 -227 84v-306c0 -43.333 4.66699 -72.333 14 -87c8 -10.667 28.667 -16 62 -16v-87h-375v87c32 0 52.5 7.16699 61.5 21.5s13.5 41.5 13.5 81.5v1463c0 38 -4.5 63 -13.5 75
s-31.833 20.333 -68.5 25v70c99.333 23.333 178.333 68.666 237 135.999h76l-6 -618c80.667 88 176.667 132 288 132c122.667 0 215.667 -56 279 -168c52 -91.333 78 -203.333 78 -336c0 -160.667 -39.333 -293 -118 -397zM683 764.001c-37.333 62.667 -90 94 -158 94
s-132.333 -39.333 -193 -118v-317c0 -239.333 67 -359 201 -359c140 0 210 136.667 210 410c0 128 -20 224.667 -60 290z" />
    <glyph glyph-name="ydieresis" unicode="&#xff;" horiz-adv-x="844" 
d="M504 1133c-35.333 0 -65.001 11.665 -89.001 34.998s-36 52 -36 86c0 32.667 12.5 61.334 37.5 86.001s54.167 37 87.5 37c34 0 63 -12.167 87 -36.5s36 -53.166 36 -86.499s-12.167 -61.833 -36.5 -85.5s-53.166 -35.5 -86.499 -35.5zM151.999 1133
c-32 0 -62 11.333 -90 34c-22.667 25.333 -34 54.333 -34 87c0 32 12.5 60.5 37.5 85.5s53.833 37.5 86.5 37.5s61.667 -12.5 87 -37.5s38 -53.5 38 -85.5c0 -30.667 -12 -58.5 -36 -83.5s-53.667 -37.5 -89 -37.5zM796.999 840.998
c-24.667 -36 -52.334 -97.001 -83.001 -183.001l-274 -754c-39.333 -106.667 -72.333 -181.667 -99 -225c-54 -86.667 -117.667 -130 -191 -130c-40 0 -74.333 10.333 -103 31c-31.333 22.667 -47 53.334 -47 92.001c0 32 10.667 60.167 32 84.5s48.333 36.5 81 36.5
c20 0 42.333 -5.33301 67 -16c20.667 -9.33301 36 -14 46 -14c40.667 0 79 71.667 115 215l8 33l-270 775c-14.667 43.333 -29 73 -43 89c-13.333 18.667 -33.666 30.667 -60.999 36v81h378v-81c-24 -4.66699 -37.667 -7.66699 -41 -9c-11.333 -5.33301 -17.333 -16 -18 -32
l3 -14l176 -538l138 412l11 51l7 52c-0.666992 44 -24.667 70 -72 78v81h330v-80c-33.333 -8 -63.333 -31.667 -90 -71z" />
    <glyph glyph-name="OE" unicode="&#x152;" horiz-adv-x="2163" 
d="M2067 -1l-927.998 -0.000976562c-45.333 0 -100.666 -4.66699 -165.999 -14c-81.333 -12 -148.333 -18 -201 -18c-213.333 0 -389.333 77 -528 231c-132 147.333 -198 326.333 -198 537c0 238.667 94.333 440 283 604c130 112.667 284.667 169 464 169
c40 0 101.5 -5.33301 184.5 -16s145.167 -16 186.5 -16h870l29 -323l-87 -12c-32.667 88.667 -76.334 147 -131.001 175s-168.667 42 -342 42h-63c-66 0 -104.333 -4 -115 -12s-16 -33 -16 -75v-382h188c108.667 0 184 9 226 27c38 16.667 67.333 53.334 88 110.001h76v-388
h-78c-18.667 56 -43.334 92 -74.001 108c-32.667 16.667 -102.334 25 -209.001 25h-217v-541c0 -53.333 7.66699 -85 23 -95c18.667 -13.333 69 -20 151 -20h98c38 0 81.333 3 130 9c58.667 6.66699 100.667 14.334 126 23.001c36 11.333 72.333 32.333 109 63
c39.333 33.333 85.333 85.666 138 156.999l77 -42zM1050 1198c0 82.667 -21.333 139.333 -64 170c-36 25.333 -99 38 -189 38c-310 0 -465 -228 -465 -684c0 -433.333 156.333 -650 469 -650c94 0 159 16.333 195 49s54 94 54 184v893z" />
    <glyph glyph-name="oe" unicode="&#x153;" horiz-adv-x="1569" 
d="M1151 -28c-128.667 0 -235.999 49.666 -321.999 148.999c-98.667 -99.333 -209.667 -149 -333 -149c-140.667 0 -254 52.333 -340 157c-80 98 -120 219 -120 363c0 144.667 40 265.334 120 362.001c85.333 104 198.666 156 339.999 156c127.333 0 236.333 -48 327 -144
c80 96 182 144 306 144c86 0 161.667 -26.667 227 -80c60 -48.667 103.667 -113.334 131 -194.001c18 -53.333 27 -125.666 27 -216.999h-579c2.66699 -103.333 25.334 -190 68.001 -260c53.333 -88 130 -132 230 -132c87.333 0 166.666 44 237.999 132l80 -47
c-59.333 -86 -121.5 -147.5 -186.5 -184.5s-136.167 -55.5 -213.5 -55.5zM935.001 626.999h274c43.333 0 69.333 2.33301 78 7c2 1.33301 3 6 3 14c0 177.333 -57.333 266 -172 266c-119.333 0 -180.333 -95.667 -183 -287zM656.001 823.999
c-33.333 60 -86.666 90 -159.999 90c-136.667 0 -205 -139.333 -205 -418c0 -285.333 69 -428 207 -428c73.333 0 126.666 33 159.999 99c34.667 68.667 52 184 52 346c0 142 -18 245.667 -54 311z" />
    <glyph glyph-name="Scaron" unicode="&#x160;" horiz-adv-x="1161" 
d="M626 1582h-145l-266 390h115l223 -196l224 196h113zM596 -33c-205.333 0 -389.334 67.3311 -552.001 201.998l90 315l84 -16c26 -113.333 69 -204 129 -272c72.667 -81.333 163.334 -122 272.001 -122c83.333 0 152.5 23.167 207.5 69.5s82.5 108.5 82.5 186.5
c0 71.333 -20.667 129 -62 173c-46.667 48.667 -160 106.334 -340 173.001c-98 36 -171 70.667 -219 104c-68.667 46.667 -119 106.334 -151 179.001c-20.667 47.333 -31 96 -31 146c0 123.333 47.333 224.333 142 303c90 74 199.333 111 328 111
c140 0 297 -51.667 471 -155l-76 -288l-79 15c-56 211.333 -168.333 317 -337 317c-72 0 -131 -17.333 -177 -52c-51.333 -38 -77 -91.333 -77 -160c0 -56.667 19 -104.167 57 -142.5s138.333 -90.833 301 -157.5c184.667 -76 298.667 -135 342 -177
c78 -76.667 117 -174.334 117 -293.001c0 -141.333 -52.667 -254.666 -158 -339.999c-98.667 -79.333 -220 -119 -364 -119z" />
    <glyph glyph-name="scaron" unicode="&#x161;" horiz-adv-x="819" 
d="M513 1114h-145l-264 387h113l224 -196l223 196h113zM410 -28c-120.667 0 -246.334 48.668 -377.001 146.001l79 231l73 -16c16.667 -71.333 44.667 -130 84 -176c48 -56.667 106 -85 174 -85c41.333 0 76.833 13 106.5 39s44.5 59 44.5 99
c0 29.333 -11 57.666 -33 84.999c-26 24 -86.333 58 -181 102l-6 4c-201.333 91.333 -302 197 -302 317c0 96 32.667 171.667 98 227c62.667 54 144 81 244 81c102.667 0 208.334 -41.333 317.001 -124l-78 -211l-70 16c-34 146 -100 219 -198 219
c-40 0 -73.833 -11.667 -101.5 -35s-41.5 -54 -41.5 -92c0 -62.667 72 -122 216 -178c216.667 -84 325 -193.333 325 -328c0 -100.667 -37.667 -180.667 -113 -240c-70 -54 -156.667 -81 -260 -81z" />
    <glyph glyph-name="Ydieresis" unicode="&#x178;" horiz-adv-x="1262" 
d="M768 2151c-34.667 0 -64.167 12 -88.5 36s-36.5 53 -36.5 87c0 32 12.5 60.333 37.5 85s54.167 37 87.5 37c34 0 63.167 -12 87.5 -36s36.5 -52.667 36.5 -86c0 -34 -12.167 -63 -36.5 -87s-53.5 -36 -87.5 -36zM416 2151c-32 0 -61.999 11.6689 -89.999 35.002
c-22 25.333 -33 54.666 -33 87.999c0 32 12.167 60.333 36.5 85s53.166 37 86.499 37s62.5 -12.333 87.5 -37s37.5 -53 37.5 -85c0 -32.667 -11.667 -61.334 -35 -86.001s-53.333 -37 -90 -37zM1196 1368c-32.667 -33.333 -75 -96.667 -127 -190l-315 -561v-378
c0 -58 6.66699 -99.667 20 -125c10 -18 35 -27 75 -27v-87h-450v87c40 0 65.667 10.333 77 31c12.667 23.333 19 63.666 19 120.999v361l-347 617c-62 121.333 -123 186.333 -183 195v82h464v-84c-26.667 -1.33301 -41.667 -2.66602 -45 -3.99902
c-11.333 -3.33301 -18.333 -13.333 -21 -30c1.33301 -21.333 14.666 -55.333 39.999 -102c4.66699 -8 15 -25.667 31 -53l261 -468c58.667 100 140.334 249 245.001 447c23.333 50 35 93.333 35 130c0 20.667 -7 39 -21 55s-38.667 24 -74 24v85h415v-83
c-42.667 -4.66699 -75.667 -19 -99 -43z" />
    <glyph glyph-name="florin" unicode="&#x192;" horiz-adv-x="1129" 
d="M1053 1153l-75.9961 3.99707c-22.667 118.667 -63 178 -121 178c-40.667 0 -71 -21 -91 -63c-24 -49.333 -47 -158.666 -69 -327.999h260l-14 -115h-262l-106 -747c-20.667 -142.667 -65.334 -257.667 -134.001 -345c-82.667 -104.667 -192.334 -157 -329.001 -157
c-36.667 0 -77.334 5.33301 -122.001 16c-12 2.66699 -38.667 10.334 -80 23.001l72 260l77 -4c21.333 -117.333 60 -176 116 -176c36.667 0 65.667 20.333 87 61c24 47.333 49 164.333 75 351l101 718h-189l10 115h194c26 164.667 76 289.334 150 374.001
c78.667 90 174.667 135 288 135c10 0 20 -0.333008 30 -1l83 -6c8 -0.666992 21.667 -2.66699 41 -6c11.333 -2 38.666 -9.66699 81.999 -23z" />
    <glyph glyph-name="circumflex" unicode="&#x2c6;" 
d="M736 1121l-224 176l-223 -176h-115l266 350h145l264 -350h-113z" />
    <glyph glyph-name="tilde" unicode="&#x2dc;" 
d="M684 1217c-26.667 -9.33301 -65 -12.668 -115 -10.001l-44 7l-108 24l-24 3c-26.667 4 -47.667 1 -63 -9c-11.333 -11.333 -23 -32.666 -35 -63.999h-99c16.667 79.333 43 135 79 167c40.667 36 102.667 52.333 186 49l31 -7l137 -28l24 -2c32 0.666992 57 24 75 70h101
c-8 -38 -18.333 -69.667 -31 -95c-26 -53.333 -64 -88.333 -114 -105z" />
    <glyph glyph-name="endash" unicode="&#x2013;" 
d="M-25 440v119h1074v-119h-1074z" />
    <glyph glyph-name="emdash" unicode="&#x2014;" horiz-adv-x="2048" 
d="M-25 440v119h2098v-119h-2098z" />
    <glyph glyph-name="quoteleft" unicode="&#x2018;" horiz-adv-x="563" 
d="M304 1228c0 -22 12.667 -40.667 38 -56c21.333 -13.333 41 -30.666 59 -51.999c12 -22.667 18 -44.334 18 -65.001c0 -36.667 -13.667 -67 -41 -91s-61 -36 -101 -36c-48 0 -88 18.333 -120 55c-30 34 -45 73.667 -45 119c0 115.333 87.667 254 263 416l73 -68
c-54 -58.667 -91.5 -104.5 -112.5 -137.5s-31.5 -61.167 -31.5 -84.5z" />
    <glyph glyph-name="quoteright" unicode="&#x2019;" horiz-adv-x="563" 
d="M189 918l-75 70c96.667 94.667 145 168 145 220c0 24.667 -12 44.667 -36 60c-50.667 32.667 -76 71 -76 115c0 36.667 13.5 66.667 40.5 90s60.167 35 99.5 35c48 0 88 -18.333 120 -55c29.333 -34 44 -73.667 44 -119c0 -56.667 -19.833 -118 -59.5 -184
s-107.167 -143.333 -202.5 -232z" />
    <glyph glyph-name="quotesinglbase" unicode="&#x201a;" horiz-adv-x="563" 
d="M189 -371l-75 68c96.667 97.333 145 170.666 145 219.999c0 22.667 -13 43 -39 61c-48.667 32.667 -73 71 -73 115c0 36.667 13.333 66.5 40 89.5s60 34.5 100 34.5c48.667 0 88.667 -18.333 120 -55c29.333 -33.333 44 -73 44 -119
c0 -55.333 -19.833 -115.666 -59.5 -180.999s-107.167 -143 -202.5 -233z" />
    <glyph glyph-name="quotedblleft" unicode="&#x201c;" horiz-adv-x="910" 
d="M682 1309c-21.333 -36 -32.001 -63.001 -32.001 -81.001c0 -22 12.667 -40.667 38 -56c22 -13.333 41.333 -30.666 58 -51.999c12.667 -22.667 19 -44.334 19 -65.001c0 -33.333 -13.333 -64 -40 -92c-29.333 -23.333 -63.333 -35 -102 -35c-47.333 0 -87 18.333 -119 55
c-30 34.667 -45 74.334 -45 119.001c0 116 87.333 254.667 262 416l73 -68c-51.333 -54 -88.666 -101 -111.999 -141zM303.999 1228c0 -22 12.667 -40.667 38 -56c22 -13.333 41.333 -31 58 -53c12 -22 18 -43.333 18 -64c0 -36.667 -13.5 -67 -40.5 -91
s-60.5 -36 -100.5 -36c-48 0 -88 18.333 -120 55c-30 34 -45 73.667 -45 119c0 115.333 87.667 254 263 416l73 -68c-54 -58.667 -91.5 -104.5 -112.5 -137.5s-31.5 -61.167 -31.5 -84.5z" />
    <glyph glyph-name="quotedblright" unicode="&#x201d;" horiz-adv-x="910" 
d="M535 918l-73 71c96 94 144 167 144 219c0 24.667 -10 44 -30 58c-31.333 22 -51 38.333 -59 49c-16 21.333 -24 44 -24 68c0 36.667 13.5 66.667 40.5 90s60.167 35 99.5 35c48 0 88 -18.333 120 -55c29.333 -34 44 -73.667 44 -119c0 -56 -19.833 -117.333 -59.5 -184
s-107.167 -144 -202.5 -232zM189 918l-75 70.001c96.667 94.667 145 168 145 220c0 24.667 -12 44.667 -36 60c-50.667 32.667 -76 71 -76 115c0 36.667 13.5 66.667 40.5 90s60.167 35 99.5 35c48 0 88 -18.333 120 -55c29.333 -34 44 -73.667 44 -119
c0 -55.333 -20.333 -116.833 -61 -184.5s-107.667 -144.834 -201 -231.501z" />
    <glyph glyph-name="quotedblbase" unicode="&#x201e;" horiz-adv-x="910" 
d="M535 -371l-73 68c96 98.667 144 172 144 220c0 23.333 -13 43.333 -39 60c-49.333 33.333 -74 72 -74 116c0 36.667 13.333 66.5 40 89.5s60 34.5 100 34.5c48.667 0 88.667 -18.333 120 -55c29.333 -33.333 44 -73 44 -119c0 -55.333 -19.833 -115.833 -59.5 -181.5
s-107.167 -143.167 -202.5 -232.5zM189 -371l-75 68.001c96.667 97.333 145 170.666 145 219.999c0 22.667 -13 43 -39 61c-48.667 32.667 -73 71 -73 115c0 36.667 13.333 66.5 40 89.5s60 34.5 100 34.5c48.667 0 88.667 -18.333 120 -55c29.333 -33.333 44 -73 44 -119
c0 -54 -20.333 -114.5 -61 -181.5s-107.667 -144.5 -201 -232.5z" />
    <glyph glyph-name="dagger" unicode="&#x2020;" 
d="M562 1068c38 0.666992 104.331 18.001 198.998 52.001c22 7.33301 41 12 57 14c38 0 69.667 -10.667 95 -32s38 -50.333 38 -87c0 -36 -12.667 -64.5 -38 -85.5s-56.666 -31.5 -93.999 -31.5c-17.333 0 -58.666 13 -123.999 39
c-46.667 19.333 -91.667 30.666 -135 33.999c4 -134.667 35.333 -243.667 94 -327c-28.667 -107.333 -49.667 -225.333 -63 -354c0 -27.333 -3.83301 -104.333 -11.5 -231s-11.5 -222.334 -11.5 -287.001h-107c0 350.667 -30 641 -90 871c61.333 104.667 92 206.667 92 306
l-2 19c-30.667 -3.33301 -73 -14.666 -127 -33.999c-56.667 -20.667 -99 -32.667 -127 -36c-37.333 0 -68.333 9.33301 -93 28c-26.667 20 -40 47.667 -40 83c0 82 43.667 123 131 123c16 0 56 -12 120 -36c49.333 -18 94.666 -28 135.999 -30l2 23
c2.66699 39.333 -22.666 136.333 -75.999 291c0 36 11.833 66.333 35.5 91s54.167 37 91.5 37c34 0 63.667 -12 89 -36c22 -26.667 33 -56 33 -88c0 -17.333 -18.667 -69 -56 -155l-14 -60z" />
    <glyph glyph-name="daggerdbl" unicode="&#x2021;" 
d="M562 1068c38 0.666992 104.331 18 198.998 52c22 7.33301 41 12 57 14c38 0 69.667 -10.667 95 -32s38 -50.333 38 -87c0 -36 -12.667 -64.5 -38 -85.5s-56.666 -31.5 -93.999 -31.5c-17.333 0 -58.666 13 -123.999 39c-46.667 19.333 -91.667 30.333 -135 33
c2.66699 -102 18.334 -185 47.001 -249c10.667 -24 27 -52.333 49 -85c-62.667 -107.333 -94 -211.666 -94 -312.999v-16c40 4.66699 82.667 15.334 128 32.001c67.333 24.667 113.333 37 138 37c82 0 123 -39 123 -117c0 -32 -12.333 -60 -37 -84
c-26.667 -21.333 -56.667 -32 -90 -32c-21.333 0 -62 10.667 -122 32c-62 21.333 -108.667 33 -140 35v-21c0 -57.333 25.333 -155.333 76 -294c0 -36.667 -12 -67.334 -36 -92.001s-54.667 -37 -92 -37c-36 0 -65.167 12 -87.5 36s-33.5 53.333 -33.5 88
c0 19.333 10 50.666 30 93.999c22 46.667 34 79 36 97c0 0.666992 2.33301 43 7 127c-34 -0.666992 -77.667 -10.334 -131 -29.001c-60 -22 -102.667 -34.667 -128 -38c-36.667 0 -67.334 11.5 -92.001 34.5s-37 52.167 -37 87.5c0 75.333 43.667 113 131 113
c19.333 0 59 -11 119 -33c62.667 -23.333 109.667 -36 141 -38c-2.66699 137.333 -35 248 -97 332c63.333 108.667 95 212.667 95 312l-2 19c-30.667 -3.33301 -73 -14.666 -127 -33.999c-56.667 -20.667 -99 -32.667 -127 -36c-37.333 0 -68.333 9.33301 -93 28
c-26.667 20 -40 47.667 -40 83c0 82 43.667 123 131 123c16 0 56 -12 120 -36c49.333 -18 94.666 -28 135.999 -30l2 23c2.66699 39.333 -22.666 136.333 -75.999 291c0 36 11.833 66.333 35.5 91s54.167 37 91.5 37c34 0 63.667 -12 89 -36c22 -26.667 33 -56 33 -88
c0 -17.333 -18.667 -69 -56 -155l-14 -60z" />
    <glyph glyph-name="bullet" unicode="&#x2022;" horiz-adv-x="1209" 
d="M602 465c-88.667 0 -164.166 28.999 -226.499 86.999s-93.5 128 -93.5 210c0 81.333 31.5 150.833 94.5 208.5s138.833 86.5 227.5 86.5c89.333 0 165 -28.5 227 -85.5s93 -126.833 93 -209.5c0 -85.333 -32.667 -156.666 -98 -213.999
c-62.667 -55.333 -137.334 -83 -224.001 -83z" />
    <glyph glyph-name="ellipsis" unicode="&#x2026;" horiz-adv-x="2048" 
d="M3309 6c-32 -23.333 -66.667 -35 -104 -35c-38.667 0 -73 12.5 -103 37.5s-45 53.5 -45 85.5c0 33.333 14.667 62.166 44 86.499s64 36.5 104 36.5c43.333 0 78.833 -11.5 106.5 -34.5s41.5 -52.5 41.5 -88.5c0 -31.333 -14.667 -60.666 -44 -87.999zM1909 6
c-32 -23.333 -66.666 -35.002 -103.999 -35.002c-38 0 -72.333 12.5 -103 37.5s-46 53.5 -46 85.5c0 32.667 15 61.334 45 86.001s64.667 37 104 37c43.333 0 78.666 -11.5 105.999 -34.5s41 -52.5 41 -88.5c0 -31.333 -14.333 -60.666 -43 -87.999zM512.001 5.99805
c-32 -23.333 -66.666 -35.002 -103.999 -35.002c-38.667 0 -73.167 12.5 -103.5 37.5s-45.5 53.5 -45.5 85.5c0 32.667 15 61.334 45 86.001s64.667 37 104 37c43.333 0 78.666 -11.5 105.999 -34.5s41 -52.5 41 -88.5c0 -31.333 -14.333 -60.666 -43 -87.999z" />
    <glyph glyph-name="perthousand" unicode="&#x2030;" horiz-adv-x="2185" 
d="M2040 103c-62 -90.667 -137.667 -136.001 -227 -136.001c-95.333 0 -173.333 43.333 -234 130c-58.667 83.333 -88 193 -88 329c0 130.667 31 237.334 93 320.001c64 86 143 129 237 129c90 0 164.667 -43 224 -129c56.667 -82.667 85 -190.667 85 -324
c0 -124.667 -30 -231 -90 -319zM1354 105.999c-62 -92.667 -137.667 -139 -227 -139c-96.667 0 -175.334 43.333 -236.001 130c-58.667 83.333 -88 193 -88 329c0 129.333 31.333 236.5 94 321.5s141.334 127.5 236.001 127.5c90 0 164.667 -43 224 -129
c56.667 -82.667 85 -190.667 85 -324c0 -124 -29.333 -229.333 -88 -316zM307 -40.001l-107 54l988 1449l108 -55zM607 685.999c-62 -92 -138 -138 -228 -138c-97.333 0 -176 43.667 -236 131c-58.667 85.333 -88 194.333 -88 327c0 130.667 31 237.667 93 321
c64 86 143 129 237 129c92 0 167.333 -43.333 226 -130c56 -82.667 84 -190.667 84 -324c0 -124 -29.333 -229.333 -88 -316zM1904 709.999c-20.667 51.333 -52.332 77 -94.999 77c-84.667 0 -127 -113 -127 -339c0 -147.333 11.667 -252.333 35 -315
c20.667 -53.333 52.667 -80 96 -80c41.333 0 71.666 25.333 90.999 76c23.333 62 35 161 35 297c0 129.333 -11.667 224 -35 284zM1216 709.999c-20.667 51.333 -52.332 77.001 -94.999 77.001c-83.333 0 -125 -113 -125 -339c0 -154.667 11 -260.334 33 -317.001
c20.667 -52 52.667 -78 96 -78c41.333 0 71.666 25.333 90.999 76c23.333 62 35 161 35 297c0 130 -11.667 224.667 -35 284zM469.004 1291c-20.667 51.333 -52.667 76.998 -96 76.998c-83.333 0 -125 -113.333 -125 -340c0 -153.333 11 -258.666 33 -315.999
c20.667 -52 52.667 -78 96 -78c42.667 0 74 25.333 94 76c22 56.667 33 155.334 33 296.001c0 130.667 -11.667 225.667 -35 285z" />
    <glyph glyph-name="guilsinglleft" unicode="&#x2039;" horiz-adv-x="473" 
d="M321 110c-87.333 160 -184.001 287.332 -290.001 381.999c111.333 100 208 226.667 290 380l91 -26c-14 -126 -56.333 -244 -127 -354c66.667 -107.333 109.334 -225.666 128.001 -354.999z" />
    <glyph glyph-name="guilsinglright" unicode="&#x203a;" horiz-adv-x="473" 
d="M287 323c-41.333 -54 -85.332 -124.999 -131.999 -212.999l-92 27c13.333 127.333 55 245.666 125 354.999c-63.333 101.333 -105.333 219.333 -126 354l93 26c75.333 -145.333 170.666 -272 285.999 -380c-56 -52.667 -107.333 -109 -154 -169z" />
    <glyph glyph-name="trademark" unicode="&#x2122;" horiz-adv-x="1684" 
d="M1167 903v71.001l53 3c7.33301 1.33301 12.666 3 15.999 5c3.33301 6 5 13 5 21v224l-129 -326h-57l-129 328v-226c0 -9.33301 1.83301 -15.666 5.5 -18.999s8.83398 -5.66602 15.501 -6.99902l55 -3v-71h-246v71l54 3c6.66699 1.33301 11.667 2.66602 15 3.99902
c2 6 4 13.667 6 23v338c0 10 -1.5 16.667 -4.5 20s-8.5 5.33301 -16.5 6l-54 6v68h233l120 -313l126 313h222v-67c-36.667 0 -59 -2.66699 -67 -8c-2 -4.66699 -3.66699 -12.334 -5 -23.001v-341c0 -16.667 6.66699 -25.334 20 -26.001l52 -3v-71h-290zM395 1368
c-40.667 -2 -68.666 -17.0029 -83.999 -45.0029c-8.66699 -14.667 -16.334 -45.667 -23.001 -93h-74l12 212h493l12 -212h-78c0 54.667 -11.333 91.667 -34 111c-15.333 16.667 -38 25.667 -68 27v-365c0 -9.33301 1.5 -15.666 4.5 -18.999s8.16699 -5.66602 15.5 -6.99902
l54 -3v-71h-304v71l53 3c6.66699 0.666992 12 2.33398 16 5.00098c3.33301 6 5 13 5 21v365z" />
    <glyph glyph-name="dotoperator" unicode="&#x2219;" horiz-adv-x="563" 
d="M283 598c-40 0 -74.667 12.168 -104 36.501s-44 53.166 -44 86.499c0 34 14.333 63 43 87s63.667 36 105 36c38.667 0 74 -11.667 106 -35c28 -26 42 -55.333 42 -88c0 -35.333 -16 -65.333 -48 -90c-30 -22 -63.333 -33 -100 -33z" />
    <glyph glyph-name=".null" horiz-adv-x="0" 
 />
    <glyph glyph-name="glyph2" horiz-adv-x="563" 
 />
    <glyph glyph-name="HT" horiz-adv-x="563" 
 />
    <glyph glyph-name="nonmarkingreturn" horiz-adv-x="563" 
 />
  </font>
</defs>
</svg>
