<?xml version="1.0" standalone="no"?>
<!DOCTYPE svg PUBLIC "-//W3C//DTD SVG 1.1//EN" "http://www.w3.org/Graphics/SVG/1.1/DTD/svg11.dtd" >
<svg xmlns="http://www.w3.org/2000/svg" xmlns:xlink="http://www.w3.org/1999/xlink" version="1.1">
<metadata>
Created by FontForge 20190801 at Mon Jan  9 15:01:35 1995
 By root
Copyright 1994 Bay Animation Inc. All Rights Reserved.
</metadata>
<defs>
<font id="RoomyNormal" horiz-adv-x="1024" >
  <font-face 
    font-family="Roomy"
    font-weight="400"
    font-stretch="normal"
    units-per-em="2048"
    panose-1="0 0 4 0 0 0 0 0 0 0"
    ascent="1638"
    descent="-410"
    x-height="980.999"
    cap-height="1475"
    bbox="-154.002 -498 3328 2534"
    underline-thickness="20"
    underline-position="-143"
    unicode-range="U+0020-2219"
  />
<missing-glyph 
d="M128 0v2534h768v-2534h-768zM256 128h512v2278h-512v-2278z" />
    <glyph glyph-name=".notdef" 
d="M128 0v2534h768v-2534h-768zM256 128h512v2278h-512v-2278z" />
    <glyph glyph-name="space" unicode=" " horiz-adv-x="563" 
 />
    <glyph glyph-name="exclam" unicode="!" horiz-adv-x="563" 
d="M269 363l-95 769.999l-6 162c-2.66699 68.667 7 123 29 163c18 33.333 48 50 90 50c40 0 69.833 -17.167 89.5 -51.5s29.5 -88.166 29.5 -161.499v-72c-2.66699 -20.667 -5.33398 -48 -8.00098 -82c-1.33301 -41.333 -8.66602 -115 -21.999 -221l-71 -557h-36z
M164 93.999c0 33.333 12.5 62.166 37.5 86.499s53.5 36.5 85.5 36.5c36 0 65.5 -11.5 88.5 -34.5s34.5 -52.5 34.5 -88.5c0 -31.333 -12.333 -60.666 -37 -87.999c-26 -23.333 -54.667 -35 -86 -35c-32 0 -60.5 12.5 -85.5 37.5s-37.5 53.5 -37.5 85.5z" />
    <glyph glyph-name="quotedbl" unicode="&#x22;" horiz-adv-x="686" 
d="M527 860l-35 -0.000976562l-72 496c0 71.333 29.333 107 88 107c26 0 48 -9 66 -27c16 -19.333 24 -44.666 24 -75.999v-24l-2 -17zM195 859.999h-34.999l-74 500c0 68.667 30 103 90 103c29.333 0 52 -9.66699 68 -29c17.333 -21.333 24.666 -47.333 21.999 -78l-2 -25
v-12z" />
    <glyph glyph-name="numbersign" unicode="#" horiz-adv-x="1575" 
d="M703 865l-99 -277h283l96 277h-280zM760 1458h156l-162 -454h276l162 454h156l-162 -454h301l-49 -139h-301l-96 -277h319l-49 -140h-320l-161 -452h-156l162 452h-279l-161 -452h-154l160 452h-314l52 140l311 1l98 276h-336l51 139h334z" />
    <glyph glyph-name="dollar" unicode="$" horiz-adv-x="1129" 
d="M577 53c90 0 165.333 21.332 226 63.999c68 48.667 102 116.334 102 203.001c0 85.333 -35 155.333 -105 210c-46.667 36 -121 71.667 -223 107v-584zM508 874.999v488.999c-70 0 -129.667 -19.667 -179 -59c-54 -42.667 -81 -98 -81 -166
c0 -57.333 21 -107.666 63 -150.999s107.667 -81 197 -113zM508 -142.002l0.000976562 142.005c-88.667 9.33301 -172 29.166 -250 59.499s-143.333 69.166 -196 116.499l78 265l43 -11c25.333 -106 63.833 -188.167 115.5 -246.5s121.5 -99.5 209.5 -123.5v602
c-270 82.667 -405 213 -405 391c0 106.667 42 194 126 262c73.333 59.333 166.333 95 279 107v124h69v-124c145.333 -14.667 278.666 -59.334 399.999 -134.001l-63 -235l-39 8c-22.667 85.333 -58.5 153.166 -107.5 203.499s-112.5 82.166 -190.5 95.499v-510
c154.667 -50 264 -97.667 328 -143c106.667 -74.667 160 -173.667 160 -297c0 -117.333 -45 -214.333 -135 -291c-44.667 -38 -96.667 -67.333 -156 -88s-125 -31 -197 -31v-142h-69z" />
    <glyph glyph-name="percent" unicode="%" horiz-adv-x="1497" 
d="M1125 6c52.667 0 90.666 31.667 113.999 95c24.667 66.667 37 171.667 37 315c0 266 -51.667 399 -155 399c-100 0 -150 -125.333 -150 -376c0 -163.333 11.667 -275.333 35 -336c24.667 -64.667 64.334 -97 119.001 -97zM1127 -33c-87.333 0 -159 41 -215 123
s-84 190.667 -84 326c0 108.667 23.333 204.667 70 288c56 101.333 134.333 152 235 152c97.333 0 171.666 -52.667 222.999 -158c40.667 -82.667 61 -178 61 -286c0 -102.667 -22.333 -197.667 -67 -285c-55.333 -106.667 -129.666 -160 -222.999 -160zM376.999 606
c69.333 0 114.998 55.668 136.998 167.001c10 51.333 15 132.333 15 243c0 266 -52 399 -156 399c-51.333 0 -89.666 -30.667 -114.999 -92c-23.333 -56.667 -35 -151.334 -35 -284.001c0 -162 11.667 -274 35 -336c24.667 -64.667 64.334 -97 119.001 -97zM378.997 568.001
c-102 0 -180.001 52.001 -234.001 156.001c-43.333 82.667 -65 180 -65 292c0 108.667 23 204.667 69 288c56.667 101.333 135.334 152 236.001 152c82.667 0 150.834 -40.833 204.501 -122.5s80.5 -188.834 80.5 -321.501c0 -103.333 -22.333 -198.333 -67 -285
c-54.667 -106 -129.334 -159 -224.001 -159zM235.996 0.00195312l960 1456l64 -34l-961 -1455z" />
    <glyph glyph-name="ampersand" unicode="&#x26;" horiz-adv-x="1389" 
d="M838 234l-169.999 346.001c-44.667 90 -89.667 191 -135 303c-179.333 -76.667 -269 -196 -269 -358c0 -46.667 9 -93.334 27 -140.001c19.333 -49.333 43.333 -92.333 72 -129c12.667 -16 31.667 -35 57 -57c22 -18.667 41.667 -33 59 -43c40 -22 85.333 -33 136 -33
c89.333 0 163.666 37 222.999 111zM965.001 0.000976562l-100.003 184.996c-103.333 -126 -226.333 -189 -369 -189c-111.333 0 -206.166 41 -284.499 123s-117.5 179 -117.5 291c0 225.333 139.333 399.333 418 522l-28 105c-6 22.667 -9 51.334 -9 86.001
c0 106.667 31.667 193.667 95 261s148 101 254 101c80 0 147.667 -19.333 203 -58s83 -83.334 83 -134.001c0 -63.333 -32.667 -95 -98 -95c-55.333 0 -97.666 36.333 -126.999 109c-9.33301 23.333 -16.666 40 -21.999 50c-10.667 20 -21.667 34 -33 42
c-22 12 -46 18 -72 18c-35.333 0 -67 -17 -95 -51c-23.333 -30 -35 -66.667 -35 -110c0 -56.667 27.333 -153.667 82 -291c53.333 -133.333 138.333 -317.666 255 -552.999c34.667 82.667 59.334 150.334 74.001 203.001c16 56.667 24 106.334 24 149.001
c0 38 -8.66699 70 -26 96c-14 27.333 -36.667 46 -68 56v37h328v-37c-64.667 -20.667 -132.334 -130 -203.001 -328c-32.667 -91.333 -62.667 -169 -90 -233l80 -138c32 -55.333 65.333 -97.666 100 -126.999c30.667 -26 64.667 -43 102 -51v-39h-321z" />
    <glyph glyph-name="quotesingle" unicode="'" horiz-adv-x="353" 
d="M195 860l-35 -0.000976562l-74 496c-2 32.667 7 60 27 82c15.333 16.667 36.333 25 63 25c26 0 48 -9 66 -27c16 -19.333 24 -44.666 24 -75.999l-2 -14l-2 -27z" />
    <glyph glyph-name="parenleft" unicode="(" horiz-adv-x="750" 
d="M723 -484c-184.667 115.333 -328.333 255.668 -431 421.001c-110 176 -165 367.667 -165 575c0 208 55 399.667 165 575c102 163.333 245.667 303.666 431 420.999v-60c-251.333 -188.667 -377 -500.667 -377 -936c0 -215.333 31.5 -401.333 94.5 -558
s157.167 -282.667 282.5 -378v-60z" />
    <glyph glyph-name="parenright" unicode=")" horiz-adv-x="750" 
d="M27 1508c185.333 -115.333 329.333 -255.333 432 -420c109.333 -175.333 164 -367.333 164 -576c0 -206.667 -55.333 -398.334 -166 -575.001c-102.667 -163.333 -246 -303.666 -430 -420.999v60c250 190 375 502 375 936c0 439.333 -125 751.333 -375 936v60z" />
    <glyph glyph-name="asterisk" unicode="*" 
d="M527 1065l-0.00292969 -14c0 -50.667 12 -105.334 36 -164.001c7.33301 -18 17 -42.667 29 -74c5.33301 -17.333 8.66602 -33.666 9.99902 -48.999c0 -25.333 -8.66699 -46.333 -26 -63s-38.666 -25 -63.999 -25c-27.333 0 -49.5 8.16699 -66.5 24.5
s-25.5 37.5 -25.5 63.5c0 16.667 13 55 39 115c24.667 57.333 37 112 37 164v24c-59.333 -34 -105 -75 -137 -123l-4 -6c-44.667 -66.667 -87.667 -100 -129 -100c-24.667 0 -45.667 9.16699 -63 27.5s-26 39.833 -26 64.5c0 31.333 11 54.666 33 69.999
c20 14.667 59 25.334 117 32.001c26 0 45 1.66699 57 5c49.333 4.66699 94.333 23.667 135 57c-27.333 18 -56.666 32.333 -87.999 43c-19.333 6.66699 -57.333 12 -114 16l-27 2c-35.333 2.66699 -62.666 13.667 -81.999 33c-20.667 16.667 -31 39.334 -31 68.001
c0 22.667 8.33301 44.334 25 65.001c18 18 38.333 27 61 27c38.667 0 78.334 -28.667 119.001 -86l15 -21c22 -30.667 43 -54.334 63 -71.001c22.667 -18.667 48.667 -36 78 -52v11c0 45.333 -13 101 -39 167s-39 106.333 -39 121c0 24.667 8.33301 46.667 25 66
c18.667 16.667 41 25 67 25c60 0 90 -29.333 90 -88c0 -15.333 -12.167 -55.666 -36.5 -120.999s-36.5 -119.333 -36.5 -162v-21l6 5c64 41.333 107.667 80.666 131 117.999l8 13c48 64 91 96 129 96c21.333 0 40.666 -10.167 57.999 -30.5s26 -41.5 26 -63.5
c0 -22.667 -9.66699 -43.334 -29 -62.001c-21.333 -20.667 -45.666 -32.334 -72.999 -35.001c-118.667 -11.333 -198.667 -33.666 -240 -66.999c22.667 -14 54 -27.667 94 -41c37.333 -12.667 75 -19 113 -19l22 -2c31.333 0 58 -9.66699 80 -29s33 -44.333 33 -75
c0 -22 -9.5 -42.167 -28.5 -60.5s-39.5 -27.5 -61.5 -27.5c-36 0 -76.333 31.333 -121 94l-10 14c-22.667 32 -42.667 55.333 -60 70c-20 17.333 -46.333 34.333 -79 51z" />
    <glyph glyph-name="plus" unicode="+" horiz-adv-x="1706" 
d="M783 1221h141v-541h528v-140h-528v-540h-141v540h-529v140h529v541z" />
    <glyph glyph-name="comma" unicode="," horiz-adv-x="563" 
d="M125 -322c87.333 90 131 171.999 131 245.999c0 26 -16.667 54.833 -50 86.5s-50 63.834 -50 96.501c0 33.333 10.833 60 32.5 80s49.167 30 82.5 30c42.667 0 77 -17 103 -51c24 -31.333 36 -69 36 -113c0 -117.333 -83.333 -255.333 -250 -414z" />
    <glyph glyph-name="hyphen" unicode="-" horiz-adv-x="692" 
d="M61 428v144h570v-144h-570z" />
    <glyph glyph-name="hyphen" unicode="&#x2010;" horiz-adv-x="692" 
d="M61 428v144h570v-144h-570z" />
    <glyph glyph-name="period" unicode="." horiz-adv-x="563" 
d="M164 94c0 33.333 12.5 62.166 37.5 86.499s53.5 36.5 85.5 36.5c36 0 65.5 -11.5 88.5 -34.5s34.5 -52.5 34.5 -88.5c0 -31.333 -12.333 -60.666 -37 -87.999c-26 -23.333 -54.667 -35 -86 -35c-32 0 -60.5 12.5 -85.5 37.5s-37.5 53.5 -37.5 85.5z" />
    <glyph glyph-name="slash" unicode="/" horiz-adv-x="768" 
d="M-135 -152l885 1660l71 -37l-885 -1662z" />
    <glyph glyph-name="zero" unicode="0" horiz-adv-x="1129" 
d="M570 18c118 0 195.668 95.668 233.001 287.001c18 89.333 27 228 27 416c0 179.333 -9.66699 314.666 -29 405.999c-38.667 184 -116.334 276 -233.001 276c-179.333 0 -269 -215 -269 -645c0 -271.333 20.667 -462.5 62 -573.5s111 -166.5 209 -166.5zM570.001 -32.999
c-171.333 0 -300.665 88.0029 -387.998 264.003c-68 137.333 -102 300.666 -102 489.999c0 182 37.667 342 113 480c92 170 221.667 255 389 255c134 0 245.333 -68.667 334 -206s133 -316.333 133 -537c0 -62 -4 -120.667 -12 -176
c-6.66699 -46.667 -20.334 -101.334 -41.001 -164.001c-34.667 -104.667 -85.334 -195.334 -152.001 -272.001c-40 -46 -82.667 -79.833 -128 -101.5s-94 -32.5 -146 -32.5z" />
    <glyph glyph-name="one" unicode="1" horiz-adv-x="1129" 
d="M361 0l-0.00292969 39c34 0 58.333 15 73 45s22 75 22 135v891c0 50 -11.667 86.5 -35 109.5s-59.666 34.5 -108.999 34.5v39c42.667 8.66699 90.334 27.667 143.001 57c50 28 99 63.333 147 106h47v-1237c0 -78.667 12.667 -131 38 -157
c14.667 -15.333 34.334 -23 59.001 -23v-39h-385z" />
    <glyph glyph-name="two" unicode="2" horiz-adv-x="1129" 
d="M56 0v39.002l49 74c80 121.333 197.333 257 352 407l72 70c74.667 72.667 130.667 149 168 229c34 72.667 51 154 51 244c0 86.667 -15 160.667 -45 222c-39.333 78.667 -98 118 -176 118c-57.333 0 -100.333 -15 -129 -45c-12.667 -13.333 -23.667 -33 -33 -59
c-10 -28 -15 -56.667 -15 -86c0 -54 -12.667 -96.333 -38 -127c-19.333 -28.667 -48 -43 -86 -43c-64.667 0 -97 36 -97 108c0 89.333 46.333 164.333 139 225c82 53.333 169.667 80 263 80c125.333 0 229 -39.333 311 -118s123 -180.667 123 -306
c0 -92.667 -34 -185.334 -102 -278.001c-34.667 -47.333 -118.667 -119 -252 -215l-43 -31c-166.667 -120.667 -287.667 -234.667 -363 -342h434c70 0 123.667 8.33301 161 25c48 21.333 83 60.666 105 117.999l40 -8l-72 -301h-817z" />
    <glyph glyph-name="three" unicode="3" horiz-adv-x="1129" 
d="M453 774c186.667 26 280 132.667 280 320c0 98 -17.667 173.667 -53 227s-87 80 -155 80c-55.333 0 -95.5 -13.5 -120.5 -40.5s-40.833 -67.5 -47.5 -121.5c-12 -98 -47.667 -147 -107 -147c-26 0 -49.167 10.833 -69.5 32.5s-30.5 46.167 -30.5 73.5
c0 68.667 37.667 128.834 113 180.501s167.333 77.5 276 77.5c117.333 0 214.5 -33.5 291.5 -100.5s115.5 -149.5 115.5 -247.5c0 -137.333 -93.333 -243 -280 -317c104.667 -24 186.167 -68.5 244.5 -133.5s87.5 -142.833 87.5 -233.5c0 -134 -47 -244.333 -141 -331
c-91.333 -84 -204.333 -126 -339 -126c-112 0 -209.167 26.5 -291.5 79.5s-123.5 113.5 -123.5 181.5c0 26.667 8.16699 50 24.5 70s37.5 30 63.5 30c32.667 0 58.667 -9 78 -27c10.667 -8 20 -17.333 28 -28c8.66699 -16 17.667 -34.667 27 -56
c30.667 -68.667 56 -114.334 76 -137.001c34 -38 79.667 -57 137 -57c89.333 0 155 42.333 197 127c31.333 64.667 47 146.667 47 246c0 107.333 -20 190.333 -60 249c-42 62 -100 91.333 -174 88l-49 -2l-43 -6z" />
    <glyph glyph-name="four" unicode="4" horiz-adv-x="1129" 
d="M637 473l4 768l-450 -768h446zM551 0v39.001c30 5.33301 52.667 23.666 68 54.999c12 32 18 90.333 18 175v77h-575v58l626 1046h144v-977h209v-127h-209v-77c0 -74.667 1.66699 -120 5 -136c10 -52.667 36.333 -84 79 -94v-39h-365z" />
    <glyph glyph-name="five" unicode="5" horiz-adv-x="1129" 
d="M203 656l23 766c40.667 -15.333 87.667 -26.333 141 -33c32 -4 66.667 -6.66699 104 -8c35.333 -1.33301 56 -2 62 -2c66 0 129.333 6.66699 190 20s110 32.333 148 57l27 -22c-45.333 -72 -109 -127.333 -191 -166c-40 -19.333 -83 -33.666 -129 -42.999
c-51.333 -10.667 -101.333 -15.334 -150 -14.001l-75 2l-70 6l-10 -426c71.333 117.333 175 176 311 176c124.667 0 226.667 -46.667 306 -140c74.667 -88 112 -195.667 112 -323c0 -153.333 -47 -281 -141 -383c-96 -104 -220.333 -156 -373 -156
c-83.333 0 -162 19.667 -236 59c-88.667 46.667 -133 108.334 -133 185.001c0 65.333 30 98 90 98c27.333 0 51.666 -8.33301 72.999 -25s44 -48.334 68 -95.001c54.667 -106.667 123 -160 205 -160c86.667 0 151.334 45.667 194.001 137c32 68.667 48 152 48 250
c0 109.333 -20.667 206 -62 290c-52.667 106 -128.334 159 -227.001 159c-123.333 0 -206.666 -72 -249.999 -216z" />
    <glyph glyph-name="six" unicode="6" horiz-adv-x="1129" 
d="M326 754c57.333 131.333 154.335 196.999 291.002 196.999c105.333 0 197.166 -45.167 275.499 -135.5s117.5 -200.166 117.5 -329.499c0 -66 -10 -129.167 -30 -189.5s-48.333 -112.5 -85 -156.5c-95.333 -115.333 -204.333 -173 -327 -173
c-136 0 -244.833 60.5 -326.5 181.5s-122.5 282.5 -122.5 484.5c0 208 35.333 386 106 534c92.667 192.667 232 289 418 289c89.333 0 163.333 -19 222 -57s88 -84.333 88 -139c0 -22.667 -9 -42.667 -27 -60s-38.333 -26 -61 -26c-46 0 -83.667 23.667 -113 71l-23 37
c-44.667 72 -97 108 -157 108c-78.667 0 -138.334 -51.667 -179.001 -155c-44.667 -112.667 -67 -273 -67 -481zM791.002 472.999c0 140.667 -17.5 245.167 -52.5 313.5s-88.5 102.5 -160.5 102.5c-161.333 0 -242 -134.333 -242 -403c0 -312 78.667 -468 236 -468
c77.333 0 133.333 37 168 111c34 72 51 186.667 51 344z" />
    <glyph glyph-name="seven" unicode="7" horiz-adv-x="1129" 
d="M396 -33c0 104.667 14.998 216 44.998 334c22 85.333 59 193.333 111 324c86.667 216 205.334 426.333 356.001 631h-406c-90.667 0 -153.667 -7.33301 -189 -22c-54.667 -22.667 -90.667 -70.667 -108 -144l-41 2l29 330h848v-52
c-135.333 -198 -237.666 -413 -306.999 -645c-34 -114.667 -60.667 -236.667 -80 -366c-19.333 -131.333 -29 -262 -29 -392h-229z" />
    <glyph glyph-name="eight" unicode="8" horiz-adv-x="1129" 
d="M647 836c114.667 54.667 172 151 172 289c0 84 -21.667 150.667 -65 200c-46 52 -110.333 78 -193 78c-70 0 -126.5 -20 -169.5 -60s-64.5 -95 -64.5 -165c0 -136.667 106.667 -250.667 320 -342zM465 705c-65.333 -29.333 -114.833 -72 -148.5 -128
s-50.5 -124.667 -50.5 -206c0 -100.667 25 -182.667 75 -246c54.667 -69.333 131 -104 229 -104c83.333 0 149.833 25.833 199.5 77.5s74.5 121.167 74.5 208.5c0 170 -126.333 302.667 -379 398zM410 731c-164.667 77.333 -247 194.333 -247 351
c0 111.333 41 202.333 123 273c78 67.333 173.333 101 286 101c110 0 202.667 -30.667 278 -92s113 -136.333 113 -225c0 -68 -21.667 -129.5 -65 -184.5s-109 -102.167 -197 -141.5c218 -100 327 -236.333 327 -409c0 -128 -45.667 -233.333 -137 -316
c-88 -80.667 -196.667 -121 -326 -121c-133.333 0 -244.333 38.333 -333 115s-133 169 -133 277c0 150.667 103.667 274.667 311 372z" />
    <glyph glyph-name="nine" unicode="9" horiz-adv-x="1129" 
d="M332 979c0 -297.333 74.333 -446 223 -446c88.667 0 154 45.667 196 137c30.667 68 46 152.667 46 254c0 319.333 -82.667 479 -248 479c-144.667 0 -217 -141.333 -217 -424zM802 654c-32 -61.333 -72.002 -108.668 -120.002 -142.001
c-45.333 -31.333 -100.666 -47 -165.999 -47c-122.667 0 -222 49.667 -298 149c-69.333 90.667 -104 199.334 -104 326.001c0 138.667 41.333 257 124 355c90 107.333 191 161 303 161c144 0 258.5 -65.167 343.5 -195.5s127.5 -306.166 127.5 -527.499
c0 -198 -35.667 -366 -107 -504c-91.333 -174.667 -227 -262 -407 -262c-87.333 0 -161.833 18.667 -223.5 56s-92.5 81.666 -92.5 132.999c0 26 9 47.5 27 64.5s40 25.5 66 25.5c42 0 91.667 -39 149 -117l19 -26c15.333 -21.333 34.333 -39.333 57 -54
c22 -10.667 46.667 -16 74 -16c78.667 0 136 48.333 172 145c16.667 44.667 30.334 109 41.001 193c10 78 15 172.333 15 283z" />
    <glyph glyph-name="colon" unicode=":" horiz-adv-x="563" 
d="M164 94c0 33.333 12.5 62.166 37.5 86.499s53.5 36.5 85.5 36.5c36 0 65.5 -11.5 88.5 -34.5s34.5 -52.5 34.5 -88.5c0 -31.333 -12.333 -60.666 -37 -87.999c-26 -23.333 -54.667 -35 -86 -35c-32 0 -60.5 12.5 -85.5 37.5s-37.5 53.5 -37.5 85.5zM164 834
c0 33.333 12.1699 62.501 36.5029 87.501s53.166 37.5 86.499 37.5c35.333 0 64.666 -12.333 87.999 -37s35 -54 35 -88c0 -32.667 -12.333 -61.334 -37 -86.001s-53.334 -37 -86.001 -37c-32 0 -60.5 12.5 -85.5 37.5s-37.5 53.5 -37.5 85.5z" />
    <glyph glyph-name="semicolon" unicode=";" horiz-adv-x="563" 
d="M164 834c0 33.333 12.1699 62.501 36.5029 87.501s53.166 37.5 86.499 37.5c35.333 0 64.666 -12.333 87.999 -37s35 -54 35 -88c0 -32.667 -12.333 -61.334 -37 -86.001s-53.334 -37 -86.001 -37c-32 0 -60.5 12.5 -85.5 37.5s-37.5 53.5 -37.5 85.5zM125.003 -321.999
c87.333 90 131 171.999 131 245.999c0 26 -16.667 54.833 -50 86.5s-50 63.834 -50 96.501c0 33.333 10.833 60 32.5 80s49.167 30 82.5 30c42.667 0 77 -17 103 -51c24 -31.333 36 -69 36 -113c0 -117.333 -83.333 -255.333 -250 -414z" />
    <glyph glyph-name="less" unicode="&#x3c;" horiz-adv-x="1706" 
d="M1442 1159v-153l-969 -395l969 -394v-153l-1178 483v129z" />
    <glyph glyph-name="equal" unicode="=" horiz-adv-x="1706" 
d="M254 482h1198v-140h-1198v140zM254 879h1198v-139h-1198v139z" />
    <glyph glyph-name="greater" unicode="&#x3e;" horiz-adv-x="1706" 
d="M264 1159l1178 -483v-129l-1178 -483v153l971 394l-971 395v153z" />
    <glyph glyph-name="question" unicode="?" horiz-adv-x="910" 
d="M273 363l-3.99805 425.999l34 -2h9c248 0 372 118 372 354c0 88.667 -22.667 161.667 -68 219c-50 62.667 -118 94 -204 94c-80.667 0 -134 -31.333 -160 -94c-7.33301 -18 -12 -41.333 -14 -70c-2 -33.333 -4.66699 -57 -8 -71
c-16.667 -58.667 -52.334 -88 -107.001 -88c-26 0 -48.333 9.33301 -67 28c-16.667 23.333 -25 49.333 -25 78c0 82.667 44.667 150.334 134 203.001c76.667 45.333 159 68 247 68c121.333 0 223.666 -43.667 306.999 -131s125 -192.666 125 -315.999
c0 -148.667 -43.667 -265.334 -131 -350.001c-41.333 -40.667 -93 -72.667 -155 -96s-131.333 -35 -208 -35l-12 -217h-65zM174.002 93.999c0 33.333 12.5 62.165 37.5 86.498s53.5 36.5 85.5 36.5c35.333 0 65 -11.667 89 -35s36 -52.666 36 -87.999
c0 -31.333 -12.333 -60.666 -37 -87.999c-26 -23.333 -55.333 -35 -88 -35c-32 0 -60.5 12.5 -85.5 37.5s-37.5 53.5 -37.5 85.5z" />
    <glyph glyph-name="at" unicode="@" horiz-adv-x="2020" 
d="M1186 332c-80.667 -138 -182.999 -207.001 -306.999 -207.001c-90.667 0 -162 34.667 -214 104c-46 62 -69 140 -69 234c0 152.667 63.667 290 191 412c48 46 97 79.667 147 101s101.333 32 154 32c117.333 0 191 -63.667 221 -191l51 175l158 -1l-176 -624
c-10 -30 -15 -58.667 -15 -86c0 -34.667 9 -62 27 -82c15.333 -16.667 36.333 -25 63 -25c19.333 0 46 7 80 21s64 31 90 51c78.667 60 138.334 135.5 179.001 226.5s61 197.833 61 320.5c0 177.333 -69.667 326 -209 446c-124 106.667 -284.333 160 -481 160
c-121.333 0 -233.166 -20.333 -335.499 -61s-193.833 -101 -274.5 -181c-86 -86 -149.333 -181.333 -190 -286c-42.667 -110 -64 -229.667 -64 -359c0 -121.333 19 -225.666 57 -312.999c78 -179.333 222 -304.666 432 -375.999c96 -32.667 198.333 -49 307 -49
c61.333 0 117.333 4 168 12c41.333 6.66699 94.666 20.667 159.999 42c107.333 35.333 207 86.333 299 153l33 -41c-97.333 -70 -202 -124.333 -314 -163s-226.667 -58 -344 -58c-252.667 0 -459.334 60 -620.001 180c-96.667 72.667 -172.334 165.167 -227.001 277.5
s-82 232.5 -82 360.5c0 275.333 112.333 506.666 337 693.999c178 148.667 390.333 223 637 223c230.667 0 415.667 -62.667 555 -188s209 -292 209 -500c0 -222 -75 -400 -225 -534c-81.333 -72.667 -168 -109 -260 -109c-126 0 -195.667 69.667 -209 209zM1104 960.999
c-68.667 0 -131.332 -43.002 -187.999 -129.002c-42.667 -65.333 -79.667 -143.333 -111 -234c-30 -88 -45 -164.333 -45 -229c0 -55.333 13.667 -101 41 -137s60.666 -54 99.999 -54c44 0 85 14.333 123 43c32.667 24.667 69 69.334 109 134.001
c83.333 134.667 125 268.334 125 401.001c0 58.667 -14.167 107.5 -42.5 146.5s-65.5 58.5 -111.5 58.5z" />
    <glyph glyph-name="A" unicode="A" horiz-adv-x="1241" 
d="M320 551h458l-221 729zM-47 0l0.000976562 39.002c62 20.667 113.333 67 154 139c23.333 40.667 50 107 80 199l368 1131h129l408 -1258c45.333 -140.667 92.333 -211 141 -211v-39h-399v39c41.333 7.33301 65 32.666 71 75.999c0 18.667 -5.33301 44 -16 76l-8 24
l-82 264h-504l-63 -196l-15 -57l-4 -50c-2.66699 -32.667 5.66602 -63.334 24.999 -92.001c20.667 -24.667 46 -39.667 76 -45v-39h-361z" />
    <glyph glyph-name="B" unicode="B" horiz-adv-x="1309" 
d="M76 0l-0.000976562 39c62.667 0 94 60 94 180v1035c0 66.667 -7.33301 113 -22 139c-16 28.667 -40 43 -72 43v39l506 12c169.333 4.66699 313.333 -29.333 432 -102c112 -69.333 168 -158.333 168 -267c0 -160 -124.333 -269 -373 -327
c118.667 -22 216.334 -64.333 293.001 -127c90 -74 135 -166.333 135 -277c0 -146 -70.667 -251.333 -212 -316c-103.333 -47.333 -238 -71 -404 -71h-545zM378.999 758v-541c0 -73.333 17.667 -119.333 53 -138c22 -11.333 75.333 -17 160 -17c137.333 0 240.333 23 309 69
c82 54.667 123 147 123 277c0 233.333 -137 350 -411 350h-234zM378.999 819h131c141.333 0 246.333 15.333 315 46c101.333 45.333 152 129 152 251c0 98 -32 174 -96 228s-157 81 -279 81c-85.333 0 -141 -7.33301 -167 -22c-37.333 -22 -56 -71 -56 -147v-437z" />
    <glyph glyph-name="C" unicode="C" horiz-adv-x="1374" 
d="M1323 332c-74 -122.667 -160.332 -214.166 -258.999 -274.499s-210.334 -90.5 -335.001 -90.5c-208.667 0 -372 70.333 -490 211c-111.333 132 -167 304.333 -167 517c0 275.333 90 497.666 270 666.999c51.333 48.667 113.333 85.167 186 109.5s148.667 36.5 228 36.5
c160 0 327.333 -58.333 502 -175l-78 -247l-47 6c-76 236 -216.667 354 -422 354c-150.667 0 -264.667 -71.333 -342 -214c-62.667 -114 -94 -253 -94 -417c0 -188 42.667 -350.667 128 -488c100 -162 238.667 -243 416 -243c90 0 174 22.667 252 68
s149.667 114.333 215 207z" />
    <glyph glyph-name="D" unicode="D" horiz-adv-x="1485" 
d="M379 195c0 -51.333 12.333 -86.333 37 -105s76 -28 154 -28c221.333 0 377.5 49.5 468.5 148.5s136.5 270.5 136.5 514.5c0 236.667 -42.5 412.167 -127.5 526.5s-216.167 171.5 -393.5 171.5c-114 0 -188.333 -11.167 -223 -33.5s-52 -67.5 -52 -135.5v-1059zM76 0
l-0.000976562 38.999c62.667 0 94 60 94 180v1035c0 66.667 -7.33301 113 -22 139c-16 28.667 -40 43 -72 43v39l494 12c114 0 203.333 -6 268 -18c60.667 -11.333 121.334 -32.666 182.001 -63.999c117.333 -60.667 210.333 -152 279 -274
c69.333 -124.667 104 -262.667 104 -414c0 -232.667 -73.333 -412 -220 -538c-138 -119.333 -325.333 -179 -562 -179h-545z" />
    <glyph glyph-name="E" unicode="E" horiz-adv-x="1256" 
d="M76 0l0.00390625 39.001c62.667 0 94 60 94 180v1035c0 66.667 -7.33301 113 -22 139c-16 28.667 -40 43 -72 43v39h1030l25 -287l-43 -6c-30.667 84.667 -75.834 142.667 -135.501 174s-177.834 47 -354.501 47h-63c-72 0 -116 -6.33301 -132 -19s-24 -44.667 -24 -96
v-419h213c93.333 0 158.666 5.33301 195.999 16c68 19.333 113.333 61 136 125h35v-350h-37c-20 54 -46.667 90 -80 108c-35.333 19.333 -109 29 -221 29h-242v-583c0 -64 11.333 -104 34 -120s77.667 -24 165 -24h98c55.333 0 99.666 3 132.999 9
c52.667 5.33301 93 12.666 121 21.999c84 28 169.333 101.667 256 221l43 -23l-86 -299h-1067z" />
    <glyph glyph-name="F" unicode="F" horiz-adv-x="1166" 
d="M76 0v39.002c62.667 0 94 60 94 180v1035c0 66.667 -7.33301 113 -22 139c-16 28.667 -40 43 -72 43v39h1018l27 -283l-37 -8c-38.667 96 -99.667 159 -183 189c-54.667 20 -146 30 -274 30c-138.667 0 -217.334 -8.66699 -236.001 -26l-8 -17l-4 -31v-460h221
c92.667 0 159 6 199 18c71.333 21.333 115 65.666 131 132.999h35v-356h-35c-20 50.667 -47.667 85.5 -83 104.5s-107.333 28.5 -216 28.5h-252v-577c0 -66.667 7.66699 -112.334 23 -137.001c14.667 -29.333 38.334 -44 71.001 -44v-39h-397z" />
    <glyph glyph-name="G" unicode="G" horiz-adv-x="1503" 
d="M1053 867v31.999h381v-32c-22 0 -42.667 -11 -62 -33c-14.667 -23.333 -22 -52 -22 -86v-443c0 -83.333 29.333 -125 88 -125v-26c-120 -60.667 -239.333 -107 -358 -139s-224.667 -48 -318 -48c-108.667 0 -204.834 20 -288.501 60s-161.5 101.333 -233.5 184
c-112.667 130 -169 296.667 -169 500c0 121.333 22 233.333 66 336s107.667 193.334 191 272.001c63.333 60 139 106.667 227 140c86 32.667 180.333 49 283 49c82 0 165.333 -14.333 250 -43c82.667 -28 168.667 -70.333 258 -127l-58 -248l-34 2
c-50 114 -116.5 200.833 -199.5 260.5s-176.5 89.5 -280.5 89.5c-176.667 0 -304.667 -77.333 -384 -232c-60.667 -118 -91 -274.667 -91 -470c0 -201.333 32.333 -362 97 -482c83.333 -155.333 217 -233 401 -233c90.667 0 168.334 17.667 233.001 53
c79.333 44 119 107.667 119 191v448c0 90.667 -32 140.667 -96 150z" />
    <glyph glyph-name="H" unicode="H" horiz-adv-x="1428" 
d="M76 0l0.000976562 39c62.667 0 94 60 94 180v1035c0 66.667 -7.33301 113 -22 139c-16 28.667 -40 43 -72 43v39h397v-39c-62.667 0 -94 -60.667 -94 -182v-406h670v406c0 121.333 -32 182 -96 182v39h399v-39c-64 0 -96 -60.667 -96 -182l6 -1125
c8.66699 -40 24.334 -66 47.001 -78c9.33301 -5.33301 23.666 -9.33301 42.999 -12v-39h-399v39c35.333 0 59.666 15 72.999 45c15.333 27.333 23 72.333 23 135v559h-670v-559c0 -64 7.83301 -110 23.5 -138s39.167 -42 70.5 -42v-39h-397z" />
    <glyph glyph-name="I" unicode="I" horiz-adv-x="574" 
d="M86 0v38.999c62.667 0 94 60 94 180v1035c0 121.333 -31.333 182 -94 182v39h402v-39c-63.333 0 -95 -60.667 -95 -182v-1035c0 -63.333 7.33301 -109.166 22 -137.499s39 -42.5 73 -42.5v-39h-402z" />
    <glyph glyph-name="J" unicode="J" horiz-adv-x="584" 
d="M408 17c0 -96 -4.66797 -167.333 -14.001 -214c-15.333 -74.667 -46.333 -138 -93 -190c-66.667 -74 -157.334 -111 -272.001 -111c-122 0 -183 43 -183 129c0 30.667 10.833 57.167 32.5 79.5s47.834 33.5 78.501 33.5c38.667 0 76.334 -33 113.001 -99l10 -18
c18 -32.667 38 -49 60 -49c28 0 45.333 17 52 51c2 9.33301 3 37.333 3 84v1541c0 75.333 -8.33301 124.333 -25 147c-8 10.667 -16.667 19 -26 25c-11.333 4 -25.666 7.33301 -42.999 10v39h401v-39c-32.667 0 -57.334 -14.333 -74.001 -43
c-13.333 -30 -20 -76.333 -20 -139v-1237z" />
    <glyph glyph-name="K" unicode="K" horiz-adv-x="1313" 
d="M76 0l0.000976562 39c62.667 0 94 60 94 180v1035c0 66.667 -7.33301 113 -22 139c-16 28.667 -40 43 -72 43v39h397v-39c-62.667 0 -94 -60.667 -94 -182v-641l287 317c146.667 162 233.334 263 260.001 303c34 51.333 51 90.333 51 117c0 27.333 -6.5 47.5 -19.5 60.5
s-32.5 21.5 -58.5 25.5v39h412v-39c-56.667 -12 -128.334 -60.667 -215.001 -146c-20.667 -20.667 -67.667 -71 -141 -151l-224 -244l383 -637c79.333 -138.667 145.666 -211.667 198.999 -219v-39h-430v39c42 0 63 22 63 66c0 28 -17.667 72.333 -53 133
c-6.66699 10.667 -19.667 31.667 -39 63l-264 443l-211 -228v-297c0 -64 7.83301 -110 23.5 -138s39.167 -42 70.5 -42v-39h-397z" />
    <glyph glyph-name="L" unicode="L" horiz-adv-x="1176" 
d="M86 0v39.0029c62.667 0 94 60 94 180v1035c0 121.333 -31.333 182 -94 182v39h402v-39c-63.333 0 -95 -60.667 -95 -182v-1041c0 -62.667 10.333 -101.334 31 -116.001c19.333 -16.667 65 -25 137 -25c105.333 0 184.5 5.66699 237.5 17s97.5 26.666 133.5 45.999
c24 13.333 52 36.666 84 69.999c37.333 39.333 69.333 79 96 119l45 -15l-75 -309h-996z" />
    <glyph glyph-name="M" unicode="M" horiz-adv-x="1684" 
d="M-25 0l-0.00195312 39.001c64 16 112.667 74.667 146 176c10.667 32 19.334 71 26.001 117l133 956c1.33301 39.333 -4.66699 71 -18 95c-14 20 -38.667 37.667 -74 53l1 39h325l342 -1182l320 1182h307v-39c-22 0 -41.667 -10.333 -59 -31
c-19.333 -24 -28.333 -49.333 -27 -76l2 -36l4 -33l143 -1006c18.667 -132 56.334 -203.667 113.001 -215v-39h-397v39c28 0 50.333 12 67 36c15.333 21.333 23 46.333 23 75v22l-4 29l-154 1077l-348 -1295h-102l-385 1295l-146 -1042
c-4.66699 -114.667 37 -180.334 125 -197.001v-39h-363z" />
    <glyph glyph-name="N" unicode="N" horiz-adv-x="1395" 
d="M152 301v940c0 61.333 -9.66699 109.333 -29 144c-20.667 30 -52 47 -94 51v39h311l826 -1157v727c0 108.667 -5 185.334 -15 230.001c-21.333 92 -67 145.667 -137 161v39h330v-39c-39.333 -24.667 -67.333 -60.334 -84 -107.001c-15.333 -42.667 -23 -132.667 -23 -270
v-1076h-84l-930 1303v-968c0 -84 11.5 -148.5 34.5 -193.5s59.5 -73.5 109.5 -85.5v-39h-354v39c49.333 20 84.833 50.333 106.5 91s32.5 97.667 32.5 171z" />
    <glyph glyph-name="O" unicode="O" horiz-adv-x="1471" 
d="M735 25c284 0 425.999 246.333 425.999 739c0 232.667 -34.667 405.5 -104 518.5s-176.666 169.5 -321.999 169.5c-161.333 0 -278.333 -85.667 -351 -257c-51.333 -122 -77 -276.667 -77 -464c0 -470.667 142.667 -706 428 -706zM732.999 -33
c-170.667 0 -314.666 55.3311 -431.999 165.998c-76 72 -134.333 164.333 -175 277c-36.667 102.667 -55 211 -55 325c0 236.667 83.667 437.667 251 603c32.667 32 62 56.667 88 74c24 15.333 58.667 32.333 104 51c74 30 150.667 45 230 45c68 0 139.667 -13 215 -39
c69.333 -24 128.666 -59.667 177.999 -107c174.667 -167.333 262 -372.666 262 -615.999c0 -113.333 -18.167 -217.666 -54.5 -312.999s-91.833 -185 -166.5 -269c-116.667 -131.333 -265 -197 -445 -197z" />
    <glyph glyph-name="P" unicode="P" horiz-adv-x="1256" 
d="M379 729l79.999 -10l90 -4c152.667 -6.66699 272.334 23.333 359.001 90c77.333 60 116 150 116 270c0 116 -35.333 205.667 -106 269s-174.667 95 -312 95c-77.333 0 -130 -6.33301 -158 -19c-46 -20.667 -69 -64 -69 -130v-561zM75.999 0l-0.000976562 38.999
c62.667 0 94 60 94 180v1035c0 66.667 -7.33301 113 -22 139c-16 28.667 -40 43 -72 43v39l469 22c208 4.66699 377.333 -32.666 508 -111.999c122.667 -75.333 184 -180 184 -314c0 -153.333 -72.667 -265.333 -218 -336c-109.333 -53.333 -249.666 -80 -420.999 -80h-73
c-16.667 2.66699 -29 4 -37 4l-109 12v-452c0 -64 7.83301 -110 23.5 -138s39.167 -42 70.5 -42v-39h-397z" />
    <glyph glyph-name="Q" unicode="Q" horiz-adv-x="1471" 
d="M981 107c34 25.333 62.666 55.999 85.999 91.999c69.333 106 104 294.333 104 565c0 230 -36 402.167 -108 516.5s-181.333 171.5 -328 171.5c-164 0 -283 -84.667 -357 -254c-52.667 -122 -79 -277.667 -79 -467c0 -241.333 35.667 -419.333 107 -534
c74 -120.667 183 -178 327 -172l50 2l34 8c-35.333 76.667 -73 134.334 -113 173.001s-81.333 58 -124 58c-15.333 0 -28.333 -2.66699 -39 -8c-12.667 -1.33301 -25 -7.33301 -37 -18l-22 29c36 26.667 67.333 45 94 55c29.333 10.667 59.333 16 90 16
c58.667 0 114.834 -19.167 168.501 -57.5s102.5 -96.833 146.5 -175.5zM1028 40.999c78 -130 162.003 -195.001 252.003 -195.001c25.333 0 49.166 5.5 71.499 16.5s40.166 25.5 53.499 43.5l21 -27c-71.333 -106.667 -159.666 -160 -264.999 -160
c-62.667 0 -120.167 22 -172.5 66s-99.166 108.667 -140.499 194l-53 -10l-62 -2c-82 -2.66699 -161.667 11 -239 41c-168.667 65.333 -289.667 194.666 -363 387.999c-40 104.667 -60 217.667 -60 339c0 120 20.667 229.333 62 328s104.333 190.334 189 275.001
c31.333 31.333 60.666 56 87.999 74c24 15.333 58.667 32.333 104 51c74 30 150.667 45 230 45c68 0 139.667 -13 215 -39c69.333 -24 128.666 -59.667 177.999 -107c174.667 -167.333 262 -372.666 262 -615.999c0 -144.667 -32 -278 -96 -400
c-64.667 -124 -156.334 -225.667 -275.001 -305z" />
    <glyph glyph-name="R" unicode="R" horiz-adv-x="1305" 
d="M379 744l63.999 -9l90 -2c157.333 -3.33301 280 25.334 368 86.001c82 56.667 123 143.667 123 261c0 115.333 -35.333 204.666 -106 267.999c-32 28.667 -74.667 51.5 -128 68.5s-111.666 25.5 -174.999 25.5c-79.333 0 -135.333 -8.66699 -168 -26
c-45.333 -24.667 -68 -72.667 -68 -144v-528zM75.999 0l-0.000976562 38.999c62.667 0 94 60 94 180v1035c0 66.667 -7.33301 113 -22 139c-16 28.667 -40 43 -72 43v39l526 22c190 5.33301 347.667 -32.667 473 -114c118 -76.667 177 -180 177 -310
c0 -104.667 -43.667 -191.334 -131 -260.001c-72.667 -57.333 -165.667 -96.666 -279 -117.999c143.333 -415.333 291.333 -688.666 444 -819.999v-43c-140 58 -269.167 160.833 -387.5 308.5s-214.166 326.834 -287.499 537.501h-48l-47 -2l-131 4l-6 -461
c-0.666992 -62.667 7 -108.334 23 -137.001s39.667 -43 71 -43v-39h-397z" />
    <glyph glyph-name="S" unicode="S" horiz-adv-x="1161" 
d="M72 158l80.001 285.002l45 -9c28 -126.667 79.667 -226.167 155 -298.5s164.333 -108.5 267 -108.5c94.667 0 170.834 27.167 228.501 81.5s86.5 122.833 86.5 205.5c0 80 -23 144.667 -69 194c-49.333 53.333 -146.333 107.333 -291 162l-58 22
c-134.667 51.333 -227.334 103.333 -278.001 156c-32 33.333 -58 73.666 -78 120.999c-19.333 45.333 -29 91.666 -29 138.999c0 120 45 217.667 135 293c84.667 71.333 188 107 310 107c72 0 142.833 -11.5 212.5 -34.5s146.167 -60.167 229.5 -111.5l-65 -254l-41 8
c-24 94.667 -65 171 -123 229c-64.667 66 -142.667 99 -234 99c-78.667 0 -143.667 -20.333 -195 -61c-56 -44 -84 -104.333 -84 -181c0 -79.333 35 -145.666 105 -198.999c37.333 -28.667 107.666 -64.667 210.999 -108l57 -24c182 -76.667 293.333 -135.334 334 -176.001
c38 -38 65.833 -79.333 83.5 -124s26.5 -97.667 26.5 -159c0 -136 -49.667 -245.333 -149 -328c-93.333 -78 -209.333 -117 -348 -117c-199.333 0 -374 63.667 -524 191z" />
    <glyph glyph-name="T" unicode="T" horiz-adv-x="1270" 
d="M434 0v39c63.333 0 95 60 95 180v1125c0 39.333 -18.667 59 -56 59c-108.667 0 -193.334 -17.333 -254.001 -52c-62.667 -34.667 -120.667 -98.667 -174 -192l-45 19l78 297h1114l78 -297l-45 -19c-50 92 -104.667 155.667 -164 191s-146.666 53 -261.999 53
c-38 0 -57 -19.667 -57 -59v-1125c0 -65.333 7.33301 -111 22 -137c16 -28.667 40.667 -43 74 -43v-39h-404z" />
    <glyph glyph-name="U" unicode="U" horiz-adv-x="1428" 
d="M180 1254c0 121.333 -31.333 182 -94 182v39h402v-39c-63.333 0 -95 -60.667 -95 -182v-732c0 -172.667 28.667 -293.5 86 -362.5s156.333 -103.5 297 -103.5c58.667 0 114 7 166 21c47.333 12.667 89 33.667 125 63c46.667 38 79.667 90.333 99 157
c18.667 64 28 175.333 28 334v487c0 196.667 -47.667 302.667 -143 318v39h346v-39c-46.667 -14.667 -80 -46 -100 -94c-21.333 -51.333 -32 -129.333 -32 -234v-479c0 -136 -7.16699 -239.833 -21.5 -311.5s-37.5 -128.167 -69.5 -169.5
c-92.667 -120.667 -245 -181 -457 -181c-96 0 -184 16 -264 48c-134.667 54 -218 144.667 -250 272c-15.333 61.333 -23 153.333 -23 276v691z" />
    <glyph glyph-name="V" unicode="V" horiz-adv-x="1229" 
d="M551 -33l-437.003 1274c-13.333 38.667 -22.666 64 -27.999 76c-6.66699 14.667 -17.667 33.667 -33 57c-21.333 32 -45.333 52.667 -72 62v39h396v-39c-46.667 -8.66699 -70 -34.667 -70 -78l4 -31l12 -45l357 -1065l320 1073c0 36 -9.66699 68.333 -29 97
s-42.666 45 -69.999 49v39h346v-39c-87.333 -38 -154.666 -133 -201.999 -285l-369 -1184h-125z" />
    <glyph glyph-name="W" unicode="W" horiz-adv-x="1919" 
d="M588 -17l-452.998 1258c-18.667 50.667 -40.834 94 -66.501 130s-51.834 57.667 -78.501 65v39h397v-39c-46 -8.66699 -69 -34.667 -69 -78l4 -35l12 -41l367 -1030l217 760l-56 184c-33.333 108.667 -59 173.667 -77 195c-19.333 30 -46 45 -80 45v39h407v-39
c-24.667 0 -43.667 -9 -57 -27c-14 -13.333 -21 -34.333 -21 -63l3 -27l10 -39l301 -1028l125 357c60.667 172.667 109.667 324.667 147 456c27.333 95.333 41 169.666 41 222.999c0 90 -33.333 139.333 -100 148v39h368v-39c-37.333 -6.66699 -71.333 -34 -102 -82
c-14 -22 -32.333 -60.333 -55 -115c-31.333 -76 -58 -145.667 -80 -209l-348 -1047h-121l-268 906l-246 -906h-121z" />
    <glyph glyph-name="X" unicode="X" horiz-adv-x="1313" 
d="M0 0v38.998c37.333 8 87.333 44.333 150 109c29.333 30 60 66.667 92 110c42 55.333 74 100.333 96 135l213 334l-321 492c-38.667 59.333 -78.334 111 -119.001 155c-36 38.667 -65.333 59.334 -88 62.001v39h440v-39c-19.333 0 -34.666 -5.5 -45.999 -16.5
s-17 -26.167 -17 -45.5c0 -17.333 15 -50 45 -98l10 -16l244 -381l159 256c45.333 72.667 68 135.334 68 188.001c0 75.333 -31.333 113 -94 113v39h405v-39c-88.667 -35.333 -176.667 -121.333 -264 -258l-231 -361l424 -639c14 -21.333 29.667 -42.333 47 -63
c15.333 -20.667 26.666 -34.334 33.999 -41.001c21.333 -19.333 43.333 -31 66 -35v-39h-451v39c50.667 8.66699 76 33.334 76 74.001c0 9.33301 -4 22.333 -12 39l-51 86l-281 430l-186 -315c-5.33301 -10 -17.666 -33.333 -36.999 -70
c-14.667 -28 -23.667 -46.333 -27 -55c-12 -32.667 -18 -61.334 -18 -86.001c0 -57.333 24 -91.666 72 -102.999v-39h-398z" />
    <glyph glyph-name="Y" unicode="Y" horiz-adv-x="1262" 
d="M424 0v38.999c64 0 96 60 96 180v375l-350 635c-66 131.333 -126 201 -180 209v37h414v-37c-38.667 -2.66699 -60.667 -21.667 -66 -57c0 -27.333 14.333 -66.333 43 -117c4.66699 -8 15 -26.333 31 -55l283 -517l243 447c23.333 42.667 39 78.667 47 108
c10 36.667 15 65.334 15 86.001c0 27.333 -9.16699 51.666 -27.5 72.999s-40.833 32 -67.5 32v37h365v-37c-34 -4 -64.667 -20.333 -92 -49c-34 -36 -77.667 -102.333 -131 -199l-318 -579v-392c0 -63.333 7.33301 -109.166 22 -137.499s39 -42.5 73 -42.5v-39h-400z" />
    <glyph glyph-name="Z" unicode="Z" horiz-adv-x="1233" 
d="M0 0v32.999l903 1370h-190c-109.333 0 -188.5 -4.66699 -237.5 -14s-92.167 -25 -129.5 -47c-26 -15.333 -55.333 -39.333 -88 -72l-98 -121l-41 15l61 311h1014l-925 -1403h354c120.667 0 220 21 298 63c80.667 42.667 152 114.334 214 215.001l49 -16l-84 -334h-1100z
" />
    <glyph glyph-name="bracketleft" unicode="[" horiz-adv-x="772" 
d="M295 -451v1926h455v-58l-58 5l-32 2c-69.333 4.66699 -119.333 -7.66602 -150 -36.999c-27.333 -26 -41 -86 -41 -180v-1390c0 -94.667 14.333 -154.667 43 -180c32.667 -28.667 82 -41 148 -37l32 2l58 5v-58h-455z" />
    <glyph glyph-name="backslash" unicode="\" horiz-adv-x="768" 
d="M832 -191l-885 1662l72 37l884 -1660z" />
    <glyph glyph-name="bracketright" unicode="]" horiz-adv-x="772" 
d="M479 1475v-1926h-454v58l57 -5l33 -2c65.333 -4 114.333 9 147 39c27.333 25.333 41 84.666 41 177.999v1390c0 93.333 -13.667 152.666 -41 177.999c-32.667 30 -81.667 43 -147 39l-33 -2l-57 -5v58h454z" />
    <glyph glyph-name="asciicircum" unicode="^" horiz-adv-x="2048" 
d="M926 1463h195l512 -566h-98l-513 420l-514 -420h-96z" />
    <glyph glyph-name="underscore" unicode="_" 
d="M0 -340h1024v-144h-1024v144z" />
    <glyph glyph-name="grave" unicode="`" 
d="M400 1420l288.001 -299h-67l-330 204c-41.333 25.333 -62 53.333 -62 84c0 20.667 6.66699 37.5 20 50.5s30.666 19.5 51.999 19.5c20 0 42 -9.66699 66 -29c12 -9.33301 23 -19.333 33 -30z" />
    <glyph glyph-name="a" unicode="a" horiz-adv-x="905" 
d="M588 574c-110 -46.667 -186.667 -85.667 -230 -117c-84 -60 -126 -129.667 -126 -209c0 -48.667 12 -89.667 36 -123c26.667 -36.667 63.667 -55 111 -55c69.333 0 139 43.667 209 131v373zM889 74c-50.667 -68.667 -108.001 -102.998 -172.001 -102.998
c-86 0 -129 48 -129 144c-63.333 -48.667 -118 -84.334 -164 -107.001c-50 -24.667 -101.667 -37 -155 -37c-65.333 0 -118 20.667 -158 62s-60 94 -60 158c0 106 66.667 200.667 200 284c59.333 37.333 171.666 88.666 336.999 153.999v147c0 122 -42.333 183 -127 183
c-45.333 0 -79.666 -15.667 -102.999 -47c-14.667 -19.333 -30 -56.333 -46 -111c-18.667 -64 -56.334 -96 -113.001 -96c-26.667 0 -48.667 9.33301 -66 28s-26 41.334 -26 68.001c0 70 44.333 124.333 133 163c69.333 30.667 143.666 46 222.999 46
c102.667 0 177.334 -20 224.001 -60c50 -42.667 75 -114.334 75 -215.001v-587c0 -30 3.33301 -53.333 10 -70c8.66699 -13.333 20.334 -20 35.001 -20c20.667 0 38.334 13 53.001 39z" />
    <glyph glyph-name="b" unicode="b" horiz-adv-x="1014" 
d="M307 752v-443c0 -88 20 -157.333 60 -208s94.667 -76 164 -76c74 0 131.333 36 172 108c39.333 70 59 171 59 303c0 306 -79 459 -237 459c-42 0 -81.667 -12.333 -119 -37c-34 -22 -67 -57.333 -99 -106zM60 90c24 16 42.3311 41.999 54.998 77.999
c12 34 18 79.667 18 137v914c0 76 -27.333 117.667 -82 125v30c39.333 9.33301 80 26.333 122 51s76 52.334 102 83.001h32v-678c40 57.333 86.667 102.333 140 135c48.667 30 102.667 45 162 45c103.333 0 185 -41 245 -123s90 -194.667 90 -338
c0 -147.333 -31.333 -274.666 -94 -381.999c-75.333 -130 -181.666 -195 -318.999 -195c-59.333 0 -134.666 18.333 -225.999 55s-147.333 55 -168 55l-28 -4c-11.333 -2.66699 -22.333 -7.33398 -33 -14.001z" />
    <glyph glyph-name="c" unicode="c" horiz-adv-x="854" 
d="M789 213l30.001 -22.001c-103.333 -146.667 -223.333 -220 -360 -220c-119.333 0 -215.666 45.333 -288.999 136c-72 88.667 -108 208.667 -108 360c0 148 36.333 272.333 109 373c81.333 113.333 193 170 335 170c68 0 132.333 -18.667 193 -56
c69.333 -43.333 104 -97 104 -161c0 -62.667 -29.333 -94 -88 -94c-56 0 -93 38.667 -111 116l-4 17c-9.33301 38.667 -25.666 69.334 -48.999 92.001c-10.667 8.66699 -19.334 15 -26.001 19c-16.667 8 -38 12 -64 12c-84 0 -145 -48.667 -183 -146
c-26.667 -68 -40 -152 -40 -252c0 -118 21 -219.667 63 -305c53.333 -109.333 133.333 -164 240 -164c43.333 0 87.666 11 132.999 33s83.666 52.667 114.999 92z" />
    <glyph glyph-name="d" unicode="d" horiz-adv-x="1028" 
d="M717 221v372.999c0 98.667 -16.333 179.334 -49 242.001c-42 82 -107.667 123 -197 123c-146 0 -219 -139.333 -219 -418c0 -148.667 22 -264 66 -346s104 -123 180 -123c86.667 0 159.667 49.667 219 149zM717 132.999
c-81.333 -107.333 -181.666 -160.999 -300.999 -160.999c-103.333 0 -186.666 43 -249.999 129s-95 199.333 -95 340c0 146.667 30.333 272.667 91 378c73.333 127.333 178.333 191 315 191c50 0 95.167 -9.5 135.5 -28.5s75.166 -49.167 104.499 -90.5v328
c0 76 -27.333 117.667 -82 125v30c91.333 22 165.666 66.667 222.999 134h33v-1338c0 -44.667 6.33301 -77.334 19 -98.001c10.667 -22 29.667 -33 57 -33v-38h-250v132z" />
    <glyph glyph-name="e" unicode="e" horiz-adv-x="901" 
d="M239 609h300c42 0 64.667 0.333008 68 1c22 5.33301 34.667 20.666 38 45.999c0 98.667 -17 173.834 -51 225.501s-82.333 77.5 -145 77.5c-140 0 -210 -113.333 -210 -340v-10zM807 215l39 -23.999c-96.667 -146.667 -218 -220 -364 -220
c-122 0 -222.667 47.333 -302 142s-119 214.667 -119 360c0 146 29.333 267 88 363c70 116 173.333 174 310 174c104.667 0 189.334 -41 254.001 -123c36.667 -46 63.5 -95.333 80.5 -148s25.5 -117.334 25.5 -194.001h-580c0 -137.333 31 -250 93 -338
c58 -82 135 -123 231 -123c95.333 0 176.666 43.667 243.999 131z" />
    <glyph glyph-name="f" unicode="f" horiz-adv-x="522" 
d="M76 0l0.000976562 39c50 0 75 43.667 75 131v745h-126v66h126l-16 248c-5.33301 80 15.334 148.333 62.001 205c40.667 49.333 96.667 74 168 74c45.333 0 84.666 -12.667 117.999 -38s50 -56.333 50 -93c0 -22.667 -7.33301 -42.334 -22 -59.001
s-33.334 -25 -56.001 -25c-43.333 0 -77.333 30 -102 90c-6.66699 17.333 -15 30.333 -25 39c-9.33301 6.66699 -20.333 10 -33 10c-34 0 -51 -19.333 -51 -58c0 -9.33301 15 -57.666 45 -144.999c28.667 -83.333 43 -164 43 -242l195 -6v-66h-195v-745
c0 -87.333 25.333 -131 76 -131v-39h-332z" />
    <glyph glyph-name="g" unicode="g" horiz-adv-x="977" 
d="M291 -13c-38 -21.333 -67.333 -47 -88 -77c-19.333 -34.667 -29 -71.667 -29 -111c0 -58 25.833 -105.333 77.5 -142s118.167 -55 199.5 -55c229.333 0 344 61.667 344 185c0 70.667 -71 123 -213 157c-12 2.66699 -109 17 -291 43zM258 656
c0 -98.667 15.5 -171.833 46.5 -219.5s77.167 -71.5 138.5 -71.5c129.333 0 194 97.667 194 293c0 206 -62 309 -186 309c-128.667 0 -193 -103.667 -193 -311zM232 0.000976562c-52.667 13.333 -95.665 34.6709 -128.998 64.0039c-30 26.667 -45 57.334 -45 92.001
c0 36.667 15.667 70.667 47 102c24 29.333 73 64.333 147 105c-117.333 62.667 -176 159 -176 289c0 98 38.167 182.167 114.5 252.5s169.833 105.5 280.5 105.5c51.333 0 98.833 -9.83301 142.5 -29.5s82.167 -48.167 115.5 -85.5c27.333 24 67.666 54.667 120.999 92
c30 19.333 55.333 29 76 29c23.333 0 43.833 -8.5 61.5 -25.5s26.5 -37.167 26.5 -60.5c0 -22 -9.16699 -40.5 -27.5 -55.5s-38.5 -22.5 -60.5 -22.5c-27.333 0 -60.666 14.333 -99.999 43c-12.667 -2.66699 -20.334 -5.33398 -23.001 -8.00098l-37 -31
c17.333 -22.667 30.333 -50 39 -82c9.33301 -35.333 14 -67.333 14 -96c0 -106.667 -39.333 -193.334 -118 -260.001c-75.333 -64 -167 -96 -275 -96l-65 6l-64 17c-73.333 -44.667 -110 -85.334 -110 -122.001c0 -20 10.667 -37 32 -51c22.667 -10 65.667 -20.667 129 -32
l105 -19c213.333 -38.667 334.666 -67.334 363.999 -86.001c44 -28 75 -57.333 93 -88c20 -34.667 30 -74.334 30 -119.001c0 -101.333 -56.333 -176.333 -169 -225c-82.667 -36 -182 -54 -298 -54c-141.333 0 -251.333 19.833 -330 59.5s-118 92.167 -118 157.5
c0 42 16.333 82.333 49 121c27.333 32 80 69.667 158 113z" />
    <glyph glyph-name="h" unicode="h" horiz-adv-x="973" 
d="M66 0l0.000976562 38.998c50.667 0 76 43.667 76 131v1049c0 76.667 -26.667 118.334 -80 125.001v30c91.333 22.667 165.666 67.334 222.999 134.001h33v-682l37 24c164.667 106.667 277 160 337 160c98.667 0 148 -63.667 148 -191v-649c0 -44.667 5.33301 -78 16 -100
c14 -20.667 34 -31 60 -31v-39h-328v39c50.667 0 76 43.667 76 131v561c0 46 -4.33301 78 -13 96c-12.667 28 -39 42 -79 42c-53.333 0 -138 -33.667 -254 -101v-598c0 -30 1 -51.167 3 -63.5s6.33301 -24.5 13 -36.5c14 -20.667 33.667 -31 59 -31v-39h-327z" />
    <glyph glyph-name="i" unicode="i" horiz-adv-x="473" 
d="M76 0l0.000976562 39.001c50 0 75 43.667 75 131v588c0 40 -3.66699 68 -11 84c-11.333 24.667 -34 39 -68 43v31c77.333 17.333 151.666 61.666 222.999 132.999h37v-879c0 -87.333 25.333 -131 76 -131v-39h-332zM240.001 1215
c-33.333 0 -62.165 12.168 -86.498 36.501s-36.5 53.166 -36.5 86.499s12.167 62 36.5 86s53.166 36 86.499 36c35.333 0 64.666 -11.5 87.999 -34.5s35 -52.167 35 -87.5c0 -32 -12.333 -61.333 -37 -88c-26 -23.333 -54.667 -35 -86 -35z" />
    <glyph glyph-name="j" unicode="j" horiz-adv-x="473" 
d="M151 758c0 40 -3.66602 67.999 -10.999 83.999c-11.333 24.667 -34 39 -68 43v31c77.333 17.333 151.666 61.666 222.999 132.999h37v-1066c0 -2.66699 1 -13 3 -31c2.66699 -21.333 4.33398 -41 5.00098 -59l6 -110c3.33301 -64.667 -16.334 -121 -59.001 -169
c-39.333 -43.333 -91.333 -65 -156 -65c-40 0 -74.333 11.333 -103 34c-31.333 24.667 -47 56.334 -47 95.001c0 20.667 7 41.334 21 62.001c15.333 16 34 24 56 24c34 0 62 -21 84 -63c22.667 -44 39 -66 49 -66c8 0 14.667 5 20 15l6 41c0 27.333 -10.333 68 -31 122
l-8 21l-21 72c-4 14 -6 40.333 -6 79v773zM240.001 1215c-33.333 0 -62.165 12.168 -86.498 36.501s-36.5 53.166 -36.5 86.499s12.167 62 36.5 86s53.166 36 86.499 36c35.333 0 64.666 -11.5 87.999 -34.5s35 -52.167 35 -87.5c0 -32 -12.333 -61.333 -37 -88
c-26 -23.333 -54.667 -35 -86 -35z" />
    <glyph glyph-name="k" unicode="k" horiz-adv-x="948" 
d="M66 0l0.000976562 38.999c50.667 0 76 43.667 76 131v1049c0 76.667 -26.667 118.334 -80 125.001v30c91.333 22.667 165.666 67.334 222.999 134.001h33v-1074l204 232c80.667 92 121 159.667 121 203c0 42 -18.333 67 -55 75v37h342v-37
c-48 -9.33301 -106.667 -51 -176 -125l-205 -219l244 -395c16.667 -27.333 34.167 -54.5 52.5 -81.5s31.5 -43.5 39.5 -49.5c8 -10 18.333 -17.667 31 -23c8.66699 -6 18 -10 28 -12v-39h-354v39c12.667 0 25.667 2.66699 39 8c8 7.33301 12 17.666 12 30.999l-8 37l-24 49
l-185 307l-106 -112v-189c0 -30 1 -51.167 3 -63.5s6.33301 -24.5 13 -36.5c14 -20.667 33.667 -31 59 -31v-39h-327z" />
    <glyph glyph-name="l" unicode="l" horiz-adv-x="465" 
d="M66 0l0.000976562 38.998c50.667 0 76 43.667 76 131v1049c0 76.667 -26.667 118.334 -80 125.001v30c91.333 22.667 165.666 67.334 222.999 134.001h37v-1338c0 -87.333 25.333 -131 76 -131v-39h-332z" />
    <glyph glyph-name="m" unicode="m" horiz-adv-x="1493" 
d="M66 0l-0.00195312 39.002c50.667 0 76 43.667 76 131v551c0 45.333 -6.33301 76 -19 92c-9.33301 18 -29.666 29 -60.999 33v31c38.667 8.66699 79 25.667 121 51c38.667 23.333 72.667 50.666 102 81.999h33v-184l37 24c164.667 106.667 277 160 337 160
c98.667 0 148 -52 148 -156v-28l37 24c164.667 106.667 277.334 160 338.001 160c96.667 0 145 -63.667 145 -191v-649c0 -44.667 6.33301 -77.334 19 -98.001c10.667 -22 29.667 -33 57 -33v-39h-326v39c50.667 0 76 43.667 76 131v561c0 52 -6.66699 88.333 -20 109
c-15.333 19.333 -40 29 -74 29c-57.333 0 -141.333 -33.667 -252 -101v-598c0 -44.667 5.33301 -78 16 -100c14 -20.667 34 -31 60 -31v-39h-328v39c50.667 0 76 43.667 76 131v561c0 46 -4.33301 78 -13 96c-12.667 28 -39 42 -79 42c-53.333 0 -138 -33.667 -254 -101
v-598c0 -30 1 -51.167 3 -63.5s6.33301 -24.5 13 -36.5c14 -20.667 33.667 -31 59 -31v-39h-327z" />
    <glyph glyph-name="n" unicode="n" horiz-adv-x="973" 
d="M66 0l-0.000976562 39.001c50.667 0 76 43.667 76 131v551c0 45.333 -6.33301 76 -19 92c-9.33301 18 -29.666 29 -60.999 33v31c38.667 8.66699 79 25.667 121 51c38.667 23.333 72.667 50.666 102 81.999h33v-184l37 24c164.667 106.667 277 160 337 160
c98.667 0 148 -63.667 148 -191v-649c0 -44.667 5.33301 -78 16 -100c14 -20.667 34 -31 60 -31v-39h-328v39c50.667 0 76 43.667 76 131v561c0 46 -4.33301 78 -13 96c-12.667 28 -39 42 -79 42c-53.333 0 -138 -33.667 -254 -101v-598c0 -30 1 -51.167 3 -63.5
s6.33301 -24.5 13 -36.5c14 -20.667 33.667 -31 59 -31v-39h-327z" />
    <glyph glyph-name="o" unicode="o" horiz-adv-x="991" 
d="M496 25c152.667 0 229.001 153.668 229.001 461.001c0 162.667 -18.5 282.167 -55.5 358.5s-94.833 114.5 -173.5 114.5c-74.667 0 -131.334 -38.333 -170.001 -115c-40 -78.667 -60 -194.667 -60 -348c0 -156.667 19.167 -274.334 57.5 -353.001s95.833 -118 172.5 -118
zM496.001 -27.999c-126 0 -230 48.667 -312 146s-123 222 -123 374c0 152.667 41.333 277.667 124 375c81.333 95.333 185 143 311 143c127.333 0 231.5 -48.167 312.5 -144.5s121.5 -220.833 121.5 -373.5c0 -140 -36.667 -259 -110 -357
c-80.667 -108.667 -188.667 -163 -324 -163z" />
    <glyph glyph-name="p" unicode="p" 
d="M307 754l-0.000976562 -333.999c0 -124.667 19.833 -221.334 59.5 -290.001s95.167 -103 166.5 -103c156.667 0 235 148.667 235 446c0 135.333 -21.167 238.833 -63.5 310.5s-102.166 107.5 -179.499 107.5c-60 0 -115.333 -25.333 -166 -76
c-18.667 -18.667 -36 -39 -52 -61zM57.999 -450.999l0.00195312 38.999c50 0 75 43.667 75 131v1002c0 39.333 -4.33301 67.333 -13 84c-11.333 22.667 -34.333 36.334 -69 41.001v31c39.333 8.66699 79.666 25.667 120.999 51c12.667 7.33301 29.667 18.333 51 33
c14 11.333 31.333 27.666 52 48.999h32v-184c44 63.333 92.333 109.833 145 139.5s109 44.5 169 44.5c116 0 203.333 -56 262 -168c46.667 -88.667 70 -196.667 70 -324c0 -137.333 -30.667 -257.666 -92 -360.999c-72.667 -123.333 -173.334 -185 -302.001 -185
c-94.667 0 -178.667 40 -252 120v-373c0 -87.333 25.333 -131 76 -131v-39h-325z" />
    <glyph glyph-name="q" unicode="q" horiz-adv-x="1010" 
d="M710 219v420.001c0 103.333 -18 182.166 -54 236.499s-89.333 81.5 -160 81.5c-79.333 0 -140 -36.333 -182 -109c-40 -69.333 -60 -176.333 -60 -321c0 -144 21.167 -254.5 63.5 -331.5s102.5 -115.5 180.5 -115.5c40 0 78 11.833 114 35.5s68.667 58.167 98 103.5z
M635 -450.999l-0.00195312 39c50 0 75 43.667 75 131v416c-16.667 -22.667 -37.667 -45 -63 -67c-28 -24 -53 -42.333 -75 -55c-49.333 -28 -100.666 -42 -153.999 -42c-106 0 -190.667 42 -254 126s-95 196.333 -95 337c0 151.333 36 281.333 108 390
c82.667 124 196.334 186 341.001 186c60 0 120.667 -16.667 182 -50c24 -12.667 47.333 -28 70 -46l84 96h33v-1290c0 -45.333 5.33301 -79 16 -101c14 -20.667 34 -31 60 -31v-39h-328z" />
    <glyph glyph-name="r" unicode="r" horiz-adv-x="721" 
d="M76 0l-0.000976562 39.001c50 0 75 43.667 75 131v551c0 45.333 -6 76 -18 92c-9.33301 18 -29.666 29 -60.999 33v31c79.333 18 153.666 61.667 222.999 131h37v-197c52 65.333 102 115.333 150 150c45.333 32.667 84 49 116 49c68.667 0 103 -39 103 -117
c0 -30 -11 -57.333 -33 -82c-23.333 -20 -50.666 -30 -81.999 -30c-18 0 -40 5.33301 -66 16c-6 2.66699 -16.667 5.66699 -32 9s-28.333 5.66602 -39 6.99902c-19.333 0 -38.666 -6 -57.999 -18c-18.667 -14 -38.334 -34.667 -59.001 -62v-563
c0 -87.333 25.333 -131 76 -131v-39h-332z" />
    <glyph glyph-name="s" unicode="s" horiz-adv-x="819" 
d="M62 107l66.999 199.999l35 -8c18.667 -81.333 53.667 -147.333 105 -198s109.333 -76 174 -76c48.667 0 90.167 16 124.5 48s51.5 72 51.5 120c0 36.667 -13 71.334 -39 104.001c-27.333 27.333 -90 64.333 -188 111l-6 4c-192.667 90 -289 191.667 -289 305
c0 88.667 28.667 159.667 86 213s134.333 80 231 80c25.333 0 49.333 -2 72 -6c13.333 -2.66699 36.333 -10 69 -22c51.333 -19.333 100 -47 146 -83l-64 -180l-33 8c-16.667 73.333 -44 130 -82 170s-83.667 60 -137 60c-45.333 0 -85.666 -15 -120.999 -45
c-31.333 -26.667 -47 -63.667 -47 -111c0 -38.667 15 -72.667 45 -102c34.667 -34 88.667 -65.667 162 -95l25 -10c206 -82.667 309 -187.667 309 -315c0 -96 -34.667 -172 -104 -228c-64.667 -52.667 -146 -79 -244 -79c-114.667 0 -230.667 45 -348 135z" />
    <glyph glyph-name="t" unicode="t" horiz-adv-x="584" 
d="M170 915l-127.001 0.000976562v46c64.667 45.333 116.667 102.666 156 171.999c18 32 35 71.5 51 118.5s29 96.167 39 147.5h57v-418h176v-66h-172v-674c0 -50.667 6.16699 -87 18.5 -109s30.833 -33 55.5 -33c29.333 0 55.333 11.333 78 34l29 -24
c-43.333 -92 -111.666 -138 -204.999 -138c-104 0 -156 65.667 -156 197v747z" />
    <glyph glyph-name="u" unicode="u" horiz-adv-x="963" 
d="M654 0l0.00390625 158c-128 -85.333 -210.667 -136.666 -248 -153.999c-46.667 -22 -88.334 -33 -125.001 -33c-98.667 0 -148 64.333 -148 193v594c0 77.333 -27.333 119.666 -82 126.999v31c63.333 14.667 120.666 43.334 171.999 86.001
c19.333 16 36.666 31.667 51.999 47h32v-795c0 -49.333 7.66699 -83.333 23 -102c12 -19.333 36.667 -29 74 -29c25.333 0 60.666 8.33301 105.999 25c48 18 96 41 144 69v506c0 52 -5.66699 91 -17 117c-12 20.667 -32.333 35 -61 43v35c32.667 12 53.667 20 63 24
c4.66699 1.33301 19.667 9.66602 45 24.999c13.333 8 32 19.667 56 35c10.667 7.33301 29.667 23 57 47h33v-836c0 -52.667 4 -89.667 12 -111c12.667 -34 40 -55 82 -63v-39h-270z" />
    <glyph glyph-name="v" unicode="v" horiz-adv-x="797" 
d="M353 -19l-276.999 836.001c-12.667 37.333 -26.5 66.666 -41.5 87.999s-29.833 34.333 -44.5 39v37h317v-37c-18.667 -1.33301 -33.667 -7.33301 -45 -18c-5.33301 -8 -9.33301 -22.333 -12 -43l6 -47c2 -14.667 7 -34.667 15 -60l184 -575l168 577l4 46
c2.66699 30.667 -3.33301 57.667 -18 81c-12.667 20 -30.667 33 -54 39v37h264v-37c-54.667 -22.667 -108.334 -118.667 -161.001 -288l-211 -675h-94z" />
    <glyph glyph-name="w" unicode="w" horiz-adv-x="1346" 
d="M373 -19l-270.001 775.001c-18 51.333 -31.667 86.666 -41 105.999c-23.333 49.333 -47.333 76.666 -72 81.999v37h328v-37c-40 -6 -60 -27.667 -60 -65l6 -33l7 -18l200 -631l150 584l-8 28c-4.66699 17.333 -9 31.666 -13 42.999c-6 18.667 -16 37.334 -30 56.001
s-33.333 30.667 -58 36v37h340v-37c-31.333 -10 -49.666 -33.667 -54.999 -71l2 -17l8 -28l172 -631l121 401c16.667 56 29 104.667 37 146c5.33301 28.667 8 55.334 8 80.001c0 31.333 -6.66699 56.333 -20 75c-12.667 22 -30 37 -52 45v37h297v-37
c-52 -15.333 -100.333 -77.333 -145 -186c-18 -44 -33.667 -87 -47 -129l-203 -648h-102l-209 709l-189 -709h-102z" />
    <glyph glyph-name="x" unicode="x" horiz-adv-x="869" 
d="M269 211c-10 -16 -17.666 -33.001 -22.999 -51.001l-8 -51c0 -41.333 21.667 -64.666 65 -69.999v-39h-303v39c52 0 109.333 48 172 144l193 296l-189 340c-6 10.667 -13.333 23.667 -22 39c-35.333 54.667 -65.333 83.334 -90 86.001l-4 37h317v-37
c-14.667 -2.66699 -24.834 -7.66699 -30.501 -15s-8.5 -17.333 -8.5 -30l2 -20l8 -19l131 -239l103 168c11.333 18.667 18.333 33.667 21 45l8 37c0 18.667 -5.33301 35.667 -16 51c-12.667 13.333 -29 20.666 -49 21.999l-1 37h289v-37
c-49.333 -7.33301 -108.666 -63.333 -177.999 -168l-141 -213l233 -413c6.66699 -11.333 15 -24.333 25 -39c7.33301 -13.333 19 -27 35 -41c21.333 -18 41.666 -28.333 60.999 -31v-39h-346v39c30.667 0 47.667 13 51 39l-4 25l-10 24l-162 293z" />
    <glyph glyph-name="y" unicode="y" horiz-adv-x="844" 
d="M375 0l-272 802.999c-16 47.333 -31.667 80 -47 98c-16.667 24.667 -35.334 39 -56.001 43v37h328v-37c-21.333 -4 -36.5 -10.833 -45.5 -20.5s-13.5 -24.5 -13.5 -44.5l4 -19l200 -628l162 499l12 54l7 57c0 60 -24 94 -72 102v37h280v-37
c-27.333 -7.33301 -56 -33.666 -86 -78.999c-25.333 -38.667 -54 -103 -86 -193l-274 -775c-36.667 -103.333 -66.667 -175.333 -90 -216c-51.333 -88 -110 -132 -176 -132c-33.333 0 -61.666 8.33301 -84.999 25c-26.667 18.667 -40 44 -40 76c0 26.667 8.16699 50 24.5 70
s37.5 30 63.5 30c8 0 26.333 -4.66699 55 -14c24.667 -11.333 44 -17 58 -17c24 0 48.333 20 73 60c10.667 16.667 23.667 46.667 39 90c10.667 29.333 19.667 59.333 27 90z" />
    <glyph glyph-name="z" unicode="z" horiz-adv-x="834" 
d="M0 0l605.001 915.001h-107c-164.667 0 -288.334 -60 -371.001 -180l-30 9l59 237h672v-39l-578 -874l29 -2h37c119.333 0 210 11.667 272 35c80 29.333 149 86.666 207 171.999l39 -13l-76 -260h-758z" />
    <glyph glyph-name="braceleft" unicode="{" 
d="M848 1516l-0.000976562 -53.001c-90 0 -151.667 -17.667 -185 -53s-50 -106 -50 -212v-141c0 -135.333 -14.333 -229.333 -43 -282c-37.333 -68.667 -115.333 -115.334 -234 -140.001c116.667 -22.667 194.334 -69.667 233.001 -141c29.333 -54 44 -147.667 44 -281v-141
c0 -104.667 16.667 -174.667 50 -210s95 -53 185 -53v-53h-10c-143.333 0 -243 25.333 -299 76s-84 141 -84 271v206c0 105.333 -20 179 -60 221c-38.667 40 -111 64.667 -217 74v64c100.667 0 174 24.667 220 74c38 40.667 57 114.334 57 221.001v207
c0 134.667 30.667 227.334 92 278.001c55.333 45.333 152.333 68 291 68h10z" />
    <glyph glyph-name="bar" unicode="|" 
d="M439 1565h149v-2049h-149v2049z" />
    <glyph glyph-name="braceright" unicode="}" 
d="M176 1516l11.001 -0.000976562c140.667 0 238.334 -22.333 293.001 -67c61.333 -50 92 -143 92 -279v-207c0 -106 19.167 -179 57.5 -219s111.166 -65.333 218.499 -76v-64c-101.333 0 -174.333 -24.333 -219 -73c-38 -41.333 -57 -115.333 -57 -222v-206
c0 -134 -27.667 -225.333 -83 -274s-156 -73 -302 -73h-11v53c90 0 152.333 18.667 187 56c32.667 34.667 49 103.667 49 207v141c0 134 14.333 227.667 43 281c38 69.333 115.667 116.333 233 141c-102.667 20.667 -174.334 59 -215.001 115s-61 158.333 -61 307v141
c0 98.667 -14.667 166.334 -44 203.001c-32.667 41.333 -96.667 62 -192 62v53z" />
    <glyph glyph-name="asciitilde" unicode="~" horiz-adv-x="1706" 
d="M1530 770l-0.000976562 -155.001c-134 -94.667 -263.667 -142 -389 -142c-64.667 0 -150 19.333 -256 58l-33 12l-16 7c-118.667 39.333 -209.667 59 -273 59c-57.333 0 -116 -12.333 -176 -37c-62 -25.333 -131.667 -65.666 -209 -120.999v155
c141.333 96 270.333 144 387 144c42.667 0 86.667 -4.66699 132 -14c28.667 -6 58.667 -13.667 90 -23c10.667 -3.33301 33.667 -11.333 69 -24l47 -17c105.333 -38 185.333 -57 240 -57c54 0 113.833 12.833 179.5 38.5s134.834 64.5 207.501 116.5z" />
    <glyph glyph-name="nonbreakingspace" unicode="&#xa0;" horiz-adv-x="1129" 
 />
    <glyph glyph-name="exclamdown" unicode="&#xa1;" horiz-adv-x="563" 
d="M295 1116l92.999 -778l8 -153c3.33301 -66.667 -5.66699 -120 -27 -160c-19.333 -36 -50 -54 -92 -54c-38.667 0 -68.167 17.667 -88.5 53s-30.5 89 -30.5 161v61c0 16.667 3 48.667 9 96c0 32.667 0.666992 54 2 64c2.66699 20.667 9.33398 71.667 20.001 153l69 557h37
zM401.999 1385c0 -33.333 -12.501 -62.167 -37.501 -86.5s-54.167 -36.5 -87.5 -36.5c-32.667 0 -62 11.667 -88 35c-23.333 26 -35 55.333 -35 88s12.333 61.334 37 86.001s53.334 37 86.001 37c34 0 63.333 -12.333 88 -37s37 -53.334 37 -86.001z" />
    <glyph glyph-name="cent" unicode="&#xa2;" horiz-adv-x="1129" 
d="M557 332v838.002c-128 -24.667 -192 -155.334 -192 -392.001c0 -222.667 64 -371.334 192 -446.001zM555 66.002l0.00195312 126.999c-122.667 12.667 -216.334 69 -281.001 169c-56.667 87.333 -85 196 -85 326c0 130.667 29.333 244 88 340
c66 108.667 159.333 174.334 280 197.001v94h65v-88c46 0 85.667 -5.33301 119 -16s67.666 -28.667 102.999 -54c57.333 -41.333 86 -90.333 86 -147c0 -25.333 -8.33301 -47.333 -25 -66s-37.667 -28 -63 -28c-56.667 0 -93 38 -109 114l-4 19
c-7.33301 34.667 -23 63.667 -47 87c-15.333 14 -35.333 24.667 -60 32v-860l46 -5c91.333 0 174.666 42.333 249.999 127l28 -24c-68.667 -96.667 -145.667 -161 -231 -193c-27.333 -10 -58.666 -18 -93.999 -24v-127h-66z" />
    <glyph glyph-name="sterling" unicode="&#xa3;" horiz-adv-x="1129" 
d="M152 0l0.00195312 106.998c88.667 18.667 165 53.334 229 104.001c76.667 60.667 115 131.667 115 213c0 49.333 -17 97.666 -51 144.999h-254v62h198c-142 151.333 -213 289.333 -213 414c0 116.667 39.333 214.334 118 293.001s176 118 292 118
c62 0 121.167 -10.833 177.5 -32.5s109.166 -54.5 158.499 -98.5l-57 -233l-39 2c-73.333 204.667 -169 307 -287 307c-60.667 0 -110 -21.667 -148 -65s-57 -99.333 -57 -168c0 -42 9 -85.167 27 -129.5s55.333 -101.5 112 -171.5l25 -31
c67.333 -83.333 109.666 -151.666 126.999 -204.999h219v-62h-205l2 -16v-16c0 -141.333 -79.667 -265 -239 -371h331c64.667 0 113.167 9.16699 145.5 27.5s62.5 55.5 90.5 111.5l41 -14l-94 -291h-764z" />
    <glyph glyph-name="currency" unicode="&#xa4;" horiz-adv-x="1241" 
d="M623 1190c-82 0 -153.168 -29.5 -213.501 -88.5s-90.5 -130.5 -90.5 -214.5c0 -83.333 30.333 -155 91 -215s131.667 -90 213 -90c84.667 0 156.334 29.667 215.001 89s88 131.333 88 216c0 84 -29.5 155.5 -88.5 214.5s-130.5 88.5 -214.5 88.5zM161.999 1424
l204.999 -205c76 57.333 160.667 86 254 86c46 0 91 -7.66699 135 -23s84.333 -36.333 121 -63l205 205l82 -80l-205 -207c28 -35.333 48.333 -74.333 61 -117c14 -48.667 21 -93.667 21 -135c0 -98 -27.333 -182 -82 -252l205 -205l-82 -82l-205 206
c-79.333 -58 -164 -87 -254 -87c-47.333 0 -93.166 7.66699 -137.499 23s-83.833 36.666 -118.5 63.999l-205 -206l-82 82l206 205c-30 39.333 -51 78.333 -63 117c-13.333 42 -20 87 -20 135c0 46 6.66699 90.333 20 133c12.667 40.667 33.667 80.334 63 119.001l-206 207z
" />
    <glyph glyph-name="yen" unicode="&#xa5;" horiz-adv-x="1129" 
d="M381 0l0.000976562 37c32.667 0 56 13.667 70 41c13.333 25.333 20 70.333 20 135v358h-413v66h383l-82 164h-301v68h268l-150 301c-22 44 -54.667 100.667 -98 170c-23.333 27.333 -47.333 43 -72 47v35h377v-35c-18.667 -1.33301 -33.667 -7.66602 -45 -18.999
c-10.667 -6.66699 -16 -19 -16 -37c0 -19.333 10.333 -50.666 31 -93.999c6 -12.667 17.333 -36.334 34 -71.001l242 -506l223 438c6 11.333 13.667 27.666 23 48.999c22 64 33 110.333 33 139c0 24.667 -8 47.667 -24 69s-36 32 -60 32v35h305v-35
c-46.667 -14 -105.334 -91.667 -176.001 -233l-5 -6l-141 -279h264v-67l-299 -1l-82 -164h381v-66h-405v-358c0 -117.333 29.333 -176 88 -176v-37h-373z" />
    <glyph glyph-name="brokenbar" unicode="&#xa6;" 
d="M439 408h149v-758h-149v758zM439 1432h149v-758h-149v758z" />
    <glyph glyph-name="section" unicode="&#xa7;" 
d="M250 758c0 -26 9.66797 -54.665 29.001 -85.998c21.333 -34.667 54.666 -74.334 99.999 -119.001c62.667 -62 108.334 -101 137.001 -117c33.333 -18.667 66.333 -28 99 -28c43.333 0 80.333 14.5 111 43.5s46 64.833 46 107.5c0 29.333 -9.5 59.666 -28.5 90.999
s-50.5 69.333 -94.5 114c-49.333 50 -95 87.667 -137 113c-38.667 23.333 -71.334 35 -98.001 35c-46 0 -84.833 -14.833 -116.5 -44.5s-47.5 -66.167 -47.5 -109.5zM592.001 363.002c67.333 -54 117.333 -104.836 150 -152.503s49 -97.167 49 -148.5
c0 -76.667 -32.667 -139.334 -98 -188.001c-59.333 -43.333 -129 -65 -209 -65c-52 0 -106 11.667 -162 35c-53.333 22.667 -105.333 56 -156 100l60 193l28 -8c16 -82.667 46 -149.167 90 -199.5s95.333 -75.5 154 -75.5c47.333 0 87.5 14.833 120.5 44.5
s49.5 67.834 49.5 114.501c0 34.667 -13.667 71.334 -41 110.001c-24 34.667 -69 80.334 -135 137.001l-180 156c-26 22.667 -52 48.667 -78 78c-14 16 -33.333 39 -58 69c-27.333 48 -41 96 -41 144c0 74 28.333 134 85 180c52.667 44 116.667 66 192 66h16
c-129.333 106.667 -194 206.334 -194 299.001c0 76 30 138.667 90 188c56 45.333 123 68 201 68c55.333 0 107.5 -9.16699 156.5 -27.5s97.167 -46.166 144.5 -83.499l-60 -172l-33 10c-16.667 76 -43.334 133 -80.001 171s-83 57 -139 57c-46 0 -83.667 -14.5 -113 -43.5
s-44 -66.5 -44 -112.5c0 -38.667 12 -76.334 36 -113.001c20.667 -32 68.667 -79.667 144 -143l178 -150c60.667 -51.333 104.334 -99 131.001 -143c28.667 -47.333 43 -96.333 43 -147c0 -75.333 -27.333 -136 -82 -182c-51.333 -44 -115.333 -66 -192 -66h-23z" />
    <glyph glyph-name="dieresis" unicode="&#xa8;" 
d="M688 1377c27.333 0 50.668 -10.333 70.001 -31s29 -44 29 -70c0 -26.667 -9.83301 -50 -29.5 -70s-42.834 -30 -69.501 -30c-28 0 -51.5 9.66699 -70.5 29s-28.5 43 -28.5 71c0 26 10 49.333 30 70s43 31 69 31zM336.002 1377c26 0 49.333 -10.333 70 -31s31 -44 31 -70
c0 -27.333 -10 -50.833 -30 -70.5s-43.667 -29.5 -71 -29.5c-26 0 -50 9.33301 -72 28c-17.333 20.667 -26 44.667 -26 72c0 25.333 10 48.5 30 69.5s42.667 31.5 68 31.5z" />
    <glyph glyph-name="copyright" unicode="&#xa9;" horiz-adv-x="1684" 
d="M1123 1098l36.001 -0.00292969l2 -315h-43c-40.667 181.333 -134 272 -280 272c-78.667 0 -138.334 -31.667 -179.001 -95s-61 -155.333 -61 -276c0 -123.333 21.833 -217.666 65.5 -282.999s108.5 -98 194.5 -98c58 0 109.5 14.5 154.5 43.5s87.167 73.167 126.5 132.5
l39 -26c-80.667 -141.333 -196 -212 -346 -212c-117.333 0 -215.666 42.333 -294.999 127c-78 82.667 -117 183.334 -117 302.001c0 120.667 38.5 222.834 115.5 306.501s175.167 125.5 294.5 125.5c44 0 93.667 -11 149 -33l80 -32c35.333 0 56.666 20.333 63.999 61z
M844.001 1305c-169.333 0 -316 -62.332 -440 -186.999c-120.667 -121.333 -181 -268 -181 -440c0 -84 15.5 -163.333 46.5 -238s76.5 -141.334 136.5 -200.001c65.333 -64 132 -110.333 200 -139c27.333 -11.333 66.333 -22.333 117 -33c38.667 -8 78.334 -12 119.001 -12
c174.667 0 320.667 60.667 438 182c122 126 183 272.667 183 440c0 176 -59.667 323.667 -179 443c-122.667 122.667 -269.334 184 -440.001 184zM844.001 1391c88 0 177.333 -18.333 268 -55c88 -35.333 164.667 -85.333 230 -150c140.667 -138.667 211 -308 211 -508
c0 -188.667 -69.667 -356 -209 -502c-62.667 -65.333 -139 -116.5 -229 -153.5s-181 -55.5 -273 -55.5c-94 0 -184.333 18.167 -271 54.5s-163.667 87.833 -231 154.5c-29.333 28.667 -59.333 65 -90 109c-25.333 35.333 -47 75.666 -65 120.999
c-36 88.667 -54 179.334 -54 272.001c0 192.667 69.333 359.667 208 501s307 212 505 212z" />
    <glyph glyph-name="ordfeminine" unicode="&#xaa;" horiz-adv-x="680" 
d="M441 1188c-178 -68 -267.001 -143.667 -267.001 -227c0 -34 10.333 -63.333 31 -88s47.334 -37 80.001 -37c25.333 0 51.333 8 78 24c32.667 19.333 58.667 42 78 68v260zM667.999 838c-1.33301 -2 -8.49805 -9.83398 -21.498 -23.501s-26.5 -23.5 -40.5 -29.5
c-20 -12.667 -42.333 -19 -67 -19c-65.333 0 -98 33.667 -98 101c-89.333 -67.333 -169.333 -101 -240 -101c-48.667 0 -87.834 13.667 -117.501 41s-44.5 65 -44.5 113c0 73.333 51.333 140 154 200c43.333 25.333 126 61 248 107v102c0 44 -8.33301 76.333 -25 97
c-13.333 21.333 -36.666 32 -69.999 32c-28.667 0 -50.334 -6.66699 -65.001 -20c-14.667 -10 -30.334 -40 -47.001 -90c-15.333 -45.333 -43.333 -68 -84 -68c-18 0 -33 6.33301 -45 19c-14 10.667 -22.333 27 -25 49c0 48.667 34.667 86.667 104 114
c52 20.667 106.667 31 164 31c80.667 0 138.167 -15.167 172.5 -45.5s51.5 -79.166 51.5 -146.499v-412c0 -40.667 11.333 -61 34 -61l23 6l16 20z" />
    <glyph glyph-name="guillemotleft" unicode="&#xab;" horiz-adv-x="758" 
d="M541 492c36.667 -59.333 65.333 -118.667 86 -178s35 -120.333 43 -183l-51 -16c-44 84 -85.667 153.667 -125 209c-45.333 63.333 -92.333 119.333 -141 168c96 96 184.667 221 266 375l51 -15c-13.333 -124 -56.333 -244 -129 -360zM256.999 491.999
c38.667 -65.333 67.334 -124.667 86.001 -178c19.333 -56 33.666 -117 42.999 -183l-52 -16c-42.667 83.333 -84 153 -124 209c-48.667 68.667 -96 124.667 -142 168c99.333 95.333 188 220.333 266 375l52 -15c-12.667 -121.333 -55.667 -241.333 -129 -360z" />
    <glyph glyph-name="logicalnot" unicode="&#xac;" horiz-adv-x="1706" 
d="M254 860h1198v-501h-137v362h-1061v139z" />
    <glyph glyph-name="minus" unicode="&#xad;" horiz-adv-x="692" 
d="M61 428v144h570v-144h-570z" />
    <glyph glyph-name="minus" unicode="&#x2212;" horiz-adv-x="692" 
d="M61 428v144h570v-144h-570z" />
    <glyph glyph-name="registered" unicode="&#xae;" horiz-adv-x="1684" 
d="M737 721l29 -2h35c147.333 0 221 57.333 221 172c0 49.333 -16.333 88.333 -49 117s-77.667 43 -135 43c-67.333 0 -101 -23.333 -101 -70v-260zM467 1094l398.001 0.00292969c96 0 172.667 -17.833 230 -53.5s86 -82.834 86 -141.501
c0 -104.667 -94.667 -173.667 -284 -207c62.667 -16.667 111.334 -42.334 146.001 -77.001c32 -32 55 -75 69 -129l11 -66c10 -58.667 29 -88 57 -88c19.333 0 35 11 47 33c10.667 24.667 16 57.334 16 98.001h45v-18c0 -72.667 -22.333 -123 -67 -151
c-24.667 -15.333 -55.334 -23 -92.001 -23c-71.333 0 -115.666 19.667 -132.999 59c-16.667 28 -25 65.667 -25 113c0 45.333 -2.66699 77.333 -8 96c-26.667 92.667 -92.334 139 -197.001 139h-29v-246c0 -32.667 8.33301 -55.667 25 -69
c15.333 -15.333 46.666 -25 93.999 -29v-45h-389v45c46.667 0 78 8.33301 94 25c18 13.333 27 37.666 27 72.999v516c0 38.667 -11 65 -33 79c-16 11.333 -45.333 18.666 -88 21.999v45zM844.001 1305c-169.333 0 -315.999 -62.333 -439.999 -187
c-120.667 -121.333 -181 -268 -181 -440c0 -84 15.5 -163.333 46.5 -238s75.833 -141.334 134.5 -200.001c64 -64 130.667 -110.333 200 -139c28 -12 67 -23 117 -33c38.667 -8 79 -12 121 -12c83.333 0 162.666 15.667 237.999 47
c73.333 30.667 139.5 75.834 198.5 135.501s104 127.5 135 203.5s46.5 154.667 46.5 236c0 178.667 -59.333 327 -178 445c-122 121.333 -268 182 -438 182zM844.002 1391c197.333 0 366 -70.999 506 -212.999c60 -60.667 109 -137.334 147 -230.001
c36.667 -89.333 55 -181.333 55 -276c0 -140 -41.5 -271.333 -124.5 -394s-189.5 -209.667 -319.5 -261c-84.667 -33.333 -176.667 -50 -276 -50c-84.667 0 -171.667 18.833 -261 56.5s-166.333 88.5 -231 152.5c-29.333 28.667 -59.333 65 -90 109
c-25.333 35.333 -47 75.666 -65 120.999c-36 88.667 -54 179.334 -54 272.001c0 192 69 359.333 207 502c136 140.667 304.667 211 506 211z" />
    <glyph glyph-name="macron" unicode="&#xaf;" 
d="M254 1338h516v-125h-516v125z" />
    <glyph glyph-name="macron" unicode="&#x2c9;" 
d="M254 1338h516v-125h-516v125z" />
    <glyph glyph-name="degree" unicode="&#xb0;" horiz-adv-x="674" 
d="M338 1362c-53.333 0 -99.167 -18.501 -137.5 -55.501s-57.5 -82.5 -57.5 -136.5c0 -54.667 19 -101.167 57 -139.5s84 -57.5 138 -57.5c52 0 97.167 19.167 135.5 57.5s57.5 84.833 57.5 139.5s-18.5 100.334 -55.5 137.001s-82.833 55 -137.5 55zM337.999 1456
c79.333 0 146.999 -27.999 202.999 -83.999s84 -124 84 -204c0 -80.667 -28 -148.834 -84 -204.501s-124.333 -83.5 -205 -83.5c-81.333 0 -149.666 28.333 -204.999 85c-26 26.667 -46.333 57.334 -61 92.001c-14 32.667 -21 69.667 -21 111
c0 79.333 28.333 147.166 85 203.499s124.667 84.5 204 84.5z" />
    <glyph glyph-name="plusminus" unicode="&#xb1;" horiz-adv-x="1706" 
d="M254 170h1198v-142h-1198v142zM783 1192h141v-340h528v-140h-528v-339h-141v339h-529v140h529v340z" />
    <glyph glyph-name="twosuperior" unicode="&#xb2;" horiz-adv-x="746" 
d="M37 570l-0.00292969 21.9971l33 45c62 84.667 138.333 166 229 244l50 43c52.667 45.333 90.334 91 113.001 137c21.333 42.667 32 91.334 32 146.001c0 62.667 -13 112.334 -39 149.001s-61.667 55 -107 55c-38 0 -66.667 -8.66699 -86 -26
c-16 -19.333 -26 -48.666 -30 -87.999c0 -68.667 -27.333 -103 -82 -103c-16.667 0 -32.334 6.33301 -47.001 19c-11.333 13.333 -17 29 -17 47c0 54.667 31.667 100.334 95 137.001c54 31.333 110.333 47 169 47c80.667 0 147.667 -22.333 201 -67
c57.333 -47.333 86 -110.333 86 -189v-35c-1.33301 -14.667 -6.66602 -31 -15.999 -49c-3.33301 -11.333 -10.333 -25 -21 -41c-5.33301 -9.33301 -14.666 -23 -27.999 -41c-19.333 -23.333 -76 -66.333 -170 -129l-27 -18c-19.333 -12.667 -48 -32.334 -86 -59.001
c-24.667 -18.667 -45 -35 -61 -49c-40 -36 -71 -68.333 -93 -97h287c50.667 0 89.667 6 117 18c24.667 14 44.334 36.667 59.001 68l25 -6l-47 -180h-539z" />
    <glyph glyph-name="threesuperior" unicode="&#xb3;" horiz-adv-x="746" 
d="M299 1034c123.333 16.667 185.002 80.334 185.002 191.001c0 122.667 -46 184 -138 184c-63.333 0 -100 -32 -110 -96c-5.33301 -34 -14 -57 -26 -69s-26.667 -18.333 -44 -19c-18 -0.666992 -33.667 5.16602 -47 17.499s-20 27.5 -20 45.5c0 50 32.333 90 97 120
c51.333 24 105 36 161 36c75.333 0 138.833 -19.833 190.5 -59.5s77.5 -89.5 77.5 -149.5c0 -41.333 -15.5 -77.833 -46.5 -109.5s-76.833 -58.5 -137.5 -80.5c69.333 -15.333 122.666 -42.833 159.999 -82.5s56 -85.834 56 -138.501c0 -80.667 -29.333 -146.667 -88 -198
s-134.334 -77 -227.001 -77c-56.667 0 -113 12.333 -169 37c-70 30.667 -105 71 -105 121c0 39.333 19 59 57 59c38.667 0 68 -21.667 88 -65c22.667 -48.667 44 -81 64 -97c23.333 -13.333 49.333 -20 78 -20c106.667 0 160 74.333 160 223c0 67.333 -14 117.333 -42 150
c-26.667 38.667 -64 56.334 -112 53.001l-31 -2l-29 -4z" />
    <glyph glyph-name="acute" unicode="&#xb4;" 
d="M734 1325l-330.001 -204h-68l289 299c23.333 24 42.333 39.667 57 47c12.667 8 26.334 12 41.001 12c48 0 72 -23.333 72 -70c0 -16 -4.66699 -30.333 -14 -43c-16 -18 -31.667 -31.667 -47 -41z" />
    <glyph glyph-name="mu" unicode="&#xb5;" horiz-adv-x="1170" 
d="M166 195c-21.333 -93.333 -42.3311 -211.665 -62.998 -354.998c-25.333 -173.333 -64.666 -260 -117.999 -260c-27.333 0 -49 8 -65 24c-15.333 20 -23 43.333 -23 70c0 32.667 23 125 69 277c49.333 164 86.666 304.667 111.999 422l109 512h167l-115 -549l-4 -59
c-2.66699 -41.333 11.333 -77 42 -107c28.667 -27.333 69 -41 121 -41c124 0 202.333 76 235 228l113 528h172l-129 -608l-4 -51c-2 -29.333 6.66699 -54 26 -74c16.667 -18 42 -27 76 -27c29.333 0 56.666 8.33301 81.999 25c28 18 47 41 57 69l27 74
c12.667 35.333 25.667 53.666 39 54.999c9.33301 -2.66699 14.666 -5.33398 15.999 -8.00098l6 -20c0 -30.667 -8.66699 -77.334 -26 -140.001c-6 -14.667 -13.667 -31 -23 -49c-55.333 -104 -127 -156 -215 -156c-52.667 0 -94.167 18.5 -124.5 55.5
s-45.5 88.5 -45.5 154.5v12c-33.333 -73.333 -74.333 -128.666 -123 -165.999s-106 -56 -172 -56c-130 0 -203 73.333 -219 220z" />
    <glyph glyph-name="mu" unicode="&#x3bc;" horiz-adv-x="1170" 
d="M166 195c-21.333 -93.333 -42.3311 -211.665 -62.998 -354.998c-25.333 -173.333 -64.666 -260 -117.999 -260c-27.333 0 -49 8 -65 24c-15.333 20 -23 43.333 -23 70c0 32.667 23 125 69 277c49.333 164 86.666 304.667 111.999 422l109 512h167l-115 -549l-4 -59
c-2.66699 -41.333 11.333 -77 42 -107c28.667 -27.333 69 -41 121 -41c124 0 202.333 76 235 228l113 528h172l-129 -608l-4 -51c-2 -29.333 6.66699 -54 26 -74c16.667 -18 42 -27 76 -27c29.333 0 56.666 8.33301 81.999 25c28 18 47 41 57 69l27 74
c12.667 35.333 25.667 53.666 39 54.999c9.33301 -2.66699 14.666 -5.33398 15.999 -8.00098l6 -20c0 -30.667 -8.66699 -77.334 -26 -140.001c-6 -14.667 -13.667 -31 -23 -49c-55.333 -104 -127 -156 -215 -156c-52.667 0 -94.167 18.5 -124.5 55.5
s-45.5 88.5 -45.5 154.5v12c-33.333 -73.333 -74.333 -128.666 -123 -165.999s-106 -56 -172 -56c-130 0 -203 73.333 -219 220z" />
    <glyph glyph-name="paragraph" unicode="&#xb6;" 
d="M959 1479l0.000976562 -86h-122v-1393h-110v1393h-176v-1393h-112v783c-104.667 0 -194.667 34 -270 102c-68.667 62 -103 144 -103 246c0 111.333 38.667 198.333 116 261c71.333 58 163.666 87 276.999 87h500z" />
    <glyph glyph-name="periodcentered" unicode="&#xb7;" horiz-adv-x="563" 
d="M160 721c0 34 12.002 63 36.002 87s53 36 87 36c32.667 0 62 -11.667 88 -35c23.333 -26 35 -55.333 35 -88s-12.333 -61.334 -37 -86.001s-53.334 -37 -86.001 -37s-61.334 12.333 -86.001 37s-37 53.334 -37 86.001z" />
    <glyph glyph-name="cedilla" unicode="&#xb8;" 
d="M479 0h62.999v-113l34 4l28 2c52 4 96.667 -10.333 134 -43c32.667 -28.667 49 -69 49 -121c0 -59.333 -22.333 -104.666 -67 -135.999c-39.333 -26.667 -90 -40 -152 -40c-29.333 0 -70.333 6.33301 -123 19c-56 13.333 -112.667 32.333 -170 57l34 78
c16.667 -9.33301 34.667 -18.333 54 -27c6.66699 -2.66699 33.334 -12 80.001 -28c33.333 -11.333 63.333 -17 90 -17c80.667 0 121 30.667 121 92c0 29.333 -10 51.666 -30 66.999s-48.333 23 -85 23h-27l-33 -6v189z" />
    <glyph glyph-name="onesuperior" unicode="&#xb9;" horiz-adv-x="746" 
d="M238 570v22c42 0 63 36.333 63 109v534c0 57.333 -32 86 -96 86v25c74 16 138.333 48.667 193 98h30v-743c0 -68 21.333 -104.333 64 -109v-22h-254z" />
    <glyph glyph-name="ordmasculine" unicode="&#xba;" horiz-adv-x="744" 
d="M373 803c114.667 0 171.999 108 171.999 324c0 112.667 -14.333 196 -43 250s-71.667 81 -129 81c-115.333 0 -173 -108.333 -173 -325c0 -162 31 -264.333 93 -307c22.667 -15.333 49.334 -23 80.001 -23zM372.999 766c-99.333 0 -179.334 36.667 -240.001 110
c-57.333 68.667 -86 153.667 -86 255c0 100.667 28.667 185 86 253c61.333 72.667 141.333 109 240 109s178.334 -36.333 239.001 -109c57.333 -68 86 -152.333 86 -253c0 -104 -30.833 -190.833 -92.5 -260.5s-139.167 -104.5 -232.5 -104.5z" />
    <glyph glyph-name="guillemotright" unicode="&#xbb;" horiz-adv-x="758" 
d="M217 492c-40.667 68.667 -69.335 127.334 -86.002 176.001c-17.333 51.333 -31 112.666 -41 183.999l52 15c70 -144 158 -269 264 -375c-96.667 -94 -184.667 -219.667 -264 -377l-52 16c6.66699 66 20.334 127.833 41.001 185.5s49.334 116.167 86.001 175.5z
M501.999 492c-35.333 58 -63.499 116.83 -84.499 176.497s-35.167 120.834 -42.5 183.501l51 15c15.333 -31.333 29.666 -58.666 42.999 -81.999c23.333 -42 50 -83.667 80 -125c45.333 -63.333 92.333 -119.333 141 -168c-95.333 -94 -183.333 -219.667 -264 -377l-51 16
c6 54 20.333 115.667 43 185c19.333 58.667 47.333 117.334 84 176.001z" />
    <glyph glyph-name="onequarter" unicode="&#xbc;" horiz-adv-x="1764" 
d="M1454 264l2 431l-282 -431h280zM1399 0v23.001c36.667 7.33301 55 49.666 55 126.999v44h-362v32l395 585h90v-547h131v-70h-131v-45c0 -43.333 1 -69 3 -77c6 -24 22.667 -40.333 50 -49v-23h-231zM369 0.000976562l960 1456l64 -34l-959 -1455zM228 627.001v22
c39.333 0 59 33.667 59 101v500c0 52.667 -30 79 -90 79v21c36.667 9.33301 66.667 21 90 35c24 9.33301 54.667 28.333 92 57h31v-692c0 -67.333 19.667 -101 59 -101v-22h-241z" />
    <glyph glyph-name="onehalf" unicode="&#xbd;" horiz-adv-x="1764" 
d="M1088 0v23l30 41c42 58 116 133 222 225l47 41c91.333 80 137 168.667 137 266c0 59.333 -12.667 106 -38 140s-59 51 -101 51c-66.667 0 -103.667 -35.667 -111 -107c0 -27.333 -8 -51 -24 -71c-13.333 -16.667 -32 -25 -56 -25c-14.667 0 -29 5.33301 -43 16
c-8 11.333 -13.333 26.333 -16 45c0 44 25 83.333 75 118s109 52 177 52c76 0 139.667 -20 191 -60c55.333 -44 83 -103 83 -177c0 -54 -21.667 -106 -65 -156c-4 -4.66699 -62 -47.667 -174 -129l-11 -8c-18.667 -12.667 -43 -29.667 -73 -51
c-70.667 -52.667 -122.667 -100 -156 -142h274c86.667 0 142 27.333 166 82l25 -6l-45 -168h-514zM369 0l960 1456l64 -34l-959 -1455zM228 627v22c39.333 0 59 33.667 59 101v500c0 52.667 -30 79 -90 79v21c36.667 9.33301 66.667 21 90 35
c24 9.33301 54.667 28.333 92 57h31v-692c0 -67.333 19.667 -101 59 -101v-22h-241z" />
    <glyph glyph-name="threequarters" unicode="&#xbe;" horiz-adv-x="1764" 
d="M1454 264l2 431l-282 -431h280zM1399 0v23.001c36.667 7.33301 55 49.666 55 126.999v44h-362v32l395 585h90v-547h131v-70h-131v-45c0 -43.333 1 -69 3 -77c6 -24 22.667 -40.333 50 -49v-23h-231zM369 0.000976562l960 1456l64 -34l-959 -1455zM285 1061
c60 8 105.668 25.6621 137.001 52.9951c27.333 30 41 71.667 41 125c0 114.667 -44.333 172 -133 172c-62 0 -98.333 -33.333 -109 -100c0 -18.667 -6 -35.667 -18 -51s-27 -23 -45 -23c-19.333 0 -34.333 6.33301 -45 19c-12.667 10.667 -19 25 -19 43
c0 36.667 24 70 72 100c46 28.667 104 43 174 43c72.667 0 133.5 -18.5 182.5 -55.5s73.5 -83.5 73.5 -139.5c0 -77.333 -58.667 -136.666 -176 -177.999c65.333 -12 116.5 -36.167 153.5 -72.5s55.5 -80.166 55.5 -131.499c0 -79.333 -31.333 -143 -94 -191
c-57.333 -43.333 -127 -65 -209 -65c-73.333 0 -135 14.5 -185 43.5s-75 62.833 -75 101.5c0 14.667 5.5 27.834 16.5 39.501s23.833 17.5 38.5 17.5c19.333 0 35.666 -4.66699 48.999 -14c13.333 -13.333 25 -29.666 35 -48.999c24 -47.333 45.333 -76.666 64 -87.999
c17.333 -14 40.333 -21 69 -21c49.333 0 87.333 18 114 54s40 87.667 40 155c0 62.667 -12.333 109.667 -37 141c-28 36 -65 52 -111 48l-37 -3l-20 -2z" />
    <glyph glyph-name="questiondown" unicode="&#xbf;" horiz-adv-x="910" 
d="M735 1385c0 -34 -11.501 -62.999 -34.501 -86.999s-52.167 -36 -87.5 -36c-33.333 0 -62.666 11.667 -87.999 35c-23.333 26 -35 55.333 -35 88c0 34 12 63 36 87s53 36 87 36c32.667 0 61.167 -12.333 85.5 -37s36.5 -53.334 36.5 -86.001zM636.999 1116
l3.99512 -426.002h-37c-123.333 0 -217.166 -29.833 -281.499 -89.5s-96.5 -146.5 -96.5 -260.5c0 -89.333 22.333 -162.666 67 -219.999c48.667 -63.333 116.334 -95 203.001 -95c40.667 0 78.334 11.667 113.001 35c32.667 22 52.334 50.667 59.001 86l2 57
c1.33301 32 5.33301 57.333 12 76c17.333 46 52.333 69 105 69c27.333 0 49.5 -9.83301 66.5 -29.5s25.5 -46.5 25.5 -80.5c0 -71.333 -36.667 -133.5 -110 -186.5s-163 -79.5 -269 -79.5c-123.333 0 -226.666 46 -309.999 138c-81.333 88.667 -122 195.334 -122 320.001
c0 139.333 45 252.333 135 339s208.667 130 356 130l13 217h65z" />
    <glyph glyph-name="Agrave" unicode="&#xc0;" horiz-adv-x="1241" 
d="M320 551h458l-221 729zM-47 0l0.000976562 39.002c62 20.667 113.333 67 154 139c23.333 40.667 50 107 80 199l368 1131h129l408 -1258c45.333 -140.667 92.333 -211 141 -211v-39h-399v39c41.333 7.33301 65 32.666 71 75.999c0 18.667 -5.33301 44 -16 76l-8 24
l-82 264h-504l-63 -196l-15 -57l-4 -50c-2.66699 -32.667 5.66602 -63.334 24.999 -92.001c20.667 -24.667 46 -39.667 76 -45v-39h-361zM623.001 2439l289 -299.001h-68l-330 205c-40.667 25.333 -61 53.333 -61 84c0 20.667 6.5 37.5 19.5 50.5s30.5 19.5 52.5 19.5
c19.333 0 41 -9.66699 65 -29c8.66699 -7.33301 19.667 -17.666 33 -30.999z" />
    <glyph glyph-name="Aacute" unicode="&#xc1;" horiz-adv-x="1241" 
d="M320 551h458l-221 729zM-47 0l0.000976562 39.002c62 20.667 113.333 67 154 139c23.333 40.667 50 107 80 199l368 1131h129l408 -1258c45.333 -140.667 92.333 -211 141 -211v-39h-399v39c41.333 7.33301 65 32.666 71 75.999c0 18.667 -5.33301 44 -16 76l-8 24
l-82 264h-504l-63 -196l-15 -57l-4 -50c-2.66699 -32.667 5.66602 -63.334 24.999 -92.001c20.667 -24.667 46 -39.667 76 -45v-39h-361zM957.001 2345l-330 -204.999h-68l289 299c24 25.333 42.667 41.666 56 48.999s27.333 11 42 11c48 0 72 -23.333 72 -70
c0 -16 -4.66699 -30.333 -14 -43c-11.333 -12 -27 -25.667 -47 -41z" />
    <glyph glyph-name="Acircumflex" unicode="&#xc2;" horiz-adv-x="1241" 
d="M320 551h458l-221 729zM-47 0l0.000976562 39.002c62 20.667 113.333 67 154 139c23.333 40.667 50 107 80 199l368 1131h129l408 -1258c45.333 -140.667 92.333 -211 141 -211v-39h-399v39c41.333 7.33301 65 32.666 71 75.999c0 18.667 -5.33301 44 -16 76l-8 24
l-82 264h-504l-63 -196l-15 -57l-4 -50c-2.66699 -32.667 5.66602 -63.334 24.999 -92.001c20.667 -24.667 46 -39.667 76 -45v-39h-361zM676.001 2491h119l231 -351h-57l-234 211l-233 -211h-57z" />
    <glyph glyph-name="Atilde" unicode="&#xc3;" horiz-adv-x="1241" 
d="M320 551h458l-221 729zM-47 0l0.000976562 39.002c62 20.667 113.333 67 154 139c23.333 40.667 50 107 80 199l368 1131h129l408 -1258c45.333 -140.667 92.333 -211 141 -211v-39h-399v39c41.333 7.33301 65 32.666 71 75.999c0 18.667 -5.33301 44 -16 76l-8 24
l-82 264h-504l-63 -196l-15 -57l-4 -50c-2.66699 -32.667 5.66602 -63.334 24.999 -92.001c20.667 -24.667 46 -39.667 76 -45v-39h-361zM969.001 2437h53.001c-11.333 -65.333 -34.333 -116.333 -69 -153s-76.334 -53.667 -125.001 -51l-33 2l-41 8l-109 28l-26 5l-31 2
c-18 1.33301 -35.667 -5.66699 -53 -21c-14 -16 -25.667 -39 -35 -69h-51c12 71.333 34.833 124.833 68.5 160.5s76.167 52.167 127.5 49.5l35 -2l29 -6l139 -35l27 -2c44.667 -3.33301 76 24.667 94 84z" />
    <glyph glyph-name="Adieresis" unicode="&#xc4;" horiz-adv-x="1241" 
d="M320 551h458l-221 729zM-47 0l0.000976562 39.002c62 20.667 113.333 67 154 139c23.333 40.667 50 107 80 199l368 1131h129l408 -1258c45.333 -140.667 92.333 -211 141 -211v-39h-399v39c41.333 7.33301 65 32.666 71 75.999c0 18.667 -5.33301 44 -16 76l-8 24
l-82 264h-504l-63 -196l-15 -57l-4 -50c-2.66699 -32.667 5.66602 -63.334 24.999 -92.001c20.667 -24.667 46 -39.667 76 -45v-39h-361zM912.001 2396c27.333 0 50.5 -10.167 69.5 -30.5s28.5 -43.5 28.5 -69.5c0 -26.667 -9.66699 -50 -29 -70s-42.333 -30 -69 -30
c-28 0 -51.833 9.66699 -71.5 29s-29.5 43 -29.5 71c0 26 10.333 49.167 31 69.5s44 30.5 70 30.5zM559.001 2396c26 0 49.333 -10.167 70 -30.5s31 -43.5 31 -69.5c0 -28 -9.83301 -51.667 -29.5 -71s-43.5 -29 -71.5 -29c-26 0 -49.667 9.33301 -71 28
c-18 20.667 -27 44.667 -27 72c0 26 10 49.167 30 69.5s42.667 30.5 68 30.5z" />
    <glyph glyph-name="Aring" unicode="&#xc5;" horiz-adv-x="1241" 
d="M621 1884c-40 0 -74.002 -13.833 -102.002 -41.5s-42 -61.5 -42 -101.5c0 -39.333 13.833 -72.833 41.5 -100.5s61.834 -41.5 102.501 -41.5s75.334 13.667 104.001 41s43 61 43 101c0 39.333 -14.5 73 -43.5 101s-63.5 42 -103.5 42zM620.998 1972
c65.333 0 121.169 -22.168 167.502 -66.501s69.5 -99.166 69.5 -164.499c0 -64 -23.333 -118.333 -70 -163s-102.334 -67 -167.001 -67s-119.834 22.5 -165.501 67.5s-68.5 99.833 -68.5 164.5c0 66 22.5 120.667 67.5 164s100.5 65 166.5 65zM320.001 538.999h458l-221 715
zM-46.999 -0.000976562v36.999c52 17.333 94.167 47.833 126.5 91.5s68.166 123.834 107.499 240.501l362 1077h146l397 -1200c21.333 -64 45.333 -116.667 72 -158c22 -34 45 -51 69 -51v-37h-399v37c45.333 13.333 69 38 71 74c0.666992 14.667 -4.66602 40 -15.999 76
l-8 24l-82 258h-504l-63 -192l-15 -56l-4 -49c-2.66699 -32.667 6.33301 -62.667 27 -90c18 -24 42.667 -39 74 -45v-37h-361z" />
    <glyph glyph-name="AE" unicode="&#xc6;" horiz-adv-x="2001" 
d="M420 551h496v852h-27zM-70 0l0.00195312 39c104 38.667 204 144 300 316l626 1120h994l26 -287l-45 -6c-30.667 84.667 -75.667 142.667 -135 174s-177.333 47 -354 47h-64c-66 0 -105.667 -3.66699 -119 -11c-22.667 -12.667 -34 -47.334 -34 -104.001v-419h213
c93.333 0 158.333 5.33301 195 16c66.667 19.333 111.334 61 134.001 125h35v-350h-35c-19.333 63.333 -59 104 -119 122c-32.667 10 -93.334 15 -182.001 15h-241v-584c0 -64 10 -104.333 30 -121c23.333 -14.667 79.333 -22 168 -22h99c53.333 0 97.666 3 132.999 9
c55.333 5.33301 94.666 12 117.999 20c48 16 91.333 41.333 130 76s81.667 83.667 129 147l40 -23l-86 -299h-1067v39c64.667 0 97 60 97 180v260h-534l-118 -206l-38 -80c-8.66699 -23.333 -13 -42.666 -13 -57.999c0 -24 8.33301 -43.667 25 -59
c14.667 -16.667 37.667 -29 69 -37v-39h-377z" />
    <glyph glyph-name="Ccedilla" unicode="&#xc7;" horiz-adv-x="1374" 
d="M1323 332c-74 -122.667 -160.332 -214.166 -258.999 -274.499s-210.334 -90.5 -335.001 -90.5c-208.667 0 -372 70.333 -490 211c-111.333 132 -167 304.333 -167 517c0 275.333 90 497.666 270 666.999c51.333 48.667 113.333 85.167 186 109.5s148.667 36.5 228 36.5
c160 0 327.333 -58.333 502 -175l-78 -247l-47 6c-76 236 -216.667 354 -422 354c-150.667 0 -264.667 -71.333 -342 -214c-62.667 -114 -94 -253 -94 -417c0 -188 42.667 -350.667 128 -488c100 -162 238.667 -243 416 -243c90 0 174 22.667 252 68
s149.667 114.333 215 207zM840.001 0.000976562h62.999v-113l33 4l29 2c52 3.33301 96.333 -11 133 -43c32.667 -28.667 49 -69 49 -121c0 -117.333 -73 -176 -219 -176c-29.333 0 -70.333 6.33301 -123 19c-55.333 13.333 -112 32.333 -170 57l35 78
c15.333 -9.33301 33 -18.333 53 -27c6.66699 -2.66699 33.334 -12 80.001 -28c33.333 -11.333 63.333 -17 90 -17c80.667 0 121 30.667 121 92c0 60 -38.333 90 -115 90h-26l-33 -6v189z" />
    <glyph glyph-name="Egrave" unicode="&#xc8;" horiz-adv-x="1256" 
d="M76 0l0.00390625 39.001c62.667 0 94 60 94 180v1035c0 66.667 -7.33301 113 -22 139c-16 28.667 -40 43 -72 43v39h1030l25 -287l-43 -6c-30.667 84.667 -75.834 142.667 -135.501 174s-177.834 47 -354.501 47h-63c-72 0 -116 -6.33301 -132 -19s-24 -44.667 -24 -96
v-419h213c93.333 0 158.666 5.33301 195.999 16c68 19.333 113.333 61 136 125h35v-350h-37c-20 54 -46.667 90 -80 108c-35.333 19.333 -109 29 -221 29h-242v-583c0 -64 11.333 -104 34 -120s77.667 -24 165 -24h98c55.333 0 99.666 3 132.999 9
c52.667 5.33301 93 12.666 121 21.999c84 28 169.333 101.667 256 221l43 -23l-86 -299h-1067zM617.004 2439l288 -299.001h-67l-330 205c-40.667 25.333 -61 53.333 -61 84c0 20.667 6.5 37.5 19.5 50.5s30.167 19.5 51.5 19.5c20 0 42 -9.66699 66 -29
c9.33301 -7.33301 20.333 -17.666 33 -30.999z" />
    <glyph glyph-name="Eacute" unicode="&#xc9;" horiz-adv-x="1256" 
d="M76 0l0.00390625 39.001c62.667 0 94 60 94 180v1035c0 66.667 -7.33301 113 -22 139c-16 28.667 -40 43 -72 43v39h1030l25 -287l-43 -6c-30.667 84.667 -75.834 142.667 -135.501 174s-177.834 47 -354.501 47h-63c-72 0 -116 -6.33301 -132 -19s-24 -44.667 -24 -96
v-419h213c93.333 0 158.666 5.33301 195.999 16c68 19.333 113.333 61 136 125h35v-350h-37c-20 54 -46.667 90 -80 108c-35.333 19.333 -109 29 -221 29h-242v-583c0 -64 11.333 -104 34 -120s77.667 -24 165 -24h98c55.333 0 99.666 3 132.999 9
c52.667 5.33301 93 12.666 121 21.999c84 28 169.333 101.667 256 221l43 -23l-86 -299h-1067zM951.004 2345l-330 -204.999h-68l289 299c24 25.333 42.667 41.666 56 48.999s27.333 11 42 11c48 0 72 -23.333 72 -70c0 -16 -4.66699 -30.333 -14 -43
c-11.333 -12 -27 -25.667 -47 -41z" />
    <glyph glyph-name="Ecircumflex" unicode="&#xca;" horiz-adv-x="1256" 
d="M76 0l0.00390625 39.001c62.667 0 94 60 94 180v1035c0 66.667 -7.33301 113 -22 139c-16 28.667 -40 43 -72 43v39h1030l25 -287l-43 -6c-30.667 84.667 -75.834 142.667 -135.501 174s-177.834 47 -354.501 47h-63c-72 0 -116 -6.33301 -132 -19s-24 -44.667 -24 -96
v-419h213c93.333 0 158.666 5.33301 195.999 16c68 19.333 113.333 61 136 125h35v-350h-37c-20 54 -46.667 90 -80 108c-35.333 19.333 -109 29 -221 29h-242v-583c0 -64 11.333 -104 34 -120s77.667 -24 165 -24h98c55.333 0 99.666 3 132.999 9
c52.667 5.33301 93 12.666 121 21.999c84 28 169.333 101.667 256 221l43 -23l-86 -299h-1067zM670.004 2491h119l231 -351h-57l-234 211l-233 -211h-57z" />
    <glyph glyph-name="Edieresis" unicode="&#xcb;" horiz-adv-x="1256" 
d="M76 0l0.00390625 39.001c62.667 0 94 60 94 180v1035c0 66.667 -7.33301 113 -22 139c-16 28.667 -40 43 -72 43v39h1030l25 -287l-43 -6c-30.667 84.667 -75.834 142.667 -135.501 174s-177.834 47 -354.501 47h-63c-72 0 -116 -6.33301 -132 -19s-24 -44.667 -24 -96
v-419h213c93.333 0 158.666 5.33301 195.999 16c68 19.333 113.333 61 136 125h35v-350h-37c-20 54 -46.667 90 -80 108c-35.333 19.333 -109 29 -221 29h-242v-583c0 -64 11.333 -104 34 -120s77.667 -24 165 -24h98c55.333 0 99.666 3 132.999 9
c52.667 5.33301 93 12.666 121 21.999c84 28 169.333 101.667 256 221l43 -23l-86 -299h-1067zM905.004 2396c27.333 0 50.666 -10 69.999 -30s29 -43.333 29 -70c0 -27.333 -9.66699 -50.833 -29 -70.5s-42.666 -29.5 -69.999 -29.5s-50.833 9.83301 -70.5 29.5
s-29.5 43.167 -29.5 70.5c0 26 10.167 49.167 30.5 69.5s43.5 30.5 69.5 30.5zM553.004 2396c26 0 49.333 -10.167 70 -30.5s31 -43.5 31 -69.5c0 -28 -9.83301 -51.667 -29.5 -71s-43.5 -29 -71.5 -29c-26 0 -49.667 9.33301 -71 28c-18 20.667 -27 44.667 -27 72
c0 26 10 49.167 30 69.5s42.667 30.5 68 30.5z" />
    <glyph glyph-name="Igrave" unicode="&#xcc;" horiz-adv-x="574" 
d="M86 0v38.999c62.667 0 94 60 94 180v1035c0 121.333 -31.333 182 -94 182v39h402v-39c-63.333 0 -95 -60.667 -95 -182v-1035c0 -63.333 7.33301 -109.166 22 -137.499s39 -42.5 73 -42.5v-39h-402zM240 2267l289 -299.001h-68l-330 205
c-40.667 25.333 -61 53.333 -61 84c0 20.667 6.5 37.5 19.5 50.5s30.5 19.5 52.5 19.5c19.333 0 41 -9.66699 65 -29c8.66699 -7.33301 19.667 -17.666 33 -30.999z" />
    <glyph glyph-name="Iacute" unicode="&#xcd;" horiz-adv-x="574" 
d="M86 0v38.999c62.667 0 94 60 94 180v1035c0 121.333 -31.333 182 -94 182v39h402v-39c-63.333 0 -95 -60.667 -95 -182v-1035c0 -63.333 7.33301 -109.166 22 -137.499s39 -42.5 73 -42.5v-39h-402zM445 2245l-330 -205.001h-68l289 299c24 24.667 42.667 40.667 56 48
s27.333 11 42 11c22 0 39.5 -6.16699 52.5 -18.5s19.5 -29.166 19.5 -50.499c0 -30.667 -20.333 -58.667 -61 -84z" />
    <glyph glyph-name="Icircumflex" unicode="&#xce;" horiz-adv-x="574" 
d="M86 0v38.999c62.667 0 94 60 94 180v1035c0 121.333 -31.333 182 -94 182v39h402v-39c-63.333 0 -95 -60.667 -95 -182v-1035c0 -63.333 7.33301 -109.166 22 -137.499s39 -42.5 73 -42.5v-39h-402zM250 2362h119l231 -351h-57l-234 211l-233 -211h-57z" />
    <glyph glyph-name="Idieresis" unicode="&#xcf;" horiz-adv-x="574" 
d="M86 0v38.999c62.667 0 94 60 94 180v1035c0 121.333 -31.333 182 -94 182v39h402v-39c-63.333 0 -95 -60.667 -95 -182v-1035c0 -63.333 7.33301 -109.166 22 -137.499s39 -42.5 73 -42.5v-39h-402zM443 2396c27.333 0 50.5 -10.167 69.5 -30.5s28.5 -43.5 28.5 -69.5
c0 -26.667 -9.66699 -50 -29 -70s-42.333 -30 -69 -30c-28 0 -51.833 9.66699 -71.5 29s-29.5 43 -29.5 71c0 26 10.333 49.167 31 69.5s44 30.5 70 30.5zM90 2396c26 0 49.333 -10.167 70 -30.5s31 -43.5 31 -69.5c0 -28 -9.83301 -51.667 -29.5 -71s-43.5 -29 -71.5 -29
c-26 0 -49.667 9.33301 -71 28c-18 20.667 -27 44.667 -27 72c0 26 10 49.167 30 69.5s42.667 30.5 68 30.5z" />
    <glyph glyph-name="Eth" unicode="&#xd0;" horiz-adv-x="1485" 
d="M379 195c0 -51.333 12.333 -86.333 37 -105s76 -28 154 -28c221.333 0 377.5 49.5 468.5 148.5s136.5 270.5 136.5 514.5c0 236.667 -42.5 412.167 -127.5 526.5s-216.167 171.5 -393.5 171.5c-114 0 -188.333 -11.167 -223 -33.5s-52 -67.5 -52 -135.5v-406h356v-70
h-356v-583zM76 0l-0.000976562 38.999c62.667 0 94 60 94 180v559h-170v70h170v406c0 66.667 -7.33301 113 -22 139c-16 28.667 -40 43 -72 43v39l494 12c114 0 203.333 -6 268 -18c60.667 -11.333 121.334 -32.666 182.001 -63.999c117.333 -60.667 210.333 -152 279 -274
c69.333 -124.667 104 -262.667 104 -414c0 -232.667 -73.333 -412 -220 -538c-138 -119.333 -325.333 -179 -562 -179h-545z" />
    <glyph glyph-name="Ntilde" unicode="&#xd1;" horiz-adv-x="1395" 
d="M152 301v940c0 61.333 -9.66699 109.333 -29 144c-20.667 30 -52 47 -94 51v39h311l826 -1157v727c0 108.667 -5 185.334 -15 230.001c-21.333 92 -67 145.667 -137 161v39h330v-39c-39.333 -24.667 -67.333 -60.334 -84 -107.001c-15.333 -42.667 -23 -132.667 -23 -270
v-1076h-84l-930 1303v-968c0 -84 11.5 -148.5 34.5 -193.5s59.5 -73.5 109.5 -85.5v-39h-354v39c49.333 20 84.833 50.333 106.5 91s32.5 97.667 32.5 171zM1106 2437h53.001c-11.333 -65.333 -34.333 -116.333 -69 -153s-76.334 -53.667 -125.001 -51l-33 2l-41 8l-108 28
l-27 5l-31 2c-17.333 1.33301 -35 -5.66699 -53 -21c-13.333 -16 -25 -39 -35 -69h-51c12 71.333 35.167 124.833 69.5 160.5s76.833 52.167 127.5 49.5l34 -2l29 -6l139 -35l27 -2c44.667 -3.33301 76 24.667 94 84z" />
    <glyph glyph-name="Ograve" unicode="&#xd2;" horiz-adv-x="1471" 
d="M735 25c284 0 425.999 246.333 425.999 739c0 232.667 -34.667 405.5 -104 518.5s-176.666 169.5 -321.999 169.5c-161.333 0 -278.333 -85.667 -351 -257c-51.333 -122 -77 -276.667 -77 -464c0 -470.667 142.667 -706 428 -706zM732.999 -33
c-170.667 0 -314.666 55.3311 -431.999 165.998c-76 72 -134.333 164.333 -175 277c-36.667 102.667 -55 211 -55 325c0 236.667 83.667 437.667 251 603c32.667 32 62 56.667 88 74c24 15.333 58.667 32.333 104 51c74 30 150.667 45 230 45c68 0 139.667 -13 215 -39
c69.333 -24 128.666 -59.667 177.999 -107c174.667 -167.333 262 -372.666 262 -615.999c0 -113.333 -18.167 -217.666 -54.5 -312.999s-91.833 -185 -166.5 -269c-116.667 -131.333 -265 -197 -445 -197zM639 2382l289 -299h-68l-329 205c-18 11.333 -32.333 24.333 -43 39
c-12.667 14.667 -19 29.667 -19 45c0 20.667 7 37 21 49c12 13.333 29 20 51 20c14.667 0 28 -3.66699 40 -11c18.667 -11.333 38 -27.333 58 -48z" />
    <glyph glyph-name="Oacute" unicode="&#xd3;" horiz-adv-x="1471" 
d="M735 25c284 0 425.999 246.333 425.999 739c0 232.667 -34.667 405.5 -104 518.5s-176.666 169.5 -321.999 169.5c-161.333 0 -278.333 -85.667 -351 -257c-51.333 -122 -77 -276.667 -77 -464c0 -470.667 142.667 -706 428 -706zM732.999 -33
c-170.667 0 -314.666 55.3311 -431.999 165.998c-76 72 -134.333 164.333 -175 277c-36.667 102.667 -55 211 -55 325c0 236.667 83.667 437.667 251 603c32.667 32 62 56.667 88 74c24 15.333 58.667 32.333 104 51c74 30 150.667 45 230 45c68 0 139.667 -13 215 -39
c69.333 -24 128.666 -59.667 177.999 -107c174.667 -167.333 262 -372.666 262 -615.999c0 -113.333 -18.167 -217.666 -54.5 -312.999s-91.833 -185 -166.5 -269c-116.667 -131.333 -265 -197 -445 -197zM973 2288l-330.001 -205h-67l289 299
c24.667 25.333 43.334 41.5 56.001 48.5s26.667 10.5 42 10.5c47.333 0 71 -23 71 -69c0 -30.667 -20.333 -58.667 -61 -84z" />
    <glyph glyph-name="Ocircumflex" unicode="&#xd4;" horiz-adv-x="1471" 
d="M735 25c284 0 425.999 246.333 425.999 739c0 232.667 -34.667 405.5 -104 518.5s-176.666 169.5 -321.999 169.5c-161.333 0 -278.333 -85.667 -351 -257c-51.333 -122 -77 -276.667 -77 -464c0 -470.667 142.667 -706 428 -706zM732.999 -33
c-170.667 0 -314.666 55.3311 -431.999 165.998c-76 72 -134.333 164.333 -175 277c-36.667 102.667 -55 211 -55 325c0 236.667 83.667 437.667 251 603c32.667 32 62 56.667 88 74c24 15.333 58.667 32.333 104 51c74 30 150.667 45 230 45c68 0 139.667 -13 215 -39
c69.333 -24 128.666 -59.667 177.999 -107c174.667 -167.333 262 -372.666 262 -615.999c0 -113.333 -18.167 -217.666 -54.5 -312.999s-91.833 -185 -166.5 -269c-116.667 -131.333 -265 -197 -445 -197zM692 2491h119l232 -351h-58l-233 211l-234 -211h-57z" />
    <glyph glyph-name="Otilde" unicode="&#xd5;" horiz-adv-x="1471" 
d="M735 25c284 0 425.999 246.333 425.999 739c0 232.667 -34.667 405.5 -104 518.5s-176.666 169.5 -321.999 169.5c-161.333 0 -278.333 -85.667 -351 -257c-51.333 -122 -77 -276.667 -77 -464c0 -470.667 142.667 -706 428 -706zM732.999 -33
c-170.667 0 -314.666 55.3311 -431.999 165.998c-76 72 -134.333 164.333 -175 277c-36.667 102.667 -55 211 -55 325c0 236.667 83.667 437.667 251 603c32.667 32 62 56.667 88 74c24 15.333 58.667 32.333 104 51c74 30 150.667 45 230 45c68 0 139.667 -13 215 -39
c69.333 -24 128.666 -59.667 177.999 -107c174.667 -167.333 262 -372.666 262 -615.999c0 -113.333 -18.167 -217.666 -54.5 -312.999s-91.833 -185 -166.5 -269c-116.667 -131.333 -265 -197 -445 -197zM871 2423l52.9971 0.000976562c-14 -74 -41.333 -129.333 -82 -166
c-32 -28.667 -69.667 -41.667 -113 -39l-32 2l-41 8l-109 29l-27 4l-30 2c-18 1.33301 -36 -5.33398 -54 -20.001c-13.333 -16.667 -24.666 -40 -33.999 -70h-52c12.667 72 35.834 125.833 69.501 161.5s76.167 52.167 127.5 49.5l35 -2l29 -6l110 -29l29 -6l26 -2
c44.667 -3.33301 76.334 24.667 95.001 84z" />
    <glyph glyph-name="Odieresis" unicode="&#xd6;" horiz-adv-x="1471" 
d="M735 25c284 0 425.999 246.333 425.999 739c0 232.667 -34.667 405.5 -104 518.5s-176.666 169.5 -321.999 169.5c-161.333 0 -278.333 -85.667 -351 -257c-51.333 -122 -77 -276.667 -77 -464c0 -470.667 142.667 -706 428 -706zM732.999 -33
c-170.667 0 -314.666 55.3311 -431.999 165.998c-76 72 -134.333 164.333 -175 277c-36.667 102.667 -55 211 -55 325c0 236.667 83.667 437.667 251 603c32.667 32 62 56.667 88 74c24 15.333 58.667 32.333 104 51c74 30 150.667 45 230 45c68 0 139.667 -13 215 -39
c69.333 -24 128.666 -59.667 177.999 -107c174.667 -167.333 262 -372.666 262 -615.999c0 -113.333 -18.167 -217.666 -54.5 -312.999s-91.833 -185 -166.5 -269c-116.667 -131.333 -265 -197 -445 -197zM985 2368c27.333 0 50.668 -10.333 70.001 -31s29 -44 29 -70
c0 -26.667 -9.83301 -50 -29.5 -70s-42.834 -30 -69.501 -30c-27.333 0 -50.833 9.83301 -70.5 29.5s-29.5 43.167 -29.5 70.5c0 26 10.167 49.333 30.5 70s43.5 31 69.5 31zM633.002 2368c26 0 49.167 -10.333 69.5 -31s30.5 -44 30.5 -70
c0 -27.333 -9.83301 -50.833 -29.5 -70.5s-43.167 -29.5 -70.5 -29.5c-26 0 -50 9.66699 -72 29c-17.333 20 -26 43.667 -26 71c0 26 9.83301 49.333 29.5 70s42.5 31 68.5 31z" />
    <glyph glyph-name="multiply" unicode="&#xd7;" horiz-adv-x="1706" 
d="M391 1178l469 -469l469 469l99 -98l-469 -469l469 -469l-99 -97l-469 467l-469 -467l-98 97l469 469l-469 469z" />
    <glyph glyph-name="Oslash" unicode="&#xd8;" horiz-adv-x="1471" 
d="M455 131c19.333 -18.667 38.332 -33.667 56.999 -45c24 -16 46 -27.667 66 -35c46.667 -17.333 98.334 -26 155.001 -26c292 0 438 238.333 438 715c0 243.333 -34.667 423.333 -104 540zM405.999 193l610 1145c-36 38.667 -77 67.334 -123 86.001s-98.667 28 -158 28
c-164 0 -283 -84.667 -357 -254c-52.667 -122 -79 -277.667 -79 -467c0 -116 8.83301 -218.5 26.5 -307.5s44.5 -165.833 80.5 -230.5zM253.999 -92.001l96 179.998c-89.333 78.667 -158.166 172.667 -206.499 282s-72.5 231 -72.5 365c0 120 20.667 229.333 62 328
s104.333 190.334 189 275.001c31.333 31.333 60.666 56 87.999 74c24 15.333 58.667 32.333 104 51c74 30 150.667 45 230 45c50.667 0 102.834 -7.33301 156.501 -22s106.5 -36.667 158.5 -66l98 186l61 -39l-100 -188c187.333 -165.333 281 -375.666 281 -630.999
c0 -114.667 -18.167 -219.667 -54.5 -315s-91.833 -185 -166.5 -269c-116.667 -131.333 -265 -197 -445 -197c-126.667 0 -234.334 26.667 -323.001 80l-92 -174z" />
    <glyph glyph-name="Ugrave" unicode="&#xd9;" horiz-adv-x="1428" 
d="M180 1254c0 121.333 -31.333 182 -94 182v39h402v-39c-63.333 0 -95 -60.667 -95 -182v-732c0 -172.667 28.667 -293.5 86 -362.5s156.333 -103.5 297 -103.5c58.667 0 114 7 166 21c47.333 12.667 89 33.667 125 63c46.667 38 79.667 90.333 99 157
c18.667 64 28 175.333 28 334v487c0 196.667 -47.667 302.667 -143 318v39h346v-39c-46.667 -14.667 -80 -46 -100 -94c-21.333 -51.333 -32 -129.333 -32 -234v-479c0 -136 -7.16699 -239.833 -21.5 -311.5s-37.5 -128.167 -69.5 -169.5
c-92.667 -120.667 -245 -181 -457 -181c-96 0 -184 16 -264 48c-134.667 54 -218 144.667 -250 272c-15.333 61.333 -23 153.333 -23 276v691zM695 2454l288 -299.001h-67l-330 205c-40.667 25.333 -61 53.333 -61 84c0 18.667 6.5 34.834 19.5 48.501
s30.167 20.5 51.5 20.5s43.333 -9.66699 66 -29c6 -4.66699 17 -14.667 33 -30z" />
    <glyph glyph-name="Uacute" unicode="&#xda;" horiz-adv-x="1428" 
d="M180 1254c0 121.333 -31.333 182 -94 182v39h402v-39c-63.333 0 -95 -60.667 -95 -182v-732c0 -172.667 28.667 -293.5 86 -362.5s156.333 -103.5 297 -103.5c58.667 0 114 7 166 21c47.333 12.667 89 33.667 125 63c46.667 38 79.667 90.333 99 157
c18.667 64 28 175.333 28 334v487c0 196.667 -47.667 302.667 -143 318v39h346v-39c-46.667 -14.667 -80 -46 -100 -94c-21.333 -51.333 -32 -129.333 -32 -234v-479c0 -136 -7.16699 -239.833 -21.5 -311.5s-37.5 -128.167 -69.5 -169.5
c-92.667 -120.667 -245 -181 -457 -181c-96 0 -184 16 -264 48c-134.667 54 -218 144.667 -250 272c-15.333 61.333 -23 153.333 -23 276v691zM942 2317l-329 -205h-68l289 299c24 24.667 42.667 40.667 56 48s27.333 11 42 11c48 0 72 -23 72 -69
c0 -30 -20.667 -58 -62 -84z" />
    <glyph glyph-name="Ucircumflex" unicode="&#xdb;" horiz-adv-x="1428" 
d="M180 1254c0 121.333 -31.333 182 -94 182v39h402v-39c-63.333 0 -95 -60.667 -95 -182v-732c0 -172.667 28.667 -293.5 86 -362.5s156.333 -103.5 297 -103.5c58.667 0 114 7 166 21c47.333 12.667 89 33.667 125 63c46.667 38 79.667 90.333 99 157
c18.667 64 28 175.333 28 334v487c0 196.667 -47.667 302.667 -143 318v39h346v-39c-46.667 -14.667 -80 -46 -100 -94c-21.333 -51.333 -32 -129.333 -32 -234v-479c0 -136 -7.16699 -239.833 -21.5 -311.5s-37.5 -128.167 -69.5 -169.5
c-92.667 -120.667 -245 -181 -457 -181c-96 0 -184 16 -264 48c-134.667 54 -218 144.667 -250 272c-15.333 61.333 -23 153.333 -23 276v691zM705 2534h119l231 -351h-57l-234 211l-233 -211h-58z" />
    <glyph glyph-name="Udieresis" unicode="&#xdc;" horiz-adv-x="1428" 
d="M180 1254c0 121.333 -31.333 182 -94 182v39h402v-39c-63.333 0 -95 -60.667 -95 -182v-732c0 -172.667 28.667 -293.5 86 -362.5s156.333 -103.5 297 -103.5c58.667 0 114 7 166 21c47.333 12.667 89 33.667 125 63c46.667 38 79.667 90.333 99 157
c18.667 64 28 175.333 28 334v487c0 196.667 -47.667 302.667 -143 318v39h346v-39c-46.667 -14.667 -80 -46 -100 -94c-21.333 -51.333 -32 -129.333 -32 -234v-479c0 -136 -7.16699 -239.833 -21.5 -311.5s-37.5 -128.167 -69.5 -169.5
c-92.667 -120.667 -245 -181 -457 -181c-96 0 -184 16 -264 48c-134.667 54 -218 144.667 -250 272c-15.333 61.333 -23 153.333 -23 276v691zM955 2353c27.333 0 50.5 -10.167 69.5 -30.5s28.5 -43.5 28.5 -69.5c0 -26.667 -9.66699 -50 -29 -70s-42.333 -30 -69 -30
c-28 0 -51.833 9.66699 -71.5 29s-29.5 43 -29.5 71c0 26 10.333 49.167 31 69.5s44 30.5 70 30.5zM602 2353c26 0 49.333 -10.167 70 -30.5s31 -43.5 31 -69.5c0 -28 -9.83301 -51.667 -29.5 -71s-43.5 -29 -71.5 -29c-26 0 -49.667 9.33301 -71 28
c-18 20.667 -27 44.667 -27 72c0 26 10 49.167 30 69.5s42.667 30.5 68 30.5z" />
    <glyph glyph-name="Yacute" unicode="&#xdd;" horiz-adv-x="1262" 
d="M424 0v38.999c64 0 96 60 96 180v375l-350 635c-66 131.333 -126 201 -180 209v37h414v-37c-38.667 -2.66699 -60.667 -21.667 -66 -57c0 -27.333 14.333 -66.333 43 -117c4.66699 -8 15 -26.333 31 -55l283 -517l243 447c23.333 42.667 39 78.667 47 108
c10 36.667 15 65.334 15 86.001c0 27.333 -9.16699 51.666 -27.5 72.999s-40.833 32 -67.5 32v37h365v-37c-34 -4 -64.667 -20.333 -92 -49c-34 -36 -77.667 -102.333 -131 -199l-318 -579v-392c0 -63.333 7.33301 -109.166 22 -137.499s39 -42.5 73 -42.5v-39h-400z
M891 2374l-330.001 -204.999h-67l289 299c24.667 25.333 43.334 41.5 56.001 48.5s26.667 10.5 42 10.5c48 0 72 -23 72 -69c0 -16.667 -5 -31 -15 -43c-14 -16.667 -29.667 -30.334 -47 -41.001z" />
    <glyph glyph-name="Thorn" unicode="&#xde;" horiz-adv-x="1256" 
d="M379 418l73.998 -10l96 -2c156.667 -3.33301 276.334 26.667 359.001 90c77.333 59.333 116 148.666 116 267.999c0 122 -40 214.667 -120 278c-73.333 57.333 -172.666 86 -297.999 86c-88 0 -147.833 -9.16699 -179.5 -27.5s-47.5 -58.166 -47.5 -119.499v-563z
M75.998 0v39c62.667 0 94 60 94 180v1035c0 66.667 -7.33301 113 -22 139c-16 28.667 -40 43 -72 43v39h397v-39c-62.667 0 -94 -60.667 -94 -182v-72l84 4l78 2c212 5.33301 383.333 -33 514 -115c121.333 -76.667 182 -181 182 -313c0 -131.333 -56 -233 -168 -305
c-117.333 -76 -274.333 -112.333 -471 -109l-114 2l-105 13v-142c0 -64 7.83301 -110 23.5 -138s39.167 -42 70.5 -42v-39h-397z" />
    <glyph glyph-name="germandbls" unicode="&#xdf;" horiz-adv-x="1053" 
d="M76 0l0.00195312 39.002c50.667 0 76 43.667 76 131v745h-127v66h127v209c0 105.333 31.333 185.333 94 240c60 52 143.333 78 250 78c100.667 0 182.667 -20.667 246 -62c74.667 -49.333 112 -121.666 112 -216.999c0 -75.333 -15.333 -136.333 -46 -183
s-77.334 -78.334 -140.001 -95.001c204.667 -20.667 307 -151.334 307 -392.001c0 -138.667 -31.333 -265.334 -94 -380.001c-75.333 -138.667 -177 -208 -305 -208c-48 0 -89.667 16 -125 48s-53 68.667 -53 110c0 24 7.66699 45.667 23 65s34.666 29 57.999 29
s42 -6.66699 56 -20c14.667 -17.333 24.667 -41.333 30 -72l3 -18c0 -50.667 17.667 -76 53 -76c110.667 0 166 137.333 166 412c0 152 -16.667 260.667 -50 326c-48 93.333 -139.333 140 -274 140h-51v66h63c76.667 0 129 17.667 157 53
c24.667 31.333 37 86.666 37 165.999c0 169.333 -59 254 -177 254c-56.667 0 -98.167 -18.667 -124.5 -56s-39.5 -97.666 -39.5 -180.999v-1218z" />
    <glyph glyph-name="agrave" unicode="&#xe0;" horiz-adv-x="905" 
d="M588 574c-110 -46.667 -186.667 -85.667 -230 -117c-84 -60 -126 -129.667 -126 -209c0 -48.667 12 -89.667 36 -123c26.667 -36.667 63.667 -55 111 -55c69.333 0 139 43.667 209 131v373zM889 74c-50.667 -68.667 -108.001 -102.998 -172.001 -102.998
c-86 0 -129 48 -129 144c-63.333 -48.667 -118 -84.334 -164 -107.001c-50 -24.667 -101.667 -37 -155 -37c-65.333 0 -118 20.667 -158 62s-60 94 -60 158c0 106 66.667 200.667 200 284c59.333 37.333 171.666 88.666 336.999 153.999v147c0 122 -42.333 183 -127 183
c-45.333 0 -79.666 -15.667 -102.999 -47c-14.667 -19.333 -30 -56.333 -46 -111c-18.667 -64 -56.334 -96 -113.001 -96c-26.667 0 -48.667 9.33301 -66 28s-26 41.334 -26 68.001c0 70 44.333 124.333 133 163c69.333 30.667 143.666 46 222.999 46
c102.667 0 177.334 -20 224.001 -60c50 -42.667 75 -114.334 75 -215.001v-587c0 -30 3.33301 -53.333 10 -70c8.66699 -13.333 20.334 -20 35.001 -20c20.667 0 38.334 13 53.001 39zM264.999 1420l288 -299h-67l-330 204c-41.333 25.333 -62 53.333 -62 84
c0 20.667 7 37 21 49c12 14 29 21 51 21c20 0 42 -9.66699 66 -29c12 -9.33301 23 -19.333 33 -30z" />
    <glyph glyph-name="aacute" unicode="&#xe1;" horiz-adv-x="905" 
d="M588 574c-110 -46.667 -186.667 -85.667 -230 -117c-84 -60 -126 -129.667 -126 -209c0 -48.667 12 -89.667 36 -123c26.667 -36.667 63.667 -55 111 -55c69.333 0 139 43.667 209 131v373zM889 74c-50.667 -68.667 -108.001 -102.998 -172.001 -102.998
c-86 0 -129 48 -129 144c-63.333 -48.667 -118 -84.334 -164 -107.001c-50 -24.667 -101.667 -37 -155 -37c-65.333 0 -118 20.667 -158 62s-60 94 -60 158c0 106 66.667 200.667 200 284c59.333 37.333 171.666 88.666 336.999 153.999v147c0 122 -42.333 183 -127 183
c-45.333 0 -79.666 -15.667 -102.999 -47c-14.667 -19.333 -30 -56.333 -46 -111c-18.667 -64 -56.334 -96 -113.001 -96c-26.667 0 -48.667 9.33301 -66 28s-26 41.334 -26 68.001c0 70 44.333 124.333 133 163c69.333 30.667 143.666 46 222.999 46
c102.667 0 177.334 -20 224.001 -60c50 -42.667 75 -114.334 75 -215.001v-587c0 -30 3.33301 -53.333 10 -70c8.66699 -13.333 20.334 -20 35.001 -20c20.667 0 38.334 13 53.001 39zM597.999 1325l-329 -204.001h-68l289 299c23.333 24.667 42.333 40.334 57 47.001
c12 8 25.667 12 41 12c48 0 72 -23.333 72 -70c0 -30.667 -20.667 -58.667 -62 -84z" />
    <glyph glyph-name="acircumflex" unicode="&#xe2;" horiz-adv-x="905" 
d="M588 574c-110 -46.667 -186.667 -85.667 -230 -117c-84 -60 -126 -129.667 -126 -209c0 -48.667 12 -89.667 36 -123c26.667 -36.667 63.667 -55 111 -55c69.333 0 139 43.667 209 131v373zM889 74c-50.667 -68.667 -108.001 -102.998 -172.001 -102.998
c-86 0 -129 48 -129 144c-63.333 -48.667 -118 -84.334 -164 -107.001c-50 -24.667 -101.667 -37 -155 -37c-65.333 0 -118 20.667 -158 62s-60 94 -60 158c0 106 66.667 200.667 200 284c59.333 37.333 171.666 88.666 336.999 153.999v147c0 122 -42.333 183 -127 183
c-45.333 0 -79.666 -15.667 -102.999 -47c-14.667 -19.333 -30 -56.333 -46 -111c-18.667 -64 -56.334 -96 -113.001 -96c-26.667 0 -48.667 9.33301 -66 28s-26 41.334 -26 68.001c0 70 44.333 124.333 133 163c69.333 30.667 143.666 46 222.999 46
c102.667 0 177.334 -20 224.001 -60c50 -42.667 75 -114.334 75 -215.001v-587c0 -30 3.33301 -53.333 10 -70c8.66699 -13.333 20.334 -20 35.001 -20c20.667 0 38.334 13 53.001 39zM317.999 1471h118l232 -350h-57l-234 210l-233 -210h-58z" />
    <glyph glyph-name="atilde" unicode="&#xe3;" horiz-adv-x="905" 
d="M588 574c-110 -46.667 -186.667 -85.667 -230 -117c-84 -60 -126 -129.667 -126 -209c0 -48.667 12 -89.667 36 -123c26.667 -36.667 63.667 -55 111 -55c69.333 0 139 43.667 209 131v373zM889 74c-50.667 -68.667 -108.001 -102.998 -172.001 -102.998
c-86 0 -129 48 -129 144c-63.333 -48.667 -118 -84.334 -164 -107.001c-50 -24.667 -101.667 -37 -155 -37c-65.333 0 -118 20.667 -158 62s-60 94 -60 158c0 106 66.667 200.667 200 284c59.333 37.333 171.666 88.666 336.999 153.999v147c0 122 -42.333 183 -127 183
c-45.333 0 -79.666 -15.667 -102.999 -47c-14.667 -19.333 -30 -56.333 -46 -111c-18.667 -64 -56.334 -96 -113.001 -96c-26.667 0 -48.667 9.33301 -66 28s-26 41.334 -26 68.001c0 70 44.333 124.333 133 163c69.333 30.667 143.666 46 222.999 46
c102.667 0 177.334 -20 224.001 -60c50 -42.667 75 -114.334 75 -215.001v-587c0 -30 3.33301 -53.333 10 -70c8.66699 -13.333 20.334 -20 35.001 -20c20.667 0 38.334 13 53.001 39zM610.999 1417l52.999 0.000976562c-12 -65.333 -35.333 -116.333 -70 -153
s-76.334 -53.667 -125.001 -51l-33 2l-40 8l-109 29l-27 4l-30 2c-18 1.33301 -36 -5.66699 -54 -21c-13.333 -16 -24.666 -39 -33.999 -69h-52c12.667 70.667 35.334 123.667 68.001 159c35.333 37.333 78.333 54.666 129 51.999l35 -2l168 -41l26 -3c45.333 0 77 28 95 84
z" />
    <glyph glyph-name="adieresis" unicode="&#xe4;" horiz-adv-x="905" 
d="M588 574c-110 -46.667 -186.667 -85.667 -230 -117c-84 -60 -126 -129.667 -126 -209c0 -48.667 12 -89.667 36 -123c26.667 -36.667 63.667 -55 111 -55c69.333 0 139 43.667 209 131v373zM889 74c-50.667 -68.667 -108.001 -102.998 -172.001 -102.998
c-86 0 -129 48 -129 144c-63.333 -48.667 -118 -84.334 -164 -107.001c-50 -24.667 -101.667 -37 -155 -37c-65.333 0 -118 20.667 -158 62s-60 94 -60 158c0 106 66.667 200.667 200 284c59.333 37.333 171.666 88.666 336.999 153.999v147c0 122 -42.333 183 -127 183
c-45.333 0 -79.666 -15.667 -102.999 -47c-14.667 -19.333 -30 -56.333 -46 -111c-18.667 -64 -56.334 -96 -113.001 -96c-26.667 0 -48.667 9.33301 -66 28s-26 41.334 -26 68.001c0 70 44.333 124.333 133 163c69.333 30.667 143.666 46 222.999 46
c102.667 0 177.334 -20 224.001 -60c50 -42.667 75 -114.334 75 -215.001v-587c0 -30 3.33301 -53.333 10 -70c8.66699 -13.333 20.334 -20 35.001 -20c20.667 0 38.334 13 53.001 39zM552.999 1377c27.333 0 50.668 -10.333 70.001 -31s29 -44 29 -70
c0 -26.667 -9.83301 -50 -29.5 -70s-42.834 -30 -69.501 -30c-27.333 0 -50.833 9.83301 -70.5 29.5s-29.5 43.167 -29.5 70.5c0 26 10.167 49.333 30.5 70s43.5 31 69.5 31zM201.001 1377c26 0 49.167 -10.333 69.5 -31s30.5 -44 30.5 -70
c0 -27.333 -9.83301 -50.833 -29.5 -70.5s-43.167 -29.5 -70.5 -29.5c-26 0 -50 9.33301 -72 28c-17.333 20.667 -26 44.667 -26 72c0 26 9.83301 49.333 29.5 70s42.5 31 68.5 31z" />
    <glyph glyph-name="aring" unicode="&#xe5;" horiz-adv-x="905" 
d="M461 1467c-39.333 0 -74.167 -14.5 -104.5 -43.5s-45.5 -64.5 -45.5 -106.5c0 -41.333 14.5 -76.5 43.5 -105.5s64.5 -43.5 106.5 -43.5c41.333 0 76.666 14.167 105.999 42.5s44 63.833 44 106.5c0 44 -14.667 80 -44 108s-64.666 42 -105.999 42zM460.999 1557
c68 0 125 -23 171 -69s69 -103 69 -171s-23 -125.333 -69 -172s-103 -70 -171 -70c-67.333 0 -124.5 23.5 -171.5 70.5s-70.5 104.167 -70.5 171.5c0 68 23.333 125 70 171s104 69 172 69zM587.999 574c-110 -46.667 -186.667 -85.667 -230 -117
c-84 -60 -126 -129.667 -126 -209c0 -48.667 12 -89.667 36 -123c26.667 -36.667 63.667 -55 111 -55c69.333 0 139 43.667 209 131v373zM888.999 74c-50.667 -68.667 -108.003 -102.998 -172.003 -102.998c-86 0 -129 48 -129 144
c-63.333 -48.667 -118 -84.334 -164 -107.001c-50 -24.667 -101.667 -37 -155 -37c-65.333 0 -118 20.667 -158 62s-60 94 -60 158c0 106 66.667 200.667 200 284c59.333 37.333 171.666 88.666 336.999 153.999v147c0 122 -42.333 183 -127 183
c-45.333 0 -79.666 -15.667 -102.999 -47c-13.333 -18 -29.666 -55 -48.999 -111c-7.33301 -30 -21 -53.5 -41 -70.5s-43 -25.5 -69 -25.5c-26.667 0 -48.667 9.33301 -66 28s-26 41.334 -26 68.001c0 70 44.333 124.333 133 163c69.333 30.667 143.666 46 222.999 46
c102.667 0 177.334 -20 224.001 -60c50 -42.667 75 -114.334 75 -215.001v-587c0 -30 3.33301 -53.333 10 -70c8.66699 -13.333 20.334 -20 35.001 -20c20.667 0 38.334 13 53.001 39z" />
    <glyph glyph-name="ae" unicode="&#xe6;" horiz-adv-x="1422" 
d="M762 609h298.999c42.667 0 65.334 0.333008 68.001 1c20.667 4.66699 33 20 37 46c0 202 -65.667 303 -197 303c-138 0 -207 -113.333 -207 -340v-10zM624.999 236c-18 41.333 -27.6689 78 -29.002 110l-8 158v70c-110 -46.667 -186.667 -85.667 -230 -117
c-84 -60 -126 -129.667 -126 -209c0 -48 11.667 -88.667 35 -122c26.667 -37.333 63.334 -56 110.001 -56c78.667 0 161.334 55.333 248.001 166zM648.997 191c-128.667 -146.667 -255.329 -220 -379.996 -220c-65.333 0 -118 20.667 -158 62s-60 94 -60 158
c0 106 66.667 200.667 200 284c59.333 37.333 171.666 88.666 336.999 153.999v147c0 122 -42.333 183 -127 183c-46 0 -80.667 -15.333 -104 -46c-13.333 -18.667 -28.333 -56 -45 -112c-18.667 -64 -56.334 -96 -113.001 -96c-26.667 0 -48.667 9.33301 -66 28
s-26 41.334 -26 68.001c0 70 44.333 124.333 133 163c69.333 30.667 143.666 46 222.999 46c131.333 0 218.666 -34 261.999 -102c41.333 37.333 80.333 63 117 77c42.667 16.667 89 25 139 25c106 0 191.333 -41 256 -123c70 -88.667 105 -202.667 105 -342h-580
c0 -120 23.667 -222 71 -306c58 -103.333 142.333 -155 253 -155c94.667 0 175.667 43.667 243 131l39 -24c-93.333 -146.667 -215.333 -220 -366 -220c-72.667 0 -140.167 19.167 -202.5 57.5s-112.5 92.5 -150.5 162.5z" />
    <glyph glyph-name="ccedilla" unicode="&#xe7;" horiz-adv-x="854" 
d="M789 213l30.001 -22.001c-103.333 -146.667 -223.333 -220 -360 -220c-119.333 0 -215.666 45.333 -288.999 136c-72 88.667 -108 208.667 -108 360c0 148 36.333 272.333 109 373c81.333 113.333 193 170 335 170c68 0 132.333 -18.667 193 -56
c69.333 -43.333 104 -97 104 -161c0 -62.667 -29.333 -94 -88 -94c-56 0 -93 38.667 -111 116l-4 17c-9.33301 38.667 -25.666 69.334 -48.999 92.001c-10.667 8.66699 -19.334 15 -26.001 19c-16.667 8 -38 12 -64 12c-84 0 -145 -48.667 -183 -146
c-26.667 -68 -40 -152 -40 -252c0 -118 21 -219.667 63 -305c53.333 -109.333 133.333 -164 240 -164c43.333 0 87.666 11 132.999 33s83.666 52.667 114.999 92zM336.001 -1.00098h62.999v-112l33 4l29 2c52 3.33301 96.333 -11 133 -43c32.667 -28.667 49 -69 49 -121
c0 -117.333 -73 -176 -219 -176c-29.333 0 -70.333 6.33301 -123 19c-54.667 13.333 -111 32.333 -169 57l34 78c18 -10 35.667 -19 53 -27c6.66699 -2.66699 33.334 -12 80.001 -28c33.333 -11.333 63.333 -17 90 -17c80.667 0 121 30.667 121 92c0 60 -38 90 -114 90h-27
l-33 -6v188z" />
    <glyph glyph-name="egrave" unicode="&#xe8;" horiz-adv-x="901" 
d="M239 609h300c42 0 64.667 0.333008 68 1c22 5.33301 34.667 20.666 38 45.999c0 98.667 -17 173.834 -51 225.501s-82.333 77.5 -145 77.5c-140 0 -210 -113.333 -210 -340v-10zM807 215l39 -23.999c-96.667 -146.667 -218 -220 -364 -220
c-122 0 -222.667 47.333 -302 142s-119 214.667 -119 360c0 146 29.333 267 88 363c70 116 173.333 174 310 174c104.667 0 189.334 -41 254.001 -123c36.667 -46 63.5 -95.333 80.5 -148s25.5 -117.334 25.5 -194.001h-580c0 -137.333 31 -250 93 -338
c58 -82 135 -123 231 -123c95.333 0 176.666 43.667 243.999 131zM275 1420l288.001 -299h-67l-330 204c-41.333 25.333 -62 53.333 -62 84c0 20.667 6.66699 37.5 20 50.5s30.666 19.5 51.999 19.5c20 0 42 -9.66699 66 -29c12 -9.33301 23 -19.333 33 -30z" />
    <glyph glyph-name="eacute" unicode="&#xe9;" horiz-adv-x="901" 
d="M239 609h300c42 0 64.667 0.333008 68 1c22 5.33301 34.667 20.666 38 45.999c0 98.667 -17 173.834 -51 225.501s-82.333 77.5 -145 77.5c-140 0 -210 -113.333 -210 -340v-10zM807 215l39 -23.999c-96.667 -146.667 -218 -220 -364 -220
c-122 0 -222.667 47.333 -302 142s-119 214.667 -119 360c0 146 29.333 267 88 363c70 116 173.333 174 310 174c104.667 0 189.334 -41 254.001 -123c36.667 -46 63.5 -95.333 80.5 -148s25.5 -117.334 25.5 -194.001h-580c0 -137.333 31 -250 93 -338
c58 -82 135 -123 231 -123c95.333 0 176.666 43.667 243.999 131zM609 1325l-330.001 -204h-68l289 299c23.333 24 42.333 39.667 57 47c12.667 8 26.334 12 41.001 12c48 0 72 -23.333 72 -70c0 -16 -4.66699 -30.333 -14 -43c-11.333 -12 -27 -25.667 -47 -41z" />
    <glyph glyph-name="ecircumflex" unicode="&#xea;" horiz-adv-x="901" 
d="M239 609h300c42 0 64.667 0.333008 68 1c22 5.33301 34.667 20.666 38 45.999c0 98.667 -17 173.834 -51 225.501s-82.333 77.5 -145 77.5c-140 0 -210 -113.333 -210 -340v-10zM807 215l39 -23.999c-96.667 -146.667 -218 -220 -364 -220
c-122 0 -222.667 47.333 -302 142s-119 214.667 -119 360c0 146 29.333 267 88 363c70 116 173.333 174 310 174c104.667 0 189.334 -41 254.001 -123c36.667 -46 63.5 -95.333 80.5 -148s25.5 -117.334 25.5 -194.001h-580c0 -137.333 31 -250 93 -338
c58 -82 135 -123 231 -123c95.333 0 176.666 43.667 243.999 131zM328 1471h119l231 -350h-57l-234 210l-233 -210h-58z" />
    <glyph glyph-name="edieresis" unicode="&#xeb;" horiz-adv-x="901" 
d="M239 609h300c42 0 64.667 0.333008 68 1c22 5.33301 34.667 20.666 38 45.999c0 98.667 -17 173.834 -51 225.501s-82.333 77.5 -145 77.5c-140 0 -210 -113.333 -210 -340v-10zM807 215l39 -23.999c-96.667 -146.667 -218 -220 -364 -220
c-122 0 -222.667 47.333 -302 142s-119 214.667 -119 360c0 146 29.333 267 88 363c70 116 173.333 174 310 174c104.667 0 189.334 -41 254.001 -123c36.667 -46 63.5 -95.333 80.5 -148s25.5 -117.334 25.5 -194.001h-580c0 -137.333 31 -250 93 -338
c58 -82 135 -123 231 -123c95.333 0 176.666 43.667 243.999 131zM563 1377c27.333 0 50.668 -10.333 70.001 -31s29 -44 29 -70c0 -26.667 -9.83301 -50 -29.5 -70s-42.834 -30 -69.501 -30c-27.333 0 -50.833 9.83301 -70.5 29.5s-29.5 43.167 -29.5 70.5
c0 26 10.167 49.333 30.5 70s43.5 31 69.5 31zM211.002 1377c26 0 49.166 -10.333 69.499 -31s30.5 -44 30.5 -70c0 -27.333 -9.83301 -50.833 -29.5 -70.5s-43.167 -29.5 -70.5 -29.5c-26 0 -49.667 9.33301 -71 28c-18.667 20.667 -28 44.667 -28 72
c0 25.333 10.333 48.5 31 69.5s43.334 31.5 68.001 31.5z" />
    <glyph glyph-name="igrave" unicode="&#xec;" horiz-adv-x="473" 
d="M183 1534l288 -299.001h-67l-330 205c-40.667 25.333 -61 53.333 -61 84c0 20.667 6.33301 37.5 19 50.5s30 19.5 52 19.5c20 0 42 -9.66699 66 -29c9.33301 -7.33301 20.333 -17.666 33 -30.999zM76 -0.000976562l0.000976562 39.001c50 0 75 43.667 75 131v588
c0 40 -3.66699 68 -11 84c-11.333 24.667 -34 39 -68 43v31c77.333 17.333 151.666 61.666 222.999 132.999h37v-879c0 -87.333 25.333 -131 76 -131v-39h-332z" />
    <glyph glyph-name="iacute" unicode="&#xed;" horiz-adv-x="473" 
d="M445 1411l-330.001 -204h-68l289 299c23.333 24 42.333 39.667 57 47c12.667 8 26.334 12 41.001 12c48 0 72 -23.333 72 -70c0 -16 -4.66699 -30.333 -14 -43c-11.333 -12 -27 -25.667 -47 -41zM75.999 0l0.000976562 39.001c50 0 75 43.667 75 131v588
c0 40 -3.66699 68 -11 84c-11.333 24.667 -34 39 -68 43v31c77.333 17.333 151.666 61.666 222.999 132.999h37v-879c0 -87.333 25.333 -131 76 -131v-39h-332z" />
    <glyph glyph-name="icircumflex" unicode="&#xee;" horiz-adv-x="473" 
d="M135 1557h119l232 -350h-58l-233 210l-234 -210h-58zM76 0l0.000976562 39.001c50 0 75 43.667 75 131v588c0 40 -3.66699 68 -11 84c-11.333 24.667 -34 39 -68 43v31c77.333 17.333 151.666 61.666 222.999 132.999h37v-879c0 -87.333 25.333 -131 76 -131v-39h-332z
" />
    <glyph glyph-name="idieresis" unicode="&#xef;" horiz-adv-x="473" 
d="M385 1448c26.667 0 49.834 -10.167 69.501 -30.5s29.5 -43.5 29.5 -69.5c0 -26.667 -9.83301 -50.167 -29.5 -70.5s-42.834 -30.5 -69.501 -30.5c-27.333 0 -50.833 10 -70.5 30s-29.5 43.667 -29.5 71c0 25.333 10.333 48.333 31 69s43.667 31 69 31zM33 1448
c26 0 49.168 -10.167 69.501 -30.5s30.5 -43.5 30.5 -69.5c0 -27.333 -9.83301 -51 -29.5 -71s-43.167 -30 -70.5 -30c-26 0 -50 9.66699 -72 29c-18 20.667 -27 44.667 -27 72c0 25.333 10.167 48.333 30.5 69s43.166 31 68.499 31zM76.001 0l0.000976562 39.001
c50 0 75 43.667 75 131v588c0 40 -3.66699 68 -11 84c-11.333 24.667 -34 39 -68 43v31c77.333 17.333 151.666 61.666 222.999 132.999h37v-879c0 -87.333 25.333 -131 76 -131v-39h-332z" />
    <glyph glyph-name="eth" unicode="&#xf0;" horiz-adv-x="991" 
d="M496 25c162 0 242.999 153.668 242.999 461.001c0 160 -19.667 278.833 -59 356.5s-100.666 116.5 -183.999 116.5c-81.333 0 -142 -38.333 -182 -115c-41.333 -78.667 -62 -194.667 -62 -348c0 -156.667 20.5 -274.334 61.5 -353.001s101.833 -118 182.5 -118z
M679.999 963.001c-23.333 54 -46.332 101.999 -68.999 143.999c-14.667 26.667 -26.334 47.667 -35.001 63c-2 4 -15.667 23 -41 57l-266 -172l-27 45l262 170c-25.333 34.667 -54.666 67.334 -87.999 98.001c-5.33301 6 -18.333 19 -39 39
c-14.667 13.333 -39.334 34 -74.001 62l23 39c16 -9.33301 38.333 -23 67 -41c12.667 -8.66699 34 -25.334 64 -50.001l119 -98l248 158l28 -45l-233 -150c107.333 -110 185.666 -222 234.999 -336c50.667 -118 76 -251.667 76 -401c0 -158 -32 -288 -96 -390
c-76.667 -122 -189.334 -183 -338.001 -183c-126 0 -230 48.667 -312 146s-123 222 -123 374c0 152.667 41.333 277.667 124 375c81.333 95.333 185 143 311 143c27.333 0 57.333 -4 90 -12c8.66699 -2 22.334 -5.33301 41.001 -10
c14.667 -5.33301 32.334 -13.666 53.001 -24.999z" />
    <glyph glyph-name="ntilde" unicode="&#xf1;" horiz-adv-x="973" 
d="M66 0l-0.000976562 39.001c50.667 0 76 43.667 76 131v551c0 45.333 -6.33301 76 -19 92c-9.33301 18 -29.666 29 -60.999 33v31c38.667 8.66699 79 25.667 121 51c38.667 23.333 72.667 50.666 102 81.999h33v-184l37 24c164.667 106.667 277 160 337 160
c98.667 0 148 -63.667 148 -191v-649c0 -44.667 5.33301 -78 16 -100c14 -20.667 34 -31 60 -31v-39h-328v39c50.667 0 76 43.667 76 131v561c0 46 -4.33301 78 -13 96c-12.667 28 -39 42 -79 42c-53.333 0 -138 -33.667 -254 -101v-598c0 -30 1 -51.167 3 -63.5
s6.33301 -24.5 13 -36.5c14 -20.667 33.667 -31 59 -31v-39h-327zM724.999 1417l54 0.000976562c-11.333 -64.667 -34.666 -115.5 -69.999 -152.5s-77 -54.167 -125 -51.5l-33 2l-41 8l-108 29l-27 4l-31 2c-17.333 1.33301 -35 -5.66699 -53 -21
c-13.333 -16 -25 -39 -35 -69h-50c11.333 70.667 34.166 124.167 68.499 160.5s76.833 53.166 127.5 50.499l34 -2l29 -7l139 -34l27 -3c46 0 77.333 28 94 84z" />
    <glyph glyph-name="ograve" unicode="&#xf2;" horiz-adv-x="991" 
d="M496 25c152.667 0 229.001 153.668 229.001 461.001c0 162.667 -18.5 282.167 -55.5 358.5s-94.833 114.5 -173.5 114.5c-74.667 0 -131.334 -38.333 -170.001 -115c-40 -78.667 -60 -194.667 -60 -348c0 -156.667 19.167 -274.334 57.5 -353.001s95.833 -118 172.5 -118
zM496.001 -27.999c-126 0 -230 48.667 -312 146s-123 222 -123 374c0 152.667 41.333 277.667 124 375c81.333 95.333 185 143 311 143c127.333 0 231.5 -48.167 312.5 -144.5s121.5 -220.833 121.5 -373.5c0 -140 -36.667 -259 -110 -357
c-80.667 -108.667 -188.667 -163 -324 -163zM396.001 1420l288 -299h-67l-330 204c-40.667 25.333 -61 53.333 -61 84c0 20.667 6.33301 37.5 19 50.5s30 19.5 52 19.5c20 0 42 -9.66699 66 -29c12 -9.33301 23 -19.333 33 -30z" />
    <glyph glyph-name="oacute" unicode="&#xf3;" horiz-adv-x="991" 
d="M496 25c152.667 0 229.001 153.668 229.001 461.001c0 162.667 -18.5 282.167 -55.5 358.5s-94.833 114.5 -173.5 114.5c-74.667 0 -131.334 -38.333 -170.001 -115c-40 -78.667 -60 -194.667 -60 -348c0 -156.667 19.167 -274.334 57.5 -353.001s95.833 -118 172.5 -118
zM496.001 -27.999c-126 0 -230 48.667 -312 146s-123 222 -123 374c0 152.667 41.333 277.667 124 375c81.333 95.333 185 143 311 143c127.333 0 231.5 -48.167 312.5 -144.5s121.5 -220.833 121.5 -373.5c0 -140 -36.667 -259 -110 -357
c-80.667 -108.667 -188.667 -163 -324 -163zM729.001 1325l-329.001 -204h-68l289 299c23.333 24 42.333 39.667 57 47c12.667 8 26.334 12 41.001 12c48 0 72 -23.333 72 -70c0 -30.667 -20.667 -58.667 -62 -84z" />
    <glyph glyph-name="ocircumflex" unicode="&#xf4;" horiz-adv-x="991" 
d="M496 25c152.667 0 229.001 153.668 229.001 461.001c0 162.667 -18.5 282.167 -55.5 358.5s-94.833 114.5 -173.5 114.5c-74.667 0 -131.334 -38.333 -170.001 -115c-40 -78.667 -60 -194.667 -60 -348c0 -156.667 19.167 -274.334 57.5 -353.001s95.833 -118 172.5 -118
zM496.001 -27.999c-126 0 -230 48.667 -312 146s-123 222 -123 374c0 152.667 41.333 277.667 124 375c81.333 95.333 185 143 311 143c127.333 0 231.5 -48.167 312.5 -144.5s121.5 -220.833 121.5 -373.5c0 -140 -36.667 -259 -110 -357
c-80.667 -108.667 -188.667 -163 -324 -163zM449.001 1471h119l231 -350h-57l-234 210l-233 -210h-58z" />
    <glyph glyph-name="otilde" unicode="&#xf5;" horiz-adv-x="991" 
d="M496 25c152.667 0 229.001 153.668 229.001 461.001c0 162.667 -18.5 282.167 -55.5 358.5s-94.833 114.5 -173.5 114.5c-74.667 0 -131.334 -38.333 -170.001 -115c-40 -78.667 -60 -194.667 -60 -348c0 -156.667 19.167 -274.334 57.5 -353.001s95.833 -118 172.5 -118
zM496.001 -27.999c-126 0 -230 48.667 -312 146s-123 222 -123 374c0 152.667 41.333 277.667 124 375c81.333 95.333 185 143 311 143c127.333 0 231.5 -48.167 312.5 -144.5s121.5 -220.833 121.5 -373.5c0 -140 -36.667 -259 -110 -357
c-80.667 -108.667 -188.667 -163 -324 -163zM742.001 1417l52.999 0.000976562c-12 -65.333 -35.333 -116.5 -70 -153.5s-76.334 -53.833 -125.001 -50.5l-32 2l-41 8l-109 29l-27 4l-30 2c-18 1.33301 -36 -5.66699 -54 -21c-13.333 -16 -24.666 -39 -33.999 -69h-52
c12.667 70.667 35.334 123.667 68.001 159c35.333 37.333 78.333 54.666 129 51.999l35 -2l29 -7l110 -28l29 -6l26 -3c45.333 0 77 28 95 84z" />
    <glyph glyph-name="odieresis" unicode="&#xf6;" horiz-adv-x="991" 
d="M496 25c152.667 0 229.001 153.668 229.001 461.001c0 162.667 -18.5 282.167 -55.5 358.5s-94.833 114.5 -173.5 114.5c-74.667 0 -131.334 -38.333 -170.001 -115c-40 -78.667 -60 -194.667 -60 -348c0 -156.667 19.167 -274.334 57.5 -353.001s95.833 -118 172.5 -118
zM496.001 -27.999c-126 0 -230 48.667 -312 146s-123 222 -123 374c0 152.667 41.333 277.667 124 375c81.333 95.333 185 143 311 143c127.333 0 231.5 -48.167 312.5 -144.5s121.5 -220.833 121.5 -373.5c0 -140 -36.667 -259 -110 -357
c-80.667 -108.667 -188.667 -163 -324 -163zM684.001 1377c27.333 0 50.668 -10.333 70.001 -31s29 -44 29 -70c0 -26.667 -9.83301 -50 -29.5 -70s-42.834 -30 -69.501 -30c-27.333 0 -50.833 9.83301 -70.5 29.5s-29.5 43.167 -29.5 70.5c0 26 10.167 49.333 30.5 70
s43.5 31 69.5 31zM332.003 1377c26 0 49.167 -10.333 69.5 -31s30.5 -44 30.5 -70c0 -27.333 -9.83301 -50.833 -29.5 -70.5s-43.167 -29.5 -70.5 -29.5c-26 0 -50 9.33301 -72 28c-17.333 20.667 -26 44.667 -26 72c0 26 9.83301 49.333 29.5 70s42.5 31 68.5 31z" />
    <glyph glyph-name="divide" unicode="&#xf7;" horiz-adv-x="1706" 
d="M854 367c34 0 63.333 -12.333 88 -37s37 -54 37 -88s-12.333 -63.333 -37 -88s-54 -37 -88 -37s-63.333 12.333 -88 37s-37 54 -37 88s12.333 63.333 37 88s54 37 88 37zM254 680h1198v-140h-1198v140zM854 1106c32.667 0 61.667 -12.667 87 -38s38 -55 38 -89
s-12.333 -63.333 -37 -88s-54 -37 -88 -37s-63.333 12.333 -88 37s-37 54 -37 88c0 34.667 12.167 64.5 36.5 89.5s53.833 37.5 88.5 37.5z" />
    <glyph glyph-name="oslash" unicode="&#xf8;" horiz-adv-x="991" 
d="M322 121c6 -8.66699 18.333 -21.666 37 -38.999c9.33301 -8.66699 23 -20.334 41 -35.001c27.333 -14.667 59.333 -22 96 -22c162 0 243 153.667 243 461c0 69.333 -2.66699 129.333 -8 180c-6 53.333 -16.667 99 -32 137zM285 195.001l375.001 678.001
c-44.667 57.333 -99.334 86 -164.001 86c-162.667 0 -244 -158.333 -244 -475v-70c0 -10 2.66699 -39.333 8 -88c6 -52.667 14.333 -96.334 25 -131.001zM127.001 -83.998l92.001 164.001c-52.667 49.333 -92 107.333 -118 174c-26.667 69.333 -40 148.666 -40 237.999
c0 152.667 41.333 277.667 124 375c81.333 95.333 185 143 311 143c53.333 0 106.666 -11 159.999 -33c8 -3.33301 24.333 -11.333 49 -24l88 159l55 -35l-90 -163c114.667 -101.333 172 -242 172 -422c0 -140 -36.667 -259 -110 -357
c-80.667 -108.667 -188.667 -163 -324 -163c-34 0 -71 6 -111 18s-76.667 29 -110 51l-90 -162z" />
    <glyph glyph-name="ugrave" unicode="&#xf9;" horiz-adv-x="963" 
d="M654 0l0.00390625 158c-128 -85.333 -210.667 -136.666 -248 -153.999c-46.667 -22 -88.334 -33 -125.001 -33c-98.667 0 -148 64.333 -148 193v594c0 77.333 -27.333 119.666 -82 126.999v31c63.333 14.667 120.666 43.334 171.999 86.001
c19.333 16 36.666 31.667 51.999 47h32v-795c0 -49.333 7.66699 -83.333 23 -102c12 -19.333 36.667 -29 74 -29c25.333 0 60.666 8.33301 105.999 25c48 18 96 41 144 69v506c0 52 -5.66699 91 -17 117c-12 20.667 -32.333 35 -61 43v35c32.667 12 53.667 20 63 24
c4.66699 1.33301 19.667 9.66602 45 24.999c13.333 8 32 19.667 56 35c10.667 7.33301 29.667 23 57 47h33v-836c0 -52.667 4 -89.667 12 -111c12.667 -34 40 -55 82 -63v-39h-270zM336.004 1420l289.001 -299h-68l-329 204c-41.333 25.333 -62 53.333 -62 84
c0 20.667 7 37 21 49c12 14 29 21 51 21c14.667 0 28 -4 40 -12c21.333 -13.333 40.666 -29 57.999 -47z" />
    <glyph glyph-name="uacute" unicode="&#xfa;" horiz-adv-x="963" 
d="M654 0l0.00390625 158c-128 -85.333 -210.667 -136.666 -248 -153.999c-46.667 -22 -88.334 -33 -125.001 -33c-98.667 0 -148 64.333 -148 193v594c0 77.333 -27.333 119.666 -82 126.999v31c63.333 14.667 120.666 43.334 171.999 86.001
c19.333 16 36.666 31.667 51.999 47h32v-795c0 -49.333 7.66699 -83.333 23 -102c12 -19.333 36.667 -29 74 -29c25.333 0 60.666 8.33301 105.999 25c48 18 96 41 144 69v506c0 52 -5.66699 91 -17 117c-12 20.667 -32.333 35 -61 43v35c32.667 12 53.667 20 63 24
c4.66699 1.33301 19.667 9.66602 45 24.999c13.333 8 32 19.667 56 35c10.667 7.33301 29.667 23 57 47h33v-836c0 -52.667 4 -89.667 12 -111c12.667 -34 40 -55 82 -63v-39h-270zM670.004 1325l-330 -204h-67l288 299c22.667 24 42 39.667 58 47c12 8 25.667 12 41 12
c48 0 72 -23.333 72 -70c0 -16 -4.66699 -30.333 -14 -43c-17.333 -18 -33.333 -31.667 -48 -41z" />
    <glyph glyph-name="ucircumflex" unicode="&#xfb;" horiz-adv-x="963" 
d="M654 0l0.00390625 158c-128 -85.333 -210.667 -136.666 -248 -153.999c-46.667 -22 -88.334 -33 -125.001 -33c-98.667 0 -148 64.333 -148 193v594c0 77.333 -27.333 119.666 -82 126.999v31c63.333 14.667 120.666 43.334 171.999 86.001
c19.333 16 36.666 31.667 51.999 47h32v-795c0 -49.333 7.66699 -83.333 23 -102c12 -19.333 36.667 -29 74 -29c25.333 0 60.666 8.33301 105.999 25c48 18 96 41 144 69v506c0 52 -5.66699 91 -17 117c-12 20.667 -32.333 35 -61 43v35c32.667 12 53.667 20 63 24
c4.66699 1.33301 19.667 9.66602 45 24.999c13.333 8 32 19.667 56 35c10.667 7.33301 29.667 23 57 47h33v-836c0 -52.667 4 -89.667 12 -111c12.667 -34 40 -55 82 -63v-39h-270zM389.004 1471h119l232 -350h-57l-234 210l-234 -210h-57z" />
    <glyph glyph-name="udieresis" unicode="&#xfc;" horiz-adv-x="963" 
d="M654 0l0.00390625 158c-128 -85.333 -210.667 -136.666 -248 -153.999c-46.667 -22 -88.334 -33 -125.001 -33c-98.667 0 -148 64.333 -148 193v594c0 77.333 -27.333 119.666 -82 126.999v31c63.333 14.667 120.666 43.334 171.999 86.001
c19.333 16 36.666 31.667 51.999 47h32v-795c0 -49.333 7.66699 -83.333 23 -102c12 -19.333 36.667 -29 74 -29c25.333 0 60.666 8.33301 105.999 25c48 18 96 41 144 69v506c0 52 -5.66699 91 -17 117c-12 20.667 -32.333 35 -61 43v35c32.667 12 53.667 20 63 24
c4.66699 1.33301 19.667 9.66602 45 24.999c13.333 8 32 19.667 56 35c10.667 7.33301 29.667 23 57 47h33v-836c0 -52.667 4 -89.667 12 -111c12.667 -34 40 -55 82 -63v-39h-270zM625.004 1377c27.333 0 50.668 -10.333 70.001 -31s29 -44 29 -70
c0 -26.667 -9.83301 -50 -29.5 -70s-42.834 -30 -69.501 -30c-28 0 -51.667 9.66699 -71 29s-29 43 -29 71c0 26.667 10 50.167 30 70.5s43.333 30.5 70 30.5zM273.006 1377c26 0 49.168 -10.333 69.501 -31s30.5 -44 30.5 -70c0 -26.667 -10 -50 -30 -70
s-43.333 -30 -70 -30c-26 0 -50 9.33301 -72 28c-18 20.667 -27 44.667 -27 72c0 25.333 10.167 48.5 30.5 69.5s43.166 31.5 68.499 31.5z" />
    <glyph glyph-name="yacute" unicode="&#xfd;" horiz-adv-x="844" 
d="M375 0l-272 802.999c-16 47.333 -31.667 80 -47 98c-16.667 24.667 -35.334 39 -56.001 43v37h328v-37c-21.333 -4 -36.5 -10.833 -45.5 -20.5s-13.5 -24.5 -13.5 -44.5l4 -19l200 -628l162 499l12 54l7 57c0 60 -24 94 -72 102v37h280v-37
c-27.333 -7.33301 -56 -33.666 -86 -78.999c-25.333 -38.667 -54 -103 -86 -193l-274 -775c-36.667 -103.333 -66.667 -175.333 -90 -216c-51.333 -88 -110 -132 -176 -132c-33.333 0 -61.666 8.33301 -84.999 25c-26.667 18.667 -40 44 -40 76c0 26.667 8.16699 50 24.5 70
s37.5 30 63.5 30c8 0 26.333 -4.66699 55 -14c24.667 -11.333 44 -17 58 -17c24 0 48.333 20 73 60c10.667 16.667 23.667 46.667 39 90c10.667 29.333 19.667 59.333 27 90zM549 1325l-330 -204.001h-67l289 299c23.333 24.667 42.333 40.334 57 47.001
c12 8 25.667 12 41 12c48 0 72 -23.333 72 -70c0 -30.667 -20.667 -58.667 -62 -84z" />
    <glyph glyph-name="thorn" unicode="&#xfe;" 
d="M307 754l-0.000976562 -333.999c0 -124.667 19.833 -221.334 59.5 -290.001s95.167 -103 166.5 -103c156.667 0 235 148.667 235 446c0 135.333 -21.167 238.833 -63.5 310.5s-102.166 107.5 -179.499 107.5c-60 0 -115.333 -25.333 -166 -76
c-18.667 -18.667 -36 -39 -52 -61zM57.999 -450.999l0.000976562 38.998c50 0 75 43.667 75 131v1500c0 76 -27.333 117.667 -82 125v30c39.333 9.33301 80 26.333 122 51s76 52.334 102 83.001h39l-7 -682c44 63.333 92.333 109.833 145 139.5s109 44.5 169 44.5
c116 0 203.333 -56 262 -168c46.667 -88.667 70 -196.667 70 -324c0 -137.333 -30.667 -257.666 -92 -360.999c-72.667 -123.333 -173.334 -185 -302.001 -185c-94.667 0 -178.667 40 -252 120v-373c0 -87.333 25.333 -131 76 -131v-39h-325z" />
    <glyph glyph-name="ydieresis" unicode="&#xff;" horiz-adv-x="844" 
d="M375 0l-272 802.999c-16 47.333 -31.667 80 -47 98c-16.667 24.667 -35.334 39 -56.001 43v37h328v-37c-21.333 -4 -36.5 -10.833 -45.5 -20.5s-13.5 -24.5 -13.5 -44.5l4 -19l200 -628l162 499l12 54l7 57c0 60 -24 94 -72 102v37h280v-37
c-27.333 -7.33301 -56 -33.666 -86 -78.999c-25.333 -38.667 -54 -103 -86 -193l-274 -775c-36.667 -103.333 -66.667 -175.333 -90 -216c-51.333 -88 -110 -132 -176 -132c-33.333 0 -61.666 8.33301 -84.999 25c-26.667 18.667 -40 44 -40 76c0 26.667 8.16699 50 24.5 70
s37.5 30 63.5 30c8 0 26.333 -4.66699 55 -14c24.667 -11.333 44 -17 58 -17c24 0 48.333 20 73 60c10.667 16.667 23.667 46.667 39 90c10.667 29.333 19.667 59.333 27 90zM504 1377c27.333 0 50.5 -10.167 69.5 -30.5s28.5 -43.833 28.5 -70.5s-9.66699 -50 -29 -70
s-42.333 -30 -69 -30c-28 0 -51.667 9.66699 -71 29s-29 43 -29 71c0 26.667 10 50.167 30 70.5s43.333 30.5 70 30.5zM152 1377c26 0 49.168 -10.333 69.501 -31s30.5 -44 30.5 -70c0 -26.667 -10 -50 -30 -70s-43.333 -30 -70 -30c-26 0 -50 9.33301 -72 28
c-18 20.667 -27 44.667 -27 72c0 25.333 10.167 48.5 30.5 69.5s43.166 31.5 68.499 31.5z" />
    <glyph glyph-name="OE" unicode="&#x152;" horiz-adv-x="2163" 
d="M1075 291v922c0 92.667 -23.667 157 -71 193c-41.333 31.333 -110.333 47 -207 47c-183.333 0 -316 -81 -398 -243c-61.333 -122 -92 -285 -92 -489c0 -464 164.667 -696 494 -696c101.333 0 172.333 19.333 213 58s61 108 61 208zM2048 0l-909 -0.000976562
c-46.667 0 -103.334 -5 -170.001 -15c-80 -12 -145.667 -18 -197 -18c-174 0 -322.667 55.333 -446 166c-170 152.667 -255 353.334 -255 602.001c0 239.333 91.667 441 275 605c58 52 126.833 93 206.5 123s159.834 45 240.501 45c28 0 88.667 -5.66699 182 -17
c87.333 -10.667 150.333 -16 189 -16h847l25 -287l-43 -6c-30.667 84.667 -75.667 142.667 -135 174s-177.666 47 -354.999 47h-63c-72 0 -116 -6.33301 -132 -19s-24 -44.667 -24 -96v-419h213c112.667 0 191.167 10 235.5 30s76.5 57 96.5 111h33v-350h-35
c-20.667 64 -60.334 105 -119.001 123c-31.333 9.33301 -92 14 -182 14h-242v-583c0 -64 11.333 -104 34 -120s77.667 -24 165 -24h98c52.667 0 97 3 133 9c56.667 6 96.334 12.667 119.001 20c46 15.333 89.167 40.5 129.5 75.5s83.166 84.167 128.499 147.5l41 -23z" />
    <glyph glyph-name="oe" unicode="&#x153;" horiz-adv-x="1569" 
d="M266 496c0 -158 19.167 -276.333 57.5 -355s96.5 -118 174.5 -118c102.667 0 171.667 61.333 207 184c20 68.667 30 171 30 307c0 296.667 -79.667 445 -239 445c-153.333 0 -230 -154.333 -230 -463zM910 609l298.999 -0.000976562c38.667 0 61.334 0.666992 68.001 2
c25.333 6 38 21 38 45c0 98.667 -17 173.834 -51 225.501s-82.667 77.5 -146 77.5c-69.333 0 -121.333 -28.167 -156 -84.5s-52 -141.5 -52 -255.5v-10zM829.999 141.999c-96.667 -113.333 -208.002 -169.999 -334.002 -169.999s-230 48.667 -312 146s-123 222 -123 374
c0 152.667 41.333 277.667 124 375c81.333 95.333 185 143 311 143c130 0 239.333 -55.333 328 -166c78 110.667 179.667 166 305 166c104 0 188.667 -41 254 -123c36.667 -46 63.5 -95.333 80.5 -148s25.5 -117.334 25.5 -194.001h-579c0 -102 15.667 -189 47 -261
c12 -28 26.333 -53.667 43 -77c58.667 -82 136.334 -123 233.001 -123c48.667 0 93.334 11.167 134.001 33.5s77.334 54.833 110.001 97.5l39 -24c-96.667 -146 -218.334 -219 -365.001 -219c-66.667 0 -125.5 13.5 -176.5 40.5s-99.167 70.167 -144.5 129.5z" />
    <glyph glyph-name="Scaron" unicode="&#x160;" horiz-adv-x="1161" 
d="M72 158l80.001 285.002l45 -9c28 -126.667 79.667 -226.167 155 -298.5s164.333 -108.5 267 -108.5c94.667 0 170.834 27.167 228.501 81.5s86.5 122.833 86.5 205.5c0 80 -23 144.667 -69 194c-49.333 53.333 -146.333 107.333 -291 162l-58 22
c-134.667 51.333 -227.334 103.333 -278.001 156c-32 33.333 -58 73.666 -78 120.999c-19.333 45.333 -29 91.666 -29 138.999c0 120 45 217.667 135 293c84.667 71.333 188 107 310 107c72 0 142.833 -11.5 212.5 -34.5s146.167 -60.167 229.5 -111.5l-65 -254l-41 8
c-24 94.667 -65 171 -123 229c-64.667 66 -142.667 99 -234 99c-78.667 0 -143.667 -20.333 -195 -61c-56 -44 -84 -104.333 -84 -181c0 -79.333 35 -145.666 105 -198.999c37.333 -28.667 107.666 -64.667 210.999 -108l57 -24c182 -76.667 293.333 -135.334 334 -176.001
c38 -38 65.833 -79.333 83.5 -124s26.5 -97.667 26.5 -159c0 -136 -49.667 -245.333 -149 -328c-93.333 -78 -209.333 -117 -348 -117c-199.333 0 -374 63.667 -524 191zM613.001 1622h-119l-232 350h58l233 -210l234 210h57z" />
    <glyph glyph-name="scaron" unicode="&#x161;" horiz-adv-x="819" 
d="M62 107l66.999 199.999l35 -8c18.667 -81.333 53.667 -147.333 105 -198s109.333 -76 174 -76c48.667 0 90.167 16 124.5 48s51.5 72 51.5 120c0 36.667 -13 71.334 -39 104.001c-27.333 27.333 -90 64.333 -188 111l-6 4c-192.667 90 -289 191.667 -289 305
c0 88.667 28.667 159.667 86 213s134.333 80 231 80c25.333 0 49.333 -2 72 -6c13.333 -2.66699 36.333 -10 69 -22c51.333 -19.333 100 -47 146 -83l-64 -180l-33 8c-16.667 73.333 -44 130 -82 170s-83.667 60 -137 60c-45.333 0 -85.666 -15 -120.999 -45
c-31.333 -26.667 -47 -63.667 -47 -111c0 -38.667 15 -72.667 45 -102c34.667 -34 88.667 -65.667 162 -95l25 -10c206 -82.667 309 -187.667 309 -315c0 -96 -34.667 -172 -104 -228c-64.667 -52.667 -146 -79 -244 -79c-114.667 0 -230.667 45 -348 135zM499.999 1151
h-119l-231 350h57l234 -211l233 211h57z" />
    <glyph glyph-name="Ydieresis" unicode="&#x178;" horiz-adv-x="1262" 
d="M424 0v38.999c64 0 96 60 96 180v375l-350 635c-66 131.333 -126 201 -180 209v37h414v-37c-38.667 -2.66699 -60.667 -21.667 -66 -57c0 -27.333 14.333 -66.333 43 -117c4.66699 -8 15 -26.333 31 -55l283 -517l243 447c23.333 42.667 39 78.667 47 108
c10 36.667 15 65.334 15 86.001c0 27.333 -9.16699 51.666 -27.5 72.999s-40.833 32 -67.5 32v37h365v-37c-34 -4 -64.667 -20.333 -92 -49c-34 -36 -77.667 -102.333 -131 -199l-318 -579v-392c0 -63.333 7.33301 -109.166 22 -137.499s39 -42.5 73 -42.5v-39h-400z
M768 2396c27.333 0 50.666 -10 69.999 -30s29 -43.333 29 -70c0 -27.333 -9.66699 -50.833 -29 -70.5s-42.666 -29.5 -69.999 -29.5s-50.833 9.83301 -70.5 29.5s-29.5 43.167 -29.5 70.5c0 26 10.167 49.167 30.5 69.5s43.5 30.5 69.5 30.5zM416 2396
c26 0 49.167 -10.167 69.5 -30.5s30.5 -43.5 30.5 -69.5c0 -28 -9.66699 -51.667 -29 -71s-43 -29 -71 -29c-26 0 -50 9.33301 -72 28c-17.333 20.667 -26 44.667 -26 72c0 26 9.83301 49.167 29.5 69.5s42.5 30.5 68.5 30.5z" />
    <glyph glyph-name="florin" unicode="&#x192;" horiz-adv-x="1129" 
d="M658 862l-108.997 -788.001c-19.333 -140.667 -61.333 -253.667 -126 -339c-78 -103.333 -182 -155 -312 -155c-24.667 0 -47.334 2 -68.001 6c-11.333 2 -27.333 5.16699 -48 9.5s-39.334 9.5 -56.001 15.5l61 225l37 -2c21.333 -121.333 67 -182 137 -182
c66 0 115 62 147 186c6.66699 24.667 20 111 40 259l105 765h-191l6 68h193c24 174.667 73 305.5 147 392.5s163.667 130.5 269 130.5c9.33301 0 18.666 -0.333008 27.999 -1l82 -6c8 -1.33301 20.667 -3.66602 38 -6.99902s36.666 -8.33301 57.999 -15l-62 -228l-36 2
c-23.333 122.667 -70.666 184 -141.999 184c-51.333 0 -89.333 -26.333 -114 -79c-26 -56 -50.667 -180.333 -74 -373h260l-8 -68h-262z" />
    <glyph glyph-name="circumflex" unicode="&#x2c6;" 
d="M453 1471h119l231 -350h-57l-234 210l-233 -210h-58z" />
    <glyph glyph-name="tilde" unicode="&#x2dc;" 
d="M746 1417l52.999 0.000976562c-11.333 -64.667 -34.666 -115.667 -69.999 -153s-77 -54.333 -125 -51l-32 2l-41 8l-109 29l-26 4l-31 2c-18 1.33301 -35.667 -5.66699 -53 -21c-14 -16 -25.667 -39 -35 -69h-51c12 70.667 34.333 123.667 67 159
c35.333 37.333 78.333 54.666 129 51.999l35 -2l29 -7l110 -28l29 -6l27 -3c44.667 0 76 28 94 84z" />
    <glyph glyph-name="endash" unicode="&#x2013;" 
d="M0 440v119h1024v-119h-1024z" />
    <glyph glyph-name="emdash" unicode="&#x2014;" horiz-adv-x="2048" 
d="M2048 559v-119h-2048v119h2048z" />
    <glyph glyph-name="quoteleft" unicode="&#x2018;" horiz-adv-x="563" 
d="M414 1469c-44.667 -53.333 -77.998 -98.667 -99.998 -136c-23.333 -40 -35 -74.667 -35 -104c0 -32.667 14.333 -58.667 43 -78l6 -4c19.333 -12.667 36.666 -29 51.999 -49c9.33301 -19.333 14 -38.333 14 -57c0 -32.667 -11.333 -59.667 -34 -81
s-50.334 -32 -83.001 -32c-38.667 0 -71.667 16.333 -99 49s-41 71 -41 115c0 54.667 20 118 60 190s99.333 147.333 178 226z" />
    <glyph glyph-name="quoteright" unicode="&#x2019;" horiz-adv-x="563" 
d="M149 969c18.667 20 38 43.333 58 70c10.667 14.667 25 35.667 43 63c22.667 42 34 77 34 105c0 35.333 -15.667 64 -47 86c-43.333 30.667 -65 65.334 -65 104.001c0 32 11 58.667 33 80c6 6 14.333 12 25 18c15.333 8.66699 34.333 13 57 13
c41.333 0 75.333 -17.333 102 -52c24.667 -32.667 37 -70 37 -112c0 -57.333 -19 -120.333 -57 -189s-98 -144.334 -180 -227.001z" />
    <glyph glyph-name="quotesinglbase" unicode="&#x201a;" horiz-adv-x="563" 
d="M149 -322c90 98.667 135 178 135 238c0 33.333 -16.333 62 -49 86c-42 30.667 -63 65.667 -63 105c0 33.333 10.833 60 32.5 80s49.167 30 82.5 30c41.333 0 75.333 -17.333 102 -52c24.667 -32 37 -69.333 37 -112c0 -56 -19 -118 -57 -186s-98 -144 -180 -228z" />
    <glyph glyph-name="quotedblleft" unicode="&#x201c;" horiz-adv-x="910" 
d="M760 1469c-42 -48.667 -75 -94.833 -99 -138.5s-36 -77.5 -36 -101.5c0 -32.667 14.333 -58.667 43 -78l6 -4c19.333 -12.667 36.333 -29 51 -49c10 -19.333 15 -38.333 15 -57c0 -30 -11 -57.333 -33 -82c-23.333 -20.667 -51.333 -31 -84 -31
c-38.667 0 -71.5 16.5 -98.5 49.5s-40.5 71.167 -40.5 114.5c0 119.333 79 258 237 416zM414 1469c-44.667 -53.333 -78 -98.667 -100 -136c-23.333 -40 -35 -74.667 -35 -104c0 -32.667 14.333 -58.667 43 -78l6 -4c19.333 -12.667 36.333 -29 51 -49
c9.33301 -19.333 14 -38.333 14 -57c0 -33.333 -11 -60.5 -33 -81.5s-49.667 -31.5 -83 -31.5c-38.667 0 -71.667 16.333 -99 49s-41 71 -41 115c0 54.667 20 118 60 190s99.333 147.333 178 226z" />
    <glyph glyph-name="quotedblright" unicode="&#x201d;" horiz-adv-x="910" 
d="M496 969c15.333 16.667 34.333 40 57 70c52 69.333 78 125.333 78 168c0 35.333 -15.667 64 -47 86c-22 15.333 -37.667 30.333 -47 45c-12.667 16 -19 35.667 -19 59c0 32 11 58.667 33 80c6 6 14.333 12 25 18c15.333 8.66699 34.333 13 57 13
c41.333 0 75.333 -17.333 102 -52c24.667 -32.667 37 -70 37 -112c0 -119.333 -79 -258 -237 -416zM149 969c18.667 20 38 43.332 58 69.999c10.667 14.667 25 35.667 43 63c22.667 42 34 77 34 105c0 35.333 -15.667 64 -47 86c-43.333 30.667 -65 65.334 -65 104.001
c0 32 11 58.667 33 80c6 6 14.333 12 25 18c15.333 8.66699 34.333 13 57 13c41.333 0 75.333 -17.333 102 -52c24.667 -32.667 37 -70 37 -112c0 -118 -79 -256.667 -237 -416z" />
    <glyph glyph-name="quotedblbase" unicode="&#x201e;" horiz-adv-x="910" 
d="M496 -322c90 100 135 179.333 135 238c0 34 -16.333 62.667 -49 86c-42.667 30.667 -64 65.667 -64 105c0 33.333 10.833 60 32.5 80s49.167 30 82.5 30c41.333 0 75.333 -17.333 102 -52c24.667 -32 37 -69.333 37 -112c0 -115.333 -79 -253.333 -237 -414zM149 -322
c90 98.667 135 178 135 238c0 33.333 -16.333 62 -49 86c-42 30.667 -63 65.667 -63 105c0 33.333 10.833 60 32.5 80s49.167 30 82.5 30c41.333 0 75.333 -17.333 102 -52c24.667 -32 37 -69.333 37 -112c0 -114 -79 -252 -237 -414z" />
    <glyph glyph-name="dagger" unicode="&#x2020;" 
d="M398 639c30 53.333 52.5 105 67.5 155s22.5 105 22.5 165l-2 22v23c-42.667 0 -97.334 -13 -164.001 -39c-49.333 -19.333 -88.333 -31 -117 -35c-70.667 0 -106 30 -106 90c0 67.333 35.333 101 106 101c12.667 0 49.667 -11.667 111 -35
c57.333 -22 110.333 -33 159 -33h11v18l2 29c3.33301 44 -9.66699 109 -39 195l-37 110c0 28.667 9.83301 53 29.5 73s43.834 30 72.501 30c27.333 0 50.666 -9.66699 69.999 -29c18 -22 27 -46.667 27 -74c0 -14 -8.33301 -40.667 -25 -80l-30 -71l-15 -66l-4 -98v-35h22
c38.667 0 88.667 11 150 33l61 22c20 7.33301 36.333 11.666 49 12.999c32.667 0 58.667 -9 78 -27s29 -41.333 29 -70s-9.83301 -51.834 -29.5 -69.501s-45.5 -26.5 -77.5 -26.5c-14 0 -52 13 -114 39c-59.333 24.667 -116 37 -170 37
c0 -70.667 7.66699 -138.167 23 -202.5s38.333 -119.166 69 -164.499c-27.333 -104.667 -47.666 -224 -60.999 -358c0 -56.667 -3.83301 -141.5 -11.5 -254.5s-11.5 -197.833 -11.5 -254.5h-57c0 102.667 -2.33301 195 -7 277c-6 99.333 -11.667 175.333 -17 228
c-14 126.667 -35.333 247.334 -64 362.001z" />
    <glyph glyph-name="daggerdbl" unicode="&#x2021;" 
d="M398 639c30 53.333 52.5029 105.004 67.5029 155.004s22.5 105 22.5 165l-2 22v23c-42.667 0 -97.334 -13 -164.001 -39c-49.333 -19.333 -88.333 -31 -117 -35c-70.667 0 -106 30 -106 90c0 67.333 35.333 101 106 101c12.667 0 49.667 -11.667 111 -35
c57.333 -22 110.333 -33 159 -33h11v18l2 29c3.33301 44 -9.66699 109 -39 195l-37 110c0 28.667 9.83301 53 29.5 73s43.834 30 72.501 30c27.333 0 50.666 -9.66699 69.999 -29c18 -22 27 -46.667 27 -74c0 -14 -8.33301 -40.667 -25 -80l-30 -71l-15 -66l-4 -98v-35h22
c38.667 0 88.667 11 150 33l61 22c20 7.33301 36.333 11.666 49 12.999c32.667 0 58.667 -9 78 -27s29 -41.333 29 -70s-9.83301 -51.834 -29.5 -69.501s-45.5 -26.5 -77.5 -26.5c-14 0 -52 13 -114 39c-59.333 24.667 -116 37 -170 37c0 -72 7.66699 -142.333 23 -211
c12.667 -56.667 35.667 -110 69 -160c-60 -105.333 -90 -212.333 -90 -321v-43c45.333 0 99.833 12.167 163.5 36.5s106.167 36.5 127.5 36.5c65.333 0 98 -32 98 -96c0 -26 -9.66699 -48.667 -29 -68c-21.333 -17.333 -45.666 -26 -72.999 -26
c-17.333 0 -57.833 11.5 -121.5 34.5s-114.834 34.5 -153.501 34.5h-10l-2 -18v-29c0 -62 12.333 -127.667 37 -197l39 -110c0 -28.667 -10 -53 -30 -73s-44.333 -30 -73 -30s-51.834 9.83301 -69.501 29.5s-26.5 44.167 -26.5 73.5c0 13.333 10.333 44.666 31 93.999l25 60
c6 14.667 10 40 12 76l6 122h-22c-32 0 -69 -6.66699 -111 -20c-35.333 -12.667 -71 -25 -107 -37c-22 -6.66699 -37.667 -10.667 -47 -12c-28.667 0 -52.834 9.5 -72.501 28.5s-29.5 42.833 -29.5 71.5s9.16699 51.167 27.5 67.5s44.5 24.5 78.5 24.5
c17.333 0 58.5 -12.5 123.5 -37.5s118.833 -37.5 161.5 -37.5c0 85.333 -7.33301 157.166 -22 215.499s-38 109.833 -70 154.5z" />
    <glyph glyph-name="bullet" unicode="&#x2022;" horiz-adv-x="1209" 
d="M307 762c0 81.333 29.1689 150.834 87.502 208.501s128.166 86.5 209.499 86.5c82.667 0 152.5 -28.5 209.5 -85.5s85.5 -126.833 85.5 -209.5s-28.833 -152.834 -86.5 -210.501s-127.834 -86.5 -210.501 -86.5c-82 0 -151.667 29 -209 87s-86 128 -86 210z" />
    <glyph glyph-name="ellipsis" unicode="&#x2026;" horiz-adv-x="2048" 
d="M284 94c0 32.667 12.667 61.333 38 86s54 37 86 37c36 0 65.333 -11.333 88 -34s34 -52.334 34 -89.001c0 -31.333 -12 -60.666 -36 -87.999c-26 -23.333 -54.667 -35 -86 -35c-32 0 -60.667 12.5 -86 37.5s-38 53.5 -38 85.5zM1681 93.999
c0 34.667 12.666 63.334 37.999 86.001c22.667 24.667 51.334 37 86.001 37c36 0 65.333 -11.333 88 -34s34 -52.334 34 -89.001c0 -31.333 -12 -60.666 -36 -87.999c-26 -23.333 -54.667 -35 -86 -35s-59.833 12.667 -85.5 38s-38.5 53.666 -38.5 84.999zM3082 93.999
c0 33.333 12.5 62.166 37.5 86.499s53.5 36.5 85.5 36.5c36 0 65.5 -11.5 88.5 -34.5s34.5 -52.5 34.5 -88.5c0 -31.333 -12.333 -60.666 -37 -87.999c-26 -23.333 -54.667 -35 -86 -35c-32 0 -60.5 12.5 -85.5 37.5s-37.5 53.5 -37.5 85.5z" />
    <glyph glyph-name="perthousand" unicode="&#x2030;" horiz-adv-x="2185" 
d="M1813 6c52.667 0 90.668 31.667 114.001 95c24.667 66.667 37 171.667 37 315c0 266 -51.667 399 -155 399c-101.333 0 -152 -125.333 -152 -376c0 -155.333 12.167 -266.333 36.5 -333s64.166 -100 119.499 -100zM1813 -33c-86 0 -157 41 -213 123s-84 190.667 -84 326
c0 108.667 23 204.667 69 288c56.667 101.333 135.334 152 236.001 152c97.333 0 171.666 -52.667 222.999 -158c40.667 -82.667 61 -178 61 -286c0 -103.333 -22.333 -198.333 -67 -285c-55.333 -106.667 -130.333 -160 -225 -160zM1125 6
c52.667 0 90.666 31.667 113.999 95c24.667 66.667 37 171.667 37 315c0 266 -51.667 399 -155 399c-100 0 -150 -125.333 -150 -376c0 -163.333 11.667 -275.333 35 -336c24.667 -64.667 64.334 -97 119.001 -97zM1127 -33c-87.333 0 -159 41 -215 123s-84 190.667 -84 326
c0 108.667 23.333 204.667 70 288c56 101.333 134.333 152 235 152c97.333 0 171.666 -52.667 222.999 -158c40.667 -82.667 61 -178 61 -286c0 -102.667 -22.333 -197.667 -67 -285c-55.333 -106.667 -129.666 -160 -222.999 -160zM377 606
c69.333 0 114.998 55.668 136.998 167.001c10 51.333 15 132.333 15 243c0 266 -52 399 -156 399c-51.333 0 -89.666 -30.667 -114.999 -92c-23.333 -56.667 -35 -151.334 -35 -284.001c0 -162 11.667 -274 35 -336c24.667 -64.667 64.334 -97 119.001 -97zM378.998 568.001
c-102 0 -180.001 52.001 -234.001 156.001c-43.333 82.667 -65 180 -65 292c0 108.667 23 204.667 69 288c56.667 101.333 135.334 152 236.001 152c82.667 0 150.834 -40.833 204.501 -122.5s80.5 -188.834 80.5 -321.501c0 -103.333 -22.333 -198.333 -67 -285
c-54.667 -106 -129.334 -159 -224.001 -159zM235.997 0.00195312l960 1456l64 -34l-961 -1455z" />
    <glyph glyph-name="guilsinglleft" unicode="&#x2039;" horiz-adv-x="473" 
d="M256 492c36.667 -59.333 65.333 -118.667 86 -178s35 -120.333 43 -183l-51 -16c-42 82 -83.667 151.667 -125 209c-50.667 70 -98 126 -142 168c100.667 96.667 189.667 221.667 267 375l51 -15c-12.667 -121.333 -55.667 -241.333 -129 -360z" />
    <glyph glyph-name="guilsinglright" unicode="&#x203a;" horiz-adv-x="473" 
d="M217 492c-40.667 68.667 -69.335 127.335 -86.002 176.002c-17.333 51.333 -31 112.666 -41 183.999l52 15c70 -144 158 -269 264 -375c-98 -96.667 -186 -222.334 -264 -377.001l-52 16c6.66699 66 20.334 127.833 41.001 185.5s49.334 116.167 86.001 175.5z" />
    <glyph glyph-name="trademark" unicode="&#x2122;" horiz-adv-x="1684" 
d="M781 1442h190l137 -391l144 391h180v-25l-29 -2c-12.667 -0.666992 -23.667 -5.33398 -33 -14.001c-4 -6.66699 -7.33301 -19.667 -10 -39v-375c0 -33.333 14.333 -51 43 -53l29 -2v-29h-240v29l31 2c14.667 2.66699 25.667 7.33398 33 14.001
c6.66699 11.333 10 24.333 10 39v387l-172 -473h-21l-172 476v-390c0 -17.333 3.83301 -29.833 11.5 -37.5s18.167 -12.834 31.5 -15.501l33 -2v-29h-196v29l32 2c15.333 2.66699 26.333 7.33398 33 14.001c4 8.66699 7.33301 21.667 10 39v371c0 18 -3.5 30.833 -10.5 38.5
s-17.833 12.5 -32.5 14.5l-32 4v27zM250 1442h445.001l10 -182h-27c0 26.667 -3.33301 49 -10 67s-17 33.667 -31 47c-20.667 24.667 -52 37 -94 37h-17v-424c0 -17.333 3.66699 -29.333 11 -36c5.33301 -8.66699 15.666 -14.334 30.999 -17.001l32 -2v-29h-254v29l31 2
c15.333 2.66699 26.333 7.33398 33 14.001c6.66699 11.333 10 24.333 10 39v424h-16c-42.667 0 -75.667 -12.333 -99 -37c-18.667 -19.333 -31.667 -57.333 -39 -114h-26z" />
    <glyph glyph-name="dotoperator" unicode="&#x2219;" horiz-adv-x="563" 
d="M160 721c0 34 12.002 63 36.002 87s53 36 87 36c32.667 0 62 -11.667 88 -35c23.333 -26 35 -55.333 35 -88s-12.333 -61.334 -37 -86.001s-53.334 -37 -86.001 -37s-61.334 12.333 -86.001 37s-37 53.334 -37 86.001z" />
    <glyph glyph-name=".null" horiz-adv-x="0" 
 />
    <glyph glyph-name="glyph2" horiz-adv-x="563" 
 />
    <glyph glyph-name="HT" horiz-adv-x="563" 
 />
    <glyph glyph-name="nonmarkingreturn" horiz-adv-x="563" 
 />
  </font>
</defs>
</svg>
